<svg xmlns="http://www.w3.org/2000/svg" viewBox="0 0 85.69 76.78"><defs><style>.cls-1{fill:#23211d;}.cls-2{fill:#3a1917;}.cls-3{fill:#3c3934;}.cls-4{fill:#ce978a;}.cls-5{fill:#141311;}.cls-6{fill:#97978d;}.cls-7{fill:#d0bdb0;}.cls-8{fill:#3d3c35;}.cls-9{fill:#c6a091;}.cls-10{fill:#ababa0;}.cls-11{fill:#2c2923;}.cls-12{fill:#423c37;}.cls-13{fill:#232121;}.cls-14{fill:#11110d;}.cls-15{fill:#25221a;}.cls-16{fill:#1c1c15;}.cls-17{fill:#1d1d13;}.cls-18{fill:#edd6cc;}.cls-19{fill:#29251e;}.cls-20{fill:#cbc7c4;}.cls-21{opacity:0.2;}</style></defs><title>Asset 15</title><g id="Layer_2" data-name="Layer 2"><g id="Layer_1-2" data-name="Layer 1"><path class="cls-1" d="M22,32.07c2,.33,3.47-1,4.78-2.12C31,26.37,35,22.63,39,19a4.11,4.11,0,0,1,2.37-2.39c2.34-.1,3.49-2.56,5.71-2.9A20.32,20.32,0,0,0,58.7,16.77c2.63-.17,3.69,3,6.23,3.14.87,1.14,2.92-.18,3.45,1.66a1.51,1.51,0,0,1-.45,1.24c-4.28-1.62-8.83-1-13.31-1.69-.07,2,1.83,2.91,2.44,4.5,0,3-2.4,2.83-3.54,1.81-2.7-2.4-6.21-1.94-9.1-3.38-3.38-1.65-5.21,0-8,2.22-4.15,3.31-8.51,6.4-12.46,10a2.55,2.55,0,0,1-2.77-3A2.13,2.13,0,0,1,22,32.07Z"/><path class="cls-2" d="M47.11,13.66c-1,2.38-2.48,4.24-5.42,4.15-.38-1.2.22-2.22.61-3.28.73-1.94.76-3.53-1.8-4-2.26-.42-3.42.4-3.42,2.77a3.26,3.26,0,0,1-1.17,2.59C30.6,9.46,30,6,37.22,1.43c2.77-1.72,10,1,10.3,4.21C47.75,8.22,50.64,11.22,47.11,13.66Z"/><path class="cls-3" d="M59.93,37l-1.74,3c-1.37,1-1.8,2.55-2.53,3.91-1,1.85-1.83,1.21-2.78.06-.62-.55-.58-1.33-.69-2,0,0-.27,0-.37.24-.85,1.69,1.43,1.36,1.58,2.43C55.76,49,54.82,51.17,50.17,52c.87-3.44-1.32-5-3.89-6.27-4.11-2-3.5-3.76-.3-6.21,2.16-1.66,4.76-3,6.09-5.58a3.94,3.94,0,0,1,3.29,0c1,.49,2.25.47,3.32.9C59.51,35.27,60.46,35.69,59.93,37Z"/><path class="cls-4" d="M35.91,15.87c.12-2.83-1-5.74.72-9.07,1.2,2.31,2.72,2.72,5.07,2.27C44.36,8.56,46,12.38,44.39,15a20.12,20.12,0,0,1-2.7,2.85L39,19C38.83,17.07,37.46,16.38,35.91,15.87Z"/><path class="cls-5" d="M55,34.89l-2.89-1c-.73-.69-3.23-.91-.87-2.48,4.35-2.88.47-4.1-1.25-4.54a11.67,11.67,0,0,1-5.53-2.84c3.4.21,7.11-1,9.76,2.58.65.89,2.17.13,2.88-1L59.93,28C58.63,30.52,58.13,33.66,55,34.89Z"/><path class="cls-6" d="M15.72,31.23,0,0C7.37,9,11.26,19.93,17,29.82c1,0,1.3.46.86,1.37A2,2,0,0,1,15.72,31.23Z"/><path class="cls-3" d="M55.82,45.94c.06,1.46.73,1.69,2.19,1.65,2.74-.09,5,.88,5.2,4.18-1.06.55,0,1.38-.27,2-3.66,2.21-6.16-.74-9-2C54,49.65,53.62,47.38,55.82,45.94Z"/><path class="cls-7" d="M76.92,20.77c2.09-.89,4.17-1.83,6.3-2.63a1.77,1.77,0,0,1,2.21.61c.64,1,0,1.45-.91,1.75-1.64.53-1.54,2-1.63,3.27a4.19,4.19,0,0,1-2.52,3.46c-2,.91-2.18-1.49-3.28-2.27C75.65,23.62,76.67,22.18,76.92,20.77Z"/><path class="cls-8" d="M42.85,65c-1.45-1.87-1.15-3.42.56-5.07,2-1.89,3.67-4,5.49-6.09,2.73,1.21,1.53,3.35,1.24,5.28l.13-.16c-1.75,2.62-1.94,6.29-5.31,7.81a1.46,1.46,0,0,1-.82.43C42.86,67,43.76,65.49,42.85,65Z"/><path class="cls-9" d="M15.72,31.23l2.47-.08a6.14,6.14,0,0,1,3.56,1.72A4.17,4.17,0,0,0,24,36.27c-2,.09-1.52,4.77-4.71,2.68C16.5,37.15,14.5,34.9,15.72,31.23Z"/><path class="cls-10" d="M55.41,76.78H31.28C39.38,76,47.46,73.76,55.41,76.78Z"/><path class="cls-11" d="M50.14,59.16c-.29-1.79-.18-3.68-1.24-5.28L50.17,52c3.55-1.73,4.14-4.5,2.8-8l0,0c3.48,1,2.44-4,5.2-4l-2.37,5.94c-.64,2-1.28,3.89-1.91,5.84Z"/><path class="cls-12" d="M76.92,20.76c2.82,1.29-.29,2.82.17,4.2L76,26.07C73.67,24,70.44,23.66,67.92,22l-3-2.05Z"/><path class="cls-13" d="M55,34.89C56.67,31,58.13,29,59.93,28l1.39,1.77A5.48,5.48,0,0,1,58,35.9C56.86,35.89,55.69,36.06,55,34.89Z"/><path class="cls-14" d="M58,35.9l3.34-6.18c1.83,1,2.63,2.8,3.49,4.83-1.69.77-3.91.46-4.88,2.4Z"/><path class="cls-15" d="M45,66.81c.67-3.35,3.17-5.46,5.31-7.81.24,2.53-1,4.66-1.85,6.9C47.6,68,46.35,67.41,45,66.81Z"/><path class="cls-16" d="M42.85,65c1.91-.14.77,1.52,1.29,2.2-1.58,2.47-2.37,6.13-7.46,4.2C41,71,41.39,67.56,42.85,65Z"/><path class="cls-17" d="M62.94,53.8c-.44-.75-2.44-1.71.27-2,3.91,1.75,3,4.61,2,8C63.3,57.83,65.28,55,62.94,53.8Z"/><path class="cls-18" d="M21.75,32.87c-1.57.22-3.56,1.3-3.56-1.72L17,29.82c2-1.41,2.47-1.22,5,2.25A2.13,2.13,0,0,1,21.75,32.87Z"/><path class="cls-19" d="M67.92,22c3.12.53,6.39.75,8.06,4.11l-8-3.26C67.92,22.53,67.92,22.24,67.92,22Z"/><path class="cls-20" d="M53,44c-1.17,1.7-2.41,1.45-3.49,0s-.19-2.18,1.17-2.93a29.92,29.92,0,0,0,4-3.2c.57,2.55-1.72,4-1.69,6.1Z"/><g class="cls-21"><path d="M37.52,16.55a2.72,2.72,0,0,0,1.84-.15c.46-.17.94-.44,1-1,0-.19-.28-.19-.3,0,0,.42-.56.62-.9.73a2.36,2.36,0,0,1-1.57.11c-.18-.07-.26.22-.08.29Z"/></g><g class="cls-21"><path d="M38.09,17c.53-.11,1-.25,1.56-.41.25-.08.49-.17.73-.27s.36-.21.31-.44-.33-.1-.29.08-.4.19-.47.21-.42.15-.63.21q-.63.2-1.29.33c-.18,0-.1.33.08.29Z"/></g><g class="cls-21"><path d="M38.25,12.5a2.12,2.12,0,0,1,1.92-1.21.15.15,0,0,0,0-.3A2.41,2.41,0,0,0,38,12.35c-.08.17.18.32.26.15Z"/></g><g class="cls-21"><path d="M37.49,12.82a5.72,5.72,0,0,0,2.2-.52,2.13,2.13,0,0,0,1.12-1.45c0-.19-.25-.27-.29-.08-.23,1.39-1.88,1.64-3,1.75-.19,0-.19.31,0,.3Z"/></g><g class="cls-21"><path d="M38.57,12.44a1.56,1.56,0,0,1,.91-.72,8.31,8.31,0,0,1,1.45-.43c.19,0,.11-.33-.08-.29a8.4,8.4,0,0,0-1.55.47,1.79,1.79,0,0,0-1,.82c-.08.17.18.32.26.15Z"/></g><g class="cls-21"><path d="M37.74,12.88c1-.46,2.34-.63,2.72-1.82.06-.18-.23-.26-.29-.08-.34,1.07-1.71,1.23-2.58,1.64-.18.08,0,.34.15.26Z"/></g></g></g></svg>