<svg xmlns="http://www.w3.org/2000/svg" viewBox="0 0 688.25 343.18"><defs><style>.cls-1{fill:#68655e;}.cls-2{fill:#79756c;}.cls-3{fill:#8c877f;}.cls-4{fill:#242422;}.cls-5{fill:#afa7a0;}.cls-6{fill:#373532;}.cls-7{fill:#0b1013;}.cls-8{fill:#615d55;}.cls-9{fill:#4f5052;}.cls-10{fill:#b4aca4;}.cls-11{fill:#726458;}.cls-12{fill:#111212;}.cls-13{fill:#8a8786;}.cls-14{fill:#7e7b7a;}.cls-15{fill:#434246;}.cls-16{fill:#2e2e31;}.cls-17{fill:#424143;}.cls-18{fill:#85725c;}.cls-19{fill:#414043;}.cls-20{fill:#323336;}.cls-21{fill:#353538;}.cls-22{fill:#464243;}.cls-23{fill:#413f41;}.cls-24{fill:#2a2b2e;}.cls-25{fill:#625f61;}.cls-26{fill:#67676b;}.cls-27{fill:#63656b;}.cls-28{fill:#3b393b;}.cls-29{fill:#cdd7e2;}.cls-30{fill:#cfd9e3;}.cls-31{fill:#ced9e4;}.cls-32{fill:#d1dbe5;}.cls-33{fill:#9c9896;}.cls-34{fill:#282727;}.cls-35{fill:#6f6257;}.cls-36{fill:#514d4b;}.cls-37{fill:#55534d;}.cls-38{fill:#67645d;}.cls-39{fill:#4e4d48;}.cls-40{fill:#3d3d3c;}.cls-41{fill:#65615d;}.cls-42{fill:#3f3d3a;}.cls-43{fill:#95908a;}.cls-44{fill:#4d4a44;}.cls-45{fill:#43413e;}.cls-46{fill:#807c74;}.cls-47{fill:#52524c;}.cls-48{fill:#71716f;}.cls-49{fill:#4c4b45;}.cls-50{fill:#49423c;}.cls-51{fill:#0c1114;}.cls-52{fill:#948d84;}.cls-53{fill:#625c53;}.cls-54{fill:#9c968d;}.cls-55{fill:#55524c;}.cls-56{fill:#a29f9a;}.cls-57{fill:#bfb6af;}.cls-58{fill:#c7beb8;}.cls-59{fill:#75726b;}.cls-60{fill:#5b5a53;}.cls-61{fill:#040606;}.cls-62{fill:#a09c97;}.cls-63{fill:#786f64;}.cls-64{fill:#7f7972;}.cls-65{fill:#777069;}.cls-66{fill:#a4a29e;}.cls-67{fill:#5c5851;}.cls-68{fill:#7a746d;}.cls-69{fill:#77726b;}.cls-70{fill:#3d3c37;}.cls-71{fill:#d1dce7;}.cls-72{fill:#9f9a93;}.cls-73{fill:#766e65;}.cls-74{fill:#94908c;}.cls-75{fill:#605e58;}.cls-76{fill:#bbb4ac;}.cls-77{fill:#857d74;}.cls-78{fill:#a39b93;}.cls-79{fill:#595756;}.cls-80{fill:#514d4a;}.cls-81{fill:#9e9994;}.cls-82{fill:#a3a09d;}.cls-83{fill:#9c9893;}.cls-84{fill:#aca8a4;}.cls-85{fill:#898580;}.cls-86{fill:#969089;}.cls-87{fill:#888380;}.cls-88{fill:#7a7672;}.cls-89{fill:#9a938d;}.cls-90{fill:#bcb5b1;}.cls-91{fill:#53504e;}.cls-92{fill:#9a9693;}.cls-93{fill:#c4beba;}.cls-94{fill:#34312d;}.cls-95{fill:#989593;}.cls-96{fill:#41403e;}.cls-97{fill:#44413f;}.cls-98{fill:#cdc7c3;}.cls-99{fill:#332f2b;}.cls-100{fill:#d3dee9;}.cls-101{fill:#51504a;}.cls-102{fill:#827a72;}.cls-103{fill:#3b3a36;}.cls-104{fill:#171716;}.cls-105{fill:#69655d;}.cls-106{fill:#605c59;}.cls-107{fill:#2c2d31;}.cls-108{fill:#0f100f;}.cls-109{fill:#908c88;}.cls-110{fill:#96918c;}.cls-111{fill:#0f1010;}.cls-112{fill:#79726b;}.cls-113{fill:#9c9793;}.cls-114{fill:#887255;}.cls-115{fill:#514c47;}.cls-116{fill:#8e8a87;}.cls-117{fill:#444342;}.cls-118{fill:#bab6b3;}.cls-119{fill:#3c3d3c;}.cls-120{fill:#8d8986;}.cls-121{fill:#3e3b39;}.cls-122{fill:#3a3a37;}.cls-123{fill:#92918f;}.cls-124{fill:#6c6862;}.cls-125{fill:#171614;}.cls-126{fill:#31302e;}.cls-127{fill:#a59f98;}.cls-128{fill:#8d8b86;}.cls-129{fill:#35312b;}.cls-130{fill:#82827f;}.cls-131{fill:#827d79;}.cls-132{fill:#796e63;}.cls-133{fill:#827c74;}.cls-134{fill:#a8a29c;}.cls-135{fill:#737169;}.cls-136{fill:#838078;}.cls-137{fill:#adaaa6;}.cls-138{fill:#9e9a95;}.cls-139{fill:#908c86;}.cls-140{fill:#a09a94;}.cls-141{fill:#5e5952;}.cls-142{fill:#b8b0a9;}.cls-143{fill:#544e46;}.cls-144{fill:#706f6c;}.cls-145{fill:#494742;}.cls-146{fill:#484742;}.cls-147{fill:#41413d;}.cls-148{fill:#a09b95;}.cls-149{fill:#96928e;}.cls-150{fill:#76716a;}.cls-151{fill:#706e69;}.cls-152{fill:#5c5a55;}.cls-153{fill:#6d6a63;}.cls-154{fill:#787169;}.cls-155{fill:#d5cec9;}.cls-156{fill:#6b6661;}.cls-157{fill:#a5a3a0;}.cls-158{fill:#9a9897;}.cls-159{fill:#a0a09e;}.cls-160{fill:#8b8a84;}.cls-161{fill:#b4b5b3;}.cls-162{fill:#686a6c;}.cls-163{fill:#89837e;}</style></defs><title>Asset 4</title><g id="Layer_2" data-name="Layer 2"><g id="Layer_1-2" data-name="Layer 1"><path class="cls-1" d="M649.84,284.94c2.34-2.77,3.3-2-1-9.16,2.1,4.07,17.35-9.67,3.1-55.57,4.42,2.64-4.61-31.79-5.55-22.33-.83,2.12,12.91-64.6-14.95-30.81-2.09-26.41-32.13,10.74-32-6.59,1.29-8.34-6.44-13.19-10.27.08-2.57-4.31-8.13,1.28-.48,7.87-17.3-44.28-41.45.18-3.66,28.34-6.84,27.71,32.83-4.53,42.37.36-36.47.91,19.76,11.06,4.81,20C612.87,203,612.67,235.87,619.77,247c9.34,14.3,32.18,14.25,13.27,22.8C636.31,269,612,274.36,649.84,284.94ZM608.6,167.58a5.74,5.74,0,0,1,5,4A11.78,11.78,0,0,0,608.6,167.58Zm20.14,29.59c.43,0,.86,0,1.25,0Zm3.8,20.26a4.25,4.25,0,0,0,1.08.88A4,4,0,0,1,632.54,217.43Zm8.1-24.4a5.82,5.82,0,0,1-2.1,3C639.14,195.12,639.35,193.82,640.64,193Zm-5,10.36c3.41,2-3.25-7.71,4.8-3.91C642.18,199.71,642,198.88,635.67,203.39Z"/><path class="cls-2" d="M646.55,320.64c.86-24,3.21-11.48-23.48-14.12,12.13-3.19,7.23-19.61-8.26-12.09-2.45-8.54-6.86.89,8.82-22.33-17.29-9.64-2.46,2.58,12.35-12.34-1.4-7.47-10.79.17-18.17-24,16.94,7-23.72-47.39-12.71,32.7-1.86-3.05.1-20.68-13.16-16.12,16.07-7.1-27.34-17.33,3,13.76-21.12-16.54-12.11,55.26-4.23,23.36,4.9-10.14-5.56,5.89,2.73,18.55C613.07,306.76,592.29,316.79,646.55,320.64ZM604.4,273.36c-.09.15-.26.28-.36.43A2.35,2.35,0,0,1,604.4,273.36Zm2.6,27.78c-.24-1.67-.58-3.3-.9-4.88A30.72,30.72,0,0,1,607,301.14Zm-.13,7.95a17.37,17.37,0,0,0,.39-2.82C607,306.93,607.8,306.64,606.87,309.09Z"/><path class="cls-3" d="M647,312.71c5.93-2.76-2.43-11.1-3.77-13,9.36,8.33,25.15-28.86,3-25-1.41,1.76,13.18,16.36-11.46,3.44,18-.78-15.12-6.15.77-6.17,8.19-9.08,15.92,1.84-1.18-15.91-8.07,18.7-26.81,1.93-17.3,18.85-1.78-2.3-18.78,3.73,4.15,2.66-15.33,12.38-15.75,12.53,6.94,21.81,20.37.36-36.88.59,11.8,14.38C645.61,294.88,641.53,319.78,647,312.71Z"/><path class="cls-2" d="M607,318.15c15.61,20.49-19.56,45.85-21.38-3.59C582.29,313.37,595.24,302.64,607,318.15Z"/><path class="cls-4" d="M610.51,332.06c-13.86-15.79,17.2-11.06,16.19,5.81C624.62,338.27,606.75,345.81,610.51,332.06Z"/><path class="cls-5" d="M607,318.15c.09-3.57.13-5.35,0,0C603.88,319.73,605.15,304.94,607,318.15Z"/><path class="cls-6" d="M63.13,304.66c9.92-9.7-64.49-38.49-55.87-8.45,3,1.86-8.32,28.31,25.63,17.61C33.73,319.1,74.72,326.77,63.13,304.66Z"/><path class="cls-7" d="M99.75,306.49c-30.48,67.44-47.51-206.42,77-160.79,4.38,4,57.94-18,91.79,89.61C211.46,236.23,169.05,227.1,99.75,306.49Z"/><path class="cls-8" d="M82.69,294c9.14,25.3-25.06,47.61-20.43,1.74.27-5.44-8.5,10.12-14.55-5.28,5.43-16.49,16.92,9.06,18.92-15.35,3.94,10.36-32.06,17.07-21.13-2.44,7.32-14.33,18.88,9.54,2.23-16.44,3.12-11,52.81-14.28,27.74,7.11-11-14.68-19.35,1.68,2,6.8C88.66,247.76,82,260.75,82.69,294Z"/><path class="cls-9" d="M21,316.28l8,0C26.32,318.58,23.65,318.67,21,316.28Z"/><path class="cls-10" d="M63.57,319.8c.21-5.38,5.51-12.51,1.89.88C65,321,63.93,323.35,63.57,319.8Z"/><path class="cls-11" d="M682.22,94.15c16.59,45-101.52,2.63-58.63,39.89-2-8.82,26.32-21.76,12.2,5.27.61.94,9.42-4.76,11.42,10.46-22.48-6.23-51.26,17.3-41.81-36.31C600.88,93.67,619,170,573.17,138.29c12.77,1,48.34-16.17-.52-19.11-20.51-4-10,16.76-11.61,22.32.88-5.68-18.72,14.56-16.86-12.17-4.66-59.27,28.08-15.27-34.31-22.14,22.49-14.18,61,33.37,15.78,29.71,59.4-22.29-108.25-37.42-13.59-34.77-66-12.66-4.86,13.11-32.76,33.55-11.22-4-76.2-10.09-17.23-14.18-13.94-20.11-36.28-24.8,4.95-21.93-8.18-5.12-51.27,7.39-50.62-18.48-2.25,27.07,13.1,66.45-33.17,37.34,25-5.6,14.48,9.11,23-15.14-20.5,1.28-117.14-18.88-12.08-13.2C319.53,103,345.87,48.26,378,73.22c-5.42-10.4,2.48-29.63,46.19-14.13C408,53.92,577.23,63,682.22,94.15Z"/><path class="cls-12" d="M679.51,159.7c2.55-28.09,1.74-2.9-73.75-14.74-.49-8.36,3.23-67-2.14-30.7-14.15,8.22,41,43.53-78.62,20.82-28.62-11.19-80.66,8.28-106.3-20.18-4.64,18.85-39.45,4-72.52,3-4.79-13.7,3.39-12.61-5.17-41.37-17.29,89.06,18.14,18.19,77.27,70.23,2.69-9.69,26.93-24.39,59.37,7.41,6.32,3-5.49-21,32.56-12.26,23.2-12.8,32.59,33,41.06,7.74,35.79-11.84,40.69,18.18,75.75,4.6C646.4,144.75,675.38,189.32,679.51,159.7Z"/><path class="cls-13" d="M359.26,30.31c-1,5.63,40.07-4.13,182.52,17.11,12.2-2.32,35.09,12.63-6.42,7.91-5.21-11.19-280.91-10-330.24-31.33C241.41,21.94,210.23,23.48,359.26,30.31Z"/><path class="cls-14" d="M204.22,25.06c-50.55.44-138.52-7.4-193.77,9.77C56.48,31.34,163.72,43.91,204.22,25.06Z"/><path class="cls-15" d="M483.94,28.71c.56,27.12-15.7,3.37-4.19-9.52-.64-2,46.84,25.53,58.46,4,23.67,21,28.43,2.29,73.24,14.72,10.21-1.11,54.21,8.57,6.65,4.66-14.1-15.35-38.28,28.08-34.85.66,2.56-1.34-28-19.12-46.45,4.76C537.58,24.61,506.58,36.15,483.94,28.71Z"/><path class="cls-16" d="M82,23.31c6.9-20.43-65.33-26.11-62.9,7.06C27.18-8.25,69.37,31.16,82,23.31Z"/><path class="cls-13" d="M583.79,52.47c-3.38-8,81.64-2,69.7,26.61C674.85,63.07,505.23,52.17,583.79,52.47Z"/><path class="cls-17" d="M304.4,28.56c-4.61,8.11-4.91-20.79-54-5.32-6.87.43-.43-36.2,4.85-12.84,16.67,9,14.68,2.61,82.15,5C357.31,25.06,311.61,10.22,304.4,28.56Z"/><path class="cls-18" d="M676.81,138.51c-1.6,25,15.86,23.4,5.08-35.46C682.8,105.92,673.83,105.19,676.81,138.51Z"/><path class="cls-19" d="M432.61,37.48c-.31-33.41-69.18,9.12-63.35-30.14,1.72.6,1.4-.89,3.25,9.33C400.38,35.84,447.7-9,432.61,37.48Z"/><path class="cls-20" d="M153.14,25.83C146.43,11.64,70.41,30.69,88.26,3c1.31-.65-6.11,23.48,54.46,6.63C139.3,5.21,152.13-2.35,153.14,25.83Z"/><path class="cls-21" d="M203.55,24.07c-5.93,6.93-7.82-8.38-22.34-14C196.07,10.51,195.65-20.45,203.55,24.07Z"/><path class="cls-22" d="M646.84,59.52c-11.85,8.75-7.36-33.09,1.49-25.83C648.19,38.2,647.67,39.75,646.84,59.52Z"/><path class="cls-23" d="M343.15,17.11c12.19-1.34,11.53-30,16.11,13.2C351.78,40.18,360.72,22.12,343.15,17.11Z"/><path class="cls-24" d="M86.47,18.89c1.14-7.86,25,9.48,2.69,9.62C86.38,26.55,86.88,27.75,86.47,18.89Z"/><path class="cls-25" d="M198.77,11c2-6.56,16.78.05,50.51.74C236.55,18.31,220.41,13.58,198.77,11Z"/><path class="cls-26" d="M433.31,21.64c10.37-2.08,20.21,1,39.2,3.34C463.37,28.29,447.34,28.33,433.31,21.64Z"/><path class="cls-27" d="M181.21,10.07c13.07,7.09-51.33,7.41-20.82,2.54C165.21,11.94,170.06,11.29,181.21,10.07Z"/><path class="cls-28" d="M368,21.56h0C371.55,20,378.49,38.23,368,21.56Z"/><path class="cls-29" d="M142.35,7.05c1.33,15.62-29.82,4.78-49.1,6.63C101.55,9.63,136.29,22.44,142.35,7.05Z"/><path class="cls-30" d="M632.55,40.13c-9.13-.65-24.14-1.81-40.93-4.34C604.53,36.62,608.48,36.5,632.55,40.13Z"/><path class="cls-31" d="M68.9,3.34c5.24,11.85-25.45,7.07-27.37,6.71C44.64,6.52,58.19,17.45,68.9,3.34Z"/><path class="cls-32" d="M337.43,15.43c.19,1.84-55.78,1.34-23.66.72C319.25,15.74,324.77,15.79,337.43,15.43Z"/><path class="cls-33" d="M686.73,138c-1.15-3.68-3.76-4.08,0,0C690.82,136.77,685.19,123,686.73,138Z"/><path class="cls-33" d="M687.39,126.9c-1.12-5-.92-3.22,0,0C687.13,130.46,678.07,114.63,687.39,126.9Z"/><path class="cls-24" d="M91.26,13.48c-.41-3.45-1-5,0,0C88.27,17.78,87.26-5.08,91.26,13.48Z"/><path class="cls-18" d="M682.22,94.15c0-2.91-1.54-3.19,0,0C683.54,94.62,671.37,92.21,682.22,94.15Z"/><path class="cls-31" d="M23.53,11c7.63-.42,5.09-.2,0,0C21.75,12.24,49.13,11,23.53,11Z"/><path class="cls-34" d="M676.91,92.26c1.82,4.39.53.27-.23,11.15C674.93,102.08,676,103,676.91,92.26Z"/><path class="cls-35" d="M380.32,55.18C376.09,60-15.58,6.37,3.31,80.81,16,77.49,29.81,82.25,55.6,79.57c1.46,1.87,9.66-4.32.07,26.76-6.62.1,5.51,47.71,14.34-31.39,3,14.42,31.1,4,49.35,6.84,4.07-.58-13.91,29.6,2.85,22.5,1,13.17,4-3.32,6.77-40-3.3,26.58,56.63,1.87,56.49,18.57,8.27-2-57.17-4.63-39.07,3.54,6.56,3.1,41.66-8.92,40.85,9-6.19,8-16.92,27.57,8.24,16.89C199.76,92,183.35,70.86,227.17,81c-24.6,4.36-45.55,1.52,17.08,13.58-9.38,20.67,14.1,59.3,11.55-30.32,12.36,42,67,1.94,74.86,28.94-19-2.23,6.79,58.42,9.77,18.6,2.8-14.32-9.26-45.28,10.06-52.22,1.05,17.26-16.76,28.52,13.79,4.78C370.59,54.22,377.12,103.24,380.32,55.18ZM198.66,67c0-1.3,0-2.58,0-3.8A11.46,11.46,0,0,1,198.66,67Zm32.91,14.25c3.42.14,6.76.33,10,.69C238.71,82.13,235.26,81.54,231.57,81.22Zm92.52-14.65a40.05,40.05,0,0,1,.53,7.64C324.49,71.38,324.15,68.73,324.09,66.57Z"/><path class="cls-36" d="M554.19,67.82C597.16,55.51-60.23,6.07,12,51.47,198.62,39.29,255.64,47.43,554.19,67.82Z"/><path class="cls-37" d="M53.9,114.5c53.92,8.07-28.41,39.39,26,21.45C69.62,99.69,199.35,120.31,112,133.53c-7.36,10.2,55.7,2.9-1.56,21.74-.59,1.55,8.55-24.93-25.31,1.58-9.89-1.48,1,41.14-33.65,57.07C34,220.14,67.48,172.82,38.8,170.74c-1.54,6-18.84-16.48,10.83-20-.33-4.92-14.37-18.85,9.61-18.85,13.09-4.07-22.42,1.42-22.32-12.19C37.32,112.53,45.55,126.61,53.9,114.5Z"/><path class="cls-38" d="M56.41,107.36c-5.91,5.09-22.85,2.91-35,2.58-21.48,8.8-1.29-36.45,16.3-14.71C31.41,110.39,42.21,103,56.41,107.36Z"/><path class="cls-39" d="M3.37,124.64c-.34-.6-.55-.86,0,0C3.19,123.47.29,115.53,3.37,124.64Z"/><path class="cls-39" d="M12.06,133.88c.73-.29,1.11,0,0,0C7.38,128.73,3.3,147.13,12.06,133.88Z"/><path class="cls-40" d="M3.32,80.82C-1,75.75,84.65,78.46,51.06,82.48c-2.35-.2-47.95.06-31.88.87C38.55,81,7.89,101.34,3.32,80.82Z"/><path class="cls-41" d="M9.66,104.61c6.26-32.92-25.8-12.74,1.58,6.2C14.86,109.05,9.83,114.44,9.66,104.61Z"/><path class="cls-42" d="M13,133.91c-18.7-20.12,41.54-20.65,31.14-16.07C37.11,120.94,14.16,116,13,133.91Z"/><path class="cls-38" d="M44.14,117.83c-2.46.13-2.64,1.7,0,0C53,114.72,48.65,127.58,44.14,117.83Z"/><path class="cls-43" d="M14,110.85h0C12.88,108.63,26.49,107.87,14,110.85Z"/><path class="cls-44" d="M564.4,147.36c24.6-4.59-24.35,16.24,26,48.88-14.44,7.06-.68,2.54,8.73,22.15-1,.54,9.72,50.59-4.55,14-16.64,4.81-25.62,11.26-14.43-19-14.08,4.76-37.83-2.72-1.18-12.62C573.84,193.58,541.16,192.82,564.4,147.36Z"/><path class="cls-45" d="M578.56,149.88c-12.57-2.34,10.48-10.79,27,14,6.12,3.92-15.85-25.52,51.73-4.19-1.2,7.2-14-11.05-25.63,9.46-4-5.75-9-20-25-3.13,17.76,9.34,6,12.34-13.63-10.54C586.16,164,578.62,181.74,578.56,149.88Z"/><path class="cls-46" d="M591.89,207.5c-8.22,1.35,67.7-3.22,39.78,8.73C623.27,215.39,604.14,229.63,591.89,207.5Z"/><path class="cls-47" d="M674.67,177.47c6.67-32,7.92,11.54-29.72-17.87C652.77,168.33,641.65,188.81,674.67,177.47Z"/><path class="cls-48" d="M657.74,264.83c0,.58,0,.87,0,0C653.11,267.93,654.11,286.93,657.74,264.83Z"/><path class="cls-48" d="M649.27,261.12c16.07,17.8.76-28,7.88-5C658.92,257.16,640.4,254.42,649.27,261.12Z"/><path class="cls-49" d="M609.63,208.21c-6.08-14.87,26.34-20,22.66-8.37C584.17,193.18,657.62,208.79,609.63,208.21Z"/><path class="cls-50" d="M608.63,220.65c3.09-5.33,20.62,5.84,3.78,6.46C613.88,224.94,605.1,229.18,608.63,220.65Z"/><path class="cls-2" d="M637.65,237.54c-5.13-.37-3.27,31.76-7.92,8C635.58,246.17,621.22,236.8,637.65,237.54Z"/><path class="cls-48" d="M637.87,196.77c-3.41-1.64,7.71-11.19,4.31-1.49C641.49,194.5,640.3,196.52,637.87,196.77Z"/><path class="cls-2" d="M637.05,259.62c0-.22-2.4-4,4.7-3.32C643,259.37,645.71,261.23,637.05,259.62Z"/><path class="cls-2" d="M627.55,244.69c-1.82-3.78-.49-5.9,0,0C625.37,246.49,621.67,238.52,627.55,244.69Z"/><path class="cls-46" d="M631.66,216.24h0C633.49,216.82,639.07,220.88,631.66,216.24Z"/><path class="cls-51" d="M558.34,208.2c1.39-.13,31.06,16.24,27.57,127.23-30.7-107-154.11-117.55-205-8.92C375.7,240.34,453,90.79,558.34,208.2Z"/><path class="cls-52" d="M580.47,257.78c-18-23.13,21.44-44.24,17.78-7.44C590.08,256,598.42,232.19,580.47,257.78Z"/><path class="cls-1" d="M608.63,220.65c5.13,19-22.09,9.7-8.48-4.14C582.75,213.76,591.82,199.66,608.63,220.65Z"/><path class="cls-53" d="M589,309.92c-5.63,1.1,1-31.88,2.84-4.41C612.36,305.76,607.83,321,589,309.92Z"/><path class="cls-54" d="M582.89,274.71C571,261.36,600,242,594.36,267.64,594.2,270.24,581.52,258.78,582.89,274.71Z"/><path class="cls-55" d="M592.73,250.75c18-16.34,15.67,21.36,11,22.24C613.91,260.53,583,249.64,592.73,250.75Z"/><path class="cls-56" d="M591,295c4.73-1.33,2.78-1.11,0,0C584.17,293.22,592,266.23,591,295Z"/><path class="cls-55" d="M598,228.63c5.07-1,18.67,20.24,4.41,17.65C599.11,242.46,606,240.59,598,228.63Z"/><path class="cls-5" d="M606.69,309.24c2.19-.81-6.88-16.65.09-15.69C606,296.17,610,299.67,606.69,309.24Z"/><path class="cls-57" d="M598.25,252.67c2.78,5.78,2,3.82,0,0C603.48,245.19,604.85,276.05,598.25,252.67Z"/><path class="cls-58" d="M611.49,335.63c-.48,1.67.43,9.38-2.91-.78C607.44,334.69,611.54,328.93,611.49,335.63Z"/><path class="cls-59" d="M54.57,255.42c18.2-.73,6.63-34.55,3.09-10.68,7-1.53-16.61-17.63-16.53-26.78,3.17,5.76,19.18-19.27-16-10.49,2-2.92-10.33-18.81,4.14-13.82,26-2.22-17.35-37-21.66,18.49C-3.88,272-4,281.23,64.23,287.09c4.51-8.08-12.45-.89-20.34-5.82,5.08-10.26,4.1-14,15.49-9.93C61.91,267.48,38.93,254.36,54.57,255.42Z"/><path class="cls-60" d="M8,209.86c1.6-1.91-5.07,12.91,1.51,7.59C6.37,216.11,16.26,208.77,8,209.86Z"/><path class="cls-8" d="M41.89,278.9c-8.5,4.82-47.81-19.09-33.43,9.57C21.17,280.59,45.23,299.11,41.89,278.9Z"/><path class="cls-61" d="M122.72,240c20.67-10.23,24.09-124.91,28.18,2.88-38.64,8.14-5.49,15-22.41,28.47-14.64-11.21-34.79,63.43-36,17.34-4.44-.9,2.09-17.26-.27-43C111.15,277,119.48,214.61,122.72,240Z"/><path class="cls-62" d="M275,264c-.92-25-2.32-18.25-19.56-61.85,6.9-13,43.78,5.45,20.22,19,2.68-11.3,36.78,50.58,9.52,45.67C312.31,255.88,291.19,347.62,275,264Z"/><path class="cls-63" d="M81,164.19c1.9-36.23,51,9.38-2.48,30.93-3.2,4.41-12.85-31.82,2.29-23.89C84.69,176.62,96,181.83,81,164.19Z"/><path class="cls-64" d="M227.2,164.11c-12.58-2.55-46.42-37.22-11.7-33.3C222.74,137.2,257.11,144.25,227.2,164.11Z"/><path class="cls-65" d="M66.28,199.57c26.48-31.24,28.21,73-.83,36.51-4.07,2.12-5.12-23.13,3.76-11,1.39,4.07,9.2,12,6.68-6.9C60.85,207.36,96.54,210.56,66.28,199.57Z"/><path class="cls-66" d="M157.16,145.55c-11.82-8.87-3.92-53.83,18.29-18.72C176.65,141.07,171.52,136.92,157.16,145.55Z"/><path class="cls-67" d="M172.41,140.05c-6.82-19.37,26.56-2.55,7-18.32C166.06,89.8,252.29,173.59,172.41,140.05Z"/><path class="cls-68" d="M136.14,143.75c-26.38,3.86-40.68-25.71.26-13.85C138.64,123,144.65,130.14,136.14,143.75Z"/><path class="cls-69" d="M258.16,201.19c-13.57,3.92,15.71-30.45-6.34-6.15C225.31,169.51,309.17,180.07,258.16,201.19Z"/><path class="cls-70" d="M270.5,185.55c-2.6-2.42-6.18-13-15.9-6.5C211.84,194,286.34,156.3,230,162.22,234.66,146.48,271.54,154,270.5,185.55Z"/><path class="cls-71" d="M172.41,140.05c12.89-2.57,46.28,12.44-2.23,7.63C157.92,150.71,147.13,137.44,172.41,140.05Z"/><path class="cls-72" d="M66.12,234.71c1.23,7,25.37-3.94,15,25.76C85.28,249.88,59.48,251.74,66.12,234.71Z"/><path class="cls-73" d="M95.33,149.06c-2.44-3.75,34.26-11.83,9.8,12.34C104.71,158.53,95.34,158.83,95.33,149.06Z"/><path class="cls-74" d="M140.68,141.17c-6.06,1.77-3.88-34.92,10.6-14C151.81,132,156.63,137.57,140.68,141.17Z"/><path class="cls-62" d="M251.82,195h0C255.73,176.53,275.71,184.75,251.82,195Z"/><path class="cls-68" d="M149.38,138.43c4.63-6.48-2.91-14.29-8.95-21.38C145.12,106,162.58,133.08,149.38,138.43Z"/><path class="cls-75" d="M241.34,176.48c-3.43,2-16.74-8.1-11.33-14.26C234.47,162.66,236.44,166.27,241.34,176.48Z"/><path class="cls-76" d="M245,183.5c-2.27,1.59,13.87-8.36,5.57-.87C250.73,180.81,246.47,187.87,245,183.5Z"/><path class="cls-61" d="M82.69,294c.5-1.8-.16-1.45,2.77-3.59C86.27,292.53,86.67,291.62,82.69,294Z"/><path class="cls-77" d="M81.14,260.48c5.33-5.09-4.32,37.77-18.36-5.27C63.44,248.63,69.54,262.07,81.14,260.48Z"/><path class="cls-78" d="M64.23,287.09c-.2,3.12,1.19,4.49,0,0C64,274.63,70.58,268.93,64.23,287.09Z"/><path class="cls-79" d="M555.55,73.73c6.42-17.89-133.27-27.62-442.23-38C224.38,18.15,466,46.28,588.91,59,575,80.92,571.26,54.49,555.55,73.73Z"/><path class="cls-80" d="M557.33,71.12c.4-16.15,6.2,5.78,31.88-12.41C624.61,59,727.71,95.79,557.33,71.12Z"/><path class="cls-81" d="M523.72,135.73c-66.43,8.36-41.32-59.41-9.81-13.43,37.58-41.32,18,46,16-.2C528.28,124.42,526.76,125.42,523.72,135.73Z"/><path class="cls-82" d="M384.59,122.62c-57.92-2.88,15.56-51.79,24.85-2.82C400,120.63,384.44,115.49,384.59,122.62Z"/><path class="cls-83" d="M574,141.16c-61.93-7.8,31.73-36.19,23.85-14.31C596.61,144.94,596.7,133.61,574,141.16Z"/><path class="cls-84" d="M434.32,126c-15.07,3.43-14.69-31.94,18.74-21.17C457.7,128.09,486.3,118.86,434.32,126Z"/><path class="cls-85" d="M384.82,98.42c-56.76,19.43,16.65,22-19.58,22.76C355.26,129.52,308.32,87.48,384.82,98.42Z"/><path class="cls-86" d="M647.65,148.89c-17.17-10.94-26.28-24.11,20.66-16.7C664.69,110.35,691.75,157.41,647.65,148.89Z"/><path class="cls-87" d="M611.32,117.1c4.52-3.56,53.46-5.64,60.73,7.47C656.64,124.77,632.32,126.3,611.32,117.1Z"/><path class="cls-88" d="M436.17,103.07c-13.55,5.42-3.25,24.22-11,22.66C418.65,134.52,402,88.85,436.17,103.07Z"/><path class="cls-88" d="M444.06,103c-17.18-.45-51.18-14.91,21.29-5.26C492.08,110.26,443.74,94.22,444.06,103Z"/><path class="cls-89" d="M634.33,125.08c-10.52-5-2.27,21.63-21.44,2.58C598.05,111.8,673.23,128.13,634.33,125.08Z"/><path class="cls-34" d="M673.37,134.07c-3.7-.71-1.41-33,4.33-22.27C686.25,134.08,657.31,174.17,673.37,134.07Z"/><path class="cls-90" d="M634.33,125.08c13.86,2.26,16.25-8.89,38.73,7.81C648.09,129.6,665.05,137,634.33,125.08Z"/><path class="cls-91" d="M669.67,127.85c2.44-.27-78.51-9.19-50.29-8.31C633.48,127.39,682.68,115,669.67,127.85Z"/><path class="cls-92" d="M542.24,110c-1.72-1.83-55,.53-25.93-5.83C524.26,106.9,533.92,98.16,542.24,110Z"/><path class="cls-93" d="M521.92,111.81c7.54-3.57-11.43,20.95-9,9.64C506.42,113.18,474.31,113.05,521.92,111.81Z"/><path class="cls-94" d="M544.81,138.4c-2.19,4.18-7.88-22,4.51-54.33C549.83,85.5,548,82.84,544.81,138.4Z"/><path class="cls-95" d="M379.81,91.65c2.37,1.11,29.95-3.68,28.51,4.12C406.46,94.34,403.48,103.3,379.81,91.65Z"/><path class="cls-96" d="M345,93.2c-12.85-14.36,45.48-2,48.79-2.67C384.2,94.25,355.91,82.77,345,93.2Z"/><path class="cls-97" d="M485.6,107.33c-7.8,8.89-24.15-21.4,30.26-4.43C513.12,104.81,470.51,93.11,485.6,107.33Z"/><path class="cls-98" d="M580.2,118.14c2.71,3.49-21.37,11.63-14.88-1.85C568,116.62,569.59,116.81,580.2,118.14Z"/><path class="cls-79" d="M341.51,76.59c-9.62,1.14,3.7-27.9,3.61-10.21C340.19,72.25,352.56,83.84,341.51,76.59Z"/><path class="cls-96" d="M349.28,96c-14-.61,4.9,28.07.67,24.63C337,120.12,344.94,84.36,349.28,96Z"/><path class="cls-99" d="M418.39,101.16c-8-6.36-2.82-36.4,3.5-2.57C423.49,99.85,425.46,100.66,418.39,101.16Z"/><path class="cls-100" d="M675.17,110c-3-2.77-2-2,0,0C678.53,122.35,662.05,112,675.17,110Z"/><path class="cls-99" d="M416.26,103.79c.47,1,2.7,23.08.4,10.33C417.06,120.23,410.27,115.5,416.26,103.79Z"/><path class="cls-83" d="M565.33,116.28c3.19,4.14-12.37,8.69-8.16,2.94C560.58,118.61,558.64,117,565.33,116.28Z"/><path class="cls-88" d="M434.13,125.73c-.76-2.54,0,0,2.81-4.47C438.78,121.34,443.76,126.55,434.13,125.73Z"/><path class="cls-79" d="M541.64,76.73c1.87-1.34,1.82-2.51,0,0C539.26,77.55,537.94,67,541.64,76.73Z"/><path class="cls-79" d="M381.2,59.6c.67,2.66,2.13,2.85,0,0C382.22,56.79,390,57.37,381.2,59.6Z"/><path class="cls-89" d="M641.26,126.15c-1.38,1.39-1.72,2.35,0,0C643.68,126.78,656.25,129.88,641.26,126.15Z"/><path class="cls-84" d="M458.12,105c2,2.11,2.89,3.23,0,0C457.37,104.8,467.75,105.88,458.12,105Z"/><path class="cls-79" d="M403.7,65.37c1.85-.93,1.43-1.79,0,0C402.47,67.35,400.4,57.21,403.7,65.37Z"/><path class="cls-91" d="M672.25,116.26c2.08,3.62,4.27-5.5,1.67,1.4C672.17,119.2,664.32,118.45,672.25,116.26Z"/><path class="cls-79" d="M507.79,66.67c2-.87,4.1-1.54,6.15,0C511.89,66.17,509.83,70.43,507.79,66.67Z"/><path class="cls-79" d="M415.71,57c2.37.26,4.89-.73,7.1.84C420.53,56.8,417.62,61.14,415.71,57Z"/><path class="cls-79" d="M501.53,65c1.53.05,0,0,4.47.79C503.33,66.74,503,68.81,501.53,65Z"/><path class="cls-79" d="M488.25,64.08c0,2.74,1.78,1.64,0,0C486.27,64.39,499.4,64,488.25,64.08Z"/><path class="cls-79" d="M423.68,57.84c1.45.5.65-.27,1.27,3.24C422.88,63.14,422.13,65.8,423.68,57.84Z"/><path class="cls-79" d="M456.43,61.39c1.37-.29,0,0,4.12-.82C461.56,61.52,463.14,62.24,456.43,61.39Z"/><path class="cls-101" d="M440.65,183.31c-2.2-8-27,29.13-23,14.57,8-15.66-31.63-21.79-9.79,10.6C353.05,194.42,423,242.74,385,225.13c-22.21,32.68-2-1.22-28,10.9-46.25-19.2,15.71-54.78,18.58-29.46,10.1-15.53,22.65-19.27,45.14-50.24,6.66-26.81-19.12,24.09-29.45.82-7.93-6.56-15.62-5.84-8.78-16.2-3.9,15.82-25.95-10.07-7.48-1.74-5-1.56,23.46-27.8,41.23,7.45-3.14-14.29,50.55-21.21,54.29-3-3.25-5.58-47.91-2.33-24,3.75,26.67-.3,43.7,3.4,6.52,13.35C438.75,151.22,434,161.07,440.65,183.31Z"/><path class="cls-102" d="M452.94,160.42c-9.69-1.5,85.41-40.31,69.67,17.8C507.56,157.26,463.4,186.54,452.94,160.42Z"/><path class="cls-103" d="M520.88,164.72c16.63-26-52-4.36-35.11-26.41,13.3,4.7,47.93-9.48,60.81,21.11,1.47-3.86,2.36-18.33,16.1-12.12C533.87,160.73,582.3,171.36,520.88,164.72Z"/><path class="cls-104" d="M410.32,134.14c-.45-.9.72-6.27-62-2.42-.22,9.42,11.5,15.17-7.87,10.88C311.94,115.78,380.87,118.66,410.32,134.14Z"/><path class="cls-105" d="M464.26,147.16c-29.12,12.65-48.88-15.36,5.2-5.65C466.19,141.77,467.4,140.69,464.26,147.16Z"/><path class="cls-1" d="M553.77,165.83c-12.18,3.24,5-34.19,13.2-12.35C557.44,155.71,568.3,166.45,553.77,165.83Z"/><path class="cls-1" d="M668,169.32c-2.66,9.3-36.12-9.86-10.72-9.67C662.91,158.08,667.4,156.24,668,169.32Z"/><path class="cls-11" d="M523.72,135.73c-3.28-1,7-28.86,8.48-10C531.43,128.07,530.66,133.71,523.72,135.73Z"/><path class="cls-106" d="M673.37,134.07c11.39,18.47-43.1,18.35-13.91,13.52C674.53,156.19,661.47,137,673.37,134.07Z"/><path class="cls-47" d="M668,169.32c-1-2.7.06-4.19,0,0C664.13,174.15,665.09,156.56,668,169.32Z"/><path class="cls-99" d="M417.51,119.79c.41,1.7,1.62,3.24,1.09,5.15C415.41,123.81,416.35,121.82,417.51,119.79Z"/><path class="cls-107" d="M24.45,14.46c-8.18-5.19.7,22,.37,10.52C32.23,32.9,34.66,28.44,24.45,14.46Z"/><path class="cls-11" d="M654.47,79.15c.95-4.1-44.38-17.59-26.44-15.58C629.54,61.42,655.65,60.47,654.47,79.15Z"/><path class="cls-80" d="M577.69,56.9c-1.6,2-1.79,2.93-8.54.91C567.89,56.08,567.22,55.35,577.69,56.9Z"/><path class="cls-108" d="M151.84,123.11c-9-20.89-11.37,6.94-20.08,1.16-.38-3.88-26.7-24.47-60.3,12.38.8,5.76-17.6-65.28,1.55-59.26,18.37-8.37-40.89,45.89,50.6,25.92.87-7.39,4.09-78.73,7.29-36.37,14.06,35.78-25.82,36.8,53.69,43,16.12,32.8,9.95-88.69,15.22-36.91,6.41,42.07-9.92,23.27,44.17,46.78-3.43,10.64-54.76-14-22.93,15.89-5.17-1.25-12.85-12.55-17.78-1.94-8.94,1.56-19.88-37.22-29.08-6.07C180.24,121.75,151.12,107,151.84,123.11Z"/><path class="cls-109" d="M241.24,112.83c-4.41,9.65-73.49-18.11-26.93-24.65C232.05,87.58,257.81,87.15,241.24,112.83Z"/><path class="cls-110" d="M158.93,107.52c-.41-6.48-33.23,8.88-22.61-23.76C152.27,81.06,236.59,98.56,158.93,107.52Z"/><path class="cls-43" d="M9.52,109.12C-15.67,81.85,80.33,68,56.41,107.35,31.55,119.85,36.35,65,9.52,109.12Z"/><path class="cls-111" d="M252.67,117.05c.66-6.5-.27-81.93,6.05-41.64,5.85,38.48-15.21,29.18,44.41,45.38-6.8,8.85-25.49-3.66-38.24,5.43C268.25,145.84,247.87,142.15,252.67,117.05Z"/><path class="cls-112" d="M117.86,110.09c-65.3,12.25-54-50.56-18.69-14.79C102.55,104.64,133.51,103.58,117.86,110.09Z"/><path class="cls-113" d="M115.62,102.92c-5.33,7.23-8.3,3.9-26.74-13.67C94.45,85,132.21,75.05,115.62,102.92Z"/><path class="cls-114" d="M318.39,85.26c-6.78-26.21,16.89-7.13,1.39,38.47C318.08,121.49,302.21,131.75,318.39,85.26Z"/><path class="cls-115" d="M318.39,85.26C296.05,86.5,252.78,100.78,257.26,72,264.49,67,255.3,85.39,318.39,85.26Z"/><path class="cls-116" d="M183.77,79.18c16.18,7.57-32,3.51-48.87,1.58C142.19,73,165.91,75.32,183.77,79.18Z"/><path class="cls-117" d="M183.77,79.18c-9.45,1.07-34.55-7.52-47.89,1.46,5.92,3.17,27.79.9,4.6,3.69-9.06,7.23-19.34,15.17-3.09-10.3C127.78,76.21,209.2,73.33,183.77,79.18Z"/><path class="cls-118" d="M168.75,84.56c-11.45-.32-7.63-.2,0,0C197.72,96.86,111,86.27,168.75,84.56Z"/><path class="cls-104" d="M322.92,112.66c-2.33-8.25-1.27-2.38,1.21-50C323.26,61.42,333.31,132.63,322.92,112.66Z"/><path class="cls-11" d="M343.24,72.91c-1.78-1.86,3-21.88,8.29-16.7C351.31,57.62,363.58,73.19,343.24,72.91Z"/><path class="cls-112" d="M78.56,83.42c2.31.22,6.24-9.9,41.46-.71C110.71,85.65,96.07,85.08,78.56,83.42Z"/><path class="cls-111" d="M322.92,112.66c-1.62-9.28,16.49,11.39,3.07,22.19C325.38,133.58,316.07,134.76,322.92,112.66Z"/><path class="cls-38" d="M61.63,87.19c-6.3-2.76-28.77,3.71-35.44-1.79C32.14,85.32,58.22,72.22,61.63,87.19Z"/><path class="cls-119" d="M202.31,84.45c-11.76-15.38,80.11,2.34,28.32-2C228.26,84,227.15,78.67,202.31,84.45Z"/><path class="cls-120" d="M221,81.64c11.7-2,1.76,12.43-14.21-.78C213,81.16,209.09,81.27,221,81.64Z"/><path class="cls-11" d="M356.45,53.43c-2.54,1-2.68,2.62,0,0C370.6,48.49,374.91,65.7,356.45,53.43Z"/><path class="cls-121" d="M78.56,83.42c.79.3,59.52-.54,31.76,1.44C98,87,64,82.92,78.56,83.42Z"/><path class="cls-122" d="M252.67,117.05c6.65,14.26-33.8,5.38-8.71,2.73C245.81,119.7,247.56,120.13,252.67,117.05Z"/><path class="cls-123" d="M333.28,91.28c3.43-.52,3.67-2.79,0,0C329.5,92,327.47,80.55,333.28,91.28Z"/><path class="cls-124" d="M158.93,107.52c3.51,2.55,7.78-6.38,19.66-1C173.64,109,170.27,108.23,158.93,107.52Z"/><path class="cls-125" d="M68.67,58.25c.17-1.36,3.85,11.41-.45,10C69.12,65.31,65.85,67.65,68.67,58.25Z"/><path class="cls-112" d="M95.33,85.23h0C94.8,83.13,138.53,84.85,95.33,85.23Z"/><path class="cls-38" d="M58.17,118.89c-1.68-1.75,1.19,9.33-3.66,3.43C55.32,122.83,52.6,118.5,58.17,118.89Z"/><path class="cls-38" d="M59.91,97.73c-1.11-2.89-2.69-5.83.83-8.26A19.43,19.43,0,0,1,59.91,97.73Z"/><path class="cls-11" d="M376.23,60.83c-1.12-1.18-2-1.18,0,0C377.71,62.39,368,62.46,376.23,60.83Z"/><path class="cls-79" d="M356.45,53.43h0C358.12,54,353.66,58.41,356.45,53.43Z"/><path class="cls-38" d="M58.19,195.09c-1-23.58,7.28,13.64-23.67-38.57,23,7.64,17.88-53.24-21.06-33.81C-2.11,142,37.36,215,58.19,195.09Z"/><path class="cls-8" d="M66.12,234.71c-6.92,18-18.77,6.32-18.53-23,9.9,6.27,8.94-12.13,29,5.5C69.52,215.62,55.88,221,66.12,234.71Z"/><path class="cls-126" d="M75.77,135.8c-2.57-25.87,58-21.29,31.25-17.89-9.86,3.09-21.73-.12-25.3,6.14C85.26,130.53,86.4,143.28,75.77,135.8Z"/><path class="cls-127" d="M73,214.25c-11.27-.57-14-23.94,7.67-10.18C83.49,209.33,76.68,206.92,73,214.25Z"/><path class="cls-38" d="M72.35,134.84c-6.95-3.21,9.78,16.46-7.23,7.62C58.81,144.54,68.91,116.68,72.35,134.84Z"/><path class="cls-128" d="M47.6,135.67c5.29-.73,7.76-1.81,0,0C29.22,134.71,53.11,115.51,47.6,135.67Z"/><path class="cls-129" d="M88.38,173.63c13,8.1-15.93,3.1-11.2-6.29C77.06,164.5,79.19,158.72,88.38,173.63Z"/><path class="cls-38" d="M60.69,175.41c7.31-3.38,9.19,14.39-6,3.39C53.47,177.87,53.46,175.69,60.69,175.41Z"/><path class="cls-130" d="M62.61,138.36c5,5.84-5.61,18.44-7-.77C57,135.36,56.91,139.45,62.61,138.36Z"/><path class="cls-38" d="M55.36,133.86c-12-2.6,10.46-14.57,7.06,1.56C61,138.9,59.27,128.3,55.36,133.86Z"/><path class="cls-7" d="M95.33,149.06c1.26,6.77,19.68,20.57-5.22.76C91.92,151,97.47,132.44,95.33,149.06Z"/><path class="cls-8" d="M65.35,203c.07,3.09-1.24,1.84-8.75,6.39C56.21,205.64,55.36,199.69,65.35,203Z"/><path class="cls-38" d="M71.45,171.31c-1,1.16-.27,4.58-5.4,1.54C62.44,169.2,67,160,71.45,171.31Z"/><path class="cls-7" d="M85.66,197.68c.34-.08-26.08-6.09-12.42-7.16Z"/><path class="cls-59" d="M50.59,212.73c-1.09,2.06-1.93,3.39-2.5.07C47,210.87,46.43,205.74,50.59,212.73Z"/><path class="cls-131" d="M44.9,80.85c16.62,3.89-43.69,8.22-33.45.49C22.33,80.44,27.91,81,44.9,80.85Z"/><path class="cls-38" d="M19.25,87.06c-2.64,2.86-5.3-1.21-7.95,0C14,85.28,16.6,86.39,19.25,87.06Z"/><path class="cls-132" d="M546.47,167.39c4.1,18.54,19.62-4.55,12.6,24.43,2.45-12.33,25.51-1,15.46,12.2C568,215.45,505.69,180.49,546.47,167.39Z"/><path class="cls-133" d="M573.46,233c-2.21-3-10-26.3-2.5-18.07C583.21,207.64,589.43,217.22,573.46,233Z"/><path class="cls-134" d="M563.4,181.81c-1.14-5.74-5.48,1.18-16.68-7.74C544.56,161.58,564.19,173.52,563.4,181.81Z"/><path class="cls-1" d="M593.93,222.94c-.93,1.81-2.79,4.42-4.36-2.2C590.36,219.41,592.44,216.64,593.93,222.94Z"/><path class="cls-1" d="M568.83,165.17c-2-.47-3.63.92-5.52.75C565.37,162.73,565.86,162.64,568.83,165.17Z"/><path class="cls-1" d="M629.28,157.85c2.73.07,2.46-1.58,0,0C626.66,158.83,623.27,150.43,629.28,157.85Z"/><path class="cls-49" d="M615.76,210c-4.74-1.31-7.11,0,0,0C616.41,217.11,600.47,218.09,615.76,210Z"/><path class="cls-1" d="M615.76,210c0-2.48-5.08,3-6.13-1.81C610.39,209.53,612.39,205.57,615.76,210Z"/><path class="cls-135" d="M360.87,198.54c4.1,15-35.12,5.59-19.8,21.27,14.72,3.33,10,22.41,27,7.58C364.75,243.59,414,246.1,384,268.93c-12.17-6.08-25.29-.91-24.6-19.08-3.81.46-19,16.53-18.33.36-20.77,1.4,8.07-47.29-10.17-9.9,1.95,11.72-26-9.58-25.93,11.15-.06,5,14.75,14.27,11.68,43-14.13,19-14.14-19-35.36-87-18.05-17.7,13.66-19.08,8.41-21.62-20.12-18.43,10.79-7,25.16-14.28-4.17-.32-94.88,9.74-37.17-31-4.68-1.7-18.19,6.13-10.87-10.31,8.82-8.47,26.94,9.26,8.09,18.48-.18-.36,26,2.25,12.14,1.25-15.58-14.59,56-19.77,34.32.94,6.2,15.73,3.74,1.62,18.54,1.83-13.57,16.42-1.2,6.3,3.37,31.81,2.95,5-14.26,4.48-8.72-4.59-10.31-18.39,4.85-7.76-10.25,10.8,22.5-5.23-.9-5.79,27.8,9.78C345,194,361.79,183.16,360.87,198.54Z"/><path class="cls-136" d="M316.63,275.48c-10.05-8-28.29-54.17,11.14-29.25-4.3-4.83,5.58-19.76,9.13-15.25-12.13,8.79,14.59,38.23,12.5,18.57.3.18,25.51-7.63,11.13,8.56,20.62,13.48,40.14,16.86,17.94,73.32-10-16.49-20.34-29.1-45-52.22C333.67,282.09,310.28,297.42,316.63,275.48Z"/><path class="cls-137" d="M397.76,227c-18.41-.41-22.31-36.9,10-18.56C411.71,210.2,404.92,223.11,397.76,227Z"/><path class="cls-138" d="M452.94,160.42c11.36,9.74-8.19,35.77-22.09,5.26C430.52,163.09,448.44,146.23,452.94,160.42Z"/><path class="cls-137" d="M397.76,227c15.91-16.4-13.27,50.54-20.9,5.28C381.35,224.79,383.19,221.92,397.76,227Z"/><path class="cls-139" d="M409.68,210.1c-12.91-4.1-17.12-37.23,5.8-24.19C414.63,188.26,433.17,189,409.68,210.1Z"/><path class="cls-140" d="M543.93,170.94c-5.18,2.1-15.54,19.77-24.58-2.4C522,158,534.62,154.43,543.93,170.94Z"/><path class="cls-141" d="M388.3,279.08c-.15-6.77,1.61-9.86,0,0C385.42,276.83,354.64,267.46,388.3,279.08Z"/><path class="cls-142" d="M389.91,269.22c-5.34-.24-25.63,2.83-18.92-10.76C369.63,268.37,391.34,264.67,389.91,269.22Z"/><path class="cls-143" d="M498,171.09c1.1-4.23-.09-14.05,9.1-3.74C509.32,170.07,508,169,498,171.09Z"/><path class="cls-2" d="M583.9,256.05h0C586.89,256.81,581.45,266,583.9,256.05Z"/><path class="cls-2" d="M578.67,251.58c1.76-.56,0,0,5.08-3.44C582,246.14,582.68,259.19,578.67,251.58Z"/><path class="cls-140" d="M533.08,184.45c2.8-.37,3.88.87,0,0C533,186.15,536.33,177.55,533.08,184.45Z"/><path class="cls-37" d="M36.05,184.39c24.38-4.24-8.86,59.15-13,10.62C5.18,189.71,33.28,199.49,36.05,184.39Z"/><path class="cls-37" d="M22.49,223.84c-1.22-11.61,22.91-.92,8.3,5.79C24.61,234.58,7.39,217.87,22.49,223.84Z"/><path class="cls-37" d="M33.93,181.35c-5,1.41-18.17-26-17,.8C18.64,180.79,18.21,188.46,33.93,181.35Z"/><path class="cls-37" d="M44,218.89c7.78-2.47,5.16,19.15-4.49,7.58C39.44,221,32.39,208.68,44,218.89Z"/><path class="cls-8" d="M33.93,272c2.89,13-15.49-16.65-2.14-8.7C30.89,264,40.18,267.43,33.93,272Z"/><path class="cls-37" d="M13.8,226.16c2.45,3.3-9.85,5.72-1.14-4.07C13.8,222.83,13.94,222.82,13.8,226.16Z"/><path class="cls-144" d="M268.68,239.42c11.63-14,19,13.22,2.15,7.49C276.05,252,251.72,251.05,268.68,239.42Z"/><path class="cls-145" d="M277.67,188.81c-5.95,18.78,40.53,61.15-7.35,34,.54,4.9,30.77-23.32-8-23C274.21,199.76,269.26,176.41,277.67,188.81Z"/><path class="cls-146" d="M289.11,234.8c3.66-2.21,10.26,16.81,6.52,30C292.4,256.22,284.43,240.75,289.11,234.8Z"/><path class="cls-135" d="M295.62,264.79c-2.58-2.91,11.62,11.69-13.72.86C285,261.48,292.74,270.45,295.62,264.79Z"/><path class="cls-135" d="M280.22,221.7c2.85.64,1.88.05,5.86,2.35C284.53,227.61,285.61,231.33,280.22,221.7Z"/><path class="cls-37" d="M88.38,173.63c-2.77-1.89-5.59-3.74-5.61-7.64C87.78,166.23,88.67,169.49,88.38,173.63Z"/><path class="cls-147" d="M221.06,135.67c-42.22-35.19,35.14,5,28.71,22.12C240.77,154.33,232.7,142.45,221.06,135.67Z"/><path class="cls-75" d="M236.84,155.08c-4.33,1.25-2.8.93,0,0C239,156.83,227.22,164.12,236.84,155.08Z"/><path class="cls-75" d="M238.67,149.08c1.62-.74,0,0,1.59,1.3C239,150.52,233.78,156,238.67,149.08Z"/><path class="cls-148" d="M63.52,221.5c-6.68-5.38,21.79-15.71,13,9.75C75,233,72.77,234.62,63.52,221.5Z"/><path class="cls-149" d="M175.7,124.94c-6.65-12.49,33.26,3.33,1.75,8.67C176.31,132.22,176.05,133.66,175.7,124.94Z"/><path class="cls-76" d="M254.6,179.05c3.28-5.54,13.62-3.52,11.06,1.47C263.49,178.23,266.06,179,254.6,179.05Z"/><path class="cls-75" d="M253.76,158.68c-2.33-13.34-41.28-24.93-38-38.93,30.71-5.82,34.17,18.16,60.62,21.42-.43,4.08-18.64,9.66-13.37,10.48C273.31,157.24,271.14,160.78,253.76,158.68Z"/><path class="cls-75" d="M277.67,188.81c-4.38.51-28.39-42.3-14.83-21C270.67,166.35,322.56,198.62,277.67,188.81Z"/><path class="cls-150" d="M241.34,176.48c-9.83-3.39-5.89-27.71,5.61-19C240,159.53,275.76,173.57,241.34,176.48Z"/><path class="cls-75" d="M243.1,178.25c1.11-.43,0,0,3.3-1.31C247.8,177.7,246.89,184.16,243.1,178.25Z"/><path class="cls-11" d="M418.39,101.16c6.68.11,10,0,0,0C422.24,93.46,453.31,105.19,418.39,101.16Z"/><path class="cls-11" d="M421.89,98.57c-1.89,0,0,0-4.28-2.48C418.76,94,418.91,89.86,421.89,98.57Z"/><path class="cls-151" d="M339.61,153.4c.82-15.23,53.46-27.54,31.36-17.15-5.76,5-2.57,8.73,10.27,8.34-20.07,43.47,7.55,11.3,3.35,39.19-20.16-5.55-16.84,20.4-26.39-5.74C357.18,165.36,334.52,197,339.61,153.4Z"/><path class="cls-152" d="M342.26,180c1.27-4.7,5.55-15.35,23.81-.3-1,4-11.6,14.6,1.79,7.27-9-4.49,38.07-16.29,35.34-5.71-14.48-.18-18.9,43.16-34.37,15.57C357.85,181,341.1,229.27,342.26,180Z"/><path class="cls-152" d="M384.72,173.74c-20.64,7.17-14.19-50.87,19.12-3.5,12.44-18,10,27.32-14.07-5.78C389.51,166.8,390.5,169.37,384.72,173.74Z"/><path class="cls-153" d="M413.08,170.23c-12.69-2.61-23.93,9-5.43-19.34C432.6,140.56,427.85,149.35,413.08,170.23Z"/><path class="cls-154" d="M432.52,178.08c1.38,15.2-40.26,6.33-11.76-9.28C424.06,167.14,428.33,167.67,432.52,178.08Z"/><path class="cls-153" d="M384.72,173.74c9.31-16.38-3.35-12.91,22.15,4.43C398.69,178.54,394.66,185.33,384.72,173.74Z"/><path class="cls-151" d="M381.16,144.52c-9.31-7,18.86-5.13,4.71-1.61C380.66,137,388.2,152.74,381.16,144.52Z"/><path class="cls-135" d="M361.75,197.62c-.31-7,16.35-7.2,3.27,2.84C364.08,200.23,363.53,199.74,361.75,197.62Z"/><path class="cls-105" d="M433.19,152.65c-2.62-3.24-2.53-5.37,0,0C429.62,156.88,425.38,144.33,433.19,152.65Z"/><path class="cls-153" d="M415.88,167.3c.69,1.71,1.71,1.61,0,0C414.72,165.31,422,164.64,415.88,167.3Z"/><path class="cls-152" d="M538.83,150.68c5.49,11.71-38.75-4.79-18.7-7.77C521.76,146.57,538.64,139,538.83,150.68Z"/><path class="cls-155" d="M543.93,170.94c-.26-3.65-5.5-3.44-10.27-11.79C533.6,162.22,549.09,161.78,543.93,170.94Z"/><path class="cls-101" d="M377.67,133.05c-5-3.83-4-1.62-13.58.48C356.62,164.25,321.15,107.66,377.67,133.05Z"/><path class="cls-101" d="M349.48,142.63c3,10.69-36.26,13.86-26.21,7.31C328.76,131.89,329.39,132.45,349.48,142.63Z"/><path class="cls-122" d="M344.83,142.65c-5,20.77-6.85-29.45-16.71-.75C329.16,129.79,333.16,117.57,344.83,142.65Z"/><path class="cls-12" d="M342.57,136.8c1.85-.92,2.08-1.91,0,0C340.73,137.72,340.37,128.2,342.57,136.8Z"/><path class="cls-124" d="M132.56,94.06c4.3-23.31-8,26.75,30.25,4.75C164.65,106,132.76,121.65,132.56,94.06Z"/><path class="cls-35" d="M201.55,87c-2.67,1,9.42,24.2,1.16,22.69C203,104,194.4,89.31,201.55,87Z"/><path class="cls-121" d="M73.16,86.09c-5.11-.92,6.16,26.87-5.41,9.8C68.48,96.14,61.79,90.5,73.16,86.09Z"/><path class="cls-35" d="M117.47,110.09h0C115.38,109.19,120.56,102.06,117.47,110.09Z"/><path class="cls-156" d="M258.06,90.47c-3.61-6.83,112.8-2.76,31.42,5.09C315.7,109.38,248.11,136.72,258.06,90.47Z"/><path class="cls-122" d="M323.62,141c-14.47-.52-19.76-.48-47.89-15.32C229.72,145.75,316.38,89.83,323.62,141Z"/><path class="cls-157" d="M284,116.05c19.75-6.22-6.15-22.62,10.22-23.45C318.21,87,332.11,126.38,284,116.05Z"/><path class="cls-104" d="M299.8,117.06c-3.13-3.52,34.66,10.06,14.28,8.69C310.05,125.52,299.4,123.46,299.8,117.06Z"/><path class="cls-122" d="M266,140.18c-8.49,10.45-19.91-20.27-10.6-12.19C254.74,144.23,262.82,130.91,266,140.18Z"/><path class="cls-75" d="M266,137.4c2.93.55,3.37-1.07,0,0C264,133.61,264.72,127.8,266,137.4Z"/><path class="cls-111" d="M313.86,121.56c1.41.33-10.36,3.29-6.23-3.38C309.67,118.64,313.24,115.61,313.86,121.56Z"/><path class="cls-158" d="M300.58,86.25c8.06,10-19.82.32-37.07,1.68C264,81.93,283.15,86.24,300.58,86.25Z"/><path class="cls-104" d="M323.62,141c-2-10.95-7.45-10.8,6.24-10.62C327.63,130.81,335,138.67,323.62,141Z"/><path class="cls-35" d="M221,81.64c-3.55-.15-7.18.9-10.63-.75C214,81,217.58,80.21,221,81.64Z"/><path class="cls-59" d="M19.76,156c-.69-2.15-12.43,2.62-4.38.79C14.21,162,17.65,166.88,19.76,156Z"/><path class="cls-59" d="M23.89,163.29c-1.5-.35-2.15-.17,0,0C25,165.26,13.79,168.42,23.89,163.29Z"/><path class="cls-75" d="M274.14,129.51c-3.42-8.6,11.62-6.13,25.64,7.08-6.64,8.08-18.15,7-8.5,11.34,16.68,1.48-23.74,9-16.13-2.14C284.3,147.47,280.82,123.32,274.14,129.51Z"/><path class="cls-159" d="M283.82,171.05c-.29-8.81,21.75-.73,35.59.51C315.13,171.34,314,186.19,283.82,171.05Z"/><path class="cls-152" d="M323.78,190.64c1.69-.86,4-19.51,4.92-24.1C333.63,172.73,346,192.46,323.78,190.64Z"/><path class="cls-152" d="M340.46,160.54c8.1,10.22-7.09,20.24-8.23.88C334.43,159.53,333.12,157.25,340.46,160.54Z"/><path class="cls-160" d="M322,151.76c8.65-2.47,16.37,8.66-1.79,12.24C322.12,161.9,324.18,160.43,322,151.76Z"/><path class="cls-101" d="M339.56,228.76c4.77,1.92,4.65-1.31,0,0C328.14,232.52,339.43,212.34,339.56,228.76Z"/><path class="cls-101" d="M377,242.62c25,5.22-3.63,6.95-3.23,4.24C373.07,244.67,369.61,242.41,377,242.62Z"/><path class="cls-151" d="M342.24,185.26c1.89-.63,4.77,17.43-1.74,11.51C340.63,195.34,336.21,195.67,342.24,185.26Z"/><path class="cls-161" d="M323.78,190.64c1.24,4.28,2.23,6.22,0,0C326.81,188.78,336,195.57,323.78,190.64Z"/><path class="cls-152" d="M341.39,187.88h0C348.1,193.8,330.94,189,341.39,187.88Z"/><path class="cls-151" d="M342.26,180c-.52,1.75,5.4,3.52,0,5.28C341.9,183.48,341,181.71,342.26,180Z"/><path class="cls-160" d="M339.61,153.4a8.7,8.7,0,0,1-3.47,3.49C333.57,152,337.49,153.61,339.61,153.4Z"/><path class="cls-152" d="M338.72,193.27c1,.95,0,0,1.78,3.49C339.76,195.9,334.88,194.78,338.72,193.27Z"/><path class="cls-151" d="M337.86,186.91c-.07-1.87-.9-2.53,0,0C336.72,189.19,331.56,189.42,337.86,186.91Z"/><path class="cls-75" d="M283.81,171.07h0C282.07,172.37,279.94,165.9,283.81,171.07Z"/><path class="cls-162" d="M368.82,317.1c-1.33-2.41-2.47-.53,0,0C369.26,315.57,364.11,323.27,368.82,317.1Z"/><path class="cls-136" d="M347.84,301c4,6.22-25.31-15.54-4.9-8.67C345,293.21,346.85,293.9,347.84,301Z"/><path class="cls-160" d="M340.46,160.52c.4,1.44-2.17-7.9,2.3-2.41C341.73,158.12,341.43,158.92,340.46,160.52Z"/><path class="cls-163" d="M266.92,95.49c4.39-.93,14.19,18.3-3.22,13.41C261.26,104.6,262.76,101.13,266.92,95.49Z"/></g></g></svg>