<svg xmlns="http://www.w3.org/2000/svg" viewBox="0 0 319.3 142.53"><defs><style>.cls-1{fill:#090908;}.cls-2{fill:#141d27;}.cls-3{fill:#270e0a;}.cls-4{fill:#251d19;}.cls-5{fill:#201e1c;}.cls-6{fill:#121111;}.cls-7{fill:#201e1d;}.cls-8{fill:#2a2521;}.cls-9{fill:#6b6663;}.cls-10{fill:#32312e;}.cls-11{fill:#33322f;}.cls-12{fill:#1c1c1a;}.cls-13{fill:#3e3e3e;}.cls-14{fill:#3f3f3f;}.cls-15{fill:#323232;}.cls-16{fill:#363431;}.cls-17{fill:#242321;}.cls-18{fill:#121211;}.cls-19{fill:#3c3c3c;}.cls-20{fill:#1c2632;}.cls-21{fill:#3a3835;}.cls-22{fill:#050505;}.cls-23{fill:#65615d;}.cls-24{fill:#272623;}.cls-25{fill:#3f3d3a;}.cls-26{fill:#3e3e3c;}.cls-27{fill:#353535;}.cls-28{fill:#2e150f;}.cls-29{fill:#57140e;}.cls-30{fill:#68625e;}.cls-31{fill:#81491f;}.cls-32{fill:#ccc;}</style></defs><title>Asset 7</title><g id="Layer_2" data-name="Layer 2"><g id="Layer_1-2" data-name="Layer 1"><path class="cls-1" d="M97.84,31.32c13.61,8.66,11-1.92,13-14C127.92,10,126.46-3.83,145.19,8.65c4,0,3.25-2.52,7.6-5.86,12.71-7.9,14.66,3.13,24.78,6.52,21.12-14.58,16,2.43,30.15,5.09,10.37,3.12-.17,24,15.85,17.14,7.72,8.55-2.18,11.61,17.71,10.79,37.42,2.86,55.1-7.65,63,8.67,21.81,36.61,17.33,25.92,2.48,54.4-7.18,23.22-27.39,12.79-44.73,14.91-8.9-.3-1.73,4.89-3.76,10.54-27.7,12.37-23.16,2.49-33.68-1.8-2.41,1.37-4.11,2.93-6.48.33-14-15.94-14.36,17-25.84,12-6.67-12.18-17.12,1.85-27.4-.87-3.21-7.3,14.08-9,19.06-8.29,2.84-2-.81-8.42,4.66-9.77-2.15.3-4.85,1.28-3.11,5.49-5.26,15.86-11.53-11.29-24.3-5.09,13.92-3,16.77,5.42-2.07,7.68-3,3.85-13.47,10.61-10.64-3.2-5.24,7.26-14.61,9-11.5-2.6-.76,3.18.32,8.92-4.65,11.18-5,17-13-4.19-17.34-10.19-8.5-3.16-7.37,2.45-14,5.77-5.64-1.47-7.74,2.53-13.15,6.14-44.79,1.54-10-19.37-39.14-15.77C9.85,126.91,16.09,107.47.07,84.27-1.1,69.53,12.35,53.72,21.54,41.71,61.28,33.81,87.64,50.79,97.84,31.32Z"/><path class="cls-2" d="M221.67,32.29c-7.65,8.38-10.8-4.29-8.86-12.95C214.68,23.42,213.53,32.91,221.67,32.29Z"/><path class="cls-3" d="M314.67,83.35c-9,10.14-13.23,32.85-28.68,31.86-61.74-3.44-120.92,1.56-181.15.09-19.15-.37-89.77,3.28-77.6-5C356,106,276.12,123.07,310.6,80.54,312.86,77.72,315.63,80.09,314.67,83.35Z"/><path class="cls-4" d="M26,111.09c22.05,6.29,54.29,0,78.89,4.21-25.8,3.12-56.36,3.67-82.92-.47C-2.3,73.53-1.17,85.26,17.05,54.4c2.15,2.92,2,8.16-.49,13.12C2.48,83.72,26.22,96.07,26,111.09Z"/><path class="cls-5" d="M136.84,135.26c-2-1.36-4-.38-6,0,4.81-1.51,4.92-19.25,11.13-12.93-9.27,5.44-2.49,17.69,7.16.61.46,4.79,1.3,20.45,7.14,5.62.28-.43,1,0,2.54.73-1.2.51,2.29,10.3,3.3,4.84-11.35-10.46,15-3.71,7.42-11.31-4.58-.85-10.52,4.06-15.12-1,4.76,2.41,12.82-2.15,17.84-1.37,1.57,10.74,18.72,16.91,8.66,1,3.38-.7,8.81,1.08,14.5-1.66-.88,5.58-10,1.19-8.91,8.81.75,8.34-7.82,3-11.9,5.08-1.7,6.29-8.94,0-9.79,6.67l0,0C161.32,146.82,146.25,130.94,136.84,135.26Z"/><path class="cls-6" d="M143.74,37.22c1.45,1.19,2-.73,3-.9,3.24,8.36,6.89,2.31,14,3,5.33-3.25,19.33-5.9,5.59,4-7.92,4.34-16.7-.66-24.17,6.61-28.57-6.1-65,.82-93.59-5.42,33-2.89,90.08,11.4,88.19-23.18,1.44-1.38,1.94-4.33,5-3,5.54,13.92,2.4,21.83-12,24C135.14,43.12,138.06,38.73,143.74,37.22Z"/><path class="cls-7" d="M141.8,48.32c6.93-5.6,21.77-1.06,31.83-1.28-3.13-.92-6.42,1.2-8.83-1.69,8.74-2.39,9.67,1.07,9.64-10,.22.41,8.74,7.85,10.38,8.65-7.65-3.94-14-25.25-2-22.72,3.37,8.13-10.87,13.31,12,19,0,1.65,2.62,2.68,1.08,4.68,31.2,4.48,70.89-4.31,100,3.25A1396.53,1396.53,0,0,1,141.8,48.32Z"/><path class="cls-8" d="M195.67,46c.05-.33.12-.65.2-1,57.4-.48,94.48-3.65,103.94,1.74,3.59,7.26,25.89,38.59,13.43,35.43C307.53,74.13,300,54,294.6,46.74,261.54,45,227.94,48.56,195.67,46Z"/><path class="cls-9" d="M48.61,44.49c25.49,3,53.76-1.49,80.18,1.87-37.53,10.33-96-9.27-111.95,13.76-1.54-2,.72-3.79.21-5.72C22.22,39.82,35.64,45.68,48.61,44.49Z"/><path class="cls-10" d="M199.64,29.24l-1.74,1c-7.51-13.31,11-18.11-20.44-15.06,5.44-14,21.11-14.12,24.71,5.27C213.19,11.12,215.5,34.6,199.64,29.24Z"/><path class="cls-11" d="M113.8,28.36c-3.41-4.48-3.88-8.43,2.64-11.2,1.31.36,1.45,2.89,4.14,3.38,1.27-16.57,17.58-20.92,25-6C121,17.21,129.7,2.92,124.78,29.29h0C121.81,27.24,117.28,33.15,113.8,28.36Z"/><path class="cls-12" d="M92.83,121.31c1.57-4.89,14.93,3.67,7.73,6.28-6.2-8.22-6.86,5.12-14.68,7.39-3.39,1.53-31.07-6.81-16.75-7.36-3.94-2.61,4.48-12.76,6-5.83-3.56,10,13.22,4.51,17.74-.49.18,5.14-3.32,6.94-6.64,7.92C89.57,128.28,93,126.43,92.83,121.31Z"/><path class="cls-6" d="M113.8,28.36c2.91,2.38,7.52-3.92,11,.93-.79,1.36-2.18.11-3.58,1C136,46.29,95.67,49,99.32,33.85c5,4.36,10.51,5.21,16.87,2.69C113.31,34.31,109.37,32.32,113.8,28.36Z"/><path class="cls-13" d="M148.9,21.17c-.15-2.24-.09-4.28,4.06-2.42-9.72-12.53-.09-5.26,5.8-7.91-1.89-3-.16-10.25,4.46-5.37,1.35,19.19,20.7-13,3.08,22.92-5.23-7.9,3.38-9,5.17-13-14.36,2.95-5.21-7.43-11.56-4.35.27,4-2.49,4.75-7.36,2.9,4.09,4.48,10,7.48,4.3,13.33C155.07,24.11,150.79,24.19,148.9,21.17Z"/><path class="cls-14" d="M194.79,40.37c-28.19-.4-4.59-34.78,2-8C196.31,35.08,196,37.84,194.79,40.37Z"/><path class="cls-15" d="M136.8,21.31c6.51,6.88,1,15.88-10,17.1C124,32.38,126.13,19.79,136.8,21.31Z"/><path class="cls-16" d="M257.08,127.8c-2.79,6.45-23.51,9.15-27.81,1,4.58.11,7.59,3.19,11.54,2-9-7.29-1.94-3.18,4.63-4.88,2.95-2.84-2.67-8,6.2-5.32C255.52,122.88,244.68,133.18,257.08,127.8Z"/><path class="cls-17" d="M102.8,120.3c13.12-2,30.2-.88,24.14,18.07C118.14,118.18,122,123.93,102.8,120.3Z"/><path class="cls-18" d="M196.75,32.35c-8.63-19.81-24.76-.49-6,8-7,1.44-8.61-5.37-13.18-8.75,4-2.3,4.24-6.51,5.27-10.3,1.62,1.8,5.33-2.14,9,.24-2.43-.45.28-5.56-4-4.3l0-1.92C198.54,3.15,200.45,21.28,196.75,32.35Z"/><path class="cls-18" d="M217.79,40.52c1.12,1.49,2.31-.87,3.82.27-4.35,3.92-30.59,5.51-21.86-6.44,2,2.42,5-.78,7.06,1.21C202.72,38,214.68,37.63,217.79,40.52Z"/><path class="cls-6" d="M148.9,21.17c2.79,2.32,4.83,2,5.56-2.3,2.24,2.88.54,6.12,2.39,8.42-1.45,5.35,2.32,7.52,6.9,10-8.73.26-6-7-16.93-3C149.16,30.22,149.17,25.71,148.9,21.17Z"/><path class="cls-6" d="M134.22,21.46a22.64,22.64,0,0,0-7.78,8.37l-1.24-.24c-.16-6.38-3.1-29,10-14.29l.25,1.68c-.63.65-1.71,1.23-3.49-.28,1.13,1.33,1.42,2.67.06,4,.71-.34,1.39-.88,2.24-.39Z"/><path class="cls-19" d="M143.74,37.22c-5.14,3.2-9.94,7.19-16.76,6.9,18.36-11.56,17.53-6.32,14.83-25.81C147.06,24.15,147.53,30.47,143.74,37.22Z"/><path class="cls-20" d="M124.77,139.3c-10.55-5.36-6.75-18.17-22-10C112.28,113.31,119.75,130.84,124.77,139.3Z"/><path class="cls-7" d="M146.82,34.7h2c0,1.33,0,2.66,0,4,.66.76,1.31,1.33,2,0-2.07-5.21,15.15,1.46,10.79,3.63C158.4,39,144,50.34,146.82,34.7Z"/><path class="cls-21" d="M187.74,17.27c2.49-2.22,12.52-8.5,3.51,1.86,6.23-1.16,7,8.37-4.49,2.23A5.47,5.47,0,0,1,187.74,17.27Z"/><path class="cls-10" d="M206.81,35.56c-3-.64-2.9,1.74-3.33,3.61-8.58-5.63-.73-12.19,7.27-7.82C210.44,33.69,208.91,34.89,206.81,35.56Z"/><path class="cls-22" d="M159.73,129.31c.16,3.52,8.88.14,3.23,9.13C158.48,142.07,154.7,130.58,159.73,129.31Z"/><path class="cls-23" d="M164.8,45.35c3.37,1.69,7.21,0,10.61,1.7-10.52-.35-21.07,1.71-31.56-.7C149.07,43.46,157.31,45.61,164.8,45.35Z"/><path class="cls-24" d="M206.26,120.82c-8.33,3.75-1.89,17-10.76,2.92C199.19,123.46,201.43,119.32,206.26,120.82Z"/><path class="cls-25" d="M133.82,20.35c-2.29,4.35-12.53-1.58-2.67-.69-2.45-4.78-7.9-9.94,3.71-2.5C135.73,18.62,136,19.9,133.82,20.35Z"/><path class="cls-5" d="M189.66,125.86c5.72.35,11,12,4.26,12.16C193.87,133.94,193.44,130.14,189.66,125.86Z"/><path class="cls-7" d="M164,45.55c-6.08,2.07-12.13-1.23-18.2-.15a43.38,43.38,0,0,1,17.05-1Z"/><path class="cls-18" d="M210.75,31.35c-3-.4-6-1.42-9,0a2.28,2.28,0,0,0-2.12-2.09l1.85-4.42c1.35,4.27,3.79,5.13,7.26,3.51Z"/><path class="cls-26" d="M217.79,40.52c-1.46-1.17-4.76,2-4.95-2.13,4.27.83,7.23-1.52,10.68-5.14C222.87,37.69,219.92,38.77,217.79,40.52Z"/><path class="cls-27" d="M154.51,11.3l-1.63-.82C149.48,3.16,160.65,7.66,154.51,11.3Z"/><path class="cls-6" d="M150.73,38.33c1,.26,2.29.22,2.57,2.32-1.58-1.17-4.35,1.62-4.53-2.31Z"/><path class="cls-1" d="M136.84,135.26c3.59-1.86,4.66-.07,10.29-4.09,2.58,10,4.47,2.74,9.42,6.48,1.42,3.61,4.1,5.47,8.27,2.64C162.85,148.05,144.2,133,136.84,135.26Z"/><path class="cls-28" d="M16.84,60.12c7.82-25.18,100.67-6.27,112-13.76,4.62-1.19,8.08,5.24,13,2C336.12,50.8,286.36,35.94,312.7,79.26l-.93,2.06c-8.07,3.6-6.84-23.41-20.37-29.19-40.51-1.09-81,.1-121.71-.3C-16.14,52.94,44.2,44.24,11,75.4,11.58,70.4,16.94,67,16.84,60.12Z"/><path class="cls-29" d="M306.64,79.35l5.13,2c-10.44,12.58-10.13,33.28-27.66,30-86.76.17-170.12,0-256.14.09,1.83-7.3,16.31-2,23.88-3.55C336,106,279,118.63,306.64,79.35Z"/><path class="cls-30" d="M300.66,55.41c-4.65-18.29-98.1-2.09-105-9.38C288.69,47.07,300.1,40,300.66,55.41Z"/><path class="cls-1" d="M92.83,121.31c4.43,3.71-6.72,10.24-12.06,9.25,4.89-2,10.66-2.89,12.08-9.26Z"/><path class="cls-31" d="M22.79,56.22C33.83,42,122,53.88,129,50.21c58.38,2.1,166.44-4.48,167.43,3.27C212.75,55,102.65,48.58,22.79,56.22Z"/><path class="cls-29" d="M306.64,79.36c-1.25-2-8-9.48-1.95-12C307.6,71,309.8,74.72,306.64,79.36Z"/><path class="cls-32" d="M142.87,81.9c.08-6.29,4.3-10.39,10.63-10.36,5.31,0,10,5.16,9.88,10.83a10,10,0,0,1-10.26,9.55C147.12,91.82,142.8,87.6,142.87,81.9Z"/><path class="cls-32" d="M128,71.46c2.06,0,4.12-.07,6.18,0,2.25.09,4.43.58,5.5,2.83a5.66,5.66,0,0,1-1.12,6.51c-1.31,1.44-1.19,2.28.09,3.57s2,2.67,3.06,4a7.34,7.34,0,0,0,5,2.91c-2.29,1-4,.87-5.49-.44a17.85,17.85,0,0,1-3.65-4.34,6.87,6.87,0,0,0-4.89-3.17c-.86-.17-1.33-.06-1.27,1a45.47,45.47,0,0,1,0,4.67A2.62,2.62,0,0,0,133,91.83h-5.43c1.58-.78,1.53-1.93,1.52-3.11,0-4.56,0-9.12,0-13.68C129.09,73.78,129.29,72.46,128,71.46Z"/><path class="cls-32" d="M174,89.09c.33,2.83.33,2.83-2.05,2.83-2.89,0-5.78,0-8.82-.12,1.35-.79,1.26-2,1.26-3.24,0-4.72,0-9.45,0-14.17,0-1.19-.08-2.2-1.35-2.78h5.57c-1.6.69-1.64,1.86-1.62,3.16.07,4.23.09,8.45,0,12.68,0,1.35.22,2.35,1.57,3a3.82,3.82,0,0,0,4.11-.2C173.11,89.91,173.47,89.57,174,89.09Z"/><path class="cls-32" d="M187.13,89.09c.33,2.83.33,2.83-2,2.83-2.89,0-5.78,0-8.82-.12,1.36-.79,1.26-2,1.26-3.24,0-4.72,0-9.45,0-14.17,0-1.17,0-2.23-1.34-2.78h5.58c-1.6.69-1.64,1.86-1.62,3.16.06,4.23.08,8.45,0,12.68,0,1.35.22,2.35,1.57,3a3.82,3.82,0,0,0,4.11-.2C186.22,89.91,186.58,89.57,187.13,89.09Z"/><path d="M155,81.82c0-2.55,0-5.1,0-7.65,0-1,.23-1.15,1.12-.7a7.43,7.43,0,0,1,3.57,3.6,12.49,12.49,0,0,1,.26,9.55,5.87,5.87,0,0,1-1.81,2.56c-.86.7-1.86,1.66-2.9,1.26-.64-.24-.19-1.6-.21-2.46C154.94,85.93,155,83.88,155,81.82Z"/><path d="M151.15,90.48c-4-1.39-5.76-4.43-5.58-9.44.14-4.08,2.12-6.92,5.58-7.88Z"/><path d="M152.49,72.84v18h-.36v-18Z"/><path d="M153.76,90.87V72.82C154.44,73.55,154.68,88.76,153.76,90.87Z"/><path d="M131.44,77.35c0-1.11.06-2.22,0-3.32-.1-1.36.56-1.73,1.8-1.7a4.2,4.2,0,0,1,4.1,2.85c.76,2,.93,4-.53,5.81-.6.75-4.26,1.32-5.07.89-.39-.21-.27-.56-.28-.87C131.43,79.79,131.44,78.57,131.44,77.35Z"/></g></g></svg>