<svg xmlns="http://www.w3.org/2000/svg" viewBox="0 0 319.28 142.53"><defs><style>.cls-1{fill:#604a32;}.cls-2{fill:#2a2a2a;}.cls-3{fill:#906d52;}.cls-4{fill:#be9270;}.cls-5{fill:#201e1d;}.cls-6{fill:#121111;}.cls-7{fill:#2e150f;}.cls-8{fill:#81491f;}.cls-9{fill:#270e0a;}.cls-10{fill:#57140e;}.cls-11{fill:#9b9b9b;}</style></defs><title>Asset 1</title><g id="Layer_2" data-name="Layer 2"><g id="Layer_1-2" data-name="Layer 1"><path class="cls-1" d="M97.84,31.32c13.61,8.66,11-1.92,13-14C127.92,10,126.46-3.83,145.19,8.65c4,0,3.25-2.52,7.6-5.86,12.71-7.9,14.66,3.13,24.78,6.52,21.12-14.58,16,2.43,30.15,5.09,10.37,3.12-.17,24,15.85,17.14,7.72,8.55-2.18,11.61,17.71,10.79,37.42,2.86,55.1-7.65,63,8.67,21.81,36.61,17.33,25.92,2.48,54.4-7.18,23.22-27.39,12.79-44.73,14.91-8.9-.3-1.73,4.89-3.76,10.54-27.7,12.37-23.16,2.49-33.68-1.8-2.41,1.37-4.11,2.93-6.48.33-14-15.94-14.36,17-25.84,12-6.67-12.18-17.12,1.85-27.4-.87-3.21-7.3,14.08-9,19.06-8.29,2.84-2-.81-8.42,4.66-9.77-2.15.3-4.85,1.28-3.11,5.49-5.26,15.86-11.53-11.29-24.3-5.09,13.92-3,16.77,5.42-2.07,7.68-3,3.85-13.47,10.61-10.64-3.2-5.24,7.26-14.61,9-11.5-2.6-.76,3.18.32,8.92-4.65,11.18-5,17-13-4.19-17.34-10.19-8.5-3.16-7.37,2.45-14,5.77-5.64-1.47-7.74,2.53-13.15,6.14-44.79,1.54-10-19.37-39.14-15.77-38.84,5-32.6-14.39-48.62-37.59C-1.1,69.53,12.35,53.72,21.54,41.71,61.28,33.81,87.64,50.79,97.84,31.32Z"/><rect x="27.68" y="56.25" width="264" height="45"/><path class="cls-2" d="M221.67,32.29c-7.65,8.38-10.8-4.29-8.86-12.95C214.68,23.42,213.53,32.91,221.67,32.29Z"/><path class="cls-3" d="M26,111.09c22,6.29,54.29,0,78.89,4.21-25.8,3.12-56.36,3.67-82.92-.47C-2.3,73.53-1.17,85.26,17.05,54.4c2.15,2.92,2,8.16-.49,13.12C2.48,83.72,26.22,96.07,26,111.09Z"/><path class="cls-2" d="M143.74,37.22c1.45,1.19,2-.73,3-.9,3.24,8.36,6.89,2.31,14,3,5.33-3.25,19.33-5.9,5.59,4-7.92,4.34-16.7-.66-24.17,6.61-28.57-6.1-65,.82-93.59-5.42,33-2.89,90.08,11.4,88.19-23.18,1.44-1.38,1.94-4.33,5-3,5.54,13.92,2.4,21.83-12,24C135.14,43.12,138.06,38.73,143.74,37.22Z"/><path class="cls-3" d="M141.8,48.32c6.93-5.6,21.77-1.06,31.83-1.28-3.13-.92-6.42,1.2-8.83-1.69,8.74-2.39,9.67,1.07,9.64-10,.22.41,8.74,7.85,10.38,8.65-7.65-3.94-14-25.25-2-22.72,3.37,8.13-10.87,13.31,12,19,0,1.65,2.62,2.68,1.08,4.68,31.2,4.48,70.89-4.31,100,3.25A1397.11,1397.11,0,0,1,141.8,48.32Z"/><path class="cls-3" d="M195.67,46c.05-.33.12-.65.2-1,57.4-.48,94.48-3.65,103.94,1.74C303.4,54,325.7,85.33,313.24,82.17,307.53,74.13,300,54,294.6,46.74,261.54,45,227.94,48.56,195.67,46Z"/><path class="cls-4" d="M48.61,44.49c25.49,3,53.76-1.49,80.18,1.87-37.53,10.33-96-9.27-111.95,13.76-1.54-2,.72-3.79.21-5.72C22.22,39.82,35.64,45.68,48.61,44.49Z"/><path class="cls-3" d="M199.64,29.24l-1.74,1c-7.51-13.31,11-18.11-20.44-15.06,5.44-14,21.11-14.12,24.71,5.27C213.19,11.12,215.5,34.6,199.64,29.24Z"/><path class="cls-3" d="M113.8,28.36c-3.41-4.48-3.88-8.43,2.64-11.2,1.31.36,1.45,2.89,4.14,3.38,1.27-16.57,17.58-20.92,25-6C121,17.21,129.7,2.92,124.78,29.29h0C121.81,27.24,117.28,33.15,113.8,28.36Z"/><path class="cls-2" d="M113.8,28.36c2.91,2.38,7.52-3.92,11,.93-.79,1.36-2.18.11-3.58,1C136,46.29,95.67,49,99.32,33.85c5,4.36,10.51,5.21,16.87,2.69C113.31,34.31,109.37,32.32,113.8,28.36Z"/><path class="cls-4" d="M148.9,21.17c-.15-2.24-.09-4.28,4.06-2.42-9.72-12.53-.09-5.26,5.8-7.91-1.89-3-.16-10.25,4.46-5.37,1.35,19.19,20.7-13,3.08,22.92-5.23-7.9,3.38-9,5.17-13C157.11,18.34,166.26,8,159.91,11c.27,4-2.49,4.75-7.36,2.9,4.09,4.48,10,7.48,4.3,13.33C155.07,24.11,150.79,24.19,148.9,21.17Z"/><path class="cls-4" d="M194.79,40.37c-28.19-.4-4.59-34.78,2-8C196.31,35.08,196,37.84,194.79,40.37Z"/><path class="cls-3" d="M136.8,21.31c6.51,6.88,1,15.88-10,17.1C124,32.38,126.13,19.79,136.8,21.31Z"/><path class="cls-2" d="M196.75,32.35c-8.63-19.81-24.76-.49-6,8-7,1.44-8.61-5.37-13.18-8.75,4-2.3,4.24-6.51,5.27-10.3,1.62,1.8,5.33-2.14,9,.24-2.43-.45.28-5.56-4-4.3V15.32C198.54,3.15,200.45,21.28,196.75,32.35Z"/><path class="cls-2" d="M217.79,40.52c1.12,1.49,2.31-.87,3.82.27-4.35,3.92-30.59,5.51-21.86-6.44,2,2.42,5-.78,7.06,1.21C202.72,38,214.68,37.63,217.79,40.52Z"/><path class="cls-2" d="M148.9,21.17c2.79,2.32,4.83,2,5.56-2.3,2.24,2.88.54,6.12,2.39,8.42-1.45,5.35,2.32,7.52,6.9,10-8.73.26-6-7-16.93-3C149.16,30.22,149.17,25.71,148.9,21.17Z"/><path class="cls-2" d="M134.22,21.46a22.74,22.74,0,0,0-7.78,8.37l-1.24-.24c-.16-6.38-3.1-29,10-14.29l.25,1.68c-.63.65-1.71,1.23-3.49-.28,1.13,1.33,1.42,2.67.06,4,.71-.34,1.39-.88,2.24-.39Z"/><path class="cls-4" d="M143.74,37.22c-5.14,3.2-9.94,7.19-16.76,6.9,18.36-11.56,17.53-6.32,14.83-25.81C147.06,24.15,147.53,30.47,143.74,37.22Z"/><path class="cls-3" d="M146.82,34.7h2v4c.66.76,1.31,1.33,2,0-2.07-5.21,15.15,1.46,10.79,3.63C158.4,39,144,50.34,146.82,34.7Z"/><path class="cls-3" d="M187.74,17.27c2.49-2.22,12.52-8.5,3.51,1.86,6.23-1.16,7,8.37-4.49,2.23A5.47,5.47,0,0,1,187.74,17.27Z"/><path class="cls-3" d="M206.81,35.56c-3-.64-2.9,1.74-3.33,3.61-8.58-5.63-.73-12.19,7.27-7.82C210.44,33.69,208.91,34.89,206.81,35.56Z"/><path class="cls-4" d="M164.8,45.35c3.37,1.69,7.21,0,10.61,1.7-10.52-.35-21.07,1.71-31.56-.7C149.07,43.46,157.31,45.61,164.8,45.35Z"/><path class="cls-4" d="M133.82,20.35c-2.29,4.35-12.53-1.58-2.67-.69-2.45-4.78-7.9-9.94,3.71-2.5C135.73,18.62,136,19.9,133.82,20.35Z"/><path class="cls-5" d="M164,45.55c-6.08,2.07-12.13-1.23-18.2-.15a43.38,43.38,0,0,1,17-1Z"/><path class="cls-2" d="M210.75,31.35c-3-.4-6-1.42-9,0a2.28,2.28,0,0,0-2.12-2.09l1.85-4.42c1.35,4.27,3.79,5.13,7.26,3.51Z"/><path class="cls-3" d="M217.79,40.52c-1.46-1.17-4.76,2-4.95-2.13,4.27.83,7.23-1.52,10.68-5.14C222.87,37.69,219.92,38.77,217.79,40.52Z"/><path class="cls-3" d="M154.51,11.3l-1.63-.82C149.48,3.16,160.65,7.66,154.51,11.3Z"/><path class="cls-6" d="M150.73,38.33c1,.26,2.29.22,2.57,2.32-1.58-1.17-4.35,1.62-4.53-2.31Z"/><path class="cls-7" d="M16.84,60.12c7.82-25.18,100.67-6.27,112-13.76,4.62-1.19,8.08,5.24,13,2C336.12,50.8,286.36,35.94,312.7,79.26l-.93,2.06c-8.07,3.6-6.84-23.41-20.37-29.19-40.51-1.09-81,.1-121.71-.3C-16.14,52.94,44.2,44.24,11,75.4,11.58,70.4,16.94,67,16.84,60.12Z"/><path class="cls-4" d="M300.66,55.41c-4.65-18.29-98.1-2.09-105-9.38C288.69,47.07,300.1,40,300.66,55.41Z"/><path class="cls-8" d="M22.79,56.22C33.83,42,122,53.88,129,50.21c58.38,2.1,166.44-4.48,167.43,3.27C212.75,55,102.65,48.58,22.79,56.22Z"/><path class="cls-2" d="M27.25,67.75c-3.62,2.48-7.62,5.68-7.57,10.06A13.57,13.57,0,0,0,21.23,83l8.64,19.15A4,4,0,0,0,31.21,104c1.59,1,3.43-.61,5.08-1.49,2-1,4.29-1.09,6.52-1.1l48.51-.3,25.34-.16c18.19-.11,36.38-.22,54.56.05,33.91.52,67.88,2.39,101.68-.31,9.05-.73,19.32-2.52,24.15-10.22,4.24-6.75,2.6-15.49.81-23.26-.52-2.25-1.08-4.59-2.57-6.35s-4.23-2.68-6.17-1.43c-3.22,2.08-1.33,7.1,1.05,10.11s5,7.36,2.48,10.24c-2,2.25-5.74,1.55-8.17-.19-6.15-4.37-7.26-14.3-2.24-19.93Q159,58.35,35.83,59.4c-4.86,0-11,1.08-12.14,5.82a10,10,0,0,0,.71,5.45,52.9,52.9,0,0,0,8.87,15.92"/><path class="cls-2" d="M23.46,61.27A32.73,32.73,0,0,0,15,69.05a15.25,15.25,0,0,0-2.25,12.71,38.32,38.32,0,0,0,2.47,6.06l2.38,5.29,4.67,10.33a18.07,18.07,0,0,0,3.07,5.4A9.8,9.8,0,0,0,35,111.48a16.6,16.6,0,0,0,3.27-1.4A8.06,8.06,0,0,0,40.07,109c-.18.49-1.57.53-.25.15.22-.06,1-.12,1.15-.26-.37.44-1.61.13-.56.11.64,0,1.28-.06,1.92-.07,7.51-.1,15-.09,22.53-.14,30.49-.19,61-.57,91.48-.41s61.16,1.82,91.73,1.08c7.55-.19,15.09-.53,22.62-1.08,6.23-.47,12.71-1,18.6-3.2,6.4-2.43,12.32-6.45,15.28-12.86C308,85,307.49,77.08,306,69.28a40.33,40.33,0,0,0-3.08-10.44,13.5,13.5,0,0,0-11.63-7.44,11.24,11.24,0,0,0-11,8.64,16.44,16.44,0,0,0,2.42,11.83,17.13,17.13,0,0,0,1,1.49l.59.76c.8,1,.78,1-.08-.09.19.36.53.71.76,1.06.41.61.75,1.25,1.13,1.88s0,.75-.22-.62a7.25,7.25,0,0,0,.38,1.17c.49,1.38-.06-1.88-.07-.47,0,1.19.13-.86.13-.89l-.11.35a3.8,3.8,0,0,1,1.15-2c-.82.81.66-.44.7-.47-1.09.8,1.81-.55.5-.2s1-.19.93-.12h-.37q-1.19-.08.87.15c-.36-.11-.75-.18-1.12-.28-1.38-.39,1.58.92.37.15-.21-.14-.44-.27-.66-.39-1.23-.73,1.37,1.25.37.3-.17-.17-.36-.32-.53-.48s-.4-.43-.61-.64c-.5-.51-.48-1.1.4.55-.33-.62-.78-1.18-1.1-1.81-.1-.21-.19-.44-.3-.65,1.05,1.9.46,1.12.24.47a17.59,17.59,0,0,1-.45-1.73c0-.23-.06-.48-.12-.71.53,2.26.16,1.27.13.57a19.15,19.15,0,0,1,0-2.14c0-.64.41-.91-.13.94.08-.28.11-.59.17-.87.14-.58.37-1.13.52-1.7.24-.89-.91,1.82-.27.66.15-.26.28-.52.42-.78s.32-.49.48-.74c.74-1.19-1.21,1.45-.29.39a7.62,7.62,0,0,0,1.55-8.19,7.53,7.53,0,0,0-6.85-4.61q-29.49-.33-59-.51-29.62-.19-59.24-.23t-59,0q-29.47.09-59,.32c-8.56.06-19-1.19-25.89,5-4.47,4-4.94,10.38-3.06,15.81a60.4,60.4,0,0,0,6.23,13A74.85,74.85,0,0,0,28,91.89a7.53,7.53,0,0,0,5.31,2.2,7.51,7.51,0,0,0,7.5-7.5,8.73,8.73,0,0,0-2.2-5.31l-.45-.56c-.52-.64.44.58.44.56a13.91,13.91,0,0,0-.86-1.16c-.65-.92-1.27-1.86-1.86-2.81A52,52,0,0,1,33,72c-.24-.51-.43-1-.7-1.54,0,0,.59,1.46.3.68l-.27-.67c-.39-1-.76-2-1.06-3-.09-.3-.39-1.92-.24-.74.19,1.54.17-1.56,0,0s.58-1.2-.13.47,1-1.2-.17.31c-.84,1.11-.05.23.16,0,.39-.47-.83.78-.9.69l.4-.26c.28-.15.6-.3.87-.47.61-.4-1.09.58-1,.42s.56-.2.65-.23a17.17,17.17,0,0,1,2.22-.56c.33-.06,1.68-.25.25,0s.09,0,.44,0c4.29-.32,8.64-.14,12.94-.18Q75.33,66.6,104,66.5t57,0q28.52,0,57,.21t57,.46l7.23.08-5.31-12.81a21.77,21.77,0,0,0-4.69,19.5C273.81,80.52,279.1,87,286,88.36c5.13,1,10.46-.48,13.38-5.07,2.7-4.25,2-9.21-.14-13.5a21.51,21.51,0,0,0-2.21-3.5l-.13-.17c-1.41-1.82-1.56-2-.47-.61-.12-.2-.29-.39-.42-.59A19.47,19.47,0,0,1,294.9,63c-.57-1.08.34.78.32.76a3.17,3.17,0,0,1-.33-1c-.05-.21-.07-.48-.14-.69.55,1.65.21,1.59.16.66,0-.57.42-1.33-.15,1,.29-1.2-.82,1.56-.37.8s-1.42,1.51-.5.66c-1.06.76-1.34,1-.82.67s.21-.15-.93.4l-1.26.15c.58,0,.49,0-.25-.1-1.57-.24,0,.11.11.1-.79.06-1.5-.71-.73-.26,1.27.73-1.33-1.23-.29-.22.7.69-.51-.21-.36-.5a10.72,10.72,0,0,0,.56,1c.53.87-.6-1.8-.14-.31.14.45.28.89.41,1.33.4,1.48.71,3,1,4.48a42.43,42.43,0,0,0,.83,4.55l-.15-1.08c0,.31.08.61.11.92l.09.91c.06.76.11,1.52.12,2.28s0,1.49,0,2.24c0,.3-.05.59-.07.89-.13,1.54.33-1.64,0-.25-.15.72-.29,1.43-.5,2.13a5.62,5.62,0,0,0-.43,1.25c0-.15.82-1.68.24-.58-.35.64-.67,1.28-1.08,1.89-.12.19-.33.41-.44.63.8-1,.95-1.22.47-.63-.12.15-.25.29-.37.43a16.7,16.7,0,0,1-1.2,1.18c-.48.43-1.47.92.36-.22-.21.13-.4.3-.61.44a24.92,24.92,0,0,1-3.46,1.94c-.88.43,1.88-.74.55-.23l-.73.27c-.61.23-1.23.43-1.86.61a41.87,41.87,0,0,1-4.26,1c-.6.11-1.19.21-1.79.3L276,93c2.2-.37,1.31-.17.8-.11-1.49.16-3,.31-4.49.43-3.67.29-7.34.52-11,.71-29.65,1.52-59.33.06-89-.42-29.48-.47-59,0-88.45.13l-22.32.14-11,.07c-3.51,0-7.1-.17-10.6.16A18.88,18.88,0,0,0,32.71,96c-.57.29-1.1.63-1.66,1s-1.69.61.31,0L31,97a5.28,5.28,0,0,1,4,.55c3.41,2,2.15,2.6,1.7,1.54-.18-.41-.39-.81-.57-1.21-.34-.76-.68-1.52-1-2.27l-2.38-5.29L28.16,80.25,27.6,79l-.1-.23c-.33-.75-.27-.61.17.4a5.57,5.57,0,0,0-.33-.94l-.14-.48c-.17-.82-.17-.64,0,.53a6.58,6.58,0,0,0,0-.89c0-1.41-.38,1.55-.08.66a5.85,5.85,0,0,0,.28-.9c-.54,1.2-.63,1.45-.29.75l.19-.33c.39-.66,1.09-1-.28.24.18-.18.35-.43.52-.61A17.66,17.66,0,0,1,29,75.79l.63-.54c.51-.43,1.52-.81-.22.15.58-.32,1.11-.8,1.65-1.17C34.25,72,36,67.55,33.72,64c-2.06-3.2-6.81-5.07-10.26-2.69Z"/><path class="cls-9" d="M314.67,83.35c-9,10.14-13.23,32.85-28.68,31.86-61.74-3.44-120.92,1.56-181.15.09-19.15-.37-89.77,3.28-77.6-5C356,106,276.12,123.07,310.6,80.54,312.86,77.72,315.63,80.09,314.67,83.35Z"/><path class="cls-3" d="M136.84,135.26c-2-1.36-4-.38-6,0,4.81-1.51,4.92-19.25,11.13-12.93-9.27,5.44-2.49,17.69,7.16.61.46,4.79,1.3,20.45,7.14,5.62.28-.43,1,0,2.54.73-1.2.51,2.29,10.3,3.3,4.84-11.35-10.46,15-3.71,7.42-11.31-4.58-.85-10.52,4.06-15.12-1,4.76,2.41,12.82-2.15,17.84-1.37,1.57,10.74,18.72,16.91,8.66,1,3.38-.7,8.81,1.08,14.5-1.66-.88,5.58-10,1.19-8.91,8.81.75,8.34-7.82,3-11.9,5.08-1.7,6.29-8.94,0-9.79,6.67h0C161.32,146.82,146.25,130.94,136.84,135.26Z"/><path class="cls-3" d="M92.83,121.31c1.57-4.89,14.93,3.67,7.73,6.28-6.2-8.22-6.86,5.12-14.68,7.39-3.39,1.53-31.07-6.81-16.75-7.36-3.94-2.61,4.48-12.76,6-5.83-3.56,10,13.22,4.51,17.74-.49.18,5.14-3.32,6.94-6.64,7.92C89.57,128.28,93,126.43,92.83,121.31Z"/><path class="cls-3" d="M257.08,127.8c-2.79,6.45-23.51,9.15-27.81,1,4.58.11,7.59,3.19,11.54,2-9-7.29-1.94-3.18,4.63-4.88,2.95-2.84-2.67-8,6.2-5.32C255.52,122.88,244.68,133.18,257.08,127.8Z"/><path class="cls-3" d="M102.8,120.3c13.12-2,30.2-.88,24.14,18.07C118.14,118.18,122,123.93,102.8,120.3Z"/><path class="cls-2" d="M124.77,139.3c-10.55-5.36-6.75-18.17-22-10C112.28,113.31,119.75,130.84,124.77,139.3Z"/><path class="cls-2" d="M159.73,129.31c.16,3.52,8.88.14,3.23,9.13C158.48,142.07,154.7,130.58,159.73,129.31Z"/><path class="cls-3" d="M206.26,120.82c-8.33,3.75-1.89,17-10.76,2.92C199.19,123.46,201.43,119.32,206.26,120.82Z"/><path class="cls-3" d="M189.66,125.86c5.72.35,11,12,4.26,12.16C193.87,133.94,193.44,130.14,189.66,125.86Z"/><path class="cls-2" d="M136.84,135.26c3.59-1.86,4.66-.07,10.29-4.09,2.58,10,4.47,2.74,9.42,6.48,1.42,3.61,4.1,5.47,8.27,2.64C162.85,148.05,144.2,133,136.84,135.26Z"/><path class="cls-10" d="M306.64,79.35l5.13,2c-10.44,12.58-10.13,33.28-27.66,30-86.76.17-170.12,0-256.14.09,1.83-7.3,16.31-2,23.88-3.55C336,106,279,118.63,306.64,79.35Z"/><path class="cls-2" d="M92.83,121.31c4.43,3.71-6.72,10.24-12.06,9.25,4.89-2,10.66-2.89,12.08-9.26Z"/><path class="cls-10" d="M306.64,79.36c-1.25-2-8-9.48-1.95-12C307.6,71,309.8,74.72,306.64,79.36Z"/><path class="cls-11" d="M142.87,81.9c.08-6.29,4.3-10.39,10.63-10.36,5.31,0,10,5.16,9.88,10.83a10,10,0,0,1-10.26,9.55C147.12,91.82,142.8,87.6,142.87,81.9Z"/><path class="cls-11" d="M128,71.46c2.06,0,4.12-.07,6.18,0,2.25.09,4.43.58,5.5,2.83a5.67,5.67,0,0,1-1.12,6.51c-1.31,1.44-1.19,2.28.09,3.57a42.5,42.5,0,0,1,3.06,4,7.35,7.35,0,0,0,5,2.91c-2.29,1-4,.87-5.49-.44a17.89,17.89,0,0,1-3.65-4.34,6.87,6.87,0,0,0-4.89-3.17c-.86-.17-1.33-.06-1.27,1a45.47,45.47,0,0,1,0,4.67A2.62,2.62,0,0,0,133,91.83h-5.43c1.58-.78,1.53-1.93,1.52-3.11V75C129.09,73.78,129.29,72.46,128,71.46Z"/><path class="cls-11" d="M174,89.09c.33,2.83.33,2.83-2.05,2.83-2.89,0-5.78,0-8.82-.12,1.35-.79,1.26-2,1.26-3.24V74.39c0-1.19-.08-2.2-1.35-2.78h5.57c-1.6.69-1.64,1.86-1.62,3.16.07,4.23.09,8.45,0,12.68,0,1.35.22,2.35,1.57,3a3.82,3.82,0,0,0,4.11-.2C173.11,89.91,173.47,89.57,174,89.09Z"/><path class="cls-11" d="M187.13,89.09c.33,2.83.33,2.83-2,2.83-2.89,0-5.78,0-8.82-.12,1.36-.79,1.26-2,1.26-3.24V74.39c0-1.17,0-2.23-1.34-2.78h5.58c-1.6.69-1.64,1.86-1.62,3.16.06,4.23.08,8.45,0,12.68,0,1.35.22,2.35,1.57,3a3.82,3.82,0,0,0,4.11-.2C186.22,89.91,186.58,89.57,187.13,89.09Z"/><path class="cls-2" d="M155,81.82V74.17c0-1,.23-1.15,1.12-.7a7.44,7.44,0,0,1,3.57,3.6,12.5,12.5,0,0,1,.26,9.55,5.81,5.81,0,0,1-1.81,2.56c-.86.7-1.86,1.66-2.9,1.26-.64-.24-.19-1.6-.21-2.46C154.94,85.93,155,83.88,155,81.82Z"/><path class="cls-2" d="M151.15,90.48c-4-1.39-5.76-4.43-5.58-9.44.14-4.08,2.12-6.92,5.58-7.88Z"/><path class="cls-2" d="M152.49,72.84v18h-.36v-18Z"/><path class="cls-2" d="M153.76,90.87V72.82C154.44,73.55,154.68,88.76,153.76,90.87Z"/><path class="cls-2" d="M131.44,77.35c0-1.11.06-2.22,0-3.32-.1-1.36.56-1.73,1.8-1.7a4.19,4.19,0,0,1,4.1,2.85c.76,2,.93,4-.53,5.81-.6.75-4.26,1.32-5.07.89-.39-.21-.27-.56-.28-.87C131.43,79.79,131.44,78.57,131.44,77.35Z"/><path d="M247.57,85.05a1.5,1.5,0,0,0,0-3,1.5,1.5,0,0,0,0,3Z"/><path class="cls-2" d="M255.63,87.52l21.08-1.34c1.53-.1,3.19-.16,4.46.7a16.28,16.28,0,0,0-5-11.91,5.19,5.19,0,0,0-2.4-1.44,6.38,6.38,0,0,0-2.7.25c-14.08,3.26-28.79,1.64-43.15,0L203.3,71c-1.61-.18-3.66-.12-4.29,1.37a3.7,3.7,0,0,0-.15,1.72l.73,11.28a3.89,3.89,0,0,0,.41,1.79,3.65,3.65,0,0,0,1.48,1.2,26.39,26.39,0,0,0,14.56,3c4.3-.37,8.44-1.79,12.69-2.53a79.62,79.62,0,0,1,9.51-.86l10.09-.51c-12.78,3.6-25.84,7.24-39.1,6.5-1.79-.1-4-.68-4.33-2.45a6.21,6.21,0,0,1,.52-2.61c.78-2.77-.4-5.73-2-8.12s-3.65-4.5-4.93-7.08c-1.47-2.94-2.46-6.91-5.68-7.57a9.86,9.86,0,0,1,4.58,6.09c.43,1.75.37,3.59.8,5.34s1.55,3.53,3.31,3.93"/><path class="cls-2" d="M255.63,98l12.26-.78,5.88-.37a28.88,28.88,0,0,1,5.65-.15l-2.79-.38a7.09,7.09,0,0,1,1.09.31l-2.51-1.06a3.48,3.48,0,0,1,.66.35c6.86,4.16,15.78-1.2,15.8-9.06a27.26,27.26,0,0,0-7.39-18.61A18.07,18.07,0,0,0,280,64.81a15.32,15.32,0,0,0-10.38-1.43c-2.64.44-5.23,1.09-7.89,1.45l2.79-.37c-16,2.05-32.28-.68-48.17-2.49L204,60.57a15.44,15.44,0,0,0-7.86,1,12.71,12.71,0,0,0-7.84,11.58c-.07,2,.23,4,.36,6s.24,4.09.4,6.13a16.3,16.3,0,0,0,1.68,6.76,13.89,13.89,0,0,0,4.9,5,31.65,31.65,0,0,0,7.08,3.1,35.83,35.83,0,0,0,16.06,1.3c4.78-.64,9.37-2.1,14.13-2.78l-2.79.38c6-.8,12.13-.85,18.18-1.16l-2.79-20.63c-8.33,2.35-16.69,4.68-25.28,5.87l2.79-.38c-4.79.64-9.92,1.18-14.74.54l2.79.38a8.58,8.58,0,0,1-1.8-.5l2.51,1a4.38,4.38,0,0,1-.75-.45l2.12,1.65a2.87,2.87,0,0,1-.39-.39l1.64,2.12a1.7,1.7,0,0,1-.29-.46l1.05,2.51a2.16,2.16,0,0,1-.16-.55l.37,2.79a2.61,2.61,0,0,1,0-.88l-.38,2.8a26.29,26.29,0,0,0,1.13-6.53,19.93,19.93,0,0,0-1.75-7.61,23.22,23.22,0,0,0-2.55-4.7C211,73.36,210,72.19,209.13,71a48,48,0,0,1-3.37-6.48A16.18,16.18,0,0,0,195.6,56a10.51,10.51,0,0,0-8.09,19.19c.32.2.63.4.93.62l-2.12-1.64A11,11,0,0,1,188.17,76l-1.64-2.13a11.54,11.54,0,0,1,1.32,2.25l-1.06-2.51a11.65,11.65,0,0,1,.72,2.74l-.37-2.79c.23,1.82.4,3.66.68,5.48a17.59,17.59,0,0,0,1.72,5,14.7,14.7,0,0,0,9.17,7.54,10.82,10.82,0,0,0,8.09-1.06,10.5,10.5,0,0,0-2.51-19.19,3.32,3.32,0,0,1-.67-.23l2.51,1.06a4.48,4.48,0,0,1-.6-.35l2.12,1.64a6,6,0,0,1-1-1l1.65,2.13a8,8,0,0,1-.71-1.28l1.06,2.5a10.68,10.68,0,0,1-.59-2.37l.38,2.8c-.27-2-.42-4.12-.8-6.15a19.66,19.66,0,0,0-2-5.26,20.51,20.51,0,0,0-7.56-7.77L190,76.24a8,8,0,0,1,.87.28l-2.51-1a5.29,5.29,0,0,1,.77.44L187,74.27a7,7,0,0,1,1.07,1l-1.64-2.12c1.65,2.14,2.29,4.84,3.71,7.12,1.77,2.85,4.22,5.22,5.6,8.32l-1.06-2.51a12.15,12.15,0,0,1,.78,2.77l-.37-2.79a9.65,9.65,0,0,1,0,2l.38-2.8c-.36,2-1.15,3.65-1.1,5.76a13,13,0,0,0,1.93,6.75,13.94,13.94,0,0,0,9.22,6.17,54.8,54.8,0,0,0,15.87,0c10.15-1.18,19.92-3.68,29.73-6.45a10.51,10.51,0,0,0,7.52-11.52c-.66-4.91-5.07-9.37-10.31-9.1s-10.72.38-16.05.91a76.22,76.22,0,0,0-10,1.6c-2.56.59-5.09,1.24-7.69,1.61l2.79-.38a27.45,27.45,0,0,1-7.13,0l2.79.38a28,28,0,0,1-6.82-1.9l2.51,1.06a14.63,14.63,0,0,1-3-1.59l2.12,1.64-.27-.26,1.64,2.12a2.25,2.25,0,0,1-.38-.63L210,84a3.59,3.59,0,0,1-.17-.72l.37,2.79c-.25-2.19-.31-4.42-.45-6.62a38.68,38.68,0,0,1-.33-6.7L209,75.56l.12-.42-1,2.51a1.86,1.86,0,0,1,.29-.49l-1.64,2.12a2.05,2.05,0,0,1,.41-.37L205,80.55a2.19,2.19,0,0,1,.5-.27L203,81.34a6.17,6.17,0,0,1,.87-.23l-2.79.37a26.4,26.4,0,0,1,6.14.45l7.14.81c4.82.55,9.65,1.11,14.48,1.65,9.4,1.07,18.86,2.09,28.34,1.69,3.4-.14,6.75-.54,10.11-1,2.66-.36,5.25-1,7.89-1.45L272.4,84a6.1,6.1,0,0,1,1.35,0L271,83.65a3.59,3.59,0,0,1,.76.26l-2.51-1.06a7.67,7.67,0,0,1,1,.65l-2.12-1.64a15.85,15.85,0,0,1,2.23,2.33l-1.64-2.13a17.82,17.82,0,0,1,2.21,3.83l-1.06-2.51a18.55,18.55,0,0,1,1,3.88l-.38-2.79a19.37,19.37,0,0,1,.15,2.41l15.8-9.07c-5.13-3.11-11.21-2-16.86-1.68l-14,.89a11.11,11.11,0,0,0-7.42,3.08,10.48,10.48,0,0,0,0,14.84A10.41,10.41,0,0,0,255.63,98Z"/><path class="cls-2" d="M113.52,92.52l-.72-23.7A57.72,57.72,0,0,1,101.6,91a44.73,44.73,0,0,1,.64-16A31.52,31.52,0,0,1,93.65,92.4a125.86,125.86,0,0,1-.55-18.72A32.92,32.92,0,0,1,81.7,90.56a38.94,38.94,0,0,1,.6-17.67,29.69,29.69,0,0,1-7.23,20,126.73,126.73,0,0,1-.31-20.8,14.65,14.65,0,0,1-8.84,15.69,2,2,0,0,1-1.3.18c-.63-.18-1-.85-1.21-1.46a30,30,0,0,1-1.82-14.82,15.38,15.38,0,0,1-7.76,16.44,33.28,33.28,0,0,1-1.48-16.29,15.42,15.42,0,0,1-2.8,13.61c-.5.62-1.35,1.26-2,.82a1.7,1.7,0,0,1-.6-1,30.69,30.69,0,0,1-1.21-13.43c1.2.75,1.39,2.4,1.41,3.82a23,23,0,0,1-1.05,8.51,9.29,9.29,0,0,1-5.84,5.9,4,4,0,0,1-4-.77,4.93,4.93,0,0,1-1-2.55,23,23,0,0,1,1.17-12.17"/><path class="cls-2" d="M124,92.52l-.72-23.7A10.51,10.51,0,0,0,102.68,66a60,60,0,0,1-2.7,8.06L101,71.57a59.63,59.63,0,0,1-7.45,12.84l1.64-2.12-1,1.33,17.55,4.63-.07-.47.38,2.79a46.22,46.22,0,0,1,0-11.81l-.38,2.79c.18-1.26.4-2.5.67-3.74L92.11,72.23A32.61,32.61,0,0,1,90,79.73l1.06-2.51A33,33,0,0,1,87,84.31l1.64-2.13A33.83,33.83,0,0,1,86.22,85l17.93,7.43a128.66,128.66,0,0,1-.55-18.72,10.57,10.57,0,0,0-3.08-7.43,10.81,10.81,0,0,0-6-2.89A10.52,10.52,0,0,0,83,70.88a35.64,35.64,0,0,1-1.32,3.76l1.06-2.51a34.65,34.65,0,0,1-4.2,7.21l1.64-2.13a34.31,34.31,0,0,1-5.88,5.92l17.55,4.63c-.15-.76-.27-1.53-.38-2.31l.37,2.79a40.73,40.73,0,0,1,0-10.29l-.38,2.79a43.38,43.38,0,0,1,1-5L71.8,72.89a32.45,32.45,0,0,1-.25,4.52l.38-2.79a31.12,31.12,0,0,1-2,7.52L71,79.63a30.85,30.85,0,0,1-3.91,6.74l1.64-2.12c-.34.43-.69.85-1,1.27l17.93,7.42a130.14,130.14,0,0,1-.31-20.8l-20.63,2.8.06.34-.38-2.79a14.57,14.57,0,0,1,0,3.79l.37-2.79a15.43,15.43,0,0,1-1,3.66l1.06-2.5A16.47,16.47,0,0,1,62.82,78l1.65-2.13a16.3,16.3,0,0,1-2.67,2.71l2.12-1.65a14.13,14.13,0,0,1-3,1.75l2.5-1.06a5.45,5.45,0,0,1-1.19.36l2.8-.37-.44,0L69.92,79l-.29-.13,2.12,1.64a1.75,1.75,0,0,1-.46-.44l1.65,2.12a3.33,3.33,0,0,1-.33-.58l1.06,2.51a29.45,29.45,0,0,1-2-7.38l.37,2.79a31.4,31.4,0,0,1,0-7.75l-20.62,2.8c.07.34.13.69.18,1l-.37-2.79a15.74,15.74,0,0,1,0,3.88l.38-2.79A16.65,16.65,0,0,1,50.49,78l1.06-2.51a17.28,17.28,0,0,1-2,3.35l1.64-2.12a16.52,16.52,0,0,1-2.73,2.75l2.12-1.64a15.71,15.71,0,0,1-2.09,1.33L64,85.38a35,35,0,0,1-1.61-6.68l.38,2.79a34.7,34.7,0,0,1,0-8.7l-.37,2.79c0-.3.08-.6.13-.91H42.23a15.39,15.39,0,0,1,.39,1.91l-.37-2.79a17,17,0,0,1,0,4.27l.37-2.79a17.5,17.5,0,0,1-1,3.75l1.06-2.51a16.34,16.34,0,0,1-1.93,3.37l1.65-2.12a7.29,7.29,0,0,1-.75.82l2.13-1.65a2.07,2.07,0,0,1-.6.37l2.51-1.06-.32.08L48.13,76h-.31l2.8.37-.3-.12L55,78.89l-.21-.19,1.64,2.13a1.82,1.82,0,0,1-.28-.51l1,2.51a30.05,30.05,0,0,1-1.32-5.76l.38,2.79a32,32,0,0,1,0-8L40.42,81l.26.19-2.13-1.64A2.63,2.63,0,0,1,39,80l-1.65-2.12a3,3,0,0,1,.31.55L36.58,75.9a6.89,6.89,0,0,1,.34,1.28l-.38-2.79a27.45,27.45,0,0,1-.11,6.34l.37-2.8a17.53,17.53,0,0,1-1,3.85l1.06-2.51a12.93,12.93,0,0,1-1.43,2.51l1.64-2.12a11,11,0,0,1-1.76,1.78l2.12-1.64a9.31,9.31,0,0,1-1.84,1l2.51-1.06a8.3,8.3,0,0,1-1.38.38l2.79-.38a6.3,6.3,0,0,1-1.44,0l2.79.38a5.79,5.79,0,0,1-1-.31l2.5,1.06a3.17,3.17,0,0,1-.58-.37l2.13,1.64a2.65,2.65,0,0,1-.51-.55l1.64,2.12a3.06,3.06,0,0,1-.37-.69l1,2.51a13.37,13.37,0,0,1-.55-2.43l.38,2.79a24.42,24.42,0,0,1,0-6.16l-.37,2.79a24.61,24.61,0,0,1,1.31-5.13c.9-2.42.2-5.94-1.06-8.09a10.49,10.49,0,0,0-14.37-3.77,11.9,11.9,0,0,0-4.82,6.28,33.58,33.58,0,0,0-1.18,17.75,13.77,13.77,0,0,0,9.53,10.63,16.47,16.47,0,0,0,12.25-1.55C52.27,95.93,56,89.82,57,84a39.13,39.13,0,0,0,.62-8.91,18.08,18.08,0,0,0-.78-4.74,13,13,0,0,0-3-5.18A16.76,16.76,0,0,0,51,62.85c-3-2.13-7.59-1.76-10.6,0a10.48,10.48,0,0,0-3.77,3.77,10.35,10.35,0,0,0-1.43,5.29,40,40,0,0,0,.7,12.82,21,21,0,0,0,2.33,6.69,11.7,11.7,0,0,0,15.8,3.86,16.67,16.67,0,0,0,5.88-6.42,26,26,0,0,0,2.55-19.77c-1.13-4.29-5.59-7.91-10.13-7.71a12.45,12.45,0,0,0-5.3,1.44c-2,1.06-4.46,3.94-4.82,6.27a44.85,44.85,0,0,0-.65,11A45.46,45.46,0,0,0,43.71,91a10.63,10.63,0,0,0,6.08,6.81,10.5,10.5,0,0,0,9.34-.53A24.71,24.71,0,0,0,69.54,86.36a27.07,27.07,0,0,0,2.18-17.42,10.51,10.51,0,0,0-4.83-6.27,10.83,10.83,0,0,0-6.69-1.25,10,10,0,0,0-6,2.89l-1.64,2.12a10.52,10.52,0,0,0-1.44,5.3,38.13,38.13,0,0,0,1.31,15c1.17,4,2.86,8,6.63,10.2,4.54,2.7,9.63,1.57,13.91-.88a24.29,24.29,0,0,0,9.64-10.19,25,25,0,0,0,2.36-6.81,27.61,27.61,0,0,0-.06-9.72c-.38-2.33-2.79-5.2-4.82-6.27a10.86,10.86,0,0,0-6.7-1.25c-5.35.72-8.76,5-9.1,10.31a130.14,130.14,0,0,0,.31,20.8A12.59,12.59,0,0,0,66,98.24a10.48,10.48,0,0,0,5,4.3,10,10,0,0,0,5.44.71,9.74,9.74,0,0,0,6-2.89A40.92,40.92,0,0,0,92.8,72.89,10.52,10.52,0,0,0,72.17,70.1a51.87,51.87,0,0,0-.6,23.25c.68,3.51,4,6.42,7.34,7.33A10.48,10.48,0,0,0,89.12,98a42.62,42.62,0,0,0,14.1-21.51L82.6,73.68a128.66,128.66,0,0,0,.55,18.72,12.63,12.63,0,0,0,1.43,5.3,10.66,10.66,0,0,0,16.49,2.12,41.17,41.17,0,0,0,11.29-22c.44-2.89.48-5.45-1.06-8.09A10.49,10.49,0,0,0,96.94,66a10.54,10.54,0,0,0-4.83,6.27A62,62,0,0,0,90.7,83a60.58,60.58,0,0,0,.78,10.84,10.36,10.36,0,0,0,2.7,4.63,10.49,10.49,0,0,0,4.63,2.7c3.32.91,7.93.12,10.22-2.7a70.73,70.73,0,0,0,13.9-26.86L102.3,68.82l.72,23.7a10.94,10.94,0,0,0,3.07,7.42A10.51,10.51,0,0,0,124,92.52Z"/></g></g></svg>