<svg xmlns="http://www.w3.org/2000/svg" viewBox="0 0 387.15 538.08"><defs><style>.cls-1{fill:#8e6b50;}.cls-2{fill:#7c5d45;}.cls-3{fill:#947054;}.cls-4{fill:#a0795c;}.cls-5{fill:#8d6a4f;}.cls-6{fill:#c59c74;}.cls-7{fill:#be9270;}.cls-8{fill:#ba916d;}.cls-9{fill:#d2a87e;}.cls-10{fill:#caa275;}.cls-11{fill:#c7a073;}.cls-12{fill:#c99f77;}.cls-13{fill:#cca375;}.cls-14{fill:#d4ab80;}.cls-15{fill:#a88061;}.cls-16{fill:#a78163;}.cls-17{fill:#c19473;}.cls-18{fill:#ae8564;}.cls-19{fill:#cea474;}.cls-20{fill:#be9a79;}.cls-21{fill:#cba385;}.cls-22{fill:#e4ba8f;}.cls-23{fill:#c9a382;}.cls-24{fill:#7c5d44;}.cls-25{fill:#906d52;}.cls-26{fill:#977357;}.cls-27{fill:#926e52;}.cls-28{fill:#be926f;}.cls-29{fill:#7f6046;}.cls-30{fill:#7a5c43;}.cls-31{fill:#8b674e;}.cls-32{fill:#826249;}.cls-33{fill:#ab8061;}.cls-34{fill:#6b5137;}.cls-35{fill:#ae8266;}.cls-36{fill:#604830;}.cls-37{fill:#503d24;}.cls-38{fill:#644d34;}.cls-39{fill:#67503a;}.cls-40{fill:#503922;}.cls-41{fill:#5c482f;}.cls-42{fill:#916d52;}.cls-43{fill:#8d6b50;}.cls-44{fill:#9a765b;}.cls-45{fill:#997356;}.cls-46{fill:#99745a;}.cls-47{fill:#88664e;}.cls-48{fill:#88684e;}.cls-49{fill:#594832;}.cls-50{fill:#987658;}.cls-51{fill:#89694f;}.cls-52{fill:#9a755b;}.cls-53{fill:#ab805f;}.cls-54{fill:#785b42;}.cls-55{fill:#7b5c43;}.cls-56{fill:#987154;}.cls-57{fill:#7f6047;}.cls-58{fill:#977255;}.cls-59{fill:#624c35;}.cls-60{fill:#4a371e;}.cls-61{fill:#a37c5e;}.cls-62{fill:#6f573e;}.cls-63{fill:#604a32;}.cls-64{fill:#b28d72;}.cls-65{fill:#dec8a0;}.cls-66{fill:#c09370;}.cls-67{fill:#c49671;}.cls-68{fill:#504026;}.cls-69{fill:#55442c;}.cls-70{fill:#554128;}.cls-71{fill:#57432a;}.cls-72{fill:#4e3f23;}.cls-73{fill:#54422e;}.cls-74{fill:#ab997a;}.cls-75{fill:#4e3b23;}</style></defs><title>Asset 2</title><g id="Layer_2" data-name="Layer 2"><g id="Layer_1-2" data-name="Layer 1"><path class="cls-1" d="M353.33,536.76c-10-5.66-53.7,7.32-53.91-15.36C319.23,489.16,446.69,530.07,353.33,536.76Z"/><path class="cls-2" d="M141.49,2.15C153.15,1,249.21-2,204.29,23.32,193.59,19.79,103.61,36.17,141.49,2.15Z"/><path class="cls-3" d="M137.31,4.57c14.84,23.1-91.91,31.12-82.76,3.9C55.8-3.24,85.52,5.2,137.31,4.57Z"/><path class="cls-4" d="M197.06,20.5c96.32-.77,75.75-34.18,167.56,1.21C319.3,29.68,228.53,32.74,197.06,20.5Z"/><path class="cls-5" d="M364.09,20.64c-6.73-1.16-71.17-4.88-45.67-16C337.87-8.83,427.63,18.23,364.09,20.64Z"/><path class="cls-3" d="M282.57,18C267.67,8.4,223,36,211.3,9.83,211.74-3.79,291.57-5.17,282.57,18Z"/><path class="cls-3" d="M2.93,20.39C-17.25-15.13,92.31,5.47,35.79,23.46,25.6,20.29,20.56,27.83,2.93,20.39Z"/><path class="cls-6" d="M385.43,516c-8.94-21.19-14.84-183.3,0-170.52C385.43,397.49,385.43,461.25,385.43,516Z"/><path class="cls-7" d="M2.93,20.39c71.44-11.11,47.29.09,132.06.26C132.91,29-1.77,33,2.93,20.39Z"/><path class="cls-8" d="M385.43,94.33c-3,18.78,7.36,126.41-6.85,96.22C378.34,188.47,373.58,56,385.43,94.33Z"/><path class="cls-9" d="M2.4,536.76c-8.64-7,67.95-18,102.72,0Z"/><path class="cls-10" d="M383.35,195.72c6,39.07,0,103.12,2.08,149.78C374.3,304.75,378.54,244.94,383.35,195.72Z"/><path class="cls-11" d="M105.11,536.76c14.92-10.34,117.27-10.42,137,0C201.28,536.76,148.92,536.76,105.11,536.76Z"/><path class="cls-12" d="M306.27,532.11c8.77-2.58,67,4.5,16.25,4.65C306.38,542.49,270.64,527.44,306.27,532.11Z"/><path class="cls-13" d="M364.09,20.64C388.22,4.77,392.64,68.29,381,67.52,377,56.82,391.44,43.34,364.09,20.64Z"/><path class="cls-14" d="M291.21,532.38c-5.93,8.17-34.68,5.83-49.15,2.09C253,531.46,266.08,524.5,291.21,532.38Z"/><path class="cls-15" d="M379,2.15c-7.09,9.82-20.47,2.9-38.52,0Z"/><path class="cls-16" d="M107.32,4.52C90.56,1.6,126.11,2,141.49,2.16,134.36,7.91,120.74,5.92,107.32,4.52Z"/><path class="cls-17" d="M302,2.15c.17,3.28-10.51,16.58-12.84,0Z"/><path class="cls-18" d="M229.22,2.15h0C229.16,11,187.33,1.26,229.22,2.15Z"/><path class="cls-19" d="M353.33,536.76c10.43-5.15,21.44-1,32.1-2.3C375.92,539.32,372.35,536.26,353.33,536.76Z"/><path class="cls-20" d="M267.74,2.15a30.53,30.53,0,0,1-25.68,0Z"/><path class="cls-21" d="M100.83,2.15c-1.8,4.78-11.35,2-21.39,0Z"/><path class="cls-22" d="M383.77,71.46c3-4.6,3.09,28.37-.56,18.48C383.72,82.5,378.56,81.82,383.77,71.46Z"/><path class="cls-23" d="M25.94,2.15c-7.13,3.31-14.26,3.9-21.4,0Z"/><path class="cls-24" d="M2.8,306.3c-5.22-17,4.52-128,21.23-58.76C23.11,253.19,32.43,339.24,2.8,306.3Z"/><path class="cls-25" d="M19.39,225.74c-26.72,38.44-21.25-76-10.66-73.46C13.73,108.2,31.6,203.83,19.39,225.74Z"/><path class="cls-26" d="M2.8,306.3c28.87-.1,26.2,98.53,6.19,77C-2.9,411.65,4.72,323.47,2.8,306.3Z"/><path class="cls-27" d="M2.7,499.87c-.25-22.59.33-49.63,1.91-79.16C12,408.75,43.83,486.53,2.7,499.87Z"/><path class="cls-28" d="M19.55,486c-17.61-144.1-1.82-57.36,2.29-172.68C25.72,321.63,31.17,482.4,19.55,486Z"/><path class="cls-29" d="M2.65,25.23C20.86,12.59,37,55.77,7.13,52.12,3.58,48.63,2.32,47.57,2.65,25.23Z"/><path class="cls-4" d="M2.74,41.32c9,20.38,5.78,77.18,13.92,96.8C-12.33,169.09,8.35,74.93,2.74,41.32Z"/><path class="cls-30" d="M2.7,499.87c15-34,34.6,20.36,3.07,16C2,514.06,2.67,510.21,2.7,499.87Z"/><path class="cls-31" d="M2.8,513.68c9.94-.19,40.24,15.77-.13,18.45C2.7,528.79,2.7,526.84,2.8,513.68Z"/><path class="cls-32" d="M366.26,495.34c5.15-13.91,22.27-14,16.88,18.34C374.67,514.38,369.33,506.88,366.26,495.34Z"/><path class="cls-33" d="M299.8,515.87c5.06.81-1,9.63,6.47,16.24C305.47,531.45,259.12,539,299.8,515.87Z"/><path class="cls-34" d="M366.26,495.34c5.95,5.15,6.31,15.54,14.8,18.32C372.88,516,363.75,517.31,366.26,495.34Z"/><path class="cls-35" d="M370.44,513.78c8.6-1.61,13.28,4.33-4.2,7.61Z"/><path class="cls-3" d="M197.07,22.62l-61.86.19C144.54,19,180.73,18.53,197.07,22.62Z"/><path class="cls-36" d="M107.32,4.52c6.11-6.13,3.86,19.66-3,8C104,11.34,103.9,9,107.32,4.52Z"/><path class="cls-37" d="M64.47,15.07c1.68-1-3.63-11.68,5.27-9.24C70.93,9.14,69,11.8,64.47,15.07Z"/><path class="cls-38" d="M282.57,18c-6.38,1-12.52-17.61,2.19-13.35C285.32,7.62,289.09,12.72,282.57,18Z"/><path class="cls-39" d="M314.62,4.61c2.05,6.57-7.72,23.66-10.35,5.1C305.41,6.8,306.33,4.19,314.62,4.61Z"/><path class="cls-40" d="M240.16,17.17c.57-4.21-.82-7.73-5.06-11.16C247,5.71,242.83,11.86,240.16,17.17Z"/><path class="cls-41" d="M33.92,6.21c8.51-2.75,10.64.57,7.77,9.05C37.71,13.19,38.07,7.59,33.92,6.21Z"/><path class="cls-42" d="M383,488.37c-31.71,10.42-11.44-52.29-17-80.71C381.34,331.24,383.72,459.22,383,488.37Z"/><path class="cls-43" d="M366.21,340.89c-7-21.9,12.53-63.71,17-7.69C386.27,355.1,366.77,394.27,366.21,340.89Z"/><path class="cls-44" d="M366.21,340.89C372,343.36,363,381.9,381,357,388,381.61,360.67,411,366.21,340.89Z"/><path class="cls-45" d="M366.34,230.36C359.19,155,386.29,122,373.79,202,381.79,216.86,391.62,223.55,366.34,230.36Z"/><path class="cls-46" d="M366,131.25c3.17,0-4.08-67.14,5.08-39.77C396.81,94.74,372.79,203.45,366,131.25Z"/><path class="cls-47" d="M383.08,209.53c-5,23.1-23.94-23.47-8.91-37.43C372.88,179.81,384.92,177,383.08,209.53Z"/><path class="cls-48" d="M381,94.29c-11.42,12.23-21.68-.11-5.91-30.42C382.52,62,386.12,69.88,381,94.29Z"/><path class="cls-49" d="M366.14,154.28c.95-9.45,29.23,2.7,7.27,4.88C374.71,157.13,365.48,158.92,366.14,154.28Z"/><path class="cls-50" d="M21.64,486.15c-4.74,53.34,19.75,11.38,31.09,41.58C17.52,541.76,11.2,536,21.64,486.15Z"/><path class="cls-51" d="M120.11,534.12c-6.14,6.21-57-10.89-21.21-16.93C103.34,519.58,146.67,513.35,120.11,534.12Z"/><path class="cls-52" d="M107.18,518.11c-3.11,1.58-20.93-3.42-18.29,7C117.08,552.24,12.11,508.82,107.18,518.11Z"/><path class="cls-53" d="M43.07,532c17.37-2.74-8.64-19.47,9.64-16C64.42,512.34,73.18,538.54,43.07,532Z"/><path class="cls-54" d="M64.58,531.93c-12.95-15.94,2.69-26.56,10.58.26Z"/><path class="cls-24" d="M366.34,230.36c26.2-22.24,19.12,69.56,12.83,83.47C354.35,305.44,369,259.71,366.34,230.36Z"/><path class="cls-55" d="M137.28,516.16c18.95,3.63,87.43-14.75,74.78,17.9C195.88,529,112.47,549.12,137.28,516.16Z"/><path class="cls-42" d="M212.06,534.06c-7.58-14.22,12.06-20.87,35.31-20.36C326.14,516.4,271.47,539.42,212.06,534.06Z"/><path class="cls-56" d="M137.28,516.16c-1.95,26.91-10.3,22.43-16.68,4.48C104.55,529.85,97.63,511.14,137.28,516.16Z"/><path class="cls-57" d="M366.29,48.19c-5.71-6.85,9.56-42.29,17.06-14.64C384.34,38.44,384.6,65.63,366.29,48.19Z"/><path class="cls-58" d="M366.29,48.19c15.92-.64,28.32,15.4,6.37,21.45C376.34,88.37,361.61,83.6,366.29,48.19Z"/><path class="cls-11" d="M242.06,534.46c7.7-2.46,15.44-4.5,23.52-2.21C258.07,537.06,249.86,533.22,242.06,534.46Z"/><path class="cls-7" d="M21.43,71.16q0,87.74,0,175.47C20.23,182.54,6.44,133.48,21.43,71.16Z"/><path class="cls-26" d="M21.46,283.24C19.7,287,25,292.55,19.73,306.53,19.79,301.64,18.82,294.08,21.46,283.24Z"/><path class="cls-59" d="M17.07,386.62c-2.25,5-15.23,10.38-11.31-8.08C7.51,382,14.94,378.4,17.07,386.62Z"/><path class="cls-60" d="M10.24,345.18c4.46-1.84,3.68-2.74,0,0C5.08,346.92,1.41,329.29,10.24,345.18Z"/><path class="cls-61" d="M17.21,412.53c4.9,12-.08,24.53,1.93,36.68C16.82,433.9,5.88,434.61,17.21,412.53Z"/><path class="cls-62" d="M17.21,412.53c3.49,9.13-19,17.24-10.48-4.71C9.5,407.09,14.11,406,17.21,412.53Z"/><path class="cls-61" d="M17.22,412.44c-2-5-18.79-3.5-1.65-10.47C17.14,403.41,18.26,404.86,17.22,412.44Z"/><path class="cls-25" d="M21.43,71.16C13.29,77,25.86,119.74,8,123.24-5.16,113.82,12.68,3.31,21.43,71.16Z"/><path class="cls-7" d="M21.48,69.11c-1.93-5.43-4-5.83-.08-37.11C22.7,44.37,22.28,56.74,21.48,69.11Z"/><path class="cls-63" d="M4.76,117.78c3.4,1.67,25.07,8.32,2.33,11.4C5.13,127.65,3.62,126.17,4.76,117.78Z"/><path class="cls-64" d="M17.29,513.93c4.86,6-5.53,6.36-12.59-.11Z"/><path class="cls-65" d="M10.65,509.06c1.94,1.45,2.7,1.62,0,0C11,507.58,16.61,506.76,10.65,509.06Z"/><path class="cls-8" d="M366,131.25c5.48-1.47,16.76,13.2.1,13.79C366.09,142.45,366.07,140.46,366,131.25Z"/><path class="cls-66" d="M366.14,393.85c3.69-.34,17.06,9.07-.1,13.81C366.06,405.07,366.07,403.08,366.14,393.85Z"/><path class="cls-67" d="M289.16,520.62c-4.85-.34,9.34-14.13,9,1.74C296.69,523.59,294.84,523.83,289.16,520.62Z"/><path class="cls-68" d="M366.19,382.41c5.06-7.21,6.35,4.82,10.47,2.38C376.39,387.8,366.64,393.28,366.19,382.41Z"/><path class="cls-69" d="M366.26,122.08c7.26-7.67,5.21,6.28,10.37,3.52C374.82,128.72,366.93,128.74,366.26,122.08Z"/><path class="cls-70" d="M379.45,459.29c-1-2.23-13,7.57-9.62-4.1C372.17,454.33,374.19,453.58,379.45,459.29Z"/><path class="cls-71" d="M376.06,411.73c-.53,4.44-5.71,4.07-6.37,8.19C369.25,411.77,369.25,411.77,376.06,411.73Z"/><path class="cls-72" d="M40.18,528.51c4.52-4.92,3-8,0,0C42.3,529.46,27.29,515.23,40.18,528.51Z"/><path class="cls-73" d="M282.75,529.92c3.62-1.72-14-7.56-3.89-12C283.27,519,287.64,521,282.75,529.92Z"/><path class="cls-74" d="M274.18,520.48c-1.73,5-.87,3.19,0,0C279.14,519,279,534.59,274.18,520.48Z"/><path class="cls-75" d="M241.06,529.38c-1.47-4.29-2.18-7.45-5.54-10.32C243.87,520.61,243.87,520.61,241.06,529.38Z"/><path class="cls-4" d="M17.23,110.55c2-10.29,1.18-6.88,0,0C2.93,119,22.87,72.34,17.23,110.55Z"/></g></g></svg>