<svg xmlns="http://www.w3.org/2000/svg" viewBox="0 0 240.82 305"><defs><style>.cls-1{fill:#857360;}.cls-2{fill:#726150;}.cls-3{fill:#5d5040;}.cls-4{fill:#43372b;}.cls-5{fill:#9b8a78;}.cls-6{fill:#fefefe;}</style></defs><title>Asset 4</title><g id="Layer_2" data-name="Layer 2"><g id="Layer_1-2" data-name="Layer 1"><path class="cls-1" d="M34.41,100.4c.61-7-.73-42.59-2.28-14.11-3.65-17.64,7.44-24.85-6.85-28.56C22.07,39.29,21.85,58.31,15,50c-4.48-34.75-8.28-10-3.35,14.81C3,47.72-6.11,86.46,11,89.28c1,2.16,2.85,4.15,3-1.94,3.73,7.16,1-1.6,4-31.93,6,17.24,6.51,30.07,9.87,54.81-.38-8.59,3-8.93,6.33,2.44C35.54,110.47,33.83,107.17,34.41,100.4ZM28,85.66V73.92C26.91,75.76,30.75,80.52,28,85.66Z"/><path class="cls-1" d="M2.31,234.85c-2.24.34-1-15.79-1.27-18.4,2.36,18.17,9.77-15.37,9.7,17,6.28-8.73-1.79,10.74,8.15.6-10.72-8.57-2.35-6.17-4.33-32.42,1,7.95,7.13-7.55,9.91,1.73C52,179.16,1.65,239.79,24,219.76c-4,12-1.71,18.77,2.3.15,4,16.11,12.05-.29,6.39,22.68-2.09-4-6.35,7.79-5.69-4.52-3.67,6.85,1.79,11.39-1.94,19.12-3.24-43.16-4-.05-12.95-5.65C9.06,240.67,11.94,241.29,2.31,234.85Zm15.44,4.41c-3.94,2.3-3.94,2.3-5,5.16C17,242.56,17,242.56,17.75,239.26Zm15.57-8.15c-.37,3.15-.28,2.08,0,0C31.73,230.75,29.91,238.83,33.32,231.11Zm-8.93,2.66c-.3.15-.32.11,0,0C24.53,233.65,23.83,232.64,24.39,233.77Z"/><path class="cls-2" d="M12.62,92.17c1.61-1,.52-3.34,1.46-4.83,3.33,5.44,2.16,1.42,4.11-9.06C28.08,101.79,4,139.2,1.05,151.78-1.26,64.68,6,149.4,12.62,92.17Z"/><path class="cls-3" d="M224,286.45c10.21,1.35,2.92-20.39-1.19-8.06-.17,8.29-53.32,17.3-15.5,21.4C200,283.1,200.4,303.23,223.34,287,220.15,288.45,223.92,282.61,224,286.45Z"/><path class="cls-4" d="M35.58,296.41c-7.46-4.47,11.75-7.19,2.58-8,.91,3.32-34.46-9-11,12.53C29,302,35.28,297.54,35.58,296.41Zm-11.31,3.38-.65-.64C23.8,299.39,23.7,299,24.27,299.79Zm.25-1.86,0,.12c-.67-1.53.31-1.48,1-1.7Zm1-1.6c2.64-.58,1.61-.54,0,0C24,293.5,27.91,286.48,25.53,296.33Z"/><path class="cls-5" d="M221.45,4c-6.73,2.83-42.95-4.69-36.6,3.31C186,7.48,244.64,23.15,221.45,4Z"/><path class="cls-2" d="M34.49,21.38C28.55,31.43,7.83-4.55,6.65,27c3.78,2,5.21-13.61,6.86-6C8.15,29.48,46.63,34.47,34.49,21.38Z"/><path class="cls-1" d="M235.34,269.18c-.72-17.47,4.11-33.45-9.67-20.85C232.83,254.56,220.54,298.43,235.34,269.18Z"/><path class="cls-1" d="M235.34,71.16c.93-9.8-5.65-14.74-10.51-4.82,1.65,22.31,6.07,45.07,5.21,8.12,0,32.35,9,5.68,4-.08C234.57,74.17,235.78,74.08,235.34,71.16Z"/><path class="cls-5" d="M134.54,13.1c-10.78-14.52-42.7-9-24.1,1.76C112.78,13.27,138.77,18.32,134.54,13.1ZM117.47,6.16c.08-.24.12-.38,0,0C117.37,6.38,116.63,5.44,117.47,6.16Z"/><path class="cls-1" d="M6.16,279.35a15.54,15.54,0,0,0-1.7-.52C11.67,277.32,8.14,243.35,1,252,3.89,258.2-5.4,291,6.16,279.35Z"/><path class="cls-1" d="M234,156.22c-3.58-27.35-27.81,22.85-6,15.69,0-2.17,2.11-3.19-1.69-9.37C226.82,154.84,228.92,157.87,234,156.22Z"/><path class="cls-3" d="M232.84,13.87c-6.19-8.49-13.29,3.64-15.79,14.05C222.32,34.52,230.27,21.3,232.84,13.87Z"/><path class="cls-2" d="M134.54,13.1C111.91-1.59,141,7.51,147.58,0,145.94,16.79,169.12,9.74,134.54,13.1Z"/><path class="cls-1" d="M228.2,119.41c-4.8,12.5,5.79,9.22,7.14-.84,2.8-25.84-7.2-31.22-7.13-8.14C232.24,107.15,236.63,116.62,228.2,119.41Z"/><path class="cls-5" d="M44.43,4C33.09,5.14,25.38.5,16.51,8.28c0-2.2,15.84,12.47,6.32,0C26.83,9.38,37.87,11.62,44.43,4Z"/><path class="cls-1" d="M183.94,4c13.75,15.05-34,8.42-12.2,7.12C161.11,6.14,166.4,4.23,183.94,4Zm-7.56,5.46c-.47,2.41-1.6,2.34,0,0C177.32,7.63,171.93,6.92,176.38,9.42Zm2,1c1,.92,1.91.83,3.07,0A2.42,2.42,0,0,0,178.4,10.42Z"/><path class="cls-2" d="M10,218.74c-6.54,2.58-11.5,8.75-7.63-7.9C7.49,212.39,24.77,201.89,10,218.74Z"/><path class="cls-5" d="M233.91,16c-1.58.44-12.21,9.92-6.33,16.82C233,31.22,238.91,26.79,233.91,16Z"/><path class="cls-4" d="M8.36,40.57a130.26,130.26,0,0,1,3.37,25.6C11.68,54.63,1.77,68.29.58,58c2.5-8.35,7.88,4.36,6.87-8.94C6.45,47.61,1.2,38.36,8.36,40.57Z"/><path class="cls-1" d="M.38,155.24c4.51-22.67,20.41-5,3.26,4.19C1.07,158.65-.85,164.53.38,155.24Z"/><path class="cls-1" d="M235.34,186.78c-1,25-14.5-13,0-10.27C236.65,181.72,233.12,184.65,235.34,186.78Zm-2.23,3.08c.09.27.13.41,0,0C233,189.69,232.24,190.61,233.11,189.86Z"/><path class="cls-3" d="M226.49,31.57c.8,6.87,4.25,12.38,8.85,19.07C222,68.24,226,55.26,226.49,31.57Z"/><path class="cls-3" d="M8.36,40.57C-2.74,39,14.92,54.85,4.47,55.82-3.89,50.35,5.66,19.28,8.36,40.57Z"/><path class="cls-2" d="M1,193.63c-2.52-3.87,4.22-32.44,6.27-13.69C6.72,187.48,10.11,190.15,1,193.63Z"/><path class="cls-1" d="M21,8.43C17.21,6.27.48,17.07,22.1,14.67,25.85,13.32,19.92,13,21,8.43Z"/><path class="cls-3" d="M1,195.9c-.74-3.25,5.32-7.1,7-2.93C17.51,193.16,3.31,210.13,1,195.9Z"/><path class="cls-5" d="M155,10.6c-16.8-2.54-5.43-9.37,8.21-6.08C157.63,5.72,163.22,9.18,155,10.6Z"/><path class="cls-3" d="M235.34,206.18c-.14.48.71,13.3-1.58,4.74-6.61-3.78,4.37,5.43-3.81,13.57C233.42,223.11,218.82,202.5,235.34,206.18Z"/><path class="cls-4" d="M12.69,93.29A3.63,3.63,0,0,0,12.52,92C-10.91,116,15.07,109,12.69,93.29Z"/><path class="cls-2" d="M75,4c7.06-1.83,13.08,6.11,2,8.61C75.35,18.87,72,18.5,75,4Z"/><path class="cls-5" d="M46.23,4C44.69,5.57,85,.45,70.57,6.52,68.79,5.75,53,4.17,49,4.79,59.17,5.53,48.91,19.26,46.23,4Z"/><path class="cls-1" d="M96.26,7.6c-.16-.08,0,0-.47-.27C79.83-1.13,73.91,7.63,96.26,7.6Z"/><path class="cls-1" d="M102.11,6.46c-.06.14-.3-.33-.53.28C101.1,7.24,106.34,5.62,102.11,6.46Z"/><path class="cls-2" d="M235.34,46.42c-5.41,1.07-14-8.23,0-12.55C235.33,36.13,235.34,37.25,235.34,46.42Z"/><path class="cls-2" d="M232.84,138c-.79,1,2,9.19,2.5,3.73C235.05,139.05,235.82,140.26,232.84,138Z"/><path class="cls-2" d="M233.63,125.51c-1,1.48-1.42,2.24,0,0C233.6,124.32,229.5,126.44,233.63,125.51Z"/><path class="cls-5" d="M5.63,250.79C1.37,257.23-2,231,2.84,234.71-1.58,246.39,17.59,244.71,5.63,250.79Z"/><path class="cls-3" d="M7.34,171.93c-4.09,10.27-10.6.17-3.59-8C5.62,163.5,7.09,167.36,7.34,171.93Z"/><path class="cls-4" d="M2,201.71c2.19,2.39,5.06,5.13,10.7,4.54C10.79,208-1.17,221.86,2,201.71Z"/><path class="cls-1" d="M233.76,210.93c1,.54,4.67,22-1,19.55A36,36,0,0,1,233.76,210.93Z"/><path class="cls-2" d="M3.17,100.07c-.37,2-.26,3.29,0,0C3.1,99.49-2,102.82,3.17,100.07Z"/><path class="cls-3" d="M235.34,152.94c-.78-9.18,1.75-10.21-6.37-18C232.26,137.58,230.63,151.47,235.34,152.94Z"/><path class="cls-4" d="M227.33,58.91c-.39.23,20.66-16.89,10.91.21C236.28,62.08,225.1,64.61,227.33,58.91Z"/><path class="cls-2" d="M8.25,33.88c-5.93-5.77-.43,4-7.21,2.27-2.23-3,8.73-15.83,8.1-3.39C8.85,33.08,9.14,32.77,8.25,33.88Z"/><path class="cls-5" d="M1.88,84.73C4.31,79.9,3,73.49,1,65.82,1.68,66.07-.29,85.64,1.88,84.73Z"/><path class="cls-1" d="M1,105.76c1.87-1.33,11.12,7.47,3.54,7.92C3.27,111.53.46,111.3,1,105.76Z"/><path class="cls-2" d="M235.34,230.15c-1.26.1,2.68,17.28-1.85,14.75C234.79,241.9,228.07,228.65,235.34,230.15Z"/><path class="cls-3" d="M70.57,6.29c4.2-7.11,7,7.29.46,6.9C67.33,11.78,72.25,11,70.57,6.29Z"/><path class="cls-5" d="M6.45,27C5.37,23.93,3.1,23.34,1,32.73.75,29.61,5.67,29.55,6.45,27Z"/><path class="cls-1" d="M235.34,34.35c-2.4-2.11-6.13,8.82-7.89-1.76C228,33.92,235.74,28.26,235.34,34.35Z"/><path class="cls-3" d="M235.34,176.51c-8.4-1.14-9.6.69,0-8Z"/><path class="cls-3" d="M235.25,95.49c-4.09,1.33-5.2-2.58-1.26-8.62C236.47,85.35,236,87.31,235.25,95.49Z"/><path class="cls-2" d="M230.71,195.91c2.1-3,10.46.06,1,5.69A24.26,24.26,0,0,1,230.71,195.91Z"/><path class="cls-1" d="M4,24.61C4,23.47,6,28,5.72,20.85,5.14,22.09,4.57,23.34,4,24.61Z"/><path class="cls-2" d="M235.24,164c-2.72-2.16-7,13-1.8,8.3C233.52,170.07,236.17,169.37,235.24,164Z"/><path class="cls-2" d="M46.23,4c.91,1.12-.16,7.27-1.83,7.09C43.19,8.53,38.25,4.29,46.23,4Z"/><path class="cls-3" d="M234.34,160c.47,2.69.81,4,0,0C232.72,152.19,227.84,164.69,234.34,160Z"/><path class="cls-3" d="M235.34,105.76c-3.1-2-3.1-4.49,0-8Z"/><path class="cls-3" d="M231.72,201.34c-1.05,1.07-1.74,1.19,0,0C234.06,196.11,239.76,206.54,231.72,201.34Z"/><path class="cls-3" d="M1,161.68c1.09-.91,3.73-5.61,2.67,2.3C3.86,162.56,1.5,166.93,1,161.68Z"/><path class="cls-1" d="M136.24,4a9.44,9.44,0,0,1-9.9,0Z"/><path class="cls-3" d="M235.34,123.07c-.17-.63.1-2.37-1.61-.24C233.64,124.28,233.09,127.39,235.34,123.07Z"/><path class="cls-4" d="M232.82,203.64c-1.21,1-1.95,1.21,0,0C235.29,202.37,237.16,208,232.82,203.64Z"/><path class="cls-5" d="M173.14,4c-.58.25-3.47,4.45-6.3,0Z"/><path class="cls-1" d="M1,164H1C2.65,163.31,5.42,165.21,1,164Z"/><path class="cls-2" d="M234.07,157.21c-1,.56-.65-.23-.48,3.31C234.46,159.57,234.41,160.4,234.07,157.21Z"/><path class="cls-1" d="M124.54,4c-.8,2.05.23.82-4.56,1C120.91,3,119.82,4.29,124.54,4Z"/><path class="cls-1" d="M166.84,4c-.53,1.77.26.79-3.6,1.08C163.79,3.16,163,4.2,166.84,4Z"/><path class="cls-2" d="M235.34,186.78c-.47-.28,0,0-1.35-.88C233.25,185.93,235.77,182.45,235.34,186.78Z"/><path class="cls-5" d="M146.14,4c-.6,1.25-1.2,1-1.8,0Z"/><path class="cls-3" d="M235.34,75l-1.18-.57C234.18,74.78,235.52,72.67,235.34,75Z"/><path class="cls-5" d="M181.24,4c-.3.84-.6.82-.9,0Z"/><path class="cls-4" d="M109.68,295.54c4,5.73,36.46,9.11,37.37,2.89-6.11-12.42-.68,3.82-10-10-25.31-.13,7.18,14.57-30.46,2.1-10.94,18.84,9.08-6.8-54,10.22C70.28,299.77,94.11,304.45,109.68,295.54ZM86.6,298.11c.92-.73.87-1.5,0,0C85.72,298.79,84.31,293.36,86.6,298.11Z"/><path class="cls-4" d="M219.54,297.57c-1.36-15.79,2.86-6-13.93-2.27C207,299.07,213.13,306.34,219.54,297.57Z"/><path class="cls-2" d="M64.2,298.49c-10.73,4.84-22.19.39,1.83-8,9.37,6.45,5,10.16-6.24,8Z"/><path class="cls-3" d="M148.82,300.77c-6.5-9.73-.84-6.5-9.6-8C136.18,283.27,171,300.44,148.82,300.77Z"/><path class="cls-4" d="M198.3,291.9c-3.42,2.06-8.38,1.8,1.8,8.79C181.77,308,186.66,281.48,198.3,291.9Z"/><path class="cls-4" d="M49.79,300.73c-5.67,3.18-17.46-5.36-1-7.91C46.22,292.9,44.27,296.34,49.79,300.73Z"/><path class="cls-4" d="M150.68,300.72c4.46.75,8.66-10.45,14.28-3C165.14,303.62,157.88,299.63,150.68,300.72Z"/><path class="cls-3" d="M49.79,300.73c-1.06.18-6.79-8.34-.81-7.77C53,295.54,62.87,291.8,49.79,300.73Z"/><path class="cls-2" d="M188.41,296.61c1.26,3.24-5.62,8.31-6.35,1.26C183.19,297.13,184,296.41,188.41,296.61Z"/><path class="cls-4" d="M182.36,299.77c.1,8.34-5.26,5.53-15.28-.23C168.47,299.57,167.27,299.31,182.36,299.77Z"/><path class="cls-2" d="M39.74,297.52h0C42.53,300.46,35.49,304.21,39.74,297.52Z"/><path class="cls-3" d="M167.08,299.54c-.21,1.08.4,1.39-1.82,1.17C165.23,298.86,164.55,295.8,167.08,299.54Z"/><path class="cls-3" d="M36.14,297.3h0C37.27,297.91,34.71,303.18,36.14,297.3Z"/><path class="cls-4" d="M33.76,299.78c.12.81,1.74-1.85,2.55,1C35.76,300.82,35.23,301.05,33.76,299.78Z"/><path class="cls-3" d="M38.14,300.78h0C37.87,300.15,39.54,300.83,38.14,300.78Z"/><path class="cls-4" d="M25.64,54.48l-.18,3.25C22,32.82,17.68,73.91,16.54,35l0,0C28.66,49.2,8.63,36,47.14,41.87c-17,4.93-.19,2.67,13.34,6.44C48.08,53.53,23.89,34.06,25.64,54.48Z"/><path class="cls-3" d="M28.29,110.36c-3-17.58,19.22,6.47-.73,19.82,2.43,5.75,9.66,18.66-4.66,4.12-16.37-3.79,5.6-1.63,1.47-6.19-3.05-1.39,5.31-22.57,4.89-3.4C33.83,117.42,31.59,122.11,28.29,110.36Z"/><path class="cls-2" d="M28.16,110.22c-13,41.21-3.1-7.79-5.23-35.2C28.58,74.74,23.37,99.11,28.16,110.22Z"/><path class="cls-2" d="M25.64,54.48C22.4,54.1,40.57,21.07,36,68,32.54,63.18,30.08,61.15,25.64,54.48Z"/><path class="cls-3" d="M35.37,109.08c-2.11-9.08-.23-22-.76-36.31C37.57,77.32,36.05,97.9,35.37,109.08Z"/><path class="cls-5" d="M22.92,75c.47,11.07,2.7,23.06-4.55,3.26C18.45,75.46,22,63,22.92,75Z"/><path class="cls-3" d="M20,72.54c.4,5.6-4.39,4.41-2.6,13.74C14.07,85.13,13.42,64.22,20,72.54Z"/><path class="cls-5" d="M36,72.76c-3.86,0-3,1.16-3.66,13.53C30.26,82.88,33,54.11,36,72.76Z"/><path class="cls-5" d="M35.37,109.08c1.81,2.08.78,8.63.57,16.27C35.25,125.2,32.69,124.34,35.37,109.08Z"/><path class="cls-3" d="M17.53,43c-.88,1.75,0,14.94-2.87,4C14.69,43.75,13.61,37.82,17.53,43Z"/><path class="cls-4" d="M9.33,32.76C8.15,27.92,12.7,16,12.09,33.91,11.49,33.89,11.06,33.5,9.33,32.76Z"/><path class="cls-4" d="M13.83,28.26c2.33-.2,3.61,1.53,2.68,6.76C14.49,35.77,13.1,36.9,13.83,28.26Z"/><path class="cls-4" d="M20,72.54c-1.69-4.32-.5-8.23-1.68-17.13C20.18,59.36,21.15,65.11,20,72.54Z"/><path class="cls-2" d="M13.87,36.05C16.17,31.1,19,44.36,16,42,14.83,40.35,12.37,40.42,13.87,36.05Z"/><path class="cls-3" d="M28,73.92c-1,1.84,2.8,6.6,0,11.74Z"/><path class="cls-2" d="M13.83,29.29h0C14.72,29.1,12.27,40.35,13.83,29.29Z"/><path class="cls-4" d="M8.43,33.88c.31-.39.61-.78.92-1.16C9.67,32.56,8.16,41.41,8.43,33.88Z"/><path class="cls-2" d="M23.69,251.79l1.51,5.4c3-5.11-1.71-9.87,1.95-19.12-3.92,2.24,22,11.47-2.56,21.76l0,0c-15.33,3.07,1-42.06-1-12.47C23.78,247.56,18.56,251.08,23.69,251.79Zm-3,2h0C20.71,253.34,18.53,253.44,20.69,253.8Z"/><path class="cls-2" d="M12.06,206.1c-9.16.38-13.85-4.48-.59-7,0-2.3-4.3-15.06,1.47-14.64,3.6,1.46,7.28,17.3,1.28,7.3C13.58,196.08,19.06,195.77,12.06,206.1Z"/><path class="cls-3" d="M14.74,201.62c13.1-11.13,31.12-32.57,9.91,1.73C23,194.66,16,209,14.74,201.62Z"/><path class="cls-2" d="M25.52,213c7.4.49,6.65-28.81,10.36,4.58C32.54,212.17,24.11,226.71,25.52,213Z"/><path class="cls-3" d="M26.44,219.91c6-6.7,13.65-3,8.16,12.58C33,221.34,32.14,238.53,26.44,219.91Z"/><path class="cls-3" d="M5.81,250.79c8.28-11,8.94,9.7,2.6,18.18C7.81,265.18,7.7,259.22,5.81,250.79Z"/><path class="cls-4" d="M35.85,211.86c-.81-1-5-8.93.09-30.56C35.92,188.5,35.89,200.24,35.85,211.86Z"/><path class="cls-3" d="M10.23,246.09C-.61,244.35.71,227,9.4,240.62,10.21,237.51,12,238.94,10.23,246.09Z"/><path class="cls-5" d="M12,263.24c-4.37-3.14,8.88-23.76,5.4-8C16.23,256.42,16.75,264.41,12,263.24Z"/><path class="cls-4" d="M34.6,232.49c1.65,3,2.94,16.8-.14,22.78C34.64,251.82,33.83,251.67,34.6,232.49Z"/><path class="cls-2" d="M23.53,218.86c-1.13,2.57-11.07,9.86-4.69-.43C20,218.55,24.37,213.62,23.53,218.86Z"/><path class="cls-2" d="M34.46,182.32c-1.25,2.28,2.77,6.78-1.83,15.85C29.55,194.83,33.61,190.28,34.46,182.32Z"/><path class="cls-5" d="M13.13,228c3.79-.48,2.16,6.22,5.94,6.06-1,.92-1.51,1.72-5.24,3C14.05,235.11,13.36,234.6,13.13,228Z"/><path class="cls-3" d="M13.13,228c-.28,2.4.55,1.64-2.21,5.46C10.08,229,12.09,207.12,13.13,228Z"/><path class="cls-5" d="M13.26,223.09c-.68-3.37-2.25-4.34,2.32-11.28C17.81,213.23,14.8,217.73,13.26,223.09Z"/><path class="cls-3" d="M23.53,218.86c.16-7.53,4.72-4.7,2,7.79C24.8,223.83,23.24,225.62,23.53,218.86Z"/><path class="cls-3" d="M17.75,239.26c-.74,3.3-.74,3.3-5,5.16C13.81,241.56,13.81,241.56,17.75,239.26Z"/><path class="cls-2" d="M23.72,226.72c1.63,1.58-3.57,7.42-2.86,1.5C21.16,227.84,21.31,228.36,23.72,226.72Z"/><path class="cls-2" d="M33.32,231.11c-1.93,1.8-2.16,2.53,0,0C33.68,231.68,31.61,240.27,33.32,231.11Z"/><path class="cls-3" d="M23.69,251.79c.32-.75-2.91,1.45-1.66-3C23.72,247.76,23.9,246.1,23.69,251.79Z"/><path class="cls-2" d="M23.87,224.33c-.1-1.07,3.39,3.65-.15,2.4Z"/><path class="cls-5" d="M13.81,237h0C13.84,237.68,12.59,239.22,13.81,237Z"/><path class="cls-2" d="M24.39,233.77c-.05-.35-.13-.48,0,0C24.35,234,23.48,233.66,24.39,233.77Z"/><path class="cls-5" d="M18.36,121.72c-.58,1.35,1.56,2.55,1.37,5.11,11.41,5.21-.21.93-6.93,5.1.29,2,8.34,7.57.91,8.75C-5.57,155.1,13.09,118.48,18.36,121.72Z"/><path class="cls-1" d="M18.36,121.72c-3.41,2-4.94-15,.1-12.65C23.59,110.83,21.59,115.83,18.36,121.72Z"/><path class="cls-1" d="M22,90.8c2.24-3.19,4.32,14.33.12,17.16C22.78,104.9,20.49,97.11,22,90.8Z"/><path class="cls-3" d="M14.6,123c-.42,9.52-9.13,7.49-3.47-4C12.39,119.17,11.26,124,14.6,123Z"/><path class="cls-4" d="M21.22,92c.19,3.32,2.65,12.24-.25,18.49C19.16,106.41,19.93,100.9,21.22,92Z"/><path class="cls-3" d="M7.42,113.68c.35,2.07.26-14.1,3.2-5.55C10.46,109.67,10,111,7.42,113.68Z"/><path class="cls-3" d="M18.36,78.3c2.28.25,2.78,2,2.44,4.54C16.64,84.22,19,80,18.36,78.3Z"/><path class="cls-2" d="M226.33,212.89c-5.5,9.63,3.3,93.91-13.61,63.49-3.7,8.2-5.57-1.77-11.55-2.34,0,6-14.9,11.75-16.37,1.45-4.49,7.85,1.55,10-17.9.43,12.87,5,30.59-16.65,41.86-3.1,1.38-27.65,5.72,7.82,13.2-3.83-15.93-23.45,6.17-15-21-42.25,2.75-.49,5.79-23.53,1-9.25-.89,2.14-1.19,6.4-1.27-2.09.46-1.74-1.59-8.89,1.26-11.45,8.41,11.43,4.13-22.56,10.77-6.86C201.84,229.57,217.11,196.9,226.33,212.89Zm-13.89,19.72c-.29-.21,5.39-14.25,1-13.85C213.39,221.87,209.93,226.61,212.44,232.61Zm-1.39-12.08c-.32-2.53-1-3.52,0,0C213.09,204.86,199.33,228.06,211.05,220.53Zm3.09,14.8c.55.28.67.54,0,0C213.8,235.34,214.11,237.9,214.14,235.33Zm-7.12-9h0C206.91,226.18,206.09,227.16,207,226.35Z"/><path class="cls-1" d="M196.51,289.54c-7-2-.59-7.51,16.14-4.49C211.83,285,200,293.56,196.51,289.54Z"/><path class="cls-4" d="M212.65,285.05c-1.92.44-3.25-1.46.07-8.67C210.94,280.47,222,287.77,212.65,285.05Z"/><path class="cls-2" d="M205.67,293c-1.48-1-1-.63,0,0C207.38,297.69,198.83,293.56,205.67,293Z"/><path class="cls-1" d="M223.34,287c.1-.27.42,0,.9-1.18C225.8,283.93,219.79,285.78,223.34,287Z"/><path class="cls-4" d="M215.46,290.62l-.38-.24A2,2,0,0,0,215.46,290.62Z"/><path class="cls-3" d="M49,285.07c18.33-2.94-19.8-7.09-3.14-.94-4.26,3.41-16.7-14.66-11.41-29-12.6,13.79-19-14.94-20.62,19.48C10.19,282,26.57,264.36,26.06,281c-1.67-1.21-8.28,4.83-1.08,5.49,23-10.24-12.62,7.67,19.94,1.64,1,2.15-16.33,1.33-8.89,8.14C37.93,296.85,65.59,289.56,49,285.07ZM21.5,263.49h0C20.62,264.55,19.58,261.13,21.5,263.49Zm7.82,12.21c-2.19,1.39-2.18-8.17,2.37-2.12C31.57,274.51,31.5,275.35,29.32,275.7Z"/><path class="cls-2" d="M13.41,277c-.5-11.51-.89-13.67-8.77,1.84C6.9,279.71,8.11,278.46,13.41,277Z"/><path class="cls-2" d="M20.07,276c3.69,3.61.35-8.15-3.35.31A29,29,0,0,1,20.07,276Z"/><path class="cls-1" d="M28.32,287.08c-4-4,7.42-8.3,4.42-.7C32.08,286.08,32,287.34,28.32,287.08Z"/><path class="cls-2" d="M25.53,296.35c-1.52-2.83,2.38-9.89,2.61-.61A10.53,10.53,0,0,0,25.53,296.35Z"/><path class="cls-2" d="M38.16,288.42c-1-1.59,5-4.6,5.5.92C43.13,291.22,42.45,287.93,38.16,288.42Z"/><path class="cls-6" d="M24.52,297.93h0C24.33,298.36,24.45,301.22,24.52,297.93Z"/><path class="cls-2" d="M24.52,297.93v.13C23,297.57,27,295,24.52,297.93Z"/><path class="cls-2" d="M34.37,295.21l1.21,1.2Z"/><path class="cls-2" d="M24.3,299.72l0,.07-.65-.64Z"/><path class="cls-4" d="M197.45,12.28c2.12-.36,2.52,2.13-1.32,4.42,3.11,1.37,26.31-5.35,18.49,2.3C213.38,19.51,177.61,22.48,197.45,12.28Z"/><path class="cls-2" d="M179.42,13.37c8.38,2.21,9.39-18.46,11.65,2.19C187.44,12.5,182.49,23.85,179.42,13.37Z"/><path class="cls-2" d="M210.05,14.49c-1.76,4.51-7.31,1.3-13.92,2.21C197.94,13.27,204.88,8.94,210.05,14.49Z"/><path class="cls-1" d="M191.16,15.12c-3.11-6,2.84-10.81,6.33-4.82C197.21,13.76,196.5,13.92,191.16,15.12Z"/><path class="cls-1" d="M216.58,18.64c-1-3.59,6.87-11.89,5-.74C219.32,14.36,218.64,21,216.58,18.64Z"/><path class="cls-1" d="M228.91,11.12l-1.8-.17C227.58,10.09,227.59,8.32,228.91,11.12Z"/><path class="cls-1" d="M47.14,41.87c-2.57.11-19.43-5.54-8-8.58,2.19.69,13.33,12.12,12.45-.39,2.81-5.92-21.44,5-13.31-9.39-2.52,2.28-8.22-3.38,1-2.13,12.22-1.53,4.69,7.48,22.53,2,1.47-3.77-10.08.13-1.65-4.69-4.39,2-35.66-5.53-28.5-10.79C30.34,5.25,62,21,51.54,10.74c16.4-11.4,19.85-4,21,11.92,11.77,1.56,16.31-6.3,29.51,12.41C99.16,45.6,80,20.7,56.11,31.62,51.71,36.26,68.09,37.82,47.14,41.87Zm49.45-8c1,.28,2,1.56,2.9,0Zm-2,1.33c-.25.12-.29.08,0,0C94.92,35,94.11,34.24,94.59,35.24Z"/><path class="cls-3" d="M16.51,35c3.14-.41-8.28-20.46,12.6-2.4C37.48,42,22.49,42.61,16.51,35Z"/><path class="cls-4" d="M31.87,38.46c.62-3.12-1.24-4.35-2.76-5.84,5.55-7.1,5.45-3.26,12.43-1.34C57.7,33,39.12,29.64,31.87,38.46Z"/><path class="cls-5" d="M56.94,20.44c-.35,2.78-12.89,1.47-28.71-.16C39,19.93,36.4,18,56.94,20.44Z"/><path class="cls-1" d="M28.23,20.28c8.84,1.58,1.53,6-6.3-1.22A10.11,10.11,0,0,1,28.23,20.28Z"/><path class="cls-4" d="M23.67,18.94c-12.41-2.3,14.49-9.85,4.6-4.4C27,14.91,24.75,15,23.67,18.94Z"/><path class="cls-1" d="M8.7,15.17c.46,2.51.34,1.66,0,0C6.56,15,7.67,24.72,8.7,15.17Z"/><path class="cls-1" d="M12,25.87c-2.48-.55.29-12.41,1.48-4.87C12.6,21.85,14.82,22.57,12,25.87Z"/><path class="cls-3" d="M12,25.87h0C11.87,24.38,16.45,29.44,12,25.87Z"/><path class="cls-1" d="M9.39,25.79c-.33,1.39.93,3.19-2.58,2.5C7,26.48,6.29,27.12,9.39,25.79Z"/><path class="cls-1" d="M6.64,27a2.3,2.3,0,0,1-.93-2.24h0C6.54,25,6.81,24.27,6.64,27Z"/><path class="cls-5" d="M6.63,24.76c-.37-.2-1.22.52-.9-1.31Z"/><path class="cls-3" d="M31.87,29.38,31,30.52Z"/><path class="cls-2" d="M225.59,248.33c2.64,2.79,4.37,8.06,2.38,15C227.92,263.52,223.73,263.7,225.59,248.33Z"/><path class="cls-3" d="M231.63,239.33c7.18,7.56-14.33,9.9,0-3.28C231.64,237.14,231.64,238.23,231.63,239.33Z"/><path class="cls-3" d="M226.22,263.19c3.37-1.66.6,15.13-2.65,3.52C224.29,266,221.7,262.44,226.22,263.19Z"/><path class="cls-4" d="M227.11,240.51c.37-.42-6.16,29.65-3.85,12.14C224.37,250.91,222.86,241.74,227.11,240.51Z"/><path class="cls-5" d="M224.69,73.41c9.69,20.28-17.87,40.2-4,4.65C225.81,90.87,219.94,98.64,224.69,73.41Z"/><path class="cls-3" d="M224.51,94.31c1-9.25,6-11.13,3.51,5.7C226.05,99.86,228.32,95.51,224.51,94.31Z"/><path class="cls-4" d="M224.79,73.89c-2.41,11.32-4.08-33.52,2.25-14.78C222.83,60.51,225.27,62.33,224.79,73.89Z"/><path class="cls-4" d="M231,91.88c-1.29,8.07-1.57-4.24-1-17.4C231.51,80.22,230.59,86.1,231,91.88Z"/><path class="cls-3" d="M224.8,65c-1.24-.56,1.82-9.34,2.35-3.73C227.16,62.48,227.29,63.62,224.8,65Z"/><path class="cls-2" d="M229.46,95.46h0C234.62,94.9,226,106.92,229.46,95.46Z"/><path class="cls-2" d="M124,20.42c-6.12-3.9-11-2.85-15.22,6.29-18.24-15,16.92-21.84-13-19.09C75,2.6,94.24,11.82,76,16.71c4.17,4.67,6.18,11.55,10.18,4.49,16.42.09,1.36,3.46,28.5,12.67C83.71,42.08,125.58,57.23,124,20.42Zm-8.66,15.65c-.63.12-.26.35-.7-2.19A1.92,1.92,0,0,1,115.34,36.07Z"/><path class="cls-4" d="M115.4,46.47c11-13.57,15.38-25.91-2.52-29.76,36.09,2.25,7,10.84,14.43,20.65C129.53,50,142.18,50.33,115.4,46.47Zm13.66-20.79c.38-1.14,1.25-1.29-1-2.44C127.52,24.2,126.54,24.75,129.06,25.68Zm-4.58,16.23c-.84.88-1.19.91,0,0C124.84,41.27,120.65,40.14,124.48,41.91Z"/><path class="cls-3" d="M131.62,28.28c-1.12-3.42,4.79-18.9,6.75-8.07-8.85,8.15-4.19,10.05,8.66,15.92C154.83,43.52,131.05,41.2,131.62,28.28Z"/><path class="cls-4" d="M138.76,16.64c-11.6-2.88,13.07-8.61,16.38-1C150,15.29,147.34,18.31,138.76,16.64Z"/><path class="cls-2" d="M132.63,18c1.37,8.06-14-.69-6.42-5.24C129.38,13.93,132.35,10.64,132.63,18Z"/><path class="cls-1" d="M107.41,24.72c-3.12-3.34-10.42-21,2.67-5.75C108.47,20.29,108,19.45,107.41,24.72Z"/><path class="cls-3" d="M107.41,24.72c2.41-4.61-1.83-14.24,5.47-8C109.53,16.51,113,32.62,107.41,24.72Z"/><path class="cls-2" d="M135.31,14.5l1.81,2.27C137.49,17,133,20.33,135.31,14.5Z"/><path class="cls-3" d="M120,5.22c2.24.87,1.48.66,0,0C118.79,4.73,128.35,5.83,120,5.22Z"/><path class="cls-1" d="M117.59,5.78c-.25-.15-.38-.14,0,0C117.72,6,117,6.63,117.59,5.78Z"/><path class="cls-4" d="M219.8,162.93c-2.71,12-2,10.66-8.85-.93-2.4.11-8.42,7-9.91-.31-.39-3.5-1.59-46.67,1.92-31C200.63,132.91,208,164.71,219.8,162.93Zm-17-18.36c.1,0-.1.37.37.47C203,144.47,201.6,141.69,202.84,144.57Z"/><path class="cls-2" d="M229.9,138.06c10.25,13.66-11.77,15.4-12.75,4.68C220.09,141.42,231.23,149.59,229.9,138.06Z"/><path class="cls-2" d="M216.41,171.88c10.48-2.54,14.72,5-.73,5.12C213.08,186.64,208.26,176.44,216.41,171.88Z"/><path class="cls-3" d="M222.73,149.56c3.63-2.85.07,18.88-8.25,11.5A59.1,59.1,0,0,1,222.73,149.56Z"/><path class="cls-5" d="M231.81,157.14c2.62,2.62-5.7,13.91-4.87,2.81C228.29,157.58,227.8,154.39,231.81,157.14Z"/><path class="cls-4" d="M227.93,165.06c3-5.29,7.53,7,.06,6.86C228.31,170.56,228.93,169.41,227.93,165.06Z"/><path class="cls-4" d="M225.31,176.51c.05-5,6.08-5.17,1.85,2.3Z"/><path class="cls-2" d="M223.56,53.34c-1.67,2.16,2,42.88-5.9,4.71-7.66,35.65,9.93,2.12-4.4,38.32-1.17,10.2,25.76-19.76,9.45,20.75,1.79-6.07.87-26.72-5-6.43.58-.61-5.66-12.34-1.36-3.74-17.07,24.36-7-55-7.63-20.45,3.95,4.41,4.86-2,6.17-26.6-.83,10.28-10.24-9.9-4-4.1C222.63,44.05,225.15,2.92,223.56,53.34Z"/><path class="cls-1" d="M220.88,30.41c.09,3.95-7.79,2.54-9-5.57C212.05,20.9,215.68,23,220.88,30.41Z"/><path class="cls-2" d="M217.34,24.75c-7.13-2.35-4.37-7,4.42-6.84C221.67,20.2,220.5,22.63,217.34,24.75Z"/><path class="cls-4" d="M223.57,52c0-6.25.79-13.55.83-23.88C227.29,30.28,226.38,46.36,223.57,52Z"/><path class="cls-3" d="M155.14,15.61c.05-1.36.07-6.67,4.51-4.55v0C161.81,12.55,164.71,21,155.14,15.61Z"/><path class="cls-1" d="M157.05,10.71c-.37-.06-.33.55-2,.13C155.4,10,155.68,6.26,157.05,10.71Z"/><path class="cls-5" d="M229.9,137.69c-1.5-2.31-8.36-21.53-7.15-1.62C221.1,140.74,230.62,150.84,229.9,137.69Z"/><path class="cls-3" d="M226.18,128.48c-.88.4-7.56.28,1-20.58C227.31,108.34,230.25,112.51,226.18,128.48Z"/><path class="cls-5" d="M228.11,119.41c-2.5-2.83,2.58-15.76,4.4-7.91C232.47,114.07,233.43,119.29,228.11,119.41Z"/><path class="cls-1" d="M29.19,12.28c-2.55-3.07-1.77-1.91,0,0C29.38,15.74,18.09,5.41,29.19,12.28Z"/><path class="cls-3" d="M44.4,11.28c-.86-1.87-.58-1.24,0,0C45.13,11.83,38.85,8.57,44.4,11.28Z"/><path class="cls-3" d="M179.42,13.37c2.83,3.23.07,7.43-15.26,1.14C169.2,13.16,174.35,14.11,179.42,13.37Z"/><path class="cls-2" d="M162.34,14.47c-6.3-2.67.83-8.13,9-3.46C166.49,10.32,167.31,12.49,162.34,14.47Z"/><path class="cls-3" d="M165.78,7.55c-.7-1-4.87,4.59-6.3,2.3C159.54,7.18,163.89,2.77,165.78,7.55Z"/><path class="cls-2" d="M176.39,9.42c-.1-1.49-.84-1.61,0,0C176.69,11.6,171,12.38,176.39,9.42Z"/><path class="cls-4" d="M165.9,6.44c2.3.29,1.51.06,0,0C158.59,5.47,172.4,3.86,165.9,6.44Z"/><path class="cls-2" d="M178.4,10.42a2.42,2.42,0,0,1,3.07,0C180.31,11.25,179.39,11.34,178.4,10.42Z"/><path class="cls-2" d="M171.37,11l.37.31C171.71,11.21,171.53,11.38,171.37,11Z"/><path class="cls-3" d="M11.1,156C7,142.65,21,152.44,21,158.06c-5.33,10.22-4.51,5.24,9,4.69C33.86,178.23,14.18,175.91,11.1,156Z"/><path class="cls-5" d="M11.1,156c5.23,3.91-6.7,16.88-7.29,3.44C5,158.18,5.57,156.81,11.1,156Z"/><path class="cls-4" d="M14.72,146.63c-3.26,2.63-1.28,2.51-6.17-3C9.87,143,20.38,137.08,14.72,146.63Z"/><path class="cls-3" d="M225.31,176.51c6.77,16.51,5.12,24.67-7.16,0C220.54,177.54,222.92,175.92,225.31,176.51Z"/><path class="cls-5" d="M227.31,194.18c4.66-.5,4.4,11.1.67,12.24C223.72,206.23,227,207.1,227.31,194.18Z"/><path class="cls-2" d="M229.14,184.51c0-.5-5.27-5.37.67-8A69.34,69.34,0,0,1,229.14,184.51Z"/><path class="cls-2" d="M233.11,189.86c-.24,0-.29.09,0,0C233.47,190,232.76,191,233.11,189.86Z"/><path class="cls-2" d="M224.43,52.2c1.79-18.78,4.62-6.94,0,1C224.46,52.9,224.45,52.55,224.43,52.2Z"/><path class="cls-1" d="M232.66,52.13c.18,2.61-.71,4.21-2.75,4.74C227.44,52.13,230,52,232.66,52.13Z"/><path class="cls-1" d="M4.82,33.84h0C4.79,33.52,6.75,28.74,4.82,33.84Z"/><path class="cls-4" d="M11.15,183.39c-.28,1.36,1.38,5.61-2.76,9.13h0C5.61,188.92,7.81,155.83,11.15,183.39Z"/><path class="cls-2" d="M8.39,192.52l-.2.45c.07-.15.14-.3.2-.45Z"/><path class="cls-2" d="M162.35,5.37c-.08,2.36-1.43,2.25-2.72,2.24C159.73,5.28,161,5.32,162.35,5.37Z"/><path class="cls-1" d="M159.48,9.84c.06.41,0,0,.17,1.22C159.37,10.81,158,11.14,159.48,9.84Z"/><path class="cls-1" d="M227.11,240.51c-8,5.19,0-49.72,2.75-16l0-.05c-1.47,1.16-.77,3-.92,4.61l0-.05c-1.54,2.19-2.23,4.8.88,4.58v0C228.14,234.1,233.59,237,227.11,240.51Zm.3-21.17c-.5.41-.73.4,0,0C227.55,219,225.17,218.57,227.41,219.34Z"/><path class="cls-4" d="M227.08,199.37c-1.35.78,1.49,17.28-.91,11C227.85,206.92,198.49,209.53,227.08,199.37Z"/><path class="cls-5" d="M229.86,233.58c-1.58-.61-1.24.53-.88-4.58.57-.7,1.05-1.31.9-4.56l0,.05C231.62,223.72,233.78,225.4,229.86,233.58Z"/><path class="cls-1" d="M229.93,205.06c.57,0,.86.06,0,0C225.34,203.64,234.9,201.81,229.93,205.06Z"/><path class="cls-2" d="M231.63,210.77c0-.77-.08-1.16,0,0C231.43,212.38,228.62,212.79,231.63,210.77Z"/><path class="cls-4" d="M231.63,210.77c.2-1.37-.25-1.7,2,.15C233.13,211.87,233.68,212.09,231.63,210.77Z"/><path class="cls-5" d="M3.35,100.07c.86-.5-2.82,3.93,2.33,3.06C6.59,101.91,10.31,95.74,3.35,100.07Z"/><path class="cls-3" d="M84,12c5.17.67-10.42,9.42-7,.8C78.91,10.91,79.41,12.34,84,12Z"/><path class="cls-3" d="M75.9,16.78c-.52,2.87,1.54,3.21,2.69,4.44C76.51,21.5,62,21,75.9,16.78Z"/><path class="cls-1" d="M84,12c.55-2.49.31-1.49,0,0C81.12,14.63,83,4.93,84,12Z"/><path class="cls-3" d="M61.51,5.63c-3.75,5-4.1,1.57-12.55,0Z"/><path class="cls-3" d="M51.53,10.74c5.45,1.17-2.94,2.74-7.2,3.08C45.12,8.82,45.91,9.54,51.53,10.74Z"/><path class="cls-5" d="M232.56,35.1h0C232.49,34.37,232.53,31.47,232.56,35.1Z"/><path class="cls-2" d="M6.58,165.27c.2-1.77,11.36-5.94,5.45,3.18C11.09,168.23,8.4,169.4,6.58,165.27Z"/><path class="cls-5" d="M6.64,166.29c1.3,1.18,9.46,2.84,3.58,8C9.59,172.6,7.25,174.86,6.64,166.29Z"/><path class="cls-1" d="M229.86,233.58c1.72-9.52,4.9,13.22,0,0Z"/><path class="cls-3" d="M71.37,298.5C72.28,293,69,292,66,290.64c14.13-2.1-8.16-2-3.86-6.87.52-1.43,22.36,7.7,11.11-5.63-1.52-1.14,10,3.11,7.14-2.35,7.86,3.27,1.34,5.88-1.47,11.64C92.16,294.87,81.31,291.2,71.37,298.5Z"/><path class="cls-3" d="M106.63,290.51c-8.23,15-3.19,6.26-13.38-7.92-.09-1.21-12.24,0-6.75-5.13C88.4,275.3,106.43,280,106.63,290.51Z"/><path class="cls-2" d="M137.09,288.41c-1.53,2.29-13.91-2.88-2.28-2.09-3-6.87-5.37-8-9.27-15.17C127.51,272.42,155.91,275.1,137.09,288.41Z"/><path class="cls-2" d="M94.8,284.29c12.12,17.52-8.82,12.09-15.29.64C84.42,281.12,84.67,290.7,94.8,284.29ZM90,291.07c-.7.51-1,.54,0,0C90.59,290.28,87.65,289.87,90,291.07Z"/><path class="cls-1" d="M130,286c1.6,8.52-34.27,4.1-17.16-.66C124.45,274,104,290,130,286Zm-4.88,2h0C125,287.84,124.23,288.74,125.09,288Z"/><path class="cls-2" d="M120.19,290.6c1.6-3.65,14.84,8-2.83,2.26C117.47,290.43,118.94,290.73,120.19,290.6Z"/><path class="cls-3" d="M117.38,292.89c.28-.54,12.12,2.64,4.1,3.66C120.07,297.28,117.84,297.74,117.38,292.89Z"/><path class="cls-1" d="M137.09,288.41c3.86-6.21,2-1,11.76,1.17C146.71,288.65,146.46,291.52,137.09,288.41Z"/><path class="cls-3" d="M120.19,290.6c-2-1.35-1.77,5.38-6.44,1.14C114.88,290.8,115.67,289.4,120.19,290.6Z"/><path class="cls-3" d="M86.23,295.37c-1.14.68-.88,1.45,0,0C87,294.53,88.67,300.1,86.23,295.37Z"/><path class="cls-2" d="M145.31,293c-2.67,1.12-3.2-2.85.77.09A2,2,0,0,0,145.31,293Z"/><path class="cls-2" d="M134.41,289.48c-.89,1.65-1.76,3.64-2.76.1Z"/><path class="cls-1" d="M134.41,289.48c.52-.12.77-.23,0,0C132.81,290.12,128.94,287.27,134.41,289.48Z"/><path class="cls-3" d="M113.75,292.94h0C113.55,293.57,111.37,293.7,113.75,292.94Z"/><path class="cls-1" d="M60.65,286c15.54.49,11,7.87-11.67,6.93C59.72,295.84,48.83,284.79,60.65,286Z"/><path class="cls-4" d="M64.2,298.49H59.79C60.64,298,61.45,297,64.2,298.49Z"/><path class="cls-2" d="M148.85,289.68c-18.5-6.6,3.09-1.32,6.27-11.52,2.07,3.81,5.66,13.08-5,10.34C167.15,295.18,150.83,302.4,148.85,289.68Z"/><path class="cls-1" d="M148.83,291.76c2.4.24.59,2.25.88,3.37C148.64,294.33,148.83,293,148.83,291.76Z"/><path class="cls-4" d="M145.31,293a2,2,0,0,1,.77.09C145.78,293.62,145.52,293.61,145.31,293Z"/><path class="cls-1" d="M156.94,286.05c0-2.89.47-5.95-1.82-8,10.2-2.92,18.06,1.39,28.25,5.11-4.45-9.78,10.68-6.54,9.55,4.09l.05-.08c-.91,4.62-30.38,8.68-18.77.31,2.22-4.51-11.51-.85-.67-5.77C167.76,278.61,162.33,281.07,156.94,286.05Z"/><path class="cls-3" d="M179.42,292.77c4.18-.67,18.26,2.19-.83,5.78.11-1.5-.94-2.74,1.88-2.65C180,295.57,179.11,295.43,179.42,292.77Z"/><path class="cls-2" d="M188.42,293.93c-6-1.3-6.63-4.06,2.75-4.42C190.92,290.66,190.71,291.64,188.42,293.93Z"/><path class="cls-3" d="M196.51,289.54c.81.42.91,1.3.92,2.24C196.65,291.34,196.54,290.47,196.51,289.54Z"/><path class="cls-3" d="M158.64,295.18c-5.91-4.06,5.82-12.11,4.7.1Z"/><path class="cls-1" d="M166.86,299.54c-3.57-2.73-4.76-6.45,5.37-3.32C168.8,296.27,173.66,300.15,166.86,299.54Z"/><path class="cls-1" d="M178.5,296.26c-1.17,2.4-2.67,2.88,3.57,1.37C181.65,305.46,165.18,293.36,178.5,296.26Z"/><path class="cls-3" d="M172.31,297.54c-.05-.87-.08-1.31,0,0C173.75,300.54,167.61,300,172.31,297.54Z"/><path class="cls-5" d="M47.14,41.87c2.77.54,11.85-5.68,11.6,4.82-3.45-.65-10.26,1.11-16.05-1.4C48,45.91,39.51,41.7,47.14,41.87Z"/><path class="cls-2" d="M58.74,46.69c-3.12-6.83,1.5-3.41,11.86-5.67C71.89,46.52,65.19,50.17,58.74,46.69Z"/><path class="cls-2" d="M31.87,38.46c3.38-6.64,10,3.92-.84,1.92C31,39.59,30.86,39.81,31.87,38.46Z"/><path class="cls-2" d="M43.73,42.07c3.2,2.29-6.27,5.77-3.61,1.17C40.55,42.7,40.47,43.81,43.73,42.07Z"/><path class="cls-5" d="M60.16,47.64c1,1.2,6.65-3.8,8.71.65C67.4,48,65.72,50.1,60.16,47.64Z"/><path class="cls-1" d="M23.85,39.7c.51.41-2.59,6.44-1.94-.19Z"/><path class="cls-5" d="M21.88,39.53h0C22.59,41.25,20.09,45.15,21.88,39.53Z"/><path class="cls-5" d="M23.85,39.7h0C24.33,39,20.85,41.15,23.85,39.7Z"/><path class="cls-4" d="M16.08,141c-3-13.59,16.63-.07,6.69,3.39C21,144,20.29,143.19,16.08,141Z"/><path class="cls-4" d="M35.94,125.36c1.88,4.87-4.75,5.07-5,11.27C26.39,133.37,27.62,122,35.94,125.36Z"/><path class="cls-5" d="M35.93,148.15c1.25-6.53-.76-10.07-8.49-4.63C32.72,142.14,26.38,157.92,35.93,148.15Z"/><path class="cls-2" d="M36,139.91c0-4.44,0-6.66,0,0C33.56,149.47,25.77,129.15,36,139.91Z"/><path class="cls-2" d="M29.13,142.32c-1.48,5.9-11.36-11.18-3.28-7.06C26.53,136.57,25.25,135.83,29.13,142.32Z"/><path class="cls-2" d="M16.7,134.44c-2.08,4.87-8.7-6.82,1.48-4.93C18.21,130.62,18.06,131.5,16.7,134.44Z"/><path class="cls-4" d="M29.28,117.16c2.2-3.23,4.69,1.06,0,7.55C29.28,123.2,29.22,122.23,29.28,117.16Z"/><path class="cls-4" d="M27.36,116c-.35-2.11,2.32-5.24,1.77,1.17A14,14,0,0,1,27.36,116Z"/><path class="cls-3" d="M20.69,253.8h0C21,254.12,19.3,255.93,20.69,253.8Z"/><path class="cls-1" d="M24.63,259.85a1.79,1.79,0,0,1-1.84-1.17A1.76,1.76,0,0,1,24.63,259.85Z"/><path class="cls-1" d="M25.47,259.87c-.32.91-.6.67-.88,0A5.14,5.14,0,0,1,25.47,259.87Z"/><path class="cls-4" d="M33.7,179.93c0,5.69-19.59,27.27-18.13,17.12,3.53-1.85,12.93-8.9,6.38-14.79,1.36,1.16,4.39.08,7.8,3.14C27.12,180,32.05,166.62,33.7,179.93Z"/><path class="cls-1" d="M17.4,192.47c-6.42-11.23-.13-24.08,5.45-4.52C21.19,188.12,17.8,187,17.4,192.47Z"/><path class="cls-3" d="M14,177.78c2.25,3.21.42,17-2.22,2.42C8.86,177.53,13.07,165.19,14,177.78Z"/><path class="cls-3" d="M17.4,192.47c0,2.16-.07,3.24,0,0C19.05,181.68,28,191.32,17.4,192.47Z"/><path class="cls-3" d="M16.52,195.9c-.62-2.38-.51-1.52,0,0C15.93,200.25,12.19,188.49,16.52,195.9Z"/><path class="cls-5" d="M33.7,179.93c.76-1.58-1.18-.09,2.24-8.09C36,171.86,37.68,184.27,33.7,179.93Z"/><path class="cls-5" d="M36,231.22a7.37,7.37,0,0,1-.14,4.73C36.29,234.91,34.5,235.54,36,231.22Z"/><path class="cls-1" d="M13.84,274.76c.59-5.17-5.83-7.38-1.8-11.51C14,263,15.64,265.36,13.84,274.76Z"/><path class="cls-5" d="M35.91,255.18c10.47,2.91,34.47,3.39,12,6.78,10,9.75-28.22,6.46-2.31,1.58C43.47,259.88,31.69,263.46,35.91,255.18Z"/><path class="cls-1" d="M32.73,156.07c-3.79-12.87,2.89-8.56-16.65-15,2.72,5.14-10.67,3.63,14,21.73C31.87,162.86,35.9,165.27,32.73,156.07Z"/><path class="cls-1" d="M13.71,140.68c-1.25,2.33-3.21,2.6-5.17,2.9C9.31,139.87,11.72,140.89,13.71,140.68Z"/><path class="cls-2" d="M20.15,126.34l-.42.49C19.87,126.75,19.69,126.62,20.15,126.34Z"/><path class="cls-5" d="M204,242.06c-6.91,21-6.28,13.71-28.49,14.7.83,10.27-14.83-3.64-26.64.62-10.61,10.13,12.67,16.49,28.95,7.51C192.67,266.42,210.31,270.47,204,242.06Z"/><path class="cls-1" d="M148.83,257.1c-13.16,22.26,35.7,3.6,44.21,8.27,12,5.15-28.94,14.34-54.07,2.19C144.57,262.51,135.63,254.62,148.83,257.1Z"/><path class="cls-1" d="M203.87,261c-3.46-1.12,8.23-17.76-1.57-18.69-2.23,11.83-4.22-19.81,4.56-12.7-2.58,10.58,6,8.28,8.43,13C216.44,249,216.3,268.64,203.87,261Zm8-18.61c.2,2.83,0,1.85,0,0C210.73,241.72,208.23,251.82,211.83,242.37ZM208.51,257c-.5.43-.73.41,0,0C208.65,256.65,206.26,256.2,208.51,257Z"/><path class="cls-1" d="M201.1,199.25c3.19-11.43,6.22-2.75,10.59-23.9-16.46,2.84,4-11.26,1.58,6.05,3.17-3.12,5.25-11.73,5.82,4.29C206.53,186.27,208.15,218.26,201.1,199.25Z"/><path class="cls-3" d="M210.07,192.47c1.22-3.5,1.38-2.17,6.3,3.42h0l.9,1.18v0c4.75,5.62-1.07-6.71,1.78-5.74v0c11.25,4,12.37,3.47-4.42,15l0-.11c-.62.77,0,0-1.87,2.29C211.74,205,215.75,196.23,210.07,192.47Z"/><path class="cls-3" d="M210.1,280.22c7.15,6.91-11.93,4.56-14.45,2.43C202.7,286.15,194.94,264.58,210.1,280.22Z"/><path class="cls-3" d="M203.87,261c3.59,1.32,6.47.69,4.89,11.84-1.9-7.79-4.17-.23-9.5-7.31h0C198.62,262.62,200.9,264.52,203.87,261Z"/><path class="cls-3" d="M217.23,260.86c.23,2.54,5.81,5.88,3.57,10.55C216.86,272.89,212.54,268.36,217.23,260.86Z"/><path class="cls-5" d="M200.87,224.48c-1,.2,2.9-17.66,4-9.74C204.3,218,205.42,222,200.87,224.48Z"/><path class="cls-5" d="M176.73,274.36c5.78-.24,2.53,3.16-20.7,1.17C161.42,272.71,163.73,275.07,176.73,274.36Z"/><path class="cls-5" d="M212.44,232.62c-2.55-3.37-.8-8.28,1-13.85C214.6,217.32,216.54,219.08,212.44,232.62Z"/><path class="cls-5" d="M217.23,260.86c-.68.77-1,1.66-2.67,4.69C208.78,267.32,216.8,249.45,217.23,260.86Z"/><path class="cls-1" d="M222.45,258.79c2.38-11.77,7.15,2.68,1.17,4.6C223.38,262.42,221.6,261.53,222.45,258.79Z"/><path class="cls-1" d="M211.05,220.53c-1.62-7.44-3.06,4.37-5.23-2C205.49,216.46,213.41,211,211.05,220.53Z"/><path class="cls-1" d="M213.81,210.69c-5.77,5.28-5.28-10.87-1.06-2.21C213.09,209.22,212.75,208.48,213.81,210.69Z"/><path class="cls-5" d="M195.65,282.65c3.32,1.93-4.64,6.18-1.74-1.3C193.9,282.09,195.5,279.64,195.65,282.65Z"/><path class="cls-5" d="M214.6,206.3c4.62,2.16-1.94,12.51,0-.11Z"/><path class="cls-4" d="M212.75,208.48c-1.37-3.19-1.17-4.8,0-11.39C215.13,200.9,211.79,204.68,212.75,208.48Z"/><path class="cls-1" d="M195.65,282.65c2.42.27,3.55,0,0,0C194.47,279.78,200.86,279.77,195.65,282.65Z"/><path class="cls-1" d="M177.6,275.87c.33-.29,4.87-.2,1.2,3.05C178.14,278.67,177.59,278.42,177.6,275.87Z"/><path class="cls-5" d="M201.27,200.57c1,.85,0,0,.73,3.38C200.51,203.71,200.44,204.53,201.27,200.57Z"/><path class="cls-1" d="M199.26,265.51h0C199.35,264.72,204.15,268,199.26,265.51Z"/><path class="cls-4" d="M214.62,206.19h0C214.24,205.05,215.42,213.92,214.62,206.19Z"/><path class="cls-1" d="M214.14,235.33c-.28.7-.2.91,0,0C214.36,235,215.65,237.26,214.14,235.33Z"/><path class="cls-1" d="M207,226.35c-.26,0-.31.1,0,0C207.41,226.46,206.64,227.55,207,226.35Z"/><path class="cls-1" d="M223.6,264.21l0,2.5C222.54,265.85,222.68,265,223.6,264.21Z"/><path class="cls-3" d="M202,270.09h0C202.28,270.32,200.49,272.83,202,270.09Z"/><path class="cls-5" d="M201,227.83h0C201.17,227.93,200.52,226,201,227.83Z"/><path class="cls-4" d="M193,285.26c.61,0,0,0,1.27,1.06C193.81,286.32,192.42,288.52,193,285.26Z"/><path class="cls-2" d="M60.65,286c-8-7.56-22.38,1.31-23.37-13.76C35.13,272.8,89.48,281,60.65,286Z"/><path class="cls-4" d="M39,272.35c-8.59-.7-5.89-4.67,12.6-2.24C51.39,274.8,45.22,271.38,39,272.35Z"/><path class="cls-1" d="M36.49,269.18c-2,2.28-8.07-6.21-2.87-10.5C33,263.22,38.1,259.76,36.49,269.18Z"/><path class="cls-2" d="M37.31,263.54c-5.13-3.17-5.18-6.52,8.25,0Z"/><path class="cls-4" d="M26.43,279.52C25,277.87,24,266.37,22,276.88,22.66,275.82,23.1,284.67,26.43,279.52Z"/><path class="cls-5" d="M31.69,273.58c-.76-2.46-1.91-2.34,0,0C32.78,276.33,23.81,277,31.69,273.58Z"/><path class="cls-4" d="M54.32,283.64c1.48,1.74,3.77.3,5.22,2.16C61.26,285.65,41.39,287.26,54.32,283.64Z"/><path class="cls-1" d="M39,282.56c2.16-.16,2.18-.09,6.9,1.71C45.39,285,37.56,285,39,282.56Z"/><path class="cls-4" d="M54.36,290.5c-2.19.25-1.39.35,0,0C60,291,50.14,296,54.36,290.5Z"/><path class="cls-4" d="M43.66,289.34c0-.68,0,0,0-2C43.86,287.36,46.26,288.79,43.66,289.34Z"/><path class="cls-5" d="M21.5,263.49h0C20.62,264.55,19.58,261.13,21.5,263.49Z"/><path class="cls-1" d="M35.53,272.45c.52-1,0,0,1.75-.18C37,273.34,37.5,274.29,35.53,272.45Z"/><path class="cls-3" d="M212.79,21.32c2.11,6-11-.56-12.26,6.33,8.22,7,6.49-5.12,13.1-1.15,1.86,2.3-5.94,23.44-7.86,12.71C199.68,52.59,207.9,26.49,175,25.9,189,30.59,199.88,18.68,212.79,21.32Z"/><path class="cls-1" d="M205.49,19.1c1.24,3.71-14.48,5.4-14.47.31C193.73,18.22,198.64,19.42,205.49,19.1Z"/><path class="cls-3" d="M182.1,18c.92-.59,9.76-6.74,9.06,1C189.76,19.74,188.94,18.73,182.1,18Z"/><path class="cls-5" d="M182.1,18c18.71,3.3-2.12,3.34-12.61,1.12C170.14,15.81,171.15,17.46,182.1,18Z"/><path class="cls-3" d="M72.32,30.38C79.74,23.26,109.09,45.49,91.53,43,88.57,34.77,84.87,33.68,72.32,30.38Z"/><path class="cls-4" d="M94.75,44.25C96.68,39,96.28,41.59,102,35c1.7-.09,7.26,12.44-6.29,11.37A19.37,19.37,0,0,0,94.75,44.25Z"/><path class="cls-4" d="M87.53,37.21c12.84,2.08-32,6.85-31.94,2.22C64.58,38.55,74.78,39.16,87.53,37.21Z"/><path class="cls-3" d="M23.67,18.94c1.5-9.23,7.63.92,14.36-1.31C47.17,10,45.77,24.73,23.67,18.94Z"/><path class="cls-5" d="M88.38,22.38c5.23-2.31,8.74.42,13.63,8.1C99,33.9,95.49,25.39,88.38,22.38Z"/><path class="cls-3" d="M101,31.52c4-2.12,6.58,4.23,11.83-1.08.54,1.2,2,1.63,1.8,3.43h0C113.2,35.82,107.09,37,102,35l0,0C101.69,33.88,101.35,32.7,101,31.52Z"/><path class="cls-2" d="M49,21.37c1.36.57,15.88-2.24,11.41,3.67C57,22.22,39.05,27.52,49,21.37Z"/><path class="cls-2" d="M51.55,33.76c2.67.94-2.54,10.84-7.2,1.16C45.62,34.16,46.44,33.44,51.55,33.76Z"/><path class="cls-4" d="M72.32,30.38c1.32,2.6-23.41,3.16-12.58-1.51C61.87,29.17,62,30.28,72.32,30.38Z"/><path class="cls-3" d="M56.94,20.44c-12.78.17-14.74-3.16,3.25-1.78C59,20.82,57.83,19.92,56.94,20.44Z"/><path class="cls-5" d="M68.73,20.3c2.11-.34,2.65,0,11.7,1C76.44,22.72,72.43,24.31,68.73,20.3Z"/><path class="cls-5" d="M45.66,14.3c1.58-2,4.35-2.64,8.67-2.1C55.5,14.77,54,14.57,45.66,14.3Z"/><path class="cls-5" d="M51.55,33.76c-.55,1.32-20.3.31-7.47-.71C44.73,34,45.78,31.09,51.55,33.76Z"/><path class="cls-3" d="M30.89,14.42c-.19-3.81,4.79-2.55,9,0C38.3,14.51,37.36,14.42,30.89,14.42Z"/><path class="cls-5" d="M57.17,31.85c.5,2.1,10.3-1.05,3.23,2.46C57.52,36.5,58.7,43.09,57.17,31.85Z"/><path class="cls-2" d="M57.17,31.85c1.15.92-.42,7.78-2,2.25C55.73,34.21,55,31,57.17,31.85Z"/><path class="cls-2" d="M51.61,32.9c-.73-2-.52-1.27,0,0C51.5,33.67,46,31.69,51.61,32.9Z"/><path class="cls-3" d="M96.59,33.91h2.9C98.59,35.47,97.6,34.19,96.59,33.91Z"/><path class="cls-3" d="M94.59,35.24h0C94.52,35.48,93.62,35,94.59,35.24Z"/><path class="cls-4" d="M31.83,38.46l-.9,1.38Z"/><path class="cls-2" d="M30.89,14.42c0,.63,13.15-2.07,7.15,3.21C36.24,20,24,14.4,30.89,14.42Z"/><path class="cls-5" d="M229.85,233.56c.81,1.25,3,2.09,0,5.85C229.86,237.46,229.85,235.51,229.85,233.56Z"/><path class="cls-1" d="M215.46,88.66c-.52-.93,5.75-13.59,5.45-4.38C220.36,85.89,219.39,91.38,215.46,88.66Z"/><path class="cls-1" d="M218.17,95.53c.43,1.44-2.34,8.29-4.54,1.12C214.86,97,213.16,95,218.17,95.53Z"/><path class="cls-4" d="M222.63,76.46c1.34,3.58,1.2,9.11.94,17.3C220.8,93.21,222.26,83.68,222.63,76.46Z"/><path class="cls-1" d="M220.84,76.07c.72-.24,0-.09,2,.39C223.45,79.55,213.77,78.18,220.84,76.07Z"/><path class="cls-1" d="M215.65,94.36c-.66-.17,0,0-1.35-1.4C214.54,92.8,216.29,90.84,215.65,94.36Z"/><path class="cls-1" d="M222.71,59.44c.1-1.66-.59-3.5.7-4.89C223.36,56.22,223.77,58,222.71,59.44Z"/><path class="cls-1" d="M222.81,62.39c-1.26-.82-.85-1.67,0-2.54C222.78,60.69,222.79,61.54,222.81,62.39Z"/><path class="cls-1" d="M224.43,52.2c-.58-.08-.86-.15,0,0C224.88,52.45,223.56,55,224.43,52.2Z"/><path class="cls-3" d="M122.77,37.29c3.12,5-19,12-.9-2.31A2.38,2.38,0,0,0,122.77,37.29Z"/><path class="cls-5" d="M95.71,46.39c3.77,2.29,15.79-2.65,20,1.89C112.39,47.32,99.62,52,95.71,46.39Z"/><path class="cls-3" d="M111,46.34c0,.26-15,2.27-8.21-1.88C105.76,43.47,109.07,39.79,111,46.34Z"/><path class="cls-1" d="M104.73,30.47c.35-.2-5.2,2.4-1.38-1.12C103.84,29.74,105.48,26.86,104.73,30.47Z"/><path class="cls-3" d="M114.63,33.87h0C115.34,33.27,115.23,39.23,114.63,33.87Z"/><path class="cls-3" d="M112.84,30.45,113,30C113,30.13,113,30,112.84,30.45Z"/><path class="cls-1" d="M131.62,28.28c-1.29,5.28,5.06,7.37-1.6,11.2C127.8,41.77,121.07,24.06,131.62,28.28Zm-2.31,1.6c-.49.45-.72.44,0,0C129.44,29.52,127,29.2,129.31,29.88Z"/><path class="cls-5" d="M128.15,39.58c2.9-3.24,9.91,7.14,5.23,8.69C133.81,45.47,126,45.62,128.15,39.58Z"/><path class="cls-3" d="M122.79,48.08c.08-2.25-.05-1.4,0,0C121.21,50.07,119.83,43.93,122.79,48.08Z"/><path class="cls-2" d="M129.06,25.68c.6-.65.56-1,0,0C128.53,27.17,125.42,20.79,129.06,25.68Z"/><path class="cls-3" d="M124.48,41.91c-.82-.95-1.15-1,0,0C124.37,43.12,120.73,42.74,124.48,41.91Z"/><path class="cls-2" d="M122.77,37.29a2.38,2.38,0,0,1-.9-2.31C122.7,35.42,122.79,36.32,122.77,37.29Z"/><path class="cls-1" d="M175,26.26c5.92,3.53,18.82-.94,25.23,7.89-5,2.55,8.83,17.41-2.69,11.73-11.83,2.56.71-11.27-3.69-9.75-9.77-1.74-12.4,21.38-45,2.6,15.09-10,12.67,4.7,22.92-4.55.4-1.76,5.48-1.47,10.12-1.76C174.22,31.76,141.13,25,175,26.26Z"/><path class="cls-1" d="M138.76,16.64c9-.51,13.6-.08,3.53,5.84.93,1.77,9.46,7.62,3.84,8.37C148.58,38.2,126,34.4,138.76,16.64Z"/><path class="cls-4" d="M151.49,40.53c3.66,3.36-18,13.7-19-1.11C136.8,33.31,142.12,40,151.49,40.53Z"/><path class="cls-4" d="M148,30.61c1.73-.55,1.93-2.16,5-6.24C154.5,28.24,145.3,48.6,148,30.61Z"/><path class="cls-2" d="M149.78,37.32c.74-4.4,3.65-7.81,3.27-12.95-.5,13.81-34.64-16.83,22.79-.78-25.92,1.7-8.71,2.46-7.27,16.94C163.5,37.73,159.6,31.67,149.78,37.32Z"/><path class="cls-1" d="M175.84,23.59c-3.19-4.16-24.77,2.43-21.53-7.69,4.23,3.9,13.08-5.43,15.18,3.19C182.55,19.87,212.62,31,175.84,23.59Z"/><path class="cls-2" d="M110.08,19a1.72,1.72,0,0,1-1.7,1.26A1.74,1.74,0,0,1,110.08,19Z"/><path class="cls-3" d="M213.6,173c-14.47-4-5.6,13.53-12.5,22.85C193.9,155.61,219.64,155.34,213.6,173Z"/><path class="cls-3" d="M217.37,142.4c-1.09-2.05-20.72,5-12.68-14C201.17,131.68,228.87,135,217.37,142.4Z"/><path class="cls-1" d="M222.73,149.19c-2.38,7.37-.81-4.81-8.25,11.51C205,160.36,206.28,133.54,222.73,149.19Z"/><path class="cls-2" d="M205.62,130.66c-.18-5.72-7.53,7.56.14-11.69-2.16,1.86-.08-1.7-2.12-4.81,1.05.06-.47-.56,4.64-.39,7.24,4.09-.11,5.85-1.28,11.6C209,127,217.68,128.9,205.62,130.66Z"/><path class="cls-2" d="M211,143.82c-1.89,11.44-2.75,6.81-6.4-2.72C206.38,141.28,206.6,143.35,211,143.82Z"/><path class="cls-3" d="M203.73,117.2c4.11.4-2,16.84-2.85,3.91C202.21,121.61,197.71,116.25,203.73,117.2Z"/><path class="cls-2" d="M202.88,132.41c.66,1.94,2.21,4.09-.76,5.18C202.17,135.81,201.43,133.85,202.88,132.41Z"/><path class="cls-5" d="M202.15,165c0-2-.07-1.28,0,0C200.93,168.77,199.41,161.33,202.15,165Z"/><path class="cls-1" d="M213.63,173.05c0-.34,0,0,0-1C214.34,171.92,218.75,172.07,213.63,173.05Z"/><path class="cls-2" d="M202.84,144.57h0C202.34,144.29,202.32,141.51,202.84,144.57Z"/><path class="cls-2" d="M202.85,144.55l.36.49C203.08,145,202.88,145,202.85,144.55Z"/><path class="cls-1" d="M217.37,142.4c5.75-.9-2.23-9.81,5.28-12.68C221.06,131.83,227.83,146.83,217.37,142.4Z"/><path class="cls-4" d="M211,143.82c-2-.57-4.11-.41-5.55-2.68C206.74,140.6,223.92,144,211,143.82Z"/><path class="cls-4" d="M207.36,43c9.42-21.74,21.6-9.08,3.54,12.81C207.64,52.58,208.25,51.6,207.36,43Z"/><path class="cls-4" d="M222.71,117.12c4.07,23.49-16.55-18.78-5-6.43C221.62,96.34,225.63,99.93,222.71,117.12Z"/><path class="cls-1" d="M203.42,117.2c-5.75,2.21,1.21-8.28,3.57-53.59-.66,12.83,1.55,37-3.66,50.55C204,115.1,206.13,116,203.42,117.2Z"/><path class="cls-3" d="M207.38,76.06c2-10.65-5.4-28.13,7.17-13.66C215.25,67.45,212.11,71.33,207.38,76.06Z"/><path class="cls-3" d="M220.84,76.07c-7.2,4.19-4.84-10.83-3.18-18C216.8,62.94,222.43,68.61,220.84,76.07Z"/><path class="cls-1" d="M208.27,76.11c2.38-9.26,9.18-6.59,1.61,6.58C213.85,87.35,208,94.12,208.27,76.11Z"/><path class="cls-3" d="M211.84,85.24c-7.62-13,9.77-1.32-.13-4.86C210.74,81.93,212,80.05,211.84,85.24Z"/><path class="cls-3" d="M205.67,113.73c-.87-4.14-.13-8.3-.08-12.45C204.88,102.69,211.78,114.32,205.67,113.73Z"/><path class="cls-3" d="M213.65,110.33c2.25,3.4-8.54,7.77-3.16.93C210.48,110,211.51,104.82,213.65,110.33Z"/><path class="cls-1" d="M224,43.18c-.19,2.56-.39,5.12-.58,7.69C222.49,48.16,221.44,45.45,224,43.18Z"/><path class="cls-3" d="M216.39,107c-.09,1.28-2.78-5.38-.13-2.24C216.41,104.61,216.25,105.48,216.39,107Z"/><path class="cls-1" d="M215.45,73.85c1.84.07,1.77,1.78,1.81,3.38C215.47,77.13,215.45,75.5,215.45,73.85Z"/><path class="cls-1" d="M211.83,84c-1.19-1-.91-2.3-.12-3.66A16.6,16.6,0,0,1,211.83,84Z"/><path class="cls-3" d="M214.55,62.4h0C214.26,61.37,216.34,58.43,214.55,62.4Z"/><path class="cls-1" d="M213.63,96.65l-.37-.28C213.38,96.49,213.28,96.29,213.63,96.65Z"/><path class="cls-2" d="M211.83,24.84c-1.79,2.55-6.34,7.16-11.3,2.81C200.12,23.77,208,23.36,211.83,24.84Z"/><path class="cls-3" d="M216.37,32.83c-.54-.16-.82-.14,0,0C216.73,33,214.56,34.09,216.37,32.83Z"/><path class="cls-2" d="M221,124c3.72.27-1,11.42-3.66,12.33C212.81,132.38,214.5,127.31,221,124Z"/><path class="cls-2" d="M35.3,173c-.73,7.12-9.9-5.53-5.55,12.41C11.66,176.11,3.7,168.53,35.3,173Z"/><path class="cls-4" d="M34.17,161.5c-.87,2.08-2.21,2.6-4.12,1.25C25.73,174.23,40,182.1,34.17,161.5Z"/><path class="cls-4" d="M23.84,160.12c15.44.63-7.75,8.92-5.91,2.4C19.43,162.3,17.19,161.21,23.84,160.12Z"/><path class="cls-1" d="M16.45,168.61c-.85,4.14-8.27,6.45-2.63-3.48C14.72,165.33,15.51,165.48,16.45,168.61Z"/><path class="cls-5" d="M17.37,154.9c1.86,1.33,2.76-.06,0,0C16.12,152.92,22.45,146.73,17.37,154.9Z"/><path class="cls-2" d="M23.84,160.12c-.35.77-6-.21-1-3C23.81,157.3,24.45,157.62,23.84,160.12Z"/><path class="cls-3" d="M16.37,143.82h0C16.25,143.89,17.26,144.17,16.37,143.82Z"/><path class="cls-2" d="M227.32,194.47c-5.28,3-5.63-1.66-2.79-12.24A66.81,66.81,0,0,1,227.32,194.47Z"/><path class="cls-4" d="M224.53,182.23c-.43,4.25-.1,4.13-5.51,9.1-1.78-1.06-1.19.26.09-5.63C221.17,186.15,220,179.59,224.53,182.23Z"/><path class="cls-5" d="M220.83,184.54h0C221.17,184.56,219.08,187.17,220.83,184.54Z"/><path class="cls-3" d="M229,229c-.1,1.52-.21,3-.32,4.57C226.66,233.08,226.69,232.63,229,229Z"/><path class="cls-3" d="M229.88,224.44c-.13,1.59.41,3.4-.92,4.61C229.11,227.46,228.41,225.6,229.88,224.44Z"/><path class="cls-2" d="M227.41,219.34c-.47-.47-.69-.47,0,0C227.52,219.7,225.1,219.88,227.41,219.34Z"/><path class="cls-1" d="M100.25,278.22c-4.43.34-13.42-.79-16.88,1.67,2.89-5.52-15.72-5.93-1.78-6,3.14.4,28.61-28.28,15.63-.85C98.84,273.22,97.79,275.26,100.25,278.22Z"/><path class="cls-1" d="M51.6,270.11a8.08,8.08,0,0,1-.85-.05c2.25-1.58,14.58-10.83,12.19-1.25-14.42,5.64,10.8,4.46,14.22,15.56-4.88.64-41-14-34-12C46.64,274.16,64.27,269.46,51.6,270.11Z"/><path class="cls-5" d="M73.28,277.85c-32.35-7.76,11.6-11.86-9.61-4.32C68.63,272.31,78.86,275.1,73.28,277.85Z"/><path class="cls-2" d="M75.89,278c2.78.57,4.16.13,0,0C65,271.32,85.63,275.74,75.89,278Z"/><path class="cls-4" d="M84,281.55c5.11-.54,21.15,4.54-1.79,2.18C82.85,283,83.45,282.28,84,281.55Z"/><path class="cls-1" d="M82.15,283.93c-.66,1.26-1.7.91-2.64,1C79.74,281.78,81.23,284.1,82.15,283.93Z"/><path class="cls-2" d="M116.44,280.36c-1.07,4.23-14,10.28-9.87,2.24C109.35,281.86,117.58,265.13,116.44,280.36Z"/><path class="cls-2" d="M100.25,278.22c-.41-1-1.88-1.85-1.77-5.85C101.48,271.52,107.77,285.92,100.25,278.22Z"/><path class="cls-1" d="M102,280.37c3.63-1.59,7.14,5.94-3,4.48C99.76,284.12,100.64,283.7,102,280.37Z"/><path class="cls-3" d="M116.44,280.36c1.81-4.93,7.42-4.88,9.27-13.71-2,6.77,2.48,9.15,6.75,10.93C133.62,282.73,113.88,294.84,116.44,280.36Z"/><path class="cls-1" d="M125.55,271.14c-2-7.36,11.39-21.38,8,1.22C132,272.66,131,273.21,125.55,271.14Z"/><path class="cls-5" d="M133.55,272.36c2.59-10.33,10.79-28.4,5.35,2.35C137.9,274.25,137.08,274.07,133.55,272.36Zm3.57-6.86c.34-.8.59-2-.37.5Z"/><path class="cls-5" d="M142.53,271.22c4.86-8.11,9.87,19.69-2.7,4.6C142.57,276.05,142,274.55,142.53,271.22Z"/><path class="cls-4" d="M145.22,280.34c.2-3.38,13.58-2.54,7.5,3.38C152.8,282.05,131.87,289.31,145.22,280.34Zm2.82.34c.07.27.1.4,0,0C147.94,280.51,147.13,281.34,148,280.68Z"/><path class="cls-1" d="M134.44,286.06c-2.7,1.83-4.68-5.22,0,0Z"/><path class="cls-1" d="M129,283.38h0C129.6,280.6,133.39,279.12,129,283.38Z"/><path class="cls-3" d="M129.76,285c.31-3.24,3.58-.61.21,1.07C129.74,285.88,129.91,286.1,129.76,285Z"/><path class="cls-1" d="M134.44,286.07l.37.25Z"/><path class="cls-5" d="M139.85,275.78h0C139.59,275.64,138.25,273.53,139.85,275.78Z"/><path class="cls-3" d="M85.7,284.12l5.66.12C90.86,285.09,86.9,292.32,85.7,284.12Z"/><path class="cls-3" d="M90,291.07c-.32-.85-.39-.83,0,0C89.68,291.93,87.07,291.14,90,291.07Z"/><path class="cls-5" d="M129.76,285h0C132,285.94,125.11,286.75,129.76,285Z"/><path class="cls-2" d="M125.09,288c-.24,0-.28.08,0,0C125.45,288.1,124.75,289.11,125.09,288Z"/><path class="cls-3" d="M153.42,279.15c-4.31,4.9-15.56-17.28,6.19-4.52-5.62-.14-9.75,1.49,5.45,2.11C163.25,279.52,157.14,276.45,153.42,279.15Z"/><path class="cls-1" d="M157.89,289.55c-2.08,1.71-3.27,1.77-7.74-1.05C151.44,289.46,154,286.62,157.89,289.55Z"/><path class="cls-4" d="M157.89,289.45c-5-5.83,11.5-4.05,6.81-2.18C162,286.23,161.24,288.85,157.89,289.45Z"/><path class="cls-1" d="M154.27,281.47c0-.39-.05-.78-.08-1.17C154.74,280.64,155,281,154.27,281.47Z"/><path class="cls-1" d="M153.42,279.15l.8-1C154,278,154.91,279.92,153.42,279.15Z"/><path class="cls-2" d="M179.42,292.77c-3.33,6.16-21.37-5.18-4.9-7.3C172,292.14,165.71,291.48,179.42,292.77Z"/><path class="cls-2" d="M166.81,286c-17.66,1.18,9.09-12.06-1.65-2.46C168.09,282.26,171,286,166.81,286Z"/><path class="cls-5" d="M169.56,283.51c-6,1.22-8.69-3,4-1.91C172.09,283.06,170.35,281.89,169.56,283.51Z"/><path class="cls-4" d="M167.68,286.06h0C169,285.88,172.4,286.39,167.68,286.06Z"/><path class="cls-4" d="M168.61,293.14c10.67,1.28,18.48,2.72-5.34,2.13C163.89,292.18,162.47,292.53,168.61,293.14Z"/><path class="cls-2" d="M178.47,295.48c.36.19.45-.87,2,.42C180.25,295.37,179.49,297.29,178.47,295.48Z"/><path class="cls-2" d="M178.59,298.55c-.09-.77-.13-1.15,0,0C178.25,298.46,174.86,297.8,178.59,298.55Z"/><path class="cls-1" d="M168.61,293.14c-1.29,1.95-12.23-4.5-1.79-7.07C168.77,287.43,167.12,286.51,168.61,293.14Z"/><path class="cls-2" d="M162.37,287.3c-.34.24-2,6.07-2.74,2.18C159.82,288.36,159.92,287.32,162.37,287.3Z"/><path class="cls-2" d="M172.16,295.5c.06.48.07.73,0,0C174.51,294.08,173.67,298.83,172.16,295.5Z"/><path class="cls-1" d="M56.06,261.8c-1.92-3.57,13.33-8.23,38.45-1.93C90,268.54,67,259.72,56.06,261.8Z"/><path class="cls-2" d="M138.9,257.27c-11.86,28.21,4-18.56-19.65,18.59C111.63,259.24,121.23,259.83,138.9,257.27Z"/><path class="cls-5" d="M126.34,257.46c-4.66,10.13-13,4-21.66,1.18l0,0C76.63,269.4,106.54,248.58,126.34,257.46Z"/><path class="cls-2" d="M208.22,53.3c-.61,25.38-12.53-2.15-2.45-14.09C207.47,42.89,209,45.18,208.22,53.3Z"/><path class="cls-3" d="M147.79,45.44c7.09-7.53,20.81,2.59,34.36,2.06C173.88,47.77,155.28,51.53,147.79,45.44Z"/><path class="cls-2" d="M206.4,77.14c.45,4.15-.53,30.53-3.59,3.18C201.26,85.05,198.46,64.6,206.4,77.14Z"/><path class="cls-3" d="M206.4,77.14c-4.16-.26-9.06-19.41-3.54-19.3C199.14,78.07,207.77,55.27,206.4,77.14Z"/><path class="cls-3" d="M201,80.64c2.71-2.27,5.64,13.25,0,14.86C201,92.39,201,87.66,201,80.64Z"/><path class="cls-5" d="M147.79,45.44c.62,2.57-.32,4.29-10.79,2.84C138.92,45.62,142.31,44.39,147.79,45.44Z"/><path class="cls-2" d="M201,95.5c3.9-.17,5.36,6,1.13,11.3C200.76,106,200.8,104.33,201,95.5Z"/><path class="cls-4" d="M95.71,46.39c-.82,3.75-9,2-15.22,1.14C83.49,46,88.86,46.26,95.71,46.39Z"/><path class="cls-2" d="M182.15,47.51c.72-1.28,3-2.6,18,.22C197.46,46.53,196.18,50.47,182.15,47.51Z"/><path class="cls-3" d="M35.48,149.42a13.27,13.27,0,0,1,.45-1.27c-1,.35-1.63,1.62-2.41,2.53C33.91,149.93,33.77,151.06,35.48,149.42Z"/><path class="cls-3" d="M33.44,150.77c-.7,1.11-.83,1.91,0,0C34.58,151.7,28.75,150.21,33.44,150.77Z"/><path class="cls-4" d="M68.87,48.3c.09-3.56,6.47-2.13,10.52,0Z"/><path class="cls-5" d="M80.45,257.45a7.49,7.49,0,0,1-9,.07C74.43,256.18,77.44,256.91,80.45,257.45Z"/><path class="cls-5" d="M153.24,48.33c2.15-3.62,4.29-1.71,6.43,0A12.85,12.85,0,0,1,153.24,48.33Z"/><path class="cls-5" d="M200.92,105.75c-.53,3.51-.33,2.34,0,0C202.86,103.23,202,118.75,200.92,105.75Z"/><path class="cls-1" d="M202.84,56.71c-.2-2.43-.16-1.6,0,0C202.2,58.54,198.17,52.75,202.84,56.71Z"/><path class="cls-5" d="M36,133.25,33.69,132C33.84,131.22,37.26,127.08,36,133.25Z"/><path class="cls-5" d="M193.84,48.39c.81-.08,4.12-2.64,6.3.32Z"/><path class="cls-5" d="M88.6,257.09c-1,2.14-1.92,2.33-2.84,0A2.61,2.61,0,0,1,88.6,257.09Z"/><path class="cls-3" d="M201,74.93c0,2.3,0,3.45,0,0C200,75.22,205.18,76.88,201,74.93Z"/><path class="cls-1" d="M201.21,248.44h0C201.72,248.93,204.11,249.69,201.21,248.44Z"/><path class="cls-2" d="M200.55,112.78l1.06.06C201.91,112.54,200.16,117.23,200.55,112.78Z"/><path class="cls-5" d="M79.39,48.28c0-.57.28-1.58,2,0Z"/><path class="cls-5" d="M201.06,198.2c.77.41.72.79,0,1.13C201,199,201.05,198.58,201.06,198.2Z"/><path class="cls-5" d="M182.15,47.51c-.1.53.42,1.26-1,.87Z"/><path class="cls-5" d="M183.92,48.42c.32-.54.64-.53,1,0Z"/><path class="cls-1" d="M80.49,47.52c-4.56,2.61-12.4-7.84-8.95-4.11,8.49,8.41,4.32-3.84,17.73-3.56C98.81,48.5,94.78,45.57,80.49,47.52Z"/><path class="cls-1" d="M60.71,41h7C65.35,42.76,63,45.12,60.71,41Z"/><path class="cls-2" d="M22.77,144.41l-.43.68C22.37,144.84,21.65,144,22.77,144.41Z"/><path class="cls-3" d="M31.77,133.2a4.48,4.48,0,0,0-.73.05C31.24,132.29,31.49,132.38,31.77,133.2Z"/><path class="cls-3" d="M22.85,188c-.22.1-3.19-8.63,0-3.53C24.13,185.9,28.6,188.15,22.85,188Z"/><path class="cls-4" d="M92.54,263.23c-.94,3.11-17.58,4.32-44.66-1.42C60.38,261.63,77.22,262.76,92.54,263.23Z"/><path class="cls-2" d="M52.43,263.42c10.56-1.87-3.65,12.84-4.33,3.41A25.25,25.25,0,0,1,52.43,263.42Z"/><path class="cls-1" d="M48.1,266.82c3.65,4.78-13.6,4.61-6.47-.2C43.14,266.73,44.51,266,48.1,266.82Z"/><path class="cls-1" d="M52.62,261.69l-2.67.14C50.65,260.88,50.78,258,52.62,261.69Z"/><path class="cls-2" d="M50.8,259.76c-1.81.23-1.16.24,0,0C51.83,260.32,46.58,264.35,50.8,259.76Z"/><path class="cls-1" d="M52.43,263.42c-.29.13-.24,1.8-2.62.07Z"/><path class="cls-1" d="M199.24,263.23c-.76,0,1.75,2.16-1.46,2.25C197.25,264.22,195.85,263.48,199.24,263.23Z"/><path class="cls-1" d="M200.14,263.26l-.9,0C199.56,262.39,199.86,262.41,200.14,263.26Z"/><path class="cls-2" d="M139.83,275.82c1.94,1.35,2.79-.39,0,0C136.68,271.64,141.2,260.4,139.83,275.82Z"/><path class="cls-2" d="M176.73,274.63l-8.06,0A5.08,5.08,0,0,1,176.73,274.63Z"/><path class="cls-2" d="M211.83,242.37c-1.76,1.72-1.07,1.22,0,0C213,243.29,209.27,252.1,211.83,242.37Z"/><path class="cls-5" d="M208.51,257c-.46-.47-.69-.48,0,0C208.63,257.37,206.21,257.55,208.51,257Z"/><path class="cls-2" d="M204.58,188.89c1.69-5.41-7.47-15.6,7.11-13.54C208.66,176.66,208.05,202.17,204.58,188.89Z"/><path class="cls-5" d="M219.11,185.7c-1.29,1.12,1.2,1.24-2,5.51C213.74,198.76,209.89,186.64,219.11,185.7Z"/><path class="cls-2" d="M206.45,203.9h0C205.28,203.71,206.25,196.9,206.45,203.9Z"/><path class="cls-2" d="M214.46,188c.06.92,0,1.77-.81,2.16Z"/><path class="cls-2" d="M215.33,194.43c-.47-8.17,9.14,5.3,1.92,2.61-.29-.38,0,0-.89-1.16C216,195.4,216.36,195.88,215.33,194.43Z"/><path class="cls-4" d="M217.25,197c.71.1,0,0,1.8,1.16C218.47,199.25,218.81,200.39,217.25,197Z"/><path class="cls-4" d="M215.33,194.43l1,1.46C216.45,196.56,214,194.22,215.33,194.43Z"/><path class="cls-2" d="M219,191.33c0-1,.13-1.86.95-2.29C219.92,190,219.83,190.9,219,191.33Z"/><path class="cls-2" d="M218.15,191.3a6.46,6.46,0,0,1,.88,0C218.73,192.18,218.44,192.12,218.15,191.3Z"/><path class="cls-4" d="M216.36,195.88l.9,1.18Z"/><path class="cls-2" d="M213.69,192.41l.91,1.18Z"/><path class="cls-1" d="M156,275.81c0-.71.06-1.06,0,0C155.57,275.81,150.73,274.61,156,275.81Z"/><path class="cls-2" d="M51.6,270.11c0,1.5,0,2.25,0,0C54.84,269,59.69,272.91,51.6,270.11Z"/><path class="cls-2" d="M195.68,26c-8.07-3.74-19.4-8.06,3.59-3.53C199.25,24.42,199.24,27.39,195.68,26Z"/><path class="cls-5" d="M175.84,23.59c5.71,1.28,3.75,4.05-11.57,1.13C168,22.35,172,24.26,175.84,23.59Z"/><path class="cls-1" d="M58.82,38.33C55.67,32.37,81,28,87.53,37.21,78.18,39.18,71.43,38.52,58.82,38.33Z"/><path class="cls-5" d="M76,32.6c-2.47-.91-3.74-1.2,0,0C76.3,36,68.33,32.57,76,32.6Z"/><path class="cls-5" d="M79.51,32.75c-.36.52,0,0-1.08,1.48C77.9,34.29,77,31.88,79.51,32.75Z"/><path class="cls-2" d="M102,35l1,1.17Z"/><path class="cls-2" d="M79.64,39.93c9.32,5.31-9.54,9.83-7.41,1A44.41,44.41,0,0,1,79.64,39.93Z"/><path class="cls-5" d="M68.67,31.79c-1.11,3.33-2.27,3.34-3.47.07Z"/><path class="cls-3" d="M133.54,37.3c-2.25-.17-1.43.06,0,0C135.15,38,128.36,42.4,133.54,37.3Z"/><path class="cls-2" d="M129.31,29.88c-.49-.45-.72-.45,0,0C129.44,30.24,127,30.55,129.31,29.88Z"/><path class="cls-5" d="M193.77,46.3c-1.29,1.13-23.76,0-7.35-5.72C188.42,33.74,196.14,31.89,193.77,46.3Z"/><path class="cls-5" d="M166.85,33.91c-6.95-8,6.9-2.15,15-1.55-3.29,1.63-7.22-1.16-10.49,1.57v0Z"/><path class="cls-3" d="M193.81,36.17h0C193.34,35.28,198.14,35.37,193.81,36.17Z"/><path class="cls-5" d="M171.34,33.87l.37.26C171.58,34.06,171.73,34.1,171.34,33.87Z"/><path class="cls-3" d="M148,30.61c-1.89.3-1.21.26,0,0C149.05,32.52,143.76,35.81,148,30.61Z"/><path class="cls-4" d="M205.62,130.66c-.36-.33,12.36.07,3.09,1.71C209.53,131.29,204.56,134.64,205.62,130.66Z"/><path class="cls-4" d="M214.56,131.73c-.1,1.77.55,1.76-2.77.37C212.81,131.3,211.9,131.78,214.56,131.73Z"/><path class="cls-4" d="M215.33,133.09l1.06,1.31Z"/><path class="cls-1" d="M214.56,131.73c-2.51-2.32-5.38-4-8.1-8.9,9.54-.4-1.43-10.49,10.69-5.7C224.78,127.3,215.67,121.92,214.56,131.73Z"/><path class="cls-3" d="M205.54,119.45l.22-.48A2.75,2.75,0,0,1,205.54,119.45Z"/><path class="cls-3" d="M207.23,122.72a2.92,2.92,0,0,1-.77.11C206.67,122.33,206.91,122,207.23,122.72Z"/><path class="cls-5" d="M217.15,117.12c0-2.16.11-1.35,0,0C214.86,118.73,212.61,112.37,217.15,117.12Z"/><path class="cls-2" d="M214.55,113.75h0C216.72,117.09,208.76,119.52,214.55,113.75Z"/><path class="cls-3" d="M107.3,259c8.41,4.73-8.3,4.52,1.74,11.11.11-10.42,8.61,6.45-2.47,12.51-5.13-9.82-13.17-7.58-1.86-24C105,258.71,105.3,258.62,107.3,259Z"/><path class="cls-2" d="M80.2,265c8.25-3.2,12.55,9.56-2.34,6.42-1.74-4.76-7.23-6.85,4.55-2.78A4.25,4.25,0,0,1,80.2,265Z"/><path class="cls-4" d="M77.86,271.43c12.88,3.06,4.63,2.46-14.19,2.38C66,271.59,66.41,272.84,77.86,271.43Z"/><path class="cls-4" d="M102.05,261.16c-.48-.05-.72,0,0,0C103,263.19,98,271.74,102.05,261.16Z"/><path class="cls-5" d="M98.28,272.43c0,.6.47,1.46-1.06.58Z"/><path class="cls-2" d="M63.28,264.51c10.34,1.15,7.3.44-3.47,9.13C54.1,269.7,65,270.75,63.28,264.51Z"/><path class="cls-2" d="M58.8,265.39a1.51,1.51,0,0,1,1.85-.95C60.41,265.93,60.13,267.3,58.8,265.39Z"/><path class="cls-1" d="M77.86,271.43c-1-.09-5.79,3-8-.5C71.88,272.4,74.52,262.82,77.86,271.43Z"/><path class="cls-3" d="M74.09,267.74c-1.57,6.12-13.29-1.6-2.58-1.15C71.7,267.37,73,265,74.09,267.74Z"/><path class="cls-1" d="M111.15,274.56c-2.86-13.25-.13-22.74,8.1,1.3C117.29,276,115,273.8,111.15,274.56Z"/><path class="cls-5" d="M116.41,275.74l2.74.06C118.92,274.58,118,280.93,116.41,275.74Z"/><path class="cls-3" d="M126.36,265.68c-.08-.83-1-1.67,0-2.5A1.52,1.52,0,0,1,126.36,265.68Z"/><path class="cls-2" d="M137.16,265.54h0C137.12,264.81,138.42,263.19,137.16,265.54Z"/><path class="cls-2" d="M137.12,265.5l-.37.5C136.82,265.82,136.74,265.77,137.12,265.5Z"/><path class="cls-2" d="M148,280.68h0C148.26,280.75,147.93,281.8,148,280.68Z"/><path class="cls-4" d="M104.71,258.6c-.11,1.4-.18,2.89-1.71,1.32C103.3,258.93,104,258.78,104.71,258.6Z"/><path class="cls-4" d="M107.3,259l-.65,0A1,1,0,0,1,107.3,259Z"/><path class="cls-4" d="M105.67,258.67l-1,0C105,257.72,105.35,257.88,105.67,258.67Z"/><path class="cls-1" d="M204.65,65.77c-3.19,5.18-2.82,3.8-1.79-7.93C204.65,59,205.14,61.54,204.65,65.77Z"/><path class="cls-5" d="M74.12,266.69c-4.43,2.24-1.48-8.48,8.29,2C79.47,268.29,77.09,265.55,74.12,266.69Z"/><path class="cls-2" d="M214.54,129.73h0C214,129.49,213.94,126.79,214.54,129.73Z"/><path class="cls-4" d="M109.4,264.11c1.06,2.22,1.12.54-.36,6C108.82,267.6,99.16,264.09,109.4,264.11Z"/><path class="cls-2" d="M111.15,274.56a7.85,7.85,0,0,0,.8.12C111.81,275.13,111.22,277.15,111.15,274.56Z"/></g></g></svg>