<svg xmlns="http://www.w3.org/2000/svg" viewBox="0 0 161.25 180.69"><defs><style>.cls-1{fill:#161618;}.cls-2{fill:#352f39;}.cls-3{fill:#342f38;}.cls-4{fill:#161413;}.cls-5{fill:#333036;}.cls-6{fill:#22120d;}.cls-7{fill:#12120e;}.cls-8{fill:#d5d5cd;}.cls-9{fill:#363435;}.cls-10{fill:#d7d6d3;}.cls-11{fill:#b4b4ac;}.cls-12{fill:#d4d4d1;}.cls-13{fill:#3c3c33;}.cls-14{fill:#404139;}.cls-15{fill:#dbdbd4;}.cls-16{fill:#73756e;}.cls-17{fill:#3c3d39;}.cls-18{fill:#59594f;}.cls-19{fill:#36362b;}.cls-20{fill:#606158;}.cls-21{fill:#302f2a;}.cls-22{fill:#27617c;}.cls-23{fill:#222325;}.cls-24{fill:#313035;}.cls-25{fill:#1c4859;}.cls-26{fill:#555549;}.cls-27{fill:#eeebe2;}.cls-28{fill:#cca39f;}.cls-29{fill:#f3ebe7;}.cls-30{fill:#4b666e;}.cls-31{fill:#171823;}.cls-32{fill:#a38c94;}.cls-33{fill:#181618;}.cls-34{fill:#1e4754;}.cls-35{fill:#161416;}.cls-36{fill:#d4d4d4;}.cls-37{fill:#c5c3c9;}.cls-38{fill:#843d3b;}.cls-39{fill:#373e46;}.cls-40{fill:#e1ae9a;}.cls-41{fill:#bf9581;}.cls-42{fill:#d9b4ab;}.cls-43{fill:#c89790;}.cls-44{fill:#c8c1c9;}.cls-45{fill:#180e0a;}.cls-46{fill:#656870;}.cls-47{fill:#271913;}.cls-48{fill:#cfa6a5;}.cls-49{fill:#a3908a;}.cls-50{fill:#b59892;}.cls-51{fill:#171e23;}.cls-52{fill:#372723;}.cls-53{fill:#4d636e;}.cls-54{fill:#dfc4c1;opacity:0.11;}.cls-55{opacity:0.2;}</style></defs><title>Asset 4</title><g id="Layer_2" data-name="Layer 2"><g id="Layer_1-2" data-name="Layer 1"><path class="cls-1" d="M159.65,115.43c-1.24,3.76-2.3,7.59-3.76,11.26a102.24,102.24,0,0,0-7,30.28c-.46,5.83-3.63,10.83-6.46,15.78l-1.26-.55,1.8-4.74a46.1,46.1,0,0,0,.47-13.68c-1-7.93,2.89-15.05,3.71-21.76-2,2.59-3.66,6.72-7.61,8.95-3.3-.33-3.16-3.52-4.53-5.46-.84-4.87,2.91-8.08,4.2-11.94-3.44,3.13-7.42,6-11.31,9-3.81,3.23-7,7.05-10.74,10.38-2.79,2.51-3.61,4.64.11,6.93a2.28,2.28,0,0,1,1,2.17c-1,2.25-3.15,1.76-5,1.93-1.68.16-3.6-.6-4.87,1.18-.42,1.16-.1,2.46-.64,3.59a2,2,0,0,1-1.59,1.1c-2.1-1.23-4.21-2.61-6.15.24a9.49,9.49,0,0,1-3.9,2.5c-5.4,7.07-13,8-21.19,8.15s-16.54,1.26-24.8,2c-4.09.59-8.32,2.67-12-1.07,15-.45,29.48-4.15,43.87-8.12,3-2.85,7.64-4.07,9-8.74-1.86-1.23-4.35-.23-6.07-1.79a2.92,2.92,0,0,1-.69-1.27,4.5,4.5,0,0,1,1.09-3.42A16.59,16.59,0,0,1,88,146.09c2.06-1.76,4.3-1.88,6.81-1,1.58.56,3.36,1.64,4.84-.31a59.42,59.42,0,0,1,5.15-5.94c.42-.5.86-1,1.28-1.5,2.23-3.13,4.91-5.91,6.92-9.2,3.94-8.66,9-16.72,13.74-24.91,3.85-6.62,7.23-13.51,11.45-19.92,1.84-2.79,2.12-5.93,1.81-9.13-1.32-13.54-1.39-27.35-8.71-39.58-1.29-2.16-1.14-4.86-2.25-7.12-2.48-9.14-6.2-17.81-10.44-27.49,4.81,2.44,7.95,5.46,11.06,8.4,4.35,4.12,8.38,8.56,12.69,12.72,1.92,1.85,2.68,4.17,3.39,6.53q7.47,24.83,14.82,49.68a8.23,8.23,0,0,1,.45,4.88c-1.61,5.34-1.39,10.83-1.27,16.3C158.86,104.15,160.49,109.8,159.65,115.43Z"/><path class="cls-1" d="M65.82,63.27l-1.77.34c-.86,1.11-1.18,3.06-3.33,2.12-.3,1.92-9.3,12.71-11.34,13.28a5.28,5.28,0,0,0-3.78,3.48c-1.88,4.58-4.84,8.62-6.52,13.35C38.13,98.51,35,98,32.71,98.19a17.2,17.2,0,0,1-4.46,0c-2.78-.7-3.2-4.6-2-6,5.62-6.77,6-15.52,9.45-23,1.81.9,1.9,2.45,1.78,4.22-.07,1-.64,2.58,1,2.88a2.39,2.39,0,0,0,2.38-1.52c.67-1.39.43-2.74-1-3.34s-3.05-1.28-4-2.79c2.23-5.42,2.23-11.26,3.19-16.92,2.9,1.75.33,4.81,1.66,6.93.53.39-.37,3,1.5,1.16,1.16-1.17,1.69-3,2.5-4.5.15-.05.37-.07.44-.18,1.33-2,.7-5.59,4.55-5.48l.53,3.35c1.81-4.89,3.22-9,5.94-12.32,2.08.71-1.37,2.58.75,2.93,1.37.24,1.45-1.49,2.1-2.33,1.42-1.84,1.3-4.77,4-5.68,1,1,.54,3.29,2.83,3,2.62-2.28,3.65-5.91,7.64-8.66l-3.63,7c5.84-.52,7.15-5.92,11.26-8.15-.73,1.38-1.45,2.76-2.49,4.75,6,.1,10.41-2.66,15.44-5.82-.22,3.06-2.85,3.73-3.62,6.2,4.87-1.34,8.23,3.81,13.26,1.33-.89,2.22-3.1,1.6-3.85,2.94,1.21,3.35,4,3.56,6.89,3.56.31,2.35-2.13,1.38-2.91,2.41s-.28,2.3-.06,3.46l2,1.24c.17,1.73-3.7,1.18-2.1,3.72.84,1,1.73,2,2.52,3,1.22,1.61.88,1.74-1,1.42-.93-.16-1.4,1.76-.85,2.4,1.41,1.63,1.21,4.8,3.47,5.13s5.29.27,6.95-1.86c5-6.44,11.81-11.91,12.34-21,3.18.86,2.67,3.62,2.49,5.69-1,11.21-1.85,22.46-7.34,32.72-3.29,6.14-4.94,13-8,19.27-1.55,3.16-2.32,7-6.21,8.56-4.25-1.65-4.57-5.83-5.3-9.3a82.91,82.91,0,0,1-1.44-9.62c-.46-2.15-3.32-2.66-3.48-5-.09-3.42-1-6.73-1.33-10.11-.52-3.57-3.64-4.09-6.21-5.26s-3.05-3.82-4-6.08c-3.84-9.56-15-9.34-22.14-3.9C60.85,61.06,66.2,61.33,65.82,63.27Z"/><path class="cls-2" d="M108.09,107.47a260.6,260.6,0,0,0,16.36-38.75c2.92-8.52,4.46-17.83,2.63-27.14.71-4.69,2-9.29,2-14.09,5,8.59,9.95,17.17,10.84,27.39.64,7.26,1.33,14.52,2,21.79a11.78,11.78,0,0,1-1.8,7.09c-8.75,15.21-17.37,30.49-26,45.74-3.08.62-6.1,1.54-9.2,2.08a4.79,4.79,0,0,1-2.25-.27c-4-4.37-4.6-9.4-2.87-14.89,1.59-2.22,3.31-4.31,6-5.28,4.13.11,2.59,4.39,4.51,6.13a11.94,11.94,0,0,1,1,1.61,10,10,0,0,0-1.13-1.88C109.77,113.76,105.8,111.29,108.09,107.47Z"/><path class="cls-3" d="M65.82,63.27c-1.35-1.44-4.77.36-4.83-3.14-.05-3,2.48-3.1,4.34-4,2.75-1.35,5-3.39,8.59-3.27,8.62.29,13.47,4.47,15.21,12.72a3.19,3.19,0,0,0,2,2.08c-2.51,4.17-4.49,8.59-6.65,12.94s-6.11,7.2-10.74,8.85c0,.31-1.4-.27-.48.55a2.15,2.15,0,0,1,1,1.94c-3.22,4.77-6,9.82-8.79,14.82-2,.07-1.77,2-1.81,3-.23,5.46-1.18,10.9-.59,16.38.61.93,1.78,1.37,2.14,2.51-2.71,4.24.13,7.36,2.17,10.6,1.08,1.73,2.5,1.08,3.82.21,1.78-1.18,3.34-2.64,5-3.93,1.54-1.17,3.12-2.65,5.21-.9,2,5.44-2.55,8.33-4.77,12.11-4,2.57-8.87,3.17-12.66,6.11-1,.22-1.89,1.08-3.05.9-3.69,1.33-6.6,4.39-10.67,4.89-1.75.62-3.1.3-3.74-1.63a1.9,1.9,0,0,1,1.31-1.85c5.11-1.32,6.71-4.64,5.67-9.57.25-3.1-2.2-4.82-3.61-7.07-.92-3.63,1.24-7.55-1-11-2.26-2,.13-3.9.41-5.76.69-4.76,3.29-9.3,1.06-14.34-.22-.5.85-1.64,1.4-2.42,2-2.85,4-5.69,6.09-8.49C59.51,94.15,57,94.79,56,94c5-3.3,11.1-5.24,14.49-9.93,3.77-5.23,11.28-7.1,12.37-14.72.5-3.53-2.28-9.92-6.07-10.06s-7.89-1-12,1.12c2.27,1.87,4.74,2,7.19,2.9Z"/><path class="cls-4" d="M122,163.72q6.51-13.62,13-27.23a1.33,1.33,0,0,1,.92-1c2,1.06,1.88,3.4,3,5,.48,1.08-.15,1.71-.92,2.29a175.38,175.38,0,0,1-20.25,34.64c-3.73,3-8.44,2.28-12.67,2.83a57.58,57.58,0,0,1-15.4-.13c-1.51-2.88,1.19-1.51,1.86-1.64,8.09-1.5,16.42-2.26,22.65-8.63l0,0C115.67,166.32,118.56,164.67,122,163.72Z"/><path class="cls-5" d="M138,142.77c.31-.76.61-1.53.92-2.29l10-13.36.94.41c-1.31,5.56-2.29,11.21-4,16.65-2.11,6.77-.17,13.82-1.89,20.57-.25,1-.26,2-1.05,2.71.15-7.58-.37-15.08-2.9-22.31C139.64,144.08,139.6,142.8,138,142.77Z"/><path class="cls-6" d="M35.88,68.5a9.5,9.5,0,0,0,2.32.83c2.45.22,4.5.49,4.75,3.77s-2.43,4.17-4.32,5.42-2.37-.66-2.68-2.14c-.51-2.43,1-4.93-.26-7.33A.36.36,0,0,1,35.88,68.5Z"/><path class="cls-7" d="M49.72,49.51c-1.09,1-.6,2.48-1.3,4.16-.38-1.28-.65-2.17-.94-3.17-1.43,1.43.64,4.63-2.75,4.67.89-6.12,4-11.58,5.27-17.6,1.91-.11,1.29,1.13,1.14,2.12Z"/><path class="cls-8" d="M61,153.7l2.93-1.45c5.29-2.44,10.74-2.27,16.27-1,1.63,1.17,3.23,2.35.65,4.19-5.88-2.13-12-.25-18-1.34C62.18,154,61.58,153.84,61,153.7Z"/><path class="cls-9" d="M40.29,157.65l6.65-1a3.86,3.86,0,0,0,3.35,2c-5.72,2.77-11.8,1.83-17.91,1.37Z"/><path class="cls-10" d="M48.89,127.42c1.36-1.13,1.64-.06,1.68.93.13,3.39.41,6.8-.65,10.12C48.06,134.93,49,131.13,48.89,127.42Z"/><path class="cls-11" d="M73.92,162.35c-2.8,1.27-5.36-.16-8-.63,2.63-1.45,5.45-1.05,8.2-1.13A1.22,1.22,0,0,1,73.92,162.35Z"/><path class="cls-12" d="M65.9,38.5c-.74,1.45-1.64,3.57-3.4,2.7s.37-2.46.51-3.78a18.17,18.17,0,0,0,.06-2C64.81,35.74,65.24,37.23,65.9,38.5Z"/><path class="cls-13" d="M102.85,43.42c.87-1.59,2.9-.58,4-1.76,2.25-.28,4.49-.56,6,1.65A16.57,16.57,0,0,1,102.85,43.42Z"/><path class="cls-14" d="M40.73,58.51c-1.74-2,.11-4.91-1.66-6.93.39-1.31.77-2.62,1.16-3.93l.5.18Z"/><path class="cls-15" d="M102.85,43.42l10-.11c-1.55,1.89-3.75,1.29-5.6,1.1-2.61-.26-2.94,1.37-3.42,3.12C102.08,46.5,102.87,44.86,102.85,43.42Z"/><path class="cls-16" d="M73.92,162.35l.15-1.76c2.28-.22,4.71,1.29,6.83-.64l1,2.43Z"/><path class="cls-17" d="M80.81,155.46c.57-1,.82-2-.19-2.82a2.34,2.34,0,0,1,3.6,0L81.89,159C80.39,158.14,81.13,156.63,80.81,155.46Z"/><path class="cls-18" d="M51.14,39.69,50,37.57a9.48,9.48,0,0,1,2.38-5.85C52,34.37,51.55,37,51.14,39.69Z"/><path class="cls-19" d="M63.72,34.29a8.58,8.58,0,0,1,3-6.41A9.62,9.62,0,0,1,63.72,34.29Z"/><path class="cls-20" d="M60.72,65.73c1.61.09,2-1.84,3.33-2.12-.52,2.25,2.32,2,3,4.19Z"/><path class="cls-21" d="M103.68,52.49c-2.11-2.83.95-2.73,2.1-3.72,1.16.47,2.51.68,3,2.25C107.36,52.59,104,47.48,103.68,52.49Z"/><path class="cls-22" d="M100.77,116.65a20.7,20.7,0,0,0,2.35,14c2.42,2.58,2.67,5.81,2.73,9.1-1.62,1.94-3.23,3.88-4.85,5.81-2.38,1.2-3.31-.61-4.25-2.14-1.79-2.94-3.08-6.07-2.75-8.88.93,4.79-2.85,8.59-5,13-.73,1.06-1.91.9-3,1.08a2.07,2.07,0,0,1-1.49.3c-7.48-2.35-7.44-2.33-2.76-8.64a18.35,18.35,0,0,0,3.49-10.67c.18-5.93,0-11.87,1.73-17.7a39.88,39.88,0,0,1,4.84-10.26c1.22-1.87,2.87-3.27,5.41-2.21,1.8,1.9.75,4.62,1.94,6.69C99,109.73,101.83,112.9,100.77,116.65Z"/><path class="cls-23" d="M84.22,152.68l-3.6,0c-5.58.05-11.17.52-16.73-.39-.2-.57-1.29-1.39-.83-1.45,4.57-.63,7.9-4.86,12.81-4.33a28.14,28.14,0,0,1,6,1.27c1.33.92,1.88,2.48,2.92,3.64l.07,1.13-.31.19Z"/><path class="cls-24" d="M135.94,135.48l-.92,1c-2.05-2.77-4.61-4.71-8.14-5.12l14.74-11.58C141.35,126.09,136.16,129.88,135.94,135.48Z"/><path class="cls-25" d="M89,147.52c.5-5.38,4-9.71,5.17-16.09,1.67,6,2.43,11,6.86,14.15-1.7,3.41-4.24,2.28-6.61,1.07C92.27,145.56,90.44,145.08,89,147.52Z"/><path class="cls-26" d="M117.88,151.47c1.65.64,2.77,1.51,0,1.78s-5.85,0-8.77,0c-1.22,0-2.7-.52-3.3,1.22-1.31-2.87,1.08-1.91,2.22-2.09C111.27,151.9,114.74,153.42,117.88,151.47Z"/><path class="cls-17" d="M84.82,151.38c-2.66.8-2.27-1.61-3-2.85a2.17,2.17,0,0,1,3.06-.15l1.11.22C85.61,149.52,85.21,150.45,84.82,151.38Z"/><path class="cls-27" d="M73,88.74a36.66,36.66,0,0,0,10.45-8.82c1.64-2,.87-4.45,2.21-6.63a15,15,0,0,1,5.48-5.64c4.49-.63,6,2.09,6.6,5.86a1.66,1.66,0,0,1-1.35,1.41c-3.11-.39-6.83-1.73-6.06,3.9,1,3.3,4.61,6.49.5,10a5.34,5.34,0,0,1-1.63,1.2,9.25,9.25,0,0,0-3.82,2c-.65.58-1.35,1.1-2,1.68-4.67,4.14-9.77,7.8-13.11,13.29-1.75,2.87-2.65,5.55-1.07,8.79.78,1.6,1.31,3.46-.45,5a2.61,2.61,0,0,1-1.54,0c-5.09-3.58-5.69-7.36-2.3-14.28.86-6.28,4.08-11.16,8.91-15.09C74.8,90.16,72.34,89.93,73,88.74Z"/><path class="cls-28" d="M109.86,117.55c-.18-1.28-3.55,2.52-2-1.18,1-2.45-.61-3.54-1.69-5l-.72-.18a9,9,0,0,1-4-6.94,22.5,22.5,0,0,0-2.31-6.89,4,4,0,0,1-.08-1.61c.47-1.77.17-3.62.46-5.39s.47-3.84,3.25-2.84c1,6.88.91,14,5.32,20l3,10A.78.78,0,0,1,109.86,117.55Z"/><path class="cls-29" d="M96.81,74.63l.94-1.12c.36,3.3,2.29,6.44,1,9.91-1,1.28.65,3.1-.89,4.27-1.91.22-2.92-1-3.85-2.37C93.19,81.3,94.54,77.85,96.81,74.63Z"/><path class="cls-30" d="M98.44,87.78c-.47-1.5-1.24-3,.35-4.36-.41,3,4.19,1.21,4,4.06-2.48.33-1.79,2.25-1.74,3.7.06,1.9.6,3.83-1.11,5.34-.8.37-1.32-.06-1.79-.62-.88-1.91-1.37-3.85-.25-5.85A3,3,0,0,0,98.44,87.78Z"/><path class="cls-31" d="M100.77,116.65c-2.44-3-2.39-6.65-3-10.15-.82-1.74,0-2.8,1.47-3.57,2.19-.25,3,1,3.06,2.94.07,2.65,1.74,4.17,3.7,5.53l.13-.07A23.07,23.07,0,0,1,100.77,116.65Z"/><path class="cls-32" d="M109.86,117.55l1.2-.07a9.25,9.25,0,0,1,1.55,2.47c.22.92,1,2.56-.71,2.74s-1.29-1.17-1.17-2.39C110.83,119.42,110.18,118.47,109.86,117.55Z"/><path class="cls-33" d="M68.81,120.46c.58-1,.14-1.83-.13-2.8-.66-2.29-3.58-4.33-2.47-6.46,1.76-3.4,2.94-7.28,6.15-9.87,3.59-2.87,7-5.93,10.55-8.9,2.77.25,2.5,2.45,2.18,4.08-.46,2.25-.47,4.64-1.54,6.75-2,3-4.24,5.87-5.45,9.35-.89,1.84-2.32,3.36-3.15,5.24-.17.45-1,.72-.57,1.28.14.2.72-.29,1.13-.43a3,3,0,0,1,2.63.42c1.93,3.93,2.94,8.27,5.25,12a2.86,2.86,0,0,1-2.51,3.32c-3.91,1.32-6.24,4.79-9.48,7-2.5,1.73-4.15,1.73-5.52-1.11-.94-1.94-1.61-4.15-3-5.74-3-3.44-1.15-4.93,2-6.18C64.63,125.05,66.18,122.49,68.81,120.46Z"/><path class="cls-34" d="M80.88,134.48l1.88-3.25c-1.9-3.19-.47-6.44-.2-9.69s2-6.39.14-9.63a2.54,2.54,0,0,1,.81-2.64c2.24-3.68,7.19-6.13,5.33-11.69A4.58,4.58,0,0,1,89,95.5c.63-1.64,2.11-1.55,3.47-1.72s2.57-.88,4-.7c1.33.48,1.53,1.72,1.92,2.83.34,1.63.08,3-1.63,3.72-4.3,1.51-5.58,5.48-7,9.1a42.83,42.83,0,0,0-2.91,18c.57,10.59-2.06,14-8.06,19,1.56,2,5.29-.85,6.1,2.67l-3.06.15c-2-.74-4.21-.68-6-2.06C76.86,142.19,81.34,139.37,80.88,134.48Z"/><path class="cls-35" d="M64.92,106.53c0,1.14.22,2.42-.21,3.4-2,4.5.12,7.64,3.19,10.54-1.44,2.78-1.52,6.71-5.87,7.06-2.82-3.21-.37-6.69-.37-10,0-3.93-.13-8,1.65-11.75.2-.4.21-2.11,1.4-.7C65,105.39,64.86,106,64.92,106.53Z"/><path class="cls-36" d="M62,127.53c3-1.52,3.41-5.12,5.87-7.06h.91c-.7,3-2.36,5.47-3.91,8C63.8,128.6,62.42,129.54,62,127.53Z"/><path class="cls-37" d="M73,88.74c.3.89,4.58.57.82,2.7-1.65-2.16-3,1.29-4.91,0C69.83,89.85,71.53,89.44,73,88.74Z"/><path class="cls-38" d="M38.1,77.17c.69-3,.36-4.81,2.36-6C41.28,73.4,40.42,74.84,38.1,77.17Z"/><path class="cls-39" d="M96.75,99.63,98,95.49c.32-.37.62-.33.88.07l1.09,1a1.35,1.35,0,0,1,0,.72c1.07,2.07,1.61,4.16.2,6.31-1.13.7-2.34,1.34-2.33,3C96.17,104.41,97,101.94,96.75,99.63Z"/><path class="cls-40" d="M96.81,74.63c1,4-2.22,7.16-2,11-.8,1.88-1.33.48-1.76-.2-1.44-2.31-1.61-5.42-4.39-6.88.08-2.19-.75-4.92,2.09-5.86C93,71.94,95.39,72.16,96.81,74.63Z"/><path class="cls-41" d="M88.68,78.54c1.23-.22.79-2.45,2.25-2.07,1.07.28.81,1.62,1,2.55.54,2.37.64,5,2.88,6.59,1.77-.24,2.13,1.89,3.6,2.16.61.52,1.11,1,.42,1.85-.82.29-1.72.11-2.52.5-2.53.88-4.89,1.09-6.51-1.64C93.83,84.66,89,81.86,88.68,78.54Z"/><path class="cls-42" d="M89.82,88.48c2.08,1.78,4.83-.83,6.9,1.06,1.53,1.64.8,2.93-.65,4.12-.64,1.36-1.54,2.27-3.21,1.84C91.07,94,88.22,93.24,88.74,90l.09-.66Z"/><path class="cls-43" d="M82.07,103.54c.33-3.7,3.15-7.21.84-11.11l2-1.08a3.59,3.59,0,0,1,2,2.1c1,2.61-.14,5.23.05,7.84a4,4,0,0,1-1,2.65,3.47,3.47,0,0,1-1.82,1A1.82,1.82,0,0,1,82.07,103.54Z"/><path class="cls-44" d="M86.12,93.56a2.68,2.68,0,0,1-1.22-2.21c-.29-3.78,1.84-2.87,3.93-2l.29.33c.39,1.7.61,3.37-.72,4.81C87.25,95.15,86.59,94.6,86.12,93.56Z"/><path class="cls-45" d="M100.13,103.55c-.2-2.1-.85-4.18-.2-6.31a2.31,2.31,0,0,1,2.1,2.24,32.66,32.66,0,0,0,4,11.92c-3.65-.36-6.11-1.56-4.56-6C101.76,104.6,100.83,104,100.13,103.55Z"/><path class="cls-46" d="M96.07,93.66c.19-1.38,1.38-2.6.65-4.12.77-1.43,1.43-.21,2.13.08,0,2,0,4,0,5.94l-.44-.08H98Z"/><path class="cls-47" d="M83.08,111.21c-2,2.56-4.52,4.84-5.06,8.31l-3,0a1.65,1.65,0,0,1-.53-1.19c.34-2.09,1.77-3.62,2.78-5.37,2.21-2.83,2.9-6.84,6.65-8.44l1-.33c1.94,2,.68,4.1,0,6.15Z"/><path class="cls-48" d="M83.89,104.5c-.86,3.79-4.19,5.88-6.13,8.93-.85.13-1.46,0-.92-1.05,1.48-3.1,2.2-6.65,5.23-8.84Z"/><path class="cls-49" d="M75.08,118.57a3.58,3.58,0,0,0-.09.93c-.5,1.18.82,3-1.44,3.72-1.24-2-1.79-4,.19-6A1.59,1.59,0,0,1,75.08,118.57Z"/><path class="cls-50" d="M75.08,118.57l-1.34-1.31,3.1-4.88.92,1.05C76.87,115.14,76,116.85,75.08,118.57Z"/><path class="cls-51" d="M84.9,110.32c0-2,0-4.1,0-6.15a3.1,3.1,0,0,0,.91-2.63c.81-2,1.88-3.69,4.12-4.29,1.66,2.77,1.27,5.25-.88,7.66C87.55,106.6,86.28,108.51,84.9,110.32Z"/><path class="cls-52" d="M89.94,97.25c-.81,2-1.34,4.21-4.12,4.29-1.69-2.72,1.3-5.28.3-8l1.77,1.08a1.5,1.5,0,0,1,1.89,1.08Z"/><path class="cls-53" d="M89.78,95.72c-.8-.06-1.59-.13-1.89-1.07l1.23-5a15.09,15.09,0,0,0,3.74,5.85C91.85,95.8,90.7,94.15,89.78,95.72Z"/><path class="cls-54" d="M20,108.7a24.74,24.74,0,0,1-6.39,9,27.68,27.68,0,0,1-5.21,4.55l3.36-1.19-3.08.61,2.06-.22c-2.6-.53-5.09-1.6-7.66-2.26a3.33,3.33,0,0,0-1.63,0l-.15.13A4.76,4.76,0,0,0,2,122.67a20.28,20.28,0,0,0,3.44,5.72c2.64,3.27,5.64,6.26,9.51,8,2.84,1.27,2.13,1.05,6,1.8,2.83.54,5.77.76,8.31,2.23l-1.7-2.57,1.34,2.48-1.18-3.06.07,1.71.28-1.15c-2.22,1.34-8.15-.39-9.63-.73a73.21,73.21,0,0,1-12.61-4c-.39-.16-1.37-.64-1.8-.46-.23.1-.41.37-.06.54a41.33,41.33,0,0,0,7.27,3.29,80.44,80.44,0,0,0,10.23,2.76A20.2,20.2,0,0,0,26,141.78a3.45,3.45,0,0,0,3.75-.47c.59-.3-1.32-4-1.7-4.19a16.23,16.23,0,0,0-4.45-1.39l-3.24-.52a11.22,11.22,0,0,1-7.84-3.8A28.86,28.86,0,0,1,6.72,124c.13.24-2.38-3.13-1-3.46l-3.42-1c2.11,1,3.63,3.3,6.17,3.19a9.63,9.63,0,0,0,4.15-1.59c1.93-1.25,3.25-3.28,4.72-5,1.26-1.49,2.62-2.91,3.76-4.5a17.77,17.77,0,0,0,2.49-5.3c.25-.76-1.27.3-1.17.23C21.76,107.09,20.31,107.89,20,108.7Z"/><path class="cls-54" d="M18.93,112.18A7.88,7.88,0,0,1,16.24,117a24.68,24.68,0,0,1-3.87,4.11,25,25,0,0,1-2.18,1.93q-1.89,3.09-4.88.61c-1.53-1-2.6-2.55-4.57-2.45-.3,0-.75.05-.74.44,0,2.49-.14,2,1.07,4.6a39.91,39.91,0,0,0,7.2,9.59c2.81,2.59,5,4.39,8.79,5.37,4.15,1.06,9.07.65,12.68,3l-.29-.63.35,1.31,0-2.68a3,3,0,0,1-2.6,1.68,18.17,18.17,0,0,1-6-1.56,90.52,90.52,0,0,1-10.75-4.41,42,42,0,0,1-7-2.76c-.45-.2-1.12.38-.64.61C6,137.3,9.31,138.51,12.53,140a39.23,39.23,0,0,0,5.08,2.18,20.35,20.35,0,0,1,5.26,2.51A19.24,19.24,0,0,0,26,146.07c2.29.57,2.58.08,4.29-1,.49-.3.09-2.53-.18-2.92-1-1.51-3.39-1.44-5-1.64-2.51-.31-5.08-.44-7.56-1a21.65,21.65,0,0,1-11.64-9.87,12.17,12.17,0,0,1-4.38-8.15L.81,122l2.92,2.5,1.6,1.35a4.47,4.47,0,0,0,1.57.34c1.23,0,2.39-.94,3.33-1.61a27,27,0,0,0,3.84-3.86,54.07,54.07,0,0,0,4.15-4.28,17.5,17.5,0,0,0,2.7-5.37C21.32,109.87,19.1,111.7,18.93,112.18Z"/><path class="cls-54" d="M21.58,106.45l-1,2.88.2-.33c-2.54,3.81-5.82,7.08-8.83,10.53l.26-.3-1,1,8.86-3.31-11.5,3.83,11.48-2.37-12,1.4,11.47-.48a26.1,26.1,0,0,0-16-.93l-.6.24a10,10,0,0,0,1.42,4.85A18.87,18.87,0,0,0,8.79,128a26.13,26.13,0,0,0,10.28,5.51c2.95.72,6.08,1,8.61,2.83L23,126.78l.22.62L23,126.11l-9.38,8.53,10.33-2-13,.83,9.24.51L6.27,132.38c-.49-.06-.24.14-.09.34l.89.36c1.09.34,2.18.65,3.28.94,1.7.46,3.39.91,5.1,1.31a4.8,4.8,0,0,0,2.28.26l2.37.23a15,15,0,0,0,3,2.25,1.75,1.75,0,0,0,2.27.47,2.78,2.78,0,0,0,2.44-1.26l0-.36c-.56-3.29-2.42-6.54-3.86-9.51-1.13-2.33-3-3.67-4.77-5.53l.13.32c.15-.88-.14-1.16-.87-.85a4.73,4.73,0,0,1-3.22-.57l1.37.58a97.54,97.54,0,0,1,8.26-8,16.41,16.41,0,0,0,2-2.86q1.86-2.66,3.46-5.48a17.87,17.87,0,0,0,2.3-5.61,2,2,0,0,0-1.32.48c-1.49.88-2.95,1.78-4.4,2.72s-2.9,1.87-4.32,2.85A2,2,0,0,0,21.58,106.45Z"/><path class="cls-54" d="M20.17,108.44l-1,2.86.13-.32a15.39,15.39,0,0,1-2.61,3.48q-1.48,1.68-3.09,3.25c-1.3,1.45-2.5,3.42-4.3,4.32L17.66,119,8,122l9.35-2.4-12.23.58,8.17.27c1.11.1-8.18-1.62-11.17-.6l-.3.13a11.87,11.87,0,0,0,1.28,4.86l2.64,3.53a19.38,19.38,0,0,0,4.83,4.11,23.81,23.81,0,0,0,7.3,3.47c3.16.86,7.31,1.26,9.46,4.12l-4.24-9.3-10.52,5.77,7.61-.79-9.39-.52,5.45.43L7,133.94a8,8,0,0,0-2.12-.28c-.32.05-.35.16-.07.34a37.46,37.46,0,0,0,5.78,2.22q5.45,1.8,11,3.28l2.12,1.57a3.89,3.89,0,0,0,3.86-.86l0-.32a14.75,14.75,0,0,0-1.19-3.21c-.69-1.4-1.42-2.79-2.16-4.16a8.45,8.45,0,0,0-1.05-1.76A15.88,15.88,0,0,0,19.1,128a9.5,9.5,0,0,1-3.77-3.3,3.44,3.44,0,0,1-2.44-1.91l-5,4.35,10.8-8a7.68,7.68,0,0,0,1.14-1.28,33.59,33.59,0,0,0,1.81-2.91l-.18.3c1.82-2.52,3.82-5,5.39-7.72a27.39,27.39,0,0,0,2.53-5.78,1.61,1.61,0,0,0-1.14.46q-1.87,1.26-3.67,2.61T21,107.49A1.56,1.56,0,0,0,20.17,108.44Z"/><path class="cls-54" d="M19.22,108.2a10.54,10.54,0,0,1-3.2,5.7q-1.54,1.65-3.19,3.2c-1.45,1.55-2.65,3.34-4.73,4.12l1.91-.49-1.83.1.77.08c-2.21-1-5.12-3.45-7.82-3.21a.35.35,0,0,0-.41.19,4.79,4.79,0,0,0,.6,3.4A21,21,0,0,0,5,127.42a28.18,28.18,0,0,0,5.94,6.1c.75.67,1.51,1.3,2.29,1.91A22.59,22.59,0,0,0,21.74,138c2.82.42,5.87.43,8.37,1.92l-.32-.5.43,1.15-.15-2.22c-2.51,3.93-11.32-.89-13.26-1.77l-5.64-2.68a57,57,0,0,0-7-2.37c-.27-.11-.72-.35-1-.07s.06.49.28.59q5.9,2.85,12,5.23a42.24,42.24,0,0,1,8.1,3.52,6.94,6.94,0,0,0,5.43,1,2.12,2.12,0,0,0,1.65-1.07c.3-.22.05-1.95-.16-2.22-1.6-2-4.47-1.59-6.87-1.77a10.39,10.39,0,0,1-7.64-3.21,11.58,11.58,0,0,1-7.51-5.32,17,17,0,0,1-3.37-5.33Q2.89,121,3.81,118.82L3.4,119l.5,0-2.33-.78c2.14,1.3,3.72,4,6.47,3.74a8.09,8.09,0,0,0,3.07-1.1c1.69-1,2.86-2.73,4.14-4.18s2.91-3,4.15-4.67c1.41-1.91,1.43-2.62,2-4.88C21.61,106.48,19.39,107.65,19.22,108.2Z"/><path class="cls-54" d="M21.18,105.86l-1,2.88.17-.29A16.76,16.76,0,0,1,17.69,112c-1,1.13-2,2.23-3.11,3.29-1.3,1.45-2.48,3-3.91,4.29l5.19-1.68L8,120.07l10.09-1.39-10.72.48,9.17.18a19.7,19.7,0,0,0-13.43-1.82,3.18,3.18,0,0,0-.79.26,6.8,6.8,0,0,0,1,3.58,11.25,11.25,0,0,0,3.41,4.69l3.15,2.69a60.61,60.61,0,0,0,6.92,3.84c3.39,1.15,7.26,1.17,10.27,3.34l-3.88-7.08.94,2-.8-2.44-6.57,6.31,7.16-2.41-10.54,1.86,8.58-.12-11.76-.91L18,134.65,6.34,131.88c-.23-.06-.93-.34-1.15-.12s1.68,1,1.74,1c1.41.59,2.85,1.13,4.29,1.66.93.35,2.6,1.26,3.64,1.17l5.28-.28A12.49,12.49,0,0,0,23,137.59a1.75,1.75,0,0,0,2.17.51A2.45,2.45,0,0,0,27.5,137l.05-.3a18.68,18.68,0,0,0-2.08-4.9,19.52,19.52,0,0,0-2.23-3.8c-1.08-1.22-2.62-1.9-3.82-3A3.37,3.37,0,0,0,16,122.44a17.64,17.64,0,0,1-1.81-1.53l.27.26c2.65-2.64,6.32-4.23,8.6-7.2,1.2-1.57,2.36-3.27,3.45-4.91.58-.88,1.17-1.76,1.7-2.67a25.17,25.17,0,0,0,2.49-5.78,1.43,1.43,0,0,0-1.13.29c-1.28.63-2.54,1.3-3.79,2s-2.49,1.4-3.7,2.15A1.45,1.45,0,0,0,21.18,105.86Z"/><path class="cls-54" d="M20.44,109.85l-1,2.86.12-.34A15.41,15.41,0,0,1,17,115.83c-1,1.11-2,2.18-3.07,3.23A52.74,52.74,0,0,1,10,123.23l4.58-2.71-5,2.75,7.91-3.72-7.62,3,6.37-2.26L8.44,122l6.19-1.22s-8.64-.85-12,.31l-.27.16a11.61,11.61,0,0,0,1.07,4.84l2.54,3.57a20,20,0,0,0,4.84,4.3,21.46,21.46,0,0,0,7.46,3.58c3.21.78,7.47,1.05,9.61,4l-4.64-10.45L12.9,137.7l7.91-1.47a46.76,46.76,0,0,1-9.95-.89,32.3,32.3,0,0,0-5-.57c-.11,0-1.36.12-.69.39A58.76,58.76,0,0,0,13,138.05q3.6.6,7.23,1.06a16,16,0,0,0,4,3.55,3.72,3.72,0,0,0,4-.92l0-.35a25.55,25.55,0,0,0-2.45-5.9c-.75-1.47-1.54-3.84-2.91-4.91S19.52,128.94,18,128a10.43,10.43,0,0,0-4.36-3.35,3.94,3.94,0,0,1-1.39-3l-6.33,3.6,7.87-3.81-9.3.29c1.61,1.39,2.77,2.64,4.95,2.28A19.28,19.28,0,0,0,13.84,122a23.65,23.65,0,0,0,4.29-2.17,8.58,8.58,0,0,0,1.89-2c1-1.52,2-3.06,3.09-4.56,1.26-1.76,2.54-3.51,3.67-5.35,1.62-2.63,1.58-3,2.53-5.9a1.73,1.73,0,0,0-1.13.6q-1.82,1.48-3.55,3t-3.46,3.16A1.76,1.76,0,0,0,20.44,109.85Z"/><path class="cls-54" d="M18.57,106.29a9.73,9.73,0,0,1-2.29,4.93q-1.47,1.64-3.05,3.17c-1.83,1.81-3.35,4.29-5.81,5.33l3.78-.63-4.34.38,3.11,0c-2.72-.51-5.31-1.87-7.9-2.71a2.26,2.26,0,0,0-1.52-.09l-.21.1a5.48,5.48,0,0,0,.84,3.54,34.73,34.73,0,0,0,3.4,5.87,23.76,23.76,0,0,0,5.2,5.66,9.85,9.85,0,0,0,2,1.73,20,20,0,0,0,8.66,3l3.88.54a4.85,4.85,0,0,1,4.8,2v-1.68q-6.12,3-11.89-1.5a64.8,64.8,0,0,0-13.32-5.4c-.36-.15-1.06-.55-1.1,0s2.11,1.28,2.43,1.42c2.43,1.08,4.93,1.93,7.34,3,3.35,1.53,6.73,3.17,10.18,4.46a16.31,16.31,0,0,0,3.13,1c2.15.3,2.29-.13,3.71-1.23.39-.3.29-1.69,0-2-2.07-2.29-6.28-1.17-9-1.91L10,128.88a28.15,28.15,0,0,1-4.24-8.42c-.22-.66-.41-1.19.35-1.56l-4.7-1.8c1.61,1.13,3.41,3.07,5.5,3.08a9.24,9.24,0,0,0,4.5-.79,4.24,4.24,0,0,0,1.81-1.22c.77-.86,1.45-1.79,2.17-2.69,1.22-1.5,2.49-3,3.68-4.49a9,9,0,0,0,1.51-2.28,8,8,0,0,0,1.26-3.61C22,104.43,18.77,105.63,18.57,106.29Z"/><path class="cls-54" d="M21.46,107.83l-1,2.89.19-.36a15.86,15.86,0,0,1-2.6,3.53c-1,1.14-2,2.23-3.06,3.29-1.59,1.83-2.78,3.67-5,4.84l11.11-4.4L9.63,121.53l11.42-3.2a30.46,30.46,0,0,0-17.18,1.25l-.58.24a9.81,9.81,0,0,0,1.22,4.82,19,19,0,0,0,4.22,4.67,24.82,24.82,0,0,0,10.37,5.8c3,.74,6.28,1.09,8.9,2.95L23,127.26l1,2.67-1.08-3.51-9.19,9.36,10.13-3L11.1,134.47l9.12-.47q-6.84-.41-13.69-.53c-.43.05-.45.17,0,.35l.89.26c1.53.29,3.07.55,4.61.78,1.87.28,3.69.44,5.56.64q3.3,2.61,6.81,4.9A4.07,4.07,0,0,0,28.16,139l0-.4C27.53,135,25.53,131.34,24,128a9.31,9.31,0,0,0-1.4-2.4c-1.13-1.25-2.58-2.22-3.79-3.38l.14.35q.21-1.74-1.44-1l-6.22,8.34c3-3.27,10.13-9.6,13.08-15.27,1-1.85,2.11-3.57,3.26-5.32.88-1.33,1.68-2.58,2.47-4a28.6,28.6,0,0,0,2.51-6.06,2.4,2.4,0,0,0-1.35.66q-2.25,1.62-4.43,3.33c-1.48,1.12-2.92,2.27-4.35,3.45A2.33,2.33,0,0,0,21.46,107.83Z"/><path class="cls-54" d="M19.63,107c-1.47,4.46-3.63,6-6.52,9.2C11.49,118,10.24,119.84,8,120.9L15,119.05l-7.84,1.5,6.61-.92L7,119.7l5.19.17c1.35.21-7.89-2.64-10.92-1.79l-.28.1.3,2.25a15.93,15.93,0,0,0,2.56,4.48,25.48,25.48,0,0,0,7.91,7.59l3.7,1.94,3.9,1.09c2.68.71,5.35,1.22,7.72,2.7l-2.36-3.43,1.77,3.09-1.78-4.15L16.51,136l4.71-.27L12,135.12l4.91.64-7.72-1.84,4,1.09L5.52,132.3c-.35-.12-1.37-.62-1.73-.38s.26.5.45.59a45.71,45.71,0,0,0,7.69,3.2l4.61.87a15.74,15.74,0,0,1,7.55,3.18,3.21,3.21,0,0,0,3.52-.58c.61-.36-2.27-5.12-2.64-5.37A17.11,17.11,0,0,0,21,131.63a40.84,40.84,0,0,1-8.12-5.24,6.58,6.58,0,0,1-2.42-2.89,2.68,2.68,0,0,0-1.29-2.87l0,.35a4.48,4.48,0,0,1,2-.59L3.48,119a13.61,13.61,0,0,0,3.12,2.14c.64.37,3.62-.3,4-.35,1.1-.16,3-.09,3.94-.75a12.19,12.19,0,0,0,3.23-2.92c1.13-1.64,2.32-3.22,3.54-4.8a43.67,43.67,0,0,0,3.43-5c1.07-1.89.82-1.58,1.67-4.22a.94.94,0,0,0-.86.16c-.92.46-1.83,1-2.71,1.48S20,106,19.63,107Z"/><path class="cls-54" d="M18.58,106.33a22.48,22.48,0,0,1-6.4,9,13.05,13.05,0,0,1-4.82,4.15l2.8-.44c-2.39.07-4.07-1-6.15-2-1.16-.51-2-1.14-3.25-.9l-.18.11c.17,2.75,0,2.15,1.26,4.77a36.7,36.7,0,0,0,6.63,9.08l4,3.44a19.35,19.35,0,0,0,8.68,2.66l3.84.51a4.5,4.5,0,0,1,4.73,2.05v-1.61l-5.05,1.18a45.6,45.6,0,0,1-5.51-2.16,51.33,51.33,0,0,1-5.48-2.55A38.07,38.07,0,0,0,3.93,130c-.3-.13-.87-.42-.89.11s1.47,1.06,1.77,1.18c1.67.69,3.4,1.2,5.08,1.86L15,135.55a56.72,56.72,0,0,0,9.84,4.19c1.78.6,1.18.56,2.83.39s1.07,0,2.56-1.19c.28-.22.18-1.35,0-1.62a2.26,2.26,0,0,0-1.62-1.23l-3.42-.48a41.36,41.36,0,0,1-5.87-.66,7,7,0,0,1-5.67-3,15.27,15.27,0,0,1-6.64-7l-2.3-4.69a1.4,1.4,0,0,1,.3-1.94l-3.49-1.62c1.94,1.43,3.73,3.42,6.27,3.43a6.3,6.3,0,0,0,3.68-1.1c2.15-1.68,3.73-4.17,5.51-6.21a29.14,29.14,0,0,0,1.89-2.27,13.06,13.06,0,0,0,1.95-4.87C21,104.91,18.74,105.84,18.58,106.33Z"/><path class="cls-54" d="M20.44,108.9l-1,2.89.17-.36A15.56,15.56,0,0,1,17,114.94q-1.49,1.68-3.07,3.26a52.92,52.92,0,0,1-3.85,4.21l2.8-1.54-3.07,1.57,10.56-4.24L4.79,120.75l10.3-.43c2.5.05-9.27-1.13-12.43.05l-.34.14A12,12,0,0,0,3.5,125.4l2.66,3.42a20.17,20.17,0,0,0,4.85,4,22.86,22.86,0,0,0,7.3,3.45,67.3,67.3,0,0,1,8.2,2.26l-.28-.23,1.2,1.72-4.37-11.54-10,8.14,9.82-2.26-11.15.87,6.5-.24a66.73,66.73,0,0,0-12.29-.84.88.88,0,0,0-.7.15c-.15.24,1.81.56,1.88.57,5.45.9,8.41.93,14.46,5l2.27,1.63a3.89,3.89,0,0,0,3.89-1.27l0-.38a21.36,21.36,0,0,0-1.18-3.8,71.05,71.05,0,0,0-3-7.07c-1.2-2.25-4.12-3.38-6.09-4.8l.15.32-.6-1.37a1.79,1.79,0,0,1-1.76-.76c-.4-.43-.84-.67-.4-1.13L3.22,120.5a18.26,18.26,0,0,0,5.45,2.74,2,2,0,0,0,1.38-.25q2.43-.9,4.81-1.9T19.61,119a2,2,0,0,0,1.15-.8,25,25,0,0,0,2.64-4.08l-.22.32c1.8-2.62,3.78-5.23,5.33-8a29.75,29.75,0,0,0,2.55-6,2.19,2.19,0,0,0-1.3.65c-1.43,1.07-2.85,2.17-4.24,3.29s-2.79,2.24-4.15,3.41A2.16,2.16,0,0,0,20.44,108.9Z"/><g class="cls-55"><path d="M90.77,77l1,.52a.16.16,0,0,0,.21,0,.15.15,0,0,0-.06-.21l-1-.52a.15.15,0,1,0-.15.26Z"/></g><g class="cls-55"><path d="M94.31,77.1v0h0l0,0s0,0,0,0h0l.06,0,.06,0h0l.13,0h.2l.11,0,0,0,.06,0a.15.15,0,1,0,.15-.26.77.77,0,0,0-.64-.11A.72.72,0,0,0,94,77a.14.14,0,0,0,.1.18.16.16,0,0,0,.19-.1Z"/></g></g></g></svg>