<svg xmlns="http://www.w3.org/2000/svg" viewBox="0 0 457 457"><defs><style>.cls-1{fill:#efefef;}</style></defs><title>Asset 2</title><g id="Layer_2" data-name="Layer 2"><g id="Layer_1-2" data-name="Layer 1"><path class="cls-1" d="M275.37,228A47.37,47.37,0,1,1,228,180.63h0A47.37,47.37,0,0,1,275.37,228ZM355,53.68a47.37,47.37,0,1,0,47.32,47.42V101A47.38,47.38,0,0,0,355,53.68ZM101,307.59a47.37,47.37,0,1,0,.08,0Zm356,92.94A56.48,56.48,0,0,1,400.52,457h-344A56.48,56.48,0,0,1,0,400.56v-344A56.48,56.48,0,0,1,56.44,0h344A56.48,56.48,0,0,1,457,56.44V400.53Zm-20-344A36.48,36.48,0,0,0,400.57,20h-344A36.48,36.48,0,0,0,20,56.44v344A36.48,36.48,0,0,0,56.44,437h344A36.48,36.48,0,0,0,437,400.56v-344Z"/></g></g></svg>