<svg xmlns="http://www.w3.org/2000/svg" viewBox="0 0 456.86 456.86"><defs><style>.cls-1{fill:#efefef;}</style></defs><title>Asset 2</title><g id="Layer_2" data-name="Layer 2"><g id="Layer_1-2" data-name="Layer 1"><path class="cls-1" d="M355.43,54.11A47.37,47.37,0,1,1,308,101.43a47.37,47.37,0,0,1,47.42-47.32ZM54.1,355.43A47.37,47.37,0,1,0,101.43,308,47.37,47.37,0,0,0,54.1,355.43ZM400.43,20h-344A36.48,36.48,0,0,0,20,56.43v344a36.48,36.48,0,0,0,36.43,36.43h344a36.48,36.48,0,0,0,36.43-36.43v-344A36.48,36.48,0,0,0,400.43,20m0-20a56.54,56.54,0,0,1,56.43,56.43v344a56.54,56.54,0,0,1-56.43,56.43h-344A56.54,56.54,0,0,1,0,400.43v-344A56.54,56.54,0,0,1,56.43,0Z"/></g></g></svg>