<svg xmlns="http://www.w3.org/2000/svg" viewBox="0 0 736.98 454.8"><defs><style>.cls-1{fill:#728372;}.cls-2{fill:#687c71;}.cls-3{fill:#54625b;}.cls-4{fill:#687a6d;}.cls-5{fill:#5a726b;}.cls-6{fill:#5a7570;}.cls-7{fill:#293b35;}.cls-8{fill:#738373;}.cls-9{fill:#687c74;}.cls-10{fill:#6d7b6f;}.cls-11{fill:#283b34;}.cls-12{fill:#637369;}.cls-13{fill:#212d28;}.cls-14{fill:#6a7a6b;}.cls-15{fill:#778672;}.cls-16{fill:#111814;}.cls-17{fill:#78846f;}.cls-18{fill:#485a54;}.cls-19{fill:#354b45;}.cls-20{fill:#243534;}.cls-21{fill:#2b393b;}.cls-22{fill:#5d6e66;}.cls-23{fill:#161f1e;}.cls-24{fill:#1d2625;}.cls-25{fill:#7f8c74;}.cls-26{fill:#2b4037;}.cls-27{fill:#3c4b3d;}.cls-28{fill:#35443b;}.cls-29{fill:#354238;}.cls-30{fill:#4e5f59;}.cls-31{fill:#3a484b;}.cls-32{fill:#535d55;}.cls-33{fill:#4c5852;}.cls-34{fill:#303d31;}.cls-35{fill:#384c42;}.cls-36{fill:#525f57;}.cls-37{fill:#667669;}.cls-38{fill:#5b675b;}.cls-39{fill:#314035;}.cls-40{fill:#5a665c;}.cls-41{fill:#556158;}.cls-42{fill:#45524b;}.cls-43{fill:#3e4f4a;}.cls-44{fill:#394d4a;}.cls-45{fill:#737a6c;}.cls-46{fill:#3d5553;}.cls-47{fill:#2b3431;}.cls-48{fill:#5e6f66;}.cls-49{fill:#676d66;}.cls-50{fill:#445b58;}.cls-51{fill:#697271;}.cls-52{fill:#868a78;}.cls-53{fill:#526059;}.cls-54{fill:#7b7f6d;}.cls-55{fill:#7e8575;}.cls-56{fill:#212727;}.cls-57{fill:#838978;}.cls-58{fill:#878e86;}.cls-59{fill:#757b6b;}.cls-60{fill:#7d8270;}.cls-61{fill:#314740;}.cls-62{fill:#696f67;}.cls-63{fill:#838b8a;}.cls-64{fill:#646e64;}.cls-65{fill:#545c5a;}.cls-66{fill:#a4a49c;}.cls-67{fill:#999e91;}.cls-68{fill:#292e27;}.cls-69{fill:#546563;}.cls-70{fill:#4f6869;}.cls-71{fill:#bec5c1;}.cls-72{fill:#43514e;}.cls-73{fill:#3c4944;}.cls-74{fill:#8b9375;}.cls-75{fill:#445554;}.cls-76{fill:#506661;}.cls-77{fill:#39453d;}.cls-78{fill:#2d403c;}.cls-79{fill:#151e19;}.cls-80{fill:#5b6b69;}.cls-81{fill:#5e706c;}.cls-82{fill:#53675e;}.cls-83{fill:#374540;}.cls-84{fill:#3c5151;}.cls-85{fill:#19231c;}.cls-86{fill:#0d1411;}.cls-87{fill:#3a4747;}.cls-88{fill:#314846;}.cls-89{fill:#263c3b;}.cls-90{fill:#58766f;}.cls-91{fill:#7c8a73;}.cls-92{fill:#20312c;}.cls-93{fill:#1e2b28;}.cls-94{fill:#2f4344;}.cls-95{fill:#213331;}.cls-96{fill:#314a4c;}.cls-97{fill:#374649;}.cls-98{fill:#1d2a26;}</style></defs><title>Asset 5</title><g id="Layer_2" data-name="Layer 2"><g id="Layer_1-2" data-name="Layer 1"><path class="cls-1" d="M517.33,196.26C479.93,172.55,426.92,172.51,392,199,379.74,156.39,478.78,136.6,512.87,158,530.38,201.84,495,173.21,517.33,196.26Z"/><path class="cls-2" d="M206.49,210.24c-5.63-31.75-44.44-27.85-70.83-19.85C131.3,184.46,252.8,44.38,206.49,210.24Z"/><path class="cls-3" d="M641.08,106.32c34,13.47-25.74-3.39-30.75,25.89,3.07-1.24,7.76,10.69,21.43,11.56-.81-2.07-29.93-13.91-8.68-12.56,71,48.5-69.52-17.46-65.64,9.14-33.59-27.41-3.11-23.13,28-18-.56-2.33-126-38.9,10.73-21.94C526.23,87.89,548.94,80.8,641.08,106.32Z"/><path class="cls-4" d="M557.35,140.22c-26.87-17.56,90.37-5.56,103.31,33.21.33-3.59-52.86,3.34-48.09,22.24C619.72,214.69,601.68,173.38,557.35,140.22Z"/><path class="cls-5" d="M347.19,204.53c-3.37-22.71-41.5-62.12-84.46-45.73-8.61,4.72-37.84-11.54-38.31,11-19.39,42,27.2-13.4-10.89,38.59C206.84,140.94,239.27,125,306,140.27,304,140.52,379,209.25,347.19,204.53Z"/><path class="cls-6" d="M517.33,196.26c-24-17.93,6.6,4.11-5.38-41.41-14.59,13.38-22.57-24.6-85.53,7.46-20.2-7.58-18.18-.33-39.79,40.74-14.16,14.12.74-17.23,12.14-52.08,16.46-18.1,32.38-10.1,51.93-7.5C449.74,137.21,540.55,124.09,517.33,196.26Z"/><path class="cls-7" d="M327.39,118.32c.09.21,11.95-6.6,9.72-2,37.55,2.25.95-.3-2.82,14.83,13,8.39-40.63,16.79-64-17.77-6-6.62-8.59,8.33-29.79-7.13,1.6,7.07-41.65,15.79-23.54-17.11C219.06,56.22,291.44,138.88,327.39,118.32Z"/><path class="cls-8" d="M230.43,186.24c-27.68-17.26,62.47-5.67,45.86-24.49-1.9-5.45-15.25,12.29-18.72.9-.78,10.48-13.28-3.33-29.48,6.48-5.27,18.9-16.05,38.8-4.61-4.9-7.66-4.55,61.56-17.46,75.51-7.38,6-3,69.72,42.39,41.73,41.13-9.71-4-64.91-60.09-49.72-21.31C270.7,180.57,264.26,178.25,230.43,186.24Z"/><path class="cls-9" d="M102.16,177.33c-102.64-.8,153.44-103.52,59.63-24.49C115.49,207.7,158,108,96.06,161.07,100.49,161.84,121,170.87,102.16,177.33Z"/><path class="cls-10" d="M61.35,174.17c5.86-13.13-33.28-20.75-36.81-30.06C45.49,119.65,141.12,120.44,61.35,174.17Z"/><path class="cls-11" d="M488.3,92.1c4.14-5.26,44-12.7,23.48,5.38,5.35-3.86,34.07,8.6,1.34,6.83-1.64,14.78-7.28-9.62-39.44,2.86-29.15,18.6.9,29-80.49,31,.2-8.22,16.37-5.72-4.83-19.89C442.4,121.86,415,134.64,488.3,92.1Z"/><path class="cls-12" d="M612.3,131.27c-11.62-43.7,119.79,8.79,73.2,15,1.86,7.26,15.13-3.83,26.82-2.08,8.64,3.19-10.25-.35-25,15.19l0,0c-20-8.26,5.88-56.91-45.46-15.47C641.07,154.8,633,130.57,612.3,131.27Z"/><path class="cls-13" d="M409.36,120.28c1.43,10.57-18.06-10-19.15-.25,24.33,11.46,1.91,4.19-7,39.51-10.49,4.5-4.38-25.7-6-18.94-10.73-3.12-23.15-12.76,7.31-18.67-1.58-8.93-57.06-2-46.15-7.7,14.8.35,9.76-13.46,22.22-17.65,15.24,21.53,11.73-8.2,9.29-27.43-5.79.75,7.21-25.39,4.29-4.92C375.09,100.47,377.79,107.55,409.36,120.28Z"/><path class="cls-14" d="M605.18,197.42c-19.23-20-67.38-19.16-75.88,12.79C507.3,145.44,564.92,123.36,605.18,197.42Z"/><path class="cls-15" d="M102.16,177.33c29.18-12.38-47.07-10.26,28.5-36.17,27,61-17.53,16.89-7.2,48.94C120.9,187.76,120.45,182.49,102.16,177.33Z"/><path class="cls-16" d="M347.35,232.21c-3.42-1.09-1.07-36.4,10.73-5.63-2.59-22.38,9.42-33.14,9.67,4.28-5.46-22.91,40.2,7.92,0,11.86-4.69,13.4,30.55,1.46-6.86,16,33.33,4.23,8.45,2.25,6.5,12.19,8.08-4.32,19.53,2.65-1.18,8.63-2.32,2.89,6.87,12.89-1.64,14.19C346.58,288.21,365.49,246,347.35,232.21Z"/><path class="cls-17" d="M641.31,147.25c12.75-18.35,30.21-40.87,46.1,12.08C672.53,163.85,659.6,169,641.31,147.25Z"/><path class="cls-18" d="M419.37,135.24c55.38.42,11.18-21.41,69.67-16.14,13.24-41.89,45.11,77.69,33.23,94.11C516.28,123.22,508.41,132.62,419.37,135.24Z"/><path class="cls-19" d="M218.41,112.24c21.86.06,20.7-19.13,34.58,2.56,14.36-12.4,46.47,11.8-11,4.56-3.48-8.56-3.23-7.21-12.6,13.62-14.52,21.63-14.15,55.62-18,78C193.71,192.65,236.07,121.17,218.41,112.24Z"/><path class="cls-20" d="M373.27,23.29c9.91,35.5.61-27.42,9.94,8.74-3.8-21.29,10.76,9.46-3.4,14,5.51,6.67-20.16,14-27.93,1.13-5.08-14.56-6.23-30.38,3.82-11.54C373.45,6.44,357.56,44.16,373.27,23.29Z"/><path class="cls-21" d="M376.47,283.35C373.83,314.59,372.81,369,368.1,394c3.84,8.62-15.74-108.76,4.74-95.43C372.5,297.69,374.08,277.86,376.47,283.35Z"/><path class="cls-22" d="M715.45,145.3c-3-.86-43.49,10.14-27.09-1.38,10.48,4.78,3.69-3.17-6.05-16.66,14.71,5.9,43,6.68,54.67,28.07C729.51,150.53,723.5,145.57,715.45,145.3Z"/><path class="cls-23" d="M358.32,54.41c10.47-20,9.78,21.19,9.06,32-2.81-32,11.19-9.89,4.78,15.53C343.63,104.67,370.34,73.76,358.32,54.41Z"/><path class="cls-24" d="M363.42,355.13c-.35,0,7.31,27.65,10.49,69.72-1.87,3.26-9-28.63-13-64.1,2.54-9.78-2.87-83.18-1.09-70.51C368.18,295.37,368,288.58,363.42,355.13Z"/><path class="cls-25" d="M279.39,177c-1.05-1.27,17.14,2.78,10.4-4.63C266.64,140.1,359.09,194.54,279.39,177Z"/><path class="cls-26" d="M522.26,213.21c6.64-15.57-7.06-39.2-3-57.94C528.79,154.94,532.85,254.92,522.26,213.21Z"/><path class="cls-27" d="M655.32,159.22c-1.94,1.4,20,5.49,27.62,32.86C675.69,186.26,611.76,126.94,655.32,159.22Z"/><path class="cls-28" d="M44.41,131.21c3.71.34-45.95,17.47,8.88-9.18h0c2.79-2.61,5.12.72,19.16-7.81h0C119.08,101,82.9,121.12,44.41,131.21Z"/><path class="cls-29" d="M703.4,133.05c-7.14,5.89-30.75-13.9-46.89-14.56C641.78,119.75,620.86,92.09,703.4,133.05Z"/><path class="cls-30" d="M26.45,135.27c15.78,0,10.59,1.48-3.91,12.06C18.93,149.57,16,143.61,0,154.2,3.81,143.94,14.94,138.31,26.45,135.27Z"/><path class="cls-31" d="M361.22,342.87c-.23,25.48,25.26,153.09,3.13,45.84C362.28,410,358.92,361.24,361.22,342.87Z"/><path class="cls-32" d="M517.36,89.24c-21.47-4.18,17.66-17.65,32.94-8.7-10.6.82-49.6,8.45-9.09,7.44C538,93.4,528.53,93.75,517.36,89.24Z"/><path class="cls-33" d="M151.52,91.13c-1.71,1.53,67.48-8.69,56.08,1.68C204.72,90.62,99.62,104.13,151.52,91.13Z"/><path class="cls-34" d="M61.35,174.17c29.6-26.26,17.35,1-9.11,17.16C53.35,184.35,57.86,179.51,61.35,174.17Z"/><path class="cls-35" d="M605.18,197.42c-26.4-32.4,4.19-23.26,10.86,16C614.43,210.1,609.59,211.37,605.18,197.42Z"/><path class="cls-36" d="M376.47,283.35c1.34-2.63-5.43-14,11-63.46C390.47,229.38,382.09,263.42,376.47,283.35Z"/><path class="cls-37" d="M123.47,190.11c-11.08-17.84-8.25-14,17.89-14.81C138.29,175.36,122.58,204.19,123.47,190.11Z"/><path class="cls-38" d="M409.36,120.28c10.87,5.36,44.18-13.72,52.92-16C450.51,116.54,439.3,131,409.36,120.28Z"/><path class="cls-39" d="M123.32,195.17c14.68-23,17.71-2.39-4.6,18C120.52,206.83,118.12,200.13,123.32,195.17Z"/><path class="cls-40" d="M358.44,283.17c-.06,1.71-.11,3.43-.17,5.15-.71-10.39-14.33-51.86-7.38-52C360.52,249.67,354.56,263.68,358.44,283.17Z"/><path class="cls-41" d="M211.44,90.71c1.68-9.18-.28-2.9-26.48-10.34-.29-6.44,48.95,2.29,28.63,1.34C216.43,83.62,230.88,89.7,211.44,90.71Z"/><path class="cls-42" d="M70.44,120.25c1.54-2.67,27.34-4,22.1-9.4-1.6,3.22-9.17-4.11-.2-3.66C132.68,92.27,94.71,126.89,70.44,120.25Z"/><path class="cls-43" d="M447.37,117.25c9.44-8.15,20.43-26.72,40.93-25.15C472.14,91.68,462.54,117.56,447.37,117.25Z"/><path class="cls-44" d="M373.27,23.29c-5.42,22-14.53,5.38-6.61-6.76C356.42,10.22,371.77-2.48,373.27,23.29Z"/><path class="cls-45" d="M297.37,122.26c-2.52,2.42-26.94-20.32-10-10.94C294.18,112.5,318.26,121.51,297.37,122.26Z"/><path class="cls-46" d="M388.49,219c-3,.94-22,16.71-10.4-18.13C379.42,217.75,383.77,191.76,388.49,219Z"/><path class="cls-47" d="M208.35,202.28c4.66,1.12,5.38,1,3.07,25.73C202.23,218.82,207.22,214.89,208.35,202.28Z"/><path class="cls-48" d="M674.61,175.08c.8-2.59-26.72-15.93-13.09-14.37C671.34,159,674.29,159.23,674.61,175.08Z"/><path class="cls-49" d="M353.29,34.18c-7.45,9.39,1.24-20.68,2-33.3,3.67.47,1.45,27.08,0,21.12A37.25,37.25,0,0,0,353.29,34.18Z"/><path class="cls-50" d="M281.5,108c1.6,5.23,7.33,6.83,9.89,11.22-11.45-.43-18.43-16.53-30.92-25.18C268.66,97,274.62,103.18,281.5,108Z"/><path class="cls-51" d="M372.24,432.23c2.27-3,.64.39,6.19-.17,1.74,7.44,1.34,15.18,3.19,22.74-1.84-3.45-9.22-10-7.35-18.12C373.11,438.91,372.68,440.79,372.24,432.23Z"/><path class="cls-52" d="M446.36,112.22c-4.27,8.6-20.88,11.77-31,7.17C426.3,119.59,436,114.44,446.36,112.22Z"/><path class="cls-53" d="M297.37,122.26c7.32-3.19,13.28-4.55,30-3.94C319.89,118,307.72,128.7,297.37,122.26Z"/><path class="cls-54" d="M196.15,83.48c20.83-4.64,30.13,11.38-4.71,4.78C195,88.06,217.36,90.34,196.15,83.48Z"/><path class="cls-55" d="M567.59,90.12c-2.72-.78-21.75,2.34-23.22-1.92C549.79,91,568.62,76.37,567.59,90.12Z"/><path class="cls-56" d="M363.38,395.44V387.1C370.76,400.14,369.51,437.77,363.38,395.44Z"/><path class="cls-57" d="M185.54,87.14c-5.92-.26-16,10.34-19.47-3.34C174.1,88.36,171.07,82.58,185.54,87.14Z"/><path class="cls-23" d="M368.42,52.3c11.91,1.14,6.11.09,3.8,13C368,64.81,366.22,63.38,368.42,52.3Z"/><path class="cls-58" d="M383.27,22.38c2.79,20.2-8.25,1-3.77-16.25C380.19,9.06,380.52,10.51,383.27,22.38Z"/><path class="cls-59" d="M641.08,106.32c-3.83,2.15-4,.73-19.75-4C624.56,103.2,636.8,97.45,641.08,106.32Z"/><path class="cls-60" d="M528.48,88.19c-15-.76-11.09-5.69,10-4.82C537.1,85.88,533.35,83.16,528.48,88.19Z"/><path class="cls-61" d="M355.39,244.18c-3.07,0-2.12-1.82-8-12C352.1,233.17,357.12,236.58,355.39,244.18Z"/><path class="cls-62" d="M112.42,104.26c-3.55-.86-4,1.77-20.08,2.93C95.52,109.16,96.32,95.83,112.42,104.26Z"/><path class="cls-59" d="M619.16,101.29c-7-.1-13.14-3.65-19.78-5.19C603.11,98.81,607.85,89.5,619.16,101.29Z"/><path class="cls-59" d="M686.38,125.18c-9.84-3.26-20-5.73-28.08-12.91C660.77,114.84,672.12,115.66,686.38,125.18Z"/><path class="cls-63" d="M371.4,13.27c-4.75-5.35-6.56-7.63-8.92,5.06C359.12,15.66,369.78-6.36,371.4,13.27Z"/><path class="cls-33" d="M116.16,102.12c-.73-3.6,18.37-11.18,13.15-2.8C126.42,99.37,125.83,104.84,116.16,102.12Z"/><path class="cls-64" d="M72.43,114.23c-6.81,6.55-3.54,4.56-19.16,7.81C55.64,119.2,58,120.87,72.43,114.23Z"/><path class="cls-64" d="M90.44,107.38c-3.53,4-9.29,4.46-18,6.85C77.59,109.75,83.43,107,90.44,107.38Z"/><path class="cls-65" d="M379.51,6.13c-.25,15-6.64,13.12.51-6.13Z"/><path class="cls-17" d="M687.37,159.36c2.22-7,7.85-9,14.28-10C696.21,151.74,692.8,157,687.37,159.36Z"/><path class="cls-66" d="M131.42,96.28c-14.77,4.93-24-.15,5-1C135.85,96.34,135.89,98.4,131.42,96.28Z"/><path class="cls-67" d="M151.52,91.13c-.77-2.21-13.46,6.82-11.31-.27C143,90.06,145.32,89.74,151.52,91.13Z"/><path class="cls-59" d="M658.29,112.27c-4.6-2.94-3.06-2,0,0C658.25,114.6,640.1,106.27,658.29,112.27Z"/><path class="cls-25" d="M257.41,180.22c4.11-3.21,4,.33,20.71-2C271.46,181.37,264.34,179.8,257.41,180.22Z"/><path class="cls-68" d="M353.29,34.18c-2-4.27.66-8,1.75-11.92C354.79,24.36,355.56,32,353.29,34.18Z"/><path class="cls-42" d="M116.16,102.12c5.13-3.37,6.15,10.46-3.06,1A3.41,3.41,0,0,1,116.16,102.12Z"/><path class="cls-69" d="M386.58,212.13c-.93-1.08-6-9.15,2.92-10.88C385.77,204.14,386.16,208.13,386.58,212.13Z"/><path class="cls-64" d="M53.29,122c-2.54,3.29-6.37,4-10,5.08A22.86,22.86,0,0,1,53.29,122Z"/><path class="cls-70" d="M348.57,214.34c.87-1.38,1-2.21,0,0C346,224.17,347.66,188.8,348.57,214.34Z"/><path class="cls-10" d="M9.53,148.44c4.15-2.56,8.68-.68,13-1.11C18.37,149.63,13.83,147.68,9.53,148.44Z"/><path class="cls-71" d="M544.38,88.2c-3.43.53-4.75.2-12,0C536.34,86.92,540.36,86.46,544.38,88.2Z"/><path class="cls-14" d="M606,199.41q2.12,4,4.21,8C605.51,206.48,606.75,202.42,606,199.41Z"/><path class="cls-31" d="M373.25,439.31c.12-1.61.23-3.21.35-4.78C375.57,435.7,375,440.78,373.25,439.31Z"/><path class="cls-2" d="M130.55,197.36c.55-1.48-1.8-1.51,5.62-6.39C135.85,193.76,136.37,191.08,130.55,197.36Z"/><path class="cls-25" d="M230.43,186.24h0C234.54,186.83,241.35,187.56,230.43,186.24Z"/><path class="cls-28" d="M22.19,137.07h0C25.15,136.16,22.19,143.63,22.19,137.07Z"/><path class="cls-25" d="M247.43,181.13c3-1.59,5.91-1.2,8.85.05C253.33,182.14,250.38,181,247.43,181.13Z"/><path class="cls-72" d="M136.17,191c-15.44-3.93,27.63-42,53.75-64.16-7.62-18.7,19.72-35.48,8.7-1,3.12,9.52,45.14-48.07,18.81,19.45C221.64,106.18,140.18,166.63,136.17,191Z"/><path class="cls-18" d="M596.38,176.18c1.12,20.26,4.7,9.85-21.41-14.38-23.44-17-36.82-30.67-60.62-18.51,7.78-12.59-34-61.67,13.26-18,39.62,15.79-67.51-48,41.4-5.74,3.87.08,26.4,2.66,16.79,4C510.3,112.4,553.86,131.76,596.38,176.18Z"/><path class="cls-73" d="M581.35,120.24c-4.78,2.9-106.41-22.69-54-17.41-26.14-7.92-18.12-12.64,20.42-13.45.1.19,72.42,10.38,43.25,12.65C551.06,96.17,491.55,87.52,581.35,120.24Z"/><path class="cls-27" d="M612.3,131.27c.67,1.22,30.75,13.13,17.5,13.87C626.54,146.61,596,124.89,612.3,131.27Z"/><path class="cls-74" d="M612,177.53c-7.8,9.65-26.44-38.3-9-35.18C636.33,167.89,637.07,150,612,177.53Z"/><path class="cls-35" d="M593.3,171.27c-5,3.87-9-7.64-18-14.23C572.35,150.09,582.83,156.29,593.3,171.27Z"/><path class="cls-75" d="M348.6,212.28c15.2-36.42-41.15-106.43-125.06-72.67,7.18-3.45,7.8-28.78,18.25-26.14,3.52,22.92,11.15-15.06,55.59,20.95C339.86,121.67,373,178.54,348.6,212.28Z"/><path class="cls-70" d="M222.4,144.22c30.39-30.54,122.49-12.4,126,45-30.05-49.29-116.44-91.1-135-6C215.83,173.63,218.28,159.62,222.4,144.22Z"/><path class="cls-69" d="M383.36,206.2c-10.9,24.09-2.67-61.8,25.32-65.93-1.89-5,83-4,57.83-1C431.2,157.46,403.14,103,383.36,206.2Z"/><path class="cls-76" d="M472.35,140.23c-21.25-15.67-12.92,12.84-42-5,1.43,6.07,66.39-22.86,82,15C500,146.79,500.9,139.84,472.35,140.23Z"/><path class="cls-77" d="M217.39,113.22C202,134,193,134.13,200,107.87c-3.49-2.87-31.66,19.75-45.14,11,68.81-26.22,50-20-19.85-14.25-49.83.53,71.6-22.22,82-11.28C204.52,113.73,216.48,91.69,217.39,113.22Z"/><path class="cls-78" d="M348.6,212.28c20.62-9.94-9.42-67-8.38-73.17C361.87,141.7,371.23,263.1,348.6,212.28Z"/><path class="cls-13" d="M341.39,142.23c-26.92-16.66,26-40.88,21.52-1.13C357.61,139,348.7,139.13,341.39,142.23Z"/><path class="cls-79" d="M361.35,132.22c-16.29-28.63,7.48-15.43,24.55-13.5C384.25,130.21,379.41,121.7,361.35,132.22Z"/><path class="cls-25" d="M223.41,186.23c-22-26.52,91.26-32.78,46.58-12.6C266.62,182.28,251.44,159.15,223.41,186.23Z"/><path class="cls-80" d="M167.46,119.29c31.06-15.5,32.19,8.82.93,27.89,53.19-63-71.34,13.34-74.91,4.81C114.82,137,138.18,124.22,167.46,119.29Z"/><path class="cls-72" d="M167.46,119.29c-31.06,9.76-57.2,17.36-88,47C71.32,163.36,116.44,118.42,167.46,119.29Z"/><path class="cls-81" d="M155.42,119.24c-22.46,6-45.38,14.29-66,33,8.15-26.85-17.21-20.37-45-21C47.64,124.64,180.31,88.4,155.42,119.24Z"/><path class="cls-82" d="M88.43,153.23c-3.33,1.2-27,29.05-26,14.15C64.26,160,78.79,163,88.43,153.23Z"/><path class="cls-83" d="M512.36,105.24c.13-2.6,46.35,41.18-8.49,4.42-4,11.27,20.38.12,11.56,32.18C519.38,175,501.72,99,494.15,113,487.42,145.31,427.11,91.24,512.36,105.24Z"/><path class="cls-84" d="M398.36,147.23c-11.51,3-23.5,101.66-23.87,22,6.25-5.52,7-20.61,17.89-32C413.14,138.06,432.7,125.2,398.36,147.23Z"/><path class="cls-83" d="M521.36,103.24c1,0-13.12,2.33-8.85-1.89C514.31,101.18,515.91,100.87,521.36,103.24Z"/><path class="cls-85" d="M379.38,159.23c-1.84,9.12-.15,6.53-12.92,11.29-5.61,22.58-11.13-5.53-13.85-20.29C348.53,148.49,387.92,138.31,379.38,159.23Z"/><path class="cls-86" d="M375.34,144.21c-25.73.39-33-1.9-9.95-12,6.05,5.57-2.73,9.55,7.05,0C367.38,144.91,394.34,132.1,375.34,144.21Z"/><path class="cls-87" d="M368.39,53c-1.86,9.22,3.61,30.63-2,40.79C367.56,88.35,363.73,48.83,368.39,53Z"/><path class="cls-88" d="M362.41,102.27c.29-1.81,10.77-5.84,10.56,2.12C369.85,105.91,365.35,107.05,362.41,102.27Z"/><path class="cls-89" d="M368.36,135.25c3.84.26-.71,13.79-2.88,2.63C365.74,137.28,365,136.44,368.36,135.25Z"/><path class="cls-90" d="M517.39,147.2c6.28-25.85,32.61-1.95,45.94,5-17.5-.67-36.36-1.18-37,30C527,171.07,520.42,160.91,517.39,147.2Z"/><path class="cls-91" d="M532.31,175.23c6.79-46.24,78.38,14.4,18.94-1.16C551.67,179.44,536.42,185,532.31,175.23Z"/><path class="cls-92" d="M360.37,178.23c22-33.09,14.52,13.64,16.91,45.9,10.09-10.08,12.18-14.12,8.07,9.05-18.28-7.37-7.86-17.8-19.11-2.33C365,215.38,366.06,210.13,360.37,178.23Z"/><path class="cls-24" d="M377.53,269.22c.29-1.62-3.85,41.83-6.17,26-5-1.62,3-7.08-8.32-16.8C364.77,264.57,374.92,287,377.53,269.22Z"/><path class="cls-93" d="M378.34,250.2c-.33,4.35,1.18,8.83-.92,13.06-.08-1.1-.17-2.2-.31-4.07C361.87,266.24,347,259.78,378.34,250.2Z"/><path class="cls-93" d="M379.41,240.28c5,17.82-23.48,9.54-10.42-4.39C372.48,237.66,374.62,246.49,379.41,240.28Z"/><path class="cls-85" d="M360.38,181.22c4.89-9.8,5.27,45.56-1.26,19.36C360,198.78,359.18,187.63,360.38,181.22Z"/><path class="cls-94" d="M366.41,283.23c7-1.76,8,12-2.88,4.77C363.32,286.59,363.05,285.35,366.41,283.23Z"/><path class="cls-95" d="M371.37,270.19c-1,4-15.52,0-6-5C367,265.87,370.53,265.45,371.37,270.19Z"/><path class="cls-93" d="M371.37,270.19c-.13-3.91-3.92-3.4-6-5C369.54,264,386.54,266.33,371.37,270.19Z"/><path class="cls-96" d="M366.39,244.22c3.28-1.07,7.8,8.91-.84,6.56C364.86,249.39,364.26,248.21,366.39,244.22Z"/><path class="cls-97" d="M368.34,292.1h0C375.67,292.46,366.93,301.26,368.34,292.1Z"/><path class="cls-92" d="M379.41,240.28c3.37-3.22,2.32-2.08,0,0C376.62,238.57,388.71,227.56,379.41,240.28Z"/><path class="cls-12" d="M655.32,159.22a21.9,21.9,0,0,1-10-8C649,153.47,653.14,155.1,655.32,159.22Z"/><path class="cls-11" d="M499.35,111.24c-.4-1.15-.8-2.31-1.24-3.55C501,107.85,502.31,113.46,499.35,111.24Z"/><path class="cls-23" d="M380.39,47.27c-3.09,1.4.52-9.25,0,0Z"/><path class="cls-31" d="M368.32,373.08c-7.36,8.8-6.75-25.19-.54-13C367.68,362.46,367.08,363.91,368.32,373.08Z"/><path class="cls-31" d="M363.42,355.13c-1.52-1.81,3.66-16.15,5.3-6.45C369.11,351.54,368.49,353.65,363.42,355.13Z"/><path class="cls-24" d="M374.35,310.08c-.8,10.87-5.91-.86-1.26-6.65C374.07,304.27,374.27,303.27,374.35,310.08Z"/><path class="cls-72" d="M158.36,118.2c13.47-19.13-71.46-1.61-54.24-8.87C114.88,106,276.8,80.85,158.36,118.2Z"/><path class="cls-98" d="M363.3,18.18c-.89-4.72,3.29-6.59,6.74,2.34C367.65,20,364.06,23.28,363.3,18.18Z"/><path class="cls-42" d="M134.43,96.21c-3.12,5.59-8.74,5.4-14,6.05C123.4,102.06,123.47,98.4,134.43,96.21Z"/><path class="cls-11" d="M533.34,128.24c-1.86.3-20-24,1.48-8.08C538,124.36,545.58,133.16,533.34,128.24Z"/><path class="cls-76" d="M398.36,147.23c-2.29-10,33.6-14.71,11-5.85C407.1,141.9,405.34,141.35,398.36,147.23Z"/><path class="cls-13" d="M349.44,139.18c2.18,3.64,38.55,8.08,16.47,12.7-4.93.7-13.44-14.82-12.51,5.34C354.18,153.08,342.63,150.65,349.44,139.18Z"/><path class="cls-7" d="M349.38,139.24c-4.13.55,6.6,22.51,1.41,14.72C350.58,151,331.9,129.52,349.38,139.24Z"/><path class="cls-11" d="M513.39,128.57c-.18,4.41-5.34,5.15-9.24-10.38C507.43,118.52,510.45,123.06,513.39,128.57Z"/><path class="cls-92" d="M375.44,167.35c.88-1.29,5-1.07,2-4.19C380,162.72,384.06,170.87,375.44,167.35Z"/><path class="cls-16" d="M363.81,202.3c.42.13-3.2,5.19-3.38-.12C360.55,201.52,362.51,196.63,363.81,202.3Z"/></g></g></svg>