<svg xmlns="http://www.w3.org/2000/svg" viewBox="0 0 96.56 126.07"><defs><style>.cls-1{fill:#4b483e;}.cls-2{fill:#b3b2b2;}.cls-3{fill:#b3b2b3;}.cls-4{fill:#f0f0ef;}.cls-5{fill:#e3ac99;}.cls-6{fill:#443b37;}.cls-7{fill:#3f3732;}.cls-8{fill:#9b7165;}.cls-9{fill:#d6d6d3;}.cls-10{fill:#0e0d0a;}.cls-11{fill:#39342e;}.cls-12{fill:#1a1610;}.cls-13{fill:#0f0f0b;}.cls-14{fill:#221f1a;}.cls-15{fill:#383125;}.cls-16{fill:#2e2b26;}.cls-17{fill:#45342c;}.cls-18{fill:#1e140f;}.cls-19{fill:#181610;}.cls-20{fill:#37342e;}.cls-21{fill:#ada590;}.cls-22{fill:#241510;}.cls-23{fill:#996d62;}.cls-24{fill:#efeeec;}.cls-25{fill:#49463f;}.cls-26{fill:#d6b0a3;}.cls-27{fill:#adada5;}.cls-28{fill:#ba9387;}.cls-29{fill:#786f62;}.cls-30{fill:#c0a7a3;}.cls-31{fill:#57524e;}.cls-32{fill:#c8beaf;}.cls-33{fill:#3a1813;}.cls-34{fill:#adada1;}.cls-35{fill:#b6a3a4;}.cls-36{fill:#b9adaa;}.cls-37{fill:#bcaaa1;}.cls-38{fill:#53443d;}.cls-39{fill:#ccccc2;}.cls-40{fill:#918675;}.cls-41{fill:#302d25;}.cls-42{fill:#eeebeb;}.cls-43{fill:#d7c6ba;}.cls-44{fill:#bebebf;}.cls-45{fill:#a16d62;}.cls-46{fill:#291c18;}.cls-47{fill:#deb0a2;}.cls-48{fill:#d2c7bf;}.cls-49{fill:#b6b1af;}.cls-50{fill:#100b09;}.cls-51{fill:#d1cfc7;}.cls-52{fill:#d8afa2;}.cls-53{fill:#dba593;}.cls-54{fill:#e2ac9a;}.cls-55{fill:#b2a58b;}.cls-56{fill:#d0c1ae;}.cls-57{fill:#d8aa9e;}.cls-58{fill:#b0867b;}.cls-59{fill:#4c281f;}.cls-60{fill:#d4a890;}.cls-61{fill:#ab938d;}.cls-62{fill:#444745;}.cls-63{fill:#442621;}.cls-64{fill:#23211f;}.cls-65{fill:#c69e94;}.cls-66{fill:#c79f92;}.cls-67{fill:#361810;}.cls-68{fill:#5e605b;}.cls-69{fill:#4f4b45;}.cls-70{fill:#afa5a2;}.cls-71{fill:#584842;}.cls-72{fill:#574a47;}.cls-73{fill:#949390;}.cls-74{fill:#916d61;}.cls-75{fill:#af958d;}</style></defs><title>Asset 2</title><g id="Layer_2" data-name="Layer 2"><g id="Layer_1-2" data-name="Layer 1"><path class="cls-1" d="M44.46,104.31c-3.2.25-3.44-1.45-2.67-4,1.82-5.9,1.94-12,2.09-18.11a14.29,14.29,0,0,1,.58-1.93c.27-1.62.88-3,2.83-2.67,2.27.34,4.16-.85,6.22-1.38a5.24,5.24,0,0,1,1.48,0,10.87,10.87,0,0,1,4.76,2.6,13.08,13.08,0,0,1,2.45,8.69c-.11,6.38-.18,12.74.26,19.11-1.43,3.17-1.37,6.54-1.34,9.92,0,1.91.37,4-1.41,5.4a1.25,1.25,0,0,1-1.43-.09c-1.71-2-1.19-4.38-1.48-6.65-.2-1.57,1-4.22-2-4.13-2.62.07-2.07,2.55-2.32,4.26-.3,2.09.19,4.43-2,5.84-2.58-.75-2.14-2.91-2.28-4.81-.14-2.07.52-4.29-1.09-6.09-2.29-5.86,0-11.68-.19-17.36C46.11,96.6,47.54,101,44.46,104.31Z"/><path class="cls-2" d="M31.48,31.21c2.11-2.67,1-5.43.35-8.24-.38-1.58-2-3.19-.23-4.9C40.17,11.18,49.83,6.16,59.84,1.75a10.62,10.62,0,0,1,3.35.87c3.16,1.32,3.63,3.16,1.23,5.65a72.45,72.45,0,0,1-10.29,8.59c-4.58,1.26-7.35,4.16-8,8.94a2,2,0,0,1-1.25.46c-.64-.21-.71-1.53-2.05-.3C40,28.58,37.62,32,33.5,32.9,32.45,32.78,31.56,32.47,31.48,31.21Z"/><path class="cls-3" d="M82.6,10.09a66.64,66.64,0,0,1,11.9,8c1,4.23,1.17,8.35-1.92,11.93-5.37-8-13.8-10-22.52-11.39a4.86,4.86,0,0,1-3.47-1.66C69.12,11.2,76.25,6.73,80.5,8.2A3,3,0,0,1,82.6,10.09Z"/><path class="cls-4" d="M82.6,10.09c-4.09-2.31-7.31-.83-10.36,2.17-1.73,1.72-3.76,3.13-5.65,4.68-1,.3-1.79,1.44-3.08.67-.07-1.68,1.77-2,2.31-3.27.85-1.39,2.41-2.07,3.24-3.25-1.08.94-2,2.4-3.72,2.74L56.77,19c-2.51.54-3.45-.56-3.1-3,2.14-3.46,6-5,8.64-8,.83-.94,2.75-1.18,2.5-2.71s-2.15-1.17-3.27-1.75A9.73,9.73,0,0,0,59.66,3c-.7-.41-1.5-1-1-1.8.73-1.07,1.91-.74,3-.3C68.83,3.17,76,5.44,83.19,7.76,84,8,85.48,8,84.82,9.47,84.62,9.92,83.37,9.9,82.6,10.09Z"/><path class="cls-5" d="M73.49,39.92c.2.44.4,1.25.62,1.26,9.78.26,11.43,9.46,16.46,14.92a7,7,0,0,1-5.88,2.49c-2.47-.79-3.89-2.77-5.32-4.73C75.59,51,71.93,47.77,67,52.14a2.8,2.8,0,0,1-4-.28,5.55,5.55,0,0,1-.56-4.34,5,5,0,0,1,1.47-2.45c1.17-1,3-.52,4-2C69.67,41.88,70.94,39.75,73.49,39.92Z"/><path class="cls-6" d="M80.49,53.13,84.65,58a1.19,1.19,0,0,1,.3.85c0,.31-.06.46-.12.46-3.29,3.21-8.21,3.28-11.71,6.06-1.69,1.34-4.51,1.71-4.34,4.76-1,1.52-1.81,3.21-4.09,2.85-4.11-1.6-4.43-4.51-2.83-8.11a22.21,22.21,0,0,1,3.39-2.72,14,14,0,0,0,8.86-8.6C76.12,51.55,78.24,51.32,80.49,53.13Z"/><path class="cls-7" d="M19.6,59.92c-1.73-1.49-.54-3,0-4.45a63.87,63.87,0,0,0,3.65-13.72c.14-1.07.92-2.26-.63-3,.15-1.84,1.7-1.79,2.93-2.16.54,0,1.08-.09,1.63-.11,2-.18,3.86,0,4.93,2.07a3.31,3.31,0,0,1-1.58,3.33c-3.15,1-2.7,3.77-2.92,6.12-.46,4.9-.47,9.86-2,14.62a3.41,3.41,0,0,1-1.14.92C21.54,64.1,20.4,62.23,19.6,59.92Z"/><path class="cls-8" d="M44.64,61c-2.31-4-4.65-5.47-8.81-1.57-3.4,3.19-6.69,6.79-11.2,8.64-2.44-1.56-1.51-3.16-.07-4.77a2.14,2.14,0,0,1,.11-.56c2.47-2.32,5.78-3.82,7.17-7.22,1-1.29,2-2.61,3-4,1.47-2,3.09-2.24,5-.63,2.13,1.79,5.22,2.33,6.66,5,.91,1.69,2.44,3.29,1,5.44A2.31,2.31,0,0,1,44.64,61Z"/><path class="cls-9" d="M61.64.89c-1.18.21-3-.18-2,2.1-7.72,3.84-15.41,7.7-22.4,12.83-1.65,1.2-3.21,2.93-5.66,2.25-.35-1.83-.51-3.26,1.69-4.46,7.77-4.2,16-7.57,23.35-12.53C58.13.07,59.92-.65,61.64.89Z"/><path class="cls-10" d="M68.78,70.12c-3.2-1.62-.82-3,.37-4C73.62,62.36,79,60.39,84.62,59c2.15,1.27,2.26,3,1.06,5-4.23,3.07-9.64,2.88-14.17,5.13A28.69,28.69,0,0,1,68.78,70.12Z"/><path class="cls-11" d="M44.46,104.31c.44-4.39.92-8.78,3.13-12.94,0,5,0,10,0,14.95,0,1.11-.7,2.38,1.08,2.74-.71,3.52-.35,7.1-.54,10.64-.23,4.23-1.75,5.12-6.14,3.82C44,117.28,43.81,110.74,44.46,104.31Z"/><path class="cls-12" d="M60.61,87a25.23,25.23,0,0,0-2-8c-1.43-1.65-.82-3.73-1.22-5.61.17-1.41.66-2.59,2.22-3,2.14.2,3.73,1,3.51,3.52.54,6,4.08,11.64,2.43,18-2,.75-2.84-.63-3.7-2C61.52,89,61.47,87.82,60.61,87Z"/><path class="cls-13" d="M25.56,38c-1,.06-2.13-.16-2.93.78-6.32,1.3-12.65,2.59-19,3.91C2.14,43,.6,43.47.1,41.36c-.6-2.59,1.58-2,2.83-2.24,6.86-1.15,13.73-2.2,20.6-3.28.86-.42.69-2.73,2.23-1.6C27.14,35.26,26.68,36.79,25.56,38Z"/><path class="cls-14" d="M58.86,122c1.51-3,.66-6.19.67-9.28,0-2.28.18-4.28,2.2-5.68.11-1.17.14-2.43,1.92-2h0c.6,4-.11,8.1.37,12.17.29,2.52.93,4.36,3.12,5.6,1.84.68,4-.19,5.77,2.18H58.74A1.84,1.84,0,0,1,58.86,122Z"/><path class="cls-15" d="M53.64,77c-2,1.44-3.51,4-6.74,2-1.53-1-1.09,1.62-2.14,2-2.21-4.45,1.11-8.21,1.5-12.33.1-1.79-2.38-2.64-1.69-4.63l.19-1c5.72-2.51,5.72-2.51,7,2.85a6.78,6.78,0,0,1,0,2.06C49.63,71.53,52.93,74,53.64,77Z"/><path class="cls-16" d="M42,123.52c3.88.75,4.74-1.19,4.77-4.68,0-3.31-1.48-7.08,1.91-9.78,2.35,3.72-.35,8.22,1.85,12a2.34,2.34,0,0,1,1,1.25c.1,1.42.2,2.84-1.86,2.84h-13c-.45.11-1,.11-1.07-.41-.17-.9.51-1.31,1.21-1.63C38.5,123.47,40.32,122.47,42,123.52Z"/><path class="cls-17" d="M50.65,66c-.63-3.62-3.21-3.41-5.89-3l-.12-2,3.06-.13a3.09,3.09,0,0,1,2.52-1.42c3.29-.1,5.7-1.25,6.68-4.68A1.41,1.41,0,0,1,59,54c2,2.31,1.54,5.1,1.53,7.8-.53,1.59.33,3,.71,4.42-.54,1.61.35,3.71-1.65,4.82-1,.77-.8,1.91-.91,3a1.13,1.13,0,0,1-1.3.08,3.75,3.75,0,0,1-.8-1.13c-.93-2.29.84-6-3.43-6.53A3.11,3.11,0,0,1,50.65,66Z"/><path class="cls-18" d="M53.67,16l3.1,3a7,7,0,0,1,.73,5,1.34,1.34,0,0,1-1.18.41c-1.8-1-3.71-.39-5.58-.37-1.29-.23-2.41-.09-3,1.28a2.53,2.53,0,0,1-1.63,1l-.62-.25C46,17.87,47,16.63,53.67,16Z"/><path class="cls-19" d="M65.69,95.15c5.49,3.68,7.11,8.92,4.57,15.77-1.12-2.83-2.37-5.25-4.63-6.91a4.68,4.68,0,0,1-1.4-3.14C64.3,98.86,63.62,96.65,65.69,95.15Z"/><path class="cls-20" d="M65.46,101l.17,3.06a1.52,1.52,0,0,0-2,1l-1.92,2c-2.3-4.7-.56-9.7-1.08-14.53a51.9,51.9,0,0,1,0-5.44,3.34,3.34,0,0,1,1.93,2.08C64.11,92.91,63.59,97.23,65.46,101Z"/><path class="cls-21" d="M47.88,67.73c1.35,2.13.26,4-1.05,5.44-2.2,2.32-2.47,4.91-2.07,7.8l-.88,1.27c-.85-2.68.94-5.8-1.34-8.25a6.63,6.63,0,0,1-.35-3.88c.12-1.53-.9-3.53,1.08-4.45C45.41,64.66,46.42,66.85,47.88,67.73Z"/><path class="cls-20" d="M67.14,122.75c-3.51.39-4.85-1-4.59-4.67.31-4.37,0-8.79,1.1-13.1C65.43,110.78,64.54,117.11,67.14,122.75Z"/><path class="cls-22" d="M57.67,29c1.87,2.06,1.82,5.19,3.95,7.1a3.11,3.11,0,0,1,1.51,2.25,22.1,22.1,0,0,1,1.4,4,3.18,3.18,0,0,1-.59,2.13,2.73,2.73,0,0,1-3.42,1,8.68,8.68,0,0,1-3.07-4.32c-.6-2.65.17-5.52-1.33-8C55.89,31.44,56.14,30,57.67,29Z"/><path class="cls-23" d="M85.68,64c-.35-1.66-.71-3.32-1.06-5l0-1c2-.41,3.51-2.61,5.92-1.89C92.25,60.78,89.68,62.83,85.68,64Z"/><path class="cls-24" d="M92.58,30C94,26.13,94,22.06,94.5,18.06c2.23-1.34,2.15.48,2,1.66-.66,4.79-1.49,9.55-2.37,15C92,33.06,92.81,31.37,92.58,30Z"/><path class="cls-25" d="M65.46,101c-2.38,1-1.72-1.13-2-2.09-1-3.18-1.79-6.4-.9-9.76.8,1.16,1.54,2.39,3,2.84.4,1.06-1.39,2.21.14,3.21Z"/><path class="cls-26" d="M24.56,63.31c0,1.59.05,3.18.07,4.77-3.26.25-6.37-4.81-5-8.16Z"/><path class="cls-27" d="M49.64,125.11c1.62-.56,1.29-1.91,1.25-3.13a8,8,0,0,1,7.56.07l.41-.09-.12,3A10.42,10.42,0,0,1,49.64,125.11Z"/><path class="cls-28" d="M57.67,29a5.11,5.11,0,0,1-1.07,4.09l-.59.32c-1.42.27-2.63-.4-3.9-.86-1.62-.47-3.21-1-2.57-3.24a4.22,4.22,0,0,1,.8-1.16,4.28,4.28,0,0,1,1.19-.73,5,5,0,0,1,1.37-.22c1.5.4,3.21-.58,4.6.66Z"/><path class="cls-29" d="M25.56,38c-.19-1.18.86-3.51-2-2.16.72-4.85,5.49-2.77,8-4.63a2.07,2.07,0,0,0,2.07.81c.92.42,1.62,1,1.4,2.14a2.35,2.35,0,0,1-1.55,1.32c-2.62-.29-5,.1-6.67,2.43Z"/><path class="cls-30" d="M59.54,71.05l1.09-5c.4-1,1-1.55,2.11-1A7.65,7.65,0,0,0,64.69,73l-1.57,1C63.31,71.31,60.48,72.33,59.54,71.05Z"/><path class="cls-31" d="M68.52,36c.69-.5,1.6-.92,2.18-.21,1.2,1.47-1,2.11-1,3.34-.73,2.57-.82,5.75-4.9,5.08C64.18,40.59,65.27,37.77,68.52,36Z"/><path class="cls-32" d="M47.88,67.73c-5.17-2-5.17-2-5.34,6.26-1.11-3.69-2.63-7.46,2-10C45.86,65.08,47.81,65.56,47.88,67.73Z"/><path class="cls-33" d="M57.5,27.83c-1.63-.33-3.13,2.17-4.83.21-.59-3,1.08-4,3.68-4.1l1.15,0Z"/><path class="cls-34" d="M36.79,123.07c-.59.65-.82,1.31-.14,2-2.35,1.49-4.61,1-7.11-.32C31.73,122.59,34.47,123.69,36.79,123.07Z"/><path class="cls-35" d="M68.52,36l-3.78,7.93-.43.49a1.08,1.08,0,0,1-1.07-.53L63.53,42a8.19,8.19,0,0,1,2-6.49,4.32,4.32,0,0,1,1.19-.74Z"/><path class="cls-36" d="M61.7,39c0-1-.06-1.94-.08-2.91.93-3.44,2.85-3,5.11-1.3l-.09.25C64.55,35.78,65.56,40.42,61.7,39Z"/><path class="cls-37" d="M64.74,43.88c3-.17,2.93-3.56,4.92-4.8l.74.88c1,2.14-1.79,2.81-1.76,4.57-1.17,1.31-2.37,2.42-4,.61a.69.69,0,0,1-.26-.62c0-.23.08-.35.14-.35Z"/><path class="cls-38" d="M68.64,44.53c-.55-2,1.35-3,1.76-4.57,1.07-.79,1.33-2.89,3-2.52,1,.22.44,1.6.12,2.48Z"/><path class="cls-39" d="M58.45,122.05c-2.53.83-5.05,1.35-7.56-.07l-.39-1a75.48,75.48,0,0,0-.19-8c-.37-3.07.81-3.82,3.74-4.29,4-.64,5,.61,4.67,4.32C58.43,116.05,58.53,119.06,58.45,122.05Z"/><path class="cls-40" d="M53.64,77c-3.63-2.12-5.17-5-3.25-9.09,3.88.68,4.21,4.76,6.58,6.89,0,1.74-1.1,2.08-2.52,2A1.88,1.88,0,0,0,53.64,77Z"/><path class="cls-41" d="M54.45,76.83l2.29-1.76a1,1,0,0,1,1-1.06h.88c1.25,1.68.28,3.36,0,5A6.29,6.29,0,0,1,54.45,76.83Z"/><path class="cls-42" d="M34.79,33.86,33.55,32c3-2.46,6-4.86,8.94-7.39,2.52-2.18,2,0,2,1.36.65,2.2,1,4.38-.43,6.44C41.27,34.63,38.22,35.51,34.79,33.86Z"/><path class="cls-43" d="M43.6,31.9c.4-1.95-.77-4.16.94-5.91a7.11,7.11,0,0,0,.92.06l.27-.09a7.85,7.85,0,0,1,1.07,1c1.2,2.31,2.6,4.67-1.29,5.88A2.12,2.12,0,0,1,43.6,31.9Z"/><path class="cls-44" d="M65.34,13.83c2.34-2.29,4.23-5.16,7.7-6.06a21,21,0,0,1-7.22,6.57A1.94,1.94,0,0,0,65.34,13.83Z"/><path class="cls-45" d="M80.49,53.13c-2.34-.36-4.67-.7-6,2a9.6,9.6,0,0,0-4.83,2.17C67.65,59,65,61.08,62,58.46c-.57-2.53-.52-4.87,1.86-6.55,1.22-.47,2.49-.85,3.66-1.44,1.49-.76,2.07-4.22,2.8-3.47C73.23,50,78.58,48.76,80.49,53.13Z"/><path class="cls-46" d="M63.85,51.91q-.6,3.48-1.18,7a3.85,3.85,0,0,1,1.75,2.5c-.77,3.77-2.81,4-5.65,2-.09-3.2-.18-6.41-.26-9.61a2.52,2.52,0,0,1-.58-2.14c1.31-2.2,1.59-5.68,5.6-4.56Z"/><path class="cls-47" d="M63.53,47.1c-3,.35-2.62,3.84-4.76,5-1.8.93-3.27.28-4.6-1-.86-1.52-1.63-.68-2.41.14a1.91,1.91,0,0,1-1.27,0,7.27,7.27,0,0,1-2.25-4c.38-1.48-.05-2.95-.15-4.42,1.13-2.38,2.82-1.21,4.4-.71,1.24.18,2.29-.91,3.55-.59a2.38,2.38,0,0,1,1.62,2.21c.17,2.74,1.79,1.38,3,1.15l2.55-1,1.27.33a8,8,0,0,1,.12,1Z"/><path class="cls-48" d="M63.32,61.14c-1.2-.47-1.19-1.29-.65-2.26,3.13-1.58,7.59-1.3,8.4-6.15,1.25.72,1.51,2.78,3.43,2.39-.6,5.17-4.68,6.55-8.69,8C63.87,63.86,64.54,61.33,63.32,61.14Z"/><path class="cls-49" d="M63.32,61.14l2.49,2c-.87.88-1.62,2-3.07,1.91l-2.11,1c-2.11.19-2.17-1.08-1.86-2.61C60.37,62.82,64,66.34,63.32,61.14Z"/><path class="cls-50" d="M32.55,56.1c.08,5.43-4.49,5.34-7.88,6.65-.28-5.25,1.42-10.32,1.27-15.61C25.88,45,25.18,41,29.69,41c1.48,1,1.94,2.52,2.37,4.08C32.92,48.74,34.22,52.36,32.55,56.1Z"/><path class="cls-51" d="M30.77,45.07a4.58,4.58,0,0,1-1.08-4,2.81,2.81,0,0,0,2.29-2c.38-1.16.67-2.37,1.91-3,2-1.07,4.1-1.93,6.46-1.22a3.11,3.11,0,0,1,1.71,1.4,2.89,2.89,0,0,1,.11,1.43,2.68,2.68,0,0,1-.85,1.12,4.59,4.59,0,0,1-1.23.57,8.22,8.22,0,0,0-3,1.14,22.11,22.11,0,0,0-2.51,2.78,6.4,6.4,0,0,1-.94.86C32.76,44.64,32,45.57,30.77,45.07Z"/><path class="cls-52" d="M33.77,36.85c-.17,1.08-.57,2-1.79,2.2-1.45-1.73-3.48-.84-5.25-1.14-.47-1.92-.35-3.45,2-4.14,1.95-.57,3.75-1.18,4.78,1.33A1.14,1.14,0,0,1,33.77,36.85Z"/><path class="cls-53" d="M54.54,49.81l4.23,2.26c-.09.58-.18,1.15-.26,1.73-1.88,7.63-1.88,7.63-10.81,7.08a17,17,0,0,0-9.25-8.79C42.27,49,46.52,50.75,50.64,51l1,0C52.47,50.19,53.2,49.28,54.54,49.81Z"/><path class="cls-54" d="M50.64,51c-3.9,2.17-8.14.54-12.19,1.08-.66,0-1-2-1.67-.55a10.39,10.39,0,0,1-4.23,4.56,38.62,38.62,0,0,1-1.78-11l2.07-1.86c1.62.8,3.52.77,5.09,1.7,1.76.91,3.38,2.13,5.4,2.42,1.78.09,3.45-2.07,5.32-.32C51.1,47.45,50.52,49.4,50.64,51Z"/><path class="cls-55" d="M57.75,74l-1,1.06c-3.92-.78-4.63-4.42-6.35-7.15.09-.64.18-1.27.26-1.9l2-1.07c4.84.69,4.09,4.86,5,8Z"/><path class="cls-56" d="M57.57,73c-1.45-2.8-1.66-6.37-5-8C57.32,64.94,58.1,66.21,57.57,73Z"/><path class="cls-57" d="M56.35,23.94,52.67,28l-1,0c-1.64-.84-3.36-1.73-3.1-3.91a1.5,1.5,0,0,1,2.21-1.19C52.64,23.19,55.47,18.26,56.35,23.94Z"/><path class="cls-58" d="M50.77,22.92c-3.65,2.38,2.15,3.13.89,5.1l-1,1a4.92,4.92,0,0,1-3.87-4.14C46.49,20.88,48.55,21.73,50.77,22.92Z"/><path class="cls-59" d="M46.77,24.86C48,26.28,50.35,26.68,50.64,29h0c-2.64,1.78-3.73-.24-4.91-2V26Z"/><path class="cls-60" d="M60.69,44.87c-.29,2.05-1.37,3.77-3.5,3.16-1.7-.48-1.27-2.39-.78-3.89A2,2,0,0,0,55.58,42c.43-2.13,1.65-1.75,3-.93C59.41,42.24,61.12,43,60.69,44.87Z"/><path class="cls-61" d="M58.59,41c-1.11,0-2.21,0-3,.93-1.3.39-.44,4.11-3.27,2.13a6,6,0,0,1,.4-3.61c2.09-2.09,1.94-5.37,4-7.5l-.07.08C60.35,35,58.38,38.26,58.59,41Z"/><path class="cls-62" d="M61.7,39c2.94.3,2-4.2,4.94-4-.14,2.72-2,4.7-3.11,7Z"/><path class="cls-63" d="M56.67,33a8.5,8.5,0,0,1-3.08,8.34c-4.83.54-6.16-2.68-7-6.47.48-4.18,4-2.94,6.47-3.64Z"/><path class="cls-58" d="M53.09,31.21c-1.81,1.25-5,.6-5.41,3.79-.44.87-1,1.66-2.1,1.49C44.21,36.27,44,35.2,44,34s.9-1.46,1.56-2c3.24-1.58-.74-3.38.16-5,1.44,1.15,2.71,2.72,4.91,2C49.72,31.67,51.92,30.86,53.09,31.21Z"/><path class="cls-64" d="M45.56,32l-.78,2c-.79,1.91-2.49,1.75-4.1,1.82l-6.91,1c-.1-.58-.19-1.17-.28-1.75l1.3-1.24,8.81-2Z"/><path class="cls-65" d="M40.68,35.89l4.1-1.82c.37,2.18,1.59,1.69,2.9.93,1.19,2.84,2.33,5.72,5.91,6.32-.43.92-.85,1.85-1.28,2.77-1.18-.51-1.81-2.89-3.68-1.08-1,.55-1.81,0-2.59-.59-1.62-1.65-2.45-3.92-4.22-5.45Z"/><path class="cls-66" d="M47.11,42l1.52,1c1,1.33,1.85,2.65,0,4l-5,1.89C42.45,48.16,41.15,47.57,41,46a2.52,2.52,0,0,1,.45-1.24A3.89,3.89,0,0,1,42.51,44,4.67,4.67,0,0,0,45,42.66,3.87,3.87,0,0,1,46,42,1.58,1.58,0,0,1,47.11,42Z"/><path class="cls-67" d="M54.54,49.81c-.75.88-1.58,1.58-2.86,1.18.13-1.53.25-3.07.38-4.72C54.45,46.64,54.72,48.08,54.54,49.81Z"/><path class="cls-68" d="M33.66,43c1.54-.85-.14-4.13,2.9-3.87,2.86,1,5.49,2.15,5.19,5.91l-.18,0c-1.07,1.11-2.24.76-3.42.23C36.49,44.81,34.76,44.52,33.66,43Z"/><path class="cls-69" d="M45.68,43c1.8,4.73-2,1.1-2.87,1.92-1.17-1.28-2-2.81-3.48-3.9s-1.23-2.16.42-2.93a3.05,3.05,0,0,1,.8,0C43.05,38.93,45.16,40.12,45.68,43Z"/><path class="cls-70" d="M39.75,38.09c-1.13,1-.9,1.93.39,2.56,1.8.88,2.27,2.55,2.67,4.27l-1.06.1-5.19-5.91C37.55,38.56,38.48,37.81,39.75,38.09Z"/><path class="cls-71" d="M33.66,43l5.09,1.1c.5,1.23.52,2.18-1.21,2.14-1.47-1.17-4.29-.21-4.7-3A4.73,4.73,0,0,0,33.66,43Z"/><path class="cls-72" d="M41.82,37c3.69-.33,3.65,3.25,5.29,5.07a.59.59,0,0,0-.46.23C44.15,41.87,43,40,41.87,38Z"/><path class="cls-73" d="M41.87,38l4.78,4.27-1,.73-5.13-4.86Z"/><path class="cls-74" d="M37.54,46.22a2.39,2.39,0,0,0,1.21-2.14l2.82.9c-.4,1.86,1.37,2.6,2,3.91A15,15,0,0,1,37.54,46.22Z"/><path class="cls-75" d="M52.49,33.39c1.15.27,2.18.73,2.09,2.17-.07,1.1-1,1.57-1.55.77-.7-1-2.51,1.21-2.43-1C50.65,34.13,51.5,33.71,52.49,33.39Z"/></g></g></svg>