<svg xmlns="http://www.w3.org/2000/svg" viewBox="0 0 366.94 366.59"><defs><style>.cls-1{fill:#857360;}.cls-2{fill:#726150;}.cls-3{fill:#5d5040;}.cls-4{fill:#43372b;}.cls-5{fill:#9b8a78;}.cls-6{fill:#fefefe;}</style></defs><title>Asset 3</title><g id="Layer_2" data-name="Layer 2"><g id="Layer_1-2" data-name="Layer 1"><path class="cls-1" d="M52.43,120.67c.93-8.39-1.1-51.18-3.48-17-5.56-21.2,11.34-29.87-10.43-34.32-4.9-22.16-5.23.7-15.64-9.35-6.83-41.77-12.63-12-5.12,17.8-13.25-20.49-27.07,26.08-.93,29.47,1.48,2.59,4.33,5,4.63-2.33,5.68,8.6,1.58-1.93,6.13-38.38,9.19,20.72,9.93,36.14,15.05,65.88-.59-10.33,4.51-10.73,9.63,2.93C54.15,132.77,51.55,128.81,52.43,120.67ZM42.58,103V88.85C41,91.06,46.86,96.78,42.58,103Z"/><path class="cls-1" d="M3.51,282.27c-3.4.42-1.47-19-1.93-22.1,3.6,21.83,14.9-18.48,14.79,20.4,9.56-10.48-2.74,12.92,12.42.73-16.35-10.3-3.58-7.41-6.61-39,1.5,9.55,10.86-9.08,15.11,2.07,41.9-29.07-34.77,43.8-.78,19.73-6.12,14.46-2.61,22.56,3.5.18,6.12,19.36,18.36-.35,9.74,27.25-3.18-4.83-9.67,9.37-8.66-5.43-5.6,8.23,2.71,13.7-3,23-4.94-51.88-6.13-.07-19.73-6.8C13.8,289.27,18.19,290,3.51,282.27Zm23.54,5.31c-6,2.76-6,2.76-7.66,6.2C25.91,291.54,25.91,291.54,27.05,287.58Zm23.72-9.79c-.57,3.77-.43,2.49,0,0C48.35,277.35,45.57,287.06,50.77,277.79ZM37.16,281c-.45.18-.49.13,0,0C37.38,280.83,36.31,279.62,37.16,281Z"/><path class="cls-2" d="M19.23,110.79c2.45-1.2.79-4,2.23-5.81,5.06,6.54,3.29,1.7,6.26-10.89C42.79,122.35,6,167.31,1.59,182.43-1.92,77.74,9.16,179.57,19.23,110.79Z"/><path class="cls-3" d="M341.27,344.3c15.56,1.62,4.45-24.52-1.81-9.69-.26,10-81.24,20.8-23.61,25.72-11-20.07-10.5,4.13,24.46-15.34C335.44,346.7,341.18,339.68,341.27,344.3Z"/><path class="cls-4" d="M54.22,356.26c-11.37-5.36,17.9-8.63,3.93-9.6,1.38,4-52.52-10.85-16.7,15.06C44.15,363,53.75,357.63,54.22,356.26ZM37,360.33l-1-.77C36.26,359.85,36.12,359.42,37,360.33Zm.38-2.23,0,.13c-1-1.83.46-1.77,1.52-2Zm1.54-1.93c4-.69,2.45-.65,0,0C36.57,352.76,42.53,344.33,38.9,356.17Z"/><path class="cls-5" d="M337.42,4.76c-10.26,3.41-65.44-5.63-55.77,4C283.33,9,372.75,27.83,337.42,4.76Z"/><path class="cls-2" d="M52.55,25.7c-9,12.08-40.62-31.17-42.41,6.75,5.75,2.44,7.94-16.36,10.45-7.21C12.42,35.44,71,41.43,52.55,25.7Z"/><path class="cls-1" d="M358.58,323.54c-1.09-21,6.27-40.21-14.72-25.06C354.76,306,336,358.69,358.58,323.54Z"/><path class="cls-1" d="M358.58,85.52c1.43-11.77-8.61-17.71-16-5.78,2.51,26.81,9.23,54.17,7.92,9.76,0,38.88,13.73,6.82,6.17-.1C357.42,89.14,359.26,89,358.58,85.52Z"/><path class="cls-5" d="M205,15.74c-16.41-17.45-65.05-10.88-36.72,2.12C171.84,16,211.45,22,205,15.74ZM179,7.41h0C178.83,7.67,177.71,6.54,179,7.41Z"/><path class="cls-1" d="M9.39,335.77a23.23,23.23,0,0,0-2.6-.63c11-1.82,5.61-42.65-5.2-32.27C5.93,310.34-8.22,349.76,9.39,335.77Z"/><path class="cls-1" d="M356.58,187.76c-5.46-32.87-42.38,27.47-9.19,18.86,0-2.6,3.21-3.83-2.58-11.26C345.61,186.11,348.8,189.75,356.58,187.76Z"/><path class="cls-3" d="M354.77,16.67c-9.43-10.21-20.24,4.38-24,16.88C338.74,41.49,350.86,25.61,354.77,16.67Z"/><path class="cls-2" d="M205,15.74C170.52-1.91,214.91,9,224.87,0,222.37,20.18,257.68,11.7,205,15.74Z"/><path class="cls-1" d="M347.7,143.52c-7.31,15,8.83,11.08,10.89-1,4.27-31.07-11-37.53-10.86-9.79C353.86,128.78,360.55,140.17,347.7,143.52Z"/><path class="cls-5" d="M67.69,4.76C50.41,6.18,38.68.6,25.15,10c0-2.66,24.14,15,9.64,0C40.88,11.28,57.7,14,67.69,4.76Z"/><path class="cls-1" d="M280.28,4.76c21,18.09-51.84,10.12-18.59,8.56C245.48,7.38,253.54,5.08,280.28,4.76Zm-11.52,6.56c-.72,2.9-2.45,2.81,0,0C270.18,9.16,262,8.31,268.76,11.32Zm3.06,1.2c1.52,1.11,2.92,1,4.68,0A4.47,4.47,0,0,0,271.82,12.52Z"/><path class="cls-2" d="M15.26,262.91c-10,3.11-17.52,10.52-11.62-9.5C11.42,255.28,37.74,242.66,15.26,262.91Z"/><path class="cls-5" d="M356.41,19.18c-2.4.53-18.6,11.93-9.65,20.22C355,37.53,364,32.2,356.41,19.18Z"/><path class="cls-4" d="M12.73,48.76a125.36,125.36,0,0,1,5.14,30.77c-.07-13.86-15.18,2.56-17-9.77,3.8-10,12,5.24,10.46-10.75C9.82,57.22,1.83,46.11,12.73,48.76Z"/><path class="cls-1" d="M.58,186.59c6.86-27.25,31.09-6,5,5C1.63,190.69-1.3,197.75.58,186.59Z"/><path class="cls-1" d="M358.58,224.5c-1.53,30-22.09-15.59,0-12.35C360.58,218.42,355.21,221.94,358.58,224.5Zm-3.39,3.71h0C355,228,353.86,229.1,355.19,228.21Z"/><path class="cls-3" d="M345.11,37.94c1.21,8.26,6.47,14.89,13.48,22.92C338.21,82,344.38,66.42,345.11,37.94Z"/><path class="cls-3" d="M12.73,48.76c-16.9-1.86,10,17.16-5.91,18.33C-5.93,60.51,8.62,23.17,12.73,48.76Z"/><path class="cls-2" d="M1.58,232.73c-3.84-4.65,6.44-39,9.56-16.45C10.24,225.34,15.41,228.55,1.58,232.73Z"/><path class="cls-1" d="M32,10.13C26.23,7.54.73,20.52,33.67,17.64,39.38,16,30.35,15.6,32,10.13Z"/><path class="cls-3" d="M1.56,235.46c-1.14-3.91,8.11-8.54,10.65-3.52C26.68,232.17,5.05,252.56,1.56,235.46Z"/><path class="cls-5" d="M236.19,12.74c-25.6-3.05-8.27-11.27,12.51-7.31C240.18,6.87,248.7,11,236.19,12.74Z"/><path class="cls-3" d="M358.58,247.82c-.21.57,1.09,16-2.4,5.7-10.07-4.55,6.66,6.52-5.81,16.31C355.67,268.16,333.42,243.39,358.58,247.82Z"/><path class="cls-4" d="M19.34,112.13a3.76,3.76,0,0,0-.26-1.56C-16.62,139.41,23,131.05,19.34,112.13Z"/><path class="cls-2" d="M114.32,4.76c10.77-2.2,19.93,7.35,3,10.35C114.82,22.68,109.67,22.23,114.32,4.76Z"/><path class="cls-5" d="M70.43,4.76C68.09,6.69,129.5.54,107.53,7.84,104.82,6.92,80.74,5,74.6,5.76,90.15,6.65,74.53,23.15,70.43,4.76Z"/><path class="cls-1" d="M146.67,9.14c-.24-.1,0,0-.71-.32C121.64-1.36,112.61,9.17,146.67,9.14Z"/><path class="cls-1" d="M155.58,7.76c-.08.17-.46-.4-.8.34C154,8.7,162,6.76,155.58,7.76Z"/><path class="cls-2" d="M358.58,55.79c-8.23,1.29-21.29-9.89,0-15.08Z"/><path class="cls-2" d="M354.78,165.83c-1.21,1.19,3.05,11,3.8,4.48C358.15,167.13,359.32,168.59,354.78,165.83Z"/><path class="cls-2" d="M356,150.86c-1.46,1.78-2.16,2.69,0,0C355.93,149.43,349.69,152,356,150.86Z"/><path class="cls-5" d="M8.58,301.43c-6.49,7.75-11.7-23.76-4.26-19.32C-2.41,296.14,26.8,294.13,8.58,301.43Z"/><path class="cls-3" d="M11.19,206.65C5,219-5,206.86,5.72,197.05,8.56,196.52,10.81,201.16,11.19,206.65Z"/><path class="cls-4" d="M3.08,242.44c3.33,2.87,7.7,6.17,16.3,5.46C16.44,250-1.78,266.66,3.08,242.44Z"/><path class="cls-1" d="M356.18,253.52c1.52.66,7.12,26.46-1.56,23.51C353.14,271.32,352,264.22,356.18,253.52Z"/><path class="cls-2" d="M4.83,120.28c-.56,2.35-.4,4,0,0C4.72,119.58-3.1,123.59,4.83,120.28Z"/><path class="cls-3" d="M358.58,183.83c-1.19-11,2.68-12.28-9.7-21.67C353.89,165.36,351.41,182.05,358.58,183.83Z"/><path class="cls-4" d="M346.38,70.8c-.58.29,31.48-20.3,16.63.26C360,74.62,343,77.65,346.38,70.8Z"/><path class="cls-2" d="M12.57,40.72c-9-6.93-.65,4.8-11,2.73-3.39-3.67,13.3-19,12.35-4.07C13.48,39.76,13.93,39.39,12.57,40.72Z"/><path class="cls-5" d="M2.86,101.84C6.57,96,4.59,88.33,1.58,79.11,2.56,79.42-.44,102.93,2.86,101.84Z"/><path class="cls-1" d="M1.58,127.12c2.85-1.6,17,9,5.39,9.52C5,134.05.7,133.77,1.58,127.12Z"/><path class="cls-2" d="M358.58,276.62c-1.92.13,4.1,20.77-2.81,17.73C357.75,290.75,347.51,274.82,358.58,276.62Z"/><path class="cls-3" d="M107.52,7.56c6.4-8.54,10.68,8.76.71,8.3C102.58,14.15,110.08,13.25,107.52,7.56Z"/><path class="cls-5" d="M9.83,32.43c-1.64-3.67-5.11-4.37-8.25,6.9C1.14,35.58,8.65,35.52,9.83,32.43Z"/><path class="cls-1" d="M358.58,41.28c-3.65-2.53-9.34,10.61-12-2.11C347.32,40.78,359.2,34,358.58,41.28Z"/><path class="cls-3" d="M358.58,212.16c-12.8-1.38-14.62.83,0-9.6C358.58,202.78,358.58,209.2,358.58,212.16Z"/><path class="cls-3" d="M358.44,114.78c-6.22,1.59-7.91-3.1-1.91-10.37C360.31,102.58,359.57,104.94,358.44,114.78Z"/><path class="cls-2" d="M351.53,235.47c3.2-3.55,16,.08,1.54,6.85A24.24,24.24,0,0,1,351.53,235.47Z"/><path class="cls-1" d="M6.16,29.58c0-1.37,3,4.1,2.56-4.52C7.83,26.55,7,28.05,6.16,29.58Z"/><path class="cls-2" d="M358.43,197.12c-4.13-2.6-10.68,15.62-2.74,10C355.82,204.42,359.85,203.57,358.43,197.12Z"/><path class="cls-2" d="M70.43,4.76c1.39,1.35-.23,8.74-2.78,8.52C65.8,10.25,58.28,5.16,70.43,4.76Z"/><path class="cls-3" d="M357.07,192.33c.72,3.22,1.23,4.79,0,0C354.59,182.92,347.16,198,357.07,192.33Z"/><path class="cls-3" d="M358.58,127.12c-4.71-2.39-4.71-5.4,0-9.6Z"/><path class="cls-3" d="M353.07,242c-1.59,1.28-2.65,1.42,0,0C356.64,235.72,365.32,248.24,353.07,242Z"/><path class="cls-1" d="M1.58,53.05h0C6,52.79,1.44,82.54,1.58,53.05Z"/><path class="cls-3" d="M1.58,194.33c1.66-1.1,5.69-6.74,4.07,2.77C5.88,195.39,2.28,200.63,1.58,194.33Z"/><path class="cls-2" d="M3.08,242.44c-.52,3.16,1.24,6.68-1.5,9.5C1.13,251.64,1.87,226.49,3.08,242.44Z"/><path class="cls-1" d="M207.59,4.76a17.71,17.71,0,0,1-15.09,0Z"/><path class="cls-3" d="M358.58,147.92c-.25-.75.16-2.85-2.45-.28C356,149.38,355.16,153.12,358.58,147.92Z"/><path class="cls-4" d="M354.75,244.76c-1.84,1.26-3,1.46,0,0C358.51,243.23,361.36,250,354.75,244.76Z"/><path class="cls-5" d="M263.82,4.76c-.9.29-5.3,5.35-9.6,0Z"/><path class="cls-1" d="M1.58,197.07h0C4,196.29,8.26,198.57,1.58,197.07Z"/><path class="cls-2" d="M356.66,189c-1.6.67-1-.28-.74,4C357.25,191.79,357.16,192.79,356.66,189Z"/><path class="cls-1" d="M189.76,4.76c-1.21,2.47.34,1-6.94,1.23C184.23,3.65,182.56,5.15,189.76,4.76Z"/><path class="cls-1" d="M254.22,4.76c-.81,2.13.4,1-5.49,1.3C249.56,3.8,248.36,5.05,254.22,4.76Z"/><path class="cls-2" d="M358.58,224.5c-.72-.34,0,0-2.06-1.06C355.4,223.47,359.24,219.3,358.58,224.5Z"/><path class="cls-5" d="M222.67,4.76c-.91,1.51-1.83,1.21-2.74,0Z"/><path class="cls-3" d="M358.58,90.08l-1.79-.68C356.82,89.89,358.85,87.34,358.58,90.08Z"/><path class="cls-5" d="M276.16,4.76c-.46,1-.91,1-1.37,0Z"/><path class="cls-4" d="M167.12,355.23c6.13,6.88,55.55,10.95,56.93,3.46-9.3-14.93-1,4.59-15.17-12-38.56-.16,10.94,17.5-46.4,2.51-16.68,22.65,13.83-8.17-82.35,12.29C107.08,360.31,143.39,365.93,167.12,355.23ZM132,358.31c1.39-.88,1.32-1.81,0,0C130.61,359.12,128.46,352.6,132,358.31Z"/><path class="cls-4" d="M334.51,357.66c-2.07-19,4.36-7.21-21.22-2.72C315.37,359.47,324.74,368.2,334.51,357.66Z"/><path class="cls-2" d="M97.82,358.76c-16.35,5.83-33.81.48,2.8-9.64,14.26,7.76,7.61,12.22-9.51,9.64Z"/><path class="cls-3" d="M226.75,361.51c-9.9-11.69-1.28-7.81-14.62-9.58C207.5,340.48,260.6,361.11,226.75,361.51Z"/><path class="cls-4" d="M302.15,350.85c-5.22,2.47-12.77,2.16,2.75,10.57C277,370.18,284.42,338.32,302.15,350.85Z"/><path class="cls-4" d="M75.86,361.46c-8.63,3.82-26.6-6.45-1.5-9.51C70.43,352.05,67.46,356.18,75.86,361.46Z"/><path class="cls-4" d="M229.59,361.44c6.8.9,13.19-12.56,21.75-3.63C251.63,364.93,240.57,360.14,229.59,361.44Z"/><path class="cls-3" d="M75.86,361.46c-1.6.22-10.34-10-1.23-9.34C80.81,355.22,95.8,350.72,75.86,361.46Z"/><path class="cls-2" d="M287.08,356.51c1.92,3.89-8.57,10-9.67,1.51C279.13,357.13,280.41,356.26,287.08,356.51Z"/><path class="cls-4" d="M277.86,360.3c.16,10-8,6.65-23.28-.28C256.7,360.07,254.87,359.75,277.86,360.3Z"/><path class="cls-2" d="M60.55,357.61h0C64.8,361.13,54.08,365.64,60.55,357.61Z"/><path class="cls-3" d="M254.58,360c-.31,1.31.61,1.68-2.78,1.41C251.76,359.22,250.72,355.53,254.58,360Z"/><path class="cls-3" d="M55.07,357.33h0C56.78,358.07,52.88,364.41,55.07,357.33Z"/><path class="cls-4" d="M51.44,360.32c.18,1,2.65-2.23,3.89,1.22C54.49,361.56,53.68,361.84,51.44,360.32Z"/><path class="cls-3" d="M58.11,361.52h0C57.7,360.76,60.25,361.57,58.11,361.52Z"/><path class="cls-4" d="M39.07,65.49l-.27,3.9C33.54,39.45,26.93,88.84,25.2,42.05l0,0c18.51,17-12,1.12,46.66,8.23-25.87,5.93-.29,3.22,20.34,7.75C73.26,64.34,36.41,40.93,39.07,65.49Z"/><path class="cls-3" d="M43.11,132.65c-4.64-21.14,29.28,7.77-1.12,23.82,3.71,6.91,14.71,22.42-7.09,4.95-24.95-4.56,8.52-2,2.23-7.44-4.64-1.67,8.1-27.12,7.45-4.08C51.55,141.13,48.13,146.77,43.11,132.65Z"/><path class="cls-2" d="M42.91,132.48c-19.85,49.53-4.72-9.37-8-42.31C43.55,89.83,35.61,119.13,42.91,132.48Z"/><path class="cls-2" d="M39.07,65.49C34.14,65,61.82,25.32,54.86,81.76,49.59,75.94,45.83,73.5,39.07,65.49Z"/><path class="cls-3" d="M53.89,131.11c-3.21-10.91-.34-26.43-1.15-43.64C57.25,92.94,54.92,117.67,53.89,131.11Z"/><path class="cls-5" d="M34.92,90.17c.71,13.31,4.12,27.72-6.92,3.92C28.11,90.69,33.5,75.74,34.92,90.17Z"/><path class="cls-3" d="M30.43,87.19c.61,6.73-6.7,5.3-4,16.51C21.43,102.33,20.44,77.19,30.43,87.19Z"/><path class="cls-5" d="M54.81,87.46c-5.89,0-4.54,1.39-5.58,16.25C46.11,99.62,50.21,65,54.81,87.46Z"/><path class="cls-5" d="M53.89,131.11c2.76,2.5,1.2,10.37.88,19.56C53.71,150.49,49.82,149.45,53.89,131.11Z"/><path class="cls-3" d="M26.71,51.66c-1.34,2.1-.05,18-4.38,4.86C22.38,52.58,20.74,45.46,26.71,51.66Z"/><path class="cls-4" d="M14.21,39.38c-1.79-5.82,5.14-20.11,4.21,1.37C17.5,40.73,16.86,40.27,14.21,39.38Z"/><path class="cls-4" d="M21.08,34c3.55-.24,5.49,1.83,4.08,8.12C22.09,43,20,44.35,21.08,34Z"/><path class="cls-4" d="M30.43,87.19C27.85,82,29.67,77.3,27.87,66.6,30.74,71.35,32.22,78.25,30.43,87.19Z"/><path class="cls-2" d="M21.14,43.33c3.5-5.94,7.87,10,3.25,7.14C22.6,48.49,18.84,48.59,21.14,43.33Z"/><path class="cls-3" d="M42.58,88.85c-1.57,2.21,4.28,7.93,0,14.1C42.58,100.4,42.58,98.91,42.58,88.85Z"/><path class="cls-2" d="M21.08,35.2h0C22.43,35,18.7,48.49,21.08,35.2Z"/><path class="cls-4" d="M12.84,40.72l1.4-1.39C14.74,39.13,12.43,49.78,12.84,40.72Z"/><path class="cls-2" d="M36.09,302.64l2.31,6.49c4.52-6.14-2.61-11.86,3-23-6,2.7,33.53,13.79-3.89,26.16l.05,0c-23.35,3.69,1.55-50.57-1.51-15C36.23,297.55,28.28,301.79,36.09,302.64Zm-4.57,2.41h0C31.55,304.49,28.23,304.62,31.52,305.05Z"/><path class="cls-2" d="M18.38,247.72c-14,.46-21.11-5.39-.9-8.45,0-2.76-6.55-18.1,2.24-17.6,5.49,1.76,11.1,20.79,2,8.78C20.69,235.68,29,235.31,18.38,247.72Z"/><path class="cls-3" d="M22.45,242.34c20-13.39,47.42-39.16,15.11,2.07C35.07,234,24.39,251.25,22.45,242.34Z"/><path class="cls-2" d="M38.89,256.05c11.27.59,10.13-34.62,15.79,5.5C49.58,255,36.74,272.49,38.89,256.05Z"/><path class="cls-3" d="M40.28,264.32c9.17-8.05,20.81-3.6,12.45,15.12C50.28,266,49,286.69,40.28,264.32Z"/><path class="cls-3" d="M8.85,301.43c12.62-13.19,13.63,11.66,4,21.86C11.9,318.73,11.74,311.56,8.85,301.43Z"/><path class="cls-4" d="M54.63,254.64c-1.24-1.18-7.59-10.74.13-36.73C54.73,226.57,54.68,240.67,54.63,254.64Z"/><path class="cls-3" d="M15.59,295.79c-16.52-2.09-14.5-22.92-1.27-6.58C15.56,285.47,18.27,287.19,15.59,295.79Z"/><path class="cls-5" d="M18.34,316.4c-6.66-3.78,13.53-28.56,8.23-9.58C24.72,308.2,25.52,317.81,18.34,316.4Z"/><path class="cls-4" d="M52.72,279.44c2.51,3.66,4.48,20.19-.21,27.38C52.77,302.67,51.55,302.5,52.72,279.44Z"/><path class="cls-2" d="M35.86,263.05c-1.72,3.09-16.88,11.85-7.16-.52C30.54,262.68,37.13,256.76,35.86,263.05Z"/><path class="cls-2" d="M52.51,219.13c-1.91,2.75,4.22,8.16-2.79,19.05C45,234.17,51.21,228.71,52.51,219.13Z"/><path class="cls-5" d="M20,274c5.79-.58,3.29,7.47,9.06,7.28-1.49,1.11-2.3,2.07-8,3.56C21.4,282.59,20.35,282,20,274Z"/><path class="cls-3" d="M20,274c-.42,2.88.84,2-3.35,6.55C15.37,275.18,18.43,248.94,20,274Z"/><path class="cls-5" d="M20.21,268.15c-1-4.06-3.44-5.23,3.53-13.56C27.14,256.28,22.55,261.7,20.21,268.15Z"/><path class="cls-3" d="M35.86,263.05c.24-9.05,7.19-5.64,3,9.37C37.78,269,35.41,271.18,35.86,263.05Z"/><path class="cls-3" d="M27.05,287.58c-1.14,4-1.14,4-7.66,6.2C21,290.34,21,290.34,27.05,287.58Z"/><path class="cls-2" d="M36.14,272.51c2.48,1.89-5.44,8.91-4.35,1.8C32.24,273.84,32.48,274.47,36.14,272.51Z"/><path class="cls-2" d="M50.77,277.79c-2.94,2.15-3.29,3,0,0C51.32,278.46,48.16,288.79,50.77,277.79Z"/><path class="cls-3" d="M36.09,302.64c.49-.9-4.43,1.74-2.52-3.68C36.14,297.79,36.42,295.8,36.09,302.64Z"/><path class="cls-2" d="M36.37,269.63c-.15-1.29,5.17,4.38-.22,2.88C36.22,271.55,36.3,270.59,36.37,269.63Z"/><path class="cls-5" d="M21.05,284.84h0C21.08,285.68,19.18,287.53,21.05,284.84Z"/><path class="cls-2" d="M37.16,281c-.08-.43-.19-.58,0,0C37.1,281.26,35.77,280.85,37.16,281Z"/><path class="cls-5" d="M28,146.3c-.88,1.62,2.37,3.06,2.08,6.14,17.39,6.27-.32,1.12-10.56,6.13.44,2.44,12.72,9.1,1.39,10.52C-8.49,186.42,20,142.4,28,146.3Z"/><path class="cls-1" d="M28,146.3c-5.21,2.39-7.53-18.08.14-15.2C35.94,133.21,32.9,139.22,28,146.3Z"/><path class="cls-1" d="M33.55,109.14c3.42-3.84,6.58,17.22.19,20.62C34.71,126.08,31.23,116.72,33.55,109.14Z"/><path class="cls-3" d="M22.25,147.78c-.65,11.44-13.91,9-5.3-4.77C18.88,143.23,17.15,149.08,22.25,147.78Z"/><path class="cls-4" d="M32.33,110.62c.3,4,4,14.71-.37,22.23C29.19,127.9,30.36,121.28,32.33,110.62Z"/><path class="cls-3" d="M11.3,136.64c.53,2.49.41-16.95,4.89-6.68C15.94,131.82,15.24,133.38,11.3,136.64Z"/><path class="cls-3" d="M28,94.11c3.47.3,4.24,2.45,3.72,5.46C25.35,101.22,28.92,96.14,28,94.11Z"/><path class="cls-2" d="M344.85,255.88c-8.37,11.58,5,112.87-20.73,76.31-5.64,9.86-8.49-2.12-17.59-2.8,0,7.17-22.71,14.11-24.95,1.73-6.85,9.43,2.36,12.05-27.27.52,19.6,6,46.61-20,63.77-3.73,2.1-33.23,8.72,9.4,20.12-4.6-24.28-28.18,9.41-18-31.92-50.78,4.18-.59,8.81-28.29,1.52-11.11-1.35,2.57-1.82,7.68-1.94-2.52.72-2.09-2.42-10.69,1.93-13.77,12.81,13.75,6.3-27.11,16.4-8.24C307.55,275.93,330.81,236.66,344.85,255.88Zm-21.16,23.71c-.44-.26,8.22-17.14,1.5-16.65C325.15,266.68,319.86,272.37,323.69,279.59Zm-2.11-14.53c-.5-3-1.47-4.23,0,0C324.68,246.23,303.72,274.11,321.58,265.06Zm4.71,17.79c.84.34,1,.65,0,0C325.76,282.86,326.24,286,326.29,282.85Zm-10.85-10.79h0C315.26,271.85,314,273,315.44,272.06Z"/><path class="cls-1" d="M299.43,348c-10.7-2.38-.9-9,24.59-5.4C322.76,342.54,304.81,352.84,299.43,348Z"/><path class="cls-4" d="M324,342.61c-2.94.54-5-1.75.1-10.42C321.41,337.1,338.31,345.88,324,342.61Z"/><path class="cls-2" d="M313.38,352.17c-2.26-1.21-1.55-.75,0,0C316,357.81,303,352.85,313.38,352.17Z"/><path class="cls-1" d="M340.31,345c.15-.32.63,0,1.36-1.42C344.05,341.27,334.89,343.49,340.31,345Z"/><path class="cls-4" d="M328.29,349.31l-.57-.29A3.39,3.39,0,0,0,328.29,349.31Z"/><path class="cls-3" d="M74.67,342.64c27.93-3.53-30.16-8.52-4.77-1.14-6.49,4.11-25.45-17.61-17.39-34.85-19.2,16.58-28.89-18-31.43,23.42-5.55,8.91,19.4-12.33,18.62,7.72-2.54-1.45-12.62,5.81-1.64,6.6,35-12.3-19.23,9.22,30.38,2,1.54,2.58-24.87,1.61-13.55,9.78C57.79,356.79,99.93,348,74.67,342.64ZM32.76,316.7h0C31.42,318,29.84,313.86,32.76,316.7Zm11.91,14.67c-3.33,1.67-3.31-9.82,3.61-2.55C48.1,329.94,48,331,44.67,331.37Z"/><path class="cls-2" d="M20.43,332.93c-.76-13.83-1.36-16.43-13.36,2.21C10.51,336.19,12.36,334.69,20.43,332.93Z"/><path class="cls-2" d="M30.58,331.76c5.62,4.34.53-9.8-5.11.37C27.17,331.93,28.87,331.8,30.58,331.76Z"/><path class="cls-1" d="M43.15,345.06c-6.11-4.8,11.31-10,6.73-.84C48.88,343.85,48.79,345.36,43.15,345.06Z"/><path class="cls-2" d="M38.9,356.19c-2.31-3.4,3.62-11.88,4-.73A20,20,0,0,0,38.9,356.19Z"/><path class="cls-2" d="M58.15,346.66c-1.49-1.91,7.66-5.53,8.38,1.11C65.72,350,64.69,346.08,58.15,346.66Z"/><path class="cls-6" d="M37.36,358.1h0C37.07,358.61,37.25,362,37.36,358.1Z"/><path class="cls-2" d="M37.36,358.1l0,.15C35,357.66,41.2,354.59,37.36,358.1Z"/><path class="cls-2" d="M52.37,354.82l1.84,1.44Z"/><path class="cls-2" d="M37,360.24l-.05.09-1-.77Z"/><path class="cls-4" d="M300.85,14.76c3.23-.43,3.85,2.56-2,5.32,4.73,1.64,40.07-6.44,28.17,2.76C325.13,23.45,270.63,27,300.85,14.76Z"/><path class="cls-2" d="M273.38,16.07c12.77,2.65,14.31-22.18,17.76,2.63C285.6,15,278.06,28.67,273.38,16.07Z"/><path class="cls-2" d="M320.05,17.42c-2.68,5.41-11.13,1.55-21.2,2.66C301.61,16,312.18,10.75,320.05,17.42Z"/><path class="cls-1" d="M291.27,18.17c-4.73-7.18,4.33-13,9.64-5.79C300.48,16.54,299.4,16.73,291.27,18.17Z"/><path class="cls-1" d="M330,22.41c-1.51-4.32,10.47-14.3,7.58-.89C334.17,17.26,333.14,25.27,330,22.41Z"/><path class="cls-1" d="M348.79,13.37l-2.74-.21C346.76,12.13,346.78,10,348.79,13.37Z"/><path class="cls-1" d="M71.82,50.32c-3.91.13-29.61-6.65-12.15-10.31,3.33.83,20.31,14.57,19-.46,4.28-7.12-32.66,6-20.27-11.29-3.84,2.74-12.53-4.07,1.53-2.57,18.63-1.83,7.15,9,34.34,2.37,2.23-4.52-15.37.17-2.53-5.64-6.68,2.43-54.32-6.64-43.41-13-2.06-3.15,46.19,15.83,30.24,3.45,25-13.71,30.25-4.8,32,14.32,17.93,1.89,24.85-7.57,45,14.92-4.38,12.66-33.63-17.27-70-4.15C78.79,43.58,103.74,45.46,71.82,50.32Zm75.35-9.56c1.54.33,3.05,1.87,4.42,0Zm-3,1.6c-.38.15-.44.09,0,0C144.63,42.08,143.4,41.16,144.13,42.36Z"/><path class="cls-3" d="M25.16,42.09c4.78-.5-12.62-24.59,19.2-2.88C57.11,50.49,34.27,51.21,25.16,42.09Z"/><path class="cls-4" d="M48.56,46.22c.94-3.74-1.89-5.22-4.2-7,8.44-8.53,8.3-3.92,18.94-1.61C87.92,39.68,59.6,35.63,48.56,46.22Z"/><path class="cls-5" d="M86.76,24.56c-.54,3.35-19.64,1.77-43.74-.19C59.48,24,55.46,21.63,86.76,24.56Z"/><path class="cls-1" d="M43,24.38c13.46,1.89,2.32,7.19-9.61-1.48C36.42,22.8,38,22.52,43,24.38Z"/><path class="cls-4" d="M36.07,22.76c-18.91-2.76,22.07-11.83,7-5.28C41.11,17.93,37.71,18.06,36.07,22.76Z"/><path class="cls-1" d="M13.25,18.24c.71,3,.53,2,0,0C10,18,11.69,29.71,13.25,18.24Z"/><path class="cls-1" d="M18.32,31.1c-3.77-.66.45-14.93,2.27-5.86C19.19,26.26,22.58,27.13,18.32,31.1Z"/><path class="cls-3" d="M18.32,31.1c0,2.77.05,4.16,0,0C18.09,29.3,25.06,35.38,18.32,31.1Z"/><path class="cls-1" d="M14.3,31c-.5,1.67,1.43,3.83-3.93,3C10.6,31.83,9.58,32.59,14.3,31Z"/><path class="cls-1" d="M10.11,32.43a2.54,2.54,0,0,1-1.4-2.69h0C10,30.06,10.38,29.17,10.11,32.43Z"/><path class="cls-5" d="M10.1,29.76c-.57-.25-1.85.63-1.37-1.57Z"/><path class="cls-3" d="M48.56,35.31l-1.32,1.37Z"/><path class="cls-2" d="M343.73,298.48c4,3.36,6.66,9.68,3.62,18C347.27,316.74,340.89,317,343.73,298.48Z"/><path class="cls-3" d="M352.93,287.65c10.94,9.1-21.83,11.91,0-3.93Z"/><path class="cls-3" d="M344.68,316.34c5.15-2,.93,18.18-4,4.22C341.75,319.69,337.81,315.44,344.68,316.34Z"/><path class="cls-4" d="M346,289.07c.58-.49-9.38,35.65-5.86,14.6C341.88,301.58,339.57,290.56,346,289.07Z"/><path class="cls-5" d="M342.36,88.24c14.76,24.37-27.22,48.31-6.06,5.58C344.07,109.22,335.12,118.56,342.36,88.24Z"/><path class="cls-3" d="M342.09,113.36c1.56-11.12,9.2-13.38,5.34,6.84C344.43,120,347.89,114.8,342.09,113.36Z"/><path class="cls-4" d="M342.51,88.81c-3.67,13.6-6.21-40.28,3.44-17.76C339.53,72.73,343.24,74.92,342.51,88.81Z"/><path class="cls-4" d="M351.89,110.43c-1.95,9.71-2.38-5.1-1.48-20.91C352.75,96.42,351.35,103.48,351.89,110.43Z"/><path class="cls-3" d="M342.52,78.14c-1.89-.68,2.79-11.23,3.59-4.48C346.12,75.09,346.33,76.47,342.52,78.14Z"/><path class="cls-2" d="M349.63,114.74h0C357.49,114.06,344.28,128.52,349.63,114.74Z"/><path class="cls-2" d="M189,24.55c-9.33-4.7-16.76-3.43-23.21,7.55C138,14,191.53,5.86,145.86,9.16c-31.55-6-2.27,5-30.13,10.92,6.34,5.62,9.42,13.89,15.51,5.4,25,.11,2.07,4.16,43.42,15.23C127.55,50.58,191.35,68.78,189,24.55Zm-13.21,18.8c-1,.15-.4.43-1.06-2.63A2.08,2.08,0,0,1,175.74,43.35Z"/><path class="cls-4" d="M175.84,55.86c16.77-16.32,23.43-31.15-3.85-35.78,55,2.71,10.66,13,22,24.83C197.36,60.15,216.64,60.5,175.84,55.86Zm20.81-25c.58-1.37,1.9-1.54-1.58-2.93C194.3,29.09,192.8,29.75,196.65,30.86Zm-7,19.51c-1.29,1.06-1.81,1.1,0,0C190.21,49.61,183.83,48.25,189.67,50.37Z"/><path class="cls-3" d="M200.55,34c-1.71-4.11,7.3-22.71,10.29-9.68-13.49,9.78-6.39,12.07,13.19,19.13C235.92,52.31,199.68,49.52,200.55,34Z"/><path class="cls-4" d="M211.43,20c-17.68-3.46,19.92-10.35,25-1.24C228.49,18.37,224.49,22,211.43,20Z"/><path class="cls-2" d="M202.09,21.58c2.08,9.68-21.37-.83-9.79-6.3C197.13,16.74,201.66,12.79,202.09,21.58Z"/><path class="cls-1" d="M163.66,29.71c-4.76-4-15.88-25.28,4.07-6.91C165.27,24.38,164.61,23.38,163.66,29.71Z"/><path class="cls-3" d="M163.66,29.71c3.67-5.54-2.79-17.12,8.34-9.64C166.89,19.84,172.15,39.2,163.66,29.71Z"/><path class="cls-2" d="M206.17,17.42l2.76,2.74C209.49,20.39,202.59,24.44,206.17,17.42Z"/><path class="cls-3" d="M182.81,6.27c3.41,1.05,2.25.79,0,0C181,5.69,195.57,7,182.81,6.27Z"/><path class="cls-1" d="M179.18,7c-.39-.18-.58-.17,0,0C179.37,7.16,178.26,8,179.18,7Z"/><path class="cls-4" d="M334.91,195.83c-4.12,14.39-3,12.82-13.48-1.12-3.66.13-12.84,8.43-15.11-.37-.6-4.21-2.42-56.1,2.93-37.24C305.7,159.74,317,198,334.91,195.83Zm-25.84-22.06c.15,0-.15.44.56.56C309.26,173.64,307.18,170.3,309.07,173.77Z"/><path class="cls-2" d="M350.29,165.94c15.63,16.41-17.92,18.51-19.42,5.63C335.35,170,352.33,179.8,350.29,165.94Z"/><path class="cls-2" d="M329.75,206.59c16-3.05,22.43,5.95-1.11,6.15C324.67,224.33,317.33,212.07,329.75,206.59Z"/><path class="cls-3" d="M339.37,179.76c5.53-3.42.11,22.69-12.56,13.83A74.11,74.11,0,0,1,339.37,179.76Z"/><path class="cls-5" d="M353.21,188.88c4,3.14-8.69,16.71-7.42,3.37C347.84,189.41,347.1,185.56,353.21,188.88Z"/><path class="cls-4" d="M347.3,198.39c4.51-6.35,11.47,8.42.09,8.24C347.88,205,348.82,203.62,347.3,198.39Z"/><path class="cls-4" d="M343.31,212.15c.07-6,9.25-6.21,2.82,2.77Z"/><path class="cls-2" d="M340.64,64.11c-2.55,2.6,3.05,51.54-9,5.66-11.67,42.86,15.13,2.55-6.71,46.06-1.77,12.26,39.26-23.75,14.4,24.94,2.73-7.29,1.33-32.11-7.57-7.73.88-.73-8.62-14.83-2.06-4.49-26,29.27-10.67-66.12-11.64-24.58,6,5.29,7.41-2.36,9.4-32-1.26,12.36-15.6-11.91-6.12-4.93C339.22,52.94,343.06,3.51,340.64,64.11Z"/><path class="cls-1" d="M336.56,36.55c.13,4.75-11.87,3.05-13.79-6.69C323.1,25.12,328.63,27.69,336.56,36.55Z"/><path class="cls-2" d="M331.16,29.74c-10.86-2.82-6.66-8.38,6.73-8.22C337.75,24.28,336,27.2,331.16,29.74Z"/><path class="cls-4" d="M340.65,62.55c.06-7.51,1.21-16.29,1.27-28.7C346.32,36.4,344.93,55.72,340.65,62.55Z"/><path class="cls-3" d="M236.39,18.77c.08-1.64.1-8,6.87-5.48l0,0C246.55,15.08,251,25.28,236.39,18.77Z"/><path class="cls-1" d="M239.3,12.87c-.57-.07-.51.66-3.1.16C236.79,12.05,237.21,7.53,239.3,12.87Z"/><path class="cls-5" d="M350.29,165.5c-2.27-2.79-12.73-25.88-10.88-1.95C336.89,169.16,351.4,181.3,350.29,165.5Z"/><path class="cls-3" d="M344.63,154.42c-1.33.49-11.51.34,1.57-24.73C346.34,130.22,350.83,135.22,344.63,154.42Z"/><path class="cls-5" d="M347.57,143.52c-3.8-3.39,3.93-18.94,6.71-9.5C354.21,137.11,355.68,143.38,347.57,143.52Z"/><path class="cls-1" d="M44.47,14.76c-3.87-3.69-2.69-2.3,0,0C44.77,18.92,27.56,6.5,44.47,14.76Z"/><path class="cls-3" d="M67.65,13.56c-1.31-2.25-.88-1.49,0,0C68.76,14.22,59.19,10.3,67.65,13.56Z"/><path class="cls-3" d="M273.38,16.07c4.31,3.88.11,8.93-23.24,1.37C257.82,15.81,265.66,17,273.38,16.07Z"/><path class="cls-2" d="M247.36,17.39c-9.6-3.21,1.25-9.77,13.76-4.15C253.68,12.4,254.93,15,247.36,17.39Z"/><path class="cls-3" d="M252.6,9.07c-1.07-1.18-7.42,5.53-9.6,2.76C243.09,8.63,249.72,3.32,252.6,9.07Z"/><path class="cls-2" d="M268.76,11.33c-.14-1.8-1.27-1.94,0,0C269.23,13.94,260.57,14.88,268.76,11.33Z"/><path class="cls-4" d="M252.78,7.75c3.5.34,2.31.07,0,0C241.65,6.58,262.69,4.64,252.78,7.75Z"/><path class="cls-2" d="M271.82,12.52a4.47,4.47,0,0,1,4.68,0C274.74,13.53,273.34,13.63,271.82,12.52Z"/><path class="cls-2" d="M261.12,13.24l.57.36C261.63,13.47,261.35,13.67,261.12,13.24Z"/><path class="cls-3" d="M16.91,187.49c-6.28-16,15.15-4.27,15.13,2.49-8.11,12.28-6.87,6.3,13.76,5.63C51.6,214.22,21.61,211.44,16.91,187.49Z"/><path class="cls-5" d="M16.91,187.49c8,4.7-10.2,20.28-11.1,4.14C7.57,190.12,8.49,188.48,16.91,187.49Z"/><path class="cls-4" d="M22.43,176.24c-5,3.16-1.95,3-9.4-3.62C15,171.93,31.06,164.76,22.43,176.24Z"/><path class="cls-3" d="M343.31,212.15c10.31,19.84,7.79,29.65-10.92,0C336,213.39,339.67,211.44,343.31,212.15Z"/><path class="cls-5" d="M346.35,233.39c7.11-.6,6.71,13.34,1,14.71C340.88,247.88,345.93,248.92,346.35,233.39Z"/><path class="cls-2" d="M349.14,221.77c-.08-.6-8-6.45,1-9.66A68.31,68.31,0,0,1,349.14,221.77Z"/><path class="cls-2" d="M355.19,228.21c-.37,0-.44.1,0,0C355.74,228.32,354.66,229.55,355.19,228.21Z"/><path class="cls-2" d="M342,62.74c2.74-22.57,7-8.34,0,1.26A10.61,10.61,0,0,0,342,62.74Z"/><path class="cls-1" d="M354.5,62.66c.28,3.13-1.07,5.06-4.19,5.69C346.55,62.66,350.37,62.55,354.5,62.66Z"/><path class="cls-1" d="M7.35,40.68h0C7.3,40.28,10.29,34.55,7.35,40.68Z"/><path class="cls-4" d="M17,220.42c-.41,1.64,2.11,6.74-4.19,11h0C8.55,227.07,11.89,187.3,17,220.42Z"/><path class="cls-2" d="M12.79,231.4l-.31.54c.11-.18.21-.36.31-.54Z"/><path class="cls-2" d="M247.38,6.45c-.13,2.84-2.18,2.71-4.16,2.7C243.37,6.35,245.37,6.4,247.38,6.45Z"/><path class="cls-1" d="M243,11.83c.09.49,0,0,.26,1.46C242.84,13,240.78,13.39,243,11.83Z"/><path class="cls-1" d="M346,289.07c-12.14,6.24,0-59.75,4.21-19.25l0-.06c-2.24,1.4-1.17,3.63-1.4,5.54l0-.06c-2.35,2.63-3.41,5.78,1.33,5.51v0C347.62,281.37,355.92,284.88,346,289.07Zm.46-25.44c-.76.5-1.11.49,0,0C346.71,263.21,343.08,262.71,346.5,263.63Z"/><path class="cls-4" d="M346,239.64c-2.07.92,2.25,20.76-1.39,13.17C347.18,248.7,302.44,251.84,346,239.64Z"/><path class="cls-5" d="M350.23,280.75c-2.4-.73-1.88.64-1.33-5.51.86-.84,1.6-1.57,1.37-5.48l0,.06C352.92,268.9,356.21,270.92,350.23,280.75Z"/><path class="cls-1" d="M350.34,246.47c.88,0,1.31.07,0,0C343.35,244.77,357.92,242.56,350.34,246.47Z"/><path class="cls-2" d="M352.94,253.34h0C352.63,255.27,348.35,255.76,352.94,253.34Z"/><path class="cls-4" d="M352.94,253.34c.29-1.65-.39-2.05,3.11.18C355.22,254.66,356.06,254.92,352.94,253.34Z"/><path class="cls-5" d="M5.11,120.28C6.42,119.67.81,125,8.66,124,10,122.49,15.71,115.08,5.11,120.28Z"/><path class="cls-3" d="M127.91,14.44c7.87.8-15.87,11.31-10.62,1C120.24,13.11,121,14.84,127.91,14.44Z"/><path class="cls-3" d="M115.66,20.17c-.81,3.44,2.33,3.86,4.09,5.33C116.59,25.85,94.44,25.24,115.66,20.17Z"/><path class="cls-1" d="M127.91,14.44c.84-3,.48-1.8,0,0C123.6,17.59,126.44,5.93,127.91,14.44Z"/><path class="cls-3" d="M93.72,6.76c-5.72,6-6.24,1.9-19.12,0Z"/><path class="cls-3" d="M78.52,12.91c8.31,1.41-4.48,3.29-11,3.7C68.74,10.6,70,11.46,78.52,12.91Z"/><path class="cls-5" d="M354.35,42.19h0C354.24,41.31,354.31,37.83,354.35,42.19Z"/><path class="cls-2" d="M10,198.64c.3-2.13,17.31-7.14,8.32,3.83C16.9,202.2,12.8,203.61,10,198.64Z"/><path class="cls-5" d="M10.12,199.87c2,1.42,14.41,3.42,5.45,9.61C14.61,207.45,11.05,210.17,10.12,199.87Z"/><path class="cls-1" d="M350.23,280.75c2.62-11.44,7.47,15.89,0,0Z"/><path class="cls-3" d="M108.74,358.77c1.39-6.67-3.62-7.84-8.12-9.44,21.53-2.52-12.45-2.43-5.89-8.26.79-1.72,34.07,9.26,16.93-6.77-2.32-1.36,15.19,3.75,10.88-2.82,12,3.93,2,7.08-2.25,14C140.42,354.42,123.89,350,108.74,358.77Z"/><path class="cls-3" d="M162.48,349.17c-12.55,18.09-4.86,7.53-20.39-9.51-.14-1.46-18.66,0-10.3-6.17C134.69,330.89,162.17,336.58,162.48,349.17Z"/><path class="cls-2" d="M208.88,346.65c-2.33,2.76-21.19-3.46-3.47-2.51-4.52-8.26-8.19-9.56-14.12-18.24C194.29,327.43,237.56,330.65,208.88,346.65Z"/><path class="cls-2" d="M144.45,341.7c18.46,21.05-13.44,14.53-23.31.76C128.63,337.89,129,349.4,144.45,341.7Zm-7.28,8.14c-1,.62-1.59.66,0,0C138,348.9,133.56,348.41,137.17,349.84Z"/><path class="cls-1" d="M198,343.8c2.44,10.25-52.22,4.93-26.15-.79C189.63,329.32,158.41,348.62,198,343.8Zm-7.43,2.37h0C190.45,346,189.29,347.05,190.61,346.17Z"/><path class="cls-2" d="M183.14,349.28c2.43-4.38,22.61,9.58-4.32,2.72C179,349.08,181.23,349.44,183.14,349.28Z"/><path class="cls-3" d="M178.85,352c.43-.64,18.47,3.18,6.24,4.41C183,357.31,179.56,357.86,178.85,352Z"/><path class="cls-1" d="M208.88,346.65c5.89-7.46,3.13-1.22,17.92,1.41C223.55,346.94,223.16,350.39,208.88,346.65Z"/><path class="cls-3" d="M183.14,349.28c-3.09-1.62-2.7,6.47-9.81,1.38C175,349.53,176.24,347.84,183.14,349.28Z"/><path class="cls-3" d="M131.38,355c-1.73.82-1.33,1.74,0,0C132.58,354,135.11,360.71,131.38,355Z"/><path class="cls-2" d="M221.4,352.16c-4.05,1.34-4.87-3.43,1.19.11A3.68,3.68,0,0,0,221.4,352.16Z"/><path class="cls-2" d="M204.79,347.93c-1.34,2-2.67,4.39-4.2.13Z"/><path class="cls-1" d="M204.79,347.93c.8-.13,1.18-.26,0,0C202.36,348.71,196.47,345.28,204.79,347.93Z"/><path class="cls-3" d="M173.32,352.09h0C173,352.85,169.7,353,173.32,352.09Z"/><path class="cls-1" d="M92.42,343.8c23.67.58,16.69,9.45-17.79,8.32C91,355.58,74.4,342.3,92.42,343.8Z"/><path class="cls-4" d="M97.82,358.76H91.11C92.4,358.13,93.64,356.91,97.82,358.76Z"/><path class="cls-2" d="M226.8,348.18c-28.18-7.93,4.71-1.59,9.56-13.85,3.15,4.59,8.62,15.72-7.58,12.43C254.69,354.79,229.83,363.46,226.8,348.18Z"/><path class="cls-1" d="M226.78,350.67c3.65.3.9,2.71,1.33,4.06C226.48,353.77,226.77,352.17,226.78,350.67Z"/><path class="cls-4" d="M221.4,352.16a3.68,3.68,0,0,1,1.19.11C222.13,352.92,221.73,352.9,221.4,352.16Z"/><path class="cls-1" d="M239.13,343.81c0-3.47.71-7.14-2.77-9.61,15.54-3.52,27.51,1.67,43,6.14-6.79-11.75,16.27-7.86,14.56,4.91l.07-.09c-1.38,5.55-46.29,10.43-28.6.37,3.39-5.42-17.55-1-1-6.93C255.61,334.87,247.35,337.83,239.13,343.81Z"/><path class="cls-3" d="M273.38,351.89c6.37-.81,27.83,2.63-1.27,6.95.17-1.8-1.43-3.3,2.87-3.18C274.29,355.26,272.92,355.09,273.38,351.89Z"/><path class="cls-2" d="M287.1,353.29c-9.13-1.57-10.1-4.89,4.18-5.32C290.9,349.36,290.58,350.53,287.1,353.29Z"/><path class="cls-3" d="M299.43,348c1.23.5,1.38,1.56,1.39,2.7C299.64,350.17,299.47,349.13,299.43,348Z"/><path class="cls-3" d="M241.72,354.78c-9-4.87,8.87-14.55,7.16.13Z"/><path class="cls-1" d="M254.25,360c-5.45-3.27-7.27-7.74,8.18-4C257.19,356.1,264.6,360.76,254.25,360Z"/><path class="cls-1" d="M272,356.09c-1.78,2.88-4.07,3.46,5.44,1.64C276.78,367.14,251.69,352.6,272,356.09Z"/><path class="cls-3" d="M262.56,357.63c-.09-1.06-.13-1.59,0,0C264.74,361.22,255.38,360.62,262.56,357.63Z"/><path class="cls-5" d="M71.82,50.32C76,51,89.89,43.49,89.5,56.12c-5.25-.78-15.63,1.33-24.45-1.69C73.2,55.18,60.2,50.12,71.82,50.32Z"/><path class="cls-2" d="M89.5,56.12c-4.76-8.21,2.29-4.09,18.08-6.81C109.54,55.91,99.32,60.3,89.5,56.12Z"/><path class="cls-2" d="M48.56,46.22c5.15-8,15.25,4.72-1.28,2.32C47.25,47.59,47,47.85,48.56,46.22Z"/><path class="cls-2" d="M66.63,50.57c4.88,2.75-9.55,6.93-5.5,1.41C61.78,51.33,61.67,52.65,66.63,50.57Z"/><path class="cls-5" d="M91.67,57.26c1.58,1.44,10.13-4.56,13.26.78C102.7,57.68,100.14,60.21,91.67,57.26Z"/><path class="cls-1" d="M36.34,47.72c.78.49-3.94,7.74-3-.23Z"/><path class="cls-5" d="M33.33,47.51h0C34.42,49.57,30.61,54.27,33.33,47.51Z"/><path class="cls-5" d="M36.34,47.72h0C37.07,46.88,31.77,49.46,36.34,47.72Z"/><path class="cls-4" d="M24.5,169.5c-4.63-16.34,25.34-.09,10.19,4.08C32,173.06,30.92,172.11,24.5,169.5Z"/><path class="cls-4" d="M54.76,150.67c2.87,5.86-7.24,6.1-7.58,13.55C40.21,160.3,42.08,146.67,54.76,150.67Z"/><path class="cls-5" d="M54.75,178.07c1.9-7.85-1.16-12.11-12.94-5.56C49.86,170.84,40.2,189.81,54.75,178.07Z"/><path class="cls-2" d="M54.89,168.16h0C51.14,179.65,39.27,155.23,54.89,168.16Z"/><path class="cls-2" d="M44.38,171.06c-2.25,7.1-17.31-13.44-5-8.48C40.42,164.15,38.47,163.26,44.38,171.06Z"/><path class="cls-2" d="M25.44,161.59c-3.17,5.85-13.25-8.19,2.26-5.93C27.75,157,27.52,158.05,25.44,161.59Z"/><path class="cls-4" d="M44.62,140.82c3.34-3.88,7.14,1.28,0,9.08C44.62,148.08,44.52,146.91,44.62,140.82Z"/><path class="cls-4" d="M41.69,139.42c-.53-2.55,3.54-6.31,2.7,1.4A22.25,22.25,0,0,1,41.69,139.42Z"/><path class="cls-3" d="M31.52,305.05h0C31.93,305.44,29.41,307.61,31.52,305.05Z"/><path class="cls-1" d="M37.52,312.33c-1.14-.06-2.22-.23-2.79-1.41A2.79,2.79,0,0,1,37.52,312.33Z"/><path class="cls-1" d="M38.81,312.34c-.48,1.1-.92.81-1.34,0A11.92,11.92,0,0,1,38.81,312.34Z"/><path class="cls-4" d="M51.34,216.26c.06,6.85-29.83,32.79-27.61,20.58,5.37-2.22,19.69-10.69,9.72-17.77,2.06,1.39,6.69.09,11.88,3.77C41.33,216.4,48.83,200.27,51.34,216.26Z"/><path class="cls-1" d="M26.52,231.34c-9.79-13.5-.21-28.94,8.29-5.43C32.29,226.11,27.12,224.78,26.52,231.34Z"/><path class="cls-3" d="M21.29,213.68c3.42,3.86.64,20.47-3.39,2.91C13.5,213.37,19.92,198.54,21.29,213.68Z"/><path class="cls-3" d="M26.52,231.34h0C29,218.37,42.71,230,26.52,231.34Z"/><path class="cls-3" d="M25.17,235.46c-.94-2.86-.77-1.83,0,0C24.27,240.69,18.58,226.55,25.17,235.46Z"/><path class="cls-5" d="M51.34,216.26c1.17-1.89-1.79-.1,3.43-9.72C54.84,206.57,57.42,221.49,51.34,216.26Z"/><path class="cls-5" d="M54.84,277.91a7.15,7.15,0,0,1-.21,5.68C55.29,282.35,52.56,283.1,54.84,277.91Z"/><path class="cls-1" d="M21.08,330.24c.91-6.21-8.88-8.86-2.74-13.83C21.25,316.08,23.83,318.94,21.08,330.24Z"/><path class="cls-5" d="M54.71,306.72c16,3.49,52.53,4.06,18.24,8.14,15.17,11.71-43,7.77-3.53,1.9C66.24,312.36,48.29,316.66,54.71,306.72Z"/><path class="cls-1" d="M49.87,187.59c-5.77-15.47,4.4-10.29-25.36-18.09,4.13,6.17-16.26,4.36,21.28,26.12C48.57,195.75,54.7,198.65,49.87,187.59Z"/><path class="cls-1" d="M20.89,169.08C19,171.89,16,172.22,13,172.57,14.18,168.11,17.86,169.35,20.89,169.08Z"/><path class="cls-2" d="M30.7,151.86l-.64.58C30.28,152.35,30,152.19,30.7,151.86Z"/><path class="cls-5" d="M310.77,290.94c-10.53,25.22-9.56,16.48-43.41,17.67,1.27,12.34-22.59-4.38-40.59.74-16.17,12.18,19.3,19.83,44.11,9C293.57,320.22,320.44,325.08,310.77,290.94Z"/><path class="cls-1" d="M226.77,309c-20.05,26.75,54.4,4.32,67.37,9.94,18.28,6.19-44.11,17.24-82.39,2.64C220.28,315.52,206.66,306,226.77,309Z"/><path class="cls-1" d="M310.63,313.69c-5.27-1.36,12.55-21.36-2.39-22.48-3.39,14.23-6.43-23.81,7-15.25-3.94,12.71,9.18,9.94,12.83,15.68C329.79,299.26,329.58,322.88,310.63,313.69Zm12.14-22.38c.31,3.4.07,2.23,0,0C321.09,290.53,317.27,302.68,322.77,291.31Zm-5.06,17.59c-.76.51-1.11.49,0,0C317.93,308.48,314.28,307.94,317.71,308.9Z"/><path class="cls-1" d="M306.42,239.49c4.85-13.74,9.48-3.31,16.13-28.73-25.08,3.42,6.08-13.54,2.41,7.27,4.83-3.75,8-14.1,8.87,5.16C314.69,223.89,317.16,262.33,306.42,239.49Z"/><path class="cls-3" d="M320.09,231.34c1.86-4.22,2.1-2.61,9.6,4.11h0l1.38,1.41,0,0c7.24,6.76-1.63-8.07,2.71-6.89l0,0c17.15,4.81,18.85,4.18-6.72,18l0-.13c-.95.92,0,0-2.86,2.75C322.63,246.42,328.73,235.86,320.09,231.34Z"/><path class="cls-3" d="M320.12,336.8c10.9,8.31-18.17,5.49-22,2.93C308.85,343.94,297,318,320.12,336.8Z"/><path class="cls-3" d="M310.63,313.69c5.47,1.58,9.86.82,7.45,14.22-2.89-9.36-6.34-.27-14.47-8.78h0C302.63,315.65,306.11,317.94,310.63,313.69Z"/><path class="cls-3" d="M331,313.54c.34,3,8.85,7.07,5.43,12.68C330.42,328,323.84,322.55,331,313.54Z"/><path class="cls-5" d="M306.07,269.81c-1.56.24,4.41-21.23,6.11-11.7C311.29,262,313,266.85,306.07,269.81Z"/><path class="cls-5" d="M269.28,329.76c8.82-.28,3.86,3.8-31.54,1.41C246,327.78,249.47,330.61,269.28,329.76Z"/><path class="cls-5" d="M323.69,279.59c-3.88-4-1.21-9.95,1.5-16.64C327,261.2,329.94,263.32,323.69,279.59Z"/><path class="cls-5" d="M331,313.54c-1.05.92-1.57,2-4.08,5.64C318.11,321.31,330.33,299.83,331,313.54Z"/><path class="cls-1" d="M338.94,311.05c3.64-14.15,10.9,3.22,1.79,5.53C340.37,315.42,337.65,314.34,338.94,311.05Z"/><path class="cls-1" d="M321.58,265.06c-2.47-8.94-4.67,5.26-8-2.38C313.1,260.17,325.18,253.62,321.58,265.06Z"/><path class="cls-1" d="M325.79,253.24c-8.79,6.35-8.05-13.07-1.63-2.66C324.68,251.47,324.16,250.58,325.79,253.24Z"/><path class="cls-5" d="M298.11,339.72c5.06,2.33-7.08,7.44-2.65-1.56C295.44,339.05,297.88,336.11,298.11,339.72Z"/><path class="cls-5" d="M327,248c7,2.59-3,15,0-.13Z"/><path class="cls-4" d="M324.16,250.58c-2.08-3.84-1.78-5.77,0-13.69C327.8,241.47,322.7,246,324.16,250.58Z"/><path class="cls-1" d="M298.11,339.72c3.68.33,5.4-.05,0,0C296.32,336.28,306,336.26,298.11,339.72Z"/><path class="cls-1" d="M270.62,331.57c.49-.34,7.4-.24,1.82,3.67C271.42,334.94,270.59,334.65,270.62,331.57Z"/><path class="cls-5" d="M306.67,241.07c1.59,1,0,0,1.12,4.06C305.51,244.85,305.41,245.83,306.67,241.07Z"/><path class="cls-1" d="M303.61,319.13c.81,1.77,1.23,2.66,0,0C303.75,318.18,311.06,322.06,303.61,319.13Z"/><path class="cls-4" d="M327,247.83h0C326.44,246.46,328.23,257.12,327,247.83Z"/><path class="cls-1" d="M326.29,282.85c-.43.85-.31,1.1,0,0C326.62,282.51,328.59,285.17,326.29,282.85Z"/><path class="cls-1" d="M315.44,272.06c-.4,0-.47.12,0,0C316,272.19,314.86,273.5,315.44,272.06Z"/><path class="cls-1" d="M340.7,317.56c0,1,0,2-.05,3C339.08,319.54,339.29,318.54,340.7,317.56Z"/><path class="cls-3" d="M307.71,324.64h0C308.22,324.9,305.48,327.92,307.71,324.64Z"/><path class="cls-5" d="M306.23,273.84h0C306.52,274,305.53,271.66,306.23,273.84Z"/><path class="cls-4" d="M294.08,342.86c.92,0,0,0,1.93,1.28C295.31,344.14,293.19,346.78,294.08,342.86Z"/><path class="cls-2" d="M92.42,343.8c-12.18-9.09-34.1,1.56-35.62-16.54C53.54,327.89,136.33,337.78,92.42,343.8Z"/><path class="cls-4" d="M59.43,327.35c-13.1-.84-9-5.61,19.2-2.69C78.3,330.29,68.9,326.18,59.43,327.35Z"/><path class="cls-1" d="M55.6,323.54c-3.1,2.73-12.29-7.47-4.37-12.62C50.33,316.37,58.05,312.21,55.6,323.54Z"/><path class="cls-2" d="M56.85,316.76c-7.82-3.81-7.89-7.84,12.57,0Z"/><path class="cls-4" d="M40.27,336c-2.25-2-3.68-15.81-6.71-3.17C34.53,331.52,35.19,342.15,40.27,336Z"/><path class="cls-5" d="M48.28,328.83c-1.16-3-2.91-2.81,0,0C50,332.13,36.29,332.89,48.28,328.83Z"/><path class="cls-4" d="M82.77,340.92c2.26,2.09,5.75.35,8,2.59C93.34,343.34,63.06,345.26,82.77,340.92Z"/><path class="cls-1" d="M59.39,339.62c3.28-.19,3.3-.11,10.51,2.05C69.17,342.54,57.23,342.54,59.39,339.62Z"/><path class="cls-4" d="M82.82,349.16c-3.33.31-2.11.42,0,0C91.47,349.78,76.4,355.73,82.82,349.16Z"/><path class="cls-4" d="M66.52,347.77c0-.81,0,0-.08-2.45C66.83,345.39,70.49,347.1,66.52,347.77Z"/><path class="cls-5" d="M32.76,316.7h0C31.42,318,29.84,313.86,32.76,316.7Z"/><path class="cls-1" d="M54.13,327.47c.8-1.22,0,0,2.67-.22C56.43,328.53,57.14,329.68,54.13,327.47Z"/><path class="cls-3" d="M324.23,25.63c3.21,7.25-16.73-.68-18.69,7.6,12.53,8.37,9.9-6.15,20-1.38,2.83,2.77-9.05,28.17-12,15.28-9.28,16.08,3.25-15.3-46.94-16C287.94,36.77,304.56,22.46,324.23,25.63Z"/><path class="cls-1" d="M313.1,23c1.9,4.45-22.06,6.48-22,.37C295.19,21.9,302.66,23.34,313.1,23Z"/><path class="cls-3" d="M277.47,21.6c1.39-.71,14.87-8.1,13.8,1.19C289.14,23.72,287.88,22.51,277.47,21.6Z"/><path class="cls-5" d="M277.47,21.6c28.51,4-3.24,4-19.22,1.35C259.24,19,260.78,21,277.47,21.6Z"/><path class="cls-3" d="M110.2,36.51c11.29-8.56,56,18.17,29.27,15.19C135,41.8,129.31,40.49,110.2,36.51Z"/><path class="cls-4" d="M144.38,53.18c2.93-6.34,2.32-3.19,11-11.08C158,42,166.48,57,145.83,55.75A23.39,23.39,0,0,0,144.38,53.18Z"/><path class="cls-4" d="M133.37,44.73C152.94,47.22,84.64,53,84.7,47.39,98.4,46.33,113.94,47.07,133.37,44.73Z"/><path class="cls-3" d="M36.07,22.76C38.35,11.67,47.69,23.88,58,21.19,71.87,12.06,69.74,29.72,36.07,22.76Z"/><path class="cls-5" d="M134.66,26.9c8-2.78,13.32.5,20.78,9.74C150.85,40.75,145.5,30.52,134.66,26.9Z"/><path class="cls-3" d="M153.9,37.88c6-2.55,10,5.08,18-1.29.82,1.44,3,2,2.74,4.12h0c-2.2,2.35-11.51,3.82-19.26,1.4l0,0Z"/><path class="cls-2" d="M74.59,25.68C76.65,26.37,98.78,23,92,30.1,86.88,26.71,59.5,33.08,74.59,25.68Z"/><path class="cls-2" d="M78.55,40.58c4.06,1.12-3.87,13-11,1.39C69.51,41.06,70.76,40.2,78.55,40.58Z"/><path class="cls-4" d="M110.2,36.51c2,3.13-35.68,3.81-19.18-1.81C94.27,35.05,94.52,36.4,110.2,36.51Z"/><path class="cls-3" d="M86.76,24.56c-19.48.21-22.46-3.79,4.94-2.14C90,25,88.11,24,86.76,24.56Z"/><path class="cls-5" d="M104.73,24.4c3.2-.41,4,0,17.82,1.21C116.46,27.31,110.37,29.22,104.73,24.4Z"/><path class="cls-5" d="M69.57,17.19C72,14.83,76.2,14,82.79,14.66,84.56,17.75,82.26,17.51,69.57,17.19Z"/><path class="cls-5" d="M78.55,40.58c-.85,1.58-30.94.37-11.39-.85C68.15,40.84,69.76,37.37,78.55,40.58Z"/><path class="cls-3" d="M47.06,17.34c-.28-4.59,7.3-3.07,13.8,0C58.35,17.44,56.92,17.34,47.06,17.34Z"/><path class="cls-5" d="M87.11,38.28c.76,2.53,15.7-1.26,4.92,2.95C87.65,43.87,89.44,51.79,87.11,38.28Z"/><path class="cls-2" d="M87.11,38.28c1.75,1.11-.64,9.36-3.09,2.7C84.91,41.11,83.83,37.26,87.11,38.28Z"/><path class="cls-2" d="M78.63,39.54c-1.11-2.43-.79-1.53,0,0C78.47,40.47,70.12,38.1,78.63,39.54Z"/><path class="cls-3" d="M147.17,40.76h4.42C150.22,42.63,148.71,41.09,147.17,40.76Z"/><path class="cls-3" d="M144.13,42.36h0C144,42.64,142.66,42,144.13,42.36Z"/><path class="cls-4" d="M48.5,46.23l-1.37,1.65Z"/><path class="cls-2" d="M47.06,17.34c0,.75,20-2.5,10.9,3.85C55.22,24,36.55,17.31,47.06,17.34Z"/><path class="cls-5" d="M350.22,280.73c1.23,1.5,4.59,2.51,0,7Q350.23,284.24,350.22,280.73Z"/><path class="cls-1" d="M328.29,106.56c-.78-1.11,8.76-16.33,8.31-5.26C335.77,103.24,334.29,109.83,328.29,106.56Z"/><path class="cls-1" d="M332.43,114.83c.65,1.72-3.57,10-6.92,1.33C327.39,116.61,324.79,114.23,332.43,114.83Z"/><path class="cls-4" d="M339.23,91.9c2,4.31,1.82,10.95,1.43,20.8C336.44,112,338.66,100.57,339.23,91.9Z"/><path class="cls-1" d="M336.5,91.43c1.09-.29,0-.11,3,.47C340.47,95.61,325.72,94,336.5,91.43Z"/><path class="cls-1" d="M328.58,113.41c-1-.19,0,0-2.05-1.68C326.9,111.54,329.57,109.19,328.58,113.41Z"/><path class="cls-1" d="M339.34,71.44c.16-2-.89-4.21,1.07-5.87C340.33,67.58,341,69.71,339.34,71.44Z"/><path class="cls-1" d="M339.49,75c-1.91-1-1.29-2-.06-3.06Z"/><path class="cls-1" d="M342,62.74c-.88-.1-1.31-.18,0,0C342.65,63,340.65,66.07,342,62.74Z"/><path class="cls-3" d="M187.06,44.82c4.76,6-29,14.4-1.37-2.77A2.62,2.62,0,0,0,187.06,44.82Z"/><path class="cls-5" d="M145.83,55.75c5.75,2.76,24.07-3.18,30.43,2.28C171.26,56.88,151.78,62.49,145.83,55.75Z"/><path class="cls-3" d="M169.15,55.69c0,.31-22.84,2.74-12.52-2.26C161.15,52.25,166.19,47.82,169.15,55.69Z"/><path class="cls-1" d="M159.58,36.63c.53-.25-7.93,2.88-2.11-1.36C158.23,35.75,160.72,32.28,159.58,36.63Z"/><path class="cls-3" d="M174.66,40.71h0C175.75,40,175.58,47.15,174.66,40.71Z"/><path class="cls-3" d="M171.93,36.6l.31-.58A5.13,5.13,0,0,0,171.93,36.6Z"/><path class="cls-1" d="M200.55,34c-2,6.36,7.7,8.87-2.44,13.47C194.73,50.21,184.47,28.92,200.55,34ZM197,35.91c-.75.54-1.1.54,0,0C197.23,35.48,193.51,35.09,197,35.91Z"/><path class="cls-5" d="M195.27,47.58c4.41-3.9,15.1,8.58,8,10.44C203.88,54.66,191.91,54.83,195.27,47.58Z"/><path class="cls-3" d="M187.09,57.79c.12-2.7-.08-1.69,0,0C184.69,60.18,182.58,52.8,187.09,57.79Z"/><path class="cls-2" d="M196.65,30.86c.91-.77.86-1.18,0,0C195.84,32.65,191.1,25,196.65,30.86Z"/><path class="cls-3" d="M189.67,50.37c-1.26-1.14-1.75-1.16,0,0C189.51,51.83,184,51.37,189.67,50.37Z"/><path class="cls-2" d="M187.06,44.82a2.62,2.62,0,0,1-1.37-2.77C187,42.57,187.09,43.66,187.06,44.82Z"/><path class="cls-1" d="M266.59,31.57c9,4.24,28.67-1.14,38.44,9.48-7.67,3.06,13.46,20.92-4.1,14.1-18,3.08,1.09-13.55-5.61-11.73-14.89-2.08-18.9,25.7-68.62,3.13,23-12,19.32,5.65,34.94-5.47.6-2.11,8.35-1.77,15.41-2.11C265.46,38.17,215,30.1,266.59,31.57Z"/><path class="cls-1" d="M211.43,20c13.63-.61,20.72-.09,5.38,7,1.41,2.14,14.42,9.17,5.85,10.07C226.39,45.91,192,41.34,211.43,20Z"/><path class="cls-4" d="M230.83,48.71c5.57,4-27.47,16.47-28.94-1.33C208.44,40,216.56,48.1,230.83,48.71Z"/><path class="cls-4" d="M225.53,36.79c2.62-.67,2.94-2.6,7.67-7.5C235.41,33.94,221.4,58.42,225.53,36.79Z"/><path class="cls-2" d="M228.23,44.86c1.11-5.29,5.55-9.39,5-15.57-.76,16.6-52.78-20.23,34.73-.94-39.5,2-13.27,3-11.08,20.36C249.12,45.35,243.18,38.07,228.23,44.86Z"/><path class="cls-1" d="M267.93,28.35c-4.86-5-37.74,2.92-32.81-9.24,6.45,4.69,19.93-6.52,23.14,3.83C278.15,23.88,324,37.22,267.93,28.35Z"/><path class="cls-2" d="M167.73,22.8c-.48,1.17-1.5,1.41-2.6,1.51C165.6,23.12,166.65,22.93,167.73,22.8Z"/><path class="cls-3" d="M325.47,208c-22.06-4.81-8.53,16.26-19.05,27.45C295.45,187,334.67,186.71,325.47,208Z"/><path class="cls-3" d="M331.21,171.15c-1.66-2.45-31.57,6-19.32-16.82C306.52,158.27,348.73,162.23,331.21,171.15Z"/><path class="cls-1" d="M339.37,179.32c-3.62,8.85-1.23-5.78-12.56,13.83C312.36,192.74,314.31,160.51,339.37,179.32Z"/><path class="cls-2" d="M313.3,157.05c-.27-6.88-11.48,9.08.22-14.06-3.29,2.24-.13-2-3.24-5.78,1.61.07-.71-.67,7.08-.47,11,4.93-.17,7-2,13.95C318.44,152.6,331.68,154.93,313.3,157.05Z"/><path class="cls-2" d="M321.53,172.86c-2.87,13.75-4.19,8.19-9.75-3.27C314.46,169.81,314.8,172.3,321.53,172.86Z"/><path class="cls-3" d="M310.42,140.87c6.26.48-3,20.23-4.34,4.7C308.11,146.17,301.25,139.73,310.42,140.87Z"/><path class="cls-2" d="M309.12,159.14c1,2.34,3.37,4.92-1.15,6.23C308.05,163.24,306.92,160.88,309.12,159.14Z"/><path class="cls-5" d="M308,198.35c.07-2.39-.11-1.53,0,0C306.15,202.85,303.84,193.91,308,198.35Z"/><path class="cls-1" d="M325.5,208c0-.4,0,0,0-1.22C326.6,206.64,333.31,206.82,325.5,208Z"/><path class="cls-2" d="M309.07,173.77h0C308.3,173.43,308.27,170.09,309.07,173.77Z"/><path class="cls-2" d="M309.09,173.74l.54.59C309.43,174.25,309.13,174.32,309.09,173.74Z"/><path class="cls-1" d="M331.21,171.15c8.76-1.07-3.41-11.79,8-15.23C336.83,158.45,347.15,176.48,331.21,171.15Z"/><path class="cls-4" d="M321.53,172.86c-3-.68-6.27-.49-8.45-3.22C315,169,341.19,173,321.53,172.86Z"/><path class="cls-4" d="M316,51.67c14.36-26.13,32.92-10.92,5.4,15.4C316.38,63.2,317.31,62,316,51.67Z"/><path class="cls-4" d="M339.34,140.77c6.2,28.24-25.21-22.58-7.57-7.73C337.68,115.8,343.79,120.11,339.34,140.77Z"/><path class="cls-1" d="M309.94,140.87c-8.75,2.65,1.86-10,5.46-64.42-1,15.43,2.35,44.45-5.59,60.76C310.76,138.35,314.08,139.38,309.94,140.87Z"/><path class="cls-3" d="M316,91.42c3.12-12.8-8.22-33.82,10.93-16.42C328,81.07,323.19,85.73,316,91.42Z"/><path class="cls-3" d="M336.5,91.43c-11,5-7.39-13-4.85-21.66C330.33,75.65,338.92,82.47,336.5,91.43Z"/><path class="cls-1" d="M317.34,91.48c3.63-11.13,14-7.93,2.46,7.91C325.85,105,316.91,113.13,317.34,91.48Z"/><path class="cls-3" d="M322.77,102.45c-11.6-15.57,14.9-1.59-.19-5.84C321.1,98.48,323.08,96.21,322.77,102.45Z"/><path class="cls-3" d="M313.37,136.7c-1.32-5-.19-10-.11-15C312.17,123.43,322.69,137.4,313.37,136.7Z"/><path class="cls-3" d="M325.54,132.61c3.43,4.09-13,9.34-4.82,1.12C320.71,132.17,322.28,126,325.54,132.61Z"/><path class="cls-1" d="M341.34,51.9c-.3,3.08-.59,6.16-.89,9.24C339,57.89,337.41,54.62,341.34,51.9Z"/><path class="cls-3" d="M329.71,128.55c-.13,1.53-4.23-6.47-.19-2.7C329.74,125.74,329.5,126.78,329.71,128.55Z"/><path class="cls-1" d="M328.28,88.77c2.8.08,2.69,2.13,2.76,4.06C328.31,92.71,328.27,90.75,328.28,88.77Z"/><path class="cls-1" d="M322.76,101c-1.81-1.22-1.38-2.77-.18-4.41C322.5,97.69,323,96.56,322.76,101Z"/><path class="cls-3" d="M326.91,75h0C326.47,73.77,329.64,70.23,326.91,75Z"/><path class="cls-1" d="M325.51,116.16l-.57-.33C325.12,116,325,115.74,325.51,116.16Z"/><path class="cls-2" d="M322.77,29.86c-2.73,3.06-9.66,8.6-17.23,3.37C304.92,28.57,316.92,28.08,322.77,29.86Z"/><path class="cls-3" d="M329.69,39.46c-.83-.2-1.26-.17,0,0C330.22,39.61,326.93,41,329.69,39.46Z"/><path class="cls-2" d="M336.66,149c5.67.33-1.5,13.73-5.57,14.82C324.26,159.11,326.83,153,336.66,149Z"/><path class="cls-2" d="M53.79,207.93c-1.12,8.55-15.09-6.65-8.46,14.91C17.77,211.67,5.65,202.57,53.79,207.93Z"/><path class="cls-4" d="M52.07,194.11c-1.32,2.5-3.37,3.13-6.28,1.51C39.21,209.42,61,218.87,52.07,194.11Z"/><path class="cls-4" d="M36.32,192.45c23.53.76-11.8,10.72-9,2.89C29.61,195.08,26.19,193.76,36.32,192.45Z"/><path class="cls-1" d="M25.06,202.66c-1.28,5-12.6,7.75-4-4.18C22.43,198.72,23.63,198.89,25.06,202.66Z"/><path class="cls-5" d="M26.47,186.18c2.83,1.59,4.21-.07,0,0C24.56,183.8,34.21,176.36,26.47,186.18Z"/><path class="cls-2" d="M36.32,192.45c-.52.92-9.07-.25-1.58-3.61C36.27,189.07,37.25,189.45,36.32,192.45Z"/><path class="cls-3" d="M25,172.87h0C24.76,172.94,26.3,173.28,25,172.87Z"/><path class="cls-2" d="M346.37,233.74c-8.05,3.64-8.58-2-4.25-14.71C343,221.62,344.11,222.86,346.37,233.74Z"/><path class="cls-4" d="M342.12,219c-.66,5.1-.16,5-8.41,10.93-2.7-1.26-1.81.32.16-6.76C337,223.74,335.19,215.85,342.12,219Z"/><path class="cls-5" d="M336.47,221.81h0C337,221.84,333.82,225,336.47,221.81Z"/><path class="cls-3" d="M348.9,275.24c-.16,1.83-.33,3.66-.5,5.49C345.36,280.14,345.41,279.61,348.9,275.24Z"/><path class="cls-3" d="M350.27,269.76c-.2,1.92.62,4.09-1.4,5.54C349.1,273.39,348,271.16,350.27,269.76Z"/><path class="cls-2" d="M346.5,263.63c-.71-.56-1.05-.56,0,0C346.67,264.07,343,264.28,346.5,263.63Z"/><path class="cls-1" d="M152.76,334.4c-6.77.41-20.46-.95-25.73,2,4.41-6.64-24-7.12-2.71-7.25,4.78.48,43.59-34,23.82-1C150.6,328.39,149,330.85,152.76,334.4Z"/><path class="cls-1" d="M78.63,324.65a9.36,9.36,0,0,1-1.3-.06c3.42-1.9,22.22-13,18.58-1.5-22,6.78,16.44,5.36,21.66,18.71-7.43.77-62.43-16.81-51.74-14.44C71.07,329.52,97.92,323.87,78.63,324.65Z"/><path class="cls-5" d="M111.66,334c-49.29-9.32,17.66-14.25-14.64-5.2C104.57,327.3,120.15,330.66,111.66,334Z"/><path class="cls-2" d="M115.63,334.19c4.24.68,6.34.15,0,0C99,326.11,130.48,331.42,115.63,334.19Z"/><path class="cls-4" d="M128.06,338.4c7.78-.64,32.22,5.47-2.73,2.63Z"/><path class="cls-1" d="M125.18,341.27c-1,1.51-2.6,1.09-4,1.19C121.49,338.69,123.78,341.47,125.18,341.27Z"/><path class="cls-2" d="M177.43,337c-1.64,5.08-21.4,12.35-15.05,2.69C166.61,338.78,179.15,318.67,177.43,337Z"/><path class="cls-2" d="M152.76,334.4c-.63-1.23-2.87-2.22-2.71-7C154.62,326.35,164.21,343.66,152.76,334.4Z"/><path class="cls-1" d="M155.4,337c5.53-1.9,10.87,7.14-4.57,5.4C152,341.49,153.34,341,155.4,337Z"/><path class="cls-3" d="M177.43,337c2.75-5.93,11.3-5.87,14.11-16.49-3.1,8.14,3.79,11,10.29,13.14C203.6,339.82,173.52,354.37,177.43,337Z"/><path class="cls-1" d="M191.29,325.9c-3.06-8.86,17.36-25.71,12.2,1.46C201.18,327.73,199.58,328.39,191.29,325.9Z"/><path class="cls-5" d="M203.49,327.36c3.95-12.41,16.44-34.14,8.15,2.82C210.12,329.63,208.88,329.41,203.49,327.36Zm5.45-8.24c.51-1,.89-2.38-.57.6Z"/><path class="cls-5" d="M217.17,326c7.41-9.74,15,23.68-4.12,5.53C217.24,331.79,216.32,330,217.17,326Z"/><path class="cls-4" d="M221.27,337c.31-4.06,20.69-3.05,11.43,4.06C232.82,339,200.93,347.74,221.27,337Zm4.3.41c.11.32.16.48,0,0C225.42,337.15,224.18,338.15,225.57,337.36Z"/><path class="cls-1" d="M204.84,343.83c-4.1,2.19-7.13-6.28,0,0Z"/><path class="cls-1" d="M196.52,340.6h0C197.47,337.26,203.25,335.49,196.52,340.6Z"/><path class="cls-3" d="M197.72,342.52c.47-3.9,5.45-.74.32,1.28C197.69,343.61,197.94,343.87,197.72,342.52Z"/><path class="cls-1" d="M204.84,343.84l.57.3Z"/><path class="cls-5" d="M213.1,331.47h0C212.69,331.3,210.66,328.77,213.1,331.47Z"/><path class="cls-3" d="M130.58,341.5l8.62.14C138.44,342.65,132.41,351.35,130.58,341.5Z"/><path class="cls-3" d="M137.17,349.84c-.48-1-.58-1,0,0C136.64,350.89,132.67,349.94,137.17,349.84Z"/><path class="cls-5" d="M197.72,342.52h0C201.16,343.69,190.64,344.66,197.72,342.52Z"/><path class="cls-2" d="M190.61,346.17c-.37,0-.44.1,0,0C191.15,346.28,190.08,347.5,190.61,346.17Z"/><path class="cls-3" d="M233.76,335.52c-6.55,5.89-23.71-20.77,9.44-5.43-8.56-.16-14.85,1.79,8.3,2.54C248.75,336,239.43,332.27,233.76,335.52Z"/><path class="cls-1" d="M240.57,348c-3.17,2.05-5,2.12-11.79-1.27C230.74,347.91,234.6,344.5,240.57,348Z"/><path class="cls-4" d="M240.57,347.9c-7.57-7,17.52-4.86,10.38-2.61C246.87,344,245.68,347.18,240.57,347.9Z"/><path class="cls-1" d="M235.06,338.31l-.12-1.4C235.77,337.31,236.14,337.75,235.06,338.31Z"/><path class="cls-1" d="M233.76,335.52l1.23-1.26C234.57,334.18,236,336.45,233.76,335.52Z"/><path class="cls-2" d="M273.38,351.89c-5.07,7.4-32.56-6.22-7.47-8.77C262,351.14,252.5,350.34,273.38,351.89Z"/><path class="cls-2" d="M254.18,343.71c-26.91,1.42,13.85-14.49-2.53-2.95C256.13,339.25,260.62,343.77,254.18,343.71Z"/><path class="cls-5" d="M258.36,340.76c-9.13,1.47-13.24-3.55,6.05-2.29C262.21,340.23,259.57,338.82,258.36,340.76Z"/><path class="cls-4" d="M255.49,343.83h0C257.43,343.61,262.69,344.22,255.49,343.83Z"/><path class="cls-4" d="M256.91,352.34c16.25,1.53,28.16,3.27-8.13,2.55C249.71,351.18,247.56,351.6,256.91,352.34Z"/><path class="cls-2" d="M271.93,355.15c.55.22.69-1,3.05.51C274.65,355,273.49,357.32,271.93,355.15Z"/><path class="cls-2" d="M272.11,358.84c-.13-.93-.19-1.39,0,0C271.6,358.73,266.44,357.93,272.11,358.84Z"/><path class="cls-1" d="M256.91,352.34c-2,2.34-18.63-5.41-2.73-8.5C257.15,345.47,254.64,344.36,256.91,352.34Z"/><path class="cls-2" d="M247.41,345.31c-.52.3-3,7.3-4.18,2.63C243.52,346.6,243.67,345.34,247.41,345.31Z"/><path class="cls-2" d="M262.33,355.17c.08.58.1.87,0,0C265.9,353.47,264.62,359.18,262.33,355.17Z"/><path class="cls-1" d="M85.42,314.66c-2.92-4.28,20.31-9.88,58.58-2.31C137.17,322.77,102.08,312.16,85.42,314.66Z"/><path class="cls-2" d="M211.64,309.22c-18.07,33.91,6-22.31-29.94,22.34C170.1,311.59,184.72,312.3,211.64,309.22Z"/><path class="cls-5" d="M192.5,309.46c-7.09,12.17-19.81,4.81-33,1.42l.06-.06C116.75,323.81,162.33,298.78,192.5,309.46Z"/><path class="cls-2" d="M317.26,64.07c-.92,30.5-19.09-2.59-3.73-16.94C316.12,51.56,318.46,54.3,317.26,64.07Z"/><path class="cls-3" d="M225.19,54.61c10.8-9,31.71,3.12,52.35,2.48C264.94,57.42,236.61,61.94,225.19,54.61Z"/><path class="cls-2" d="M314.49,92.72c.68,5-.81,36.69-5.47,3.82C306.66,102.22,302.4,77.65,314.49,92.72Z"/><path class="cls-3" d="M314.49,92.72c-6.33-.31-13.8-23.34-5.4-23.2C303.43,93.83,316.58,66.43,314.49,92.72Z"/><path class="cls-3" d="M306.2,96.93c4.13-2.74,8.6,15.92,0,17.86C306.21,111.05,306.21,105.36,306.2,96.93Z"/><path class="cls-5" d="M225.19,54.61c.95,3.09-.49,5.16-16.45,3.41C211.67,54.83,216.83,53.36,225.19,54.61Z"/><path class="cls-2" d="M306.22,114.79c5.94-.21,8.17,7.22,1.71,13.58C305.89,127.42,306,125.39,306.22,114.79Z"/><path class="cls-4" d="M145.83,55.75c-1.25,4.51-13.75,2.43-23.19,1.37C127.21,55.33,135.4,55.61,145.83,55.75Z"/><path class="cls-2" d="M277.54,57.1c1.1-1.53,4.62-3.12,27.39.27C300.86,55.93,298.92,60.66,277.54,57.1Z"/><path class="cls-3" d="M54.06,179.59a13.53,13.53,0,0,1,.69-1.52c-1.53.42-2.49,2-3.68,3C51.66,180.2,51.45,181.57,54.06,179.59Z"/><path class="cls-3" d="M51,181.22c-1.07,1.33-1.26,2.29,0,0C52.69,182.33,43.8,180.54,51,181.22Z"/><path class="cls-4" d="M104.93,58.05c.14-4.27,9.86-2.55,16,0Z"/><path class="cls-5" d="M122.58,309.44a13.88,13.88,0,0,1-13.75.08C113.41,307.91,118,308.79,122.58,309.44Z"/><path class="cls-5" d="M233.49,58.09c3.28-4.36,6.54-2.06,9.8,0A24.5,24.5,0,0,1,233.49,58.09Z"/><path class="cls-5" d="M306.14,127.1c-.8,4.22-.5,2.82,0,0C309.09,124.08,307.78,142.73,306.14,127.1Z"/><path class="cls-1" d="M309.07,68.16c-.31-2.91-.24-1.92,0,0C308.09,70.36,302,63.41,309.07,68.16Z"/><path class="cls-5" d="M54.92,160.16l-3.58-1.56C51.56,157.72,56.78,152.74,54.92,160.16Z"/><path class="cls-5" d="M295.35,58.16c1.24-.1,6.29-3.17,9.61.38Z"/><path class="cls-5" d="M135,309c-1.48,2.58-2.92,2.81-4.33-.06A5,5,0,0,1,135,309Z"/><path class="cls-3" d="M306.24,90.06h0C304.66,90.4,312.63,92.41,306.24,90.06Z"/><path class="cls-1" d="M306.58,298.61h0C307.35,299.2,311,300.12,306.58,298.61Z"/><path class="cls-2" d="M305.58,135.56l1.61.07C307.65,135.26,305,140.9,305.58,135.56Z"/><path class="cls-5" d="M121,58c0-.68.43-1.9,3.12,0Z"/><path class="cls-5" d="M306.36,238.22c1.17.49,1.1.95,0,1.37C306.33,239.13,306.35,238.68,306.36,238.22Z"/><path class="cls-5" d="M277.54,57.1c-.15.64.64,1.51-1.46,1Z"/><path class="cls-5" d="M280.23,58.19c.49-.64,1-.63,1.46,0Z"/><path class="cls-1" d="M122.64,57.12c-7,3.13-18.9-9.42-13.64-4.95,13,10.12,6.59-4.61,27-4.27C150.56,58.3,144.42,54.77,122.64,57.12Z"/><path class="cls-1" d="M92.51,49.27h10.6C99.57,51.39,96,54.24,92.51,49.27Z"/><path class="cls-2" d="M34.69,173.57l-.64.82C34.09,174.08,33,173,34.69,173.57Z"/><path class="cls-3" d="M48.41,160.1a8.41,8.41,0,0,0-1.12.06C47.61,159,48,159.11,48.41,160.1Z"/><path class="cls-3" d="M34.81,225.91c-.33.12-4.86-10.38,0-4.25C36.76,223.44,43.58,226.14,34.81,225.91Z"/><path class="cls-4" d="M141,316.39c-1.42,3.73-26.78,5.18-68-1.71C92,314.46,117.66,315.82,141,316.39Z"/><path class="cls-2" d="M79.89,316.62c16.09-2.26-5.56,15.42-6.6,4.09C74.92,319.77,73,320.41,79.89,316.62Z"/><path class="cls-1" d="M73.29,320.7c5.56,5.75-20.72,5.54-9.86-.24C65.73,320.59,67.83,319.72,73.29,320.7Z"/><path class="cls-1" d="M80.17,314.54l-4.06.17C77.17,313.56,77.37,310.12,80.17,314.54Z"/><path class="cls-2" d="M77.41,312.21c-2.76.28-1.78.3,0,0C79,312.89,71,317.73,77.41,312.21Z"/><path class="cls-1" d="M79.89,316.62c-.44.15-.37,2.16-4,.08Z"/><path class="cls-1" d="M303.57,316.39c-1.14,0,2.69,2.59-2.22,2.71C300.55,317.58,298.41,316.69,303.57,316.39Z"/><path class="cls-1" d="M305,316.42l-1.37,0C304.07,315.37,304.52,315.4,305,316.42Z"/><path class="cls-2" d="M213.05,331.51c3,1.63,4.27-.46,0,0C208.26,326.49,215.15,313,213.05,331.51Z"/><path class="cls-2" d="M269.28,330.09l-12.27,0C260,326.87,266.53,326.89,269.28,330.09Z"/><path class="cls-2" d="M322.77,291.31c-2.69,2.08-1.63,1.48,0,0C324.58,292.41,318.86,303,322.77,291.31Z"/><path class="cls-5" d="M317.71,308.9c-.71-.57-1-.58,0,0C317.89,309.35,314.2,309.56,317.71,308.9Z"/><path class="cls-2" d="M311.72,227c2.57-6.5-11.38-18.76,10.83-16.28C317.93,212.34,317,243,311.72,227Z"/><path class="cls-5" d="M333.87,223.2c-2,1.35,1.81,1.49-3,6.63C325.67,238.89,319.81,224.34,333.87,223.2Z"/><path class="cls-2" d="M314.56,245.08h0C312.79,244.85,314.27,236.66,314.56,245.08Z"/><path class="cls-2" d="M326.78,226c.08,1.1,0,2.13-1.24,2.6C326,227.74,326.37,226.88,326.78,226Z"/><path class="cls-2" d="M328.1,233.69c-.71-9.82,13.93,6.37,2.92,3.14l-1.36-1.39C329.18,234.85,329.66,235.44,328.1,233.69Z"/><path class="cls-4" d="M331,236.83c1.09.12,0,0,2.74,1.39C332.88,239.49,333.4,240.86,331,236.83Z"/><path class="cls-4" d="M328.1,233.69l1.59,1.76C329.8,236.25,326.12,233.44,328.1,233.69Z"/><path class="cls-2" d="M333.71,230c0-1.18.21-2.23,1.45-2.74C335.1,228.35,335,229.45,333.71,230Z"/><path class="cls-2" d="M332.4,229.93a8.44,8.44,0,0,1,1.33,0C333.28,231,332.84,230.91,332.4,229.93Z"/><path class="cls-4" d="M329.66,235.44l1.38,1.41Z"/><path class="cls-2" d="M325.6,231.26l1.39,1.43Z"/><path class="cls-1" d="M237.74,331.51h0C237,331.51,229.67,330.06,237.74,331.51Z"/><path class="cls-2" d="M78.63,324.65c0,1.81,0,2.71,0,0C83.56,323.34,91,328,78.63,324.65Z"/><path class="cls-2" d="M298.16,31.26c-12.3-4.49-29.56-9.68,5.46-4.24C303.6,29.35,303.58,32.92,298.16,31.26Z"/><path class="cls-5" d="M267.93,28.35c8.69,1.54,5.71,4.87-17.64,1.36C256,26.86,262.08,29.16,267.93,28.35Z"/><path class="cls-1" d="M89.63,46.07c-4.8-7.16,33.74-12.48,43.74-1.35C119.12,47.1,108.83,46.3,89.63,46.07Z"/><path class="cls-5" d="M115.83,39.19c-3.77-1.1-5.7-1.45,0,0C116.26,43.22,104.12,39.15,115.83,39.19Z"/><path class="cls-5" d="M121.15,39.36c-.54.63,0,0-1.65,1.78C118.7,41.22,117.29,38.32,121.15,39.36Z"/><path class="cls-2" d="M155.42,42.1l1.49,1.4Z"/><path class="cls-2" d="M121.35,48c14.2,6.39-14.54,11.82-11.3,1.16A85.17,85.17,0,0,1,121.35,48Z"/><path class="cls-5" d="M104.63,38.21c-1.69,4-3.45,4-5.28.09Z"/><path class="cls-3" d="M203.47,44.83c-3.42-.2-2.17.08,0,0C205.94,45.64,195.57,51,203.47,44.83Z"/><path class="cls-2" d="M197,35.91c-.75-.54-1.1-.54,0,0C197.23,36.35,193.51,36.72,197,35.91Z"/><path class="cls-5" d="M295.25,55.65c-2,1.36-36.2.05-11.2-6.88C287.1,40.55,298.87,38.33,295.25,55.65Z"/><path class="cls-5" d="M254.23,40.76c-10.6-9.59,10.51-2.59,22.82-1.86-5,2-11-1.4-16,1.88l0,0Z"/><path class="cls-3" d="M295.31,43.47h0C294.6,42.41,301.9,42.51,295.31,43.47Z"/><path class="cls-5" d="M261.06,40.71l.58.32A3.42,3.42,0,0,0,261.06,40.71Z"/><path class="cls-3" d="M225.53,36.79c-2.88.36-1.85.32,0,0C227.11,39.09,219.05,43,225.53,36.79Z"/><path class="cls-4" d="M313.3,157.05c-.54-.41,18.83.08,4.71,2C319.26,157.8,311.69,161.82,313.3,157.05Z"/><path class="cls-4" d="M326.92,158.34c-.15,2.12.85,2.1-4.21.43C324.27,157.82,322.88,158.39,326.92,158.34Z"/><path class="cls-4" d="M328.09,160l1.63,1.58C329.17,161,328.63,160.49,328.09,160Z"/><path class="cls-1" d="M326.92,158.34c-3.82-2.79-8.19-4.79-12.34-10.7,14.54-.49-2.17-12.61,16.29-6.86C342.5,153,328.62,146.54,326.92,158.34Z"/><path class="cls-3" d="M313.19,143.57l.33-.58A5.36,5.36,0,0,1,313.19,143.57Z"/><path class="cls-3" d="M315.76,147.5a5.94,5.94,0,0,1-1.18.14C314.91,147,315.27,146.69,315.76,147.5Z"/><path class="cls-5" d="M330.87,140.78c.06-2.61.17-1.64,0,0C327.39,142.7,324,135.06,330.87,140.78Z"/><path class="cls-2" d="M326.91,136.72h0C330.21,140.73,318.08,143.66,326.91,136.72Z"/><path class="cls-3" d="M163.49,311.3c12.81,5.67-12.64,5.42,2.66,13.35.16-12.53,13.12,7.75-3.77,15-7.81-11.8-20.07-9.11-2.83-28.86C160,311,160.44,310.85,163.49,311.3Z"/><path class="cls-2" d="M122.2,318.53c12.57-3.85,19.12,11.49-3.57,7.71-2.65-5.72-11-8.23,6.93-3.34A5.14,5.14,0,0,1,122.2,318.53Z"/><path class="cls-4" d="M118.63,326.24c19.63,3.68,7.07,2.95-21.61,2.86C100.58,326.43,101.19,327.93,118.63,326.24Z"/><path class="cls-4" d="M155.49,313.9c-.73-.06-1.09,0,0,0C156.89,316.33,149.38,326.62,155.49,313.9Z"/><path class="cls-5" d="M149.76,327.44c-.08.73.71,1.76-1.62.7Z"/><path class="cls-2" d="M96.43,317.92c15.75,1.39,11.11.53-5.3,11C82.44,324.16,99,325.43,96.43,317.92Z"/><path class="cls-2" d="M89.6,319a2.47,2.47,0,0,1,2.81-1.14C92,319.63,91.62,321.27,89.6,319Z"/><path class="cls-1" d="M118.63,326.24c-1.44-.11-8.82,3.55-12.16-.6C109.53,327.41,113.55,315.89,118.63,326.24Z"/><path class="cls-3" d="M112.88,321.81c-2.39,7.36-20.24-1.92-3.93-1.39C109.25,321.36,111.2,318.56,112.88,321.81Z"/><path class="cls-1" d="M169.36,330c-4.35-15.92-.2-27.33,12.35,1.56C178.71,331.74,175.15,329.1,169.36,330Z"/><path class="cls-5" d="M177.37,331.42l4.17.07C181.2,330,179.84,337.67,177.37,331.42Z"/><path class="cls-3" d="M192.53,319.33c-.11-1-1.54-2,0-3C194,317.34,193.79,318.33,192.53,319.33Z"/><path class="cls-2" d="M209,319.17h0C208.93,318.28,210.91,316.34,209,319.17Z"/><path class="cls-2" d="M208.94,319.12l-.57.6C208.47,319.49,208.35,319.44,208.94,319.12Z"/><path class="cls-2" d="M225.57,337.36h0C225.9,337.45,225.4,338.71,225.57,337.36Z"/><path class="cls-4" d="M159.55,310.82c-.17,1.68-.28,3.47-2.61,1.58C157.41,311.22,158.49,311,159.55,310.82Z"/><path class="cls-4" d="M163.49,311.3l-1-.06A1.85,1.85,0,0,1,163.49,311.3Z"/><path class="cls-4" d="M161,310.91l-1.51,0C160,309.76,160.52,310,161,310.91Z"/><path class="cls-1" d="M311.82,79.05c-4.86,6.22-4.3,4.57-2.73-9.53C311.82,70.9,312.58,74,311.82,79.05Z"/><path class="cls-5" d="M112.94,320.54c-6.76,2.69-2.26-10.19,12.62,2.36C121.1,322.47,117.47,319.17,112.94,320.54Z"/><path class="cls-2" d="M326.9,155.93h0C326.12,155.63,326,152.39,326.9,155.93Z"/><path class="cls-4" d="M166.69,317.45c1.62,2.66,1.71.65-.54,7.2C165.81,321.63,151.09,317.42,166.69,317.45Z"/><path class="cls-2" d="M169.36,330a11.09,11.09,0,0,0,1.21.14C170.36,330.69,169.46,333.12,169.36,330Z"/></g></g></svg>