<svg xmlns="http://www.w3.org/2000/svg" viewBox="0 0 133.99 175.74"><defs><style>.cls-1{fill:#abc8aa;}.cls-2{fill:#008c00;}.cls-3{fill:#009c00;}.cls-4{fill:#01a601;}.cls-5{fill:#01ae01;}.cls-6{fill:#02c002;}</style></defs><title>Asset 10</title><g id="Layer_2" data-name="Layer 2"><g id="Layer_1-2" data-name="Layer 1"><path class="cls-1" d="M95.19,174.62l.08,1.12h-58l0-1.07c1.77-1.58,4-1.52,6.1-1.52q22.82-.08,45.64,0C91.21,173.15,93.42,173,95.19,174.62Z"/><path class="cls-2" d="M95.19,174.62l-57.85,0q0-32.43.07-64.87c3.47-1.25,6.76.62,10.22.56q18.62-.36,37.25,0c3.46.06,6.76-1.77,10.23-.55Q95.16,142.21,95.19,174.62Z"/><path class="cls-3" d="M95.11,109.81c-3.25,1.88-6.76,2.08-10.45,2q-18.39-.19-36.8,0c-3.69,0-7.19-.24-10.45-2-.07-4-.32-8-.14-11.92.16-3.29-.65-4.83-4.36-4.71-9.11.3-18.23.27-27.35.25-1.84,0-4.39.73-5.35-1.09C-.64,90.7,1.28,89,2.36,87.67c1.35-1.59,1.71-4,3.9-4.88,1-.38,2.76-.09,1.62-2.09a4.78,4.78,0,0,1,2.3-3.2c1.52-.58,3-1.69,4.71-.79,3.88,2,8.07,1.58,12.2,1.59q37.32,0,74.65,0c6.56,0,13.23.8,19.39-2.42,4.11,5.53,8.22,11.06,12.86,17.32-11.72,0-22.46.25-33.18-.12-4.7-.17-6,1.33-5.61,5.79A100.09,100.09,0,0,1,95.11,109.81Z"/><path class="cls-4" d="M121.13,75.87c-2.22,3.84-5.77,4-9.75,4-30-.12-60.07-.05-90.11-.09-2.37,0-4.91.71-6.73-2-1.08-1.56-2.11-.25-3.19.67-1.33,1.14-.84-.58-1.17-1q8-12.3,17.05-23.84c1.46,1.36,2.85,2.5,5.15,2.52,14.29.14,28.57.33,42.86.24,5.66,0,11.31.13,17-.11,1.32-.06,2.87.28,3.94-.32,5.77-3.19,9.64-.51,13.09,3.85,4.19,3.72,6.5,8.91,10.21,13C118.93,74.45,121.07,74.58,121.13,75.87Z"/><path class="cls-5" d="M109.24,59.84a9.94,9.94,0,0,1-1.88.32c-2.88-8.13-8.83-2.61-13.06-2.5-17.09.42-34.18.07-51.27.1-3.9,0-7.73-.88-11.72,0-2.71.59-5-.47-4.08-4.09L44.38,29.89c8.94.19,17.74-1.66,26.72-1.5,5.92.12,11.7-.31,17.14,2.49,4.26,3.24,6.48,8.09,9.55,12.26C101.79,48.57,106.29,53.68,109.24,59.84Z"/><path class="cls-6" d="M88.24,30.88c-.71,1.66-1.52,1.74-3,.58-2.7-2.17-5.73-2.27-9.22-1.84a102.44,102.44,0,0,1-15.38.22A45.61,45.61,0,0,0,47,32c-3.07.88-1.64-1.62-2.58-2.12,6.68-9.45,13.41-18.88,20-28.38C66-.73,66.85-.32,68.25,1.68,75,11.35,82.17,20.74,88.24,30.88Z"/><path class="cls-4" d="M7.88,80.7c1.51.27,3.16.7,1.83,2.64-1.22,1.78-2.4.34-3.45-.55Z"/><path class="cls-4" d="M9.41,91.1H27v.37H9.42Z"/></g></g></svg>