<svg xmlns="http://www.w3.org/2000/svg" viewBox="0 0 428.09 824.5"><defs><style>.cls-1{fill:#5d3a3f;}.cls-2{fill:#9a7647;}.cls-3{fill:#0e0a07;}.cls-4{fill:#2c2a37;}.cls-5{fill:#654049;}.cls-6{fill:#a88351;}.cls-7{fill:#1f181c;}.cls-8{fill:#8e6766;}.cls-9{fill:#4d463b;}.cls-10{fill:#785d3c;}.cls-11{fill:#251e1e;}.cls-12{fill:#543e27;}.cls-13{fill:#393029;}.cls-14{fill:#717379;}.cls-15{fill:#4e3920;}.cls-16{fill:#7f5c33;}.cls-17{fill:#4d322d;}.cls-18{fill:#4a373c;}.cls-19{fill:#607c92;}.cls-20{fill:#5a5e59;}.cls-21{fill:#815f35;}.cls-22{fill:#633b33;}.cls-23{fill:#5c7084;}.cls-24{fill:#778fa0;}.cls-25{fill:#606f7c;}.cls-26{fill:#352412;}.cls-27{fill:#7090a8;}.cls-28{fill:#b68b7c;}.cls-29{fill:#4e6d8b;}.cls-30{fill:#8e8882;}.cls-31{fill:#392816;}.cls-32{fill:#433739;}.cls-33{fill:#a5acb3;}.cls-34{fill:#57585e;}.cls-35{fill:#44251d;}.cls-36{fill:#7c5c34;}.cls-37{fill:#af8a83;}.cls-38{fill:#81776d;}.cls-39{fill:#442326;}.cls-40{fill:#342514;}.cls-41{fill:#191008;}.cls-42{fill:#505963;}.cls-43{fill:#61564b;}.cls-44{fill:#718fac;}.cls-45{fill:#463321;}.cls-46{fill:#79776c;}.cls-47{fill:#7b6f68;}.cls-48{fill:#6b645d;}.cls-49{fill:#392225;}.cls-50{fill:#444549;}.cls-51{fill:#7f7477;}.cls-52{fill:#44494e;}.cls-53{fill:#3d556c;}.cls-54{fill:#aeb6c0;}.cls-55{fill:#49415d;}.cls-56{fill:#7e631d;}.cls-57{fill:#453f3c;}.cls-58{fill:#ac867e;}.cls-59{fill:#6c6b73;}.cls-60{fill:#423526;}.cls-61{fill:#050506;}.cls-62{fill:#4a6a89;}.cls-63{fill:#744a43;}.cls-64{fill:#4f4231;}.cls-65{fill:#839eb7;}.cls-66{fill:#374655;}.cls-67{fill:#a19b8a;}.cls-68{fill:#585052;}.cls-69{fill:#3b3e44;}.cls-70{fill:#888785;}.cls-71{fill:#7f7c75;}.cls-72{fill:#97989d;}.cls-73{fill:#684f31;}.cls-74{fill:#74718c;}.cls-75{fill:#787165;}.cls-76{fill:#151813;}.cls-77{fill:#473522;}.cls-78{fill:#8c753b;}.cls-79{fill:#020101;}.cls-80{fill:#140f0c;}.cls-81{fill:#070504;}.cls-82{fill:#181b1e;}.cls-83{fill:#363639;}.cls-84{fill:#434243;}.cls-85{fill:#28201a;}.cls-86{fill:#1e1f26;}.cls-87{fill:#3b3026;}.cls-88{fill:#6b494d;}.cls-89{fill:#d1ac4f;}.cls-90{fill:#453f38;}.cls-91{fill:#cfa94d;}.cls-92{fill:#3e3732;}.cls-93{fill:#cea84a;}.cls-94{fill:#211e1d;}.cls-95{fill:#5f3a3c;}.cls-96{fill:#1d1a1a;}.cls-97{fill:#1d1a1c;}.cls-98{fill:#7e8692;}.cls-99{fill:#d3a245;}.cls-100{fill:#1e1c1c;}.cls-101{fill:#8292a4;}.cls-102{fill:#c16245;}.cls-103{fill:#af2443;}.cls-104{fill:#69698d;}.cls-105{fill:#a2a3a5;}.cls-106{fill:#c6c5c7;}.cls-107{fill:#b9babd;}.cls-108{fill:#604628;}.cls-109{fill:#7c5d39;}.cls-110{fill:#775937;}.cls-111{fill:#4d3534;}.cls-112{fill:#785831;}.cls-113{fill:#5b4124;}.cls-114{fill:#020100;}.cls-115{fill:#281a0d;}.cls-116{fill:#362c2b;}.cls-117{fill:#22212f;}.cls-118{fill:#160d06;}.cls-119{fill:#534639;}.cls-120{fill:#252124;}.cls-121{fill:#6e6e63;}.cls-122{fill:#727b78;}.cls-123{fill:#707d7e;}.cls-124{fill:#6c7e87;}.cls-125{fill:#5c6d74;}.cls-126{fill:#677a84;}.cls-127{fill:#6c7472;}.cls-128{fill:#667a81;}.cls-129{fill:#476276;}.cls-130{fill:#516572;}.cls-131{fill:#55666f;}.cls-132{fill:#734e44;}.cls-133{fill:#3f5464;}.cls-134{fill:#647883;}.cls-135{fill:#ab8879;}.cls-136{fill:#62645a;}.cls-137{fill:#6f7875;}.cls-138{fill:#4d3e37;}.cls-139{fill:#ebe9e2;}.cls-140{fill:#161211;}.cls-141{fill:#b6b3b1;}.cls-142{fill:#7b8484;}.cls-143{fill:#0d0b10;}.cls-144{fill:#6e777b;}.cls-145{fill:#5e5761;}.cls-146{fill:#768081;}.cls-147{fill:#6f6d79;}.cls-148{fill:#6e4a51;}.cls-149{fill:#c1484c;}.cls-150{fill:#725459;}.cls-151{fill:#d2a952;}.cls-152{fill:#d2b05a;}.cls-153{fill:#6d7483;}.cls-154{fill:#8c9db1;}.cls-155{fill:#aa8e58;}.cls-156{fill:#312325;}.cls-157{fill:#6f502d;}.cls-158{fill:#27190b;}.cls-159{fill:#181211;}.cls-160{fill:#49341e;}.cls-161{fill:#463829;}.cls-162{fill:#4d361d;}.cls-163{fill:#6e665e;}.cls-164{fill:#755251;}.cls-165{fill:#6e4239;}.cls-166{fill:#b3918a;}.cls-167{fill:#281b0d;}.cls-168{fill:#555b60;}.cls-169{fill:#6e6553;}.cls-170{fill:#756d5b;}.cls-171{fill:#614728;}.cls-172{fill:#5c4427;}.cls-173{fill:#13110e;}.cls-174{fill:#191105;}.cls-175{fill:#3e2d2b;}.cls-176{fill:#5d4f4d;}.cls-177{fill:#756968;}.cls-178{fill:#4c380b;}.cls-179{fill:#5c4647;}.cls-180{fill:#a09998;}.cls-181{fill:#695b44;}.cls-182{fill:#080502;}.cls-183{fill:#3c2914;}.cls-184{fill:#3b2915;}.cls-185{fill:#634626;}.cls-186{fill:#6c463e;}.cls-187{fill:#7a7665;}.cls-188{fill:#8b8878;}.cls-189{fill:#665f53;}.cls-190{fill:#342721;}.cls-191{fill:#1e1211;}.cls-192{fill:#342125;}.cls-193{fill:#646b6a;}.cls-194{fill:#2e3030;}.cls-195{fill:#405c72;}.cls-196{fill:#c3c2bf;}.cls-197{fill:#72726a;}.cls-198{fill:#969c9a;}.cls-199{fill:#a09d90;}.cls-200{fill:#50616f;}.cls-201{fill:#cdcac0;}.cls-202{fill:#28394b;}.cls-203{fill:#b6b3a8;}.cls-204{fill:#5c3d32;}.cls-205{fill:#535045;}.cls-206{fill:#6d6c6c;}.cls-207{fill:#1f1308;}.cls-208{fill:#463119;}.cls-209{fill:#9b7e61;}.cls-210{fill:#533b21;}.cls-211{fill:#332428;}.cls-212{fill:#d2cfc5;}.cls-213{fill:#959284;}.cls-214{fill:#627f9a;}.cls-215{fill:#412e3d;}.cls-216{fill:#9c8e6e;}.cls-217{fill:#353335;}.cls-218{fill:#c6c1b4;}.cls-219{fill:#4a4740;}.cls-220{fill:#3a2815;}.cls-221{fill:#0f0804;}.cls-222{fill:#271a0e;}.cls-223{fill:#664c37;}.cls-224{fill:#ceac60;}.cls-225{fill:#776365;}.cls-226{fill:#d1b05f;}.cls-227{fill:#252222;}.cls-228{fill:#252120;}.cls-229{fill:#cb7f52;}.cls-230{fill:#d5d5d7;}.cls-231{fill:#8292a6;}.cls-232{fill:#3c3a48;}.cls-233{fill:#44454e;}.cls-234{fill:#474c4b;}.cls-235{fill:#252a37;}.cls-236{fill:#1e1915;}.cls-237{fill:#817e7f;}.cls-238{fill:#5d6474;}.cls-239{fill:#6c6760;}.cls-240{fill:#b0bac5;}.cls-241{fill:#0e0b09;}.cls-242{fill:#624e37;}.cls-243{fill:#44301b;}.cls-244{fill:#463117;}.cls-245{fill:#624627;}.cls-246{fill:#302111;}.cls-247{fill:#281b0e;}.cls-248{fill:#201816;}.cls-249{fill:#2d201d;}.cls-250{fill:#615e4d;}.cls-251{fill:#484232;}.cls-252{fill:#494537;}.cls-253{fill:#737871;}.cls-254{fill:#757363;}.cls-255{fill:#7d7c6c;}.cls-256{fill:#65614e;}.cls-257{fill:#64614e;}.cls-258{fill:#686353;}.cls-259{fill:#75786e;}.cls-260{fill:#5c5b4e;}.cls-261{fill:#716c57;}.cls-262{fill:#6e7776;}.cls-263{fill:#6f7c7e;}.cls-264{fill:#5e5747;}.cls-265{fill:#8c857b;}.cls-266{fill:#5f5947;}.cls-267{fill:#5b533f;}.cls-268{fill:#807961;}.cls-269{fill:#5e513c;}.cls-270{fill:#59513c;}.cls-271{fill:#b5b09a;}.cls-272{fill:#46403c;}.cls-273{fill:#bdb9a5;}.cls-274{fill:#6a6258;}.cls-275{fill:#7a7565;}.cls-276{fill:#696879;}.cls-277{fill:#9f9b8e;}.cls-278{fill:#a8a5a1;}.cls-279{fill:#b5b0a5;}.cls-280{fill:#412925;}.cls-281{fill:#5e4038;}.cls-282{fill:#566f7f;}.cls-283{fill:#456277;}.cls-284{fill:#415d75;}.cls-285{fill:#526979;}.cls-286{fill:#4c6577;}.cls-287{fill:#435a6b;}.cls-288{fill:#3c566c;}.cls-289{fill:#80796a;}.cls-290{fill:#937061;}.cls-291{fill:#1b1d20;}.cls-292{fill:#3a2d20;}.cls-293{fill:#a49f8f;}.cls-294{fill:#3a342c;}.cls-295{fill:#e5e3da;}.cls-296{fill:#898470;}.cls-297{fill:#b8b4ad;}.cls-298{fill:#8b847e;}.cls-299{fill:#6f6b59;}.cls-300{fill:#979182;}.cls-301{fill:#d1cec0;}.cls-302{fill:#342621;}.cls-303{fill:#a67d6e;}.cls-304{fill:#4e241d;}.cls-305{fill:#627885;}.cls-306{fill:#d2ae5c;}.cls-307{fill:#4a403e;}.cls-308{fill:#cea05d;}.cls-309{fill:#808ea2;}.cls-310{fill:#211d1d;}.cls-311{fill:#24242b;}.cls-312{fill:#daad63;}.cls-313{fill:#b99468;}.cls-314{fill:#b2b4b9;}.cls-315{fill:#473738;}.cls-316{fill:#798aa2;}.cls-317{fill:#cda252;}.cls-318{fill:#564f4f;}.cls-319{fill:#574246;}.cls-320{fill:#474c50;}.cls-321{fill:#503a46;}.cls-322{fill:#4f4f55;}.cls-323{fill:#49575f;}.cls-324{fill:#363c47;}.cls-325{fill:#171120;}.cls-326{fill:#7d5c34;}.cls-327{fill:#8d683b;}.cls-328{fill:#b8c8d8;}.cls-329{fill:#694a26;}.cls-330{fill:#170d05;}.cls-331{fill:#76552f;}.cls-332{fill:#aaa8a8;}.cls-333{fill:#534c4c;}.cls-334{fill:#966e3d;}.cls-335{fill:#585150;}.cls-336{fill:#817d7c;}.cls-337{fill:#7c7776;}.cls-338{fill:#523a1f;}.cls-339{fill:#5c4022;}.cls-340{fill:#4e351b;}.cls-341{fill:#7b5930;}.cls-342{fill:#412c17;}.cls-343{fill:#574a38;}.cls-344{fill:#040302;}.cls-345{fill:#535451;}.cls-346{fill:#878688;}.cls-347{fill:#423a2c;}.cls-348{fill:#543333;}.cls-349{fill:#636164;}.cls-350{fill:#74787c;}.cls-351{fill:#545552;}.cls-352{fill:#7b6f63;}.cls-353{fill:#b0afaf;}.cls-354{fill:#170f07;}.cls-355{fill:#322e2b;}.cls-356{fill:#efeeeb;}.cls-357{fill:#98917c;}.cls-358{fill:#423b25;}.cls-359{fill:#3b3421;}.cls-360{fill:#dcd9cd;}.cls-361{fill:#c2bfbc;}.cls-362{fill:#403d32;}.cls-363{fill:#5e4850;}.cls-364{fill:#948e8d;}.cls-365{fill:#494c48;}.cls-366{fill:#343026;}.cls-367{fill:#57413c;}.cls-368{fill:#1b1512;}.cls-369{fill:#575e61;}.cls-370{fill:#eeeeea;}.cls-371{fill:#585855;}.cls-372{fill:#463b28;}.cls-373{fill:#9a908c;}.cls-374{fill:#26190c;}.cls-375{fill:#140c05;}.cls-376{fill:#7a766a;}.cls-377{fill:#252121;}.cls-378{fill:#222127;}.cls-379{fill:#6c7f99;}.cls-380{fill:#d7d7d9;}.cls-381{fill:#665b4b;}.cls-382{fill:#504639;}.cls-383{fill:#504c44;}.cls-384{fill:#3e3f45;}.cls-385{fill:#323c46;}.cls-386{fill:#1c1d1c;}.cls-387{fill:#0b0d13;}.cls-388{fill:#f8f8f9;}.cls-389{fill:#5b523b;}.cls-390{fill:#3e311f;}.cls-391{fill:#5d533b;}.cls-392{fill:#433c2c;}.cls-393{fill:#918a71;}.cls-394{fill:#483c29;}.cls-395{fill:#4f432d;}.cls-396{fill:#6e614a;}.cls-397{fill:#3d382c;}.cls-398{fill:#444036;}.cls-399{fill:#5b5647;}.cls-400{fill:#ebeae6;}.cls-401{fill:#575856;}.cls-402{fill:#c5c2b9;}.cls-403{fill:#6b6757;}.cls-404{fill:#607a8a;}.cls-405{fill:#5a7383;}.cls-406{fill:#636f76;}.cls-407{fill:#667072;}.cls-408{fill:#423d2c;}.cls-409{fill:#453f2e;}.cls-410{fill:#676556;}.cls-411{fill:#8f8381;}.cls-412{fill:#cfccc5;}.cls-413{fill:#b2ada4;}.cls-414{fill:#f9f9f5;}.cls-415{fill:#f2f1eb;}.cls-416{fill:#c8c6b9;}.cls-417{fill:#dcdbd3;}.cls-418{fill:#c6c3b3;}.cls-419{fill:#372e33;}.cls-420{fill:#96918b;}.cls-421{fill:#979388;}.cls-422{fill:#e4e3d9;}.cls-423{fill:#c7c4b7;}.cls-424{fill:#4e4c47;}.cls-425{fill:#e0e0e0;}.cls-426{fill:#98999d;}.cls-427{fill:#596163;}.cls-428{fill:#7e7978;}.cls-429{fill:#918f86;}.cls-430{fill:#110f10;}.cls-431{fill:#797d81;}</style></defs><title>Asset 7</title><g id="Layer_2" data-name="Layer 2"><g id="Layer_1-2" data-name="Layer 1"><path class="cls-1" d="M412.55,245c23.86,34.86,30.22,231.62-55.29,187,1-2-21.82-19.62-11.16-22.37,2,17.73,22.47-16.21,18-2.31-2.27,52.25,12.86-86.07,27.76-21.34.54-3.88-9-1.2,10.52-57.87,2.34.45,15.29-8.13-4.57,35.56,3.62-1.43,7.43-35.57,15,2.93-3.48-.29,2.4-45.72,5.24-76.24-3.73,9.94-16.14,21.27-4.8-30.72C413.59,264.82,391.54,242,412.55,245Z"/><path class="cls-2" d="M341.19,605c.59,4.65-4.66,69.81-5.95,4.76,3.26,7.51-.43,47.41-7.71-17-17.26-42-37.2-52.44-34.63-137.33.24.36-35.62-92.08-3.48-50.52,16.52,66.4,6.15-37.45,20.23,26.45-3.58,49.31,32.2,86.15,34.59,150.49-6,49,2.62-27.57-15-22.1C333.56,566.93,325.93,564.37,341.19,605Z"/><path class="cls-3" d="M120.9,724.56c2.26-15-26.66-49.49,12.27-55.74-33.67-14.09-25.7,5.67,30.68-12.66-4.88-17.79,6.27-43.26,5.75-1.43,8.46-23.59-21.45-73.4,9.91-99.4C146.35,654.33,241,646.4,120.9,724.56Z"/><path class="cls-4" d="M289.27,134c-2.57-17,27.66,73,11.82,60.94-2.6,4.32,2.15-27.64-10.9-18.79-.42,47.21-4.14,4.72-9.65-1.56-47.59,2,10.47,7.6-36.12,27.9-42,34.23-47.59-62.7-19.67-34.47-8.93-10.39,54.15-85,23.2-24,6.59,20.28,6.26-9.55,14-17.11C263.22,134.81,281.09,138.36,289.27,134Z"/><path class="cls-5" d="M418.37,294.4c-.56,63.2-.29,46.57-35-66.11,4.07-6.29,2.93,34.43-12.27,14.48-3.71,9.63,1.41-59.16-30.41-6.3C324.18,247,382,148.76,414,260,414.63,264.31,404,302.34,418.37,294.4Z"/><path class="cls-6" d="M325,499.55c-1.66,20.33-34.38-117-19.91-99.73,18.31,2.92,38.09,148.28,38.72,176.69C347.47,562.52,337.81,561.32,325,499.55Z"/><path class="cls-7" d="M128.42,388.23c-86.81,40.8-51-17.89,78.71-7,12.76,40.8-31.84-.35-64.67,33.59C135.68,415.53,156.42,404.07,128.42,388.23Z"/><path class="cls-8" d="M52,397.75c-3-.73.65-87.52,48.38-14.75-11.9,1.93-47.79,5.76-6.12,29.83C72.82,430.62,67.89,358.67,52,397.75Z"/><path class="cls-9" d="M85.23,240.43C82,249.51,156.14,66.1,141.6,174.64,138.67,154.43,101.76,200,140,184.9,118.13,201.7,112.22,205.32,85.23,240.43Z"/><path class="cls-10" d="M95.78,590.68c-17-17.51,38.05-208.37,30.77-160.18-.63,9-42.31,267-21.47,91.16C105,530.45,93.84,528.31,95.78,590.68Z"/><path class="cls-11" d="M342.75,409.05c26.18,52.15-27.39-42.32-27.83-75.51-.88,8.34,1.37,41.8-5.94,12.74-13.19,36.56,9-20.61-41.29-.9C340.31,312.43,300.6,287.62,342.75,409.05Z"/><path class="cls-12" d="M123.17,439.43c2.64,3.4,11.47-81.7,14.73-42.56,11.88-4.85,5.7,13.57,6,14,7.69-29,27.31,10.35-14.64,34.33C136.48,385.62,143.37,424.72,123.17,439.43Z"/><path class="cls-13" d="M345.93,662.89c8.18,40.11-28.78,99.82-8.17,8-3.87-3.35-22.16,4.88-24.6-7C331.23,669.72,341,638.16,345.93,662.89Z"/><path class="cls-14" d="M344.36,479.49c8.48,44.65,33,125,36.26,162.68C369.76,613.91,322.52,417.58,344.36,479.49Z"/><path class="cls-15" d="M100.89,573c9.3-34.21,18.12-.11,33.06-7.56C86,590.32,141.54,771.23,100.89,573Z"/><path class="cls-11" d="M325,457.3c-3-23.48-4.61-16.1-15.84-63.5,2.54-8.12,10.45,35.24,16.28-4.21C322.12,425.35,364.64,657.82,325,457.3Z"/><path class="cls-16" d="M337.7,190.7C350,206.39,352.78,242,320.58,206.1,311.6,195.79,319.56,187.25,337.7,190.7Z"/><path class="cls-17" d="M199.59,66.67c46.15-34.3,54,47.41,32.32,18.75-23.51-58.25-44.81,62.82-26.82-15.24C202.69,72.16,204.85,70.24,199.59,66.67Z"/><path class="cls-18" d="M69.75,283.55c26.84-51.39-.77,2.63,8.69,53.43C77.64,331.17,58.38,361.79,69.75,283.55Z"/><path class="cls-19" d="M229.22,3C226.62-7.5,269.52,42.24,203.1,35,203.42,25.92,231.09,26,229.22,3Z"/><path class="cls-20" d="M158.85,123.27c-3.14,23.84-11.79,56-9.44,80.72C136.51,229.4,130.28,178.7,158.85,123.27Z"/><path class="cls-21" d="M341.19,605c-3,.05-20.8-55.57-10.71-47.63C333.35,562.73,347.23,554.93,341.19,605Z"/><path class="cls-22" d="M52,397.75c9.87-34.37,14.38,1.37,37.71,19.38C55.54,403.07,73.25,413.32,52,397.75Z"/><path class="cls-23" d="M331.87,153.51c9.1,11.83,16,40.36-8.52,9.81C319.16,164.84,302.78,114.49,331.87,153.51Z"/><path class="cls-24" d="M234.43,5.33c-7.57-20.95,40.22,26.1,31.73,33.32C241.7-7.33,253.79,72.16,234.43,5.33Z"/><path class="cls-25" d="M247.76,19.46c4-10.93,39.66,44.29,14.32,33.64C244.14,44.43,258.49,40.47,247.76,19.46Z"/><path class="cls-26" d="M100.89,573c17.31-12.16,3,48.69,3,35.29C98.58,609.2,95.52,610.74,100.89,573Z"/><path class="cls-27" d="M229.22,3c10.11,7.66-28.38,38.9-30.45,38.08C203.38,35.39,195,32,229.22,3Z"/><path class="cls-28" d="M265.68,86.93c-7.18,24.73-29.77,16.22-5.85-16.13C259.22,66,272.25,66.86,265.68,86.93Z"/><path class="cls-29" d="M152.92,141.15c-2.61-19.06,58.88-14.93,26.66-6.22C175.07,142.87,172,135.82,152.92,141.15Z"/><path class="cls-30" d="M199.59,66.67c4.54-8.48,1.24,47.24-9.27,38.94C194.77,98.08,182.53,74.19,199.59,66.67Z"/><path class="cls-31" d="M98.62,590.63c5.67,27.26-17.15-20.71,2.3-49.13C106.53,553.3,94.66,570.69,98.62,590.63Z"/><path class="cls-32" d="M285.59,123.42c17.52,2,27.73,6.68,12.5,33.21C295.28,151.79,298.86,150.61,285.59,123.42Z"/><path class="cls-33" d="M214.57,14.19c-14,17.79-5.7,19.91-24.1,56.3C188.68,58,198.4,30,214.57,14.19Z"/><path class="cls-34" d="M336.69,470.62c-5.37-7-13-88.43,7,4.5,2.85,16.26-7.11-21.57-2.75-.76C342.12,483.5,340.38,482.62,336.69,470.62Z"/><path class="cls-35" d="M59.36,408.36c-5.7-24.15,8.69,18.82,4.08-14C66.93,408.59,109.48,434.89,59.36,408.36Z"/><path class="cls-36" d="M329.53,602.65c-1.45,12.51,20.7,40.31-1.13,57.19C328.8,655,329.27,659.21,329.53,602.65Z"/><path class="cls-37" d="M94.29,412.82c-19.35,8.27-22.24-41.3-14.16-23.17C68.5,406.17,105.07,402.83,94.29,412.82Z"/><path class="cls-38" d="M0,423c-.87-11.75,16.2-10.79,31.89-17.13C32.3,414,36.12,410.39,0,423Z"/><path class="cls-39" d="M359.13,433.51c8.11,2.89,34.6,11,51.94-17.11C408.57,416.23,399.26,457.6,359.13,433.51Z"/><path class="cls-40" d="M337.7,190.7c-16.48,5-16.71-10.83-28.39,34.49C309.38,219.19,291.42,182.43,337.7,190.7Z"/><path class="cls-41" d="M334.49,656.29c13.79-31.56-9.61,42.38-18.85-13C324.94,626.84,320.2,674.31,334.49,656.29Z"/><path class="cls-42" d="M330.25,171.52c4.64-3.25,22.89,15.74,10.26,16.91C337.4,186.88,331.79,189.34,330.25,171.52Z"/><path class="cls-43" d="M17.12,417.21c3,.11,6.45-7.44,34.71-18C56.1,400.54,57.21,410.07,17.12,417.21Z"/><path class="cls-44" d="M304.21,132.18c-9.61-15.82,29.23,12.2,25.67,20.61C324.89,140.84,326.76,150.76,304.21,132.18Z"/><path class="cls-45" d="M74.12,347.47c-13.86,14-21.19-13.13,6.14-7C81.38,341.48,82.93,347.45,74.12,347.47Z"/><path class="cls-46" d="M285.59,123.42c3.11,12.31,18.35,18.76,20.19,72C295.87,170.07,307.86,178,285.59,123.42Z"/><path class="cls-47" d="M199.68,84.72c3.36-45.12,11.06,14-9.61,27.32C189.71,109.2,198,99.75,199.68,84.72Z"/><path class="cls-48" d="M256.69,100.12c13.54-16.11-3.4,0,2.41,36.5C252.61,135.33,250.76,137.16,256.69,100.12Z"/><path class="cls-49" d="M314.63,345.16c-11.41-54.33,17.93,42.06,5.16,3.35C316.81,346.43,314,328.48,314.63,345.16Z"/><path class="cls-50" d="M332.31,427c-7.86-13.78,7.09,34.61-2.81,15.06C325.68,438.23,322.83,382,332.31,427Z"/><path class="cls-51" d="M69.75,283.55C68.29,289.11,73.94,327,61.3,334,62.75,325.29,61,334.34,69.75,283.55Z"/><path class="cls-52" d="M262.86,52.77c5.1-13.55,17.91,12.67,5.78,18.56C271.21,64.58,256.74,57.89,262.86,52.77Z"/><path class="cls-53" d="M279.73,132.88c-5.37,12.48-30.64-6.61-9.64-4.12C268.52,130.17,284.71,128.37,279.73,132.88Z"/><path class="cls-54" d="M112.61,165.4c-13.73,39-9.48-.27,15.08-29.35C132.83,133.05,128.77,138.33,112.61,165.4Z"/><path class="cls-55" d="M343.5,220.52c15.54-14.8,3.5,3.81-7.09,18.06C334.08,237.41,326.88,236,343.5,220.52Z"/><path class="cls-56" d="M313.79,360.75c.24-11.62,13.3,13.88,8.58,38.07C320.21,394.61,317.84,370.62,313.79,360.75Z"/><path class="cls-57" d="M190.07,111.63c12.22-14.77,6.1,15.82-.28,28.33C188.65,130.2,188.14,140.61,190.07,111.63Z"/><path class="cls-58" d="M99.57,397.27c-1.93,6.56-.58,9.9,0,0C107,387,112.27,415.73,99.57,397.27Z"/><path class="cls-59" d="M83.18,256.79c-9.6,23.07-7.6,4.58,3-15.55C86.62,248.9,98.43,245.35,83.18,256.79Z"/><path class="cls-60" d="M17.12,417.21c4.69,3.09,28.37-16.63,23.44-4C37.29,416.46,8.57,420.91,17.12,417.21Z"/><path class="cls-61" d="M168.44,129.15c-8.09,5.95-13.8-6,1.42-9.66C171,121.26,172.24,122.73,168.44,129.15Z"/><path class="cls-62" d="M279.73,132.88c-.81-6.5,18.46,4.7,5.62,5.91C282.62,138.08,277.12,138.83,279.73,132.88Z"/><path class="cls-63" d="M99.57,397.27c-.58,7.33,8.24,17.91-6.29,10.59C94.88,407.84,81.07,411.9,99.57,397.27Z"/><path class="cls-64" d="M14.76,416.34c6.41,4.31-26.15,12.12-7.95,3.27C10.22,417.05,7.29,418.21,14.76,416.34Z"/><path class="cls-65" d="M126.87,139.57c4.68-.32-7.38-8.88,29.71-15.63C150,127.47,139.08,133.66,126.87,139.57Z"/><path class="cls-66" d="M153.62,125.48c12.66-12.5-1.92,19.89-5.94,5.61C148.31,126.47,147.25,130.16,153.62,125.48Z"/><path class="cls-67" d="M333.17,180.44c19.4,12.35-20.77,17.48-5.91-.23C333.57,192.57,327.32,183.75,333.17,180.44Z"/><path class="cls-35" d="M43.09,408.39c-.12,4,3,2.69,0,0C42.66,406.16,73.08,401.15,43.09,408.39Z"/><path class="cls-68" d="M133.61,386.75c-3.55.66-5.19,1.48,0,0C136.24,391.66,126.87,403.21,133.61,386.75Z"/><path class="cls-69" d="M344.37,501.71c-.84-13.18.28-13.87,4.32,8.94C346.71,508.5,348.94,511.93,344.37,501.71Z"/><path class="cls-70" d="M103.15,188.54c-1.54,2.56,7.19-20.94,3.71-6.94C103.36,180.11,115,196.55,103.15,188.54Z"/><path class="cls-71" d="M198,66c0-4.67-9.4-9.82.9-12.66C197.08,55.93,206.33,63.8,198,66Z"/><path class="cls-72" d="M62.27,335.6c-.78,4.89-.68,7.38,0,0C65.78,333.13,76.18,332.07,62.27,335.6Z"/><path class="cls-73" d="M134.39,396.38c2.33,2-3.88,20.35-7.39,23.11C128.22,415.3,128.82,413.54,134.39,396.38Z"/><path class="cls-74" d="M354,213.79c-5.58,2-4.4-3.71,12.49-6.47C363.38,209.34,367.29,205.33,354,213.79Z"/><path class="cls-75" d="M265.68,86.93c2.72-7.32,1.66-4.91,0,0C264.82,90.46,269.19,60,265.68,86.93Z"/><path class="cls-38" d="M45.24,401.55c-2.18,2.85,0-.54-11.41,5.41C33.89,404,32.28,405.68,45.24,401.55Z"/><path class="cls-11" d="M313.92,339.25h0C312.54,336.6,317.81,330.24,313.92,339.25Z"/><path class="cls-76" d="M268.62,71.8c.83,18.16-10-8-.05-1.12A4.12,4.12,0,0,1,268.62,71.8Z"/><path class="cls-53" d="M262,129.25c-1.78.9-12-7.57,0-2.3C260.4,127.41,259.7,127.84,262,129.25Z"/><path class="cls-32" d="M285,123.2c0,.75,0,0-.08,2.26C286.05,127.82,276.39,113.83,285,123.2Z"/><path class="cls-77" d="M99.22,211.6c-.87,1.4-1.3,2.11,0,0C103.27,207.11,104.48,210.44,99.22,211.6Z"/><path class="cls-78" d="M322.72,398.59c0,1.85,1.23,2,0,0C323.66,394.51,328.24,392.51,322.72,398.59Z"/><path class="cls-66" d="M169.85,119.5c-3.54-.32,0,0-7.26,4.49C162.06,119.72,161.32,122.31,169.85,119.5Z"/><path class="cls-79" d="M121.67,725.23c8.24,9.28,65.92-83.79,58.81-48.86-19.15,34.3,35.45,172.15-120.07,128.82-6.33-24.33,15.92,34.39,81.83-37.53-31.31-3.4,7.83-7.1-5-11.71-2.57,1.93-19.31-15.22-11.48-19.84,20,.4,56.33,6.33,15.29-15.2C160.39,715.61,174.14,704.63,121.67,725.23Z"/><path class="cls-80" d="M273.82,688.08c-9.95-30.22,53.22-35.44,46.9,42.71-5.31,9.75,13.69,3.5,19.26,6.39-22.17,23.77-7.37,38.93-20.13,33.28-24.75-10.54,27.51-30.11-30-28.94-.48-.65-1.64-2.87-4.13-9.66C327.06,716.58,286.28,746.83,273.82,688.08Z"/><path class="cls-3" d="M289.43,741.52c10.14,2.36,9.59-1.64,5.13,7-6.22,3.7,43.36-2.64,15.23,4.52,25.29,11.1-43.24,46.59,60.46,63.88C330.32,842.75,287.56,781.51,289.43,741.52Z"/><path class="cls-81" d="M293.88,773.44c12.63.38-5.64,22.29,51,49.51C365.11,819.48,291.46,844.49,293.88,773.44Z"/><path class="cls-3" d="M123.89,727.33c9.52-14.27,66.36-24.64,14.45-3.28C185.55,728.86,145.26,753.44,123.89,727.33Z"/><path class="cls-82" d="M119.42,754.8c5-9-7,46.64-58.24,37.63C80.54,785.54,101.14,777.19,119.42,754.8Z"/><path class="cls-81" d="M282,722.22c1.44-3.72,30.08-1.87,26.73,4.45C303.72,724.4,299.94,735.34,282,722.22Z"/><path class="cls-3" d="M170.67,760.81c-9.38-2.79,11.27-27.78,6.91-7.95C175.56,753.85,173.56,754.44,170.67,760.81Z"/><path class="cls-3" d="M179.59,714.05c-5.94-5.62-21.16,4.53-1.5-17.81C174.66,701.83,175.6,701.71,179.59,714.05Z"/><path class="cls-82" d="M274.54,690.31c9.75-2.18,7.1,46.13,7.07,18.15C281.19,702.47,279.13,700.47,274.54,690.31Z"/><path class="cls-83" d="M119.42,754.8c-5.8,6.88-13.29,14.21.44-4C120,751.31,121.81,751.58,119.42,754.8Z"/><path class="cls-82" d="M123.89,727.33c3.28-1.06-5,15.22-5.18,1.51C120,726.59,118.86,726.73,123.89,727.33Z"/><path class="cls-80" d="M293.86,758.59c-3.15.49,17-1,2.87,2.73C295.06,761.4,293.72,763.87,293.86,758.59Z"/><path class="cls-3" d="M172.15,738.54c-1.62-2.72-3.18-5.44,0-8.16C175.26,734.51,175.26,735.8,172.15,738.54Z"/><path class="cls-3" d="M175.13,724.44a21.47,21.47,0,0,0-2.48-1.68C172.51,721.45,181.25,716.22,175.13,724.44Z"/><path class="cls-3" d="M285.7,734.83c1,2.38,2.22,3,0,0C286.86,732.29,292.48,736.44,285.7,734.83Z"/><path class="cls-82" d="M284.24,725.21a13,13,0,0,0,2.93.73C286.85,727.47,284.86,736.88,284.24,725.21Z"/><path class="cls-82" d="M122.47,737c-1.74,1.53-1.12,2.77,0,0C121.84,736.81,127.44,743.35,122.47,737Z"/><path class="cls-82" d="M287.92,737.8c1.59,0,1.68-.41,1.51,3.72C288.36,743.18,286.69,745.28,287.92,737.8Z"/><path class="cls-82" d="M296.07,792.74c0,2,0,0,0,5.92C295,800.14,295.25,800,296.07,792.74Z"/><path class="cls-84" d="M118.71,728.84c.84,1.67,1.55,3.35.75,5.26C117.91,732.53,115.89,731,118.71,728.84Z"/><path class="cls-84" d="M123.17,727.42c2,.47-5.84,3.78-2.27-2.86C122,725.63,121.51,725,123.17,727.42Z"/><path class="cls-3" d="M170.67,770.46c-2-1.48-1.9-3.26-.75-5.19C170.5,767,172.35,768.45,170.67,770.46Z"/><path class="cls-3" d="M170.67,743.74c-2.86-1.24-.37-2.47,0-3.71Q173.49,741.89,170.67,743.74Z"/><path class="cls-82" d="M170.69,783.8c0-2.47,0-4.93,0-7.39A8.41,8.41,0,0,1,170.69,783.8Z"/><path class="cls-85" d="M339.86,745.21c5.56-3.3-39,11.12-1.88-8.7-25.65,5.69-6.92,12.57-32.23-72.18C354,672.63,324.19,660.33,339.86,745.21Z"/><path class="cls-86" d="M348,774.17c13.28,24,54.94,55.93-5.84,20.56C324.38,786.15,325.35,723.26,348,774.17Z"/><path class="cls-82" d="M327.25,757.15c6.22,5.31-4.39,29.94,37.11,48.2C329.68,833.55,313.85,746.46,327.25,757.15Z"/><path class="cls-87" d="M327.25,757.15c-7.54.75,8-21.09,11.81-1.6C334.13,755.76,336.92,757.14,327.25,757.15Z"/><path class="cls-80" d="M319.09,797.92c-2.36,2-11.4-16.33-2.14-14.8C318.22,789.65,316.92,786,319.09,797.92Z"/><path class="cls-82" d="M365.84,804.61c1.26,1.55,4.86-3.78,9.58,14.78C373.88,816.55,372.77,815.8,365.84,804.61Z"/><path class="cls-80" d="M339.13,725.93c.91-1-8.62,4.13-5.53-1.5C334.11,722.64,346.33,716.17,339.13,725.93Z"/><path class="cls-88" d="M342.75,409.05c-28.92-19.81-9.15-205.9-13.2-98,3.71,11.77-8.79.42,8.95,68.49-1.4-1.59-16.05-37.26,3.36-28.09-7.22,7.83,3.42,33.26.86-8.76-3-.44,10.35-14.62,5-3,9-22.8,2.21,7.7,12.59,8.47C352.45,245.48,398.84,450.93,342.75,409.05Z"/><path class="cls-89" d="M409.76,308.78c2.92-4.71,6.23,83,.6,51.25,2.47-21.38-16.51,15.83-12.31-4.24C420.71,347.55,380.55,298.68,409.76,308.78Z"/><path class="cls-90" d="M400.64,317.77c17.75,24.89-45.36,26-14-12.21C382.92,310.25,390.73,349.76,400.64,317.77Z"/><path class="cls-91" d="M394.13,352.58c-7.39,48.23,3.14-10.26-24.28,35C363.59,390.4,390.65,336.39,394.13,352.58Z"/><path class="cls-92" d="M394.13,352.58c-5.87-7.39-12.08.81,1.52-11.92C400.34,340.8,400.69,341.11,394.13,352.58Z"/><path class="cls-89" d="M395.27,365.25c2.11,6.68-.17,13.41.81,20.06A31.22,31.22,0,0,1,395.27,365.25Z"/><path class="cls-93" d="M398.65,344.45c-1.48,3,.62-20.05,2.75-4.91C400.79,338.08,400.52,345.38,398.65,344.45Z"/><path class="cls-94" d="M364.2,409.05c1-5.14,5.87,4.89-1.49,5.93C363.54,413.77,360,414.69,364.2,409.05Z"/><path class="cls-95" d="M370.86,387.49c-2.48.59-3.38,1.6,0,0C372.52,383.32,371.27,408.45,370.86,387.49Z"/><path class="cls-96" d="M382.94,384.48c-1.25,2.87-1.59,4.4,0,0C386.12,379.73,383.67,398.51,382.94,384.48Z"/><path class="cls-97" d="M403.84,366.73c.56,3.5.57,1.12-.43,7.46C401.39,372,402.59,374.14,403.84,366.73Z"/><path class="cls-98" d="M417.58,363.7c-2.09-.22,3.8-13.15,3.21.27C419.56,363,419.26,354.69,417.58,363.7Z"/><path class="cls-99" d="M398.65,344.45c-2.16,2.07-2.43,3.65,0,0C400.46,344.39,397.85,352.08,398.65,344.45Z"/><path class="cls-100" d="M397.2,413.46c-1,1.21-1.06,2.05,0,0C399.25,404.9,398.86,424.48,397.2,413.46Z"/><path class="cls-101" d="M418.37,294.4c-2.36-1.68,2.16-12.85,2.24-.84C420,292.11,418.76,287.69,418.37,294.4Z"/><path class="cls-102" d="M391.06,378.53c-1.05-2.78,5.17,16.69-.06,5.89C391.17,384.37,391.22,382.41,391.06,378.53Z"/><path class="cls-103" d="M377.38,375.62c2-.12-1.4-5.18,9-5.14C384.4,370.53,385.22,368.85,377.38,375.62Z"/><path class="cls-104" d="M413.33,366.84l-.69-3.47C413.83,363.24,418.75,362.44,413.33,366.84Z"/><path class="cls-105" d="M382.94,384.48c0,1.66.35,3.44-1.59,4.4C380.78,387,379.51,384.9,382.94,384.48Z"/><path class="cls-106" d="M364.2,409.05c-.45,1.05,0,0-2,2.6C362.24,412.57,361.72,405.25,364.2,409.05Z"/><path class="cls-88" d="M372.38,409.82c.17-1.35,0,0,2-2.82C375.27,408.37,375.61,407.84,372.38,409.82Z"/><path class="cls-107" d="M397.2,413.46l-1.06,2.05C394.94,416.59,396.42,408.57,397.2,413.46Z"/><path class="cls-108" d="M299.8,531.47c31.4,77.72-9.94-11.11.5,51.26-4.58,7.78-55.12-92.56-25.24-177C289.16,420.37,256.07,445.29,299.8,531.47Z"/><path class="cls-109" d="M299.8,531.47C295.31,513.53,269,500.26,275.33,399,300.16,450.33,290.8,475.32,299.8,531.47Z"/><path class="cls-110" d="M302.07,394.11c-7.44,2.92,10.68,40.33-7.08,38.63C295.71,423.16,272.25,381.28,302.07,394.11Z"/><path class="cls-111" d="M302.07,394.11c-57.64,10.72-17.45-23.68,13.51-.85C300.65,390.31,308.66,410,302.07,394.11Z"/><path class="cls-112" d="M314.59,568.61c-21.7-46.22,14.35,3.58,14.88,43C326.67,610.64,328.06,608.84,314.59,568.61Z"/><path class="cls-113" d="M336.88,639.1c-.6,5.4-4.52-51.11.21-22.32C336.8,621,337.11,617.44,336.88,639.1Z"/><path class="cls-36" d="M328.75,598.27c-2.86-3.18-3.32-7.16-3.71-11.16C328,588.9,330.3,595.7,328.75,598.27Z"/><path class="cls-114" d="M222.61,495.83C173,533,167.21,714.58,176.28,566c-5.32-29-7.73,48.7-7,90.87,3.55-67.08-23.15,69.45-30-23.12,4.25-25.42,19,70.84,14.53-25.89-5.29,3.4,27.41-174.19,62.1-148.18,3.23,45.63,9.34-59.59,28.15,45C239.27,515.91,246.21,500,222.61,495.83Z"/><path class="cls-115" d="M135.78,664c28.49-7.93-23.31,28.74-8.73-23.15-9,14.48-12,11.53-2.37-38.91C74,680,173.34,453.23,135.78,664Z"/><path class="cls-116" d="M235.26,209.34c28.27-10.2-2.53,23.25,12.72,21.36,9.15-7.53,22,5,5.91,40.74,2.17-9.81-22.3-22.65-15.88-16.56-3.5.45-19,9.86-15.88-15.65-8.46,30.61,2.72-23-20.35,13.64-17.86-39.8,4.61,11.2-25.56,33.53-13.58-16.88-1.09-33.37-12.28-49.16-7,16.42,3.12,11.92-15.48-4.52,8.67,4.8,12.78-57.9,29.13-.86,25-28.66,1.28,15.28,23.24-12.17,11.36-20.86,12.55,42.12,24.55-7.62C235.76,248.64,232.76,220,235.26,209.34Z"/><path class="cls-117" d="M157.3,210.05c-13.6,24-13.76,20.88-11.48-18.06,2,1.67,20.94-49.11,1.1-25.71,14.73-28.54,25.3-53.56,67.06-9.38,54.13-46.76-12.24,46.6-21.61,1.82-17.16,26.54.23-20.88-23,12.22C180.31,130.21,140.25,196.92,157.3,210.05Z"/><path class="cls-118" d="M305.77,195.42C302,215.33,337.08,236,322.65,274.65,306.93,263.91,299,230.28,305.77,195.42Z"/><path class="cls-119" d="M306.34,197.55c1.68,3.3-6.16,83.12-10.59,35.72-2.86,5.91,4.38,41.93-2.93,40C286.07,277.75,289.8,179,306.34,197.55Z"/><path class="cls-120" d="M256.29,230.11c-2.57,14.22-12.48-64.48,9.25-22.22,5.78-4.59,8.43-15.28-3-19.29,23.19-17.74-3.37-7.8,23.42,1.73-16.43,2.24-2.85,8-15.63,41.52C270.09,227.57,263.31,192.63,256.29,230.11Z"/><path class="cls-121" d="M276.08,210.84c-7.87-13,6.21-41.39,20.08,4.47C293.73,222.8,297,214.38,276.08,210.84Z"/><path class="cls-122" d="M270.77,191.67c-2,1.78,4.14,15.14-4.32,17.56C265.9,214.76,239.27,191.9,270.77,191.67Z"/><path class="cls-123" d="M254.6,193.76c6.41,7.34-14.12,34.65-12.94,2C245.25,192.2,243.36,192.91,254.6,193.76Z"/><path class="cls-124" d="M271.68,176.69c5.73,5.1-17,26.07-12.63-3.74C261.37,175.42,262.72,166.21,271.68,176.69Z"/><path class="cls-125" d="M282.19,155.29c18.5-3.74-7.78,40.72-6.84,2.06C276.1,156.23,274.9,155.28,282.19,155.29Z"/><path class="cls-126" d="M241.27,181.51c-3.3-14.6,27.64-3.07,7.43,7.7C244.44,189.05,241,188.93,241.27,181.51Z"/><path class="cls-127" d="M285.7,189.37c-8.56,6.22-22.31-18-.72-16.34C288.06,175.63,287,179.12,285.7,189.37Z"/><path class="cls-128" d="M225.57,183.13c-3.74-12,22.1-11.92,10,7.56C231.18,190.76,224.94,192.31,225.57,183.13Z"/><path class="cls-129" d="M282.1,153.68c-20.85-.52,14.65-32.95,7.28-1.21C286.89,154.05,288.18,153.18,282.1,153.68Z"/><path class="cls-130" d="M267.2,155.12c16.6,1.13-8.49,33.61-8.2,3.9C260,157.79,258,156.21,267.2,155.12Z"/><path class="cls-131" d="M233.28,172.15c4.41,1.51,5.08-1.5,0,0C212.87,173.71,243.72,135.27,233.28,172.15Z"/><path class="cls-132" d="M251.63,114.4c-13.73,18.48-6.86-14-15.65-2.62C216.49,123.54,232.3,77.1,251.63,114.4Z"/><path class="cls-133" d="M260.46,148.33c-2.35-7.81,18.93-20.15,12.05,3.32C272.48,153.61,260.88,156.31,260.46,148.33Z"/><path class="cls-134" d="M219.26,171c-1.95,1.55,16,18.57-6.09,20.47C212,191.15,206.39,189.9,219.26,171Z"/><path class="cls-135" d="M238,141.69c-19.48,10.69,15-36.12,13.2-14.1C246.65,134.54,249.49,132.68,238,141.69Z"/><path class="cls-136" d="M293.79,189.91c-8.88.07-6.55-26.07,4.6-16C297.1,172.36,301.26,190.25,293.79,189.91Z"/><path class="cls-137" d="M253.71,134.46c5.3,3.35,7.29,26.8-7.71,13.09C246.47,143,244.2,148.89,253.71,134.46Z"/><path class="cls-138" d="M251.63,114.4c-1-7.57-20.83-42.4,3.41-9.63C260.35,88.76,262.51,108.45,251.63,114.4Z"/><path class="cls-139" d="M293.78,206.32c-4.54,9.8-12.74-22.52,3.43-11.88C296.75,199.82,297.83,196.81,293.78,206.32Z"/><path class="cls-140" d="M204.78,214.48c-41.65-6.25-9.83-13.64,30.49-5.15C229.41,214.08,215.75,203.94,204.78,214.48Z"/><path class="cls-141" d="M296.08,198.2c5.19-7.52-16.41-5.76-2.29-8.29C294.35,180.6,309.72,170,296.08,198.2Z"/><path class="cls-142" d="M218.22,203.43c4.68,7.2-29.5,4.94-4.42,1.08C204.2,199.85,206,181.84,218.22,203.43Z"/><path class="cls-138" d="M251.47,120.48c-2.16,6.2-12-1.43-5.74-2.52C243.79,123.82,251.63,109.67,251.47,120.48Z"/><path class="cls-143" d="M206.28,194.47c1.78-9.21,1.13-6.15,0,0C196.75,203.38,212.31,161.1,206.28,194.47Z"/><path class="cls-144" d="M231.55,200.21c2.13-.74,2.19-2.08,0,0C229.1,201,228.73,193.7,231.55,200.21Z"/><path class="cls-145" d="M219.65,161.09c1.73,2.41,2.63,3.59,0,0C222.26,157.38,226.78,180.51,219.65,161.09Z"/><path class="cls-146" d="M230.66,206.6c2.33.58,2.34-1.25,0,0S229,200.71,230.66,206.6Z"/><path class="cls-134" d="M210.74,175.19c0-1.16,0,0,.11-3.49C211.79,167.8,211.33,192.3,210.74,175.19Z"/><path class="cls-147" d="M215.21,160.37l1.32.07C216.26,161.62,219.6,168.56,215.21,160.37Z"/><path class="cls-121" d="M288.61,194.46c.05,2.79.6,5.61-.61,8.31C288,200,287.34,197.15,288.61,194.46Z"/><path class="cls-148" d="M345.8,226.4c23.3-49.18,38.56,42.39,15.35,50.39,12.92,2.29,29.89,54.08,7.59,20.53-.86,1.45-11.09,33.4-16.14-2-.3,29.91-15.31-43.86-3.39-58.59,1.94,29.33,4.32-12.11-5.3,6C327.76,276.16,332.58,259.67,345.8,226.4Z"/><path class="cls-149" d="M368.4,267.48c6.23-8-1-30.49,21.38-17.91-.74.6,24.28,60.18,6.31,36.76-4.52-10.86-16.29-43-18.5-7.33C383.73,292.72,358,292.64,368.4,267.48Z"/><path class="cls-1" d="M395.38,281.37c12,38.41,4.65-19.67,12,12.32C398.21,356.57,378.53,252.09,395.38,281.37Z"/><path class="cls-150" d="M345.8,226.4c-1.66,6.72-12.09,44.43-17.57,47C331.29,269.31,317.42,274.44,345.8,226.4Z"/><path class="cls-148" d="M389.45,249.58c-4.36-6.66-8.07,1.72-5.14-27.81C383.63,231.21,385.71,224.88,389.45,249.58Z"/><path class="cls-148" d="M340.6,236.06c-2.66,8.77-17,36.07-7.44,5.24C334.24,241.06,332.64,238.77,340.6,236.06Z"/><path class="cls-151" d="M403.59,288.16c5.12,4.74-5.33,14.36-6.5-.59C408.22,307.29,393.91,255.94,403.59,288.16Z"/><path class="cls-1" d="M411.78,321.33h0C410.71,309.75,412.33,303.92,411.78,321.33Z"/><path class="cls-152" d="M385.92,247.2c2.53,1-.22,3.9-8.24-2.28C380.68,243.63,378.76,242.38,385.92,247.2Z"/><path class="cls-153" d="M401.53,283.88c-.16,1.73-1.49-11.8,3.38-4.22C405.2,281.08,405.13,281,401.53,283.88Z"/><path class="cls-148" d="M384.28,245.38c-2.57-1.3-2.41-3.27,0,0C381.17,248.69,374.79,236.36,384.28,245.38Z"/><path class="cls-154" d="M395.57,242.85c-.76,1.3-1.52-10.16,2.47-5.17C397.91,239.36,396.37,237.79,395.57,242.85Z"/><path class="cls-155" d="M397,271c1.32,1-6.43-11.05-.88-9.87C394,264.47,397.39,261.06,397,271Z"/><path class="cls-1" d="M412.83,330.55c0-.21-1.08,4.39-3.06.44C409.61,329.6,411.91,321.8,412.83,330.55Z"/><path class="cls-1" d="M409.76,308.78c2.71-.69,1.14-2.17,0,0C408.25,307.38,401.66,299,409.76,308.78Z"/><path class="cls-148" d="M377.68,244.91c-2.46.31-3,1.68,0,0C377.23,245.78,375.19,254.74,377.68,244.91Z"/><path class="cls-148" d="M354,213.79c0,.5,0,.75,0,0C354.57,212.18,365.3,207.53,354,213.79Z"/><path class="cls-1" d="M409.67,257.52c2.06-3,1.07,6.25-.41,1.52C409.44,258.57,409.18,259.05,409.67,257.52Z"/><path class="cls-148" d="M378.46,236.59c-1-1.13,0,0-.1-2.74C379.59,234.22,379.75,233.72,378.46,236.59Z"/><path class="cls-148" d="M381.9,237.11c-.72-1.52,0,0,.52-3.27C383.66,234.77,383.82,234.14,381.9,237.11Z"/><path class="cls-82" d="M307.06,394.27c20.66-6,19.68,34.74,2.54.2,2,13.69,11.27,34.08,15,55.89C321.94,451,316.42,415.89,307.06,394.27Z"/><path class="cls-82" d="M325.14,457.3c-.6-2.92,3.42,1.46,6,37C330,486.53,327.12,472.79,325.14,457.3Z"/><path class="cls-82" d="M331.65,497.45c1.2.39,6.39,19.3,6.61,31.86C336.61,522.71,334.15,512.62,331.65,497.45Z"/><path class="cls-2" d="M316.76,482.27c-1.3,3.24.57,4.24,0,0C315.67,482.45,321.61,485.07,316.76,482.27Z"/><path class="cls-2" d="M325,499.55h0C327.38,499.32,328.93,504.32,325,499.55Z"/><path class="cls-73" d="M123.17,439.43c.84,17.62,14.71-45.67,17.92-33-3.15,2.87-24,68.79,1.11,24,14-6.64,19.67-58.76,11.85,13.14,22.24-38.4,10.82-.92-.56,47.58-7.51,52.6-14.65-26.82-16.55.08,6.27-3,8.42,12.54-3.28,7.13C145.68,478.36,86.84,641.72,123.17,439.43Z"/><path class="cls-156" d="M316.05,391.24c-40.73-23.77-24.24,20.89-112.1,6.33,3.43-9.89,16.55.67,61.37-23.5,14.84-8.93-4.23,19.18-30.36-17.83,59-42,3.92,62.31,70.71-20.83C293.45,355.67,310.18,350.47,316.05,391.24Z"/><path class="cls-157" d="M172.25,400.18c61.25,52.15-74.53,226-42.19,134.74C138.81,555,175.38,511.79,172.25,400.18Z"/><path class="cls-158" d="M181.1,406.76c-6.28-2.6,38.57-35.11,37.1,37.1-2.64,5.62,17.57-23.61,17.07-10.78.56,5.86-20.68,10.19-43.44,34.39,10-3.11,13-68.61,5.9-45.29C196.43,433.41,190.41,486.53,181.1,406.76Z"/><path class="cls-159" d="M244.89,374.1c16.6,9.63-42.19-5.66-38.3,22.12-10.27-.89,36.39-18.65-68.47-14.85,11.46-.64,28-14.63,69.93-18.73-31.72,9.95-10.91,12,24.78,11.84C186.47,386.16,226.62,327.18,244.89,374.1Z"/><path class="cls-160" d="M172.25,400.18c-1.66,10.25-6.14,44.83-21.32,42.72C156.91,431.11,147.64,404.17,172.25,400.18Z"/><path class="cls-161" d="M138.74,382.23c-58.27,18.76-93.91,14-11-3.62C124.63,380.2,145,371.21,138.74,382.23Z"/><path class="cls-82" d="M95.07,399.48c-3,1.66-5,1.41,0,0C97.8,403.58,84.8,406.31,95.07,399.48Z"/><path class="cls-82" d="M89.17,406.82c-4.39-.77-5.34-3.52,0,0C89.4,414.89,76,394.18,89.17,406.82Z"/><path class="cls-162" d="M181.05,400.13h0C180.8,401.13,180.89,411.14,181.05,400.13Z"/><path class="cls-82" d="M77.83,395c.53-2.5,0-5.9,2.44,3.51C78.2,398.28,79.15,399.06,77.83,395Z"/><path class="cls-163" d="M102.47,381.47c1.71-1.81,33,1.47,44.37-30.11.68,16.44,22.06,5.46,22.32,14.3C172.63,365.78,99.68,397.44,102.47,381.47Z"/><path class="cls-164" d="M74.39,348.06c7.14.22,13.62,21.69-1.55,14.42C72.89,361.32,59.36,361.13,74.39,348.06Z"/><path class="cls-165" d="M95.73,385.11c-4.44,1-17.32,8.65-8.7-7.31C88.28,379.62,89.4,381.13,95.73,385.11Z"/><path class="cls-166" d="M102.47,381.47c-2.44-6.19-5.56-8,0,0C103.06,391.29,81.29,360.67,102.47,381.47Z"/><path class="cls-167" d="M92,248c-10.22-5.33,20.54-12.3,20.56-53.92C157,189.85,137.13,254.87,92,248Z"/><path class="cls-116" d="M135.79,210.08c-9.53-14.05,13.9-24.68,4.19-73.9C161.62,109.72,139.6,214.62,135.79,210.08Z"/><path class="cls-77" d="M112,204.89c18.48-28.69-5.89,40.35-22.12,36.81C87.72,227.05,105.45,220.79,112,204.89Z"/><path class="cls-168" d="M140.78,136.44c5.33,13.45-50.78,60.35-13.87,3.9C129.38,138.28,126.51,144.41,140.78,136.44Z"/><path class="cls-169" d="M140.15,176.64c6.27,11.7-33.47,21.48-12.63-.09C130.52,184.43,126.2,183.63,140.15,176.64Z"/><path class="cls-170" d="M127.64,177.45c-2.67-7.67,11.32-20.09,12.68-2.23C136.11,173.86,132.89,165.91,127.64,177.45Z"/><path class="cls-77" d="M89.8,242c-2.2-1.58-3.64-.78,0,0C95.85,245.76,92.36,252.24,89.8,242Z"/><path class="cls-77" d="M104.64,209.32c1.51,2.55,2.93,1.07,0,0C105.7,207.09,117.29,200.1,104.64,209.32Z"/><path class="cls-171" d="M140.07,536.64c-12.77,25.17-1.5-30.15-17.86,22.35,14.8,5.06,24.51-11.93,2.71,15.86-4.24-6.21-8.25-36-23.4-5.5C124,515.09,158,430.13,140.07,536.64Z"/><path class="cls-172" d="M101,558.2c3.21-16.83-9.41-7,2-36.5C105.71,515.68,110.59,521,101,558.2Z"/><path class="cls-171" d="M118,480.26c-.94,1.56,8.46-11.4,7.21-3.64C125.08,477.82,120,484,118,480.26Z"/><path class="cls-173" d="M293.74,275.51c31.05-55.95-9.5,37.59,23.15,35.9-20.49,23.13-49.4,24.38-66.49,11.53.94,9-7.8,23.9-65.27,14.43-7.25-13.87,33.09,7.17,35.59-11.53-9.61-3.41-23.72-21.33,3.65-12.3-.88-39.18,21.93,24.91,14.41-17.15-1.33-5.24,22.89,4.79,18.14-17.44C263.43,264.44,250.82,311.63,293.74,275.51Z"/><path class="cls-49" d="M302.05,311c47.09-60.7,8.78.71,29,63.73C319.11,393.83,335.34,297.05,302.05,311Z"/><path class="cls-174" d="M316.05,391.24c-11.19-25.42-12.44-79.29,5.32,6.36C325.72,401.8,315.66,406.42,316.05,391.24Z"/><path class="cls-175" d="M279.8,334.15c13.19-7.83,42.32-17.62,7.92,6.41C292,334.09,268.59,340.71,279.8,334.15Z"/><path class="cls-176" d="M296.08,339.91c3-.52-17.55,17.76-39.29,8.12C261.87,346.07,255.93,350.33,296.08,339.91Z"/><path class="cls-177" d="M276,336.2c15.49-2.09,20.6,4.39-13.25,9.45C265.14,341,265.51,338.68,276,336.2Z"/><path class="cls-178" d="M323.55,400.82c-5.37-5.71-8.67-24.61-9.76-40.07C317.79,371.5,315.37,364.28,323.55,400.82Z"/><path class="cls-179" d="M317,308.06c8.16-2.46-12.62,32.53-5.19,9.65C312.23,315.65,314,319.24,317,308.06Z"/><path class="cls-180" d="M269.42,344.7c.29-2,0-4,5.58-5.31C279.17,340.59,282.61,344,269.42,344.7Z"/><path class="cls-49" d="M309.49,325.75c-2.92-.91,14.54-12.86,4.21-.76C310.59,328.29,312.94,327.33,309.49,325.75Z"/><path class="cls-181" d="M311.92,352c0-2.83-1.66-5.44-1.24-8.33C311.89,346.3,313.26,349,311.92,352Z"/><path class="cls-181" d="M309.47,351.79l-.09-1.41C309.24,348.54,309,341.12,309.47,351.79Z"/><path class="cls-80" d="M313.17,664.35h0C301.57,666.8,293.42,657.74,313.17,664.35Z"/><path class="cls-85" d="M316.84,664.31c-2.34-1.7-6.25-2.89,3.05-1.38C320.5,664.4,320.83,663.83,316.84,664.31Z"/><path class="cls-182" d="M112.79,622.76c21.84-66.73-.18,51.44,14.09,11.59C139.47,620.41,114.25,716.65,112.79,622.76Z"/><path class="cls-183" d="M129.11,574.51c.51-4.25-24.53,60.63-17.59,26.88C113.38,598.32,107.05,575.33,129.11,574.51Z"/><path class="cls-184" d="M133.56,565.6c4.8-19.62,31.27,9.4,6.69,15.81C139.15,574.52,147.6,567.61,133.56,565.6Z"/><path class="cls-183" d="M132.07,568.58c15.24-20.53,9.82,17.95,5.85,4.61C140.88,562.2,124.26,581.92,132.07,568.58Z"/><path class="cls-183" d="M112.79,622.76c-.28-4.42-2.25-5.94,0,0C112.48,634.33,112.2,651.74,112.79,622.76Z"/><path class="cls-82" d="M325,417.18c-2.25,5.31,14.51,45.63,4.55,38.9C330,450.83,313.83,406.12,325,417.18Z"/><path class="cls-34" d="M334.61,468.35c-1.31-3.07-3.12-3.43,0,0C335.34,471.15,326.15,470.85,334.61,468.35Z"/><path class="cls-82" d="M326.59,409.8l-.81,4.39C325,417,324,399.55,326.59,409.8Z"/><path class="cls-185" d="M326.55,244.32c-8.41-.53-27.33-56-4.72-39.11C318.49,218.39,363,211,326.55,244.32Z"/><path class="cls-185" d="M317.54,198.27c-3.3-2-3.4-2.76-.57-4.35Z"/><path class="cls-186" d="M211.26,64.83c24.3-.44,34.72,62.2-6.37,17C207.19,77.81,203.11,81.41,211.26,64.83Z"/><path class="cls-187" d="M239.69,63.86c-55.55-3.12-5.47-10.87,9.91-23.43,1.35,7.52.54,34.41-4.89,14.5C241.88,55.71,244.35,56.3,239.69,63.86Z"/><path class="cls-188" d="M242.64,58.72c7.11-1,14,33.08,1.44,32.79C244.13,90.35,237.24,93.23,242.64,58.72Z"/><path class="cls-47" d="M211.37,64.83c-8.61,16.26-5.05,36.6-21.22,82.54C191.59,138.83,195,95.39,211.37,64.83Z"/><path class="cls-189" d="M213,52.09c11.61,2.91-10.3,22.19-14.59,7.59C198.34,48.62,198.24,55.44,213,52.09Z"/><path class="cls-190" d="M243.54,91.25c1.66,9.77-36.43,13-18,6.41C227.27,97.5,226.3,93,243.54,91.25Z"/><path class="cls-190" d="M234.73,88.22c1.65.25,0,0,4.31,1.15C237.67,90.79,238.24,91.19,234.73,88.22Z"/><path class="cls-191" d="M83.17,328.12c-17.76-8,10.43-28.92-.91-72.11C82.56,254.76,114.82,243.93,83.17,328.12Z"/><path class="cls-192" d="M79.39,316.21c-3.88,14.62-15,11.27,4.37-56.43C91.79,262.69,87.78,260.4,79.39,316.21Z"/><path class="cls-82" d="M65.3,336.28c.1-3,1.75-3.95,0,0C60.61,337.61,67.41,328.24,65.3,336.28Z"/><path class="cls-193" d="M198.23,53.6c52.09-72.76,62.07,32.77,9.11-13.05C207.92,41.28,206.64,44.13,198.23,53.6Z"/><path class="cls-194" d="M223.44,50.42c28.07,15.86,7.75-57.94,15.31-35.9C264,82.13,176.5,42.31,223.44,50.42Z"/><path class="cls-195" d="M152.82,142.49c-2.22,7.7-3,11.65,0,0C166.17,133.7,165.36,161.47,152.82,142.49Z"/><path class="cls-196" d="M138.76,216c.64-6.61,6.73-3.74,3.21,22.68C142.34,239,132,240.11,138.76,216Z"/><path class="cls-4" d="M150.66,172.36c-2-4.34-3.75-6.08,0,0C153.74,174.07,139.08,183.29,150.66,172.36Z"/><path class="cls-4" d="M146.17,190.11c-4.48,1.68,9.35,3.13.26,2.76C142.47,196.44,138.16,179.75,146.17,190.11Z"/><path class="cls-116" d="M140.84,210.9c3-3.48,12.51,8.12,1,1.94C141.24,212.33,140.69,212.76,140.84,210.9Z"/><path class="cls-116" d="M148.32,204c.16,5.56.16,5.56-5.94,5.3C145.5,208.81,147.81,207.41,148.32,204Z"/><path class="cls-35" d="M55,403c1.59.58,1-.44,0,0C54.74,402.19,50.39,396.58,55,403Z"/><path class="cls-197" d="M327.21,180.35c-3.67,26.68-18-5.2-23-48.17C300.18,135.19,342.16,172.4,327.21,180.35Z"/><path class="cls-198" d="M318.34,151.43c1.11,5.53-19.52-13.13-4.72-11.6C317.35,143.87,315,140.06,318.34,151.43Z"/><path class="cls-199" d="M249.45,53.59c-1.39-6.29-.35,5.86-1.57-33.6C246.09,23,259.23,20.44,249.45,53.59Z"/><path class="cls-200" d="M245.6,17.23c-1.08-2.12-2.4-2.15,0,0C247.19,19.73,236.12,19.7,245.6,17.23Z"/><path class="cls-187" d="M248.63,33.51c-3.86-1.32-5.93-1,0,0C251.38,33.58,242.91,42.61,248.63,33.51Z"/><path class="cls-19" d="M235.11,6c.74,0,1.1,0,0,0C229.26,3.68,247.75,2.3,235.11,6Z"/><path class="cls-199" d="M262.86,52.77c.87-4.2-1.53-4.68,0,0C261.15,72.83,240.74,49.28,262.86,52.77Z"/><path class="cls-24" d="M252.92,28.29c-1.07-5.29-.78-3.4,0,0C252.35,34.92,242.58,15.59,252.92,28.29Z"/><path class="cls-201" d="M253.81,48.22c0-1.9-.05-2.85,0,0C256.37,58.61,242,46.44,253.81,48.22Z"/><path class="cls-24" d="M254.55,29c-1.22,3.93.17,5.84,0,0C254.36,27.51,259.24,39.06,254.55,29Z"/><path class="cls-202" d="M254.55,29c-.76,1-.9,1.57,0,0C254.79,26.86,254.56,45.43,254.55,29Z"/><path class="cls-203" d="M247.9,93.47c.71,1-2.8-34.68,5.86-18.72C251.16,75,258.83,83.86,247.9,93.47Z"/><path class="cls-204" d="M253.14,82.93c-2.3-4.15-.42-25,9.64-13.24C260.35,77.63,264.74,68.5,253.14,82.93Z"/><path class="cls-17" d="M199.68,84.72c1.38-2.27,4.13-17.5.7,1.58C200.2,86.63,199.29,86.73,199.68,84.72Z"/><path class="cls-205" d="M300.75,148.61c1.68,13.52,23.17,1.55,17.92,41.93C308.51,207.71,293,156.27,300.75,148.61Z"/><path class="cls-82" d="M300.69,126.91c1,2.55.5.24-.75,6.34C303.91,132.55,290.12,127.06,300.69,126.91Z"/><path class="cls-206" d="M331.15,447.55l-5.28-22.15C329,430.22,330.5,436.76,331.15,447.55Z"/><path class="cls-207" d="M324.17,595.35c2.05,5,14.3,69.66,2.52,59.11C337.87,658.73,284.91,531.61,324.17,595.35Z"/><path class="cls-208" d="M329.48,620.53c-.9-4.27-1.91-6-5.15-23.78C327.28,600.38,329.13,599.33,329.48,620.53Z"/><path class="cls-209" d="M327.27,660c7.74-5.43,12,1.78-5.8,1.61C321.59,660.41,321.41,661,327.27,660Z"/><path class="cls-210" d="M319.89,662.93c-1.38-.91-22.36,2.87-14.72-2.48,26.73-6.83-39.4-51.9-23.11-80.2C302.36,622.05,323,625.84,319.89,662.93Z"/><path class="cls-36" d="M323.49,651.76c4.56-10-12.42-14-29.86-94.47C295.8,550.85,345.22,673.67,323.49,651.76Z"/><path class="cls-211" d="M66.14,307.55v23A69.07,69.07,0,0,1,66.14,307.55Z"/><path class="cls-212" d="M262.65,68.36C240,85.57,249,38.29,256.82,61.27,258.24,55,271.75,57.4,262.65,68.36Z"/><path class="cls-213" d="M262.65,68.36c.09-2.36,5.93-20.46,5.16-2.27C266.89,68.82,270.28,72.59,262.65,68.36Z"/><path class="cls-199" d="M264.15,57.34h0C263.89,58.54,260.54,62.79,264.15,57.34Z"/><path class="cls-214" d="M140.78,136.44c-6.14,10.71-29.6,2.67,12.84-11C154.23,129.1,149.28,124.08,140.78,136.44Z"/><path class="cls-214" d="M126.92,140.34c.81-.33-11.77,21.31-8.23,10.64C120.24,149.05,121.16,147.65,126.92,140.34Z"/><path class="cls-214" d="M115.63,159.5c-.83-1.31-1.31-.1,0,0C116.06,160.12,111.89,166.46,115.63,159.5Z"/><path class="cls-215" d="M326.55,244.32c-2.4,14.12,26.3-50-9.3,57.64C313.85,289.71,327.37,263.58,326.55,244.32Z"/><path class="cls-216" d="M320.51,387.62c.34.92-11.15-45.61-1.79-14.27C317.56,373.74,321.84,378,320.51,387.62Z"/><path class="cls-217" d="M92.8,257.5c-16.79.36.89-21,13.35-1.76C103.14,255,106.52,261,92.8,257.5Z"/><path class="cls-9" d="M86,241.92c.15,3.38-.44,5.09,0,0C86.35,242.18,90.54,247.82,86,241.92Z"/><path class="cls-218" d="M327.21,180.35c-1.13-5.34,7.86-4.65,4,8.86C329.16,188.76,327.87,190.62,327.21,180.35Z"/><path class="cls-219" d="M223.44,50.42C212.12,47.68,184.86,63.61,211,37.58,201.94,56.4,214.21,40.05,223.44,50.42Z"/><path class="cls-220" d="M299.72,582.78c1.15.18,20,51.24,4.72,22.39-5.26-7.66-16.75-27.37-4.74,2.8-1.62,16.64-15.74-45.57-21.48-19.48C270,584,343.61,683.42,288,645c-2.81,32.14-21.65-48.45-40.9-194.94C259.94,450.73,260.46,547.62,299.72,582.78Z"/><path class="cls-221" d="M195.15,469.86C195,439.4,223.53,460,248.25,434c-9.89-6.06,13.32,127.2-3.19,90-5.87-18.28-36.53-44.68-2.48-19.37-.3-6.93-13.78-78.82-20.76-29.41C218.28,493.75,216.1,423.31,195.15,469.86Z"/><path class="cls-222" d="M235.27,507.66c.78-7.82,23.93,49.62,17.76,25.84-24.41-159.12,13.47-32.09,7.85,31.31-5.34-6.35-24.94-49.36-6.9-11.08C271.18,584.38,242.12,545.4,235.27,507.66Z"/><path class="cls-80" d="M279,628c3,7.64,5.23,42.24,8.07,10.16C327.78,651,265.15,693.05,279,628Z"/><path class="cls-85" d="M284.21,659.14c4.42.32,41.47,5.22,14.13,4.49C295.69,661.26,282.88,666.45,284.21,659.14Z"/><path class="cls-220" d="M279,628c-2,5.08,3.77,18.66,3.36,28.56C281.21,652.27,273,633.15,279,628Z"/><path class="cls-223" d="M284.21,659.14c-.37-.15.79,2.61-2.13,2.13C279.24,661.14,277.84,650.68,284.21,659.14Z"/><path class="cls-80" d="M282.08,661.26l1.4.19C285.77,662.22,293.61,664.88,282.08,661.26Z"/><path class="cls-80" d="M295.33,662.9l1.48.7C298.7,664.32,287.23,664.84,295.33,662.9Z"/><path class="cls-81" d="M320.58,750.42c-2.86,3-49.37-.87-20.05-8.16C305.18,744.05,323,734.52,320.58,750.42Z"/><path class="cls-3" d="M287.17,725.94c-2.21,2,29.57-2.15,16.27,3.51C298.7,736.34,291.48,736.17,287.17,725.94Z"/><path class="cls-82" d="M291.65,741.52c-.19-.31-.77,1.89-1.51,0C289.9,742.13,291.86,735.55,291.65,741.52Z"/><path class="cls-85" d="M316.37,713.84c-.95,1-.94,1.81,0,0C317.46,713.3,317.66,717.23,316.37,713.84Z"/><path class="cls-81" d="M306.61,767.52c11.25-.5,8.45,9.44-7.05,1.52C300.37,768.08,299.33,767.58,306.61,767.52Z"/><path class="cls-81" d="M309.55,755.84c1.62.35-11.64,2.55-8.17-.94C303.79,755.78,301.92,753.12,309.55,755.84Z"/><path class="cls-81" d="M307.45,762c1.31-.38,2.52-1.33,4.35-.86C310.36,762.55,308.92,762.33,307.45,762Z"/><path class="cls-150" d="M333.21,267.24c2.79-2.46,6.22-25.32,16.2-34,4.25,5.69-.11,20.26-1.89,10.57-7.64-30.42,18.16,85.9-7.86,125.85-7-8.2,6.23-14.61-3.13-19.82C339.25,422.88,320.79,330.41,333.21,267.24Z"/><path class="cls-224" d="M355.38,317c23.49-52.92,27.33,22.76,13.05,68.1C358.32,389.1,384,341.6,355.38,317Z"/><path class="cls-225" d="M325.07,285.84c8.21-33.26-.44,2.12,2.83,78.75C323.14,342.63,323,316.42,325.07,285.84Z"/><path class="cls-226" d="M352.56,327.39c9.28-5.54-3.05-2.2,10.95,24.32C363.43,347,356.74,356.94,352.56,327.39Z"/><path class="cls-150" d="M349.46,362.89c2.59-3.41,3.35-5.14,0,0C349.33,365.26,345.42,348.47,349.46,362.89Z"/><path class="cls-227" d="M339.22,357c-.88,2-.13,3,0,0C345.93,349.47,337.15,372.61,339.22,357Z"/><path class="cls-228" d="M364.12,366.07c.63-1.1,1.24,10.2-3.29,6.34A19,19,0,0,1,364.12,366.07Z"/><path class="cls-150" d="M355.6,344.34c2.58,4.88-5.41,11.93-3.62-2C352.9,341.93,351.74,341.8,355.6,344.34Z"/><path class="cls-229" d="M367.45,385.22c.07,2-.33,2.86,0,0C369.12,387.05,369.31,406.45,367.45,385.22Z"/><path class="cls-150" d="M345.26,355.41c2.93-2.31,3.18-4.24,0,0C344.5,356.07,345.66,348,345.26,355.41Z"/><path class="cls-230" d="M339.22,357c-.05,1,0,0-.13,3C337.59,360,336.42,357.66,339.22,357Z"/><path class="cls-231" d="M393.34,305.82c7.83,6,13.52,32.44-2.81,4.05C382.34,317.07,382.56,300.32,393.34,305.82Z"/><path class="cls-232" d="M410.88,345.24c-.78-1.92-.2-3.44.38-5C411.74,341.81,412.83,343.33,410.88,345.24Z"/><path class="cls-233" d="M405.12,318.27a8.32,8.32,0,0,1-.68-5.29C406.15,314.74,406.15,314.74,405.12,318.27Z"/><path class="cls-234" d="M410.4,360.06h0C410.14,358.57,412.61,351.5,410.4,360.06Z"/><path class="cls-235" d="M408,310.1c.4,1.65.06,2.51,0,0C409.55,308.78,407.88,316.82,408,310.1Z"/><path class="cls-236" d="M399.5,334.86c-8.29,30.37-33.09-1.82-17.76-23.21C380,318.69,373.59,343.52,399.5,334.86Z"/><path class="cls-237" d="M381.61,308.12c-3.27,14.39-3.06,60.62-7.22,7.18C371.17,305.62,400.48,286.14,381.61,308.12Z"/><path class="cls-238" d="M387.17,303c9.61-10.32-.93,4.63-.72,16.25C385.79,320.39,378.45,312.64,387.17,303Z"/><path class="cls-239" d="M394.87,329c9.68-.6-9.33,11.93-6.92-7.52C392.05,322.64,389.23,321.33,394.87,329Z"/><path class="cls-231" d="M386.46,319.25c-3.36-5,7.67-13.43,5.14,2.86C391.53,321.54,389.84,323.92,386.46,319.25Z"/><path class="cls-240" d="M390.25,322c6.33,4.95,1.34.23,8.62-1.42C401.16,326.36,389.45,333.44,390.25,322Z"/><path class="cls-238" d="M390.25,322c-1.21.47-.88-.79-3.86-.27C385.72,321.43,391.32,316.38,390.25,322Z"/><path class="cls-95" d="M371.73,371c9.93-4.57-6.23-48.1,17.12-15C382.61,351.81,364.55,400.5,371.73,371Z"/><path class="cls-241" d="M387.45,352.67c-2.34-.25-17.71-7.71-12.13-28.87C374.87,329.46,378.24,344.5,387.45,352.67Z"/><path class="cls-88" d="M371.73,371c2.22-5-.12,21.34-3.7,15.78C369.74,388.69,364.92,369.56,371.73,371Z"/><path class="cls-242" d="M388.09,361.91c1.83,1.76,0,0,.47,5.12C386.61,366.53,386.15,367,388.09,361.91Z"/><path class="cls-243" d="M246.36,446.85c-.12,6.14-2.45-103.77,4.44-11.27,3.69-12.57,17.06-37.54,9.14,4.85,5-8.72,16.61-82.5,12.65-10.67-10.2,8.79-14.9,2.58,9.59,122.6C280.26,547.52,275.7,547,246.36,446.85Z"/><path class="cls-244" d="M324.17,595.35c-5.23-17.29-20.95-10-27.45-39.76C305.09,565.42,312,552.93,324.17,595.35Z"/><path class="cls-222" d="M278.26,542.61c2.89,5.78,20.21,39.59,9.65,37.34C289.45,575.12,256.88,522.32,278.26,542.61Z"/><path class="cls-245" d="M302.73,571.55c10.59,12.77,13.14,34.36,22.51,56.89C325.55,639.31,318.9,618,302.73,571.55Z"/><path class="cls-220" d="M286.44,558.93c-.84-3-1.47-4.46,0,0C285.7,560.59,275.47,540.45,286.44,558.93Z"/><path class="cls-246" d="M267.15,397.12c6.2,20.75-9.94,77.35-8.6,13.32C263.4,411,246.36,398.94,267.15,397.12Z"/><path class="cls-243" d="M265,397.06c-11,2.62-4.12,21.79-11.32-.06C255.25,397.88,286.61,387.19,265,397.06Z"/><path class="cls-3" d="M192.94,469.87c-45.1,94.89-38.56,249.25-48.48,153C123.05,736.51,131.35,568.31,192.94,469.87Z"/><path class="cls-247" d="M150.64,570.83c-1.1.74,1.25,1.18-3,4.43C145.21,575.36,150.52,567.76,150.64,570.83Z"/><path class="cls-248" d="M207.77,333.29c-52.13,1,34,17.15,50.17-15.23C216.42,367,108.28,404.34,145.79,267.34c22.82,35.24,3.9,22.76,15.87-16.38,8.94,15.1,3,57.33,12,27.74,1.46,15.35,10.46,10.6,26.83,11.49-23-42.14,4.66,2.73,17.35-30.48,47.59,39.34-26.22-19.09-8.68,48.1C163.55,285.63,243.61,338.28,207.77,333.29Z"/><path class="cls-4" d="M208.46,175.52c-31.79,14.75,46.29,35.36-19.75,32,16.36,16.24,15.64-6.82-4.12,22.89-3.78-3.59-14.64-59.26-21.27-20-8.44-2.28,2.74-19.56-8.25-20.75,23.81-44.73,28.18-2.33,48.33-28.79C207.05,162.59,198.34,179.23,208.46,175.52Z"/><path class="cls-249" d="M198.86,270.21c-20.22-5.45,2.34-20.43,1.26-30.82,7.39,13.89-4.47,10.81,20.85,14.53-7-14.82,19.78-8.78,25.56,33.61-4.09,21.75-5.93-37.14-20.3,6.56.2-3.29-5.65-32.8-13.65-3.94,3.08,41.24-28.35-18.39,7.41-16.69,12.32.31,20.56,3.9-.88-3.57C246.51,272.58,206.05,245.51,198.86,270.21Z"/><path class="cls-250" d="M256,230.11c-7.78-23,31.55-35.83,6.68,25.19C239.09,251.22,272.86,233.26,256,230.11Z"/><path class="cls-251" d="M245.65,291.72c-12.87-22.36,12.71-67.82,9.9,1.6C253.29,290.56,254.89,297.44,245.65,291.72Z"/><path class="cls-252" d="M251.58,252.51c-9.55,10.26-22.64-22.24,1.1-17C255.83,241.3,253.42,237.67,251.58,252.51Z"/><path class="cls-253" d="M223.05,214.43c5.51,9.38-16.16,36.7-13.33,3.21C209.57,213,213.39,210.09,223.05,214.43Z"/><path class="cls-254" d="M243.42,213.29c9.54-6.3,22.4,23.6-1.07,18.58C240.53,229.54,239.59,220.92,243.42,213.29Z"/><path class="cls-255" d="M228.57,213.06c8.76-4.46,20.64,18.56.73,19.13C228.5,231.67,221.93,229.6,228.57,213.06Z"/><path class="cls-256" d="M231.14,235.52c14.05-7.08,1.35,36.55-7.11,9.16C223.56,240.72,223,235.34,231.14,235.52Z"/><path class="cls-257" d="M214.39,254.57c-11.47,2.25-6.24-32,6.38-15.34C217.58,240,227.69,247.11,214.39,254.57Z"/><path class="cls-258" d="M173.81,214.82c-2.07-5.45,28.05,4,2.46,18.31C172.21,231.11,172.52,226.23,173.81,214.82Z"/><path class="cls-259" d="M188.26,217.5c-.32,8.62-.36,12.92,0,0C198.92,201.05,207.33,241.36,188.26,217.5Z"/><path class="cls-260" d="M167.19,213.79c7.19-.34,5.18,25-4.57,17.89C160.1,233,156.4,213.47,167.19,213.79Z"/><path class="cls-261" d="M198.65,254.56c-15,9-14.44-31.49.19-14.05C198.24,243.81,200.11,239.61,198.65,254.56Z"/><path class="cls-262" d="M158.8,192.29c4.08-5.93,6.22,28.5-9.07,14.2C152.75,206.79,144.36,195.7,158.8,192.29Z"/><path class="cls-263" d="M163.31,210.79h0C157.44,202.77,182.54,175,163.31,210.79Z"/><path class="cls-264" d="M149.13,215.29c5.62-12.39,21.57,18.86,1.39,15.78C147.93,233.15,148.74,229.68,149.13,215.29Z"/><path class="cls-265" d="M268.54,239c2-.81,2.51-28.76,8.31,14.54-6.81,1.22-3.34,30.33-8.93,5.74C271.91,269.65,253.78,279.92,268.54,239Z"/><path class="cls-266" d="M164,253.83c-9.44-.9,3.27-37.52,6.74-8.2C173.15,252.83,168,253.41,164,253.83Z"/><path class="cls-267" d="M172.21,273.18c1.14.95-14.93,8.81-9-16.57C166.85,258.64,174.45,253.7,172.21,273.18Z"/><path class="cls-268" d="M186.94,291.77c-4.9,10.7-24.82-19.27-.4-14.16C188.43,280.54,186.83,276.92,186.94,291.77Z"/><path class="cls-269" d="M149,231.38c4.4.05,22,23.64,2.56,20.85C151.82,250.86,143.83,230,149,231.38Z"/><path class="cls-270" d="M172.78,279.19c3.12,4-7.34,31-9.46.42C162.79,279.1,165.29,273.48,172.78,279.19Z"/><path class="cls-4" d="M228.57,213.06c.85-.09-14.34,5.82-23.8,1.43C204.21,214.24,207.61,199.49,228.57,213.06Z"/><path class="cls-271" d="M184.62,253.24c-8.36,11.12-20.27-24.51-.75-14.08C184.3,242.82,183.17,238.92,184.62,253.24Z"/><path class="cls-272" d="M187.14,291.77c3.55-10.46-20.47-20.67,5.58-18.57C207.42,284.64,193.14,268.58,187.14,291.77Z"/><path class="cls-273" d="M258.94,256.25c10.41,4.69.91,36.65-2.2,3.57C257.3,259,255.45,255,258.94,256.25Z"/><path class="cls-274" d="M257.56,270.86c7.72.42,24.21-16.21.48,7.94C262,286.56,252.52,303.39,257.56,270.86Z"/><path class="cls-275" d="M183.87,239.17c.52-2.5-15.22,2.34-7.38-3C177.21,238.31,179.21,231.92,183.87,239.17Z"/><path class="cls-276" d="M206.93,236.78c-.57-1.94-1.72-1.94,0,0C207.74,238.57,201,240.09,206.93,236.78Z"/><path class="cls-275" d="M184.62,253.24c.33-2.66-.52-3.86,0,0C185,253.41,177.46,251.34,184.62,253.24Z"/><path class="cls-277" d="M254.56,265.05c-.15-3.11-.12-4.67,0,0C255.7,266.78,249,254.46,254.56,265.05Z"/><path class="cls-250" d="M258.25,256.08c-1.37.78,0,0,0,2.42C258,260.56,254.26,258.75,258.25,256.08Z"/><path class="cls-278" d="M255.19,274.62c-1-1.28,0,0-.78-4.34C255.22,267.63,254.6,260.86,255.19,274.62Z"/><path class="cls-279" d="M251.58,252.51c1.29,2.31,1.39-.16,0,0C251.23,250.86,254.16,238.62,251.58,252.51Z"/><path class="cls-275" d="M174.36,250.18c1.11-.14,0,0,2.54,1.24C177.09,252.68,173.75,255.83,174.36,250.18Z"/><path class="cls-249" d="M238.14,254.62h0C238,253.06,238.48,239.28,238.14,254.62Z"/><path class="cls-272" d="M177.43,276.93c-1.35.9.88,3.92-2.24,3.77C175.24,279,175.2,277.3,177.43,276.93Z"/><path class="cls-275" d="M173.8,241.93c.82,2.49.62,5,.44,7.58A18,18,0,0,1,173.8,241.93Z"/><path class="cls-4" d="M253.82,210.08h0C254.14,209.05,256,198.79,253.82,210.08Z"/><path class="cls-280" d="M193,137.7c13.85-22.57-5.9-32.5,29.91.35C227.32,137,214.62,177.49,193,137.7Z"/><path class="cls-281" d="M214.46,158.12c6.9-14.38,1.51-28.48,27-32.38C248.43,120.15,238.2,136.94,214.46,158.12Z"/><path class="cls-282" d="M157.3,174.41c15.94-6.46,6.37,23.81-4.26,12.39C154.9,184.09,151.57,186.49,157.3,174.41Z"/><path class="cls-283" d="M169.82,170.58c-10.5,7.94-18.65-12.49,1.83-13.75C173.88,160.22,172.53,158.7,169.82,170.58Z"/><path class="cls-284" d="M177.18,139.36c-1.84-1.52,3.71,19.83-13.77,13.63C166,145.12,162.55,139.49,177.18,139.36Z"/><path class="cls-285" d="M196.56,172.21c.86-8.52,2.31-12.59,0,0C181,180.58,188.66,146.94,196.56,172.21Z"/><path class="cls-286" d="M183.11,170.72c1.64-8.44,2.5-12.65,0,0C169.74,178.93,172,151.51,183.11,170.72Z"/><path class="cls-287" d="M150.66,172.36c5-.91,5.63-4.24,0,0C135.85,172.41,165.63,138.07,150.66,172.36Z"/><path class="cls-288" d="M188.16,135c5.22-.95-15.95,39.47-8.33,5C180.94,138.06,179.56,141.15,188.16,135Z"/><path class="cls-289" d="M147,230.83c-2,16.59-12.63-27.89-.39-15.51C146.86,220,147,215.21,147,230.83Z"/><path class="cls-290" d="M230,146.92c-.68.27-8-11.21,11.15-17.72C233.15,130.72,237.3,140,230,146.92Z"/><path class="cls-4" d="M209.25,165.42c-5.12,5.41,3.82,6.49-2.79,8.77C205.12,170.55,205.09,173.07,209.25,165.42Z"/><path class="cls-116" d="M147,230.83c3.53.67.91-23,2-7.51C147.72,221.8,151.84,231.06,147,230.83Z"/><path class="cls-116" d="M150.68,200.42c-1.31,4.85-1.49,7.35,0,0C148,202.8,155.53,215.89,150.68,200.42Z"/><path class="cls-4" d="M198.87,159.62a3.75,3.75,0,0,0-1.56-3.66C201.86,155.46,199.76,157.8,198.87,159.62Z"/><path class="cls-4" d="M157.26,174.44c0,1.85-1,3.18-2.18,4.42C155.36,177.16,155.21,175.25,157.26,174.44Z"/><path class="cls-291" d="M306.54,249.43c-1,6.42-13.45,8.1-1.6-15.64C305.9,236.49,307.22,233.43,306.54,249.43Z"/><path class="cls-292" d="M306.54,249.43c3.52,5.14,10.12,7.95,10,13.22C315.27,268.45,311,268.57,306.54,249.43Z"/><path class="cls-293" d="M271.58,259.82c22.81-69.28,25.9,5.33,11.56-15.85-3.2-27,11.65,41.19-2,40.94C271.84,277.62,285.58,254.06,271.58,259.82Z"/><path class="cls-294" d="M299.07,249.42c10.43-5.75-5.42,47.37-4.82,13.66C295.44,264,292.59,243,299.07,249.42Z"/><path class="cls-295" d="M286.35,214.4c2.08-6,16.3-9.44,4.72,14.4C286.23,227.69,281.47,228.11,286.35,214.4Z"/><path class="cls-296" d="M284.57,246.47c6.28,1.58,11.44,24.62,2,21.54C285.36,263.89,278.78,246.94,284.57,246.47Z"/><path class="cls-297" d="M286.35,214.4c-2,9.24,8,14.37-8,21.88C271.57,240,282.48,205.57,286.35,214.4Z"/><path class="cls-298" d="M296.11,198.2c7.34-12.9,2.32,11,0,27.67C300,215.61,291.21,209.93,296.11,198.2Z"/><path class="cls-299" d="M286.53,268c4.36,1.08,11.43,11.45.68,12.55C286.78,277.18,285.11,281.1,286.53,268Z"/><path class="cls-300" d="M294.58,247.17c-3.59-1.54,4.91-28.74.37-8.5C293.7,241,296.92,239.05,294.58,247.17Z"/><path class="cls-291" d="M294.58,247.17c.13.44.17.66,0,0C295.42,242.9,302.17,247,294.58,247.17Z"/><path class="cls-294" d="M293.11,275.39c-.21,1.06-3.08-5.08.72-2.74C293.27,272.87,294.79,274.23,293.11,275.39Z"/><path class="cls-294" d="M291.63,271c.24-1.49-.85-1.6,0,0C290.41,271.67,285.52,269.49,291.63,271Z"/><path class="cls-301" d="M282,213.85c5.7,1.42-15.64,40-9,1.47C273.51,216.15,271.54,206.77,282,213.85Z"/><path class="cls-121" d="M276.06,210.84c-2.36-1.14-3.23.17,0,0C276.32,209,272.45,220.06,276.06,210.84Z"/><path class="cls-265" d="M269.45,231.59c.08-2.37.13-3.55,0,0C267.32,234.24,268.94,218.61,269.45,231.59Z"/><path class="cls-250" d="M271.51,227.13c1.56,1.15,0,0,.22,3.72C269.88,230.48,269.71,231.36,271.51,227.13Z"/><path class="cls-190" d="M245.55,125.44c-27.61,7.42-28.32,13.08-11.84-5.36C208.77,105.56,247.61,103.5,245.55,125.44Z"/><path class="cls-302" d="M227,103.24c-6.78,11.8-11.42-10.71-26.44-4.38C203.05,82.51,213.21,85.48,227,103.24Z"/><path class="cls-303" d="M244.94,97.65c12.43-5,3.56,33.47,1.41,7.75C237,101.64,251.83,107.32,244.94,97.65Z"/><path class="cls-304" d="M250,103.26c-.45-.13-19.88,2.95-20.74-3.76C233.31,100.58,234,95.45,250,103.26Z"/><path class="cls-132" d="M250,103.26c1-3.61-35.93-1.67-11.05-6.74C241.22,98,240.5,94.11,250,103.26Z"/><path class="cls-305" d="M204.84,191.59c2.18-8.9,2.91-13.44,0,0C194.51,198.07,187.68,172.11,204.84,191.59Z"/><path class="cls-306" d="M388.22,271.75c-4.74-7.58,20.74,64-9.45,5.06-3.94-4.12,7.43,24.53-3.48,11.91C376.28,290.68,378.32,245.15,388.22,271.75Z"/><path class="cls-307" d="M378.34,274.67c8.51,12.25,4.52,39.5-8.59,52.7C372.81,304.83,381.32,314.16,378.34,274.67Z"/><path class="cls-308" d="M365.28,282.19c2.81.72,12.61,12-1.08,2.05C364.25,284.25,363.69,283.15,365.28,282.19Z"/><path class="cls-309" d="M363.52,234.5c.26-2.75,1.62-3.57,0,0C360.38,237.65,361.23,220.57,363.52,234.5Z"/><path class="cls-310" d="M364.38,282.86h0C359.65,283.46,364.57,269.54,364.38,282.86Z"/><path class="cls-311" d="M363.52,234.5c-1.06,1.81.08,2.6,0,0C363.17,229.48,369.2,233.28,363.52,234.5Z"/><path class="cls-312" d="M368.07,267.48h0C368.18,269.22,363.09,285,368.07,267.48Z"/><path class="cls-313" d="M370.23,258.49c-.48,1.84,0,0-1.46,5.51C366.62,265.89,368.48,251.61,370.23,258.49Z"/><path class="cls-314" d="M362.29,276.82c-.12,1-.63,5.22-2.26.29C360,276,361,270.9,362.29,276.82Z"/><path class="cls-150" d="M352.16,290.32c-.61-1,0,0,.24-2.57C353.48,288.33,354,288,352.16,290.32Z"/><path class="cls-315" d="M386.09,264.21c0,4.1-8.62,2.52-2.35-5.2C385,258.67,384.82,260.29,386.09,264.21Z"/><path class="cls-316" d="M385.81,262.87c-1.68-8.17-5.15,6.7-4.67-4.32C382.8,257.19,384.68,254.41,385.81,262.87Z"/><path class="cls-317" d="M395.38,281.37c-.1,3.59.62,5-4.21-6.72C392.91,273.56,392.14,273.71,395.38,281.37Z"/><path class="cls-318" d="M370.42,281.7c.27-1.05,1.93-4.44,2.85.41C373,282.89,371.55,286.16,370.42,281.7Z"/><path class="cls-319" d="M378.7,267.88c-.26.9-2.37,4.76-2.93-.82C375.74,266.51,378.06,262,378.7,267.88Z"/><path class="cls-320" d="M371.11,273.37c-.24.61-2,4.61-2.8-.46C368.37,272.27,370.52,269.08,371.11,273.37Z"/><path class="cls-321" d="M397.61,274.72c-1.49-1-1.79.09,0,0C399,276.51,396.64,284,397.61,274.72Z"/><path class="cls-322" d="M374,259.22c.1-.56,1.62-4,2.25.41C376.17,260.26,374.79,263.88,374,259.22Z"/><path class="cls-323" d="M392,267.35c0-1.51,0,0-.48-4.33C393.29,264.11,392.66,263.05,392,267.35Z"/><path class="cls-315" d="M383.66,256.49c-2.51-.1-2.72,1,0,0C380.35,254.65,381.19,270.9,383.66,256.49Z"/><path class="cls-324" d="M392.4,274l-1.28.11C390.86,273.07,391.05,265.13,392.4,274Z"/><path class="cls-148" d="M386.59,296.83c-7.2,2.85-8.06-32.77-.79-6C387.63,289.8,396.9,305.61,386.59,296.83Z"/><path class="cls-325" d="M401.53,283.88c1.68.14-.62-1.14,2.14-2.91C404.05,281.63,404.15,293.16,401.53,283.88Z"/><path class="cls-326" d="M140.26,536.64c.3,19.63,19.19-114.27,27.49-86.55,15.94,17.91,11.36,13-4.59,36.13C181.2,477.69,136.83,559.63,140.26,536.64Z"/><path class="cls-327" d="M170.67,452.79c-5,13.08-9.95-44.16,5.26-50C176.71,414.66,172.58,404.51,170.67,452.79Z"/><path class="cls-171" d="M121.88,501.14c-.43,6-.83,6.37-4.26,4.45C119.6,504.78,120.68,503.24,121.88,501.14Z"/><path class="cls-171" d="M120.81,517.55c1.1-.6,1.08-1.25,0,0C119.66,518.24,119.38,513.94,120.81,517.55Z"/><path class="cls-328" d="M204.08,349.67c-2.26,3.6,76.65-32.59,75.72-15.53C254.19,340.84,276,356.65,204.08,349.67Z"/><path class="cls-329" d="M214.51,414.93c-11.4-11.05,27.24-27.78,26.26-8.41C243.14,412.57,217.63,455.84,214.51,414.93Z"/><path class="cls-7" d="M207,392c6-2.16-26.24-13.85,72-19.34C254.22,371.4,249.86,396.09,207,392Z"/><path class="cls-330" d="M241.85,400.09c0-15.83,24.42,69.75-29,46.67C214.16,442.39,229.9,462.27,241.85,400.09Z"/><path class="cls-331" d="M253.78,398.6c11.83-8.48-4.63,69-3.64,30.59C254.71,423.35,244.5,400,253.78,398.6Z"/><path class="cls-7" d="M235.91,352.61c-4.92-3.14,27.78,16.18.73,22.54C255.86,368.47,214.62,354.51,235.91,352.61Z"/><path class="cls-332" d="M284.19,365.91c-7.87,1.92-9,1.67-14.13-6.59C270.56,351.12,289,339.37,284.19,365.91Z"/><path class="cls-333" d="M292.38,346.63c5.47,8.28-.41,32.63-7.53,5.44C286.07,348.45,284,347.71,292.38,346.63Z"/><path class="cls-334" d="M248.58,398.77c4.35-.65,8.92,24,1.5,18.4C250.82,414,245.79,410.16,248.58,398.77Z"/><path class="cls-335" d="M271,359.25c4.91,17.37-18.36,1.49,0-7.84C272.37,354.35,268,353.62,271,359.25Z"/><path class="cls-336" d="M285.69,348.86c2.74-1.1,1.44,37.19-2.16,4.92C283.61,351.85,277.8,348.51,285.69,348.86Z"/><path class="cls-11" d="M285.69,348.86c-9.82,3.95-39.9,5.54,1.38-2.33C291.15,345.65,299,344.45,285.69,348.86Z"/><path class="cls-337" d="M270.86,367.43c-5-5.58,7.77-9.74,3.73-.9C274.27,367.63,274.7,367.21,270.86,367.43Z"/><path class="cls-335" d="M274.49,367.28c1.45-.9-.09,0,6-.64C282.24,370,260.71,370.82,274.49,367.28Z"/><path class="cls-338" d="M151.36,565.59c-24.29,5.28,6.17-55.6,22.94-65.19C160,521.75,169.45,511.73,151.36,565.59Z"/><path class="cls-339" d="M173.62,498.8c-13-1.07,17.94-5.53,13.32-64.54-1.28,6.35,10.22,27.11,13.56,4.06C177.12,393.19,237.68,410.75,173.62,498.8Z"/><path class="cls-162" d="M186.94,434.26c-3-2.23-9.77-1.1-5.84-27.5C181.84,409.78,182.54,407.65,186.94,434.26Z"/><path class="cls-171" d="M130.59,551.5c2.15.36-4.8,10.75-3.44,2.18C128.28,552.92,127.16,553.69,130.59,551.5Z"/><path class="cls-326" d="M138.37,547c-1.78,3.29-4.11,1.56,0,0C139.65,546.26,136.52,557.11,138.37,547Z"/><path class="cls-171" d="M130.6,551.51h0C129.75,549,134.82,545.76,130.6,551.51Z"/><path class="cls-171" d="M141.71,553c-.26,2.34-2,2.23-3.68,2.25A3.08,3.08,0,0,1,141.71,553Z"/><path class="cls-340" d="M241.85,400.09c7.2,11.39-37.33,86.39-27.34,14.84C215.15,435.85,236.16,433.68,241.85,400.09Z"/><path class="cls-341" d="M195.79,430.46c-1.31-7,14.15,2.83-.66,20.72C194.18,448,191.45,452.35,195.79,430.46Z"/><path class="cls-342" d="M186.22,480.18c.5-.13,6-17.73,6.72-10.31C191.2,472.26,195.1,471.64,186.22,480.18Z"/><path class="cls-343" d="M235,350.55c.37,2.05-67.12,26.37-95.42,27.43C148,374.84,175.06,357.08,235,350.55Z"/><path class="cls-7" d="M207.58,373.4c-14.5-2-40.21-.49.24-10.39C206.91,365.35,210.93,363.31,207.58,373.4Z"/><path class="cls-343" d="M207.58,373.4c-7.26-8.58,12.43-11.53,11.79-8.45C191.46,372.46,269.7,380,207.58,373.4Z"/><path class="cls-7" d="M189.2,375c14.28-2.51,16.43,6.69-6.67,1.13C184.46,374.34,183.2,375.09,189.2,375Z"/><path class="cls-7" d="M213.8,363.78c-20.28.69,23.95-13.86-.79-.59C213.14,363.46,213,363.58,213.8,363.78Z"/><path class="cls-7" d="M155.08,376.32c-1.48-2.53,33.41-11.25,12.13-2.94C165.8,372.68,165.28,376.86,155.08,376.32Z"/><path class="cls-7" d="M176.6,368.22c-.81.16,19.38-5.38,7.77.51C184.52,367.37,180.37,373,176.6,368.22Z"/><path class="cls-7" d="M218.91,376.34c-1,0,25.33-3.51,8.67.78C225.81,375.85,227.86,381.09,218.91,376.34Z"/><path class="cls-7" d="M189.19,365.9c8.68-1.82,5.78-1.24,0,0C183.76,364.84,219.45,356.91,189.19,365.9Z"/><path class="cls-156" d="M224.19,357.09c-4.76-3.69,15.42-7.21,9.57-3C228.08,355.28,236.72,356.85,224.19,357.09Z"/><path class="cls-7" d="M141,380.77c1.55.23,10.08-5.9,13.35-2.88A103.89,103.89,0,0,1,141,380.77Z"/><path class="cls-7" d="M139.58,378l1.38,2.79C140.31,382.12,137.43,383.52,139.58,378Z"/><path class="cls-344" d="M92.8,257.5c5.34,12.91,36.35-24.69,43.51-14.85C86.62,359.08,81.64,360.36,92.8,257.5Z"/><path class="cls-345" d="M141,293.16c6.81,18.06-2.41,4.57,1.89,43.77C144.48,339.68,134.47,342,141,293.16Z"/><path class="cls-346" d="M138,343c-.85,8.15,10.75,13.93,8.66,22.62C138.63,367.63,132.22,355.25,138,343Z"/><path class="cls-347" d="M143.84,267.2c-1.27-2.06-1.35-3.26,0,0C137.51,311.62,138.45,224.56,143.84,267.2Z"/><path class="cls-348" d="M84.51,359.32c-1.53-6.63-1.2-4.31,0,0C84.74,363.07,69.71,342.76,84.51,359.32Z"/><path class="cls-344" d="M87.67,340.79c-2.19-3.89-3.67-7.56-6.92-10.27C85.84,329.44,88.71,335.3,87.67,340.79Z"/><path class="cls-349" d="M138.74,336.32c-1.62,3.92,0,5.89,0,0C136.56,334.25,148.44,349.4,138.74,336.32Z"/><path class="cls-350" d="M140.09,280.62h0C141.55,259.9,141.14,318.46,140.09,280.62Z"/><path class="cls-351" d="M138.83,253.85c-.06-3.85,1.67,21.67-.28,4.43C138.39,259.3,137.8,250.21,138.83,253.85Z"/><path class="cls-352" d="M203.2,357.14c-11.32,3.87-65.3,14.25-12.31-3.53C192.88,353.31,209.88,345.39,203.2,357.14Z"/><path class="cls-353" d="M147.59,358.57c-4.07-4.5-5.24-7.36,0,0C144.76,368.3,132.68,348,147.59,358.57Z"/><path class="cls-82" d="M138.44,366.77c2.32.38,4.8-.19,7.25,1C142.85,369.89,140.54,369.28,138.44,366.77Z"/><path class="cls-354" d="M136.53,249.41c-2.27-2.37-2-17.74-9.92-6C74.86,306.4,126.23,188.72,136.53,249.41Z"/><path class="cls-355" d="M136.53,249.41c0-4.11-3.57-40.53,3.55-5.35C149.52,249.94,140.63,259.88,136.53,249.41Z"/><path class="cls-356" d="M136,227.84c-1.77-.6-1.81-26.8,2.75-11.82C137.91,218.07,140.22,221.4,136,227.84Z"/><path class="cls-357" d="M127.64,177.45c-3.16-8.55,21.57-11.91,8.16,4.19C133.1,182.34,122.53,193.08,127.64,177.45Z"/><path class="cls-248" d="M256.84,291.9c6.82,6-42.65-3.6-49.55,29.9C202.83,285.73,222.29,290,256.84,291.9Z"/><path class="cls-358" d="M215.15,308.07c-6.09-23,29.08-.28,3.73,8C217.79,315.78,215.76,317.85,215.15,308.07Z"/><path class="cls-359" d="M230.79,299.15c8.69-10.06,24.28,13.84,2.18,15.06C231.07,308.07,232.69,312.76,230.79,299.15Z"/><path class="cls-248" d="M252.73,296.87c16.73-.1-5.28,37.57-5.36,1.85C247.64,297.79,247.07,296.74,252.73,296.87Z"/><path class="cls-360" d="M259,276.15c1,8.54,2.24,12.64,0,0C272.88,266.52,279.84,300.19,259,276.15Z"/><path class="cls-361" d="M272.41,289.65c-2.07-3.75-9.38-40.24-2.64-24.41C266.12,260.09,290.51,289.06,272.41,289.65Z"/><path class="cls-362" d="M207,321.42c12.25-7,26.38,20.48.74,11.88C219.74,335.72,225.92,321.51,207,321.42Z"/><path class="cls-11" d="M317,308.06c-4.08.66-6.16.75,0,0C326.3,311.24,288.47,315,317,308.06Z"/><path class="cls-363" d="M303.54,305.17c-2.3,2.57-2.87,4.25,0,0C314.94,303.72,324,301.6,303.54,305.17Z"/><path class="cls-248" d="M239.67,333.92c-3.12-2.12-3.51-4.07,0,0C239.12,337.33,231,333.5,239.67,333.92Z"/><path class="cls-294" d="M287.21,280.56c.89,3,2.7,1.76,0,0C289.25,281.41,297.23,269.87,287.21,280.56Z"/><path class="cls-291" d="M302.81,255.32c3,2.75,1.43.13,1.5,8.73C302,262.27,303.86,264.26,302.81,255.32Z"/><path class="cls-294" d="M286.46,273.9c1.6,1.87,0,0,.62,6.05C284.87,280,286.22,280.54,286.46,273.9Z"/><path class="cls-248" d="M243.37,299.93q-1.83-1.51-3.68-3C241.84,296.8,243.54,297.22,243.37,299.93Z"/><path class="cls-88" d="M326.3,354.2c1.74,2,.9,4.34.91,6.57C325.89,358.72,326.89,356.35,326.3,354.2Z"/><path class="cls-364" d="M287.07,346.53c.32,0-22.47,6.81-16.43,1.66C273.54,348.72,275.94,345.21,287.07,346.53Z"/><path class="cls-115" d="M150.64,570.83c3.5-3.8,4.16-6.34,0,0C148.38,570.87,161.07,537.66,150.64,570.83Z"/><path class="cls-190" d="M219.65,93.56A10.58,10.58,0,0,0,216,88.31C220.81,89,220.81,89,219.65,93.56Z"/><path class="cls-365" d="M242.14,37c-1.95-1.84,12.11-1.34,2.92,2.81C242.73,38.39,241.76,45.2,242.14,37Z"/><path class="cls-366" d="M242.64,58.72c-2.94-.6,3.27-10.34,4.75-1.54C246.67,57.93,247.79,58.39,242.64,58.72Z"/><path class="cls-194" d="M224.11,53c.51,3.41.41,3.53-2.7,3.5C221.92,55,224.65,55.25,224.11,53Z"/><path class="cls-188" d="M249.25,56.45c0,2.52.53,5.09-.59,7.53C248.75,61.46,248,58.88,249.25,56.45Z"/><path class="cls-367" d="M201.15,113.66c-4.27,26.45-8.22,27.64-1.53-11.2C199.27,103.73,206,101.72,201.15,113.66Z"/><path class="cls-280" d="M201.8,105.45c.62-1.46.06-2.22,0,0C200,107.86,198.89,93.13,201.8,105.45Z"/><path class="cls-368" d="M204,88.34c1,2.94-.22,5-2.53,6.67Z"/><path class="cls-219" d="M210,52.81c3.59-4.66-.86,12.31-2.61,1.15C208.7,53.81,209.27,58.22,210,52.81Z"/><path class="cls-192" d="M86,279.08c-2.32-.49,6.38-6.76,3.12-.05C88.71,278.82,88.09,280.89,86,279.08Z"/><path class="cls-369" d="M80.78,303.42c2.73-1.4,1.5-1.05,0,0C77.8,303.68,81,296.18,80.78,303.42Z"/><path class="cls-82" d="M79.41,307.31l1.45-2.22C83.08,305.4,90.52,303.46,79.41,307.31Z"/><path class="cls-82" d="M86.08,279.13l1.47.73C86.9,281,82.35,290.82,86.08,279.13Z"/><path class="cls-82" d="M79.39,316.21c-3.19-1.48-.92-3,0-4.43C80.84,313.26,79,314.73,79.39,316.21Z"/><path class="cls-370" d="M143.31,233.81c1.12-9.28,14.5,19.61.95,15.65C145.85,246.92,138.39,249.75,143.31,233.81Z"/><path class="cls-371" d="M141.63,238.43c-1.82-1.16-2.07-2.21,0,0C146.3,265.82,130.11,216.2,141.63,238.43Z"/><path class="cls-372" d="M141.66,212.31c-.73,3.26,1.13-.27.14,15.55C141.81,225.17,139.24,222.75,141.66,212.31Z"/><path class="cls-373" d="M259,71.94c.65,2.26-.46,3-3,3A8.74,8.74,0,0,0,259,71.94Z"/><path class="cls-244" d="M310.9,584.92c-1.71-1.63-4.08-2.95-2.87-6C309.36,580.75,311.41,582.22,310.9,584.92Z"/><path class="cls-374" d="M299,611.66c2.22,7.53-23.51-68.43,18.66,18.47C319.75,635.54,309.42,636.23,299,611.66Z"/><path class="cls-375" d="M305.82,661.45c-1.55.23-4.52-28,5.48-13.43C307.88,648.53,321.23,660.23,305.82,661.45Z"/><path class="cls-210" d="M316.87,634.64c.27-1.5.55-3,.82-4.5C319.63,632,320.21,633.7,316.87,634.64Z"/><path class="cls-376" d="M251.83,55.11c-1.92,1.22-1.8,2.58,0,0C254,52.81,256.54,65.51,251.83,55.11Z"/><path class="cls-330" d="M245.62,452.79c-6.77-2.32,22.72,115.3,4.47,81.63C259.3,517.83,231.41,466,245.62,452.79Z"/><path class="cls-221" d="M261.91,567.86c-3.35-5.63-17.27-23.17-17.14-37.32C244.88,538.23,263.3,562.93,261.91,567.86Z"/><path class="cls-222" d="M245.64,451.32h0C245.34,450,246.66,443.51,245.64,451.32Z"/><path class="cls-330" d="M247.13,433.46a17.32,17.32,0,0,1,0,10.47Z"/><path class="cls-377" d="M356.24,323.68c-1,2.11-3,5.45-3.34-1C353.36,323.89,355.81,310.64,356.24,323.68Z"/><path class="cls-378" d="M342.09,281.76c2.45.61-2.8,14-2.29,4C339.94,285.4,337.19,281.67,342.09,281.76Z"/><path class="cls-379" d="M342.09,281.76c-1.62-.75.54.37-4.25,1.95C337.24,282.06,339.38,274.77,342.09,281.76Z"/><path class="cls-380" d="M337.84,283.71c.46-.71,0,0,1.94-.82C339.77,283.61,339.71,288.46,337.84,283.71Z"/><path class="cls-381" d="M367.3,315c-.3.85-2.57,5.78-3-.29C364.22,314.23,366.73,309.65,367.3,315Z"/><path class="cls-382" d="M375.56,340c-3.1-.14-3,2.14,0,0C378.51,340.29,373.4,348.67,375.56,340Z"/><path class="cls-383" d="M363,311.81c-.17.66-1.94,5.5-2.91-.13C359.92,311.19,362.67,306.58,363,311.81Z"/><path class="cls-95" d="M373.29,366.65c-1.93,3.74-5.28-5.25-.22-2.88C373.28,364.75,373,363.74,373.29,366.65Z"/><path class="cls-384" d="M372.54,358.18c.11-.36,1.56-4.91,2.44-.28C375.36,357.6,373.1,363.43,372.54,358.18Z"/><path class="cls-385" d="M369.16,300.33c-1.38,1-1.26,1.92,0,0C370.86,298.34,371.07,309.8,369.16,300.33Z"/><path class="cls-307" d="M368.69,318.57c1.61-1,2.32-1.59,0,0C367.92,319.44,369.05,312.3,368.69,318.57Z"/><path class="cls-150" d="M356.24,323.68c-1.11-1.05-.65-12.3.7,0C356.85,323.67,357,323.56,356.24,323.68Z"/><path class="cls-386" d="M368.69,318.57c1.41.41,0,0,2.32-1.59C371.19,316,370.82,323.38,368.69,318.57Z"/><path class="cls-95" d="M368.16,383.79c0-.37,3.85,2.54-.12,3A8.74,8.74,0,0,1,368.16,383.79Z"/><path class="cls-240" d="M391.18,321.49c-2.27-5-6.52-27.93,5.86-2.34C395.68,320.84,396.44,319.9,391.18,321.49Z"/><path class="cls-92" d="M385.14,350.39c-5.11,1.75-8.33-24.35-3.49-11.56C381.92,341.22,384.35,337.13,385.14,350.39Z"/><path class="cls-387" d="M378.88,307.93a5.49,5.49,0,0,1-.58,4.69C378.23,311,379,309.52,378.88,307.93Z"/><path class="cls-388" d="M391.18,321.49c3.75-8.72,9.5,11,.54,3.48C391.88,324.13,391.15,324.67,391.18,321.49Z"/><path class="cls-115" d="M170.68,511.43c1.11,1.18-15.84,52.27-9.93,21C165,529.71,158.58,522.92,170.68,511.43Z"/><path class="cls-342" d="M173.62,498.8c-.24-4.37,19.61-29.32,6.7-7.12C179.56,490.11,177.25,503.63,173.62,498.8Z"/><path class="cls-247" d="M173.66,500.31c0,.47,0,.7,0,0C182.06,494.6,165.49,518.42,173.66,500.31Z"/><path class="cls-247" d="M157.31,553.74c0-2,0-3,0,0C154.12,560,154.86,547.43,157.31,553.74Z"/><path class="cls-115" d="M157.33,550.79c.3-.6-1.53-.93-.05-3.69C158,545.14,161.83,541.9,157.33,550.79Z"/><path class="cls-158" d="M190,476.59a10,10,0,0,1,2.9-6C192.68,472.94,193.88,476,190,476.59Z"/><path class="cls-247" d="M170.68,511.43c-1.19,2-5.8-2.17.71-3C171.32,509.51,171.39,508.44,170.68,511.43Z"/><path class="cls-347" d="M160.45,268.65c-7.31,2.3,9.8,26.07-7.92,20.64C148.94,269.24,144.32,250.84,160.45,268.65Z"/><path class="cls-389" d="M198.91,315.56c-7.92,5.08-12-29.21,4.34-15.55C204.17,302.34,206.67,315.18,198.91,315.56Z"/><path class="cls-390" d="M162.46,323.14c5.14,6.74-19.86,22.64-6.82-7.42C159.42,316.26,162.1,315.65,162.46,323.14Z"/><path class="cls-391" d="M177.94,306.53c-6.86-19.93,26.82-.48,2.59,7C179.45,312.36,178.2,312.15,177.94,306.53Z"/><path class="cls-392" d="M174.43,326.52c2.84,11.4-18.19,16.16-6.79-9.43C172.25,317.45,175.29,316.51,174.43,326.52Z"/><path class="cls-393" d="M189.93,284.33c4.7-20.62,23.51,9,4.43,6.87C190.86,293.37,191.92,294.83,189.93,284.33Z"/><path class="cls-394" d="M161.83,304.52c3.82,10.58-15.92,14.12-6.17-9.7C159.22,295.78,162.15,294.25,161.83,304.52Z"/><path class="cls-395" d="M173.57,307.16c3.87,8.47-15.57,11.18-6.27-10.84C171.16,298.29,173.12,294.12,173.57,307.16Z"/><path class="cls-396" d="M160.42,268.65c-1.16,11.71-15.74-11.66-2.39-13.88C160.85,259.66,160.09,257.32,160.42,268.65Z"/><path class="cls-397" d="M146,313.31c5.46-6.47,9.46,23-1,16.12C145.29,326.51,145.43,324.82,146,313.31Z"/><path class="cls-347" d="M150.17,291.12c-3,5.78-11.34-22-.12-15.62C150.51,280,150.58,275,150.17,291.12Z"/><path class="cls-398" d="M151.32,302c-.23-4.9-.75-7.41,0,0C151.76,324.29,136.38,291.42,151.32,302Z"/><path class="cls-173" d="M198.91,315.56c7.67-2.66,5.46-29.83,8.13,5.86C206.73,323.91,203.23,324.7,198.91,315.56Z"/><path class="cls-399" d="M202.77,261.25c8.65-11,29.95,16.18,1,10.38C212.31,270.64,218.4,262.15,202.77,261.25Z"/><path class="cls-116" d="M202.77,261.25c-.68-1.57,6.86,15.73-3.9,9C198.43,266.44,191.86,264.74,202.77,261.25Z"/><path class="cls-400" d="M144.81,265.72c-4.91-2,4.36-24.83,5.46-4.24C149.42,263.43,151.52,270.7,144.81,265.72Z"/><path class="cls-351" d="M144.69,262.79c-2.26,15.72-5.57-12.56-2.2-8.34C144.9,257.22,144.31,254.28,144.69,262.79Z"/><path class="cls-401" d="M141.55,278.46c-.81-3,2.19-13.9,2.25.15C144.93,284.74,141.09,294.45,141.55,278.46Z"/><path class="cls-116" d="M160.16,258.45c-2.06-9-10.38,7.28-8.18-6.87C152.42,257.78,158.2,241.23,160.16,258.45Z"/><path class="cls-402" d="M144.81,265.72c4.47,4.53,5.58-8.93,5.85,0C151.52,268.53,145.47,271.52,144.81,265.72Z"/><path class="cls-403" d="M228.63,268.73h0C229.33,266.67,236.55,273.34,228.63,268.73Z"/><path class="cls-116" d="M172.21,273.18c-1.11-2.24.33-4.47,0-6.7A7.58,7.58,0,0,1,172.21,273.18Z"/><path class="cls-404" d="M186,191.62c-6.33,4.3-8.85-19.31,8.18-14.61C190.9,179,201.1,182.73,186,191.62Z"/><path class="cls-405" d="M176,175.07c-3.92-.85-5.22,2.06,0,0C193.28,171.11,161.24,211.78,176,175.07Z"/><path class="cls-406" d="M183.67,201.6c1.73-.87,1.73-2,0,0C182.3,202.35,181.85,196.46,183.67,201.6Z"/><path class="cls-407" d="M184.54,206.56c-.56-1.31-1.2-1.33,0,0C185.21,208.12,178.93,208.76,184.54,206.56Z"/><path class="cls-116" d="M184.78,220.47c.71-1.63.61-2.56,0,0C185,221.05,182.35,216.69,184.78,220.47Z"/><path class="cls-408" d="M226.3,293.94c-6.79,6.65-21.33-11.79-9.9-17.08C226.51,277.27,227.42,279.34,226.3,293.94Z"/><path class="cls-409" d="M242.64,288.78c-2.53,19.41-31.65-13.34-2.25-10.75C241.63,279.63,241.29,277.48,242.64,288.78Z"/><path class="cls-410" d="M227.9,262.56c2.92-.63,3,1.51,0,0C227.36,260.5,233.66,260,227.9,262.56Z"/><path class="cls-116" d="M198.65,254.56,199,248C201.35,250.29,200.32,252.44,198.65,254.56Z"/><path class="cls-411" d="M235.69,269.23a42.09,42.09,0,0,0-1.26-6.93C237,264.68,235.39,267.1,235.69,269.23Z"/><path class="cls-412" d="M267.94,252.38c-2.06-.78-2.87,1.25-.45-17.21C268.55,240.25,268.16,235.93,267.94,252.38Z"/><path class="cls-413" d="M256,279.12c-.37.94.62,13.48-.55.12C255.47,279.29,255.47,278.83,256,279.12Z"/><path class="cls-414" d="M273.78,233c17.82-6.81-2.63,46-2.74,3.22C272.61,236,270.54,235.4,273.78,233Z"/><path class="cls-415" d="M271.58,259.82C274,241.14,290,272,275.15,269.65,271.37,267.52,272.59,270.8,271.58,259.82Z"/><path class="cls-416" d="M273.13,233.14c.4,1.08,0,0,.18,3.29C271.79,236.61,269.4,236.22,273.13,233.14Z"/><path class="cls-417" d="M268,257.51c.15-1.59-.69-1.83,0,0C269.07,259.19,263.6,258.64,268,257.51Z"/><path class="cls-418" d="M271.1,249.3c.94.47,3.86-.93,2,2.16C270.62,252.5,271,250.76,271.1,249.3Z"/><path class="cls-419" d="M267.94,252.38c0-2.67.05-5.35.07-8A11.31,11.31,0,0,1,267.94,252.38Z"/><path class="cls-361" d="M272.47,269.38c.87.37,0,0,2.69.26C274.32,268.46,273,275.81,272.47,269.38Z"/><path class="cls-420" d="M150.56,262.08c-7.5-5.24-8.44-7.66.43-25C149.1,241.47,156.25,285.44,150.56,262.08Z"/><path class="cls-116" d="M149.11,235.31c-.3-3-2.33-3,0,0C148.85,239.72,148.91,251.13,149.11,235.31Z"/><path class="cls-421" d="M265.12,274.13c-1.13,1.45,8.3,1.23.79,2.11C264.9,276.06,258.06,275.11,265.12,274.13Z"/><path class="cls-368" d="M201.8,105.45C200.66,77.27,236.4,116,237.53,127,228.24,119.09,207.35,161.9,201.8,105.45Z"/><path class="cls-422" d="M282,285.87c-5-.64-11.23-2.25-3.67-12.13C279.4,273,284.76,277.51,282,285.87Z"/><path class="cls-423" d="M284.57,246.47c1.52,2.18-7.27,5.5,1-12.19C285.13,237.38,283.2,234.36,284.57,246.47Z"/><path class="cls-148" d="M378.34,274.67c1.8,2.5.3,4.65-.75,6.85A7.16,7.16,0,0,1,378.34,274.67Z"/><path class="cls-424" d="M390.31,284.28c.64,1.2-1.16,8.32-1.8,1.31C387.53,284.32,388.58,285.68,390.31,284.28Z"/><path class="cls-425" d="M203.46,356.12c-.18-1.07,2.36-12.44,31.54-5.57C231.26,348.61,231.11,350.77,203.46,356.12Z"/><path class="cls-426" d="M230,347.38c-3.74.47-7.12,2.79-11.08,2.21C222.32,347.3,225.94,346.19,230,347.38Z"/><path class="cls-427" d="M233,356.28c1.13-1.27.71-2.21,0,0C231.8,355,223.34,354.33,233,356.28Z"/><path class="cls-428" d="M271.64,352c-.93.35-1.29.64,0,0C283,345.44,262.74,370.3,271.64,352Z"/><path class="cls-247" d="M159.53,544.08C158,550.4,151.64,542,167,516.6,167.58,523.14,163.16,518.24,159.53,544.08Z"/><path class="cls-342" d="M167,516.61c1.36-2.84,1.51-4.44,0,0C161.24,522.91,166,505,167,516.61Z"/><path class="cls-342" d="M171.39,508.44c-2.51.05-3.85,2.21-1.49-4.94C171.45,501.75,176,498.64,171.39,508.44Z"/><path class="cls-184" d="M155.07,553.72c-3.09,3.08-2.79,5.81,0,0C156.18,555.47,149.67,573.52,155.07,553.72Z"/><path class="cls-184" d="M146.57,564.41c-.76-1.51,0,0,.42-3.42C148.28,561.55,150,562.22,146.57,564.41Z"/><path class="cls-338" d="M178.09,489.9c-.43,2.67-1,5.29-3.69,6.69C173.89,493.4,175.18,491.21,178.09,489.9Z"/><path class="cls-429" d="M203.46,356.12c-2.56.56,43.48-12.11,16.28-2.82C215.51,351.77,219.36,359.79,203.46,356.12Z"/><path class="cls-430" d="M140.87,299.84l.18-5C142.1,293.55,141.9,303,140.87,299.84Z"/><path class="cls-371" d="M135.12,234.63c.37-.21,0,0,1.06-.55C136.13,235.62,137,256.92,135.12,234.63Z"/><path class="cls-431" d="M245.12,57.22c1.2-.39,1-1.18,0,0C244.11,57.85,242.81,53.63,245.12,57.22Z"/><path class="cls-280" d="M201.85,108.4c2.06,2,1.06,3.68-.68,5.23C199.52,111.64,200.31,110,201.85,108.4Z"/><path class="cls-116" d="M148.41,248c-.74,1.32-.64,2.12,0,0C150.12,248,149.45,254.35,148.41,248Z"/><path class="cls-396" d="M152.73,266.61c-.83-3,0,0,.09-9.07C152.94,261.4,152.85,257.74,152.73,266.61Z"/><path class="cls-248" d="M203.4,306.6c1.29,2.43,0,0,.56,7.56C201.83,315.58,200.68,316.78,203.4,306.6Z"/><path class="cls-248" d="M204.07,271.76c-12.35-11.29,19.19-14.35,5.36-5.26C215.5,267.74,219.69,273.31,204.07,271.76Z"/></g></g></svg>