<svg xmlns="http://www.w3.org/2000/svg" viewBox="0 0 615.2 281.87"><defs><style>.cls-1{fill:#25221e;}.cls-2{fill:#71422a;}.cls-3{fill:#5a3620;}.cls-4{fill:#2f2114;}.cls-5{fill:#7b6955;}.cls-6{fill:#623721;}.cls-7{fill:#836c55;}.cls-8{fill:#977e63;}.cls-9{fill:#967e63;}.cls-10{fill:#897660;}.cls-11{fill:#43261a;}.cls-12{fill:#927a61;}.cls-13{fill:#100c09;}.cls-14{fill:#5c4e3c;}.cls-15{fill:#8d5d42;}.cls-16{fill:#5b4b3a;}.cls-17{fill:#5a4b39;}.cls-18{fill:#ad987f;}.cls-19{fill:#ab714e;}.cls-20{fill:#523826;}.cls-21{fill:#78634b;}.cls-22{fill:#140f0d;}.cls-23{fill:#907666;}.cls-24{fill:#6f4531;}.cls-25{fill:#95846d;}.cls-26{fill:#988465;}.cls-27{fill:#342d23;}.cls-28{fill:#6a5846;}.cls-29{fill:#70604f;}.cls-30{fill:#6d5b40;}.cls-31{fill:#3b2412;}.cls-32{fill:#725134;}.cls-33{fill:#cfaa8e;}.cls-34{fill:#c2ab8e;}.cls-35{fill:#b39d86;}.cls-36{fill:#b3a18d;}.cls-37{fill:#443a38;}.cls-38{fill:#b0977e;}.cls-39{fill:#1e1716;}.cls-40{fill:#e8dace;}.cls-41{fill:#615955;}.cls-42{fill:#b19a8b;}.cls-43{fill:#f2d5be;}.cls-44{fill:#ac967e;}.cls-45{fill:#765741;}.cls-46{fill:#625852;}.cls-47{fill:#b39f6d;}.cls-48{fill:#c7b597;}.cls-49{fill:#a9916d;}.cls-50{fill:#968068;}.cls-51{fill:#605141;}.cls-52{fill:#73604d;}.cls-53{fill:#3b332d;}.cls-54{fill:#615347;}.cls-55{fill:#825135;}.cls-56{fill:#7e4328;}.cls-57{fill:#736550;}.cls-58{fill:#985d36;}.cls-59{fill:#ab937b;}.cls-60{fill:#422918;}.cls-61{fill:#3d2210;}.cls-62{fill:#160f09;}.cls-63{fill:#562f1b;}.cls-64{fill:#5e4e3d;}.cls-65{fill:#462e1d;}.cls-66{fill:#a89362;}.cls-67{fill:#816f48;}.cls-68{fill:#342216;}.cls-69{fill:#6c5c49;}.cls-70{fill:#988570;}.cls-71{fill:#7b492f;}.cls-72{fill:#6a3d25;}.cls-73{fill:#170c06;}.cls-74{fill:#5c4a36;}.cls-75{fill:#a78d6f;}.cls-76{fill:#836c54;}.cls-77{fill:#f2eae1;}.cls-78{fill:#6c5946;}.cls-79{fill:#bc9f82;}.cls-80{fill:#1c150d;}.cls-81{fill:#735e48;}.cls-82{fill:#baa48b;}.cls-83{fill:#3f3226;}.cls-84{fill:#4c3e2f;}.cls-85{fill:#5e4e3e;}.cls-86{fill:#3e3020;}.cls-87{fill:#4b3c2b;}.cls-88{fill:#271f18;}.cls-89{fill:#4f3f30;}.cls-90{fill:#7b6a56;}.cls-91{fill:#85725e;}.cls-92{fill:#94816b;}.cls-93{fill:#5f4d39;}.cls-94{fill:#32281b;}.cls-95{fill:#4d3a26;}.cls-96{fill:#9b5f3f;}.cls-97{fill:#915537;}.cls-98{fill:#4a2c0f;}.cls-99{fill:#504639;}.cls-100{fill:#6b523e;}.cls-101{fill:#ad8664;}.cls-102{fill:#5c5143;}.cls-103{fill:#3a2d21;}.cls-104{fill:#5e5041;}.cls-105{fill:#a99479;}.cls-106{fill:#31281e;}.cls-107{fill:#1d150e;}.cls-108{fill:#5f4f3d;}.cls-109{fill:#403629;}.cls-110{fill:#e6cc84;}.cls-111{fill:#14110d;}.cls-112{fill:#635345;}.cls-113{fill:#c9c9ca;}.cls-114{fill:#4c4234;}.cls-115{fill:#c8c7c4;}.cls-116{fill:#7a6a53;}.cls-117{fill:#3a3026;}.cls-118{fill:#cacaca;}.cls-119{fill:#967e60;}.cls-120{fill:#adacac;}.cls-121{fill:#ac947b;}.cls-122{fill:#080502;}.cls-123{fill:#704c2c;}.cls-124{fill:#caae6e;}.cls-125{fill:#8b5232;}.cls-126{fill:#e3dcce;}.cls-127{fill:#89745b;}.cls-128{fill:#412c1e;}.cls-129{fill:#927b62;}.cls-130{fill:#2d2318;}.cls-131{fill:#675744;}.cls-132{fill:#7a6651;}.cls-133{fill:#a58f79;}.cls-134{fill:#3a3129;}.cls-135{fill:#74624f;}.cls-136{fill:#e4ddd6;}.cls-137{fill:#f1ebe1;}.cls-138{fill:#514434;}.cls-139{fill:#423629;}.cls-140{fill:#382d22;}.cls-141{fill:#907e6d;}.cls-142{fill:#5d4f3d;}.cls-143{fill:#372c1f;}.cls-144{fill:#6f6357;}.cls-145{fill:#f0ece7;}.cls-146{fill:#645340;}.cls-147{fill:#74614c;}.cls-148{fill:#806c55;}.cls-149{fill:#140e0a;}.cls-150{fill:#806e5a;}.cls-151{fill:#40352a;}.cls-152{fill:#766653;}.cls-153{fill:#382e24;}.cls-154{fill:#f5f5f4;}.cls-155{fill:#9e8c78;}.cls-156{fill:#817361;}.cls-157{fill:#9c825c;}.cls-158{fill:#b69d77;}.cls-159{fill:#e5dfd3;}.cls-160{fill:#af7755;}.cls-161{fill:#aa8265;}.cls-162{fill:#6a5a48;}.cls-163{fill:#524335;}.cls-164{fill:#3b3126;}.cls-165{fill:#897e6f;}.cls-166{fill:#2e2419;}.cls-167{fill:#4f4233;}.cls-168{fill:#f8f5f2;}.cls-169{fill:#080704;}.cls-170{fill:#8f7a63;}.cls-171{fill:#3c3127;}.cls-172{fill:#8d7a65;}.cls-173{fill:#050404;}.cls-174{fill:#3a2416;}.cls-175{fill:#4f3320;}.cls-176{fill:#5d5245;}.cls-177{fill:#423c34;}.cls-178{fill:#b6b3b0;}.cls-179{fill:#8a7964;}.cls-180{fill:#21140b;}.cls-181{fill:#39291b;}.cls-182{fill:#3f2e20;}.cls-183{fill:#f4f4f3;}.cls-184{fill:#f5f4f4;}.cls-185{fill:#f4f3f3;}.cls-186{fill:#f4f4f5;}.cls-187{fill:#3f3e3a;}.cls-188{fill:#bdbdbd;}.cls-189{fill:#f0efee;}.cls-190{fill:#64513c;}.cls-191{fill:#867054;}.cls-192{fill:#5f523e;}.cls-193{fill:#362c20;}.cls-194{fill:#8e6039;}.cls-195{fill:#756655;}.cls-196{fill:#1b160e;}.cls-197{fill:#1a120a;}.cls-198{fill:#f4f5f3;}.cls-199{fill:#291f14;}.cls-200{fill:#090805;}.cls-201{fill:#6e5f4f;}.cls-202{fill:#96846f;}.cls-203{fill:#9f8f7c;}.cls-204{fill:#e2dcd4;}.cls-205{fill:#564739;}.cls-206{fill:#786551;}.cls-207{fill:#ede5da;}.cls-208{fill:#332615;}.cls-209{fill:#bb9f73;}.cls-210{fill:#d7bf97;}.cls-211{fill:#9a8873;}.cls-212{fill:#f3f1f0;}.cls-213{fill:#5e5446;}.cls-214{fill:#f1f0ee;}.cls-215{fill:#2a2824;}.cls-216{fill:#ac957d;}.cls-217{fill:#816d5d;}.cls-218{fill:#a18d76;}.cls-219{fill:#4f3522;}.cls-220{fill:#efefec;}.cls-221{fill:#bebdba;}.cls-222{fill:#64584a;}.cls-223{fill:#948473;}.cls-224{fill:#a89985;}.cls-225{fill:#ede4de;}.cls-226{fill:#715235;}.cls-227{fill:#f2f0ed;}</style></defs><title>Asset 8</title><g id="Layer_2" data-name="Layer 2"><g id="Layer_1-2" data-name="Layer 1"><path class="cls-1" d="M48.92,10.32c4.44,10,113,68.85,72.6,67.24C120.84,90.38,61.59,18.64,68,57.2c5-.71-8.82,31.06-5.46,7.66,5.82-11.94-16.86-25-7.33-37C55.87,27.62-4.91,34.57,48.92,10.32Z"/><path class="cls-2" d="M258.83,92.31c26.07,12.68-1.43,74.4-21.56,26,2.74.07-64.13,56.56-43.81-28.62,36.18-3.22-2.48,1.9,4.78,35.6,32.29,22.57,29.6-36.92,40.51-34.24C244.06,98.46,261.17,131.64,258.83,92.31Z"/><path class="cls-3" d="M189.78,125.46c6,9.54,18.88,18.19,52.85-14.15-2.67,25.28-2.69,12.48,19.15,25.39,2.57-11.85-.79-25.91,10.78-27.29C312.4,164.07,147.75,140.66,189.78,125.46Z"/><path class="cls-4" d="M181.75,125.49c2.37,14.09-23,9.06,5.77,15.28-8.89-5-55.08,30.6-43.33,10.72,17.61-15,20.39-29.9,10.63-74C156,66.06,195.94,127,181.75,125.49Z"/><path class="cls-5" d="M323.56,86.64c-6.32-26.21,164-33.13,65.44-7.13-12.72,1.13-101.73,20-34.16-3.69C348.7,76.36,358,73.17,323.56,86.64Z"/><path class="cls-6" d="M83.64,150.55c1.8-32-18.53-55.94-8.35-92.27-3.58-13.52,45.71,14.49,16,6.56-30.73-4.51,13.77,32.06-5,57.52C79.06,153.85,99,142.81,116.2,163.3,112.44,176.45,121.62,169.49,83.64,150.55Z"/><path class="cls-7" d="M524.76,74.37C553.55,78.78,661.6,88.5,511.33,92,512.9,97.82,475.79,96.29,524.76,74.37Z"/><path class="cls-8" d="M538.63,91.39c-22.83-16.17,48.64,7,50-7.17-3.15,6.84-32.85-10-23.26-7.31.54,3.14,82.26,16.55,19.21,16.57C594.7,90.81,652.12,116.66,538.63,91.39Z"/><path class="cls-9" d="M565.65,104.39c26-5.81,73.77,27.79,19.71,21.22C587,121.22,548.71,107,565.65,104.39Z"/><path class="cls-10" d="M298.67,123.41C270,101.26,456.39,87.84,403.38,105.07,374.28,112.05,323.54,100.84,298.67,123.41Z"/><path class="cls-11" d="M101.71,67.44C82,45.6,62.64,58.42,77.47,99.58,72.67,107.23,38.79-3,101.71,67.44Z"/><path class="cls-12" d="M524.76,74.37c-31.15,7.22-31,1.35-75.14,2.19C429.85,62.45,495.74,64.41,524.76,74.37Z"/><path class="cls-13" d="M53.86,38.52c3.3-5.72,20.37,41.63,3.86,27C37.17,61.32,14.72,89.4,53.86,38.52Z"/><path class="cls-14" d="M174.69,108.48c-7.22-17.7-25.95-53.92,11-16C193.26,128.67,188.53,109.17,174.69,108.48Z"/><path class="cls-15" d="M258.83,92.31c5.5,41.62-15.73-.25-27.11.08C228.67,93.65,224.84,75.12,258.83,92.31Z"/><path class="cls-16" d="M298.67,123.41c17.65-3.6,22,1.26,6.7,9.84,5,5.54,19.54-19.94,41,7.12C331.37,132.46,292.85,159.14,298.67,123.41Z"/><path class="cls-17" d="M324,101.56c2.67-2.36-27.26-21.47,105.27-25.7C419.52,84.23,353.51,76.81,324,101.56Z"/><path class="cls-18" d="M579.72,127.5c15.89,13.26,17.4-13.62,34.16,35.25-22.91,0-19.82-7-28.91,18.47-7.79-28.76,45.92-19.29,5.24-34.74C612.71,117.65,572.59,167.45,579.72,127.5Z"/><path class="cls-19" d="M239.76,85.38c-18.12,1.67.34,2-8.28,21.25,1.87,1.76-6.58-12.86-3.28-5.39C217.61,107.89,189.11,73.14,239.76,85.38Z"/><path class="cls-20" d="M101.69,192.42c-17.6-64,29.41,37.44,9.3,40.44C101.06,221.54,115,208.69,101.69,192.42Z"/><path class="cls-21" d="M538.63,91.39c7,1.9,45.73-2.47,48.24,10.93C573.71,100.33,552,106.43,538.63,91.39Z"/><path class="cls-22" d="M274.63,135.41c.75-23.54,8.49-15.14,11.09,17C282,152.65,259.45,157.5,274.63,135.41Z"/><path class="cls-23" d="M25.63,28.2c.93,6.18,19.83,3.48,15.9,11.5C37,59.08,4.18,56.56,25.63,28.2Z"/><path class="cls-24" d="M110.64,72.5c-1,8.28,14.35-5.14,32.93,8.78C141.74,89.69,164.46,118.56,110.64,72.5Z"/><path class="cls-25" d="M422.73,65.37c-13.21-5.39-82.2,9.73-13.3-4.65C408.22,52.79,466.14,59.25,422.73,65.37Z"/><path class="cls-26" d="M92.56,263.24c.07-3.89,10.59-.36,12.91-29.09C106.21,201,124.86,276.54,92.56,263.24Z"/><path class="cls-27" d="M35.87,65.3c-11.23,37.06-47.26,5.45-28.94,5.9C20.33,88.45,10.72,69.81,35.87,65.3Z"/><path class="cls-28" d="M328.69,87.42c2.22,3.59-27.5-5.72,28.65-11.93C351.36,81.47,357.19,76.26,328.69,87.42Z"/><path class="cls-29" d="M575.55,224.28c2.8-.18-25.21,11.95,11.14-32.91C585.53,198.64,582.77,209.4,575.55,224.28Z"/><path class="cls-30" d="M106.65,260.27c9.21-2.66-8-56.53,2.45-37.32C104.64,227.47,129.35,235.25,106.65,260.27Z"/><path class="cls-31" d="M96.75,164.38c-10.92-10.43-23.22-16.3,6.14-6.53C110.07,153.07,120.35,169.33,96.75,164.38Z"/><path class="cls-32" d="M101.69,192.42c4,4.3,17.78,14.88,3,23.07C102.36,212.71,105.09,214.82,101.69,192.42Z"/><path class="cls-33" d="M.72,67.38c4.35-2.73,9.8-26.63,19.8-14.19C16.67,52.05,23.94,66.45.72,67.38Z"/><path class="cls-34" d="M539.63,95.47c1-2.2,37.9,7.71,20,9C561.64,104.26,528,100.42,539.63,95.47Z"/><path class="cls-35" d="M437.73,59.55c-11.51-7.29,19.92-9,12.75,7.4C444.25,74.8,450,65.76,437.73,59.55Z"/><path class="cls-36" d="M280.84,152.35c12.93-3.6,39.55,17.37-6.29,2.27C271.69,152.17,272.89,150.86,280.84,152.35Z"/><path class="cls-37" d="M41.81,17.37C38.16,23.5,24.35,1,37.28,7.2,37.58.87,42.91,3.43,41.81,17.37Z"/><path class="cls-38" d="M604.57,94.41c6.25-5.16-9.7-17.3,4.4-5.17C609.76,108.18,603.55,110.58,604.57,94.41Z"/><path class="cls-39" d="M41.72,11.52C42.3,13.8,33-2.75,41.37.4,39.86-.18,52.26,9.12,41.72,11.52Z"/><path class="cls-40" d="M19.74,53.52c-1.82-11.47-20.39,13.11-6-8.06C15.67,43.52,32.6,57.3,19.74,53.52Z"/><path class="cls-41" d="M41.72,11.52c-4,4,.09,5.85,0,0C43.22,6.37,55.12,5.4,41.72,11.52Z"/><path class="cls-42" d="M24.52,51.74c1.53-3-11.38,1.65-7.87-10.4C16.52,48.79,27.91,41,24.52,51.74Z"/><path class="cls-43" d="M7.75,54.44c-4.55,5.36-2.84,3.69,0,0C22.28,51.33-4.63,74.28,7.75,54.44Z"/><path class="cls-44" d="M302.7,156.41c1.48,0-20.47-1.59-12.68-3.21C307,151.6,292.46,121.75,302.7,156.41Z"/><path class="cls-45" d="M.72,67.38c-1.61,3.36,0,5.05,0,0C9,62,14.78,71.34.72,67.38Z"/><path class="cls-46" d="M25.63,28.2c.87,1.72-10.55,21.8-5.28,4.68C20.91,34.47,22,27.28,25.63,28.2Z"/><path class="cls-47" d="M142.89,81.27c-1.59-12.07,22,13.43,9.26,7.15C150.9,86.46,150,85,142.89,81.27Z"/><path class="cls-48" d="M102.77,251.39c.79,3.34.31.36.23,7.35C100.38,259.4,92.37,259.5,102.77,251.39Z"/><path class="cls-49" d="M185.76,90.53c7.61,0,5.05-.18,0,0C162.37,84.76,214,89.34,185.76,90.53Z"/><path class="cls-50" d="M586.7,191.36c.71-4.49,1.07-6.73,0,0C583.13,196.3,583.4,179,586.7,191.36Z"/><path class="cls-51" d="M299,140.33c.83-7.46.46-5,0,0C299.07,144.07,297.49,115.92,299,140.33Z"/><path class="cls-36" d="M285.49,149.56c-1.11-3.65-.68-7.4-.74-11.11C286.31,142.06,285.83,145.82,285.49,149.56Z"/><path class="cls-52" d="M105.74,281.31c-12.22-5.39-37.93-9.69,1-19.88C87.79,274.49,160.36,276.51,105.74,281.31Z"/><path class="cls-53" d="M40.85,34.5C31.79,47.19,21,17.29,49.75,28.45,49.17,32.81,49.65,25.41,40.85,34.5Z"/><path class="cls-46" d="M36.73,24.49c.68,1.49,6,5.18-9.23,14.17C29.51,33.91,22.43,22,36.73,24.49Z"/><path class="cls-53" d="M50.69,28.52c.14-.4,20.63-3.42,4.06,4.62C56.77,37.14,45.38,46.09,50.69,28.52Z"/><path class="cls-54" d="M50.69,28.52c5.91-.4-14.49,22.49-6.56,3.95C40,36.78,36.55,29.33,50.69,28.52Z"/><path class="cls-6" d="M110.64,72.5c-1.94-2.89-3.89-3.1,0,0C110.74,75.72,100.87,70,110.64,72.5Z"/><path class="cls-55" d="M227.71,122.42c-32.47,25.18-46.19-24.39-10.38-11.2C203.09,97.88,229.77,93.15,227.71,122.42Z"/><path class="cls-56" d="M225.72,107.45c-2.71.93-20-14.1-7.08,3C168.92,133.86,208,64.48,225.72,107.45Z"/><path class="cls-57" d="M174.69,108.48c-5-14,29.75,9.51,8.59,21.19C185.81,115.53,188.61,127.17,174.69,108.48Z"/><path class="cls-58" d="M225.72,107.45c2.65.41-4.54-19.91,5.32-7C236.5,107.59,233,126,225.72,107.45Z"/><path class="cls-49" d="M191.58,119.31c-1.86-2.1-7.67-18.58-5.88-26.84C184.56,96.75,193.88,88.94,191.58,119.31Z"/><path class="cls-3" d="M191.88,109.45c1.22,3.16-5.56-18.2,1.58-6.6C193.09,100.66,195.63,115.39,191.88,109.45Z"/><path class="cls-56" d="M227.68,110.44c-1.81,1.68-1.4,3.28,0,0C234,109.46,230.49,134.05,227.68,110.44Z"/><path class="cls-59" d="M280.84,152.43c-7.59,3.16-90.38-3.75-113.63-18.69C170.22,134.65,198.61,134.42,280.84,152.43Z"/><path class="cls-60" d="M270.68,150.29c-13.69,1.05-54.06-15.09-5.3-7.22C272.45,135.25,276.34,132.1,270.68,150.29Z"/><path class="cls-61" d="M234.71,143.35c-4.42.36-42-5.32-11.2-9.1C228.73,135.79,225.23,135.26,234.71,143.35Z"/><path class="cls-62" d="M140.75,161.44c4.54-19.87,83.86-26.45,86.07-8.19C229.33,153.44,127.63,197.77,140.75,161.44Z"/><path class="cls-63" d="M112.71,173.44c48.84-29.21,17.86-40.26,18.5,59C126.42,236.69,130.36,233.82,112.71,173.44Z"/><path class="cls-64" d="M233.83,151.35c6.9.83-116.25-23.81,44.83,4.12C269.89,159.9,252.68,154.94,233.83,151.35Z"/><path class="cls-65" d="M145.52,152.31c1.52-.76-2.66-31.28,10-28C152.26,124.23,169.38,136.13,145.52,152.31Z"/><path class="cls-66" d="M154.65,125.51c2.64,1.59-2.16-51.75,3-38.14C162.44,96.39,170.23,117.44,154.65,125.51Z"/><path class="cls-67" d="M154.65,125.51c9.75,3.67,7.46-40.65,9-12.55C162.56,113.56,165.63,132.71,154.65,125.51Z"/><path class="cls-65" d="M132.75,180.41c-2.77-2.71,4.52-27.68,8-20C136.8,164.21,143.56,158.62,132.75,180.41Z"/><path class="cls-68" d="M136.73,170.4c-.07-2.3-.51-4.39,4-10C139.84,164.89,140.79,160.7,136.73,170.4Z"/><path class="cls-62" d="M156.82,127.53a5,5,0,0,1,.92.13C158.56,128.7,166.16,133.79,156.82,127.53Z"/><path class="cls-69" d="M437.73,59.55c18.24-1.32-9.29.07,20.38,31.3,6.58.74-70,12.63-97.54-2,16.12-14.09-9.86,7.3,70.41-11.31C438.71,71.66,376.18,78.22,437.73,59.55Z"/><path class="cls-70" d="M412.67,72.45c20.24-3.73,11.24,5.72-13.86,2.73C401.42,74.52,403.16,74.24,412.67,72.45Z"/><path class="cls-71" d="M104.74,70.42C118.32,75.46,88.37,82,93.06,84c29.91,7.1-4.52,17.17-1.6,59.14,41.17-31.23,0,40.1,57.15-22.73,3.19,36.28-57.29,45.91-62.87,14-8-10.5,21.91-29.6,7.87-41.65C78.33,90.93,72.12,57.08,104.74,70.42Z"/><path class="cls-72" d="M90.77,151.4c25-28.62,13.4,39.82,60.9-27.93-9.34,1.43,12.42,27.3-28.32,35.85,6.37,1.78,14.89,19.67-4.41,18.42C106.74,178.45,132,154.25,90.77,151.4Z"/><path class="cls-72" d="M104.74,70.42C94.21,65,63.25,74.3,92.49,89.77c19.45,1.66-9,41.47-7.84,39.39C102.48,116.9,50.62,34.7,104.74,70.42Z"/><path class="cls-31" d="M112.71,173.44C115,170.65,126.09,264,110.26,217,128.76,210.87,78.55,154.69,112.71,173.44Z"/><path class="cls-73" d="M111.73,173.41c2,3.45-32.95-12-3.76-10.59C111.58,164.51,112.22,164.52,111.73,173.41Z"/><path class="cls-72" d="M85.75,134.42q1.5,7,3,14C85.75,144.18,83.2,139.84,85.75,134.42Z"/><path class="cls-74" d="M539.63,95.47c-16.65-6.29-33,62.05-35.62,48.34-16.13-12.27,24.79-19.49-50.17-29.57C522.41,112.35,469.28,96,539.63,95.47Z"/><path class="cls-75" d="M450.69,87.46C440.32,91.72,437.21,54.7,524.86,86,510.92,94.73,468.14,74.48,450.69,87.46Z"/><path class="cls-76" d="M450.69,87.46c.43-14.75,56-2.42,51.91,4C490.94,91.16,498.08,95.62,450.69,87.46Z"/><path class="cls-77" d="M457.46,89.54c8.32,4.68,43.22-4.58,52.2,10.19C513.32,101.81,440.48,94.43,457.46,89.54Z"/><path class="cls-78" d="M497.44,93.57c.2,0-40.5-2.13-24.46-4C471.73,91.37,509.46,88.32,497.44,93.57Z"/><path class="cls-78" d="M503.63,89.43h0C497.9,89.52,489.66,85.32,503.63,89.43Z"/><path class="cls-79" d="M604.57,94.41c-12.59-1.72-8.4-.89,0,0,.6.47,5,1,0,3C607,96.93,562.26,93.74,604.57,94.41Z"/><path class="cls-80" d="M548.61,100.26c16.06-4.31,60.66,72-1.79,4.1C539.41,144.76,510.84,99,548.61,100.26Z"/><path class="cls-81" d="M577.64,130.37c-4.14-7.73,5.79-21,10.07-4.47C585.63,128.81,586.22,122.86,577.64,130.37Z"/><path class="cls-82" d="M577.45,121.51c-4.05-7.43-2.8-4.93,0,0C580.24,135.36,558.13,95.39,577.45,121.51Z"/><path class="cls-16" d="M299.72,117.43c11.07-16,184.27-16.25,118.41,2.91C388.11,116.88,357.86,116.61,299.72,117.43Z"/><path class="cls-83" d="M421.69,122.38c48.08-22.69-71-13-30.59-18.1,32,3,25.18-12.82,54.18-8.23,5.33,73.5-9.22-39.67-10.24,46.75-22.88,4.43,8.53,1.24-22.11-13.89C416.68,129.1,439.7,128.52,421.69,122.38Z"/><path class="cls-84" d="M420.74,104.37c-13.46-13-8.07-1.1-54-7.85,4.87-.91,79.49-11.87,67-5.32C426.88,94.76,418.2,91.78,420.74,104.37Z"/><path class="cls-85" d="M364.67,98.43c32.73-2.54,5.29,9.44-40.72,4.86C329.68,102,329.16,100.17,364.67,98.43Z"/><path class="cls-86" d="M364.67,98.43c-16.4,1.29-12.66,6-40.67,3.14C332.11,102.88,349.77,91.37,364.67,98.43Z"/><path class="cls-51" d="M299.72,117.43c-1.56,3.52,10.72-3.91,8,4.43C307.73,119.69,299.06,130.88,299.72,117.43Z"/><path class="cls-87" d="M446.7,72.49c-1,0-14.81,3.43-9.31-3.75C436,69.44,456.91,69,446.7,72.49Z"/><path class="cls-7" d="M508.6,76.47c3.23.55,5-1.5,0,0C497.25,75.93,494.6,69,508.6,76.47Z"/><path class="cls-53" d="M40.66,39.35C59.82,26.83,39.1,66.73,37.8,51.44,41.24,65.8,18.24,64.14,40.66,39.35Z"/><path class="cls-88" d="M37.75,59.42c-9.48,1.71,9.36-24.31,1.44-7.76C39.11,53,46.8,58.22,37.75,59.42Z"/><path class="cls-88" d="M30.72,59.41c8.85-2.82,4.85,10.73-5.26,8C26.16,65.61,26.41,63.87,30.72,59.41Z"/><path class="cls-1" d="M49.77,39.47c.94,1.2,1,2,0,0C50.65,26.36,56.81,54.78,49.77,39.47Z"/><path class="cls-53" d="M50.78,41.47c3.54,1,0,0,2,6C51.19,47.63,50.2,48.44,50.78,41.47Z"/><path class="cls-53" d="M39.53,60.56c.19-1.45,0,0,2.27-3.09C40.59,58.72,46.35,62.65,39.53,60.56Z"/><path class="cls-10" d="M303.76,123.39c-1.17-2.2,58-18.17,94-7.56C394.23,115.14,395.25,122.49,303.76,123.39Z"/><path class="cls-51" d="M299,146.49c-1.85-1,7.1-13.8,51.61-6.91C345.49,144.82,351.63,147.35,299,146.49Z"/><path class="cls-51" d="M347.66,136.43c-32.61-6.91-9.76-12.9,53.1-4.76C399.32,131.47,381.12,138.43,347.66,136.43Z"/><path class="cls-89" d="M348.72,128.47c-10.84,6.63-74.08-15.17,11.26-1.93C356.94,129.25,359.7,128.77,348.72,128.47Z"/><path class="cls-51" d="M313.71,128.4c15.19,2.86,13.58,10.47-12.44,3.66C301.71,126.43,301.56,129.16,313.71,128.4Z"/><path class="cls-51" d="M307.63,136.43h7.78C313,138.64,310.4,138.63,307.63,136.43Z"/><path class="cls-51" d="M317.69,122.46c-.45.75,0,0-2,1C312.77,123.59,299.07,122.42,317.69,122.46Z"/><path class="cls-90" d="M340.6,99.33c-23.23,4.19-4.42-21.75,20.08-10.89C360,97.59,339.4,84.88,340.6,99.33Z"/><path class="cls-91" d="M398.64,79.42c15.66-.49,19.78,6.74-15.51,10.32C380.3,82.34,388.31,82.45,398.64,79.42Z"/><path class="cls-92" d="M424.65,77.43c15.46-5.88,22.91,2.44-7.26,7.47C418.09,82.34,417.91,84,424.65,77.43Z"/><path class="cls-69" d="M396.6,80.39c-3.43,3.2-7.68,3.15-12,3C387.76,78.92,392.51,81,396.6,80.39Z"/><path class="cls-50" d="M583.68,147.39c-1.68-11.5,12-18.56,18.12-5C590,124.05,585.45,218.9,583.68,147.39Z"/><path class="cls-85" d="M584.21,154.32c-1.54-.27,11.06,52.68-12.51,40.06C576.77,180.85,578.74,191.28,584.21,154.32Z"/><path class="cls-93" d="M598.67,157.58c-15,5.59-11.38-21.77,5.77-8.22C604.11,152.09,606.4,158.61,598.67,157.58Z"/><path class="cls-94" d="M583.68,147.39c2.79,21.79-19.89.5-5.13-16.92C579.69,133.47,580.51,135.17,583.68,147.39Z"/><path class="cls-50" d="M599.57,157.57c2.29-1.26,8.88.2,15.63,2.8C610.74,162.26,608,162,599.57,157.57Z"/><path class="cls-95" d="M110.76,223.36c-2.84-1.82,29.34,18.22-8,46.07C99.15,262.23,125.28,257.64,110.76,223.36Z"/><path class="cls-42" d="M29.49,54.5h0C35.55,58.51,20.83,58.55,29.49,54.5Z"/><path class="cls-96" d="M144.76,117.45c-100.46,38.32-11-20.69-57.5-34.86,1.47-2.43,5,.74,22.44-9.19,17.49,26.68,18,28-9,50.79C110,122.8,128.69,109.54,144.76,117.45Z"/><path class="cls-97" d="M144.76,117.42c1.06-23.26-34.58,4.15-26-35C120.43,78.66,167.31,94.55,144.76,117.42Z"/><path class="cls-98" d="M147.67,95.56c.31-7.66-.08-5,0,0C148.66,111.11,135.45,68.16,147.67,95.56Z"/><path class="cls-99" d="M413.58,57.36c-.9.59,5.38-.54,2.42,2.88C413.81,60.47,416,60.26,413.58,57.36Z"/><path class="cls-100" d="M22.72,53.53c7.17-2.37,11.93,18.88-.14,15.69C15.18,72,9.88,55.75,22.72,53.53Z"/><path class="cls-101" d="M17.87,55.58c-9,7.13,15.19,19.17-5.3,22.09C8,73.39,2.63,73.42,17.87,55.58Z"/><path class="cls-102" d="M7.72,73.62c.64,2.67,22.13,3.32,9.34,9.56C14.21,82.79,16.43,83.69,7.72,73.62Z"/><path class="cls-103" d="M572.73,194.21c35.17,17.64-39.19-3.72-28.71-32.38C547.17,162.06,541.46,163.07,572.73,194.21Z"/><path class="cls-104" d="M573.49,203.21c8.34-7.08,2.92,19.86-9.22,24.34C552,196.12,560.48,221,573.49,203.21Z"/><path class="cls-105" d="M548.61,100.26c-21.94.57-18.4,10.5-41.81,41.07C512.7,124.13,519.83,89.26,548.61,100.26Z"/><path class="cls-12" d="M446.65,69.47h0C445.92,70.41,436.6,72.44,446.65,69.47Z"/><path class="cls-106" d="M326.73,145.37c-7.81-1.29,113.13,4,87.87,12.6-32.56-1.2-15.2,5.32-41,6.85-1.38-19.06-80,11.21-70.29-19.18C308.91,157.56,307.66,151.25,326.73,145.37Z"/><path class="cls-107" d="M235.71,151.42c-7.5-1.19,128.56,13.57,94.7,18.39-20.38,3.27-43.35-.64-49.83-2.2.19.91-7.07-3.85-14.39-5-3.82,3.57,7.11,2.73-3,27.33C262.54,163.8,262.37,176,235.71,151.42Z"/><path class="cls-44" d="M303.67,156.48c-.05-3.44,65.54,11.47,21.85,7.61C323.31,162.38,297.52,164.08,303.67,156.48Z"/><path class="cls-108" d="M300.53,158.51c3.53,2,35.75,4.43,38,9C333.35,166.7,261.67,155.06,300.53,158.51Z"/><path class="cls-109" d="M299.69,146.42c-.69-2.21,2.63,13.41-1,4.73C298.76,151.76,297.76,147.81,299.69,146.42Z"/><path class="cls-110" d="M147.67,95.56c-11.75-24,13.66-12.62,10.9,13.27C152.77,121,150.79,134.74,147.67,95.56Z"/><path class="cls-111" d="M393.66,224.46c-10.17,7.87-57.49-74.56-21-53.06.54,7.11,9.84,73.95,28.14,12.92-2.49,46.24,3,50.2,12.18,2.24-.25,1.39-2,46.35,9.07,23.56-.56-1.21-13.59-32.15-1.38-23.19,12.93,43.58,9.66-5.68,26.09,9.91C439.8,203.08,436.54,237.81,393.66,224.46Z"/><path class="cls-112" d="M264.52,244.38c14.64,23-38.24,25.54-35.09,7.86C239.67,257.39,251.29,262.9,264.52,244.38Z"/><path class="cls-113" d="M123.68,280.22c14.55,1.06-12-18.47,23-8C155.4,278.61,132.53,281.68,123.68,280.22Z"/><path class="cls-114" d="M132.68,218.39c-4.51,8.58,10.86,11.22-9.93,60C118.82,281.17,121.84,275.55,132.68,218.39Z"/><path class="cls-115" d="M85.74,271.37c6.93,1.42,24.66,15.12.16,5.21C85.11,275.66,80,273.9,85.74,271.37Z"/><path class="cls-116" d="M234.7,254.38c-3.22-.94-7.78-1.86,5.8-19C238.19,238.91,246.73,244,234.7,254.38Z"/><path class="cls-117" d="M122.75,278.37c.33,0,9-20.53,4.24-3.06C127,276.72,127.73,279.3,122.75,278.37Z"/><path class="cls-115" d="M123.68,280.22h0C127,283.06,91.94,281.66,123.68,280.22Z"/><path class="cls-118" d="M393.66,224.46c-1.73,1.66-2,2.89,0,0C395.68,223.69,401.54,230.6,393.66,224.46Z"/><path class="cls-119" d="M106.71,269.33c6.14,4.25,23.63-16.58,14.06,1C122.36,269.88,115.47,283.06,106.71,269.33Z"/><path class="cls-120" d="M126.6,278.34c-4.28-4.2,14.21-5.44,4.52.87C130.37,278.75,129.79,280.88,126.6,278.34Z"/><path class="cls-121" d="M173.77,134.31h0C184.45,138.85,164,137.73,173.77,134.31Z"/><path class="cls-122" d="M227.67,176.42c-14.6-17.14,2.91-42,18.89-13.29C241.53,167.1,255.45,187.88,227.67,176.42Z"/><path class="cls-68" d="M132.68,218.39c-2.3,25-10.46,8.43,4-48C143.57,172,134.36,195.53,132.68,218.39Z"/><path class="cls-4" d="M187.77,142.37c2,3.06,4.12,3,0,0C186.3,141.84,214,146,187.77,142.37Z"/><path class="cls-123" d="M127.72,233.39c.79,31.1-24.52-54.15,1.05-30.68,2.52,24.34-9.14-17.17-7.79,12.32C124.39,226.93,127.36,203.65,127.72,233.39Z"/><path class="cls-124" d="M153.65,121.33c-1.64.77,5.91-26.3,6.63-9.84C157.51,111.75,164.93,116.13,153.65,121.33Z"/><path class="cls-76" d="M446.63,109.42c-20.69-32.33,87.88-6.67,17.45-9C482.61,96.59,497.74,109.24,446.63,109.42Z"/><path class="cls-85" d="M340.6,99.33C345.1,97.5,314.26,87.14,375,91,363.52,96.16,366.3,97.85,340.6,99.33Z"/><path class="cls-125" d="M95.75,109.43c-13.48,41.22,38.81-4.8,26.82,34.18,4-2.94-4.36-.54,22.16-25.19-9.18,20.21-17.13,44.65-38.81,17.63C88.72,145.93,82.59,154,95.75,109.43Z"/><path class="cls-126" d="M118.76,221.4c1.71-5,2.9,32.85-1.08,13.51C118,232.67,116.4,234.47,118.76,221.4Z"/><path class="cls-127" d="M489.69,121.36c16.22-5.44,1.08,27.31-38.85,22.6C444.86,145.1,433.31,108.3,489.69,121.36Z"/><path class="cls-128" d="M498.72,142.33c5.44-29.14,18.75,84,7.12,65.84-17-74.38-67.55-27.62-104.67-47.28C424.06,151.8,488.65,181.66,498.72,142.33Z"/><path class="cls-129" d="M446.63,109.42c19.95-8.37,47.68,1.66,18.74-11,41.8,1.68-8.61-5,17-4.35C534.33,99.8,477.13,121.86,446.63,109.42Z"/><path class="cls-130" d="M498.72,142.33c16,17.86-63,23.1-41.57,7.71C473.63,165.1,512.6,111.39,498.72,142.33Z"/><path class="cls-131" d="M502.53,128.53c-.21,22.17-71.89,22.23-27.76,12.16C484.35,145.23,477.75,122,502.53,128.53Z"/><path class="cls-132" d="M446.61,109.4c48.29,21.13,37.7-7.66,1,23.34C445.61,137,445.13,134.1,446.61,109.4Z"/><path class="cls-133" d="M507.24,180.71c-7.05.82-4-39.48,2.23-30.78-13.67,18.67,30,11.77,20,20.79C479,172.55,561,179.41,507.24,180.71Z"/><path class="cls-134" d="M508.75,147.46c-4.09-17.36,20.75-.55,9.64,5.25C516.07,152.48,514,152.39,508.75,147.46Z"/><path class="cls-135" d="M498.63,111.43c2.15-6.1-1.26-14.14,11.9-3.76C508.12,107.87,506.34,108.27,498.63,111.43Z"/><path class="cls-136" d="M514.62,97.44c-3-.45,16.9-4.5,8,3.18C522.11,98.9,518.76,105.56,514.62,97.44Z"/><path class="cls-135" d="M514.62,97.44c17.15,4.31-19.78,6.66-5,2.08C510.93,91.33,507.61,102.53,514.62,97.44Z"/><path class="cls-137" d="M503.53,126.23c.05-4.06-2.87-4,0,0C505.16,129.39,487.47,126.15,503.53,126.23Z"/><path class="cls-135" d="M497.66,103.37c-1,.89-8.15-3.76,1-2C498.91,101.89,495.11,100.8,497.66,103.37Z"/><path class="cls-138" d="M576.56,132.47c-7,8.56-40.29,59.86-17.51-8.25C563.08,125.47,555.82,129.9,576.56,132.47Z"/><path class="cls-139" d="M543.53,109.34c-4.46-14.41,22.61,3.6,10,3-17.45-17.73,2,42.08-12.8,36.64C541.89,142.57,527.12,144.44,543.53,109.34Z"/><path class="cls-140" d="M546.47,106.71c4.81.45,27.32,10.35,3.52,19.06C545.63,124.75,545.11,118.92,546.47,106.71Z"/><path class="cls-141" d="M535.6,123.44c-3.81-5.51,13.54,43.61.71,22.1C533.88,139.41,521.91,102.77,535.6,123.44Z"/><path class="cls-142" d="M533.64,122.42c-.47-6.25-15-7.76-3.06-17C525.07,116.05,539.25,101.92,533.64,122.42Z"/><path class="cls-143" d="M562.77,130.38c4.1-2.34,5.83-4,0,0C555.65,132.92,559.46,104.8,562.77,130.38Z"/><path class="cls-144" d="M564.38,118.6c5.21,3.31-10.62,6.69-3.35-7.82C563.33,111.43,560.62,111.82,564.38,118.6Z"/><path class="cls-145" d="M562.77,130.38c0-2.59.4-4.42,5.83-4C568.81,129.45,573.44,133.18,562.77,130.38Z"/><path class="cls-140" d="M543.19,109.34c-.74-2.1,1.82,12.07-1.81,5.56C540.46,112.77,536.62,111.63,543.19,109.34Z"/><path class="cls-146" d="M358.68,127.43c-47-2.27,9.41-18.78,48.48-2.14C406.12,130.77,404.77,129.38,358.68,127.43Z"/><path class="cls-147" d="M402.64,129.45c-.26,2.58,2.09-28.56,27,.93C424.28,130.05,428.19,131.09,402.64,129.45Z"/><path class="cls-148" d="M424,117.69c5.86.84,6-1.35,0,0C402.48,122,391.1,99.08,424,117.69Z"/><path class="cls-149" d="M445.23,123.36c12.21,15.19-12.27,50.94-18.46,29.74,7.76-2.07,9.29-8-8.58-8.48C445.88,155.75,426.1,68.33,445.23,123.36Z"/><path class="cls-146" d="M424.65,143.41c5.72,3.45-38.18-15.79-11.94-13.94C413.48,135.81,443,130.63,424.65,143.41Z"/><path class="cls-150" d="M420.74,104.37c-.55-1.12-1.74-2-1.07-6C419.62,96,436.75,104.86,420.74,104.37Z"/><path class="cls-16" d="M429.62,130.39c2.67-2.07-13.61-9.29-1.75-7.57C426.1,124.43,434.29,123.61,429.62,130.39Z"/><path class="cls-151" d="M418.64,142.36c-20.11,11.19-15.61,12.1-66.77,4.87-5.58-1.87-15.7-3.81,3.74-4,24.21-3.62,18.76,6.22,47-13.77C406,135.68,402.32,139.87,418.64,142.36Z"/><path class="cls-109" d="M326.73,145.43c-1-2.63-25.54,19-21.89,3.84C301.39,142,297.22,145.71,326.73,145.43Z"/><path class="cls-152" d="M364.66,143.4c-6.29,6.71-34.22-8.61-5.4-8.87C361.81,134.72,356.82,133.91,364.66,143.4Z"/><path class="cls-146" d="M364.66,143.4c-12.75-17,65.34-12.64,24-2C383.79,141.76,390,140.34,364.66,143.4Z"/><path class="cls-152" d="M358.68,127.43c-1.1,1.19,50.2-4,37.66,3C391.24,129.77,332,134.55,358.68,127.43Z"/><path class="cls-146" d="M358.67,127.43c-.18,2.2,0,0-3.25,1.85C352.36,128.15,345.27,126.64,358.67,127.43Z"/><path class="cls-153" d="M574.71,143.41c7.14,10.86,17.23,10,3.06,45.28C576.26,175.88,579.93,187,574.71,143.41Z"/><path class="cls-154" d="M577.7,181.39c5,19.59-30.61-.56-12.87-13.23C569.62,170.89,581.16,161,577.7,181.39Z"/><path class="cls-155" d="M577.58,169.44c.83,3.95-32.26-13.35-4.85,24.77C549.18,182.91,548,140.78,577.58,169.44Z"/><path class="cls-156" d="M574.71,143.41c-2.17,2.93-23.8,16.22-9.2,1.92C566.88,144.51,574.44,127.35,574.71,143.41Z"/><path class="cls-157" d="M118.81,242.33c-1.7-22.37,17.88,1.88,5,20.12C122,253.36,112.72,260.3,118.81,242.33Z"/><path class="cls-158" d="M117.88,253.35c11.08.22,1.58,28.6-9.11,14.09C111.49,256.52,121.58,270.54,117.88,253.35Z"/><path class="cls-159" d="M114,260.16c-2.72,1.11-1-9.53,3.91-6.82C117.49,256,117.94,257.59,114,260.16Z"/><path class="cls-160" d="M128.75,104.44c24.3,2,23.57,15.67-30.55,17.92C103.07,111.76,99.36,118.69,128.75,104.44Z"/><path class="cls-97" d="M143.72,119.41c-4.48,1.53-34.31,51-19,8.24C87.66,131.55,105.22,127.35,143.72,119.41Z"/><path class="cls-160" d="M148.83,102.34c1.49,3.27.67,6.72.75,10.1C147.81,109.18,148.92,105.71,148.83,102.34Z"/><path class="cls-161" d="M25.09,61.85c1.14.39,3.07,2.32-1.61,2.84C22.5,64.33,20.45,62.79,25.09,61.85Z"/><path class="cls-162" d="M560.6,150.4c31,17.73-13.79,2.33-3.94,24,8.8,13.59-21.24-9.1-13-22.88C551.07,99.68,545.9,173.91,560.6,150.4Z"/><path class="cls-154" d="M573.49,203.21C567.27,221,560.36,216,553.72,188.86,550.79,187.11,560.26,173.16,573.49,203.21Z"/><path class="cls-163" d="M554.77,183.5c-2,24.69,2.45-14.24-47.31-10.2-.44-5.87,43.34-4.78,12.72-7-29,1.19,17.17-4.74,23.46-14.86C543.61,159.71,536.62,171.48,554.77,183.5Z"/><path class="cls-163" d="M545.59,163.45c3.21-1.48,7.31,5.28.32,5.94C546,167.72,547.25,168.3,545.59,163.45Z"/><path class="cls-164" d="M547.54,185.52c26.28,3,3.05,90.61-4.28,33.58C561.85,239,560.53,227.63,547.54,185.52Z"/><path class="cls-165" d="M557.75,204.3c-5.65-14.76-1.73-19,5,9.06C561.29,211.82,560.42,210.34,557.75,204.3Z"/><path class="cls-166" d="M539.69,150.33c-9.81,17.46-19.79-21.1-17.2-24.77C513.05,124.82,524,83.88,539.69,150.33Z"/><path class="cls-167" d="M521.64,129.48c12.24,14.42-16.4,26.18-6-1.07C518.42,128.06,515.91,128.16,521.64,129.48Z"/><path class="cls-168" d="M518.67,123.35c-4,2.17-3,5.06,0,0C524.37,122.78,538.23,131.22,518.67,123.35Z"/><path class="cls-169" d="M396.56,163.3c21.34-6.25,154.35,6.69,74.14,11.64-47.62-4.58,11.49,35.42-58.94,6.51-.87,2.53-3.21,61.6-3.26,26.52,8.62-47.93-41.24,1.82-27.86-20.59,32.21-23-26.57-9.19-26.49-25.25C362,161.16,358.92,163.39,396.56,163.3Z"/><path class="cls-170" d="M396.56,163.3c-1.52-5.33-32.83-2.63-6.89-6.48,21.31-4.67,53.41,11.28,60.94-13.42-.18,12.78,6.18,14.71,43,13.89C507,166.62,431.06,160,396.56,163.3Z"/><path class="cls-108" d="M338.55,157.27c2,2,35.4-7.9,31.1,5.11C356.05,155.21,347,180.53,338.55,157.27Z"/><path class="cls-151" d="M424.66,144.43c11.77-.23,9.34,15.5-17,8C411.11,147.58,413.2,155.25,424.66,144.43Z"/><path class="cls-171" d="M419.65,154.37c10.6-3.57,5.63-9.31,13.81-9.14C434.83,151.7,436,156.34,419.65,154.37Z"/><path class="cls-108" d="M332.7,161.36c-13-2.73-28.54-5.13,6.11-3.81C339.16,160,339.37,161.9,332.7,161.36Z"/><path class="cls-172" d="M378.68,157c.46.82,9.4,6.33-1.55,5.32C376.49,162.84,373.07,158.11,378.68,157Z"/><path class="cls-173" d="M281.8,173.61c-2.6,8.77,2.71,86-10,33.6-1.51-3.5-18.08-76.16,5.27-39.85C276.12,157.67,285.77,155.75,281.8,173.61Z"/><path class="cls-174" d="M268.44,179.62c-2.23,44.62,7.38,70.18-24.71-10.22,2.6-17.75,8.66,29.92,18.81-2.65C264.8,172,264.75,204.2,268.44,179.62Z"/><path class="cls-175" d="M258.7,165.41c-7.32-.19-11,0,0,0C270.16,175.79,249.62,192.41,258.7,165.41Z"/><path class="cls-176" d="M298.69,169.39c-3.28,2.07-19.91-6.47-6.42-7.8C303.59,162.93,291.59,167.8,298.69,169.39Z"/><path class="cls-177" d="M362.6,173.55c-3.75-1.76.58,1.26-24.07-6C344.49,170.91,345.45,158.18,362.6,173.55Z"/><path class="cls-178" d="M268.44,179.62c1.38-3.28-.11,23.64-2.78,3.78C264.91,183.82,266.65,170.57,268.44,179.62Z"/><path class="cls-108" d="M338.47,168.16c-4-.09-5.92.12,0,0C353.61,170.65,304.42,169.15,338.47,168.16Z"/><path class="cls-174" d="M267.51,175.74c-.92-1.3-1.82-1.34,0,0C263.9,178,265.08,190,267.51,175.74Z"/><path class="cls-179" d="M343.64,167.47c-5.72-.32-13.1-11-3-8.08C336.64,161.56,352.83,163.5,343.64,167.47Z"/><path class="cls-180" d="M243.72,169.4c8.42,18.16,24.25,128.46-16,7C226.32,175.39,245.06,185.56,243.72,169.4Z"/><path class="cls-181" d="M237.67,190.36c1.39-12.7,15,33.79,7.64,57.27C241.66,243.92,240.47,250.83,237.67,190.36Z"/><path class="cls-182" d="M237.67,190.36h0C243.15,192.89,235.69,208.28,237.67,190.36Z"/><path class="cls-183" d="M378.71,196.42c1.08,1.79,37.88-46,10.89,17.82C388.48,211,380.31,210.59,378.71,196.42Z"/><path class="cls-184" d="M372.93,169.53c1.15,1.16,41.83-5,3.66,23.66C375.79,189.38,367.93,189.24,372.93,169.53Z"/><path class="cls-185" d="M417.64,183.7c-7.84-11.18,35.63,1.24,12.43,25.27C425.24,208.46,427.19,204.63,417.64,183.7Z"/><path class="cls-183" d="M402.69,189.4c6.53-16.18,6.86,15.93,4.67,31.88C393.92,221.58,390.67,219,402.69,189.4Z"/><path class="cls-186" d="M411.76,181.45c.12,6.32,26.05,33.59.69,38.55C410.26,211,411.81,198.82,411.76,181.45Z"/><path class="cls-187" d="M427.78,209.14c2.72,3.14,13.3-24.86,8-4C435.27,207,434.4,208.64,427.78,209.14Z"/><path class="cls-169" d="M371.78,171.63c-3.51,1.43-3.94,3.27,0,0C369.68,170,374.2,180.44,371.78,171.63Z"/><path class="cls-188" d="M405.55,226.51l-8.89,1.86C397.79,224.69,395.52,225.89,405.55,226.51Z"/><path class="cls-189" d="M266.67,211.41c-1.78-24.46,16.09,10.48,8,25C274.25,236.11,264.32,238,266.67,211.41Z"/><path class="cls-190" d="M266.67,211.41c3.54,19.54-1.33,30.94-6.87,25.41C253.32,241.66,249.06,237.89,266.67,211.41Z"/><path class="cls-191" d="M255.77,237.38c2.56-14.4,19.68,11.5-4.07,22C246.14,251.17,244.68,257.27,255.77,237.38Z"/><path class="cls-192" d="M239.75,235.44c5.47,4.61,9.52,24.63-8.71,22C237,249.88,239.72,255.65,239.75,235.44Z"/><path class="cls-193" d="M235.81,258.33c0,1,7.36-12.56,11.83-8.76C247.67,257.11,249.54,261.2,235.81,258.33Z"/><path class="cls-52" d="M125.78,259.4c6.41-4.07-7-29.28.27-23.51C124.35,237.89,137.2,240.16,125.78,259.4Z"/><path class="cls-52" d="M123.79,262.45c2.25-.66,2.3-1.9,1.34,4.43C122,268.94,118.72,273.77,123.79,262.45Z"/><path class="cls-194" d="M127.71,213.37c-5.16,20.94-14.36,4.32-5.25-12C126.92,202.49,128,201.56,127.71,213.37Z"/><path class="cls-138" d="M451.76,151.56c-7.32-16.55,15.4,6.34,44.86-15C493.45,136.69,508.71,153.32,451.76,151.56Z"/><path class="cls-138" d="M450.65,143.45c-5.89,4.56-4,20.54-3.12-1.95C448.35,141.59,449.32,141.21,450.65,143.45Z"/><path class="cls-195" d="M513.57,214.41c-13.33-10.11,9.21-40.09,22.71-30.46-1.36,3.59-3.39-5.24-21.07,24.13C523.06,210.6,528.93,243.59,513.57,214.41Z"/><path class="cls-196" d="M513.57,214.41c.25,10.34,32.83,28.48,18.12,26.87C523.1,246.56,488.2,191.09,513.57,214.41Z"/><path class="cls-133" d="M509.65,191.41c.76-5.85.35-3.88,0,0C504.5,198.23,505,173.21,509.65,191.41Z"/><path class="cls-128" d="M493.6,157.3c-4.72-.32-9.5.49-14.18-.78C484.15,156.72,489,155.48,493.6,157.3Z"/><path class="cls-127" d="M473.6,147.37c-1.39-.26-2.11.68-2.93-2.25C471.27,144.78,475.63,143.41,473.6,147.37Z"/><path class="cls-197" d="M511.77,137.79c.15.66,59.74,41.31-4.13,24.63,22.87-8.37,9.4,7.61.94-13C515.42,146.89,529.67,158.06,511.77,137.79Z"/><path class="cls-198" d="M509.65,191.41c-4.75-10,4.45-17.48,21.87-12.11C527.73,177.9,511.67,214,509.65,191.41Z"/><path class="cls-199" d="M531.52,179.3c-15-1.9,8.2-19.77,15.59,12.47C534.81,198.32,538.75,192.6,531.52,179.3Z"/><path class="cls-200" d="M533.6,170.43c-1.65,1.91-4.52,14-25,3C509.19,171.29,511.51,170.61,533.6,170.43Z"/><path class="cls-201" d="M508.59,149.4c1.34,11.9,1.71,3.2,18.5,10.68C522.64,162.11,501.58,168.72,508.59,149.4Z"/><path class="cls-202" d="M554.6,143.4c-9.43,10.88,3.95-32.69,6.11-22.88C558.59,127.52,557.33,129.49,554.6,143.4Z"/><path class="cls-162" d="M565.52,145.33a12.32,12.32,0,0,1-4.92,5.07C560.54,147.07,562.24,145.43,565.52,145.33Z"/><path class="cls-203" d="M547.77,130.75c-3.11,46.09-5.12-35.19-.78-17C541.37,122.22,562.62,131.93,547.77,130.75Z"/><path class="cls-204" d="M536.68,129.51c3,1.61,4.46-.06,0,0C531.74,128.46,541.84,118.21,536.68,129.51Z"/><path class="cls-139" d="M550.72,125.24c11-13.69.34,28.58-3.37,21.65C544.07,136.36,554,131.88,550.72,125.24Z"/><path class="cls-205" d="M424.66,144.41c-4.81,6.7-3,10.36-35.31,1.4C396.77,144.19,409.94,144,424.66,144.41Z"/><path class="cls-206" d="M418.64,142.36c-10.74,6.82-24.26-21.7-7.88-5.33C410.4,138.46,426.77,136.41,418.64,142.36Z"/><path class="cls-106" d="M368.67,143.44c3.78.91,11.32-2.12,17.3,1.82C383.24,143.61,377.78,148.48,368.67,143.44Z"/><path class="cls-94" d="M569.61,161.4c-7.6,5.14-3.31-42.88,9,1C576.19,163.11,577.13,164.5,569.61,161.4Z"/><path class="cls-85" d="M577.43,162.53c6.31-6.32-1.43,37,.15,6.92C578,167.71,577.66,169.44,577.43,162.53Z"/><path class="cls-207" d="M577.43,162.53c3.94,3.94-21.46,3.56-14.65,0C566.33,162.63,561.65,162,577.43,162.53Z"/><path class="cls-208" d="M556.66,174.35c-1.88-2.34-2.14-3.89,0,0C556.52,181.47,546.89,164.76,556.66,174.35Z"/><path class="cls-162" d="M566.51,148.4h0C566.54,148.77,570.27,154.8,566.51,148.4Z"/><path class="cls-209" d="M122.63,251.55c5.21-1.05,5-3.33,0,0C119.67,255.51,117.33,237.93,122.63,251.55Z"/><path class="cls-210" d="M114,260.16c2.44-8.3,13.74,2.2,3.41,5.87C117.06,264.41,115.18,267.2,114,260.16Z"/><path class="cls-211" d="M533.55,157.52c.55,1.82-29.33-29.31-7.86-12.26C524.5,146.94,540.52,153.1,533.55,157.52Z"/><path class="cls-212" d="M549.5,188.67c-.24,7.12,12.51,24,9.16,38.73C550.5,226.11,543.05,227.87,549.5,188.67Z"/><path class="cls-213" d="M549.5,188.67c-2.09,35.86,1.65,23.58-6,47.58C542.61,228.26,536.85,193.22,549.5,188.67Z"/><path class="cls-105" d="M515.63,128.41c-2.11,2.13,16.59-4,11.36,1.18C524.6,129.29,527,130.34,515.63,128.41Z"/><path class="cls-214" d="M438.65,187.42c3.53-2.32,4.1-4.16,0,0C420.27,180.88,430,161,438.65,187.42Z"/><path class="cls-111" d="M407.52,219.4c1.4-2.46-3.59-39.2,1.13-34.53C407.42,191.05,413.14,207.42,407.52,219.4Z"/><path class="cls-215" d="M438.65,187.42c5.2-9.36,9-14.38-14.31-11.49C425.63,171.67,462.37,174,438.65,187.42Z"/><path class="cls-106" d="M349.71,165.45c-13.25-4.89,34.43-3.08,12.5-1.85C361.24,164.78,358.66,161.34,349.71,165.45Z"/><path class="cls-216" d="M391.67,162.4h0C386.31,158.32,410.22,153.88,391.67,162.4Z"/><path class="cls-217" d="M359.61,162.33c-.3-1.84-3.63,4.2-5.41-3.35C357,158.07,359.62,155.14,359.61,162.33Z"/><path class="cls-218" d="M364.67,162.41c.09-1,0-1.49,0,0C362,166.08,361.34,152.8,364.67,162.41Z"/><path class="cls-108" d="M342.35,169.54a21,21,0,0,1,12.31,1.93A48.41,48.41,0,0,1,342.35,169.54Z"/><path class="cls-219" d="M263.64,221.46c-5.86,4.16-8.43,15.29-9-27.07-2,3.05,13.46,10.92,4.4-.1C252.82,183.14,269.87,197.94,263.64,221.46Z"/><path class="cls-220" d="M251.78,201.48c6,2.8,11.06,43.82-4.14,48.1C241.86,238.32,250.35,253.21,251.78,201.48Z"/><path class="cls-181" d="M250.64,211.41l-.06,17A30.88,30.88,0,0,1,250.64,211.41Z"/><path class="cls-221" d="M543.48,229.38c5.1,4.9-13.9,13.19-11.42-4.21C533.9,226.79,535.2,228.28,543.48,229.38Z"/><path class="cls-154" d="M535.45,183.65c1.69.77-2.18,58.74-15.94,33.35C521.81,213.3,500.54,214.29,535.45,183.65Z"/><path class="cls-222" d="M525,225.22c5.27-4.79,11.65-48.84,18.53-32.68C543,202.66,522.46,247,525,225.22Z"/><path class="cls-223" d="M531.39,187.27c-1.48,5.13-19.51,18.38-4.8.78C525.68,190,532.62,177.08,531.39,187.27Z"/><path class="cls-224" d="M515.85,205.6l-1.26,2.82C513.56,208.8,509,202.93,515.85,205.6Z"/><path class="cls-225" d="M550.72,125.24c.12-.57,4.71,1.82.69,4.23C550.61,129.47,542,126.8,550.72,125.24Z"/><path class="cls-226" d="M254.7,194.39c.06-3.73,18,2.64,3.47,7.49C256.3,201.42,256.4,202.09,254.7,194.39Z"/><path class="cls-227" d="M542.75,192.18c-3.82,4.71,7.51,14.53-4.54,32.22C528.25,225.24,540.16,196.22,542.75,192.18Z"/><path class="cls-195" d="M523.7,230.23c.09.09.08.09,0,0C521.18,226.81,535.87,230.31,523.7,230.23Z"/></g></g></svg>