<svg xmlns="http://www.w3.org/2000/svg" viewBox="0 0 63.49 107.6"><defs><style>.cls-1{fill:#474b4c;}.cls-2{fill:#0d0a09;}.cls-3{fill:#3d3535;}.cls-4{fill:#3d3531;}.cls-5{fill:#252826;}.cls-6{fill:#0e0c0b;}.cls-7{fill:#252727;}.cls-8{fill:#494f50;}.cls-9{fill:#28231f;}.cls-10{fill:#dda88d;}.cls-11{fill:#0d0c0c;}.cls-12{fill:#11100c;}.cls-13{fill:#99716a;}.cls-14{fill:#a9aa9e;}.cls-15{fill:#d8cfb2;}.cls-16{fill:#73472f;}.cls-17{fill:#603f2a;}.cls-18{fill:#b9826f;}.cls-19{fill:#4b4337;}.cls-20{fill:#37372f;}.cls-21{fill:#535350;}.cls-22{fill:#3c342f;}.cls-23{fill:#30281b;}.cls-24{fill:#1a1a12;}.cls-25{fill:#37372e;}.cls-26{fill:#e7d8c3;}.cls-27{fill:#cacac1;}.cls-28{fill:#2b2b28;}.cls-29{fill:#251f1d;}.cls-30{fill:#c6a698;}.cls-31{fill:#9b9588;}.cls-32{fill:#beb7ae;}.cls-33{fill:#4a4b49;}.cls-34{fill:#474645;}.cls-35{fill:#2c110c;}.cls-36{fill:#070905;}.cls-37{fill:#3c332e;}.cls-38{fill:#76746f;}.cls-39{opacity:0.2;}</style></defs><title>Asset 8</title><g id="Layer_2" data-name="Layer 2"><g id="Layer_1-2" data-name="Layer 1"><path class="cls-1" d="M35.8,18.7c2.94-.07,5.88-.31,8.81-.19,5.26.2,10.06,5,9.28,9.11-4.73,4.67-7.91,5.14-14.69,2-.92,2.62-2.16,5.08-4.67,6.57-2.14,1.08-3.27,3.37-5.37,4.51a5.46,5.46,0,0,1-4.2.78c-.47-.16-1.15-.34-1.23-.72-.79-3.71-3.07-6.93-3.72-10.89-1.14,1.05-2.4,2.23-4.22,2.19a27.83,27.83,0,0,1-6.59-2c-3.34-1.45-2.71-2.84-.54-5,3.66-3.63,7.79-5.19,12.86-4C26.65,22.5,31.53,22.37,35.8,18.7Z"/><path class="cls-2" d="M42.86,56.49Q52.43,71.82,62,87.17c.95,1.54,2.4,3.87.75,4.86-2,1.19-3.87-.73-5-2.69-2.7-4.54-5.35-9.12-8.12-13.62-.73-1.19-.91-3-2.77-3.2-2.82-1.34-3.07-4.59-4.93-6.62-1.14-1.25-1.19-3.66-3.65-3.49-1.7,2.26-.88,4.64-.41,7,.53,2.67.8,5.3-2.34,6.72a2.46,2.46,0,0,1-2.15-.71c-2-4.62-1.62-9.6-2.09-14.43a4.54,4.54,0,0,1,2.37-4.54c2.3-.53,4.36-2,6.86-1.81C41.66,54.76,42.24,55.64,42.86,56.49Z"/><path class="cls-3" d="M37.84,60.52c6,1.72,7,7.21,9,12,.42,1.41.78,2.84,1.25,4.23,1.82,5.37,1.19,6.67-4.3,8.74a2.48,2.48,0,0,1-2.5.49c-3.52-2-2.09-5.74-2.4-8.56C38.26,71.83,35.85,66.28,37.84,60.52Z"/><path class="cls-4" d="M19,85.52c-1.63-1.08-3.24-2.18-4.89-3.24a1.82,1.82,0,0,1-.65-2.9c5-7.8,4.84-17.12,7.38-25.65.22-.77.51-1.52.76-2.27,3.42-1.16,3.82.9,3.8,3.51s-.47,5.59,2.13,7.59c.82,1.74.89,3.4-.52,4.89-1.31,1.07-2-1.1-3.24-.57C22.43,72.8,23,79,20.86,84.75A1.78,1.78,0,0,1,19,85.52Z"/><path class="cls-5" d="M15.82,31.47c2.25-1.2,3.64-3.34,6.07-5.77.49,4.2-2.13,9.61,4.79,10.23-4.12.94-3.64,2.74-1.69,4.92A5.64,5.64,0,0,1,27,45.16c.07,1.36-.09,2.77-1.32,3.52-1.53.92-2.82.28-3.76-1.15-.33-3.09-.67-6.17-1-9.26A22.31,22.31,0,0,0,15.67,37l-1.59,6.68c-2.43.3-2.4-1.59-2.8-3.1,1-3.59-2.29-4.35-4-6.15-1.43-2.77.86-3.33,2.45-3.22C11.74,31.31,13.84,30.56,15.82,31.47Z"/><path class="cls-6" d="M22,47.53c2.61.76,4.76.94,3.41-2.9A6.84,6.84,0,0,1,25,40.84l3.81-1.39c2.55-.14,2.69,1.71,2.92,3.49-1.23,3.05-1.42,5.91,1.55,8.18a4.16,4.16,0,0,1,.5,1.28c.11,1,0,2.35-.86,2.7-3.44,1.37-4.08,4.92-6.09,7.37-2.44.28-3.09-.41-3.28-3.2-.18-2.51,3.35-6.5-1.95-7.81C21.42,50.12,20,48.67,22,47.53Z"/><path class="cls-7" d="M33.83,35.51c2.35-2.63,4.74-5.25,2.87-10,5.85,5.76,11.43,5,17.19,2.08a2.23,2.23,0,0,1-.18.88c-1.87,2.92-.49,6.88-3,9.6-2.32.67-4.14-.85-6-1.64-3.2-1.35-5.41-1.06-6.58,2.5a3.59,3.59,0,0,1-2.75.58C33,38.87,33.2,37.27,33.83,35.51Z"/><path class="cls-8" d="M15.82,31.47a20.21,20.21,0,0,1-6.77,1.08c-1.37-.07-1.74.59-1.18,1.81,2.66.72,4.2,2,2.3,4.85a2.59,2.59,0,0,1-1.49,1.53c-1.56-3.33-4.33-6.59-3.89-10.19.69-5.69,6.86-10.37,12.68-10.68,1.44-.08,2.94.56,4.23-.56,3,.92.26,2.12.16,3.19C15.45,19.6,11.66,24,7.48,27.59,10.47,28.68,13.45,29.43,15.82,31.47Z"/><path class="cls-9" d="M42.86,56.49l-1.93-1A7.48,7.48,0,0,1,38.41,51c.05-.22.12-.44.18-.66a4.07,4.07,0,0,1,1-.93c5.72-2.23,10-7.24,16.12-8.66a2.18,2.18,0,0,1,2,1.79c.64,2.73-.26,4.14-3.15,4.91a39.44,39.44,0,0,0-9,3.79C43.82,52.26,42.18,53.92,42.86,56.49Z"/><path class="cls-10" d="M34.67,9.45l-.94,2.24c-1.17,3-3,4.39-6.15,2.55a13.73,13.73,0,0,1-2.7-2.84c-3.29-3.57-3.06-5.15,1.06-8C32.11,2,32.38,2.16,33,8,33.06,8.72,34.55,8.42,34.67,9.45Z"/><path class="cls-11" d="M19,85.52l.9-.93c4.12-.54,4.18,2.76,5.06,5.32,0,4.11-1.92,7.4-4.34,10.5a3.23,3.23,0,0,1-3.92.08C16.58,95.37,18.35,90.53,19,85.52Z"/><path class="cls-12" d="M41.82,85.52l2,0q1.08,5.43,2.14,10.85c.69,2.21.64,4.18-1.68,5.46-4.5-3.33-6.61-7.69-5.73-13.35A5.48,5.48,0,0,1,41.82,85.52Z"/><path class="cls-13" d="M21.86,22.5c-.39-1.05,1.28-2.19-.16-3.19.79-1.4,2.38.25,3.25-.86,2.14-1.26,4.46-1.25,6.83-.94.8,2.2,3.06-.47,4,1.19.23.84.45,1.69.67,2.53-4.77-.41-8.94,6.5-14.14,1.18C22.27,22.35,22,22.46,21.86,22.5Z"/><path class="cls-14" d="M48.09,107.29c-10.18.27-20.36.53-30.54,0-.48-1.42.24-2.26,1.39-2.9,8.3-1.62,16.62-1,25-.29a9.14,9.14,0,0,1,1.61.37C46.66,105.13,47.87,105.75,48.09,107.29Z"/><path class="cls-15" d="M57.73,42.57,56,41.42c-1.24-.34-2.64-.41-3.15-1.94a4.73,4.73,0,0,1,.06-3.15c.6-1.3,1.31-2.42,3-1.8l2.78,1.11c1.84.75,3.14,2,3,4.11C61.52,42.2,59.66,42.49,57.73,42.57Z"/><path class="cls-16" d="M31.78,17.51c-1.91,3-4.38,1.88-6.83.94l-2.14-3c-.06-3,.09-3.2,1.89-1.83,1.35,1,2.05-1.91,3.15-.18,2.4.92,4.26,0,5.88-1.72C34.23,14,32.55,15.61,31.78,17.51Z"/><path class="cls-17" d="M34.67,9.45c-.72-1.06-2.94.82-2.57-.55,2.12-7.88-3.48-4-6.28-4.33-1.39-.23-3.25.26-3.27-2.1C29-3.06,35.11,1.33,34.67,9.45Z"/><path class="cls-18" d="M22.55,2.47c.5,1.61,2.81.42,3.27,2.1-1.66,1.66-4.78,3.18,0,5,1,.38,1.34,2.5,2,3.82-1.47.2-2.75,2.43-4.54.19-.32-.4-.36,1.16-.49,1.82C22.21,11.11,19.5,6.85,22.55,2.47Z"/><path class="cls-19" d="M8.6,61.14c-2.29,1.76-5.33,1-7.76,2.26L0,62.24C2.47,60.57,1.74,55,6.87,56.56a1.85,1.85,0,0,1,2.25,1.13C8,58.69,8.86,60,8.6,61.14Z"/><path class="cls-20" d="M18.6,105.44l-1.05,1.85c-3.11-.33-6.39.67-9.52-1.17,3.79-.73,8.55.31,8.66-5.63a2.8,2.8,0,0,1,3.07,0C21.41,102.61,20.22,104.08,18.6,105.44Z"/><path class="cls-21" d="M55.9,34.53l-2.08,2c-.83,1.11-1.65,2.22-3.08.7-1.27-3.69-.69-6.75,3-8.77C53.75,30.76,57.4,31.71,55.9,34.53Z"/><path class="cls-22" d="M8.68,40.74c.07-.7.15-1.4.23-2.1,1.64-1.57,2.7-.32,3.81.76.19,1.5-.25,3.2,1.36,4.24-.27,1.22.31,3.87-1.47,3-1.2-.6-4.84.05-4-3.45A11.55,11.55,0,0,0,8.68,40.74Z"/><path class="cls-23" d="M9.12,57.69,6.87,56.56c-1.08-2-2.18-4-.07-6a1.45,1.45,0,0,1,1.78,1.1C12,53.39,12.27,55.39,9.12,57.69Z"/><path class="cls-24" d="M48.09,107.29c-.72-.65-2.16-.36-2.29-1.77,0-1.7.79-1.69,2-1,2.25,2.35,5.35-.1,8,1.57C53.38,108.13,50.52,106.57,48.09,107.29Z"/><path class="cls-25" d="M47.77,104.5a2,2,0,0,0-2,1,2.19,2.19,0,0,0-.73-.29c-1.53-.93-2.19-2.1-1.09-3.78a7.44,7.44,0,0,0,1.93-5.11A25.71,25.71,0,0,1,47.77,104.5Z"/><path class="cls-26" d="M8.58,51.68,6.8,50.58c-.61-1.44-.43-2.54,1.25-3.06.81-.26,1.76-.52,2.14.42C10.85,49.6,9.7,50.67,8.58,51.68Z"/><path class="cls-27" d="M15.67,37c2-.37,4.43-2.78,5.28,1.31C18.82,39.31,16.92,39.46,15.67,37Z"/><path class="cls-28" d="M33.83,35.51c1.5.61-.08,2.29,1.06,3,1,1.13-.19,2.42.29,3.6-.13,2,3.3,4.17-.33,5.94C32.06,47.78,31,46,30.78,43.44a5.5,5.5,0,0,0-2-4C30.59,38.28,31.18,35.58,33.83,35.51Z"/><path class="cls-29" d="M41.82,85.52c-.64,1-1.28,2-1.93,3-7.74,1.81-8.91.86-9.09-7.18,0-1.53.65-3.3-1-4.57,2.78,7.51,1.1,11-6.09,12.76a8.28,8.28,0,0,0-3.81-4.92c1.11-6.68.83-13.57,3-20.09,1.54.35,1.81,1.91,2.72,2.85,2-1.23,1.12-3.18,1.24-4.88-1.26-2.08,1.46-3.88.32-6.15-.59-1.18.77-1.52,1.89-1.18,2.35.7,3.45-.4,3.76-2.62,1.48-1.25,2.83-1,4.09.33,1.14,2.2-.82,3.16-1.82,4.51-3.53,1.14-2.33,4-1.92,6.19a57.25,57.25,0,0,1,.75,12.18c.49.35.85,1.09,1.55.86.52-.17.35-.8.35-1.26,2.37-4.31-.52-8.55-.25-12.87.12-2.06.19-2.83,2.3-1.94C39.21,68.85,39.72,77.31,41.82,85.52Z"/><path class="cls-30" d="M35.06,57.36c-.36-1.6,1.17-2.51,1.4-3.89,0-1.61,0-3.26,2.43-2.95.1,1.91,3.17,2.61,2,5Z"/><path class="cls-31" d="M35.79,75.33c2.47.41,1.94,2.3,1.85,3.88a1.09,1.09,0,0,1-1.42,1c-2.2-.72-2-2.77-2.33-4.5Z"/><path class="cls-32" d="M25.58,67.35c-2.14.23-2.42-1.32-2.72-2.85.65-.93,1.7-1.42,2.54-.79C26.7,64.69,25.78,66.11,25.58,67.35Z"/><path class="cls-33" d="M12.72,39.4l-3.81-.76c.56-1.65,1.21-3.31-1-4.27C11.12,34.47,13.58,35.33,12.72,39.4Z"/><path class="cls-34" d="M30.78,43.44l4.09,4.12a2.32,2.32,0,0,1,0,2.48,2.6,2.6,0,0,1-2.06,1.45C27.85,49.49,27.42,47.75,30.78,43.44Z"/><path class="cls-35" d="M32.78,51.49l1-1.82c1.52-1.14,2.86-2.92,5.12-1.41a1.73,1.73,0,0,1-.17,2.3l.12,0c-1.59.34-1.24,2.27-2.43,2.95a5.37,5.37,0,0,0-3.67-.95C32.79,52.18,32.78,51.83,32.78,51.49Z"/><path class="cls-36" d="M37.84,38.5c.86,2,.15,3.89-.18,5.82-2.29.69-2.41-1.66-3.57-2.55-1.44-1.51,1.31-2,.8-3.24Z"/><path class="cls-37" d="M39.82,50.49c-.27-2.3.22-3.75,2.94-4.42,4.3-1.07,6.77-5.45,11.06-6.75L56,41.42C50.49,44.29,46,48.93,39.82,50.49Z"/><path class="cls-38" d="M34.09,41.77c2.18-.54,2.29,1.82,3.57,2.55.37,1.44-.28,3.1.92,4.36-1.76-.5-3.2.57-4.76,1l1-2.11C37,45.31,32.45,44,34.09,41.77Z"/><g class="cls-39"><path d="M28.77,9.16A10.58,10.58,0,0,1,30.47,8a.15.15,0,0,0-.15-.26A10.82,10.82,0,0,0,28.55,9c-.14.13.07.34.22.21Z"/></g><g class="cls-39"><path d="M28.85,9.15a1.92,1.92,0,0,0,1.72-1.44.15.15,0,0,0-.27-.11A3,3,0,0,1,29,8.77a3,3,0,0,1-.41.17l-.1,0h0s0,0,0,0h0V9a.06.06,0,0,1,0,0,.3.3,0,0,1,0-.1,1.49,1.49,0,0,1,.69-.55,5,5,0,0,1,1.12-.4l-.08-.29a4.43,4.43,0,0,0-1.49.82c-.15.12.06.33.21.21a4.09,4.09,0,0,1,1.36-.74.15.15,0,0,0-.08-.29A5.84,5.84,0,0,0,29.08,8a1.63,1.63,0,0,0-.81.7c-.07.15-.12.39,0,.5s.35,0,.5,0a3.17,3.17,0,0,0,1-.53,3.32,3.32,0,0,0,.8-.91l-.28-.12a1.61,1.61,0,0,1-1.43,1.22c-.19,0-.19.31,0,.3Z"/></g><g class="cls-39"><path d="M25,9.26a2.78,2.78,0,0,0-2.67-.51.15.15,0,0,0,.08.28,2.1,2.1,0,0,1,.81.17c.27.09.53.2.8.3l.81.3a1.54,1.54,0,0,0,.73.17c.14,0,.23-.2.08-.28l-1.88-.95c-.17-.08-.32.17-.15.26l1.88.95.07-.28a1.64,1.64,0,0,1-.77-.2l-.81-.3a4,4,0,0,0-1.57-.44l.07.28c.81-.4,1.68.1,2.37.51.17.09.32-.17.15-.26Z"/></g><g class="cls-39"><path d="M23.27,9.14a10.29,10.29,0,0,0,2,.72c.16,0,.27-.2.11-.28a10.28,10.28,0,0,1-1.73-1.13.15.15,0,0,0-.21,0,.14.14,0,0,0,0,.21,10.26,10.26,0,0,0,1.79,1.18l.12-.27a10.43,10.43,0,0,1-2-.68c-.17-.09-.32.17-.15.25Z"/></g></g></g></svg>