<svg xmlns="http://www.w3.org/2000/svg" viewBox="0 0 684.18 68.25"><defs><style>.cls-1{fill:#efefef;}</style></defs><title>Asset 2</title><g id="Layer_2" data-name="Layer 2"><g id="Layer_1-2" data-name="Layer 1"><path class="cls-1" d="M50.75,34.79C50.94,13.73,65.08-.07,86.31.08c17.58.13,33.2,17,33,35.7-.16,17.8-15.62,32.48-34,32.29C65.14,67.86,50.57,53.84,50.75,34.79ZM91.5,63.41C102.58,62,109.79,52.12,110.31,38,111,20.75,103.77,8.37,91.5,5.9ZM78.59,5.51c-12.49,3.31-19,13.67-18.86,29.23.11,15,6.94,25.34,18.86,28.21Zm3.13,58.66.85,0V4.67l-.85,0Zm5.54,1.42c2.74-6.1,2.35-58.06,0-61Z"/><path class="cls-1" d="M505.24,34.9C505.4,13.79,519.45,0,540.7.08,558.31.16,574,17,573.84,35.67c-.13,17.83-15.53,32.56-33.9,32.4C519.75,67.9,505.1,53.9,505.24,34.9ZM546,63.35c10.53-1.11,17.76-10.61,18.76-24.15,1-14-3.95-30.2-18.76-33.35ZM533.09,5.52c-12.48,3.29-19,13.65-18.86,29.22.11,15,6.93,25.32,18.86,28.21Zm4.21-.87-1,0v59.5h1Zm5.81,0h-1.18V64.41l1.18,0Z"/><path class="cls-1" d="M627.84,52c0-15.93.13-30.21-.13-44.48,0-2.3-1.77-4.58-2.79-7h13c-.71,3.53-2.07,7.27-2.12,11-.24,16.52-.1,33.05-.1,49.57v5.11L585.1,18.45v8.8c0,10.21-.17,20.43.1,30.63.09,3.23,1.4,6.43,2.19,9.82H575.14c.68-3.78,1.94-7.7,2-11.63.23-16.34.1-32.68.1-49V.11Z"/><path class="cls-1" d="M199.05,67.91c.88-3.48,2.28-6.52,2.32-9.57q.33-24.24,0-48.48c0-3-1.47-6.09-2.32-9.34h13.4c-6.22,8.65-1.64,18.58-3.34,28.26h38.58c-1.32-9.39,2.69-19.2-3.24-28.4h13.31c-.77,3.78-2.12,7.52-2.18,11.27q-.37,23.13,0,46.26c0,3.22,1.37,6.42,2.15,9.81H245.31c.76-3.52,2-7.06,2.19-10.65.34-7.58.1-15.18.1-23.16H209.2c1.59,11.32-2.87,23,3.19,34Z"/><path class="cls-1" d="M384.78.31h13.64c-6.66,8.9-1.87,18.78-3.75,28.38h38.76C431.79,19.36,436.24,9.6,429.94.5h13.32c-.68,3.6-2,7.52-2.06,11.46q-.37,22.29,0,44.58c.07,3.76,1.39,7.49,2.15,11.33h-13c5.9-10.86,1.4-22.54,3.17-34.07H394.91c1.29,11.25-2.6,22.83,2.82,34H385c.67-4.24,1.89-8.65,2-13.08q.38-21.73,0-43.47C386.94,7.65,385.58,4.09,384.78.31Z"/><path class="cls-1" d="M465.68,39.48c1.59,9.41-2.88,19.36,3.48,28.42h-13.4c.75-3.82,2.06-7.56,2.12-11.33q.36-23.11,0-46.24c-.05-3.24-1.39-6.45-2.19-9.95,7.54,0,16.32-1,24.77.23,12.64,1.83,18,12.46,12.88,24.19-1.88,4.33-5,8.11-7.7,12.26,16.84,23.16,18.23,24.54,29.19,29-5.84,3.25-11,3.17-16-1.63a123.67,123.67,0,0,1-12.95-15.27C481.1,42.6,474.71,39.16,465.68,39.48Zm.2-3.72c6.38-1.24,12.22-1.25,16.91-3.57,5.14-2.55,5.88-12.68,2.81-20-2.75-6.56-8.81-10.4-15.52-9.21-1.58.29-4,2.51-4,3.92C465.7,15.91,465.88,25,465.88,35.76Z"/><path class="cls-1" d="M304.19,58c-.35,3.86-.59,6.59-.87,9.69H270.26c.68-3.79,1.93-7.71,2-11.66q.38-22.56,0-45.14c-.06-3.23-1.64-6.42-2.53-9.67h33.24c-.63,2.88-1.2,5.5-2,9.07-5.3-9-13.23-4.68-20.39-5.9V30.65H301.2c-.24,2.22-.55,5-.71,6.54l-20.21-3.64c0,9.07-.46,16.84.16,24.51.44,5.48,11.93,8.45,17.66,4.87A69,69,0,0,0,304.19,58Z"/><path class="cls-1" d="M660.72,4.33V30.67h20.81c-.3,2.38-.66,5.25-1.11,8.81-5.48-7.3-12.77-4-19.93-5.07,0,8.1-.23,15.49.08,22.86.22,5.09,9.57,9.13,15.51,6.65,2.67-1.11,4.94-3.17,8.1-5.28-.19,3.15-.36,6-.54,9.17H650.47c.69-4.1,2-8.36,2-12.65.26-15,.23-30.1,0-45.14,0-2.88-1.6-5.73-2.48-8.66h33c-.49,2.62-1,5.28-1.66,8.84C676.11,1.57,668.2,5.46,660.72,4.33Z"/><path class="cls-1" d="M22.6,4.26C15.2,5.64,7.48,1.43,2.06,10,1.27,6.55.67,4,0,1.09H52.94c-.53,2.74-1,5.35-1.74,8.93C45.73,1.49,38,5.52,30.48,4.36v21.5c0,10.38-.19,20.77.1,31.15.1,3.58,1.42,7.13,2.21,10.82H20.5c.69-4.31,1.94-8.74,2-13.18C22.75,38.18,22.6,21.7,22.6,4.26Z"/><path class="cls-1" d="M168.88,68h-12c.61-5,1.68-9.9,1.75-14.87.23-15.93.09-31.86.09-48.69C151.65,5.69,144,1.23,138.25,9.93c-.81-3.3-1.44-5.87-2.15-8.78H189c-.47,2.62-.93,5.22-1.58,8.83-5.5-8.28-13.2-4.6-20.8-5.62V15.71c0,13.91-.14,27.83.1,41.73C166.76,60.84,168.07,64.22,168.88,68Z"/><path class="cls-1" d="M343.38,67.69c.69-3.82,1.95-7.75,2-11.69.23-16.86.1-33.73.1-51.53-7,1.16-14.64-3.13-20.48,5.35-.78-3.1-1.43-5.65-2.18-8.61H376c-.63,2.75-1.23,5.35-2,8.9-5.29-8.77-13.09-4.42-20.56-5.91V10c0,16-.12,31.9.1,47.84.05,3.23,1.37,6.44,2.15,9.84Z"/></g></g></svg>