<svg xmlns="http://www.w3.org/2000/svg" viewBox="0 0 54.59 96.97"><defs><style>.cls-1{fill:#296176;}.cls-2{fill:#274b5b;}.cls-3{fill:#2d5e75;}.cls-4{fill:#7e292a;}.cls-5{fill:#c7cbc8;}.cls-6{fill:#284651;}.cls-7{fill:#8a4c5c;}.cls-8{fill:#365863;}.cls-9{fill:#731514;}.cls-10{fill:#533b46;}.cls-11{fill:#536975;}.cls-12{fill:#39585e;}.cls-13{fill:#1f4b55;}.cls-14{fill:#7a2f33;}.cls-15{fill:#9c9c8e;}.cls-16{fill:#2d5251;}.cls-17{fill:#b2ad72;}.cls-18{fill:#c9d8d4;}.cls-19{fill:#d2d5cf;}.cls-20{fill:#b1b8a9;}.cls-21{fill:#845562;}.cls-22{fill:#788e8f;}.cls-23{fill:#913c48;}.cls-24{fill:#571917;}.cls-25{fill:#ddbcb4;}.cls-26{fill:#e5c6bb;}.cls-27{fill:#e5c9bd;}.cls-28{fill:#623a49;}.cls-29{fill:#784046;}.cls-30{fill:#8b4958;}.cls-31{fill:#53434e;}.cls-32{fill:#344a4c;}.cls-33{fill:#5d1c33;}.cls-34{fill:#d59990;}.cls-35{fill:#d59684;}.cls-36{fill:#753444;}.cls-37{fill:#c6c8ca;}.cls-38{fill:#742e2d;}.cls-39{fill:#5d1420;}.cls-40{opacity:0.2;}</style></defs><title>Asset 1</title><g id="Layer_2" data-name="Layer 2"><g id="Layer_1-2" data-name="Layer 1"><path class="cls-1" d="M44,89c.06.27.11.55.15.83-1,4-3.52,5.08-7.28,3.56a3.88,3.88,0,0,1-1-1.38C33,86.25,33.17,79.79,31.78,73.68c-2.12-9.36-2.34-19-3.81-28.5a6.27,6.27,0,0,1,.91-3.8,3.58,3.58,0,0,1,1.74-1.63c1.38.69,2.51.63,3.05-1.08a1.74,1.74,0,0,1,1.28.87c.6,15.62,2.48,31,8.62,45.57C44.09,86.33,43.87,87.72,44,89Z"/><path class="cls-2" d="M21.88,96.15l-13.44.69c-.94-1.35.3-1.37,1-1.71,5.19-.15,7.38-3,9.21-7.83C21.8,79,21.17,70.45,22.34,62c2.82.67,2.47,3.11,2.76,5.11C25.92,73,25.35,79,28.4,84.4a29.93,29.93,0,0,1,.21,6C28.42,95.7,27.39,96.56,21.88,96.15Z"/><path class="cls-3" d="M27.1,84c-3-2.53-2.29-6.26-2.89-9.51-.76-4.14-.6-8.42-1.87-12.49-.11-.37-.23-.74-.34-1.11-1-4.6,0-9.26-.41-13.87a1.43,1.43,0,0,1,.9-1.26c2.53,3.06.39,6.71,1.25,9.73-.18-2.47,0-5.2-.07-7.92,0-2,.61-3.6,2.87-4a1.76,1.76,0,0,1,1.37,1c2.07,10,1,20.18,1.26,30.28C28,77.82,29.76,81.43,27.1,84Z"/><path class="cls-4" d="M27,15.14c-4.23-1.69-.35-5.8-2.48-8.26-2-2.24-.15-4.09,1.48-5.4A6.27,6.27,0,0,1,32.85.63c2.47,1,3.06,2.18,3.31,4.66.31,3.09,1.55,6.09,2.39,9.12.36,1.86.8,3.75-1.5,4.77a3.92,3.92,0,0,1-3,.13c-2.3-2.24-2.84-4.93-2.68-8.11.16-3-.68-3.41-3.39-2.56-.4,1.39.55,2.65.4,4A2.79,2.79,0,0,1,27,15.14Z"/><path class="cls-5" d="M44,89c-4.3-8.54-6.17-17.81-7.69-27.1-1.24-7.55-1.74-15.21-2.56-22.82a2,2,0,0,1,1.38-2.41c2.2.08,1.09,2.62,2.46,3.32a2.43,2.43,0,0,1-.07,2.83c-1.5.27-2.46.93-2,2.68,2.31,8.93,1.59,18.38,4.62,27.17A68.47,68.47,0,0,0,44.83,84C46.13,86.28,45.7,87.56,44,89Z"/><path class="cls-6" d="M37.33,93c3,.52,4.78-1.61,6.83-3.16l7.73,6.76c-5.27-.27-10,.52-14.63-.39C36.08,95.12,36.06,94.05,37.33,93Z"/><path class="cls-7" d="M37.15,40c-1.11-.6-.48-2.36-1.87-2.77-1.25-1.16-1.13-2.85-1.65-4.29-.29-1.67-1.06-3.19-1.47-4.83.54-3.1-.95-6.68,2.15-9.17l2.22-.83c2.4,1.65,2.7,4.17,2.29,6.64-.33,2,0,3.95-.29,5.9-.38,2.73-2.06,5.24-1.33,8.14A.69.69,0,0,1,37.15,40Z"/><path class="cls-8" d="M45.11,39.17c.06,6.76,0,13.53.51,20.34-2-7.48-3.73-14.9-3.32-22.58.3-.53.44-1.21,1.18-1.36a1.31,1.31,0,0,1,1.05.57C44.78,37.14,44.43,38.25,45.11,39.17Z"/><path class="cls-9" d="M20.17,36,21.43,34c1.72-2.91,3.42-1.69,5.13,0,.94,2.81.5,5.22-2,7-1.75.44-1.86-.63-1.93-1.71C21.05,42,20.56,46,16.22,46.74A4.08,4.08,0,0,1,12.81,44c.25-2.42,2.44-1.08,3.55-1.84l0,0C17.82,40.27,17.36,37.13,20.17,36Z"/><path class="cls-10" d="M37.33,93c0,1.07,0,2.14-.07,3.21a51.16,51.16,0,0,1-15.38-.07c3.7.15,5.34-1.69,5.26-5.31-.06-2.27,0-4.54,0-6.81l.27-9c3.08.81,2.42,3.49,2.68,5.6a34,34,0,0,1,0,5.88c-.68,5.84-.1,6.59,4.48,5.81.79-.39,1.57-.9,2.48-.27A8.21,8.21,0,0,0,37.33,93Z"/><path class="cls-11" d="M38.53,30.65c-2.17-3.94-.71-8.46-2-12.54,2-.52,1.42-2.43,2-3.7C40.87,16,41,18.82,42.14,21.05a2.44,2.44,0,0,1,.6,1.31c-.26,1.95-.17,4.1-2.71,4.75C38.13,27.7,39.6,29.72,38.53,30.65Z"/><path class="cls-12" d="M10,27.59c3.7-2.36,7.53-4.55,11.05-7.15,2.51-1.85,2.92.06,3.8,1.51l.5.53a2.68,2.68,0,0,1-1,1.85c-3.43,2.38-7.44,3.57-11.1,5.48C12.12,29.11,9.62,30.43,10,27.59Z"/><path class="cls-13" d="M40,27.11c1.43-1.48.6-3.91,2.24-5.31,1.78.24,1.89,1.65,1.82,2.93-.21,3.67.85,7.44-.75,11-.35.39-.7.78-1,1.18Q41.16,32,40,27.11Z"/><path class="cls-14" d="M16.18,46c3.08-.6,2.95-3.69,4.27-5.63,1.86-2.74,2.6-1,3.51.63.15.19.29.38.44.56a4.67,4.67,0,0,1-2,4.37l-.17.13a1.74,1.74,0,0,1-2,.18l-2,1c-2,.37-4.07,1.34-6.06-.12C12.75,44.12,14.58,45.48,16.18,46Z"/><path class="cls-15" d="M49.59,54.4c.11,5.75-1.21,11.5-.19,17.31C47.15,65.94,47.9,60.18,49.59,54.4Z"/><path class="cls-16" d="M10,27.59c1.15,1.69,2.84,1.35,4.48,1.18,2.31-1.64,4.5-.92,6.66.34.56.91,2.34,1.76.16,2.83-3.6-.62-7.2-1.16-10.77-1.9C8.92,29.71,7.33,29,10,27.59Z"/><path class="cls-17" d="M51.92,51.23c-.33-1.85-3.65-3-1-5.32a2.06,2.06,0,0,1,3.09.18C55.93,48.7,52.62,49.43,51.92,51.23Z"/><path class="cls-18" d="M45.11,39.17c-1.23-.77-.73-2.09-1-3.16-1.2-5,.35-10.12-.9-15.1,3-1.05,1.87,1.57,1.9,2.51C45.22,28.66,45.12,33.92,45.11,39.17Z"/><path class="cls-19" d="M20.23,46.23l2-.18q-.09,7.44-.2,14.87a4.34,4.34,0,0,1-1.21-4.47C21.65,53,21.12,49.6,20.23,46.23Z"/><path class="cls-20" d="M9.47,95.13c-.34.57-.68,1.14-1,1.71-2.84.1-5.71.5-8.44-.84C3.08,94.5,6.3,95.05,9.47,95.13Z"/><path class="cls-21" d="M24.85,22c1.67-.88,1-2.75,1.73-4,1.12-1.6,1.83-.1,2.68.34a3.1,3.1,0,0,1,.65,1.47c-.32,2.54-.06,5.26-2.1,7.31a2.83,2.83,0,0,1-1.35.52C23,26.67,25.71,24,25,22.33Z"/><path class="cls-22" d="M43.18,20.91c1.93,4.94.52,10.07.9,15.1a3.09,3.09,0,0,1-.74-.26c-.69-4.63.63-9.4-1.07-13.95-.05-.25-.1-.5-.13-.75Z"/><path class="cls-23" d="M29.29,19.06l-2.7-1.14c-.76-1.06-.24-1.93.42-2.78l.24-3.26c2.44-.32,3.14,1.44,3.85,3.2C31.38,16.8,31.08,18.27,29.29,19.06Z"/><path class="cls-24" d="M16.18,46c-1.38.12-2.88-.3-4,.9-.28,1-.85,1.54-1.95,1.21-.8-.13-1.86.22-2-1.1C9.31,45.22,10,42.77,13,43.92Z"/><path class="cls-25" d="M13,43.92C10.79,44,10.13,46.47,8.23,47c0-6.1,4.72-4.4,8.13-4.82Z"/><path class="cls-26" d="M20.17,36c-1.3,2.05-1.21,5-3.83,6.2C16.35,39.37,15.19,35.79,20.17,36Z"/><path class="cls-27" d="M10.21,48.1l1.95-1.21,6,.37C15.7,49.11,13.1,50,10.21,48.1Z"/><path class="cls-28" d="M21.3,31.94c.62-.56.21-1.11,0-1.67a1.45,1.45,0,0,1,.88-1.6c1.54-.19,2.52.78,3.54,1.68a3.07,3.07,0,0,1,.92,3.11l-.44.52c-1.58,0-3.16-1.44-4.75,0C21.39,33.28,21.34,32.61,21.3,31.94Z"/><path class="cls-29" d="M37.15,40c0-.4,0-.8.05-1.21,2,.92,3.36,2.38,2.22,4.62-1,1.93-1.25-.34-1.89-.57C37.4,41.89,37.28,40.94,37.15,40Z"/><path class="cls-30" d="M28.26,87.94c-.64-4.26.78-8.67-.89-12.87L27,44c-1.06-1.62-.78-3.06.85-4,1-.56,2.19-.9,2.32,1-1,8.13,1.22,16,2.19,23.93C33.44,74,35.43,83,37,92.09l-1.88.83A9.1,9.1,0,0,1,28.26,87.94Z"/><path class="cls-31" d="M30.15,40.9C26.7,39.46,27.59,42.48,27,44c-.28,0-.57,0-.85,0-1.41-.5-1.15-2.08-1.91-3H24c1.48-2.1,1.62-4.63,2.22-7l0,0c1.94-2.15.83-4.68.88-7.07,1.32-2.2.38-5.16,2.38-7.13,2.85,3,2.34,6.86,3,10.45-.66,3.23,1.41,6.8-1.18,9.8Z"/><path class="cls-32" d="M31.22,40.06c1-3.4-2.5-6.91.22-10.27a1.37,1.37,0,0,1,1.44-1c2.48.45,2.32,2.31,2.19,4.14-1.2,1.83-.38,4.31-1.91,6L32.7,41Z"/><path class="cls-33" d="M33.16,39c.15-2.17-.59-4.62,1.92-6,.31,1.42.93,2.84.2,4.32L33.76,39.1A1.07,1.07,0,0,0,33.16,39Z"/><path class="cls-2" d="M24.22,41c1.85.22,2,1.57,1.91,3-3.52,4-1.11,9.16-2.5,14.1-1.15-4.33.56-8.44-1.26-12.17C21.67,43.78,23.33,42.53,24.22,41Z"/><path class="cls-34" d="M32.88,28.77l-1.44,1c-.5-3.36-3.66-6.19-2-10a2.36,2.36,0,0,0-.13-.75,6.32,6.32,0,0,0,.78-3.88c-.58-2.8-2.47-4.88-4-7.18.47-2.64,2-3,4.44-2.51,2.32.45,3,1.7,2.74,3.68-.47,3.36.3,6.55,1,9.77C34.09,22.25,35,25.73,32.88,28.77Z"/><path class="cls-35" d="M26.11,8c2.93,1.51,4.69,3.66,4,7.18l-2.82-3.3C26.62,10.66,25.8,9.49,26.11,8Z"/><path class="cls-36" d="M28.26,87.94c2.4,1.53,5.46,2.13,6.89,5,.67,3.33-1.92,1.82-3.15,2-1.78.22-3.41-.38-3.67-2.48A41.74,41.74,0,0,1,28.26,87.94Z"/><path class="cls-37" d="M22.43,29.05l-1.15,1.22-6.8-1.5c2-3.84,6.62-3.3,9.41-5.79C25.7,25.55,24.45,27.39,22.43,29.05Z"/><path class="cls-38" d="M22.43,29.05C22.8,27,24.26,25.21,23.89,23L25,22.32c2.65,1,0,3.35,1.22,4.72,1,1.59,1.64,3.12-.88,3.93C23.86,31.06,23.25,29.89,22.43,29.05Z"/><path class="cls-39" d="M25.31,31c1.17-1.12.71-2.59.88-3.93a6.15,6.15,0,0,0,.85-.1c2.69,2.73,3.25,5.19-.88,7.07C25.88,33,25.59,32,25.31,31Z"/><g class="cls-40"><path d="M28.41,9.25A10.44,10.44,0,0,1,30.25,9c.19,0,.19-.31,0-.3A11.22,11.22,0,0,0,28.33,9c-.18,0-.1.33.08.29Z"/></g><g class="cls-40"><path d="M27.71,9.38a8.14,8.14,0,0,0,2.87-.08c.19,0,.11-.32-.08-.29a7.71,7.71,0,0,1-2.71.08c-.19,0-.27.26-.08.29Z"/></g><g class="cls-40"><path d="M27.77,9.7A11.07,11.07,0,0,1,30,9c.18,0,.1-.33-.08-.29a11.81,11.81,0,0,0-2.26.77c-.18.08,0,.34.15.26Z"/></g><g class="cls-40"><path d="M27.57,10.22a3.94,3.94,0,0,0,3.88.59c.17-.07.1-.36-.08-.29A3.64,3.64,0,0,1,27.79,10c-.15-.12-.37.09-.22.21Z"/></g><g class="cls-40"><path d="M27.41,8.87h.17a.21.21,0,0,0,.11,0l0-.05a.13.13,0,0,0,0-.06.15.15,0,0,0,0-.11.21.21,0,0,0-.11,0h-.17a.18.18,0,0,0-.1,0s0,0,0,.05a.14.14,0,0,0,0,.06.22.22,0,0,0,0,.11.18.18,0,0,0,.1,0Z"/></g><g class="cls-40"><path d="M31.91,9.29a.15.15,0,1,0,0-.3.15.15,0,0,0,0,.3Z"/></g></g></g></svg>