<svg xmlns="http://www.w3.org/2000/svg" viewBox="0 0 101.55 115.59"><defs><style>.cls-1{fill:#020102;}.cls-2{fill:#4b0f1b;}.cls-3{fill:#822b3d;}.cls-4{fill:#7f2e3d;}.cls-5{fill:#dbd2c9;}.cls-6{fill:#cacac2;}.cls-7{fill:#cccbc5;}.cls-8{fill:#dfdfd4;}.cls-9{fill:#dadacf;}.cls-10{fill:#c9cac4;}.cls-11{fill:#6a3138;}.cls-12{fill:#282a1f;}.cls-13{fill:#25251b;}.cls-14{fill:#292922;}.cls-15{fill:#595854;}.cls-16{fill:#949490;}.cls-17{fill:#deded4;}.cls-18{fill:#c8cabf;}.cls-19{fill:#d4c5bf;}.cls-20{fill:#78303f;}.cls-21{fill:#702e3a;}.cls-22{fill:#4b4b41;}</style></defs><title>Asset 7</title><g id="Layer_2" data-name="Layer 2"><g id="Layer_1-2" data-name="Layer 1"><path class="cls-1" d="M28.86,16.39C23.4,16.24,19,14.66,16.92,8.88c-1.11-3.09-.84-5.61,1.75-7.41,2.41-1.66,5.35-2.23,7.77,0,9.75,8.86,19.18,17.91,20.27,32.31A52.94,52.94,0,0,0,50,47.25c1.69,4.79-1.24,9.38-1.35,14.14-.67,2-.13,4.18-.33,6.26-.17,1.85.82,2.63,2.48,2.84,6.25-2.22,11-7,17-9.68,1-.45,1.53-1.78,2.91-1.54-1.45,5.39-5.19,8.12-13.43,11.38-5.07,2-8.42,7.69-15.44,7.16,5.16-4.17,4.31-9.57,4-14.89-.16-2.81-.07-5.64-.09-8.46a7.24,7.24,0,0,1-.43-4.37c1-3.38-.25-6.07-2.25-8.65-1.12-1.44-2-3-1.68-4.21.75,3.38-.52,7.28-1.46,11.22a4.58,4.58,0,0,0,0,1.48c2.19,5.71,1,9.85-5,12.53-3.78,1.7-4.2,4.47-2.29,8.49A164.77,164.77,0,0,0,49.57,99.6c1.2,1.6,2.25,3.28,4.2,4.09,3.08-.19,5.12,1.88,7.3,3.5,1.76,1.31,3.52,2.28,5.77,2,5.17,5.21,12.07,2.67,18.09,4.06.19,1.46-.8,1.64-1.85,1.63-11.81-.17-23.62.42-35.41-.31l-23.75-.33a1.11,1.11,0,0,1,0-1.8l4.21-5c1-1.11-1.06-3.49,1.6-3.94.12.61.25,1.22.37,1.84,1,1.72.1,3.36.14,4.16a57.54,57.54,0,0,0,1.47-8.11c.06-2.65.11-5.31.17-8-1.13-3-.13-6,.08-9-1.06-5-2.11-10-3.27-15.45-4,3.59-8.89,4.77-13.37,6.65-5.21,2.19-10.81-.92-10.47-5.36.06-.79-.24-1.84.76-2.14,1.19-.35,1.6.82,2.24,1.49A10.37,10.37,0,0,0,13,72.37c4.5.33,6.2-2.3,6.56-6.27,0-.52-.93-1.2,0-1.55.51-.19,1.28.17,1.88.4.86.34-1.13,4.12,2,1.74C25.33,65.29,28,64.51,27,61c-2.77-9.49-3-19.39-4.27-29.11a13.39,13.39,0,0,1,3.4-11.33C25.35,18.08,30,19.14,28.86,16.39Z"/><path class="cls-2" d="M68,97.49c-.06-1-.11-2-.17-3-.21-6.91.09-13.82.12-20.74,0-6.42-.44-12.84-.22-19.26,1.67-5.8.45-11.61.07-17.42a5.13,5.13,0,0,1,.3-2.9c2.39-3.64,1.54-6.23-2.15-8.25-2-1.1-.32-2.6-.18-3.9.33-3.15,2.83-3.1,5.1-3.34,3.35,7.44,8.62,13.94,10.87,21.93.25,2.06-.29,4.25,1,6.13.27,1.62-.55,2.15-2,2-1.22-.51-1.61-2-3-2.47-1.59,1.09-1,2.89-1.43,4.37a25.76,25.76,0,0,0,.1,5.69.41.41,0,0,0,.29.28c.11,0,.25-.12.39-.23,1.37-1.72,2.42-3.72,4.73-4.33,1.4.12,2.3.66,2,2.27L80,72.31c.89,2.47.34,4.15-2.51,4.56-2.79-1.82-1.43-4.7-2-7.39.25,3.27-.07,6.33,1.65,9.06C78.53,91.3,88.2,99.42,94.54,109.4c.89,1.4,2.86,1.59,4.33,2.34,1.82.94,1.54,1.94-.34,2.59-8.91.26-17.82.12-26.72.09-4.64,0-4.77-.56-4.46-5.3C67.6,105.25,68.08,101.38,68,97.49Z"/><path class="cls-3" d="M100,113.29c-6.61-1.19-9.1-6.94-12.82-11.4-4.75-5.7-9.68-11.23-10.66-19-.18-1.46-.49-2.9-.74-4.35-.59-1.28-.65-2.26,1.2-2.21a3.77,3.77,0,0,0,3-4,6.08,6.08,0,0,1,.71,1.81c.42,12.7,7.42,22.55,13.76,32.79,1.85,3,5.18,3.27,7.13,5.65C101.28,113.31,100.81,113.65,100,113.29Z"/><path class="cls-4" d="M81.7,40.56C78,34.37,74.22,28.22,70.65,22c-.46-.81.1-2.21.18-3.33l1.09-.38c4.19.79,7.45,2.73,8.82,7.05-2.8,2.89-1,5.9-.28,8.9C80.94,36.31,81.29,38.44,81.7,40.56Z"/><path class="cls-5" d="M67.69,54.44a168.31,168.31,0,0,1,.1,40c-.9-.91-.89-2.07-.93-3.24-.48-12.36.93-24.75-.71-37.11C66,52.72,67.1,54.47,67.69,54.44Z"/><path class="cls-6" d="M40,48.45c-.69-4.8.07-9.51,1.21-14.3,1.53,6.8,9,12.14,4.61,20.31-2.57-1.44-3.63-3.35-1.9-6.12,1-1.64.45-3.16-.36-4.76C41.23,44.38,41.33,47,40,48.45Z"/><path class="cls-7" d="M66.84,109.24c-1.89.83,1.51,2.36-.34,3-1.21.44-2.06-.78-3-1.4-3.29-2.34-6.53-4.77-9.78-7.17,2.28-2.65,4.38-3.83,7-.09C62.29,105.87,65.39,106.71,66.84,109.24Z"/><path class="cls-8" d="M0,113.42c.18-1.08.75-1.92,1.89-1.86,4.65.26,9.4-1.08,14,.8l-.49.67c-3.65,1.84-7.7.25-11.43,1.38C2.52,114.43,1.1,114.55,0,113.42Z"/><path class="cls-9" d="M0,113.42l4.05.08c3.25,0,6.49-.14,9.74,0a2.46,2.46,0,0,1,2.08,1.09c-4.77,1.78-9.67.65-14.51.63C.48,115.22.12,114.28,0,113.42Z"/><path class="cls-10" d="M28.86,16.39c.67-.94,1-2.93,2.72-1.39,1.4,1.23.56,2.32-.78,3.06-1.55.85-3.12,1.68-4.68,2.51C23.55,16.9,28.54,18.17,28.86,16.39Z"/><path class="cls-11" d="M83.76,54.29l-1.89-1.81c-1.54-1.08-2.33-2.32-.86-4l1.71-1.76C84,49.1,85.69,51.45,83.76,54.29Z"/><path class="cls-12" d="M29.7,103.52c-1.19,1-.07,3-1.6,3.94.67-4.43-1.24-8.66-1-13.09C28,97.44,29.75,100.23,29.7,103.52Z"/><path class="cls-13" d="M15.87,114.59,14,114.3c-.48-1.93,1.43-1,2-1.68l-.11-.26,8.05.13,0,1.8Z"/><path class="cls-14" d="M13,72.37c-2.3.16-5.44,1.91-5.22-2.74l3-2.44C10.05,69.84,11.38,71.2,13,72.37Z"/><path class="cls-15" d="M50.84,70.49c-1.22.43-3,2-2.9-.93.09-2.73-.47-5.55.75-8.17C49.52,64.4,47.6,68.05,50.84,70.49Z"/><path class="cls-16" d="M31.68,101.41a18.12,18.12,0,0,1-1.46,10c-1.14-2.35-.17-4.22-.15-6.09C30.61,104,31.15,102.73,31.68,101.41Z"/><path class="cls-17" d="M31.93,84.44c1,3,.17,6-.08,9A9.16,9.16,0,0,1,31.93,84.44Z"/><path class="cls-18" d="M34.62,35.16c3.57,6.77,3.12,13.71,2.21,20.58-.41,3.11-3.8,4.06-6.09,5.42-1.67,1-1.9-1.49-1.9-2.5C28.82,50.47,28,42.05,34.62,35.16Z"/><path class="cls-19" d="M81,48.45c.29,1.34.57,2.68.86,4l-4,5c-2.42-1.86-1.27-5.11-2.84-7.31-1.68-3.34,1-5.34,2.22-7.92C80,43.64,79.86,46.41,81,48.45Z"/><path class="cls-20" d="M75.05,50.13c3.66,1.39,2.4,4.68,2.84,7.31l-2.67,4.29C75,57.07,74,53.66,75.05,50.13Z"/><path class="cls-21" d="M77,76.31l-1.2,2.2c-2-4.17-.13-8.7-1.66-12.92l1.31-.22Q76.23,70.85,77,76.31Z"/><path class="cls-22" d="M16,112.62l-2,1.68c-3.31-.06-6.72,1-9.9-.8C7.89,111.56,12,112.75,16,112.62Z"/></g></g></svg>