<svg xmlns="http://www.w3.org/2000/svg" viewBox="0 0 53.39 97"><defs><style>.cls-1{fill:#242121;}.cls-2{fill:#231f1b;}.cls-3{fill:#f3e1b8;}.cls-4{fill:#fae0b2;}.cls-5{fill:#d8cdb2;}.cls-6{fill:#ebd9b1;}.cls-7{fill:#997966;}.cls-8{fill:#3f5c62;}.cls-9{fill:#d8d8c7;}.cls-10{fill:#b8b3a0;}.cls-11{fill:#3c5856;}.cls-12{fill:#bcbbae;}.cls-13{fill:#4f5252;}.cls-14{fill:#d6bd93;}.cls-15{fill:#89674f;}.cls-16{fill:#d3b58c;}.cls-17{fill:#9b7d69;}.cls-18{fill:#201507;}.cls-19{fill:#8f6957;}.cls-20{fill:#815a45;}.cls-21{fill:#28170c;}.cls-22{fill:#746a62;}.cls-23{fill:#e9cd9c;}.cls-24{fill:#396473;}.cls-25{fill:#506356;}.cls-26{fill:#464e44;}.cls-27{fill:#424735;}.cls-28{fill:#d5be90;}.cls-29{fill:#3a3128;}.cls-30{fill:#f2dcb6;}.cls-31{fill:#9f7f5f;}.cls-32{fill:#c6bca7;}.cls-33{fill:#bcb192;}.cls-34{opacity:0.2;}</style></defs><title>Asset 10</title><g id="Layer_2" data-name="Layer 2"><g id="Layer_1-2" data-name="Layer 1"><path class="cls-1" d="M19.86,49.23,21.71,45a1.59,1.59,0,0,1,1.41-.29,3.68,3.68,0,0,1,2.31,3.6c-.66,2.26-.19,4.47.26,6.7.38,1.9.77,3.87-.79,5.52-1.6,3.44,0,7.11-.81,10.61.92-3.4-1.22-7.16,1.25-10.38,4.08,3.75,1.84,8.62,2.34,13-.76,2.29.05,5.27-2.87,6.62C19.18,81.91,13,82.05,8.7,86.92c-2.87,1.08-2.45-1-2.44-2.6,0-5.2,1.74-10.08,3-15A156.6,156.6,0,0,1,19.86,49.23Z"/><path class="cls-2" d="M24.6,20.08C18.29,16.87,16.45,14,17.37,8.36c.63-3.86,4.05-6,6.83-7.09C27.3.06,31.43-1.32,34.74,2.53c1.95,2.27,4.75,3.55,5.35,7.1,1,6-3.48,7.88-7.15,10.46a2,2,0,0,1-1.4.44,2.37,2.37,0,0,1-1.77-2.09c.5-3,1.32-6,1.27-9,.35-.58,1.59-1,.27-1.91S28.9,6,27.56,7.22a13.73,13.73,0,0,1-.49,1.66,3.32,3.32,0,0,1-1.32,1.28c-2.64,1.39-.37,2.54.17,3.79.91,2.08,3.13,4,.68,6.46A2,2,0,0,1,24.6,20.08Z"/><path class="cls-3" d="M35.85,23.06c2,.22,2.68,1.45,2.93,3.33a19.54,19.54,0,0,0,1.4,6.2C42.7,37.52,41,41.36,37.7,45c-3.11-.59-3.51-3.06-3.86-5.55a5.09,5.09,0,0,0-.16-6c1.12,2.78-.75,5.64.62,8.42A15.44,15.44,0,0,1,36.72,49c1.7,6.65-.13,13.28,0,19.92-.91,1.64-.28,3.41-.47,5.11-.12,1.06.06,2.39-1.76,1.9-1.59-1.91-1.62-4.18-1.53-6.48.94-3.41.3-6.87.29-10.31-.82-5.42-2.57-10.61-4-15.87a12.8,12.8,0,0,1-1-5.6c.05-4.48-.58-9.08,2.32-13.06C32,23.18,33.6,22,35.85,23.06Z"/><path class="cls-4" d="M24.81,80.38c.35-2.11.71-4.23,1.06-6.34,2.24-.16,1.77,1.94,2.54,3,4-4.34,5.28-4,7.07,1.73.39,1.25.35,2.62,1.14,3.75.94,1.57.51,3.3.58,5,0,2.1-.49,3.92-1.93,4.65a5.1,5.1,0,0,1,3.28-.61,4.78,4.78,0,0,1,3.19,1.18c1.42,1.33,1.66,2.9-.62,3a173.41,173.41,0,0,1-20.77,0c-2.14-.13-2.36-2.1-.92-3.15,3.71-2.7,4.36-6.72,5.35-10.66Z"/><path class="cls-5" d="M24.78,82c1.53,3.63-.55,8.64-5.61,12.57H41.55c-.83-1.71-2.43-1.43-3.84-1.59-1.1-1.45-.44-3.56-1.86-4.89-.05-2-.09-4.07-.14-6.1s-2-3.8-.93-6c2-2-.11-5,1.91-7-.19,5.91.08,11.75,2.08,17.42.68,1.92,2,2.86,3.5,4s3.65,2.08,2.47,4.69c0,.77-.34,1.37-1.08,1.36-9-.16-17.94.66-26.89-.41l0,0c-.35-.2-.47-.4-.36-.62s.22-.33.33-.33C19.49,90.72,22.68,86.68,24.78,82Z"/><path class="cls-6" d="M4,89.12c-3.89-1-4.63-3.14-3.42-7C2.17,77,5,72.5,7.75,67.93c2.16,0,1.8,1.66,1.87,3A116.79,116.79,0,0,0,6,85.69C5.74,87,6,88.82,4,89.12Z"/><path class="cls-7" d="M17.64,40.14c-1.63-1.8-1-3.68-.18-5.54A24.73,24.73,0,0,0,19.7,25c2-2.22,4.45-2.19,7-1.18a3.8,3.8,0,0,1,2.33,2.7c-.79,3.18-5.06,2.72-6,5.73-.61,1.39-.63,3-1.68,4.24-.9,1-1.65,2-2.58,3A3.59,3.59,0,0,1,17.64,40.14Z"/><path class="cls-8" d="M4,89.12c1.74-5.93,2.12-12.23,4.89-17.87.63-.79-.05-2.55,1.8-2.45-.32,5.28-3.12,10.09-3,15.46,0,1-.91,2.39,1,2.66a16.26,16.26,0,0,1-.9,2.29c-.56,1,1.1,3-1.25,3C4.84,92.18,4.11,90.76,4,89.12Z"/><path class="cls-9" d="M10.64,68.8l-1.8,2.45c-.13-1.18-.06-2.43-1.09-3.32A80.57,80.57,0,0,0,18,48.66c.21-.57.22-1.92,1.43-1.28.36.19.29,1.21.41,1.85C17.89,56.28,13.18,62,10.64,68.8Z"/><path class="cls-10" d="M16.77,96c7.59,0,15.18,0,22.77,0,1.77,0,3.67.5,5.2-.94h8.65c-11.56,3-23.26,1.67-34.9,1.79C17.92,96.83,17.34,96.27,16.77,96Z"/><path class="cls-11" d="M26.85,24.9c-2.39-.16-4.79-.91-7.15.14.13-2,1.48-2.72,3.22-2.86,1.37-.12,2.17-.56,1.68-2.1l1.93-.28c2,.58,2.45,2,2.13,3.89C28.31,24.47,27.88,25.13,26.85,24.9Z"/><path class="cls-12" d="M16.7,95l0,.95c-3,1.65-6,1.09-9.39-.45C10.68,93.73,13.69,94.4,16.7,95Z"/><path class="cls-13" d="M35.85,23.06l-4,2a2.15,2.15,0,0,1-2.71-1c-.82-2.35.32-3.53,2.46-4.1l1.34.21C33.49,21.49,36.63,20.34,35.85,23.06Z"/><path class="cls-14" d="M36.72,49c-2-1.93-2.32-4.56-3-7-.35-1.19-1.49-2.64.94-3,0,2.51,1.53,4.23,3,6C37.37,46.35,37.05,47.7,36.72,49Z"/><path class="cls-15" d="M17.64,40.14l.1-1.12c3.74.2,5.94,1.7,5,5.88l-1,.09C20.35,43.37,19,41.76,17.64,40.14Z"/><path class="cls-16" d="M34.78,75.93l.93,6c-1.06-2.36-2.11-4.72-3.21-7.19-2.5,1.64-2,5.47-5.26,6.36-1.22-2.28.43-5-1.37-7.08-.94-4.37.86-9-1-13.25-.36-.11-.51-.26-.44-.47s.17-.33.27-.33c-.4-2.43-.64-4.9-1.25-7.28-.51-2-.45-3.54,1.4-4.7.2-.73.56-1.29,1.42-1.32a2.53,2.53,0,0,1,1.54,1.36c.21,2.91,2,4.42,4.61,5.25,1.23,1.61,1.12,3.67,1.8,5.46a86.62,86.62,0,0,0,.43,10.06C34.67,71.19,34.73,73.56,34.78,75.93Z"/><path class="cls-17" d="M26,47l-1.21,1L22.71,44.9c-.57-2.87-2.83-4.33-5-5.88.65-1.25,1-2.76,2.75-3,3.64.93,3.14,4.88,5.12,7a5.5,5.5,0,0,1,.9,1.93A2.41,2.41,0,0,1,26,47Z"/><path class="cls-18" d="M24.67,60a.72.72,0,0,1,.17.8V72.52C24.11,68.32,22.75,64.11,24.67,60Z"/><path class="cls-19" d="M31.8,9c2.49,3.37.92,6.22-1.18,9-.34.55-.72,1.39-1.44,1-2.19-1.07-4.11-6.85-3.41-9.88l1.17-1C28.94,6.26,30.55,6.61,31.8,9Z"/><path class="cls-20" d="M25.77,9.13c1.7,2.91,1.24,7,4.85,8.85l1,1.91c-.92,1.24-2.21,2.3-1.88,4.1a1.36,1.36,0,0,1-1.94.06,6.89,6.89,0,0,0-1.25-4.25c.32-3-2.1-4.69-3.26-7C22,10.27,22.29,8.55,25.77,9.13Z"/><path class="cls-21" d="M31.8,9a7,7,0,0,0-4.86-.87l-1.2-.86c2.06-3.57,4.53-1,6.87-.48C33,7.76,33.58,8.81,31.8,9Z"/><path class="cls-22" d="M32.61,6.78c-2.26.55-4.73-1.88-6.87.48C26.9,4.21,28.87,4.07,32.61,6.78Z"/><path class="cls-23" d="M34.66,39.05c-1,.77-.89,1.88-.94,3a30.61,30.61,0,0,1-2-11.63c1.88-1.57,1.6,3.42,3.72.71.6-.77,1.27.11,1.13.78a15,15,0,0,0-.1,6.74C36.74,39.56,35.13,38.16,34.66,39.05Z"/><path class="cls-24" d="M25.76,44.84l-1-.76c0-1.72-.82-3.49.28-5.16a4.12,4.12,0,0,1,2.5-1.67,2.88,2.88,0,0,1,2.15.61c.27,1.72.54,3.44.8,5.16-.69.85-.09,2.42-1.58,2.82A2.65,2.65,0,0,1,25.76,44.84Z"/><path class="cls-25" d="M29.73,37.86l-1.54.07c-3.27-1.8-1.33-4.55-1.29-7a5.9,5.9,0,0,1,1.7-3.84c-.59-.74-1.17-1.49-1.75-2.23l.93-.85L29.72,24l2.13,1C28.86,28.93,30.27,33.56,29.73,37.86Z"/><path class="cls-26" d="M29.62,45.2c-.06-.88-.84-2.06.91-2.18,1.64,5.26,3.55,10.45,4.13,16-.32.51-.65.52-1,0l-1.86-5.16a6.26,6.26,0,0,1-2.4-3.65C29.43,48.54,28.25,46.81,29.62,45.2Z"/><path class="cls-27" d="M33.67,59c.33,0,.66,0,1,0a20.27,20.27,0,0,1,0,9.82C33.2,65.66,33.35,62.35,33.67,59Z"/><path class="cls-28" d="M35.85,88.05c2.81.8,3,2.57,1.86,4.89-2.72-.13-5.43,2.2-8.69-.06C31.63,91.31,36.14,92.75,35.85,88.05Z"/><path class="cls-29" d="M26,38.86c-.43,1.73.24,3.7-1.15,5.22C22,42.13,22.52,38.37,20.49,36c1.56-1-.77-3.33,1.39-4.15a1.66,1.66,0,0,1,1.46,0C25.63,33.63,27.58,35.58,26,38.86Z"/><path class="cls-30" d="M22.68,32.07l-.8-.23c.78-3.64,3.83-4.06,6.72-4.71-.06,1.26-.11,2.53-.16,3.79C27.1,34.23,24.81,32.71,22.68,32.07Z"/><path class="cls-31" d="M30.43,49.72l1.38,4.14c-5.15.83-5.28-2.51-5.1-6.12C28.67,47.05,29.68,48.14,30.43,49.72Z"/><path class="cls-32" d="M30.43,49.72l-3.72-2c-.23-.26-.46-.51-.68-.77l-.27-2.13a6.16,6.16,0,0,1,3.86.36C29.56,46.77,31.05,48.06,30.43,49.72Z"/><path class="cls-33" d="M22.68,32.07c1.75-1.23,4.17.89,5.76-1.15-.08,2.34-.17,4.67-.25,7L26,38.86C25.57,36.25,23.93,34.25,22.68,32.07Z"/><g class="cls-34"><path d="M30.57,14.25a7.75,7.75,0,0,0-1.51-.37,3.05,3.05,0,0,0-.74,0,2.5,2.5,0,0,1-.81.1.15.15,0,0,0-.08.29,9.63,9.63,0,0,0,1.68.43,2.21,2.21,0,0,0,1.48-.07.15.15,0,0,0-.15-.26,2.16,2.16,0,0,1-1.42,0A8,8,0,0,1,27.51,14l-.08.29a2,2,0,0,0,.76-.06,2.75,2.75,0,0,1,.76,0,6.78,6.78,0,0,1,1.54.37c.18.06.26-.23.08-.29Z"/></g><g class="cls-34"><path d="M28.26,14.32a2.79,2.79,0,0,1,2.29.43c.14.09.31-.13.18-.24a3.19,3.19,0,0,0-.81-.44,8.13,8.13,0,0,0-.94-.34,2.25,2.25,0,0,0-1.78.12.15.15,0,0,0,0,.26,5.74,5.74,0,0,0,1.15.38l1.29.37.6.17a1.33,1.33,0,0,0,.55.09.43.43,0,0,0,.35-.59c-.09-.18-.34,0-.26.15s-.07.12-.13.14a.6.6,0,0,1-.26,0l-.42-.12-.93-.27-.92-.27a4.21,4.21,0,0,1-.87-.28v.26A2,2,0,0,1,29,14c.27.08.53.18.79.28a3.13,3.13,0,0,1,.77.4l.18-.23A3.13,3.13,0,0,0,28.18,14a.15.15,0,0,0,.08.29Z"/></g><g class="cls-34"><path d="M25.81,11.08a1.39,1.39,0,0,0,.77.2A1.29,1.29,0,0,0,27,11.2a.54.54,0,0,0,.34-.22.27.27,0,0,0-.13-.36,1.38,1.38,0,0,0-.41-.11,2.57,2.57,0,0,0-.47-.08.39.39,0,0,0-.35.19c-.09.14-.18.36,0,.45a.48.48,0,0,0,.24,0,1.27,1.27,0,0,0,.28-.06c.18-.06.1-.35-.08-.29l-.17,0h-.15s0,0,.05,0l0,.08c0-.05.06-.15.09-.17s.21,0,.28,0l.39.07a.34.34,0,0,1,.12,0h0s0,0,0,0v0l-.1.05-.13,0a1,1,0,0,1-.29,0,1,1,0,0,1-.57-.16.15.15,0,0,0-.15.26Z"/></g><g class="cls-34"><path d="M30.07,11.15l.37.31.19.16a.36.36,0,0,0,.22.09c.21,0,.26-.24.28-.41a.51.51,0,0,0-.14-.42.38.38,0,0,0-.46-.08.14.14,0,0,0-.05.2.15.15,0,0,0,.2.06h.09s0,0,0,0l0,0s0,0,0,0h0v0h0s0,0,0,0h0v.13s0,0,0,0,0,.06,0,.1,0,0,0,0h0l0,0h0s0,0,0,0,0,0,0,0l0,0s0,0,0,0l0,0,0,0-.1-.08-.37-.31a.15.15,0,0,0-.21.21Z"/></g></g></g></svg>