<svg xmlns="http://www.w3.org/2000/svg" viewBox="0 0 116.7 127.46"><defs><style>.cls-1{fill:#852a3c;}.cls-2{fill:#4e0e1b;}.cls-3{fill:#25221d;}.cls-4{fill:#812c3d;}.cls-5{fill:#832e3d;}.cls-6{fill:#4e101b;}.cls-7{fill:#292c28;}.cls-8{fill:#4d534f;}.cls-9{fill:#4a0c17;}.cls-10{fill:#120e0a;}.cls-11{fill:#27261e;}.cls-12{fill:#b28778;}.cls-13{fill:#322e25;}.cls-14{fill:#b0afa3;}.cls-15{fill:#3f1316;}.cls-16{fill:#2b2a26;}.cls-17{fill:#d2bcb2;}.cls-18{fill:#76343d;}.cls-19{fill:#712432;}.cls-20{fill:#2e2725;}.cls-21{fill:#2e2e28;}.cls-22{fill:#dcbfbd;}.cls-23{fill:#696864;}.cls-24{fill:#363632;}.cls-25{fill:#4e4f48;}.cls-26{fill:#2b080c;}.cls-27{fill:#161512;}.cls-28{fill:#3f3630;}.cls-29{fill:#6a554c;}.cls-30{fill:#97978b;}.cls-31{fill:#842d3e;}.cls-32{fill:#77323d;}.cls-33{opacity:0.2;}</style></defs><title>Asset 9</title><g id="Layer_2" data-name="Layer 2"><g id="Layer_1-2" data-name="Layer 1"><path class="cls-1" d="M54.11,66.43C57,67.9,55.06,70.8,56,73A137.48,137.48,0,0,0,64.7,89.63c.81,1.31,2.37,2.92-.74,3.44-3.23-.63-5.64,1.51-8.37,2.52-3.3,1.22-5.72.52-6.24-3.16-.86-6.19-2.51-12.27-2.73-18.56A10.33,10.33,0,0,1,47,70.6C48.57,67.85,50.51,65.72,54.11,66.43Z"/><path class="cls-2" d="M54.11,66.43l-6,4c-3,.58-4.39-1.23-5.37-3.63a2,2,0,0,1,1-1.69c2.07-.11,1.65-1.8,1.89-3.07C47,57,48.06,51.73,50.47,47A14.91,14.91,0,0,1,55,41.22c.41-1,1.22-.86,2-.74,1,1.18,1.81,2.58,3.65,2.5,3.46.75,6.09,3.33,9.46,4.28a10.57,10.57,0,0,1,2.78,2.15c-.14,1,.94,3.53-1.31,2.09-3.44-2.2-5.83-.46-8.54.91a4.29,4.29,0,0,1-1.55,1.29c-1.91.35-3.27,2-5.31,2.18s-2.57,1.65-2.28,3.5C53.85,61.74,55,64.06,54.11,66.43Z"/><path class="cls-3" d="M55.43,97.2c2.7,7.22,1.68,14.65,1,22-.43,4.54.64,6.92,5.6,6.22-3.35,2.71-6.84,1.65-10.34.37a4.69,4.69,0,0,1-1.08-3.35,27.21,27.21,0,0,0,.32-10.8,25.27,25.27,0,0,1,.89-13.76C52.75,96.22,53.74,94.78,55.43,97.2Z"/><path class="cls-4" d="M55,41.22c-3.13,7.19-6.75,14.22-8,22.11-2,1.25-2.89-.1-3.17-1.61C42.84,55.91,41,50.24,40.82,44.27a4.87,4.87,0,0,1,1.57-2.82A2,2,0,0,1,43.8,41c1.82.52,1.64,2.69,2.92,3.63,2.67-.23,2.33-3.48,4.41-4.26Z"/><path class="cls-5" d="M45.13,97.19c-6.43.2-6.68,0-5.09-5.74,1.73-6.27,1.77-12.78,3.17-19.09,2.23-1.92,3.61-1.44,3.8,1.5.41,6.42,1,12.83.31,19.25a2.54,2.54,0,0,1-1.48,1.73c-.61.22-2.76-.13-.37,1.1A1.54,1.54,0,0,1,45.13,97.19Z"/><path class="cls-6" d="M42.08,43.42q1.59,9.26,3.2,18.5c.17,1,.92,1.28,1.79,1.41-.67,1.13-.75,3.13-3,2.07-1.4-4.61-4.26-8.67-5-13.53-.35-2.35-.36-2.35-3.45-1.11-.65.13.09.84-.19.23-.08-.18.1-.18.38-.32,1-.48,1.9-.83,2.57.31A2,2,0,0,1,38,53.67c-1.36,1.16-2.73.93-4-.24-2.6-1.57-4.32,3.43-7,.93-.77-1.75-.35-3.44.23-5.13C31,44.21,36.34,43.35,42.08,43.42Z"/><path class="cls-7" d="M26.07,61.41l8.41,4.67c1.11-4.07-.2-7.88-.08-11.66,1.93-.52,4-1.57,5.29,1C39.17,60.06,41.21,65,38,69.26c-1.4,1.66-2.72,1.85-4.6.42a36,36,0,0,0-13.25-6.3,3,3,0,0,1-.52-2.72C22.06,58.53,24,60.68,26.07,61.41Z"/><path class="cls-8" d="M61.16,52.43l1.93,0c3.5,7.81,7.58,15.24,13.21,21.81,1.24,1.46,4.65,1,3.85,4.27-4,1.12-6.77-.09-8.17-4.17a11,11,0,0,0-3-4.55c-2.07-3.57-5-6.4-7.85-9.32-1.31-1.35-3.28-2.41-2.73-4.84A14.55,14.55,0,0,1,61.16,52.43Z"/><path class="cls-9" d="M45.36,96.31l-4.76-1.7L46,94.3c1.19-5.62.15-11.33.61-17C46.76,76,45.26,73.9,48,73.49c1,6.54,2.1,13.06,3.06,19.61.37,2.54,1.94,1.41,3.32,1.38,3.25-.08,6.06-3,9.54-1.41a20,20,0,0,0-8.53,4.13c-.9-.65-1.76-.91-2.43.3-1,1.16-2.1,2-3.75,1.59A24.16,24.16,0,0,1,45.36,96.31Z"/><path class="cls-10" d="M41.45,31.71a2.85,2.85,0,0,1-2-4.15c1.17-2.44,3.74-3.77,6.29-4.26a6,6,0,0,1,6.65,7.56c-.83,2.51,1.75,5.5-1.27,7.53a2.9,2.9,0,0,1-1-1C48.22,30.91,48.22,30.91,41.45,31.71Z"/><path class="cls-11" d="M51.94,122l.16,3.43a7.35,7.35,0,0,1-8.93,0c5.6,1,5.65-2.32,4.73-6.16a21,21,0,0,1-.87-6.72c-.57-2.65.37-5.33-.51-8.08-.7-2.17.53-3.81,3.29-3,2,5.92,2,12.08,2.12,18.22C51.94,120.44,51.5,121.23,51.94,122Z"/><path class="cls-12" d="M41.45,31.71c2.07-2.31,5.23-3.78,7.52-2.32,2.48,1.58,2.39,5.28,2.18,8.35-1.59,2.38-3.57,3.78-6.57,2.63-2.84-1.66-2.16-4.63-2.66-7.16Z"/><path class="cls-13" d="M39.2,40.35,5.36,6.26c-.16-1.75.79-1.38,1.78-.94Q24,22.23,40.82,39.12c1-.27,1.33.25,1.49,1.08a1.86,1.86,0,0,1-1.88.92A2.2,2.2,0,0,1,39.2,40.35Z"/><path class="cls-14" d="M43.17,125.42a8.17,8.17,0,0,0,8.93,0c3.31.92,6.63,2.27,9.92,0H72.85v1.37c-13,1.35-25.93.35-38.94,0C36.83,124.67,40.08,125.68,43.17,125.42Z"/><path class="cls-15" d="M39,55.76c-1.06-2-3-1.14-4.55-1.34l-.38-1c1.33-.26,3.08.57,4-1.84-2.28-.12-4.29,1.58-6.43.56.36-1.45,1.93-.92,2.84-1.57C39.52,46.91,39,47.11,40.47,53c1.05,4.15,4.7,7.59,3.65,12.44-.34.33-.67.67-1,1a8.26,8.26,0,0,1-1.82-.94C39.4,62.5,40,58.92,39,55.76Z"/><path class="cls-16" d="M88.11,87.23c1.13-.08.89,2.28,1.77,1.49,2.59-2.34,4.22-.32,5,1.36.83,1.88,1.58,3.88,2.78,6.47C93.36,96,90.35,94.49,88,91.61,87.43,90.13,87.09,88.65,88.11,87.23Z"/><path class="cls-6" d="M44.17,39.54c2.52.13,5,0,7-1.8a.78.78,0,0,1,0,.65l0,2c.36,3-1.73,4.84-3.42,6.7s-2.71,0-3.18-1.3a17.83,17.83,0,0,1-.5-4.3A1.32,1.32,0,0,1,44.17,39.54Z"/><path class="cls-17" d="M20,60.41l.12,3c-1.31-2-3.36-1.45-5.25-1.81-1.39-.27-3.72-.37-3.9-2.31s2-3.56,3.37-3.77,5.15-3.62,4.77,1.77C19.68,58.25,20.39,59.18,20,60.41Z"/><path class="cls-18" d="M60.07,44.35c-2.46-.15-4-1-3-3.87,8.82-3.53,13.68,1.31,15.89,8.93-1-.06-2.14.09-2.93-.84C68.58,46.83,67.17,45,65.17,44,63.55,43.12,61.59,42.09,60.07,44.35Z"/><path class="cls-19" d="M42.27,65.38l.85,1,5,4c0,1,0,2-.07,3-2.09,4.43-.43,9.12-1,13.65-.29,2.4.86,5-1,7.16,0-6.37,0-12.74.09-19.11,0-2.18-.3-3.57-2.92-2.83-.21-2-3.08-3.47-1.28-5.93A.75.75,0,0,1,42.27,65.38Z"/><path class="cls-20" d="M48.92,101.4c-2,1-1.55,2.64-.94,4.25a7.46,7.46,0,0,1-.95,6.89c-.78-4.18-3.28-8.18-1-12.68.3-.59-.54-1.76-.86-2.67.08-.29.16-.58.23-.88,1.47.21,3.29-.28,3.79,1.89C49.38,99.29,50.47,100.44,48.92,101.4Z"/><path class="cls-21" d="M59.24,55.6c1.65,4.66,6.81,6.59,8.63,11.13.36.89.76,1.78,1.14,2.67-.24.41-.48.43-.71,0L55.85,56.66C56.7,55.43,57.57,54.23,59.24,55.6Z"/><path class="cls-22" d="M39.2,40.35a6.53,6.53,0,0,1,.76.2c-.32,2.86-2.94,2.65-4.71,3.34-3,1.15-5.75,2.33-7,5.52q-.61,2.48-1.22,5C24.3,45.75,28.63,40.78,39.2,40.35Z"/><path class="cls-23" d="M108.11,104.35l8.59,10.76c-5.45-.53-6.9-5.48-10.76-6.57C106.42,107,106.46,105.27,108.11,104.35Z"/><path class="cls-24" d="M68.3,69.38a5.56,5.56,0,0,1,.71,0,5.84,5.84,0,0,1,3.39,3.92c1.16,4,4,5.24,7.75,5.16-3.83,2.53-6.38.9-8.32-2.58C70.63,73.74,69.48,71.56,68.3,69.38Z"/><path class="cls-25" d="M20,60.41c-.69-.94-2.29-1.62-.89-3.15,3.12,0,5.59,1.14,6.92,4.15C23.8,62.63,22,61.33,20,60.41Z"/><path class="cls-26" d="M59.24,55.6c-1.31-.23-2.34.45-3.39,1.06-1.2.51-1.32,1.78-1.9,2.72-2.46-1.64-.5-2.93.64-3.55,2.16-1.16,4-3.08,6.56-3.4C61,53.75,61,55.24,59.24,55.6Z"/><path class="cls-27" d="M102.53,105.49c1.35.16,3.72,1.88,2.63-1.71l1.8-.36,1.15.93c0,1.75.73,3.91-2.17,4.19A4.75,4.75,0,0,1,102.53,105.49Z"/><path class="cls-28" d="M88.11,87.23,88,91.61c-1.94-1.27-.89-4-2.67-5.43a15.19,15.19,0,0,1-3.41-4.56A15.55,15.55,0,0,1,88.11,87.23Z"/><path class="cls-29" d="M44.17,39.54c-.05.65-.09,1.3-.14,2-.31,0-.63,0-.94,0a1.79,1.79,0,0,1-.89-1.07l-1.38-1.33c1.72-1.72-.86-4.24,1.1-5.91C43.63,35,43.14,37.52,44.17,39.54Z"/><path class="cls-30" d="M7.14,5.32a1.76,1.76,0,0,0-1.78.94C2.67,5,1.87,2.06,0,0A22.81,22.81,0,0,1,7.14,5.32Z"/><path class="cls-31" d="M60.07,44.35c0-5.34,3.8-3.07,5.65-2.25,2.41,1.07,4.69,3.11,4.29,6.47C66.08,48.62,63.79,44.81,60.07,44.35Z"/><path class="cls-32" d="M42.2,40.45l.89,1.07-1,1.9c-4.13,3.15-10.17,1.86-13.88,6,.14-6,5.39-6.2,9.22-7.92.8-.36,2,.25,2.54-.94Z"/><g class="cls-33"><path d="M45.44,36.05a4.52,4.52,0,0,1,2.16.12.15.15,0,0,0,.08-.29,4.8,4.8,0,0,0-2.32-.12c-.19,0-.11.32.08.29Z"/></g><g class="cls-33"><path d="M45.3,36.06a9.62,9.62,0,0,1,3.07-.27c.19,0,.19-.27,0-.3a10.12,10.12,0,0,0-3.15.28c-.19,0-.11.33.08.29Z"/></g><g class="cls-33"><path d="M44.66,35.86a12.6,12.6,0,0,1,3.57-.31c.19,0,.19-.29,0-.3a12.77,12.77,0,0,0-3.65.32c-.19,0-.11.33.08.29Z"/></g><g class="cls-33"><path d="M44.82,35.82c1.15-.18,2.31-.32,3.46-.43.2,0,.2-.31,0-.3-1.18.11-2.36.26-3.54.44-.19,0-.11.32.08.29Z"/></g><g class="cls-33"><path d="M45.14,35.72a18.64,18.64,0,0,0,3.17-.12c.19,0,.19-.32,0-.3a18.64,18.64,0,0,1-3.17.12.15.15,0,0,0,0,.3Z"/></g><g class="cls-33"><path d="M44.35,37.19a16.41,16.41,0,0,0,2.51.32c.62,0,1.47,0,1.68-.71.06-.18-.23-.26-.29-.08-.19.66-1.18.5-1.7.47a15.21,15.21,0,0,1-2.12-.29c-.19,0-.27.25-.08.29Z"/></g><g class="cls-33"><path d="M43.52,33.66l1.17-.19a.14.14,0,0,0,.1-.18.15.15,0,0,0-.18-.11l-1.17.19a.15.15,0,0,0-.11.18.16.16,0,0,0,.19.11Z"/></g><g class="cls-33"><path d="M43.37,33.93a1.31,1.31,0,0,0,1,.08,1,1,0,0,0,.44-.2A.62.62,0,0,0,45,33.6a.42.42,0,0,1,.11-.15.15.15,0,0,0-.15-.26c-.14.08-.18.22-.26.34a.49.49,0,0,1-.32.18,1.08,1.08,0,0,1-.83,0c-.16-.11-.31.15-.15.26Z"/></g><g class="cls-33"><path d="M47.52,33.51l1-.19a2.36,2.36,0,0,1,1,0c.18.06.26-.23.08-.29a2.57,2.57,0,0,0-1.07,0l-1.1.2c-.19,0-.11.33.08.29Z"/></g><g class="cls-33"><path d="M47.32,33.59a2.35,2.35,0,0,0,2.84-.28c.14-.13-.07-.35-.21-.21a2,2,0,0,1-2.48.23c-.16-.11-.31.15-.15.26Z"/></g><g class="cls-33"><path d="M44.12,36.83A12.85,12.85,0,0,1,48.5,36l0-.29a15.41,15.41,0,0,1-3.22.84l.08.29L48.18,36l-.08-.29a14.2,14.2,0,0,1-2.81.67c-.16,0-.12.32,0,.3a16.08,16.08,0,0,0,2.57-.54c.18,0,.1-.33-.08-.29a23.08,23.08,0,0,1-2.85.54l0,.3c.86-.23,1.72-.47,2.56-.73a.15.15,0,0,0-.08-.29l-3,.43.08.29a17.72,17.72,0,0,1,5-.51l0-.3a12.89,12.89,0,0,1-5.34.62l0,.3a25.69,25.69,0,0,1,3.61-.38l0-.29a10.41,10.41,0,0,1-3.76.4v.29a29.19,29.19,0,0,1,4.35-.61l0-.3a10.46,10.46,0,0,1-3.15.48l0,.29a15.73,15.73,0,0,1,4.1-.52l0-.29a19.39,19.39,0,0,1-5,.74l0,.29a20.11,20.11,0,0,1,4.45-.29l0-.3a12.42,12.42,0,0,1-3.78.62c-.19,0-.19.31,0,.3a13.22,13.22,0,0,0,3.86-.63.15.15,0,0,0,0-.29,20.24,20.24,0,0,0-4.53.3c-.17,0-.13.3,0,.3a19.57,19.57,0,0,0,5-.75.15.15,0,0,0,0-.3,15.57,15.57,0,0,0-4.18.54.15.15,0,0,0,0,.29,10.67,10.67,0,0,0,3.23-.49c.15,0,.14-.3,0-.29a30.08,30.08,0,0,0-4.43.62c-.13,0-.15.27,0,.29a10.84,10.84,0,0,0,3.92-.4.15.15,0,0,0,0-.3,25.38,25.38,0,0,0-3.69.39c-.17,0-.11.28,0,.29a13.11,13.11,0,0,0,5.42-.63.15.15,0,0,0,0-.29,18,18,0,0,0-5.06.52c-.19,0-.1.32.08.29l3-.43-.08-.29c-.84.26-1.7.5-2.56.73-.16,0-.13.31,0,.29a24.38,24.38,0,0,0,2.93-.55l-.08-.29a16.22,16.22,0,0,1-2.49.53l0,.29A14.2,14.2,0,0,0,48.18,36a.15.15,0,0,0-.08-.29l-2.86.83a.15.15,0,0,0,.08.29A15.41,15.41,0,0,0,48.54,36c.14-.07.14-.3,0-.3a13,13,0,0,0-4.46.85c-.18.07-.1.36.08.29Z"/></g></g></g></svg>