<svg xmlns="http://www.w3.org/2000/svg" viewBox="0 0 41.57 106.21"><defs><style>.cls-1{fill:#3e3434;}.cls-2{fill:#3d3431;}.cls-3{fill:#181110;}.cls-4{fill:#afb0a5;}.cls-5{fill:#ddab9b;}.cls-6{fill:#d0b9a4;}.cls-7{fill:#3c2c25;}.cls-8{fill:#242118;}.cls-9{fill:#272722;}.cls-10{fill:#b78e81;}.cls-11{fill:#1e1816;}.cls-12{fill:#1a120b;}.cls-13{fill:#120d0b;}.cls-14{fill:#d2d2ca;}.cls-15{fill:#191711;}.cls-16{fill:#060401;}.cls-17{fill:#1a1a11;}.cls-18{fill:#b1b1a6;}.cls-19{fill:#806c56;}.cls-20{fill:#be968b;}.cls-21{fill:#60554f;}.cls-22{fill:#a09291;}.cls-23{fill:#bd9d90;}.cls-24{fill:#ccc4c3;}.cls-25{fill:#796b58;}.cls-26{fill:#2a2723;}.cls-27{fill:#58261b;}.cls-28{fill:#794e43;}.cls-29{opacity:0.2;}</style></defs><title>Asset 11</title><g id="Layer_2" data-name="Layer 2"><g id="Layer_1-2" data-name="Layer 1"><path class="cls-1" d="M8,86.12c2.45-13,5.41-26,6.67-39.25a15.56,15.56,0,0,1,7.79-7A1.64,1.64,0,0,1,24.67,41a17.1,17.1,0,0,1,2.21,7.93c1,11.83,5,23,7.66,34.44.64,2.82,1.54,5.68-2.51,6.72-5,2.24-6.08,1.55-9-5.64a23.31,23.31,0,0,0-1.61-2.81c-.58,2.54.15,4.89.75,7.26-.42,5.42-1.11,6-5.29,4.84-.8-2.93,1.87-5,1.35-7.37-1.2,1.2.51,5.66-3.09,5.15C12.29,91.12,8.4,90.53,8,86.12Z"/><path class="cls-2" d="M.81,43.05C1.87,40.46,3,37.89,4,35.26,5.71,30.56,6.9,25.53,12.81,24a3.25,3.25,0,0,0,2.37-3.87c2.75,2.41,6.58,1.6,9.6,3.22,6.06,1.14,9,4.73,9.17,11,.07,2.59,1.13,5.15,1.74,7.72-3.93-.12-2.36-4.6-4.72-6-.5-1.74.16-4.37-3.07-4-.89,1-1.25,2.67-3.12,2.38-2.73-1-5.65-2.86-7,1.75a4.16,4.16,0,0,1-.73,1.21c-3.51,1.94-7.29,3.4-10.6,5.75C4.57,44.12,2.66,44.74.81,43.05Z"/><path class="cls-3" d="M12.78,7.24C9.86,3,14.73,2.8,16.2,1.39,18.87-1.17,22,.17,24.44,2.49c2,1.91,1.25,3.75-.65,5.32-2.16.76-4.42-.62-6.57.29C15.68,8.15,14.12,8.28,12.78,7.24Z"/><path class="cls-4" d="M37.11,105.36c-11.87,1.31-23.76.87-35.65.23-.19,0-.35-.49-.59-.85,1.59-1.26,3.42-.51,5.13-.62,3.62,1.39,6.52-.24,9.32-2.27,4.18-1,8.33-1.17,12.4.51,2.53,1.92,5.74.64,8.43,1.78A2.2,2.2,0,0,1,37.11,105.36Z"/><path class="cls-5" d="M16.87,7.14c2.4-.73,5-4,6.92.67.3,3.65,1.82,7.54-2.07,10.35a1.12,1.12,0,0,1-1.1.15,3.49,3.49,0,0,1-.84-.83,3.75,3.75,0,0,1-.53-1.59c0-.35-.06-.7-.11-1-.37-.67-1.07-1-1.57-1.55C16.84,11.31,15.27,9.4,16.87,7.14Z"/><path class="cls-6" d="M40,54.08c1.44,3.2,2.52,6.28,0,9.62-.81,1.09-.67,3.12-2.58,3.07s-1.73-2.11-2.29-3.36A8.31,8.31,0,0,1,34.9,61a3.38,3.38,0,0,1,1.26-.75,2.27,2.27,0,0,1,1.93.39C37.76,60,37,60,36.63,59.44a3.27,3.27,0,0,1-.49-1.38,3,3,0,0,1,.36-1.27C37.62,55.83,38.49,54.53,40,54.08Z"/><path class="cls-7" d="M20.86,18.05a2.78,2.78,0,0,0,.86.11c2.82.69,1.39,3.86,3.06,5.22-2.33,1.28-4.79-.37-7.33.42-1.64.51-1.12-2.59-2.27-3.64,0-1.7,1.94-1.26,2.51-2.31A2.39,2.39,0,0,1,20.86,18.05Z"/><path class="cls-8" d="M31,36.1c3.44.52,2.05,4.85,4.72,6,.59,1.27.1,2.91,1.37,3.93-.57,2,.29,3.81.69,5.68s.73,3.85-.85,5.47l.09.14A1.49,1.49,0,0,1,35,57C35.42,49.68,32.44,43,31,36.1Z"/><path class="cls-9" d="M14.86,103.06c-2.5,4.17-5.75,2-8.86,1.06,5,.29,7.54-1.72,6.8-7.05a36,36,0,0,1,0-5c1.6-.71,2.72-.06,3.6,1.28C17.93,96.92,17.23,100.12,14.86,103.06Z"/><path class="cls-10" d="M16.87,7.14c.05,2,2.89,3.62,1,6a2.66,2.66,0,0,1-.05,3.09c-.3.32-.61.63-.94.93-3.39-2.46-3.55-6.25-4.08-9.9C14.13,6.72,15.47,5.77,16.87,7.14Z"/><path class="cls-11" d="M16.27,93.28l-3.51-1.19c-2.11-1.56-7.64-.41-4.73-6,5.26,6.06,7.81,5.61,10.45-2,.93,3.42,0,6.27-1.62,9Z"/><path class="cls-12" d="M24.89,34.1l3-2A17.45,17.45,0,0,1,24.67,41l-1.94-1a2.81,2.81,0,0,1-3.53.6c-1.74-2.57,1.44-3.29,1.88-5C22.19,34.7,23.11,33.3,24.89,34.1Z"/><path class="cls-13" d="M18.92,40.08l3.82,0c0,1-.06,2.09-1.21,2.38a7.84,7.84,0,0,0-5.66,5.46c-.1.3,0,1.63-.83.39a4.49,4.49,0,0,1-.34-1.41c.15-1.94.29-3.88.44-5.83.23-1.19,1.09-1.46,2.14-1.44C17.85,39.69,18.36,40,18.92,40.08Z"/><path class="cls-14" d="M31.75,91c.44.45,2.31-.66,1.45,1.13-2.89,6-2.05,8.67,3.64,10.89-1.55,1.51-3.45.91-5.26.86-5.24-2.84-2.84-7.55-2.85-11.67C29.44,91.1,30.25,90.19,31.75,91Z"/><path class="cls-2" d="M36.9,57.15c.63-3.71-2.65-7.47.16-11.15,1,2.7,2,5.39,3,8.08C40.36,56.51,38.83,57,36.9,57.15Z"/><path class="cls-15" d="M17.79,41.1A2.37,2.37,0,0,0,15.14,41c-3.32-2.5-4.56,2.14-7.17,2.09-1.13.45-1.29-.14-1.12-1.07,3.38-1.46,5.63-5.21,9.88-4.93C18.4,38.1,18.84,39.41,17.79,41.1Z"/><path class="cls-16" d="M31.75,91a2,2,0,0,0-1.93,1,6.08,6.08,0,0,1-4.74.76,3.7,3.7,0,0,1-1.3-.79c-1.58-3-2.64-6,0-9,2,3.23,2.08,8.67,8.22,7.11A1.61,1.61,0,0,1,31.75,91Z"/><path class="cls-17" d="M6.85,42.06,8,43.13c-1.75,2-4.14,2.42-6.58,2.16C-.12,45.14-.53,44.2.81,43.05,2.89,43.13,5,43.15,6.85,42.06Z"/><path class="cls-18" d="M31.84,103.06l5,0,4.73,1.75c-1.54,2-3.15.12-4.46.57L36.8,105C35.51,103.46,32.48,106.28,31.84,103.06Z"/><path class="cls-19" d="M35,57l2,.31c-.19,2,2,2.18,2.83,3.69H34.9C34.93,59.65,35,58.31,35,57Z"/><path class="cls-20" d="M16.86,17.14c0-.3,0-.61,0-.91.76-1.09,1.47-2.37,3.05-1,0,.23,0,.46,0,.69-.39.77.33.67.67.86l.3,1.28-3.16-.2Z"/><path class="cls-21" d="M24.89,92.4c-1.06,2.29-2,1.93-2.39-.26-.45-2.6-.56-5.26-.81-7.89C21,83.07,20.87,82,22,81a1.9,1.9,0,0,1,1.77,2C23.7,86.18,23.43,89.4,24.89,92.4Z"/><path class="cls-22" d="M22,81c-.12,1.08-.23,2.17-.35,3.26-.34,1.33-.67,2.65-1,4-1.19-3.39-.53-6.72.14-10.25C22.36,78.77,21.6,80.09,22,81Z"/><path class="cls-23" d="M24.89,34.1c-.93.82-1.36,2.33-3,2.15-1.7.56-3.42,1.61-5-.19-1.36-2.37-.36-3.74,2-4.21S24.06,30.23,24.89,34.1Z"/><path class="cls-24" d="M6.25,39c1.27-2.61,1.88-4,2.58-5.25.46-.82,1.05-1.57,1.58-2.35.66.69,1.59,1.28,1.92,2.1a2.07,2.07,0,0,1-1.09,2.9C9.94,37,8.69,37.73,6.25,39Z"/><path class="cls-25" d="M16.86,36.06c1.65.75,3.43-1.88,5,.19.35,2.32-2.58,2.08-3,3.83l-1.13,1c-.35-1.32-.7-2.64-1.06-4C16.78,36.78,16.82,36.42,16.86,36.06Z"/><path class="cls-26" d="M27.77,104c1.71-4.37-1.08-8-2.05-11.89a3.44,3.44,0,0,1,4.1-.1c1.35,3.54-1.58,7.88,2,11,1.27,1.63,3.79.09,5,2C33.78,104.79,30.58,106.25,27.77,104Z"/><path class="cls-27" d="M19.88,15.22l-3.05,1c-.27-1.24.54-2.12,1-3.11a18.26,18.26,0,0,1,2.86,0c.79.1,1.69.66,1.27,1.51C21.77,15,20.61,15,19.88,15.22Z"/><path class="cls-28" d="M20.56,16.77l-1.33-.19.66-.67Z"/><g class="cls-29"><path d="M17.14,8.79a.15.15,0,0,0,0-.3.15.15,0,0,0,0,.3Z"/></g><g class="cls-29"><path d="M14.51,9.51c.45-.13.9-.27,1.35-.37a2.58,2.58,0,0,1,1.32-.06c.19.06.26-.23.08-.29a2.66,2.66,0,0,0-1.37,0c-.5.1-1,.25-1.46.39-.18.06-.11.35.08.29Z"/></g><g class="cls-29"><path d="M14.32,9.41a3.24,3.24,0,0,0,3.34-.19c.16-.11,0-.37-.15-.25a3,3,0,0,1-3,.18c-.17-.09-.32.17-.15.26Z"/></g><g class="cls-29"><path d="M15.39,9.92a10.68,10.68,0,0,1,2.28-.68c.18-.06.11-.35-.08-.29a11.19,11.19,0,0,0-2.35.71c-.17.1,0,.35.15.26Z"/></g><g class="cls-29"><path d="M20.43,9.23A5,5,0,0,1,21.81,9,2.76,2.76,0,0,1,23,9.52c.16.11.31-.15.15-.26a3.09,3.09,0,0,0-1.32-.56A4.88,4.88,0,0,0,20.35,9c-.19,0-.11.32.08.28Z"/></g><g class="cls-29"><path d="M19.79,9.36a6.31,6.31,0,0,0,1.78.23A1.77,1.77,0,0,0,23,9c.12-.15-.14-.3-.26-.15-.27.38-.9.42-1.32.42a6.73,6.73,0,0,1-1.54-.22.15.15,0,0,0-.08.29Z"/></g><g class="cls-29"><path d="M20.59,9.24a6.49,6.49,0,0,1,2.56-.09c.19,0,.27-.25.08-.29A6.93,6.93,0,0,0,20.51,9c-.18,0-.1.33.08.29Z"/></g></g></g></svg>