<svg xmlns="http://www.w3.org/2000/svg" viewBox="0 0 970.94 684.49"><defs><style>.cls-1{fill:#5d5e5e;}.cls-2{fill:#1a191c;}.cls-3{fill:#1a1d22;}.cls-4{fill:#15171d;}.cls-5{fill:#262a33;}.cls-6{fill:#3a3b3e;}.cls-7{fill:#42454b;}.cls-8{fill:#404246;}.cls-9{fill:#020103;}.cls-10{fill:#25272a;}.cls-11{fill:#2f3037;}.cls-12{fill:#3c4049;}.cls-13{fill:#030610;}.cls-14{fill:#191b20;}.cls-15{fill:#4d505a;}.cls-16{fill:#15161b;}.cls-17{fill:#474647;}.cls-18{fill:#020204;}.cls-19{fill:#2f2f31;}.cls-20{fill:#2e3034;}.cls-21{fill:#424547;}.cls-22{fill:#5b5959;}.cls-23{fill:#4d4e52;}.cls-24{fill:#2c2f3a;}.cls-25{fill:#615f5f;}.cls-26{fill:#37353b;}.cls-27{fill:#3c3b3e;}.cls-28{fill:#09090a;}.cls-29{fill:#20232d;}.cls-30{fill:#47484a;}.cls-31{fill:#595a5f;}.cls-32{fill:#2c2e34;}.cls-33{fill:#262627;}.cls-34{fill:#040304;}.cls-35{fill:#202026;}.cls-36{fill:#44464d;}.cls-37{fill:#646466;}.cls-38{fill:#484a4f;}.cls-39{fill:#191a1e;}.cls-40{fill:#605e61;}.cls-41{fill:#525357;}.cls-42{fill:#414549;}.cls-43{fill:#403d40;}.cls-44{fill:#0c0c0d;}.cls-45{fill:#3d3a48;}.cls-46{fill:#21252e;}.cls-47{fill:#525556;}.cls-48{fill:#0f141e;}.cls-49{fill:#484747;}.cls-50{fill:#333131;}.cls-51{fill:#666464;}.cls-52{fill:#555b61;}.cls-53{fill:#5f5f5d;}.cls-54{fill:#323435;}.cls-55{fill:#676563;}.cls-56{fill:#595759;}.cls-57{fill:#3f3c40;}.cls-58{fill:#666369;}.cls-59{fill:#4d525e;}.cls-60{fill:#030305;}.cls-61{fill:#48474c;}.cls-62{fill:#0a0c0c;}.cls-63{fill:#5b5550;}.cls-64{fill:#212325;}.cls-65{fill:#625655;}.cls-66{fill:#575456;}.cls-67{fill:#6e6a65;}.cls-68{fill:#2a2e2f;}.cls-69{fill:#625954;}.cls-70{fill:#262323;}.cls-71{fill:#6d665f;}.cls-72{fill:#27303f;}.cls-73{fill:#17181a;}.cls-74{fill:#4e4c4b;}.cls-75{fill:#383437;}.cls-76{fill:#595856;}.cls-77{fill:#4c4a47;}.cls-78{fill:#3c3a3e;}.cls-79{fill:#5e5853;}.cls-80{fill:#1e222a;}.cls-81{fill:#050710;}.cls-82{fill:#020102;}.cls-83{fill:#393739;}.cls-84{fill:#0c0d13;}.cls-85{fill:#07060a;}.cls-86{fill:#2e3037;}.cls-87{fill:#0b0d16;}.cls-88{fill:#121317;}.cls-89{fill:#0d0e14;}.cls-90{fill:#181c22;}.cls-91{fill:#030308;}.cls-92{fill:#0d0f16;}.cls-93{fill:#010102;}.cls-94{fill:#141b29;}.cls-95{fill:#0d101a;}.cls-96{fill:#43454f;}.cls-97{fill:#3e4146;}.cls-98{fill:#53565f;}.cls-99{fill:#404553;}.cls-100{fill:#1e1f22;}.cls-101{fill:#141314;}.cls-102{fill:#212122;}.cls-103{fill:#50545c;}.cls-104{fill:#5d5f65;}.cls-105{fill:#313235;}.cls-106{fill:#292c30;}.cls-107{fill:#928e8e;}.cls-108{fill:#050507;}.cls-109{fill:#54585b;}.cls-110{fill:#555259;}.cls-111{fill:#42434b;}.cls-112{fill:#1c1c22;}.cls-113{fill:#534f50;}.cls-114{fill:#22232a;}.cls-115{fill:#494546;}.cls-116{fill:#252426;}.cls-117{fill:#333133;}.cls-118{fill:#5c585b;}.cls-119{fill:#1b1a1f;}.cls-120{fill:#4f4c4e;}.cls-121{fill:#080609;}.cls-122{fill:#04050a;}.cls-123{fill:#1a1b1e;}.cls-124{fill:#30323b;}.cls-125{fill:#010107;}.cls-126{fill:#6b6e78;}.cls-127{fill:#55575d;}.cls-128{fill:#565862;}.cls-129{fill:#14171e;}.cls-130{fill:#2c2c2d;}.cls-131{fill:#323538;}.cls-132{fill:#363a3c;}.cls-133{fill:#615f61;}.cls-134{fill:#383a3e;}.cls-135{fill:#5a595c;}.cls-136{fill:#706d6d;}.cls-137{fill:#343942;}.cls-138{fill:#46474a;}.cls-139{fill:#5d5e61;}.cls-140{fill:#707276;}.cls-141{fill:#0a0a0c;}.cls-142{fill:#484c4f;}.cls-143{fill:#34373b;}.cls-144{fill:#1d2023;}.cls-145{fill:#212428;}.cls-146{fill:#282c31;}.cls-147{fill:#2a2b32;}.cls-148{fill:#292e3c;}.cls-149{fill:#111215;}.cls-150{fill:#3d4353;}.cls-151{fill:#16171e;}.cls-152{fill:#181e24;}.cls-153{fill:#323942;}.cls-154{fill:#343c44;}.cls-155{fill:#576579;}.cls-156{fill:#464f5d;}.cls-157{fill:#2e2d2f;}.cls-158{fill:#a1a2a1;}.cls-159{fill:#26282b;}.cls-160{fill:#242a36;}.cls-161{fill:#1b1d24;}.cls-162{fill:#77828a;}.cls-163{fill:#23242a;}.cls-164{fill:#6b676a;}.cls-165{fill:#211f24;}.cls-166{fill:#323233;}.cls-167{fill:#7e7c7d;}.cls-168{fill:#656569;}.cls-169{fill:#898587;}.cls-170{fill:#7b7677;}.cls-171{fill:#292f36;}.cls-172{fill:#50525b;}.cls-173{fill:#6a6b74;}.cls-174{fill:#7a797a;}.cls-175{fill:#8f8a90;}.cls-176{fill:#2a2e3d;}.cls-177{fill:#404959;}.cls-178{fill:#817d82;}.cls-179{fill:#08070e;}.cls-180{fill:#6d707d;}.cls-181{fill:#363b44;}.cls-182{fill:#353e4c;}.cls-183{fill:#595763;}.cls-184{fill:#030307;}.cls-185{fill:#6f6c6e;}.cls-186{fill:#515c63;}.cls-187{fill:#363c3d;}.cls-188{fill:#383432;}.cls-189{fill:#373331;}.cls-190{fill:#3d4048;}.cls-191{fill:#433c3f;}.cls-192{fill:#060506;}.cls-193{fill:#433d39;}.cls-194{fill:#070707;}.cls-195{fill:#010001;}.cls-196{fill:#1e2025;}.cls-197{fill:#212b3c;}.cls-198{fill:#2e2b2a;}.cls-199{fill:#252022;}.cls-200{fill:#48474e;}.cls-201{fill:#030205;}.cls-202{fill:#2f3239;}.cls-203{fill:#3a434d;}.cls-204{fill:#505a6f;}.cls-205{fill:#2f323f;}.cls-206{fill:#010103;}.cls-207{fill:#484d58;}.cls-208{fill:#6d7881;}.cls-209{fill:#22242b;}.cls-210{fill:#464652;}.cls-211{fill:#04040a;}.cls-212{fill:#71737f;}.cls-213{fill:#2b303a;}.cls-214{fill:#151822;}.cls-215{fill:#5b6170;}.cls-216{fill:#5e5e6a;}.cls-217{fill:#737381;}.cls-218{fill:#625a58;}.cls-219{fill:#383942;}.cls-220{fill:#32323b;}.cls-221{fill:#0d111f;}.cls-222{fill:#908f95;}.cls-223{fill:#434c59;}.cls-224{fill:#5b6370;}.cls-225{fill:#787b81;}.cls-226{fill:#0d1014;}.cls-227{fill:#565963;}.cls-228{fill:#5f626f;}.cls-229{fill:#4e525d;}.cls-230{fill:#5d5f67;}.cls-231{fill:#10161f;}.cls-232{fill:#4e535c;}.cls-233{fill:#5f6167;}.cls-234{fill:#3b424c;}.cls-235{fill:#515e64;}.cls-236{fill:#030510;}.cls-237{fill:#6a6d70;}.cls-238{fill:#687d91;}.cls-239{fill:#1c1c1d;}.cls-240{fill:#191e2a;}.cls-241{fill:#353c4d;}.cls-242{fill:#2c2f37;}.cls-243{fill:#71788b;}.cls-244{fill:#1c1e23;}.cls-245{fill:#414552;}.cls-246{fill:#414757;}.cls-247{fill:#313745;}.cls-248{fill:#737b89;}.cls-249{fill:#5d6470;}.cls-250{fill:#82868c;}.cls-251{fill:#565d69;}.cls-252{fill:#151312;}.cls-253{fill:#020203;}</style></defs><title>Asset 6</title><g id="Layer_2" data-name="Layer 2"><g id="Layer_1-2" data-name="Layer 1"><path class="cls-1" d="M299.29,137.23c-5-.38,10.57-13.3,5-.68C303.13,136.34,303.38,139.19,299.29,137.23Z"/><path class="cls-2" d="M649.25,325.2c-4.09,22.11,160.67,7.94,62,37.6.83.46-4.69,10.64,11.51,19.13,49.7-17.22,35,21,9.23,19-46.46-3.66-29-18.43-44.09-14.45-32.4,25.47-46.19-4.73-10.2-6.68,28.46-33.11-137.84,21.87-70.59-49.56C619.23,330.38,644.65,351.71,649.25,325.2Z"/><path class="cls-3" d="M696.28,248.22c-142.85,105-114.11-3.56-91.54-5.38,18.45-9.75,2.45,49.37,9.93,42-1.46-35.69,13.89-40.27,20.88-15.79,11.93-46.11,47,4.48,33.49-32.83-1.55-11.37-24.34,6.18-40.67,10.26-62.42-25.28,84-23.06,98.18-32.26C729.51,254.37,701.85,211.53,696.28,248.22Z"/><path class="cls-4" d="M226.22,562.8C149,694,217.13,425,227.7,450.73c4.72,26.78,16.18,78.57,20,19C292.34,523.07,324.65,518.28,226.22,562.8Z"/><path class="cls-5" d="M294.74,521.2c-1.54-10.79-2.76-16.11-5.32-10.54-18.1,21.16-32.07-40.61-41-37.54-3.53-12.82,3.1,94.91-24.05-20.83-22,31.26-35.61,184.56-38.2,145.47,9.29-23.88.55-183.52,40.61-186.3,19.6-15.54-1.4,83.9,13,48.36,6.78-43.93,32.9,49.84,38.88,40.75C312.14,491,331.29,494.53,294.74,521.2Z"/><path class="cls-6" d="M534.32,546.12C517.6,598,494.93,356.64,524.68,406.35c-2.43,40,28.89,49.54,66.7,119.39-36,1.42-39.66-38.64-54.23-54.64C551.51,505.71,532.28,482.18,534.32,546.12Z"/><path class="cls-7" d="M416.34,428.08c-41-9.15-52.42-10.82-64.29-9.56C316.76,372.07,479.2,375.35,416.34,428.08Z"/><path class="cls-8" d="M658.24,525.05c-11.92-1.91-98.32-34.68-61.67-57.28,41.75-.5,88.2,59.07,84.87,24C662.06,458,724.76,493,658.24,525.05Z"/><path class="cls-9" d="M513.37,397c-81-27.25-12.4-94.91,9.09-15-4.64-75,35.33,1.51,36.92,9.76C537,415.15,494.35,367.09,513.37,397Z"/><path class="cls-10" d="M589.23,486.08c21.75,30.85,96.83,32.7,48.74,43.6C593.1,512.43,600,538,591.1,532.83c21.16-17.08-9.38-19.93-32.88-37.66C560.28,485.53,583,467.93,589.23,486.08Z"/><path class="cls-11" d="M589.23,486.08c-19.83-115.43,1.64-49.84,64.51,3.36,39.36,38.16-13.7-57.77,35.23,4C677.74,536.66,600.83,436.54,589.23,486.08Z"/><path class="cls-12" d="M331.42,485.25C308,514.53,313,484,274.78,494.51c15.31-12.28,7.16-117.7,40.63-83.55,20.82,32.18-11.92,1.45-15.31,20,14.65-20,8.89,15,10,5.24,8.7-21.81,4.73,43.52-1.06,39C307.24,452.66,276.55,463.78,331.42,485.25Z"/><path class="cls-13" d="M599,366.87c13.89-1.27-13.48,13.07,101.22,88.13-18.94,23-17.37,26.65-63.92-36.43C626.29,423.51,542.76,334.36,599,366.87Z"/><path class="cls-14" d="M314.2,476.17c24.09-20.59-11.27-88.64,9.24-66.56,52.24,47-3.18,19.58,19.71,47.09C376,417.84,364.59,499.55,314.2,476.17Z"/><path class="cls-15" d="M413.32,396.14c30.35-20.47-41.52,4.73-23.52-31.26C437.41,357.1,471.62,441.72,413.32,396.14Z"/><path class="cls-16" d="M664.37,453c50.62,18-7.92,67.48-103.08-62.93C557.46,374.48,649.05,480,664.37,453Z"/><path class="cls-17" d="M748.23,351.13c43.54,48.77,9.64,71.82,2.68,24C746.46,382.09,683.08,379.85,748.23,351.13Z"/><path class="cls-18" d="M584.2,262.2c17.47,32.66,53.12,66.13-20.14,22.71C572,278.28,567.65,210.52,584.2,262.2Z"/><path class="cls-19" d="M748.23,351.13c-28.55,18.73-40.43,25,9.73,24.55-1.46,6.13-1.92,44.47-6.44,8.77-.94-7.46-92.87,2.3-13.07-37.16C678.8,343.65,736.62,325.79,748.23,351.13Z"/><path class="cls-20" d="M709.14,233.32c36.65,3.32.31-30.39,4.39-38.9,12,9.8,105.73-33.65,85.54-3.3,3-7.79-63.3,17.79-34.3,15.73,26.38,13.45-13.74,11.64-42.88-1.77C721.18,210.08,749.41,232,709.14,233.32Z"/><path class="cls-21" d="M349.19,418.13c10.34-6.08,45.7-6.61,33.21,33.07C378.37,451.35,358,468.07,349.19,418.13Z"/><path class="cls-22" d="M542.32,496.08c-32-71.44,21.12-9.2,22.08,29.05C558.1,497,571.14,606.37,542.32,496.08Z"/><path class="cls-23" d="M752.13,217.32c-.46,2.49,30-3.1,15.41-7.68-52.07,3.43,9.76-20.09,116.78-44.21C838.53,171.07,801.29,211.4,752.13,217.32Z"/><path class="cls-24" d="M284.39,473.1c-12.81,23,6.05,13.68,20.67,17.52,21.2,4,12.17,24.18-8.79,22.58,6.57.46,30.24-16.62,6.26-18.34C236.25,534.86,284.26,448.83,284.39,473.1Z"/><path class="cls-25" d="M954.25,92.23c45.28-4.59-15,33.18-23.47,21.56,120.89-33.51-179.21,7.34-81.76-21.9,8.44,6.39,91.26-38.63,62.29-18C862.59,99.4,858.11,99.37,954.25,92.23Z"/><path class="cls-26" d="M468.61,372.4c-19.19,14.3-4.41,17.67-13.07-57.33C513.31,336.83,486.34,311.84,468.61,372.4Z"/><path class="cls-27" d="M757.26,436.12c1.91,40.53-67.27,27.19-51.66-3.6C723.68,439.2,719.14,461.28,757.26,436.12Z"/><path class="cls-28" d="M455.2,381c27.18,19.15-109.54-25.2-75.46-18.4C493.16,329.59,390.59,375.38,455.2,381Z"/><path class="cls-29" d="M610.19,301c13.21.75,70.74,57.24,18.92,31.25C636.68,324.38,576.92,306,610.19,301Z"/><path class="cls-30" d="M560.4,547.88c4.2-5.31,11.52-38.28,27.23-31.16C599.87,530.14,593.28,540.81,560.4,547.88Z"/><path class="cls-31" d="M514.49,462.86c-2.72,12.06,14.45,13.72,3.82,91.32C525.41,545.21,503.52,561.34,514.49,462.86Z"/><path class="cls-32" d="M753.26,378.18c32.74,61.88-65,28.48-28.06,18C742,389.28,745.55,413.34,753.26,378.18Z"/><path class="cls-33" d="M546.38,510c13.16,25.92-33.19,56.8-13.55,3.78C532.64,506.91,534,505.59,546.38,510Z"/><path class="cls-34" d="M349.19,418.13c15.2,36.24,37.32,65.62-29-10.86C334.59,409.89,341.72,409.05,349.19,418.13Z"/><path class="cls-35" d="M468.61,372.4c-4.1-1.83-3-5.49,10.14-40.93C479.44,333.2,506.89,336.32,468.61,372.4Z"/><path class="cls-36" d="M513.24,458.15c-13.9-22.2-10.23-76.62-6.8-5.11C483,394,510.83,353.18,513.24,458.15Z"/><path class="cls-7" d="M413.58,428.93c-1.32,9.41-16.15,28.33-30-.67C376.39,417.88,383.63,422,413.58,428.93Z"/><path class="cls-37" d="M928.1,116.13c-12-.45-90.52,18.69-75.21,32.08C806.82,142.24,804.67,131.82,928.1,116.13Z"/><path class="cls-38" d="M744.34,415.06c-13.52-3.71,1.76-29.53,14.91,8.59C758.75,440.61,760.37,435.07,744.34,415.06Z"/><path class="cls-39" d="M385.2,429.31c-2.79,3.44,19.87,12.19,10.94,16.61C386.7,450.78,372,456.31,385.2,429.31Z"/><path class="cls-40" d="M658.24,525.05c4-1.92,2.24-13.27,28-16C682.21,516.46,672.15,522.59,658.24,525.05Z"/><path class="cls-41" d="M702.19,432.19c6.2,11.05,15.72,37.23-.19,15.13C693.38,447.59,691.13,408.64,702.19,432.19Z"/><path class="cls-42" d="M823.46,140.07c22.32,7,13.65-1.38,58.9,14.75C871.48,151.73,830,155.6,823.46,140.07Z"/><path class="cls-43" d="M748.43,350.33c5.38-11.69-34.4-7.34-15.36-11.44C741.76,334.06,757.55,335.67,748.43,350.33Z"/><path class="cls-29" d="M682.34,343c-2.37,4.86-41.4-18.23-11.66-7.8C670.33,336.36,675.82,336.19,682.34,343Z"/><path class="cls-44" d="M416.34,428.08c-3.81.84,11-20.16,15.79-11.19C427.26,416.22,434.73,420.16,416.34,428.08Z"/><path class="cls-45" d="M512,518.28c-.78-12.23,6.77,20.28,1.43,32.34C513.33,543.78,513.41,533.41,512,518.28Z"/><path class="cls-46" d="M696.28,248.22c3.91-6.17-1.73-24.77,9.6-15.8C698.39,230.76,703.72,235.46,696.28,248.22Z"/><path class="cls-31" d="M506.44,453c2.25,13.72,1.53,9.14,0,0C511.86,446,518.08,502.89,506.44,453Z"/><path class="cls-45" d="M509.47,486.28a40,40,0,0,1,2,21.59C511.43,500.62,508.89,493.59,509.47,486.28Z"/><path class="cls-47" d="M882.24,154.17c-3.53-3.19,15.65,2.63,6,10.05C887,161.6,888.1,164.56,882.24,154.17Z"/><path class="cls-42" d="M885.16,156c3.23-.64,6.67,9.86-1,9C883.46,161.39,884.13,164.27,885.16,156Z"/><path class="cls-43" d="M718.54,341c-9.72-.44-6.48-.25,0,0C722.91,340.8,686.11,344.28,718.54,341Z"/><path class="cls-43" d="M682.34,343c8.49.38,5.66.13,0,0C671.94,341,712.43,341.76,682.34,343Z"/><path class="cls-48" d="M704.47,448c.18,1.86,1.87.47-4.23,7C703.8,455.55,692.76,448.43,704.47,448Z"/><path class="cls-7" d="M396.13,445.92c-.58-1.35,0,0,1.32-2.25C399,444.24,402.47,444.12,396.13,445.92Z"/><path class="cls-49" d="M919.21,67.2C834,109.36,829.92,112.66,856.83,96c-20.29-2.85-36.56,5.62-14.79,7.28-65-11.07,69.59-7.4,91.49-63.34-.07,1-2.53,3.45-8.48,6.8-216.72,87.05-56.35-1.22-45.67-17.23C909.93-.7,775.12,101.4,745.81,65.77c-18,5.68-42.69,11.52,6.57-9.52,27.26-13.59,33.22-14.71,31.87-10.94C726.41,117.46,887.65,5.19,897.07,5.87c-4.78,41.57-70.56,63-54,66.22C888.11,71.31,1005.78-26.2,919.21,67.2Z"/><path class="cls-50" d="M719.22,71.18c8.08,1.94,42.26-20.38,47.68-13.55C708.06,102,860.65,47,888.88,13.3c16.36,25.4-120.67,73.77-61.58,66.6,42.05-3.18,74.42-26,113.55-45.24-9.17,31.85-108.67,89-174.09,46.66,22.66,3.05,140,16.22,146.92-27.41-14.22,19.17-190.86,60.79-70,0C903.05,18.19,816,68.06,779.57,75.75,760.78,70.55,631.44,99.1,719.22,71.18Z"/><path class="cls-51" d="M893.22,56.21c-6,5.57-83.43,32.93-59.18,12.06C873.37,60.12,919-15,884,9.25c-14.44,16-40.62,36.58-67.79,44.94C840.2,50.9,875.8,6,896.86,0,913.77,34.42,788,92.79,893.22,56.21Z"/><path class="cls-52" d="M314.34,129.2c-2.37,4.82,72.18-20.63,62.09-6C332.87,148.46,361,143.83,314.34,129.2Z"/><path class="cls-53" d="M893.22,56.21c31.41-29.49,101.6-60.09,26,11C953.08,34.45,969,6.43,893.22,56.21Z"/><path class="cls-54" d="M314.27,130.08c3.44,4.12,58.84,8.79,30.32,16.2C347.88,148.73,281.23,134.74,314.27,130.08Z"/><path class="cls-55" d="M781.23,67.19c-33.46,17.29-4.55-22.31,6.68-25C794.94,49.87,755.57,65.91,781.23,67.19Z"/><path class="cls-56" d="M328.34,279.12c8.9-2,46.14-50.65,44.37-13.08,17.46-4,47,14.09,12.64,49.16,21.3,29.86,19.29,64-44,27.69-4.18-26.19,45.2,12.9,37.76-2.31-43-16.29,31.58-67.66-7.77-59.85-9.06,11.66-25.78-5.79-5.17,25.45,5.87,16.27-22.66,45.47-9.34,9.23,12.42-15.85-36.75,28.9-5.64-38.48C351.4,284.91,338.8,294.83,328.34,279.12Z"/><path class="cls-57" d="M342.21,339.28c39.31,35.72,52.21-9.35,81.88,13.16-48.08,15.46-59.79,6.71-97.41,18.11,18.23-9.32-54.73-53.72-29.85-65.47C304.32,302.83,347.14,313.76,342.21,339.28Z"/><path class="cls-58" d="M301.2,335.05c62.8,10.52-26.86,43.08-43.58,30.08,20.23-33.5,43.48-29.87,18.34-50.35C286.64,308.94,312.14,306.16,301.2,335.05Z"/><path class="cls-59" d="M119.3,502.11c20.62-41.06,98.56-112.1,37.68-1.65C138,514.57,179.26,447.2,119.3,502.11Z"/><path class="cls-60" d="M385.14,210.27c5.89-6.29-54.83-71.91,29.5-32-2.14,19.86-14.28,12.33-13.57,16.11C405.39,194.35,422,232.93,385.14,210.27Z"/><path class="cls-61" d="M402.41,291.23c.15-15.05-53-30.54-28.32-40,.62,22.21,16.6-6.71,27.09-9.42C425.12,271.46,441.18,233.21,402.41,291.23Z"/><path class="cls-62" d="M301.15,136.28c44.07-2.81,14.9,17.43,67.22-6.37C382,170.25,422.17,183.44,301.15,136.28Z"/><path class="cls-63" d="M87.32,615c73.11-97.07-97.46,74.75-71.9,19.21,17.58-5.35,52.14-59.11,60.91-53.27C75.07,586.31,22.9,633.83,55,616,84.69,581.47,143,563.6,87.32,615Z"/><path class="cls-64" d="M385.14,210.27c2.86,4.78,33.81,1.93,14.07-7.42-10.58-26.66,2.41-12.17,8.58-15.28.76-15.39,21.35,35.21,18.22,43.4C422.61,232.11,377.89,224.68,385.14,210.27Z"/><path class="cls-65" d="M272.38,318.14c21.2,9.24,11.32,53.6-15.17,18.87C223.4,360.34,226.12,338.29,272.38,318.14Z"/><path class="cls-66" d="M392.4,252.09c-18.47,16-36.65-22.09,13.08-31.67C415.82,224,401.13,238.93,392.4,252.09Z"/><path class="cls-15" d="M231.39,346.12c31.28-3.47-8.54,35.36-47.38,46.38C203.91,373.89,194.31,390.85,231.39,346.12Z"/><path class="cls-67" d="M45.44,609.17c-84.17,82.72,46.5-18.45,55.89-24.72C73.69,615.72-72.72,703.33,45.44,609.17Z"/><path class="cls-68" d="M340.3,151.2c6.24,6.48,15-47.3,42.79,52.81C375.5,181.27,364.75,168.84,340.3,151.2Z"/><path class="cls-69" d="M154.59,592.25c-18.51,28.12-187.2,149.33-92.4,59.82C-2.2,726.43,111.44,618.45,154.59,592.25Z"/><path class="cls-70" d="M192.33,526.09c20.95,9.27-83.85,120.8-64.2,70.37C153.22,590.4,181,553.08,192.33,526.09Z"/><path class="cls-71" d="M45.44,609.17c1.85-13.85,53.41-36.16,8.09-34.12C69.58,555.36,123.75,538.87,45.44,609.17Z"/><path class="cls-72" d="M198.15,389c55.5-52.4-18.59,21.57-7,43.15C170.52,444.9,168.74,435.59,198.15,389Z"/><path class="cls-73" d="M313.55,305.19c-24.57,18.86-3.38-30.95,19.13-21.9C332.57,292.89,315,291.06,313.55,305.19Z"/><path class="cls-74" d="M86.23,565c1.81-14.43-42.66,21.64-1.13-21.16C86.53,545.51,96.05,561.61,86.23,565Z"/><path class="cls-74" d="M119.3,502.11c42.86-52.34,10,21.54-34.19,41.76C86.32,535,106.54,534.45,119.3,502.11Z"/><path class="cls-75" d="M371.32,245.16c1.48,11.77,21.37,1.62,12.3,16.43C375.82,269.85,369.5,260.73,371.32,245.16Z"/><path class="cls-59" d="M118.32,504c11.44,6-33.83,38.48-12.12,16.72C107.44,517.23,108.62,521.74,118.32,504Z"/><path class="cls-76" d="M191.51,548.22c9.1-8.28-4.38,48.29.64,12C192.42,544.18,156.67,582.67,191.51,548.22Z"/><path class="cls-59" d="M194.41,395.18c-3.34,6.6,1.1,3.52-20.36,37.69C176,426.69,172.81,427.61,194.41,395.18Z"/><path class="cls-77" d="M190.23,574c-.21,5.1-.36,8-5.15,34.19C181.22,603.88,180.8,603.77,190.23,574Z"/><path class="cls-78" d="M407.44,224.25c-2.87-8.86-22.61,11.45-23.21-1.07C385.37,223.8,409,215.39,407.44,224.25Z"/><path class="cls-79" d="M60.43,651.11c2.25-6.62,19.77-29.3,26.95-34C84.43,625.48,73.85,641.93,60.43,651.11Z"/><path class="cls-5" d="M191.45,548.16c-.28-2.51-32.69,39.5-16.47,14.39C178.43,558.88,181.85,555.14,191.45,548.16Z"/><path class="cls-77" d="M195.29,602.05c7.23-5.8,4.78-3.91,0,0C192,605.22,215.88,579.68,195.29,602.05Z"/><path class="cls-69" d="M154.47,590.12c-.17,1.32,14.36-16.68,5.05-3C160.71,585.39,153.11,595.33,154.47,590.12Z"/><path class="cls-80" d="M704.47,448c-19.5-1.93-70.27-82.75,14.7-55.24,3.63,33.4,41.24,2.54,34.5,47.55C732.31,482.43,671.64,390,704.47,448Z"/><path class="cls-81" d="M625.28,398.14c-34.53-.05-20.42-61.42,34.61-16.55C663.39,405.77,626.15,390.8,625.28,398.14Z"/><path class="cls-48" d="M670.26,397.13c-1.06-3.41,29-5.65,9.28,3.43-18.94,12.89,46.59,61.57-2.48,41.84-33.95-16.92-55.36-66.75-9.25-33.66C665.75,405.34,666.42,405,670.26,397.13Z"/><path class="cls-82" d="M620.25,335.2c-24.6-12.23,3.56,36.06-45.79-5.57-.88-5.39,21.52-4.13-.69-6.89C520.61,274.83,603.22,302.15,620.25,335.2Z"/><path class="cls-83" d="M576.42,326.1c10.18,2.19,32.78,38,15.71,38.62-26.34-9.33-19.36-25-14.2-25.49C540.83,348.23,535.78,299.49,576.42,326.1Z"/><path class="cls-80" d="M670.29,399.09c2.14,37.26,10.27,5.3-25.24,5.6C644.7,429.67,583.54,372.84,670.29,399.09Z"/><path class="cls-84" d="M653.28,373.09c-19.5-22.9,10.9-10.11,40.38,4.28C682.6,373.86,691.5,398.76,653.28,373.09Z"/><path class="cls-85" d="M691.54,362.29c-28.71-2.28-16.11-1-70.23-16.59C630.55,347.91,644.89,335,691.54,362.29Z"/><path class="cls-86" d="M653.28,373.09c11.87,9.39,2.9,5.37-41.39-9.18C617,356.07,640.83,365.4,653.28,373.09Z"/><path class="cls-85" d="M620.25,335.2c-15-30.38,5.93,1.08,26.94,3.05C649.72,340.69,648.73,348,620.25,335.2Z"/><path class="cls-84" d="M688.27,388.12c-4.06-4.64,24.13-10.47,12.21-5.5C696.87,385.67,697,390.53,688.27,388.12Z"/><path class="cls-80" d="M656.18,380.23h0C660.26,376.18,674.21,382,656.18,380.23Z"/><path class="cls-80" d="M670.16,385.56c.71-.58.72-.93,0,0C669,386.37,667.85,382,670.16,385.56Z"/><path class="cls-46" d="M793.2,179.34c4.24,13.25-29,1.82-35.55,4.77,13.94,19.42-8.6,8.57-64.34,15.66,24.3,32.2-112.08,41.07-46.13,10.55,57.8-7.73,23.13-41.39,41.94-34.37,22.1,11.57-2.29-11.67,29.55-14.32-8.23-25.2-2.8-13,35.14-4.17-11-10.91-35.57-34.42,15-15.22-3.46-26.5,17.55-28,33.94-15.74,22.74,31.87,29.74,46-52.8,18.06,3.14,23.19,109.94,14.82,71,34.44-9.88-2.51-1.82-18.83-47.79-3.13-61.11-36-75,28.21-25.2,13.88C747.26,181.69,690.79,162.38,793.2,179.34Z"/><path class="cls-46" d="M631.18,236.24c-21.72-9.34-11.26-6.59-11.53,17.3-4.78,16.4-11.93-20.35-11.85-10-42.4,51.95-21.6-60.69-81.07-28.31-33.26-25.38,28.79-32.71,43.24-12.8,16.72,18.14-6.34,29.09,19.74,25.85,3,4.81-.85,20.22,12.39,8.49,14.07-14-70.62-21.71,2.26-65.49C590.85,262.58,623.31,141,631.18,236.24Z"/><path class="cls-87" d="M619.3,254.14c-17.19-8.43,80.42-46.5,49.21,4.4-6.56,3-8.15-25.25-26,1.78C630.77,286.06,648.08,285,619.3,254.14Z"/><path class="cls-88" d="M570.27,231.17c3.57-4.37,21.5,44.67,11.74,23.51-5.66-17.8-14.42-4.76-9.8,32-16.72,5.7,3.72-7.64,57.11,39.36-2.94,4.36-43.31-18.4-77.12-26.68C568.46,301.87,555.11,197.41,570.27,231.17Z"/><path class="cls-89" d="M715.28,230.16c-37.44.64-14.2-72,9.11-6.31C721.88,224.12,725.58,226.32,715.28,230.16Z"/><path class="cls-90" d="M715.28,230.16c15.33-12.18-10.73-53.61-21-16C665.69,162.61,749.19,207.72,715.28,230.16Z"/><path class="cls-91" d="M612.23,247.22c-1.57,5.16,5.68-1.81,7.59,44.68C615.52,292.78,604,287.16,612.23,247.22Z"/><path class="cls-92" d="M194.37,577.08c6.35-4,31.12-161.33,32.69-90.67-15.67,73.85,44.62,17.23,26.7,65.35C221.78,574.28,235.68,493.83,194.37,577.08Z"/><path class="cls-93" d="M194.37,577.08c4.19-1.2,15.43-78.33,43.47-27.14C232.64,540.79,177.85,633.1,194.37,577.08Z"/><path class="cls-94" d="M218.32,374.14c13.9-5.26,34.5-55.31,49.95-31-35.56,4-5,6.66-15,15-11.43,6.87-21.8,15.1-11.5,11.09,38.64,91.12-39.55-20.52-46.13,132.54C194.53,533.62,181.19,393.37,218.32,374.14Z"/><path class="cls-95" d="M188.37,474.12c13.71-38,17.76,54.26-13.06,85.58-21.11,13,17.18-7.68,13.12-56.22.31.43-44.39,103.1-42.77,55.34,40.65-82.92-55,53,21.8-59.38,6.83,11.14-3.83,34.84-11,50.23C159.11,541.26,165.81,542.21,188.37,474.12Z"/><path class="cls-96" d="M208.26,431.07c10.68-18.18,17.49-6.1-2,39.89C203.08,462.81,207.66,447.83,208.26,431.07Z"/><path class="cls-24" d="M272.44,474.1c-33.25,26.41-41.07-116.58-14.33-10.33C263.29,480.5,287.81,447.24,272.44,474.1Z"/><path class="cls-97" d="M241.32,450.11c2.71.26,4,40.56-4.84,24.42C232.07,465.68,216.22,398.34,241.32,450.11Z"/><path class="cls-98" d="M241.32,450.11c-8.93,21.49-17.19-40.64,2-31C242.68,423,238.73,424.8,241.32,450.11Z"/><path class="cls-99" d="M272.44,474.1c4.33-12.91,22.95-36.21,13.94-5.94C285.19,465.58,266,496.9,272.44,474.1Z"/><path class="cls-100" d="M586.27,449.06c13.93-6.6-9.38,52.07-28.6,37.26C520.28,416.74,494.23,344.06,586.27,449.06Z"/><path class="cls-101" d="M546.38,510c-8.9,11.08-22.11-20.27-4.06-13.93C541.64,499.63,547.38,494.3,546.38,510Z"/><path class="cls-102" d="M513.24,458.15c-.19-.52-11.93-65.26-2.92-49.07C505.94,416.66,520.7,461.06,513.24,458.15Z"/><path class="cls-100" d="M551.28,476.1c-3.84-1.85-31.62-53.84-21.29-54.9C534.46,433.84,542.53,454.2,551.28,476.1Z"/><path class="cls-36" d="M510.31,409.1c4.23-11.91,9.22-9.7,9.65,12.36C522.56,426.49,514.84,428.2,510.31,409.1Z"/><path class="cls-103" d="M544.47,460.85C540,443.11,519,413.58,522.26,390.27,525.55,408.45,538.52,437.15,544.47,460.85Z"/><path class="cls-100" d="M522.26,390.26c-.13,15.55,4.25,18-16.05-.25C506.23,387.9,506.09,385.12,522.26,390.26Z"/><path class="cls-36" d="M526.34,424.14c-6.36,3,8.08,22.61-4.62,20C526.81,442.39,512.1,437.36,526.34,424.14Z"/><path class="cls-22" d="M568.24,530.14c-.73-3.32,0-5,0,0C569.44,541.12,556.88,525,568.24,530.14Z"/><path class="cls-30" d="M568.21,525.15l-2.71-1.24C565.72,522.11,566.49,515.22,568.21,525.15Z"/><path class="cls-104" d="M336.41,415c-21.94-12-30.51-29.41,12.89-31.8C355.91,351.6,417.33,378.6,336.41,415Z"/><path class="cls-105" d="M348.35,363.2c-7.41-18,17.61-8.5,52.81,19.26C419.3,406.07,390.75,381.25,348.35,363.2Z"/><path class="cls-106" d="M385.2,429.31c0,8.25-32.18-31.79-24.21-21.65C370.3,417.78,392.75,415.35,385.2,429.31Z"/><path class="cls-107" d="M350.38,361.51c6,3.46,32.76,13.93,33.93,21.77C379.38,375.41,356.66,373.07,350.38,361.51Z"/><path class="cls-108" d="M387.16,423.18c2.32-3.5,40.58,7.12,16.66,5.15C401,427.42,403.26,428.5,387.16,423.18Z"/><path class="cls-21" d="M343.37,406.23c4.86,2.69,11.85-5.05,1.77,17.9C342.64,421.37,342.31,423.29,343.37,406.23Z"/><path class="cls-104" d="M384.31,383.28c.85-4.74,34.55,15.44,12.8,7.92C395.62,390.15,394.82,390.63,384.31,383.28Z"/><path class="cls-104" d="M382.82,394.76c-1.26-.7,12.72-7.75,8.86,2.79C388.1,397.19,390.45,396.05,382.82,394.76Z"/><path class="cls-15" d="M413.3,396.12h0C414.72,400.94,402.74,392.49,413.3,396.12Z"/><path class="cls-109" d="M644.64,501.26c3.47,6-22.74,17.66-12.07-8.86C636.77,486.3,640.89,491.33,644.64,501.26Z"/><path class="cls-11" d="M601.28,496.1c3.49-5.35-16.59-4.09-7.32-8.6C594.17,488.91,600.55,481.28,601.28,496.1Z"/><path class="cls-110" d="M490.3,342.21c14.94-28.94-125.46-39.2-24.4-56.83-5.53-2-7.4,1.43-13.64-28.82,10.29-54.42,38.47,76.61,44.64,58.05C510.24,287.86,510.19,333.72,490.3,342.21Z"/><path class="cls-111" d="M574.25,446.22c-7.33-14.34-65.66-61.29-14-55.15C568,408.53,615.67,440.84,574.25,446.22Z"/><path class="cls-112" d="M574.44,350c35.06,14-44.24,37.58-32.56,8C525.05,345.81,531.19,332.22,574.44,350Z"/><path class="cls-113" d="M492.25,341.85c8.44-25.82,52,11.87,13.08,10.23C498.75,374.18,500.1,354.12,492.25,341.85Z"/><path class="cls-81" d="M564.28,390.13c-18.65-4.73,33.06-33.35,41,4C593.9,416.74,590.84,380.36,564.28,390.13Z"/><path class="cls-114" d="M511.4,351.07c31.17-.3,10.84,75.38.07,4.93C516.44,358.47,525.12,375.13,511.4,351.07Z"/><path class="cls-115" d="M538.24,367.09c4.25,2.81,61-7.88,32.15,11C570.85,372,544.26,391.71,538.24,367.09Z"/><path class="cls-116" d="M539.14,375.25c8.9-6.2,7.44,12.42,44.15-8C605.37,382.41,538.94,389,539.14,375.25Z"/><path class="cls-117" d="M519.34,352.21c-11.47-9.8,15.67-29.47,26.62-15.63C529.32,340.45,547.57,356,519.34,352.21Z"/><path class="cls-118" d="M511.12,355.21c-.73-2.86,23.8,7.06,6.6,14.83C515.39,367.34,517.31,370.85,511.12,355.21Z"/><path class="cls-119" d="M504.14,389.2c-9.53-2.37-2.4-21.31,4.87-9.1C512,384.34,516.15,386.07,504.14,389.2Z"/><path class="cls-120" d="M504.14,389.2c-2.59-2.48,10.08-11.09,12.74,2.78C514.34,391.94,515.71,391.08,504.14,389.2Z"/><path class="cls-112" d="M556.84,382.54c-2.05-3.94,24.83-5.41,8.21-1.9C564.69,378.43,562,388.74,556.84,382.54Z"/><path class="cls-121" d="M631.72,530c4.77-.38,5.69-2.71,0,0C618.43,530.86,625.79,507.32,631.72,530Z"/><path class="cls-122" d="M600.15,437.26c-5.63-10.8,56.05,21.86,44.6,37.82C678.85,465.43,688.11,548.12,600.15,437.26Z"/><path class="cls-123" d="M634.4,476.05c62.84,42.58.12-9.71,39.07-1.81C678.59,493.31,678,518.69,634.4,476.05Z"/><path class="cls-124" d="M574.25,446.22c2-18.51,30.56,1.07,0,6.24C573.45,452.67,571.58,452.64,574.25,446.22Z"/><path class="cls-125" d="M348.35,363.2c16.8-6.27-82.45,85.25-64.34,25.3C360.53,298.93,295.93,414.7,348.35,363.2Z"/><path class="cls-126" d="M286.37,468.16c1.57-20.88-15,13.63-10.18-3.24,7.43-21.73-6.66,12.93-8.16.53.57,1.46,9.86-23.45,3.94-7.95-13.7,27.12.57-22.15-2.45-7.73-2.67,16.07-17,8.72-.64-27.3C292.31,404.22,296.49,492.53,286.37,468.16Z"/><path class="cls-127" d="M319.2,429.14c18.93,18.09-15.65,34-6.15,5.22-12.13,27.07,2.34-15.66-8.92,9.41C304.17,440.62,296.87,397.1,319.2,429.14Z"/><path class="cls-127" d="M314.2,476.17c-4.94,11.27-20.46,17.9-17.21-19.82C302.77,449.71,300.82,455.9,314.2,476.17Z"/><path class="cls-128" d="M283.49,424.78c-22.1-4.4,48.15-46.6,6.85,2.55C288,419.06,295.19,409.73,283.49,424.78Z"/><path class="cls-129" d="M311.27,456.09c-.71,9.85-.24,6.53,0,0C327.48,415.47,322,493.31,311.27,456.09Z"/><path class="cls-128" d="M289.22,447.14c-.94-3-11.43-14.68-1.88-18C288.24,432.32,289.53,434.1,289.22,447.14Z"/><path class="cls-126" d="M287.34,429.12c-3.11,1.85-3.8,3.7-4.09-3.88C285,423.78,287,418.85,287.34,429.12Z"/><path class="cls-130" d="M578.28,406.13c-40.85-35.68,126.31,41.26,70.46,48.13C641.84,447.27,656.63,460.88,578.28,406.13Z"/><path class="cls-9" d="M648.17,434.24c1.34-17.16-102.48-29.52-76.36-51.1C591.78,403.11,632.34,394.89,648.17,434.24Z"/><path class="cls-123" d="M578.28,406.13c26.2,10.68,52.44,42,86.08,46.89C670,477.17,649.71,462.25,578.28,406.13Z"/><path class="cls-81" d="M645.22,415.09c5.8-7,11.29,17.19,51.13,34C690.68,448.61,663.29,443.06,645.22,415.09Z"/><path class="cls-112" d="M586.24,378.08c3.67-2.93,5-4.95,0,0C582.2,376.21,579.57,359.6,586.24,378.08Z"/><path class="cls-81" d="M611.28,406.12c-2.16,1,0,0-5.87-.95C604.29,403.54,605.92,398,611.28,406.12Z"/><path class="cls-81" d="M623.17,399.18c1.21,1.54,2.85,2.8,3.24,4.89C624.24,403.16,620.48,403.31,623.17,399.18Z"/><path class="cls-131" d="M358.63,445c-6,.6-6.62,26.83-21.32,12.36C338.57,443.22,317.24,431.41,358.63,445Z"/><path class="cls-12" d="M316.19,467.09c5-16.42-.84-39.26,17-14.24C329,448.91,318.79,477.51,316.19,467.09Z"/><path class="cls-132" d="M316.34,403.12c-5.14-5.53,12.86-4.56,10.48-3C329.43,403.8,337.21,423.14,316.34,403.12Z"/><path class="cls-133" d="M358.63,445c-3.13.19-5.53,1.32-15.25-4.81C348.41,440.49,350.65,440.34,358.63,445Z"/><path class="cls-123" d="M680.48,468.45c-.43-1.74-1.44-1.4,0,0C681.07,470.66,673.77,474.11,680.48,468.45Z"/><path class="cls-134" d="M777.3,173.18c113.54-4.6,161.3-36.09,12.56,23.76C719.26,210.71,845.8,180.52,777.3,173.18Z"/><path class="cls-135" d="M786.24,177.09c-.62-8.5,35.17,8.55,16,4.31C798.28,180.89,802.86,182.49,786.24,177.09Z"/><path class="cls-136" d="M565.25,524.11c5.35,27.59-19.9-5-5.93-14.71C561.22,512.28,559.94,508.89,565.25,524.11Z"/><path class="cls-137" d="M820.23,144.21c-47.07-19,48.29-19.91,98.63-39.19-5.81.19-11.6.42-24.36,1.2-233.54,19.49-39.78,28.76-175,41C714,126.85,758.71,132,761.3,131.11c-1.41-12.73-45.58-18.17-43.38-21,7.38-15.17,68.29,13.7,65.83-6.8.2-23-68,12.4-35.41-13.37,99.75-2.88,75.16,18.63,202.54,13.2C947.66,110.43,830.3,132.19,820.23,144.21Z"/><path class="cls-138" d="M822.15,140.25c-31.39-7.8,127.1-22.89,132.32-39.82-10.74-2.73-102.34,5.64-98.89,3.1C1020.69,87.32,996.78,99,822.15,140.25Z"/><path class="cls-139" d="M450.31,317.15c12.41,9.11,27.14,73.46-5.66,31.68-13,72-37.32-113.83,8.57-4.82C454.49,348.53,449.56,325.6,450.31,317.15Z"/><path class="cls-140" d="M444.23,352.23c-17.3-14,11.83-7.78,20,19.6C455.79,381.55,441.11,392.32,444.23,352.23Z"/><path class="cls-141" d="M448.31,311.07c10.66-8.63,50.31,19,13,11.6C462.1,318.31,446.13,321.66,448.31,311.07Z"/><path class="cls-113" d="M490.25,332c-4.19,1.5-5.73,3.24,0,0C498.47,342.13,468.35,343.38,490.25,332Z"/><path class="cls-105" d="M381.19,361.22c16.9-7.78,22-1.5,44.09-12.09C422.72,348.6,435.62,376.06,381.19,361.22Z"/><path class="cls-142" d="M444.23,352.23c15.8,33.93-8.9,51-11.21-9.68C435.83,348.88,439.05,378.62,444.23,352.23Z"/><path class="cls-143" d="M433.28,361.1c-4.22,4.25,26.66,23.32,10.41,23.88C436.92,383.09,425.22,381.42,433.28,361.1Z"/><path class="cls-142" d="M425.28,349.13c-10.19-.06-12.11-28.68.87-32.11C420,337.26,438.18,366.8,425.28,349.13Z"/><path class="cls-82" d="M628.3,333.16c3.28.34,4.93.1,0,0C613.76,332.08,635.69,321.45,628.3,333.16Z"/><path class="cls-2" d="M628.3,333.16l4.93.09C632.23,332.19,630.48,341.46,628.3,333.16Z"/><path class="cls-22" d="M569.37,538.29c1,1.88,0,0,.13,4.8C567.87,542.61,565.78,542.42,569.37,538.29Z"/><path class="cls-35" d="M508.38,455c-4.36-1.68-10.24-76.22-4.34-37.57C504.12,416.14,518.46,489.69,508.38,455Z"/><path class="cls-36" d="M508.38,455c3.76,8.7,7.45,16.1,7.81,36C515.15,484.94,515.36,495.75,508.38,455Z"/><path class="cls-144" d="M343.37,406.23c-1.05.22,5.05,25-.41,16.51C336.06,412.63,336.55,424.26,343.37,406.23Z"/><path class="cls-145" d="M328.46,414c3.28,4,4.76,3.51,0,0C331.25,401.39,334.6,401.32,328.46,414Z"/><path class="cls-145" d="M335.37,406.17c.06-1.84,0,0,2.31-5.31C338.42,400,337.75,411.31,335.37,406.17Z"/><path class="cls-146" d="M820.23,144.21c153.86,14.22-28.43,42.19-30.72,23.94,10.54-10.09,33.4,19.53,38.93,2.16C819.72,163.91,789.16,158.54,820.23,144.21Z"/><path class="cls-147" d="M533.2,150.13c17.15-8.23,43.7-28,62.69-20-13.42-21,31.57-35.36,55.28-35.32,19.22,2.87-49.28,31.24-39.79,46.47,4.92,31.61-7.81,19-20,21.86C574.56,212.93,588.26,193.8,533.2,150.13Z"/><path class="cls-148" d="M478.31,150.23c64.4,25.26-14.95,40,50.78,84.12-16.71,6.25-41.08,55.76-48.55-11.77-38.49,7.32,10.31-17.8-21.94-20.06-9.63-6.12-51.66,14.95-35-17.47-22.23-44.07,16.77,30.43,53.61.81C508.45,171.36,433.31,148.92,478.31,150.23Z"/><path class="cls-149" d="M533.2,150.13c54.69,33.11,69.88,39.72-28.45,42.76C504.79,176.78,498.14,156.08,533.2,150.13Z"/><path class="cls-3" d="M508.3,157.22c1.74,54.14-22.94,14.91,59.08,33.05-34.2,25.48-9.77-31.57-64.95,36.94C497.27,239,491.25,149.55,508.3,157.22Z"/><path class="cls-150" d="M642.26,111.92c-3.77-12.67,37.61-44.59,38.35-22.27C678.13,80.23,648.28,144.05,642.26,111.92Z"/><path class="cls-151" d="M599.19,109.13c6.23,3.23-14.72,11.52-1,12.1C625.64,131,535.54,153.22,599.19,109.13Z"/><path class="cls-152" d="M429.31,126.2c15.05,5.91-.25,20.78-13.15,33.39C418,162.41,386.59,127.76,429.31,126.2Z"/><path class="cls-153" d="M436.24,142.21c-4.17-15.18,22.3,2,30.8,12.18C458.16,168,460.21,201.34,436.24,142.21Z"/><path class="cls-154" d="M429.31,126.2c-41.7,5.72,3.35,36.32-21.48,35.48C403.56,154.16,382.21,94.17,429.31,126.2Z"/><path class="cls-155" d="M426.29,124.13c-13.76-1.54-13-15.14-53.13,15.48C359.68,112,400.72,108.82,426.29,124.13Z"/><path class="cls-156" d="M465.29,150.11c-4.18,10.55-39.58-25-18.32-10.36C454.64,143.86,493.57,152.56,465.29,150.11Z"/><path class="cls-156" d="M506.27,157.36c-16.15-3.53,5.33,16.66-14.88,7.83C493.48,150.94,458.21,147.13,506.27,157.36Z"/><path class="cls-157" d="M664.28,82.12c-.43,3-2.13,8.94-21,11.11C647.54,90.64,653.56,85.83,664.28,82.12Z"/><path class="cls-158" d="M335.28,128.64c-2.79-1.7-8.33,3.31-17.92-1.81C319.77,128.26,328.58,121.62,335.28,128.64Z"/><path class="cls-137" d="M857.24,89.19a19.1,19.1,0,0,1,9-2A19,19,0,0,1,857.24,89.19Z"/><path class="cls-159" d="M768.24,84.13c-17.43,17-68.47-2.25-14.47.1-1.2,4.06-25.71-5.76-13.91-16.84,22.69,39.37,164.83-63.39,130.83-29-128,71.13-32.85,47.23,53.17,11.84C897.28,94.69,816.19,93.36,768.24,84.13Z"/><path class="cls-160" d="M725.29,87.19c91.41-14.22-29.94,54.18-78.14,33.1-2.41-9,34.69-7.44,7.44-18.1C668.47,99.83,702.68,58,691.83,105,724.73,105,654.62,79.43,725.29,87.19Z"/><path class="cls-161" d="M725.29,87.19c-35.52,6.22-56.92-2.24,13.2-16.08C744.8,85.54,785.69,87.11,725.29,87.19Z"/><path class="cls-162" d="M338.19,138.38c-13.56-7.18,18.45-20.32,13.06-2.28C348.89,136.82,347.29,137.18,338.19,138.38Z"/><path class="cls-26" d="M426.15,317c-1.46-11.84-60.28,71.15-34.9-25.14.3-7.29,19.7,26,33.31-17.64,23.59.44,36.6,6,8.69,26.86C416.79,306.91,482,310.27,426.15,317Z"/><path class="cls-163" d="M451.26,288.21c-17.33-41.52-63.81,60.09-43.92-3.07-16.84-7.31,29.13-26.23,36.82-38.17C455.51,253.77,488.19,299.26,451.26,288.21Z"/><path class="cls-164" d="M360.3,323.88c-13-51.56,59.22-73.06,8.19-13.24C367.85,318.2,385.27,358.28,360.3,323.88Z"/><path class="cls-165" d="M400.16,341c9.67.3-19.67-26.62,24.32-23.77C416,320,434.55,366.46,400.16,341Z"/><path class="cls-166" d="M311.32,303.15c0-12.85,48.53-31.85,41.25-25.19C339.53,310,358.26,316.06,311.32,303.15Z"/><path class="cls-167" d="M360.3,323.88c-3.44-1.11,32,14.2,23.9,26.2C369.51,341,333.21,339.57,360.3,323.88Z"/><path class="cls-168" d="M354.21,325.15c-8,36.75-41.6-27.51,3.32-10.63C356.83,318.67,353.39,316.67,354.21,325.15Z"/><path class="cls-169" d="M363.2,280.32c9.37,10,4.68,36.65-11.31,5.56C352.12,283.36,353.5,278.26,363.2,280.32Z"/><path class="cls-170" d="M354.45,267.51c7.44-2,4.69-1.32,0,0C343,264.73,372.78,252.78,354.45,267.51Z"/><path class="cls-114" d="M355.33,318.15c-6.08-1.49,5.48-22.37,4.74-3.78C359.54,315.52,359.32,316.87,355.33,318.15Z"/><path class="cls-171" d="M325.25,378.44c3.89-38.49-3.94-6.43-47.28-6.17C270.2,373.5,353.82,324.62,325.25,378.44Z"/><path class="cls-172" d="M326.34,303.14c13.48-6.56,14.68,21.21-7.1,9.86C310.59,312.7,312.26,290.32,326.34,303.14Z"/><path class="cls-173" d="M347.37,364.2c.66.6-21.94,23.13-12.4,2.84C336,362.33,341.92,351.69,347.37,364.2Z"/><path class="cls-174" d="M316.44,312c4-13.86-.43-.33,16.83,3.08C330.51,318.54,313.72,327.46,316.44,312Z"/><path class="cls-175" d="M301.2,335.05c-7.81,4.06-10.55-11.91.77-2C301.92,333.8,302.66,334,301.2,335.05Z"/><path class="cls-172" d="M316.46,312.16c-.15,5,13.65,10.51-2.32,9.38C312.59,319.16,313.55,321.32,316.46,312.16Z"/><path class="cls-176" d="M249.39,356.1c45.44-16.87,17.39-18,5.83,34.59C249.52,396.35,241.13,372,249.39,356.1Z"/><path class="cls-177" d="M257.35,368.18c28.27,5.87,7.56-6.21,55-12.11C293.28,353,264.21,408.82,257.35,368.18Z"/><path class="cls-178" d="M282.32,337.13c-3,9.68-17.74-13.71,8.82-21.49C295.58,317.42,296.54,320.27,282.32,337.13Z"/><path class="cls-179" d="M266.44,355.19c-1.86.68-4-8.45,8.48-6.94C272.33,351.33,273.21,351,266.44,355.19Z"/><path class="cls-177" d="M282.23,363.16c-4,4.67-7.36-6.2,6.22-6.07C288,359,287.82,360.93,282.23,363.16Z"/><path class="cls-180" d="M282.23,363.16c1.76,1.74,3.07,1.95,0,0C279,364.74,298,348,282.23,363.16Z"/><path class="cls-181" d="M85.6,544.24c139.5-166.77,37.28,46,36.33,6.71,62.3-102.31-10.9-37.65-31.25,13.84C88.36,569.83,86.12,564.72,85.6,544.24Z"/><path class="cls-182" d="M174.51,433.23c7-8.11,11.68,27.35,12.35.26C216.57,409.93,156.2,570.83,174.51,433.23Z"/><path class="cls-182" d="M161.35,493.12c3.86-4.14,5.86-6.15,0,0C157.4,495.42,167.25,476.56,161.35,493.12Z"/><path class="cls-152" d="M410.22,161c7.13-1.07,36.4.28,49.57,11.63-9.41-31.1,40.92-1.62,26.61-1.37-12.15-2.42-11.36-7.62-14,1.19-33.58,57.73-24.06,2.81-71.75.13C372,172.49,347.13,165,410.22,161Z"/><path class="cls-183" d="M452.48,247.14c-13.9,23.87-86.6-3.2-32.18-13.76-2.53-7.63,68.1-20.58,39.75-7.25C413.08,231.82,482.92,250.14,452.48,247.14Z"/><path class="cls-184" d="M427.35,256.17c28.89-1.11-4.34,30.38-14.09,11.95C415.81,266,417.23,265.08,427.35,256.17Z"/><path class="cls-185" d="M406.22,235.18c2.14-4.44-15,31.58-13.12,7.81C395.66,245.34,392,231.48,406.22,235.18Z"/><path class="cls-163" d="M395.17,280c-.79.83-.92,1.19,0,0C395.79,280.22,395.6,283.19,395.17,280Z"/><path class="cls-186" d="M410.22,161c.17,19.79-54.8-25.81-39.78-30.81C410.58,178.52,391.2,61,410.22,161Z"/><path class="cls-187" d="M386.14,151.39c2.62,2.08,29.11,27.08-5.61,9.67C379.21,160.06,379.81,157.16,386.14,151.39Z"/><path class="cls-187" d="M370.33,140.26c7.13.1,28.69,19-1.63,4.72C365.37,143.47,372.19,143.47,370.33,140.26Z"/><path class="cls-187" d="M368.37,127.27c-2.22,3.15,1.07,15.54-4.87,12.19C363.35,136.24,363.26,132.84,368.37,127.27Z"/><path class="cls-152" d="M382.26,156.18c-2.86-.49-3.45,1.17,0,0C383.92,155.18,381,165.18,382.26,156.18Z"/><path class="cls-188" d="M154.47,590.12c-3.78-.58-120.55,115.76-113.75,83.23-4.06-1.85,98.79-96.44,58-93.69,47-24.42-29.85,64.47-32.19,79.69C96.31,637.38,87.39,630.35,154.47,590.12Z"/><path class="cls-189" d="M99.34,577c-58.61,65.19-89.5,68.72-11.77-12.62C117.81,546.65,11,650,99.34,577Z"/><path class="cls-190" d="M464.14,220.46c-34.61,12.32-64.7,8.21-45.64-40.23C426.32,204.45,426.4,209.8,464.14,220.46Z"/><path class="cls-191" d="M406.22,235.18c-4.78,1,10-16,13.91-5.72C419.24,235.19,420,241.86,406.22,235.18Z"/><path class="cls-192" d="M413.35,228.21c-10,11.71-10.35-16.34,5-7.62C419.38,223.66,418.39,219.14,413.35,228.21Z"/><path class="cls-193" d="M269.42,340.08c-3.34-6.87-42.14,8.07-13.84-6.53C257.65,337.55,280.37,328.1,269.42,340.08Z"/><path class="cls-194" d="M353.27,150.72c-1.37-1,16.67,9,1,7.26C356.49,156.94,344,154.47,353.27,150.72Z"/><path class="cls-79" d="M60.44,651.07c-10.14,15.72-42.61,44.39,10,12.65C48.53,687.2,14.48,693.07,60.44,651.07Z"/><path class="cls-195" d="M135.34,553.05c37.34-63.15,14.43-9.95,14.94,13.33,29.44-50.55,66.93-107.1,24-8.13C134.67,599-1,741.77,135.34,553.05Z"/><path class="cls-196" d="M135.34,553.05c-5.19,24.69-61.21,77.24-53.8,92,3.6-2.65,56.48-60.27,37.77-33-82.26,77.56-73.52,72.65,77-159.94-8,4.1-6.4,63-42.65,100.59C156.68,551.93,190.36,440.87,135.34,553.05Z"/><path class="cls-197" d="M196.35,452.11c-19.78-41.91,4.21-57.41,20.72-75.79C206.47,413,186.78,388.41,196.35,452.11Z"/><path class="cls-59" d="M183.42,433.2c12.21-8.68,10.16,40.35-1.52,12.68C184.56,443.13,176.32,444,183.42,433.2Z"/><path class="cls-57" d="M326.34,303.14c-2.62-1.1-4.77-3.09-12.86,1.88C304.2,299.89,332.66,289.38,326.34,303.14Z"/><path class="cls-190" d="M516.26,219.23c33-43,25.63,78.31,46.75,95.08,0,7.7-26.58,3.44-58.91-13.2-10.46-19.39,69.08,9.55,13.52-52.77C499.82,233.53,533.62,239.36,516.26,219.23Z"/><path class="cls-198" d="M587.18,313.21c.1-4.9,21.12-5.61,18.37,3.75C599.76,318.29,596.46,319.89,587.18,313.21Z"/><path class="cls-199" d="M557.28,316.14c4.37-14.07,26.88,6.72,6.86,3.12C562.59,319.1,561.05,319.43,557.28,316.14Z"/><path class="cls-199" d="M576.42,326.1c9,1.52,6,.85,0,0C563.32,313.78,609.4,332.29,576.42,326.1Z"/><path class="cls-200" d="M506.28,301.12c11,5.69,34.31,5.27,42.44,11.25C555.58,309.84,522.6,388.44,506.28,301.12Z"/><path class="cls-201" d="M534.39,344.06c-11.89-9.74,78.37-10.55,46.82-1.18C554.2,364.77,590.71,343.86,534.39,344.06Z"/><path class="cls-112" d="M547,332.27c-3.24,9.29-11,18-5.52-1.22C541.55,325.61,545.77,321.21,547,332.27Z"/><path class="cls-200" d="M547,332.27h0C540.9,329.1,555.39,323.38,547,332.27Z"/><path class="cls-200" d="M557.28,316.14c-2.28.92,12.08,0,2,5.86C558.16,321.09,556.45,320.55,557.28,316.14Z"/><path class="cls-146" d="M757.24,139.18c29,13.95-11.26-28.29,31.61-21.11,41.93-4.78,82.73-20.78,155.22-13.73-34.37,21.64-42.21-4-109.55,26.59-32.09-12.89-9.54,25-30.94,3.58C760.53,84.15,792.05,165.05,757.24,139.18Z"/><path class="cls-90" d="M777.3,173.18c25.59,23.11-37.13-7.09-42.14,2.31,14.18,9.76,32,21-6,21.79-36.87-23.72-14.71-12.57-3.21-33.56C716.4,146.25,729.6,159.25,777.3,173.18Z"/><path class="cls-202" d="M715.24,144.22c20.36,36.89-45.09,20.32-28.47,68.69-29.51-24.34-66,32.66-65-18.84,54.28,33.91,16.85-1.57,24-13.45,15.57-6.19,31.36,20.51,28,6.92C668.25,154.57,706.83,174.8,715.24,144.22Z"/><path class="cls-90" d="M811.23,163.2c27.13,2.69-33.73,18.62-66.82-22.25C753.23,146.2,767,138.33,811.23,163.2Z"/><path class="cls-90" d="M801.74,146.08c-11.11,6.51-36.52-28.06-14.11-20.24C785.36,132.15,817.69,141.71,801.74,146.08Z"/><path class="cls-203" d="M625.34,212.12c4.67,4.49,25.63,40.38-10,4.78C617.25,214.13,621,200.1,625.34,212.12Z"/><path class="cls-202" d="M757.24,139.18c-2.49,3.6-22.16-9.8-18,1C769,187.34,702.2,119.87,757.24,139.18Z"/><path class="cls-146" d="M730.25,152.19c26.26,12.7-1-25.77,29.6,8.71C757.81,167,699.27,137.57,730.25,152.19Z"/><path class="cls-146" d="M738.23,139.18c2.76-3,5-1.91,0,0C727.11,131,763.37,140.78,738.23,139.18Z"/><path class="cls-204" d="M647.14,120.28c-3.43,32.15-30.34,96.59-49.2,46.67C623.05,158.79,601,102.14,647.14,120.28Z"/><path class="cls-205" d="M608.3,156.2c-9.34,16.74-13.61,28.68-32.53,47.73,11.73,3.06,51.08,48.87,14.49,41.24,2.06-16.43,12.65-23.28-13.27-10.9,4.26-5.65-32.93-42.69,3.72-46.45C595.28,163.72,542,186.51,608.3,156.2Z"/><path class="cls-206" d="M603.38,178.09C617.84,201.33,645,158,662.8,158.92,676.2,158.32,564.75,265.51,603.38,178.09Z"/><path class="cls-3" d="M537.34,218.17c-3.11-12,24.25-36.5,32.93,13C551.41,214.59,586.94,282.44,537.34,218.17Z"/><path class="cls-190" d="M537,209.47c-2.14-6.71-3.5-9.87,0,0C535,219.31,519.31,197.87,537,209.47Z"/><path class="cls-207" d="M592.14,223.29c4-4.67,9.1,20.43-1.54,18C591.49,238.52,586.29,241.36,592.14,223.29Z"/><path class="cls-208" d="M592.14,223.29c2.14.48-.13,19.48-4,7.9C589.38,231.9,582.32,220.72,592.14,223.29Z"/><path class="cls-3" d="M584.27,255.16c-1.71-6.11-6.18-10.92-8-17C581.25,242.75,584.16,248.3,584.27,255.16Z"/><path class="cls-3" d="M590.07,241.12c.07,1.35,0,0,.2,4C589.27,245.34,583.44,242.67,590.07,241.12Z"/><path class="cls-205" d="M559.22,203.11c-.46-2-1.61-2.1,0,0C559.69,202.62,552.45,204.49,559.22,203.11Z"/><path class="cls-3" d="M576.28,238.16c-2.19-1.56-4.16-3.3-5-6C573.47,233.73,575.46,235.45,576.28,238.16Z"/><path class="cls-209" d="M537.34,218.17c33.39,6.55,39.27,85.38,4.7,81C541.41,298.54,554.41,283.67,537.34,218.17Z"/><path class="cls-3" d="M552.27,304.27c-1.59-27.61,7-24.22,16-49.07C568.5,265.4,561.61,294.87,552.27,304.27Z"/><path class="cls-93" d="M247.54,544.88c-2-9.24,19.27-9.63,7.13,4.26C254.15,548.72,248.9,554.3,247.54,544.88Z"/><path class="cls-99" d="M257.35,368.18c44.31,87.86,11.5,7.68,12.57,95.83C282.38,485.47,219.89,469,257.35,368.18Z"/><path class="cls-210" d="M249.39,356.1c9.9,2.77-12.34,28.25-16.27,14.75C236,367.59,239.56,357.67,249.39,356.1Z"/><path class="cls-211" d="M263.51,346.21c1,10.36-33.06,9.67-11.67-4.84C251.88,343,261.77,335.17,263.51,346.21Z"/><path class="cls-99" d="M274.14,461.94c-.36,4.2,6.08-22.72,5.39-4.8C278.48,454.36,279.06,468.63,274.14,461.94Z"/><path class="cls-97" d="M239.42,437.12c1,6,.59,4,0,0C241.42,428.3,245.19,456.8,239.42,437.12Z"/><path class="cls-5" d="M243.32,442.11h0C244.14,441,248.48,439.1,243.32,442.11Z"/><path class="cls-124" d="M556.26,421.11c-3.45-.22,27.72,25.94,10.6,20C568.6,437.51,555.71,436.59,556.26,421.11Z"/><path class="cls-6" d="M544.47,460.85c3,7.82,2,5.2,0,0C545.78,455.31,556.18,487.86,544.47,460.85Z"/><path class="cls-10" d="M560.29,479.1c-.75.45-8.32-2.45-2.46-4.22C560.57,475.09,557.82,474.89,560.29,479.1Z"/><path class="cls-10" d="M560.28,479.11h0C562.34,479.53,560.14,486.92,560.28,479.11Z"/><path class="cls-212" d="M334.48,382.33c7.6-28.14,51.42-8.19,7.25,7.44C344,363.24,344.61,396.4,334.48,382.33Z"/><path class="cls-213" d="M320.37,379.18c-2.48,4.44-4.38,6.08,0,0C347.84,371.88,316.34,406.75,320.37,379.18Z"/><path class="cls-214" d="M320.37,379.18c-9.11,9.07,7.27,15.08-15.31,21.05C301.18,400.06,300,399.34,320.37,379.18Z"/><path class="cls-213" d="M334.48,382.33c-.33,15.64,16.67-24.68,10-2.16C343.42,392.56,329.73,401.39,334.48,382.33Z"/><path class="cls-57" d="M352.29,367.2h0C350.35,367.53,345.68,356.19,352.29,367.2Z"/><path class="cls-125" d="M333.35,382.09c-.37,1.29,0,0-1.13,3.86C329.66,386.62,327.38,387.56,333.35,382.09Z"/><path class="cls-215" d="M461.31,248.14c-41.72-18.83,5.34-2.35.22-18.22-35.49,7.81,6.51-23,13.67,3.88-12.08,14.41,21,18.69,34.56,39.86C517.58,273.26,491.1,325.16,461.31,248.14Z"/><path class="cls-216" d="M485.32,287.18c1.67,14.83,36.85-35.23,29,1.61C501.74,299.33,483.74,363.44,485.32,287.18Z"/><path class="cls-216" d="M506.23,307.09c4.16-14.18,26.28,38.61,8,25.52C492.41,334.79,503.55,340.5,506.23,307.09Z"/><path class="cls-217" d="M503.29,314.14c6.39-6.45,17.07,21.12-4.52,11.73C497,321.77,496.06,322.58,503.29,314.14Z"/><path class="cls-216" d="M497.2,322.14c-1.08.75-1.53,1.21,0,0C512.28,329.6,491.11,333.35,497.2,322.14Z"/><path class="cls-218" d="M443.55,306.29c-2,2.67-1.08,5.19-9.69.41C438,305.38,434.37,306.19,443.55,306.29Z"/><path class="cls-219" d="M538.83,345.61c.07,3.1,33.79,12.76,22,15.7C560.63,354.14,546.42,375.78,538.83,345.61Z"/><path class="cls-220" d="M562.11,345.26c-.29.09,15.23,10.3-.15,6.45C557.09,350.17,544.33,342.74,562.11,345.26Z"/><path class="cls-117" d="M508.19,334.07l2-1.18C511,333.78,513.84,338.39,508.19,334.07Z"/><path class="cls-112" d="M577.25,381.16c5.19,2.21,7.86,3.08,0,0C574.85,382.09,594.05,377.39,577.25,381.16Z"/><path class="cls-221" d="M277.4,374.17c23.72-4.16,37.18-25.29,8.6,14.95C313.93,409,255.24,418.17,277.4,374.17Z"/><path class="cls-176" d="M277.4,374.17c-11.94,19.55,18.38,27.6-2.43,44.84C277.23,401.41,239,395.42,277.4,374.17Z"/><path class="cls-176" d="M283.46,413.91c-.39-1.24,0,0-1.16-3.72C283.29,410.86,291.4,410.65,283.46,413.91Z"/><path class="cls-222" d="M283.25,425.24c-1.6,3.41,5.7-.6,1.86,18.54C278.64,438.3,273.72,442.29,283.25,425.24Z"/><path class="cls-128" d="M270.41,424.2c.49-1,0,0,2.32-2.06C274.77,421.86,276.93,431.52,270.41,424.2Z"/><path class="cls-223" d="M707.22,117.19c14.87-11,2.65,8.49,25.22,6-24.76-18.29,40.63-7.87,31.71,11.75-8.68-6.8-27.27,10.82-56.11,4.45C728.57,136.26,679.1,121,707.22,117.19Z"/><path class="cls-223" d="M743.11,104.16c9.94-9.22,42.1-31.51,44.8,5.09C791.33,113.5,770.4,122,743.11,104.16Z"/><path class="cls-224" d="M723.18,115.36c22.83,5,12.18,24-12.47,2.58C711.87,117.84,710.16,112.66,723.18,115.36Z"/><path class="cls-225" d="M446.14,315.26c8.64,4.86,24,51.16-.61,28.7C457.69,338.2,413.57,307.22,446.14,315.26Z"/><path class="cls-226" d="M851.33,151.67c34.55-1.41,16.07,27-7.64,3.72C844,153.94,844.41,152.67,851.33,151.67Z"/><path class="cls-150" d="M617.32,150.27c-25.18,21.86,4.77-65.71,16.27-29.64C633.08,115.69,598.68,144.1,617.32,150.27Z"/><path class="cls-227" d="M574.41,143.66c-1.44.11,21.91-11.78,18.45-1.72C589.77,142.76,588.27,143.89,574.41,143.66Z"/><path class="cls-228" d="M592.27,156.12h0C598.11,157.08,589.82,173.84,592.27,156.12Z"/><path class="cls-229" d="M606.08,111.42c5.33-4.51,10.51-.22,15.72-2.14C619.55,113,619.55,113,606.08,111.42Z"/><path class="cls-230" d="M545.66,145.77c-1.84-1.39,25.48-5,7.81-.47C554.24,143.85,548.12,149.34,545.66,145.77Z"/><path class="cls-205" d="M587.11,158.13c-2.71,1-2.58,2.57,0,0C585.17,157.94,591.54,166.68,587.11,158.13Z"/><path class="cls-190" d="M474.2,221.46c44.58-12-31.72,41.67,43.42,28.38C554.34,281.74,459.37,269.44,474.2,221.46Z"/><path class="cls-200" d="M497.32,258.16c55.26,35.38-1-23.38,22.95-10.11,64.92,38.38-39.61,71.65,6.48,23.64C519.48,275.75,516.14,286.94,497.32,258.16Z"/><path class="cls-231" d="M458.35,197.2c-14.31-19.91,26.71-16.19,8-35.76C484,168.36,507.69,179.46,458.35,197.2Z"/><path class="cls-232" d="M497.32,258.16c29.19,19,46.62,20.82,10.66,32.15,27.36-8.93-65.93-51.93-30.79-67.12C482.54,230.29,462.86,245.24,497.32,258.16Z"/><path class="cls-233" d="M464.45,218c-5.25-2.26-74.8,1.63-19.65-18.59C448,199.61,479.94,207.9,464.45,218Z"/><path class="cls-234" d="M467.13,218c8.69-15.87-43.76-14.75-23.63-18.75C446.37,202.53,493.16,191.43,467.13,218Z"/><path class="cls-235" d="M424.46,193h0C419.55,184.77,414.29,170.16,424.46,193Z"/><path class="cls-236" d="M429.32,168.19c-10.18,9.72-23.68-35.86,6.13-29C429.31,141.72,459.68,147.64,429.32,168.19Z"/><path class="cls-231" d="M439.19,160.1c-1.64-4.81,6.88-22.32,5.19-3.89C443.63,159.05,445.26,158.28,439.19,160.1Z"/><path class="cls-148" d="M465.26,158.22c-6.45-4.12-7.08,13.52-10.58,2.39C456.18,159.24,456,153,465.26,158.22Z"/><path class="cls-237" d="M458.1,169.58c-3.24.61-1,.88-6.76-1.66C453.18,165.83,452.74,165.21,458.1,169.58Z"/><path class="cls-238" d="M395.4,127c22,15-13.27,36-16.54,2.69C381.05,126.81,378.85,126.13,395.4,127Z"/><path class="cls-239" d="M855.2,83.91c-7-.84,6.6-9.81,59.73-27C905.51,72.45,879.75,80.71,855.2,83.91Z"/><path class="cls-137" d="M709.18,139.34c21.08,14-13.64,42.37-34.64,24.41,3.34-14.15,43.27-9.7,1.51-36C680.31,126.56,687.78,103.17,709.18,139.34Z"/><path class="cls-240" d="M680.28,124.21c-1.91-2.4-8.82,44.36-26.08,32C664.2,153,606.57,115.53,680.28,124.21Z"/><path class="cls-241" d="M689.32,90.32c18.17-3.15,21.44,22.5,0,19.05C696.56,102.45,671.2,94.67,689.32,90.32Z"/><path class="cls-150" d="M653.25,123.22c2.12-1.3-7.14,14.32-13.37,4.87C642.85,129,638.77,118.61,653.25,123.22Z"/><path class="cls-137" d="M707.22,117.19c-2.39,2.08-4,5.65-15.05.89C695.1,116.25,691.65,118,707.22,117.19Z"/><path class="cls-56" d="M389.84,314.54c-1,.14-1,.71,0,0C391.23,314,391.77,320.43,389.84,314.54Z"/><path class="cls-163" d="M435.12,281.36c-.68-.54-1.05-.55,0,0C435.87,282.7,430.51,282.79,435.12,281.36Z"/><path class="cls-167" d="M351.32,331.15c.72-.62-5.06,2.59-3.23-1.61C349.9,328.52,348.1,329.52,351.32,331.15Z"/><path class="cls-242" d="M187.38,468.12c-9.22,18.72-67.77,99.87-75.62,116-15.55-9,36.66-73.68,24.64-75.95-10.47,10.32-62.69,87.45-42,31.89,33-14.91,84.3-114.3,29.15,18.6C130.67,561.14,131.05,529.24,187.38,468.12Z"/><path class="cls-189" d="M94.38,540.06c-3.79,3.5-4.68,8.41-3,16.05C87.9,551.4,85.38,545.92,94.38,540.06Z"/><path class="cls-72" d="M187.38,468.12c-.15,1.64,8.66-46.55,9.24-29.24C194.32,443.55,201.49,439,187.38,468.12Z"/><path class="cls-181" d="M179.34,484.12c-1.06,5.79-2.5,6.62-7,4C175.35,487.92,177.13,485.65,179.34,484.12Z"/><path class="cls-181" d="M183.35,473.12a29.66,29.66,0,0,1-4,11C179.85,480.12,180,476.05,183.35,473.12Z"/><path class="cls-181" d="M172.34,482.08c-1.31-.7,0,0-4-.05C167.57,482.91,172.51,475.84,172.34,482.08Z"/><path class="cls-231" d="M448.36,178.21c7.19,18.44-21.47,13.89-7.36-7.42C445.28,172.45,448.05,169.4,448.36,178.21Z"/><path class="cls-153" d="M448.34,178.22c1.69-5.08,20.21,8.48,3.44,6.24C449.32,183.2,451.81,184.44,448.34,178.22Z"/><path class="cls-231" d="M429.32,168.19c6.36-.75,9.62-.63,0,0C432,166.68,441.48,156.8,429.32,168.19Z"/><path class="cls-148" d="M434.82,171.91c-1.58-1.17-2.58-1,0,0C436.79,172.84,427.91,175,434.82,171.91Z"/><path class="cls-243" d="M443.31,227.24c17.26-5.9,46.41,14.26-1,10.93C439.25,235.79,436.94,233.67,443.31,227.24Z"/><path class="cls-244" d="M91.4,564.1c-37.9,59.73,14.43,11.38,33.66-35.79-51.42,71.38-41.58,16.35,20.77-24.88C121.38,576.42,7,661.35,91.4,564.1Z"/><path class="cls-70" d="M83.35,629c-51.43,72.73,31.22-19.34,31.66-12.84C101.18,631.13,19.36,707.72,83.35,629Z"/><path class="cls-245" d="M675.48,134.3c49.42-16.32-7.3,35.35,3.57,58.95-10.93,11.61-32.77-13.6-19-35.61C670.1,120.67,698.16,158.87,675.48,134.3Z"/><path class="cls-246" d="M624.12,195.06c6-6.29,43-23.9,31.93,13.48C653.77,205.85,639.53,221.66,624.12,195.06Z"/><path class="cls-247" d="M646.1,137.28c33.78,10.6-21,54.34-25.8,42.17C643,178.14,614.21,152.06,646.1,137.28Z"/><path class="cls-46" d="M616.26,181.26c9.73-.65,25.22-4.61,32.49-24.92C675.46,168.51,593.49,196.55,616.26,181.26Z"/><path class="cls-147" d="M617.32,150.27c-.76-2.91-.83-.43,4.56-6.33C623.1,147.12,623.1,144.81,617.32,150.27Z"/><path class="cls-248" d="M486.86,273.43c-15.35,10.57-16.77-27.06,9.79-6C508.1,272.6,491.38,289.74,486.86,273.43Z"/><path class="cls-249" d="M692.49,118.44c2.32.15,35.82,17.74,25,20.72C709.72,140.41,694.93,133,692.49,118.44Z"/><path class="cls-190" d="M535.51,279.88c-.6-3.32-2.57-3.48,0,0C536.94,282.89,525.35,284,535.51,279.88Z"/><path class="cls-250" d="M435,213.56c-6.94,2-9.92-17.86,19.35-3.45C451.13,211.25,450.06,214.47,435,213.56Z"/><path class="cls-251" d="M675.48,134.3c6.4-2.46,23.85,15.74,10.41,16.47C681.07,149.62,675.72,143.77,675.48,134.3Z"/><path class="cls-252" d="M92.35,564.06c61.11-88.8,42-5.7-27.4,39-5.87-7.68,68.35-57.64,43.64-51.12C105.82,554.91,82.37,587,92.35,564.06Z"/><path class="cls-202" d="M668.6,183.52c-.65-1.54-1.63-1.47,0,0C669.32,184.81,663.87,186.18,668.6,183.52Z"/><path class="cls-253" d="M88.38,572.09c1.76,2.06,39.23-55.86,27.58-20C116.47,562.3,69.32,600.17,88.38,572.09Z"/></g></g></svg>