<svg xmlns="http://www.w3.org/2000/svg" viewBox="0 0 135.61 175.83"><defs><style>.cls-1{fill:#fdaaa7;}.cls-2{fill:#ef0001;}.cls-3{fill:#c50000;}.cls-4{fill:#d90000;}.cls-5{fill:#cf0001;}.cls-6{fill:#b80101;}.cls-7{fill:#d00102;}</style></defs><title>Asset 11</title><g id="Layer_2" data-name="Layer 2"><g id="Layer_1-2" data-name="Layer 1"><path class="cls-1" d="M38.87,1.08,38.8,0h58l0,1C95,2.62,92.79,2.58,90.64,2.59q-22.83.08-45.66,0C42.84,2.58,40.63,2.68,38.87,1.08Z"/><path class="cls-2" d="M38.87,1.08,96.74,1q0,21.95-.08,43.9c-3.44,3.47-7.5,3.89-12.29,3.64-12.29-.63-24.62.1-36.92-.39-2.48-.1-3.71.88-4.1,3.27-.26,1.6-.26,3.36-1.92,4.47-2.31-.94-1.42-3-1.61-4.67-.39-3.43.78-7-.86-10.3Z"/><path class="cls-3" d="M117.72,106.88c-6,9-12.17,17.76-18.84,26.22-17,5.38-34.51,2.66-51.82,3A17.9,17.9,0,0,1,36.74,133a173.7,173.7,0,0,1-13-18.08c-1.87-10.54-.44-11.81,10.6-11.61,22.56.4,45.13.08,67.69.15C107.5,103.45,113,103.33,117.72,106.88Z"/><path class="cls-4" d="M39,41c2.44.5,1.78,2.45,1.81,4,.07,3.3,0,6.6,0,10,1.1-.43,1-1.1,1-1.71.34-6.72.37-6.49,6.76-6.37,11.12.21,22.25,0,33.38.08,2.3,0,4.65-.38,6.9.51,2.43,1,4-.37,4.68-2.38,1.08-3.34,2.13-.07,3.15-.16v32a12,12,0,0,0-.94,1.76c-1.53,4.6-3.66,6.73-9,4.15-3.15-1.52-7.22-.44-10.87-.44-9.48,0-19-.2-28.45.13-6.37.22-7.94-1.21-8.09-7.64A6.54,6.54,0,0,0,39,72Z"/><path class="cls-5" d="M117.72,106.88c-1.52-.15-3.26,2.83-4.77-1.07-.5-1.29-6-.87-9.15-.88-22.56-.07-45.12-.1-67.68,0-2.78,0-5.41-1.2-8.3-.3-3.27,1-5.29,2.62-3.38,6,1.12,2-.3,2.86-.69,4.22l-12.14-16q-1.45-2.48-2.9-5c1.62-4.4,4.65-6.58,9.47-6.51a128.71,128.71,0,0,0,19.89-1c6.76-1,13.5,1.22,20.36,1.11,17.6-.28,35.21,0,52.8-.84a38.36,38.36,0,0,1,8.43.78c2.47.43,7.11-.8,4.72,4.72,0,.12.43-.33.7-.31,1.39.11,2.1.78,1.78,2.26l-3.33,4.71c-.68.18-1.08-.21-1.42-.7a3.06,3.06,0,0,0-1.53-1.58c-2.06,0-2.31,1.65-2.84,3a2.84,2.84,0,0,0,.5,3A6.2,6.2,0,0,1,119,105Z"/><path class="cls-6" d="M36.74,133c16.58,3.42,33.36,1.34,50.05,1.86.94,0,2.28,0,2.79-.62,2.84-3.22,6-2.23,9.3-1.11-9.74,13.71-19.52,27.4-29.19,41.17-2.15,3-3,1-4.12-.69-7.74-11.72-17.07-22.31-24.14-34.52C40.22,137,37.74,135.47,36.74,133Z"/><path class="cls-7" d="M126.86,94.16c-1-2.64-2.06-1.62-3.51.92,1.71-5,.67-6.18-4-6.34-18.29-.63-36.56.22-54.83.28-8.61,0-17.19-1.65-25.69-1-7.9.6-15.78.71-23.68.95-3.23.09-3.66,4.16-6.47,5l-.8-1.08c.95-2.16-.18-2.84-2.1-3L0,82.5c11.42,0,21.88-.06,32.33,0,6.44,0,6.43.16,6.47-6.12,0-1.49.11-3,.16-4.45,1.36,1.38.56,3.16.87,4.73.57,2.84,2.15,4.77,5.25,4.59,13.73-.81,27.47-.08,41.19-.38,2.33-.06,4.15.63,5.62,3.83.9-4,2.17-6.4,4.77-7.79-1.77,5.49,1.25,5.8,5.6,5.7,10.76-.24,21.53-.07,33.35-.07Z"/><path class="cls-7" d="M122.75,97.9l.78,1A20.67,20.67,0,0,1,119,105a2.14,2.14,0,0,1-1.27-2.12C117.88,99.69,119.48,98,122.75,97.9Z"/><path class="cls-5" d="M5.81,89.91c1.53-.16,3.17-2.59,4.43-.63,1.13,1.75-1.08,2.65-2.33,3.59A5.57,5.57,0,0,1,5.81,89.91Z"/><path class="cls-3" d="M122.75,97.9a15.58,15.58,0,0,0-5,5c-1.61-.57-1.78-1.62-1-3,1.15-2,2.57-3.62,5-4A2,2,0,0,1,122.75,97.9Z"/><path class="cls-7" d="M121.75,95.9c-1.09,2-3.35,2.64-5,4C117.15,97,117.33,93.79,121.75,95.9Z"/></g></g></svg>