<svg xmlns="http://www.w3.org/2000/svg" viewBox="0 0 94.05 110.63"><defs><style>.cls-1{fill:#454b4b;}.cls-2{fill:#dadad7;}.cls-3{fill:#d8d8d6;}.cls-4{fill:#474c4a;}.cls-5{fill:#232728;}.cls-6{fill:#252523;}.cls-7{fill:#454a49;}.cls-8{fill:#4d524f;}.cls-9{fill:#2c1d1b;}.cls-10{fill:#424646;}.cls-11{fill:#f3f4f2;}.cls-12{fill:#2d2d27;}.cls-13{fill:#767b78;}.cls-14{fill:#2b241e;}.cls-15{fill:#4c504b;}.cls-16{fill:#777c77;}.cls-17{fill:#0e1111;}.cls-18{fill:#787b79;}.cls-19{fill:#89837d;}.cls-20{fill:#29221b;}.cls-21{fill:#151610;}.cls-22{fill:#e2e3e0;}.cls-23{fill:#32221a;}.cls-24{fill:#0c0f0d;}.cls-25{fill:#272b28;}.cls-26{fill:#f9f9f6;}.cls-27{fill:#3f302b;}.cls-28{fill:#252a2a;}.cls-29{fill:#493736;}.cls-30{fill:#747d7c;}.cls-31{fill:#343c3b;}.cls-32{fill:#424543;}.cls-33{fill:#383d3b;}.cls-34{fill:#4d5451;}.cls-35{fill:#242520;}.cls-36{fill:#8b8b8b;}.cls-37{fill:#f8f8f8;}.cls-38{fill:#8f8f91;}.cls-39{fill:#2c2c2a;}.cls-40{fill:#0f100e;}.cls-41{fill:#0e0f0b;}.cls-42{fill:#1f211d;}.cls-43{fill:#141510;}.cls-44{fill:#3c3c39;}.cls-45{fill:#474b4c;}.cls-46{fill:#393c3a;}.cls-47{fill:#474c4b;}.cls-48{fill:#343c3d;}.cls-49{fill:#9f9c96;}.cls-50{fill:#1a1e1a;}.cls-51{fill:#d9a799;}.cls-52{fill:#5c332f;}.cls-53{fill:#d9ab9e;}.cls-54{fill:#c8a8a2;}.cls-55{fill:#471a14;}.cls-56{fill:#583e33;}.cls-57{fill:#b6b6b6;}.cls-58{fill:#4c504f;}.cls-59{fill:#eeeeef;}.cls-60{opacity:0.2;}</style></defs><title>Asset 6</title><g id="Layer_2" data-name="Layer 2"><g id="Layer_1-2" data-name="Layer 1"><path class="cls-1" d="M13.55,21.19c2.89.67,6,2.24,7.77-1.83.84-4,3.25-2.33,5.43-1.52,1.42,1.45,3,2.69,4.49,4.1,1,1.9,2.15,1.31,3.51.29s2.8-2.49,4.77-1h0a7.6,7.6,0,0,1,1.38,3.48c-.1.47-.22.93-.32,1.4.66.12-.21,1.06,0,.26.68-1.31-.13-3.57,2.25-4.15,6.66-2.21,10.4-.82,15.88,5.91,1.37,3.21,2.26,6.2,0,9.66-1.7,2.59,2,5.48.63,8.47a5.88,5.88,0,0,1-5.23-.85,23.32,23.32,0,0,1-4.18-9.94c-.43-2.12-.75-4.23-3.37-5-2.81-.82-3.22,1.69-4.56,2.94a21.06,21.06,0,0,0-3,4A5.71,5.71,0,0,1,38,38.45c-6.45,6-6.45,6-15.25-.44A82.49,82.49,0,0,1,17,32c-.7-.92-1.41-1.88-2.84-1.21-.92.43-4.26,7.62-4.41,8.76-.32,2.38.44,4.82-.41,7.18-2.1,2.54-4.4,2.42-6.83.51-.83-3.36,1.94-7-1.72-10.4-1.63-1.5-.28-5.09.9-7.57C5,25.65,8.19,21.82,13.55,21.19Z"/><path class="cls-2" d="M57.46,88.22C67,91.46,76.66,94.6,86.18,98c3.61,1.3,5.4,4.77,7.35,7.81,1.58,2.45-.8,2.87-2.25,3.17-2.91.61-5.9.85-8.85,1.25-1.77.88-3.45-.36-5.19-.21-9.27-3.09-18.36-6.69-27.61-9.85-2.55-.87-5.61-1.38-6.39-4.77a3.13,3.13,0,0,1,3.1-1.87c13.41,4.1,25.83,11.23,39.89,13.38-1-1.24-2.52-1.43-3.73-2.2-8.6-3.47-17.29-6.67-26-9.79-2-.71-4.31-.87-5.25-3.26C52.09,88.31,55.28,89.18,57.46,88.22Z"/><path class="cls-3" d="M13.65,72.21c2.2,1,4.4,3.29,6.62,0a2.56,2.56,0,0,1,1.19.49,9.9,9.9,0,0,0,5.46,3.1c2.95,1.51,4.9.42,6.16-2.41,2.94-.83,2.55,1.93,3.52,3.23.52,1.35.85,2.85,2.47,3.44a40.91,40.91,0,0,1,5.14,3l1.38,1c-1.33,2.47-4.05,2.7-6.21,3.84-9.93-1.71-18.82-6.47-28.27-9.63a3.13,3.13,0,0,1-1.06-1.11C9.58,74.3,11.07,72.86,13.65,72.21Z"/><path class="cls-4" d="M60.63,56.17c1.51.59,3.7-.77,4.52,1.92a3.94,3.94,0,0,1-1.36,4.45C61,65,61.41,67.93,61.65,71.2c.18,2.54,2.43,6.74-3.12,7-3.19-1.37-3.81-5.1-3.42-7.09.91-4.61-1-9.25.77-13.69a4,4,0,0,1,1.45-2.53C58.78,54.42,59.78,55.1,60.63,56.17Z"/><path class="cls-5" d="M37.51,37.21c1-3.4,4.83-5,5.3-8.79.13-1,1.32-1,2-.47,1.91,1.34,5.17,1,5.83,3.75,1.12,4.54,1.85,9.17,3.93,13.41a1.12,1.12,0,0,1-1.05,1c-1.2-1.76-2.13-3.83-3.67-5.22-3.36-3-6.92-3.45-10.14.41-2,.11-1.61-1.3-1-2.06C40.59,37.1,37.78,38,37.51,37.21Z"/><path class="cls-6" d="M38.44,44.25c.34,1.64.68,3.29,1,4.94-.7,1.12-.44,2.74-1.81,3.53a4.07,4.07,0,0,1-3.16,0c-1-.17-1.18.61-1.36,1.36-.22,3,0,6-.09,9,0,1.87-.06,3.71-2.1,4.67a2.89,2.89,0,0,1-1.67-.11C27,66.3,27.07,64.15,27,62c-.07-3.27.43-6.59-.67-9.8a8.27,8.27,0,0,1-.2-2.48,5.3,5.3,0,0,1,.33-1.57A3.55,3.55,0,0,1,28,46.48C31.67,46.55,34.88,44.57,38.44,44.25Z"/><path class="cls-7" d="M18.37,108.05c1.34-6.29,2.37-12.6,1-19-.25-1.15-.17-1.93,1.17-2.12,1.32-.57,2.59-.17,3.87.17a2.92,2.92,0,0,1,1.83,2.59c-.57,4.88.14,9.83-1.14,14.7-.69,2.6-1.81,4.11-4.38,4.59A2.38,2.38,0,0,1,18.37,108.05Z"/><path class="cls-8" d="M37.25,52l2.2-2.81c-.67,6.31,2.16,12,3.32,18,.39,2,1.49,3.57-1.39,5.33-2,1.22-1.51,4.65.21,7,.87,1.18,1.74,2.37,2.62,3.55-2.22.41-4-.74-5.85-1.66-1-2.91-.66-5.87-.33-8.83,0-.54,0-1.09,0-1.63-.61-4.86-2.22-9.55-2.26-14.54C35.74,54.57,35.91,53.18,37.25,52Z"/><path class="cls-9" d="M20.41,9.18c1-3.44,1-7.38,5.46-8.89,3.25-1.11,8.44,1.11,9.8,4.64.47.83,0,1.27-.68,1.61-3-1.45-5,1.08-7.3,2.06-2.24-1-2.48,2.09-4.25,2.08A5.84,5.84,0,0,1,20.41,9.18Z"/><path class="cls-10" d="M38.44,44.25c-2.7,3-5.92,4.26-9.91,2.9a2.88,2.88,0,0,1-1-1.86c0-1.25.51-2.71,1.74-2.53,4.57.64,6.05-3,8.28-5.59l0,0c1.61.09,2-1.51,3.16-2.28,1.46,2.45-1,4.26-.94,6.42Z"/><path class="cls-11" d="M39.58,87.07c1.37-2.28,3.63-2.76,6-3,2.7.93,5.51,1.6,7.91,3.25.75,2.68-2.34,2.74-3,4.44a3.91,3.91,0,0,1-2.84.63,5.37,5.37,0,0,1-1.41-.44C44.36,89.87,40.5,90.47,39.58,87.07Z"/><path class="cls-12" d="M56.47,57.31a19.71,19.71,0,0,1-.17,11.1C55,72.6,57.51,75,58.53,78.19c-2.1.48-3.27.56-4.06-2.37-1.47-5.39,1.6-11.11-1.85-16.35-1-1.46,1.35-2.14,2.86-2.3C55.89,56.62,56.22,56.66,56.47,57.31Z"/><path class="cls-13" d="M40.5,24.14c-2.64-.18-1.46-1.67-1-2.92,2.54.47,4.75-1,7.17-1.27,4.68-.6,11.09,3.64,12,8.17-1.55-.92-3.34-1.58-4.59-2.8-3.36-3.26-7.08-3.84-11.31-2.21C41.53,22.4,41.2,23.67,40.5,24.14Z"/><path class="cls-14" d="M34.73,6.2c.31-.42.62-.85.94-1.27,4,4.19,3.13,9.38,3,14.43-2.46,2.78-4,.07-5.77-1a3.59,3.59,0,0,1-.79-1.1,2.94,2.94,0,0,1,0-1.32,11.39,11.39,0,0,0,1.21-3.55,3.94,3.94,0,0,0-.12-2.94C33,8,33.19,6.8,34.73,6.2Z"/><path class="cls-15" d="M56.47,57.31a3,3,0,0,1-1-.14c.49-1.6.8-3.1-.94-4.29s-.45-2.51.17-3.74c1.55-.7,2.68-2.43,4.73-1.93a4.18,4.18,0,0,1,4,4c-1.15,2.41-3.93,2.34-5.74,3.75C57.31,55.75,56.89,56.53,56.47,57.31Z"/><path class="cls-16" d="M13.55,21.19C9,23,6.63,28.06,1.65,29.24,2.43,24.05,8.8,19.74,13.55,21.19Z"/><path class="cls-17" d="M11.65,43.42C10.26,47.17,7.4,50.3,7,54.45c-2.25-1.07-4.18-2.46-5-5a2.33,2.33,0,0,1,.44-1.37,8.55,8.55,0,0,1,0-.88c2.11-.47,4.89,1.15,6.14-2,.55-.83.42-1.9.88-2.74s.24-2.76,1.89-2.07C12.58,40.91,12.06,42.35,11.65,43.42Z"/><path class="cls-18" d="M33.53,17.28c1.82.43,2.71,3.18,5.15,2.08l.84,1.86c-2.49,0-3.37,2.39-5.16,3.46-3.07,1.83-4.19,1.12-3.66-2.37a8,8,0,0,1,1.88-4.12C32.89,17.88,33.21,17.58,33.53,17.28Z"/><path class="cls-19" d="M13.65,72.21c-1.26,1.52-2.58,3-3.09,5-.9.89-1.86.67-2.83.15l-.3-2.13c2.88-2.08,4.53-5.08,6.16-8.11.45-.84,1.05-2,2.17-1.33s.46,1.7,0,2.58C15,69.61,14.34,70.92,13.65,72.21Z"/><path class="cls-20" d="M7.73,77.32c.9-.91,1.87-.49,2.83-.15l0,0a3.16,3.16,0,0,1,.63,1.15c-.09,1.31.28,2.65-.22,3.94-1,.65-.63,2.08-1.6,2.74-.24.78-.53,1.55-.71,2.35-.23,1.09-.11,2.7-1.8,2.27s-.59-2-.49-2.93C6.76,83.54,7.28,80.44,7.73,77.32Z"/><path class="cls-21" d="M18.37,108.05l2,0c2-.38,4.05-1.39,5.92.35l.4.68a20.34,20.34,0,0,1-15.22,0C13.57,107.48,16.19,109.12,18.37,108.05Z"/><path class="cls-22" d="M9.41,85c0-1.07-.42-2.27.95-2.9,5.29-1.7,9.29,1.25,13.42,3.73a1.93,1.93,0,0,1-.26,2.27c-1.3.37-2.13-.45-3-1.18-2-.72-3.88-1.52-5.87-2.12-1.78-.55-4.19-2.38-4.26,1.69,0,.72-.52.44-.68-.07S9.51,85.45,9.41,85Z"/><path class="cls-23" d="M26.47,18.12C25,19.34,22.57,17,21.32,19.36c-3.91-1.64-.07-2.79.27-4.16.52-1.09-.36-2.81,1.49-3.3,1.49.14,2.16,1.35,3,2.31a6,6,0,0,1,1,1.65A2.43,2.43,0,0,1,27,17.71Z"/><path class="cls-24" d="M59.44,47.21c-1.51.82-1.66,4.94-4.73,1.93l-1.17-3,1.05-1c1.6.26,3.57-1,4.69,1.14A2.85,2.85,0,0,1,59.44,47.21Z"/><path class="cls-25" d="M57.74,55c-.76-5.35,4.33-1.74,5.74-3.75.57,2.53-1.34,3.63-2.85,5A4,4,0,0,1,57.74,55Z"/><path class="cls-26" d="M50.54,91c.15-1.9,2.38-2.14,3-3.7l4,.91a12.07,12.07,0,0,1-6.07,3.08A.55.55,0,0,1,50.54,91Z"/><path class="cls-27" d="M23.58,12.1c-.67,1-1.33,2.07-2,3.1-3.63-1.37.11-4.18-1.18-6l3.06,1A1.41,1.41,0,0,1,23.58,12.1Z"/><path class="cls-28" d="M11.65,43.42l-.5-2.32L8.61,45.22c-1.88-1.83,2.06-5.35-1.91-6.57,4.62-1.4,2.42-7,5.56-9.16,2.17-1.5,4.52-3.6,6,1.33.72,2.43,3.49,4.26,5.34,6.36l-.49.49c-2,.13-3.54,1.77-5.61,1.58C13.46,37.78,12.84,41,11.65,43.42Z"/><path class="cls-28" d="M37.54,37.17c-1.19,3.74-3.08,6.64-7.62,6.39-1.1-.06-1.25.78-1.4,1.59-3.36-1.58-5.54-3.9-5-7.94l0,0a4.48,4.48,0,0,1,1.29.66C29.36,42.73,33.56,42,37.54,37.17Z"/><path class="cls-29" d="M33.54,18.16a4,4,0,0,1-2.84,4.15,4.58,4.58,0,0,1-4.23-4.19l.12.06C28.9,16.38,31.22,17.78,33.54,18.16Z"/><path class="cls-30" d="M31.59,28c.78,2.07,3.67,3.66,1.29,6.25-.42.45-1.29,1-1.66.37C29.9,32.38,30.42,30.15,31.59,28Z"/><path class="cls-31" d="M40.5,24.14c.3-1.33.68-2.51,2.26-1-2,1.73-.69,5.86-4.95,6.21Z"/><path class="cls-32" d="M23.53,37.21c1.49,2.75,4.38,4.63,5,7.94,0,.67,0,1.34,0,2l-1,1.07c-2.14.76-4-.12-5.85-1,1.42-4.16-2.91-5.26-4.23-8C18.44,35.49,20.86,36,23.53,37.21Z"/><path class="cls-33" d="M20.72,73.22l-.45-1-1.8-1c2.09-5.52,3.47-11.17,2.84-17.14l.47-4.93c1.86-.57,3,.32,3.92,1.83,1.09,4,.41,7.9-.3,11.79a9.29,9.29,0,0,0,.47,5.83c.34,1.78-1,2.52-2.14,3.35C22.83,72.66,22,73.59,20.72,73.22Z"/><path class="cls-34" d="M21.31,54.14c2.76,6.16,1.48,13.9-2.84,17.14C17.56,65.26,20.16,59.82,21.31,54.14Z"/><path class="cls-35" d="M24.54,51.28l-2.76-2.07-.09-2c2.34-1.94,4-.08,5.85,1,0,.34,0,.67,0,1C26.49,49.86,26.46,52,24.54,51.28Z"/><path class="cls-36" d="M83.46,103.23c-1.55,1.89-3.13.37-4.52-.13-9.86-3.54-19.67-7.22-29.5-10.85-1.18.59-2,.54-2-1.08L50.54,91a1.64,1.64,0,0,0,.85.29Z"/><path class="cls-37" d="M47.45,91.17c.31,1,1.2,1,2,1.08-.37,1.42-1.62,1.69-2.76,2.09l-3.23,1-1.05,0c-.07-.22-.14-.44-.22-.66.18-1.56,1.25-2.4,2.48-3.14a3.68,3.68,0,0,1,2-.32Q47.06,91.2,47.45,91.17Z"/><path class="cls-38" d="M46.67,91.2l-1.14,1c-3.41.44-5.72-2.54-8.89-2.83-7.15-2.51-14.3-5-21.39-7.65-2-.75-4.2-1.21-4.9-3.68a1.25,1.25,0,0,1,.25-.88c10,2.24,19.2,7,29,9.92C41.83,88.64,45.37,88,46.67,91.2Z"/><path class="cls-39" d="M22.54,71.25l3-2.09a1.06,1.06,0,0,1-.31-.81c0-.29.06-.44.12-.44,1.54-1.84,2.74-.67,3.94.45a2.94,2.94,0,0,0,2.51,1.36c1.42.17,2.57-1.29,4.07-.72a12.35,12.35,0,0,1,3,3.41c-.62,2-1.49,3.84-3.42,4.94-1.23-.72.45-3.2-1.93-3.23-2.45,2.65-5.09.62-7.66.33C24.27,73.87,22.3,73.69,22.54,71.25Z"/><path class="cls-40" d="M35.44,77.35c-.14-2.43.78-4.2,3.18-5,.32-.46.59-.43.81.08-.3,3,1.42,6.23-1.07,9C35.52,81.39,35.15,79.61,35.44,77.35Z"/><path class="cls-41" d="M26.55,73.2c0,1.32-.06,2.64-.08,4-2.29-.76-5.64,0-5.75-3.94l1.82-2A6.22,6.22,0,0,0,26.55,73.2Z"/><path class="cls-42" d="M37.35,109.15a74.18,74.18,0,0,0-.57-15.76C38,92.11,39,93,39.89,93.84c1.46,4.75,1.33,9.94,3.84,14.42-1.4,1.52-3.66.74-5.2,1.91C37.8,110.22,37.55,109.71,37.35,109.15Z"/><path class="cls-43" d="M38.53,110.17c1.33-1.63,3.2-2,5.14-2.09a1.68,1.68,0,0,1,2.07-.08c2.16,1.23,4.83-.57,6.91,1.16C48.11,111.72,43.24,109.89,38.53,110.17Z"/><path class="cls-44" d="M35.43,69.26c-1,1.23-1.38,3.74-3.89,1.93-1.12-1.07-1.92-2.24-1.18-3.87,2.2-2.41.78-5.35,1.16-8,.33-2.38-.7-4.94.95-7.15,3.43,1.2,2.38,4.38,2.77,6.76C35.79,62.32,37.85,65.78,35.43,69.26Z"/><path class="cls-45" d="M35.43,69.26q-1.49-8.55-3-17.11c.13-1.52,1-1.53,2.05-.93,2.59,3.91,1.82,8.58,2.9,12.84.61,2.38.89,4.84,2.06,7,0,.43,0,.86,0,1.29l-.4-.08h-.41C36.59,72.32,35.36,71.47,35.43,69.26Z"/><path class="cls-46" d="M28.34,69.22c-.75-.77-1.32-2.06-2.74-1-1.41-3.72-.21-14.64,1.87-17,1.85,3.08.87,6.47,1.06,9.73.12,2.14-.21,4.33,1,6.29C29.53,68.11,29.36,68.92,28.34,69.22Z"/><path class="cls-47" d="M27.47,51.19c-1.4,5.6-1.41,11.35-1.87,17,0,.31-.06.61-.1.92-3.41-1.34-1.92-4.16-1.58-6.28a43.44,43.44,0,0,0,.62-11.6c1-.69,1.42-2.19,3-2.05C27.51,49.88,27.49,50.53,27.47,51.19Z"/><path class="cls-48" d="M39.48,71.11c-3.72-3.11-2.36-7.84-3.62-11.74-.85-2.59-.92-5.43-1.34-8.15l2.74.78C36.43,58.55,39,64.72,39.48,71.11Z"/><path class="cls-49" d="M28.34,69.22l1.19-2a1.47,1.47,0,0,0,.83.11c1.41,1,1.24,2.44,1.18,3.87C29.71,71.77,28.79,70.87,28.34,69.22Z"/><path class="cls-50" d="M25.58,89.16c1.55.86,1,2.38.9,3.56-.45,5.51-1.29,11-.09,16.52l-6-1.14c4.94-2,3.06-6.73,4-10.28C25.19,95,23.55,91.83,25.58,89.16Z"/><path class="cls-51" d="M34.73,6.2c.43,1.13-1.43,1.92-.47,3.13,1.43.94.49,1.66-.23,2.4a20,20,0,0,1-5,2.19,2.41,2.41,0,0,1-2.19-1c-.87-1.71-1-3.35.48-4.83C29.65,6.88,30.56.15,34.73,6.2Z"/><path class="cls-52" d="M27.33,8.08a9.82,9.82,0,0,1,0,5.83c-.07,1.07-.51,1.71-1.71,1.41a3.34,3.34,0,0,1-2-3.22c0-.65-.08-1.3-.11-2C24.93,9.78,24.37,5.63,27.33,8.08Z"/><path class="cls-53" d="M29.51,13.28c.46-2.53,2.46-1.95,4.12-2a1.09,1.09,0,0,1,.67,1c-.23,1.39,1.81,3.81-1.68,3.72C31.3,15.41,29.45,15.44,29.51,13.28Z"/><path class="cls-54" d="M33.54,18.16a12.82,12.82,0,0,1-6.95,0c0-.63.09-1.26.14-1.9,2.34-3,4.15-1.78,5.8.73l1,.27A1.75,1.75,0,0,1,33.54,18.16Z"/><path class="cls-55" d="M32.53,17a5.08,5.08,0,0,0-5.8-.73l-1.16-1,1.71-1.41,2.23-.63c1.61.25,3.39.31,3.11,2.72Z"/><path class="cls-56" d="M34.3,12.28l-.67-1c.83-.43.69-1.18.63-1.9C36.06,10.29,35.5,11.28,34.3,12.28Z"/><path class="cls-57" d="M32.61,89.26c-3.34-.13-6.17-1.87-9.22-2.93l-13-4.25c-.54-1.35-1.6-2.7,0-4L37.63,88C36.35,90,34.71,90.54,32.61,89.26Z"/><path class="cls-58" d="M45.74,108l-2.07.08c-5.66-3.25-3.92-8.77-4.2-13.67,1.46-1.37,2.31-.53,3,.83l-.08.08C42.63,99.78,44.82,103.73,45.74,108Z"/><path class="cls-59" d="M42.48,95.24l-3-.83-2.69-1c-1.43-.68-2.82-1.45-4.29-2-2.54-.93,0-1.44.12-2.14l5-1.26a16.37,16.37,0,0,1,7.9,4.19Z"/><g class="cls-60"><path d="M30.45,4.41a1.94,1.94,0,0,1,1.23.53,1.3,1.3,0,0,1,.32.54,2.91,2.91,0,0,0,.1.59c.18.35.57.21.88.24a.56.56,0,0,1,.41.75c-.07.18.22.26.29.08a.85.85,0,0,0-.31-1A.9.9,0,0,0,32.82,6c-.17,0-.44.07-.47-.16a2.51,2.51,0,0,0-.14-.66,1.68,1.68,0,0,0-.41-.54,2.28,2.28,0,0,0-1.35-.54c-.19,0-.19.29,0,.3Z"/></g><g class="cls-60"><path d="M30.2,4.4l1.41.32a2.37,2.37,0,0,1,1.08.46,1.17,1.17,0,0,1,.34.48c.08.18.06.38.13.56s.2.25.33.37a1,1,0,0,1,.32.51c0,.19.33.11.29-.08a1.3,1.3,0,0,0-.27-.52c-.15-.17-.38-.25-.41-.49a1.7,1.7,0,0,0-.52-1,2.46,2.46,0,0,0-1.1-.5c-.5-.13-1-.24-1.52-.35a.15.15,0,0,0-.08.29Z"/></g><g class="cls-60"><path d="M30.16,8.8a3.33,3.33,0,0,1,2.71.14c.17.09.32-.17.15-.26a3.68,3.68,0,0,0-2.94-.17c-.18.07-.1.36.08.29Z"/></g><g class="cls-60"><path d="M30.35,9.38A7,7,0,0,0,32.61,9a.15.15,0,0,0-.08-.29,6.74,6.74,0,0,1-2.18.37.15.15,0,1,0,0,.3Z"/></g><g class="cls-60"><path d="M30.39,9.22l1.33-.4c.18-.06.11-.35-.08-.29l-1.33.4c-.18.06-.1.35.08.29Z"/></g><g class="cls-60"><path d="M29.91,9.22a7.67,7.67,0,0,1,1.92-.61c.19,0,.11-.32-.08-.28a7.33,7.33,0,0,0-2,.63c-.18.08,0,.34.15.26Z"/></g></g></g></svg>