<svg xmlns="http://www.w3.org/2000/svg" viewBox="0 0 82.94 107.9"><defs><style>.cls-1{fill:#251f1f;}.cls-2{fill:#060404;}.cls-3{fill:#292521;}.cls-4{fill:#2a2421;}.cls-5{fill:#3f3d35;}.cls-6{fill:#47463d;}.cls-7{fill:#24221a;}.cls-8{fill:#0d0c09;}.cls-9{fill:#322f26;}.cls-10{fill:#37352c;}.cls-11{fill:#49473e;}.cls-12{fill:#14150f;}.cls-13{fill:#414135;}.cls-14{fill:#12120e;}.cls-15{fill:#282821;}.cls-16{fill:#654d41;}.cls-17{fill:#8f756d;}.cls-18{fill:#37372d;}.cls-19{fill:#3d3d33;}.cls-20{fill:#0a0b0a;}.cls-21{fill:#34302a;}.cls-22{fill:#251f1e;}.cls-23{fill:#333028;}.cls-24{fill:#333027;}.cls-25{fill:#dcb1a2;}.cls-26{fill:#b9897d;}.cls-27{fill:#5b423a;}.cls-28{fill:#4c493f;}.cls-29{fill:#343227;}.cls-30{fill:#4c4a41;}.cls-31{fill:#856055;}.cls-32{fill:#1b0000;}.cls-33{opacity:0.2;}</style></defs><title>Asset 17</title><g id="Layer_2" data-name="Layer 2"><g id="Layer_1-2" data-name="Layer 1"><path class="cls-1" d="M23.23,35.59c-1.74-1.19-2.35-2.43,0-3.58A60.9,60.9,0,0,1,32,28c1.92-.59,2.18-1.68,2.45-3.15,3-1.71,3.82.68,4.93,2.56,1.09,3.84-.07,7.73.31,11.59-.32,2,.73,3.8.79,5.71.79-2.37,1.72-4.77.79-7.38-.47-3-1.13-6-.46-9.07a4.54,4.54,0,0,1,2.69-3.67l.79-.12c2,3,5.37,3.79,8.48,5,6.5,2.48,6.49,2.49,2.43,8.23-2.46,1.73-4.42,3.61-4.62,7-.36,6-1.36,7-7.31,8.78-8.17.32-13.37-3.17-14.81-11.54-.22-1.31-1.3-1.79-2.57-1.83C23.71,39.37,24.18,37.06,23.23,35.59Z"/><path class="cls-2" d="M35.16,22.59a14.82,14.82,0,0,1-4-18.16A2.1,2.1,0,0,1,33,3.21c1.61-.36,3.17-.92,4.76-1.35,2.38-.64,5.81-2.53,7-1.61,3,2.43,6.08,4.8,9.33,6.94,1.07.7.18,1.32-.24,2-2.61,4.1-3.27,9.39-7.56,12.48a1.08,1.08,0,0,1-1.33,0,3.13,3.13,0,0,1-.18-3.42c1-1.23,1.34-2.52.29-3.91-.4-1.06-1.31-1.26-2.28-1.34-1.2.17-2.77-.81-3.35,1.15A7.13,7.13,0,0,1,39,15.34a28.42,28.42,0,0,0-2.9,6.37A2.47,2.47,0,0,1,35.16,22.59Z"/><path class="cls-3" d="M19.15,77.69c-1.66-2.47-3.34-4.92-5-7.41-4.64-7.06-4.74-7.09-11.41-.93,2.54-5,1.27-9.53,2.66-13.72.85-1.22,1.88-.2,2.82-.21,3.7-.21,7.16,2.07,10.93,1.09,2.36,1.15,5.31-2.75,7.38.87-.69,3.13-3.62,4.58-5.36,6.93-2,2.75-2.69,5-.37,7.87A8.75,8.75,0,0,1,23,77.09a3.15,3.15,0,0,1-.35,1.3C21.15,79.8,20.35,77.73,19.15,77.69Z"/><path class="cls-4" d="M65.12,56.48c3,3.1,5.29-1.69,8.08-.64,2.72.08,3.89,1.33,3.12,4.08-.12,2.67,2.09,4.17,4,7-6.16-3.24-9.12.26-12.09,3.71-1.32.94-1.3-2-2.68-.89-4.49-.6-5.83-3.19-4.6-8.86A7.85,7.85,0,0,1,62,59.07,6.82,6.82,0,0,1,65.12,56.48Z"/><path class="cls-5" d="M26.16,57.47c-1.49-1.33-2.81.07-4.13.38-1.48.36-2.6.64-2.86-1.34,1.86-2.92,8.3-.78,7.52-5.71-.51-3.27-.91-6.81-2.22-10a11.2,11.2,0,0,1-1.24-5.21c1,1.3,2,2.61,3,3.91.69-.07,1.48.06,1.67.72,1.49,4.92,4.55,9.41,4.2,14.85a3.89,3.89,0,0,1-.88,1.35C29.69,57.4,28.19,58.7,26.16,57.47Z"/><path class="cls-6" d="M65.12,56.48c-.64,1-1.29,2.06-1.94,3.08-2,.87-3.4-.14-4.73-1.48a9.1,9.1,0,0,0-6.11-2.69,3.79,3.79,0,0,1-2.85-2.46c0-3.24.87-6.38.8-9.65,0-2.36,1.26-3.93,4-3.64a3.93,3.93,0,0,1,.06.48C54.12,51.6,54.12,51.6,65.12,56.48Z"/><path class="cls-7" d="M19.15,77.69c1.49-1.35,1.83.75,2.81.93,4.78,2.09,5.56,7.21,8.26,10.88.49,1,.14,2.22,1,3.07a74.89,74.89,0,0,1,7.71,13,2,2,0,0,1-2.45,0,24.38,24.38,0,0,1-7.85-9.9c-2.23-3-4.5-6-4.51-10Z"/><path class="cls-8" d="M54.26,39.64c-2.48,1-3.09,3-3,5.53.09,2.91.16,5.84-.84,8.66a4.46,4.46,0,0,1,2.44,4.76c-1.53,2.48-2.87.79-3.82-.4-1.59-2-3.72-3.26-5.53-4.95l-.3-.63c4.38-1.57,6.38-4.42,6.1-9.32-.2-3.57,2.46-5.31,5.92-5.62C54.89,38.32,54.58,39,54.26,39.64Z"/><path class="cls-9" d="M66.09,68.75c.08-.6,0-1.52.89-1.33,1.86.4.13,2.36,1.22,3.18-4.66,5.08-6.46,12-10.92,17.17a1.91,1.91,0,0,1-1.52-1.3c-.29-2.5,1.78-4.23,2.16-6.52C59.87,75.66,61.41,71.06,66.09,68.75Z"/><path class="cls-10" d="M76.32,59.92c0-2.12-1.7-3-3.12-4.08,2.82-1.75,4-4.74,5.68-7.39.78-1.26.84-4,3.17-2.53,2.15,1.31-.18,2.45-.89,3.52A33.67,33.67,0,0,0,76.32,59.92Z"/><path class="cls-11" d="M30.05,94.84c-1.57-.37-2,1-2.82,1.81-1.88-.16-2.08-2.08-3.18-3.05-5.95-2.73.27-5.32.09-8Z"/><path class="cls-12" d="M24.05,93.6c1.38.69,3.11,1,3.18,3.05L26,104.21c-.29.79-.57,1.57-.85,2.36-1.31.93-2.12.42-2.64-.91C24,101.76,23.59,97.63,24.05,93.6Z"/><path class="cls-13" d="M8.24,55.42c-.85,1.28-1.89,0-2.82.21-1.58-2.48-3.09-5-4.75-7.42-.77-1.13-1.1-2.16.26-2.84s1.87.51,2.45,1.57C4.93,49.8,6.61,52.6,8.24,55.42Z"/><path class="cls-14" d="M54.28,105.57c-.33-1.09-.65-2.18-1-3.27a3.32,3.32,0,0,1-1.6-2.91c.14-1.35-.57-2.51-.88-3.77a2.67,2.67,0,0,1,1-2.28,3.07,3.07,0,0,1,3.6.28l.93,9.76c.39,1.06.85,2.28-.19,3.09C55.35,107.07,54.68,106.33,54.28,105.57Z"/><path class="cls-15" d="M51.22,95.58c1.92.32,2.11,1.63,1.85,3.2-2.47,1.41-3.37,4.42-5.91,5.77-1,.45-1.17,2.17-2.59,1.73-.34-.1-.39-1.11-.58-1.7l5.85-9.14C50.36,94.93,50.82,95,51.22,95.58Z"/><path class="cls-16" d="M45.37,21.62a.9.9,0,0,1,.87,0c-.08,1.33-1.11,2-1.94,2.8l-.06.16c-2,1.45-4,2.44-5.64-.54a3.62,3.62,0,0,1,0-1.27c.15-.59.37-1.17.58-1.75a8.88,8.88,0,0,1,.32-1.2c.08-.2.17-.39.25-.59a4.23,4.23,0,0,1,.83-1.05C45.23,15,44.23,19.81,45.37,21.62Z"/><path class="cls-17" d="M39,22.51c.72,3.23,3,2.66,5.21,2.11L42,27.47c-1.16,2.49-2.42,2.14-3.75.13-1-1.32-1.68-3-3.76-2.76.23-.75.46-1.5.7-2.25,0-.34.07-.67.11-1A2.73,2.73,0,0,1,39,22.51Z"/><path class="cls-15" d="M55.38,93.62a3.17,3.17,0,0,1-3.18,0,2.15,2.15,0,0,1-.68-2c1.1-2.1,2.12-4.29,4.67-5.07.36.4.72.79,1.09,1.18C57.43,90,58,92.3,55.38,93.62Z"/><path class="cls-18" d="M54.28,105.57c2.8,1.24,1.33-1.48,2-2.19,1.46,4.54,5.21,1.31,7.73,2.27.78.59.7,1.25.14,1.94-2.46,0-4.92.08-7.38.07C55.43,107.65,54.06,107.54,54.28,105.57Z"/><path class="cls-19" d="M22.51,105.66l2.64.91c-3.23,2.32-6.55,1-11.27.59C17.43,104.75,20.13,106.21,22.51,105.66Z"/><path class="cls-20" d="M31.16,55.58c-1.6-5.37-1.93-11.12-4.9-16.08.36-1,.19-3.32,2.11-1.24,1.21,1.31,1.39,3.28,2,5,1.62,4.51,3.16,9.32,9.73,8.19.94-.16,2.06.77,3.1,1.2l0,0c.08.48.17,1.15-.29,1.31C39.08,55.19,35.41,57.47,31.16,55.58Z"/><path class="cls-11" d="M38.22,27.6A2.57,2.57,0,0,0,42,27.47c.4,3.37.79,6.74,1.19,10.12-1.28,4.46-1.86,4.69-5,2C36.51,35.6,39.06,31.61,38.22,27.6Z"/><path class="cls-21" d="M38.18,39.61c2.75,2,3.84-.07,5-2A15.11,15.11,0,0,1,40.33,48.1,17.39,17.39,0,0,1,38.18,39.61Z"/><path class="cls-22" d="M31.16,55.58c3.67-2.32,8.18-1.32,12-3,3.2,0,5.11,1.88,6.73,4.33.52.8.47,2.63,2.31,1.61,5,2.95,5.16,6.43.52,10.8a16.18,16.18,0,0,1-4.31,1.43c-5.88.13-6.69-.68-7.78-7.67.34,2-.48,3.8-1.37,5.54l-1.19,1.93c-2,1-3.73-.44-5.61-.41a9.73,9.73,0,0,1-6.92-2.75c-2.46-3.34-.35-5.93,1.46-8.52.85-1.2,2.45-1.75,3-3.23Z"/><path class="cls-23" d="M39.27,68.63c-1.42-3.16.89-5.88,1.45-9,.67,2,1.66,4,1.94,6.13.47,3.52,2.51,4.26,5.53,3.86,2,.88,2.2,2.76,2.74,4.51,1.17,3.82,1.37,7.87,2.8,11.63.9,2.38-.31,4.17-1.56,6l0,1.91c-.33.65-.65,1.31-1,2l-1.38-.14a77.09,77.09,0,0,1-5-20.74C44.56,72.11,41.92,70,39.27,68.63Z"/><path class="cls-24" d="M33.12,68.67c1.89,0,3.35,1.15,5,1.89-2.29,3-2.85,6.25-2.78,10.1.07,4.19-2.7,7.92-4.06,11.91a2,2,0,0,1-2-2C26.64,82.55,31.73,75.94,33.12,68.67Z"/><path class="cls-25" d="M45.37,21.62c-1.35-1.62-2.21-4.49-5.17-2-1.88-1.19-.69-3.63-2-5a4.19,4.19,0,0,1-.31-.86c1.14-2.41,3.66-1,5.34-1.94,1.9-1,3.1-.78,2.87,1.75-1,1.65.95,3.33-.07,5C44.86,19.34,45.18,20.5,45.37,21.62Z"/><path class="cls-26" d="M38.16,14.55c4.8,0,1.35,3.37,2,5l-.3,1a1.82,1.82,0,0,1-.75,2L39,22.51l-3.76-.92C34.36,18.47,35.5,16.2,38.16,14.55Z"/><path class="cls-27" d="M46,18.48c-1-1.67-2.75-3.36.07-5C47.32,15.18,49.55,16.87,46,18.48Z"/><path class="cls-26" d="M43.19,11.75c-1.53,1.33-3.52,1.41-5.34,1.94-1.21-2.5,0-3.19,2.18-2.56A7.68,7.68,0,0,0,43.19,11.75Z"/><path class="cls-28" d="M22.13,77.7c2.68-.14,5.27-4.08,4.83-7.36-.17-1.26-.38-2.52-.57-3.78a11.21,11.21,0,0,0,6.73,2.11c1.16,5-.16,9.46-2.91,13.55a4.32,4.32,0,0,0-.56,4.18c.51,1.45.92,2.89-.44,4.14L22,78.62A4.81,4.81,0,0,1,22.13,77.7Z"/><path class="cls-29" d="M61.71,60.81c-3.28-1.5-5.64-4.24-8.5-6.31,2.87-1.3,4.41,1.12,6.14,2.45,1.24.95,2.26,2.16,3.83,2.61Z"/><path class="cls-30" d="M52.07,68.56c2,3.29,2.88,7,4.16,10.63.52,1.46.91,3.09,2.84,1.22.07,2.54-1.77,4.19-2.88,6.18s-2,4-4,5.12c2.28-4.73-1.91-8.55-2-13.11a25,25,0,0,0-2-9C49.24,68.33,50.71,68.65,52.07,68.56Z"/><path class="cls-31" d="M39.15,22.58a2,2,0,0,1,.75-2l.42.12a6.44,6.44,0,0,0,.85.88A2,2,0,0,1,39.15,22.58Z"/><path class="cls-32" d="M41.17,21.56c-.47-.1-.93-.23-.85-.88Z"/><g class="cls-33"><path d="M39.27,16.87a6.34,6.34,0,0,1,1.51-.14,3.19,3.19,0,0,1,1.3.41c.16.1.31-.16.15-.26a3.48,3.48,0,0,0-1.4-.44,6,6,0,0,0-1.64.14c-.19,0-.11.32.08.29Z"/></g><g class="cls-33"><path d="M38,16.77a6,6,0,0,0,2,.51A2.19,2.19,0,0,0,41.72,17c.14-.14-.08-.35-.22-.22-.38.37-1.08.29-1.56.25a5.79,5.79,0,0,1-1.78-.47c-.17-.07-.33.18-.15.26Z"/></g><g class="cls-33"><path d="M40.79,16.86a2.82,2.82,0,0,1-2.2-.5c-.17-.09-.32.17-.15.26a3.13,3.13,0,0,0,2.43.53.15.15,0,0,0-.08-.29Z"/></g><g class="cls-33"><path d="M38.77,16.71a3.41,3.41,0,0,0,1.62,0,3,3,0,0,1,1.64.07c.18.07.33-.19.16-.26a2.94,2.94,0,0,0-1.61-.13,3.89,3.89,0,0,1-1.73,0c-.18-.06-.26.23-.08.29Z"/></g></g></g></svg>