<svg xmlns="http://www.w3.org/2000/svg" viewBox="0 0 297.85 345.95"><defs><style>.cls-1{fill:#35200e;}.cls-2{fill:#fbfafa;}.cls-3{fill:#291306;}.cls-4{fill:#291307;}.cls-5{fill:#a26849;}.cls-6{fill:#3d2413;}.cls-7{fill:#b47a56;}.cls-8{fill:#714022;}.cls-9{fill:#c6936c;}.cls-10{fill:#36200e;}.cls-11{fill:#563220;}.cls-12{fill:#57321f;}.cls-13{fill:#925b3f;}.cls-14{fill:#35210e;}.cls-15{fill:#36210f;}.cls-16{fill:#55311f;}.cls-17{fill:#412414;}.cls-18{fill:#37210e;}.cls-19{fill:#9e8978;}.cls-20{fill:#a58f7e;}.cls-21{fill:#ab7a57;}.cls-22{fill:#af7959;}.cls-23{fill:#73442a;}.cls-24{fill:#af7d63;}.cls-25{fill:#9f8a79;}.cls-26{fill:#998473;}.cls-27{fill:#f8f9f7;}.cls-28{fill:#2a1406;}.cls-29{fill:#c6926c;}.cls-30{fill:#88523a;}.cls-31{fill:#aa7a57;}.cls-32{fill:#ba8863;}.cls-33{fill:#a67757;}.cls-34{fill:#0c0402;}.cls-35{fill:#211610;}.cls-36{fill:#bb835d;}.cls-37{fill:#3c1f16;}.cls-38{fill:#935c41;}.cls-39{fill:#89523a;}.cls-40{fill:#9f513b;}.cls-41{fill:#a0513b;}.cls-42{fill:#63351e;}.cls-43{fill:#e5c6b2;}.cls-44{fill:#56311f;}.cls-45{fill:#55301e;}.cls-46{fill:#976d54;}.cls-47{fill:#d49e78;}.cls-48{fill:#a46045;}.cls-49{fill:#8a6950;}.cls-50{fill:#351f11;}.cls-51{fill:#af9c8e;}.cls-52{fill:#ad714f;}.cls-53{fill:#321d18;}.cls-54{fill:#3c1e11;}.cls-55{fill:#240f05;}.cls-56{fill:#d2a583;}.cls-57{fill:#d5a581;}.cls-58{fill:#976144;}.cls-59{fill:#ab7451;}.cls-60{fill:#8b5638;}.cls-61{fill:#f8f8f7;}.cls-62{fill:#dadbdb;}.cls-63{fill:#e6c7b3;}.cls-64{fill:#ac856b;}.cls-65{fill:#a17353;}.cls-66{fill:#af9c8d;}.cls-67{fill:#f6f3f1;}.cls-68{fill:#c5906a;}.cls-69{fill:#e8c8b3;}.cls-70{fill:#6d3e20;}.cls-71{fill:#cbb098;}.cls-72{fill:#ab8470;}.cls-73{fill:#8e573a;}.cls-74{fill:#faf9f9;}.cls-75{fill:#fbfaf9;}.cls-76{fill:#d8b59b;}.cls-77{fill:#d2b096;}.cls-78{fill:#b08473;}.cls-79{fill:#875238;}.cls-80{fill:#c0b19f;}.cls-81{fill:#7f472a;}.cls-82{fill:#eac0a3;}</style></defs><title>Asset 1</title><g id="Layer_2" data-name="Layer 2"><g id="Layer_1-2" data-name="Layer 1"><path class="cls-1" d="M79,19.36l1-.25c3.6-1.64,9.26-.27,9.65-6.6,1.56-3,4.19-3.75,7.3-3.49L99,8c6-.64,12.09-1,18-2.66,1.44.69,3,1.74,1.73,3.35-3.37,4.15-5.44,9.13-8.85,13.23a3.42,3.42,0,0,1-2.2,1.07c-2.06.05-4.06-.71-6.14-.44-1.62,0-3.24.07-4.87,0-3.89-.07-7.78,0-11.67,0a18.08,18.08,0,0,0-4,.4C78.06,23.06,76.84,22.16,79,19.36Z"/><path class="cls-2" d="M96.9,9c-2.63.88-5.31,1.69-7.12,4-.19.37-.44.42-.75.14-1.74-1.39-.81-3.35-1.07-5C90.92,8.63,94.07,7.22,96.9,9Z"/><path class="cls-3" d="M97,21.16h5c1.94.71,3.66,2.69,6,1,4.52-4,5.54-10.45,10.2-14.37.18-.14-.76-1.61-1.18-2.46.75-.29,1.83,0,2.13-1.12C122.85,3.09,126.08.65,130,0c6.69.35,13.51-.51,19.91,2.3,3,2.2,6.83,1.36,10.06,2.72A35.71,35.71,0,0,1,180,13c1.74,7.19.9,8.14-6.41,7.62-1.85-.14-4.67-1.08-5.19,1.32s2.3,2.88,4.14,3.52c2,.71,4.16,1.18,6.22,1.83,7,2.21,11.63,6.27,11.44,14.27-.08,3.06,1.5,5.37,3.88,7.17,6.22,4.68,11.2,10.34,13.87,17.94,5.42-8.82,4.36-14.12-3.75-19.83-2.45-1.72-4.95-3.36-7.3-5.21-.63-.5-1.27-1.24-.91-2.13.47-1.16,1.58-1.14,2.55-.87,2.09.59,3.84,1.94,5.82,2.81a39.21,39.21,0,0,1,3.81,2.38c6,4.16,9.16,9.48,7.08,17-.39,1.43-.55,2.92-1,4.35-3.38,10.34-1.46,12.49,5.47,16.64,3.68,2.21,5.76,5.54,5.41,10-.37,4.8,1,8.79,4.69,12,1.17,1,2.94,2.66,1.69,4.12-1.47,1.7-3.4.07-4.85-.9-3.32-2.23-6.17-5.37-5.8-9.34.7-7.45-2.81-11.87-8.81-15.14a15.69,15.69,0,0,0-2.43-1.64c.76,5.46.09,10.8,2.58,15.86a76.25,76.25,0,0,1,4.15,11.73c.34,1.12.62,2.38-.37,3.27-1.21,1.07-2.52.26-3.72-.2a4.62,4.62,0,0,1-2.86-3.28c-1.09-4.6-3.46-8.93-2.94-13.77-.61-.39-.25-.34-.23.12.47,11.27,5.32,19.85,15.36,25.29,7.9,2.48,15.86,3.11,23.94,1,5-.66,7.4,3.88,11.15,5.73,6.31,10.41,7.7,21.17,2.21,32.38a9.17,9.17,0,0,1-1,1.7c-.94,1.15-1.88,2.69-3.55,2.23s-1.64-2.36-1.69-3.8c-.13-3.53-.46-7-2.74-9.9-1.13-1.44-2.35-3.14-4.43-2.7-2.32.49-2,2.72-2.31,4.48-.75,4.77-1.42,9.55-.65,14.38s3.87,8.69,6.91,12.48c3.37,4.2,2.65,5.61-2.85,6.41-3.8.14-7-1.4-10.21-3.52,6.53,7.45,17.19,12,25.37,10.81,2.57,1.41,6.24.72,7.79,4.09,0,3-1.75,5-4.19,6.28a6.38,6.38,0,0,0-3.54,5.58c-1.25,4.43-1.44,8.81.48,13.14.56,1.28.64,2.81-.76,3.55s-2.86.43-3.07-.82c1.52,5,.83,10.62-1,16.18-.65,1.95-1.19,5.19-3.69,4.48-3.26-.92,0-3.56-.34-5.26-1.28,4.15-3.41,7.88-7.47,10.23a1.43,1.43,0,0,1-1.34-.22c-1.2-2.16.31-3.62,1.29-5.28,1.54-2.62,3.74-4.87,4.6-7.9.17-3.95.79-8-1.37-11.64-1.95-3.31-3.59-3.38-5.57-.1a81.7,81.7,0,0,1-17.23,19.7c-2.59,2.3-.31,3.4,1.2,4.55,2,1.51,4.12,2.84,5.12,5.27,1.27,3.06.36,4.33-3,4.16-.83,0-1.64-.24-2.46-.36-8.79-1.19-13,2.66-12.67,11.65,0,.48-.07,1-.08,1.43,2.21-1.19,2.41-3.51,3.14-5.56.5-1.4,1.19-3.15,3-2.71,1.5.37,1.18,2.11,1.15,3.43-.07,3.3,3.31,6.95,6.73,7.18.23,0,.45-.82.69-1.27a3.11,3.11,0,0,1,1-1c2.52-.21,5.33-1.49,7,1.78-6.33,7.07-14.49,10.12-23.76,10.71a3,3,0,0,1-1.79-1.27,135.24,135.24,0,0,1-10.5-19.43c.51-5.19,2.95-9.78,4.56-14.63.5-1.52,1.81-2.21,3.23-2.87,6.26-2.9,8.47-7.29,7.24-14-.12-.66.14.11-.12-.48-4.34-10-1.64-19.47,2-28.89,3.5-11.87,3.66-24,3.45-36.26.42-4.91.53-9.72-4.07-13.07-2.93-2.71-4.36-6.23-5.5-9.93a19.24,19.24,0,0,1-.28-3.79c0-.66-.18.13,0-.49,2.71-8.44.33-15.91-4.33-23A38,38,0,0,0,205,111c-3.06-6.09-5.28-12.33-5.53-19.33-.34-9.79-6.54-16.64-13-23.14a3.4,3.4,0,0,0-4.54-.36,14.73,14.73,0,0,1-6,2.13,66.83,66.83,0,0,1-8.49.08c-11.78-.59-19.51,5.81-25.07,15.13a103.88,103.88,0,0,0-10.1,22.77,20.69,20.69,0,0,1-3.21,5.59c-2.28,2.8-5,5.19-7.5,7.77a10.75,10.75,0,0,1-1.74,1.34c-4.82,2.63-10.13,4.08-15.15,6.23a52.58,52.58,0,0,1-16.5,3.2c-3.7-.59-7.83,1.21-12.06-2.41a53.52,53.52,0,0,0,20.65-9.11c7-5.41,13-11.79,18.91-18.36.72-.4,1.8-1.07,2.22-.3,1.31,2.36,2.16,1,3.16-.15a16.78,16.78,0,0,0,3.31-5.54c3.93-10.71,10.11-20,17.43-28.67a4.65,4.65,0,0,0,1-1.71,1.47,1.47,0,0,0-.09-1c-1.41-1.07-2.36.33-3.48.79S137,67.05,136,66s-.73-2.46-.11-3.69a16.26,16.26,0,0,1,6.87-7,16.21,16.21,0,0,0,4.69-3.42C142,54,137.3,57.41,132.67,60.83c-1.16.86-2.16,2.53-3.77,1.16-1.3-1.09-1-2.73-.45-4.19,1.66-4.78,5.33-7.92,9.74-11.52-2.08.4-3.21,1.25-4.48,1.61-1.76.5-3.73,1.32-4.9-.79-1.08-2,.26-3.59,1.56-4.84,4.83-4.68,10.34-8.22,17.13-9.37.69-.12,1.39-.23,1.95-.37-11.13.29-17.61,10.57-27.79,13.2a8.31,8.31,0,0,1-1.4.4,5.36,5.36,0,0,1-1.48.18c-2.7-.21-6.52,1.35-7.75-1.52-1.35-3.14,3-3.58,4.7-5.36a49.11,49.11,0,0,0,7-9c3.52-6.05,7.61-11.38,13.56-14-6.24,2.17-11,7.6-16.49,12-2.9,2.31-5.95,4.29-9.95,3.55-1.88-1.47-6.8,1.23-5.83-4.31.15-.85-1.33-.71-2.08-.86a16.54,16.54,0,0,0-8.82.51c-7,2.45-14.39,3.93-20.69,8.15C67,38,61.6,40.61,55.33,39.83c-1.57-.71-2.69-1.73-2.56-3.63a5.17,5.17,0,0,1,4.09-1.69c4.11,1,7.29.24,8.61-4.31,1.48-1.71,2.88-3.54,5.12-4.36C74.22,25.09,77,21.92,81,22.15c.72-1.17,1.9-.95,3-1C88.31,23.32,92.64,22.85,97,21.16Z"/><path class="cls-1" d="M203.89,42.15c-2.68,0-4.42-2.65-7.41-2.23,2.88,2,5.74,4,8.64,6,7.57,5.15,8.45,7.53,6.11,16.63a16.77,16.77,0,0,1-.64,2.9c-.69,1.44-.38,4-2.28,4.08-2.34.14-1.49-2.55-2-3.9-2.6-6.56-7.06-11.54-12.65-15.59-3.21-2.32-4.88-5.15-4.8-9.24.11-6-2.59-9.62-8.25-11.56-3.44-1.18-7-1.93-10.44-3.21-2.15-.81-4.54-2.23-3.87-5,.62-2.56,3.23-1.69,5.12-1.83a12,12,0,0,1,2,0c3.48.32,8.91,2.9,5.4-4.77-.11-.24.8-.95,1.23-1.44,4.09,3.35,9.11,2.39,13.8,3,4.87-1.3,8.63,1.86,12.85,3.18,3,1.55,5.86,3.29,8.7,5.1a6,6,0,0,1,1.51,1.58c.93,2.43,2.81,4.61,2,7.5-1.65.9-2.91-.07-4.07-1-5.2-4.1-11.35-6.14-17.52-8.16,2.88,1.25,5.5,3,8.33,4.36,1.32.63,2.87,1.76,2,3.42-.74,1.42-2.37.65-3.59.19s-2-1.07-2.76-1.31c4.39,2.54,4.5,2.85,1.49,4.9-.1.07-.13.25-.19.38a2.59,2.59,0,0,1,.85.57C204.58,38.45,206.61,40.12,203.89,42.15Z"/><path class="cls-4" d="M71,26.11l1.09-1.91,2-1.93L79,19.36c-.43,1.72-.65,3.28,2,2.79-3,2-6.73,2.59-9.1,5.53Z"/><path class="cls-4" d="M89,13.2a1.5,1.5,0,0,1,.75-.14c1.78,2.28-.46,3.87-1.6,4.28-2.6.93-5.22,2.5-8.23,1.77C82.75,16.79,87.83,18,89,13.2Z"/><path class="cls-4" d="M97,21.16c-3.11,4.1-7.81,1.72-11.68,2.71-1.31.34-1.21-1.6-1.31-2.7Z"/><path class="cls-4" d="M108,22.17c-2.77,4.32-4.17.41-6-1C104.08,20.81,106,21.83,108,22.17Z"/><path class="cls-5" d="M192,278.3c-2.68,1.07-1.32,4.11-2.83,5.75-7.95,3.13-14.63,8.5-22.15,12.41-17.68,9.19-36,15.68-56.28,14.19-9.27-.69-17.48-5.08-25.62-9.31a3.31,3.31,0,0,1-1.84-2.79c.78-3.76,3.6-2.74,5.92-2.35,8.85,1.52,17.79,1.86,26.72,2.25a44.7,44.7,0,0,0,13.26-1.82,10.91,10.91,0,0,0,5.19-2.78c2.28-2.3,4.56-4.85,3.5-8.26s-4.57-3.24-7.54-3.35a16.38,16.38,0,0,1-9.5-2.43,27.07,27.07,0,0,0-11.28-3.68c-5.4-.59-6.28-2.35-3.84-7.3,1.54-3.13,3.3-6.15,5.13-9.12.43-.23,1.15-.57,1.36-.33,2.76,3.16,7.28,2.43,10.34,4.75,1,.73,1.23.48,1.9-.18,4.9-4.79,11-4.45,17.08-3.71,3.1.38,6.15,1.33,9.14-.31,1.88-.89.83-1.93.12-2.94-6.4-5.84-12.86-11.59-21.41-14.17-.79-.24-1.56-.54-1.64-1.56,2.21-3.56,2.08-7.43,1.48-11.35-.39-2.57-1.07-5.14.22-7.66a1.52,1.52,0,0,1,1.35-.68,42.86,42.86,0,0,0,10.41,3.1c7.37,1.05,12.17-2.54,15.83-8,2.92-4.4.87-9-1.72-12.53-5.8-8-2.92-16-1.35-24.16,2.23-.58,4.05.36,5.81,1.55a7.74,7.74,0,0,0,5.83,3.28c4.12.46,8.17,1.87,12.23,2.08,9.58.48,19.2.25,27.3-6.21,2.33-1.86,4.7-3.68,7.12-5.41,3.82-2.74,5.31-2.12,6.46,2.53a21.91,21.91,0,0,1,.43,8.89c-.87,5.13-.57,10.22-.21,15.33-1.06,3.46-1.92,7-3.22,10.37-1.74,4.5-.79,8.75.48,13.09,1.44,4.9,3.34,9.79.15,14.8-1.19,1.86-2.47,4.16-4.4,4.51-5.42,1-6.1,5.23-7.23,9.25-.84,3-3,5.57-2.68,8.9-1.63,1.86-3.57,3.52-4,6.14C196.27,272.31,195.37,276.11,192,278.3Z"/><path class="cls-6" d="M121,45.13c7.94-2.8,13.84-9.23,21.72-12.16,3.47-1.29,6.93-2.42,12-1.09-5.6,2.73-10.8,2.13-15.1,4.83A37.16,37.16,0,0,0,130,44.53c-.51.63-1.12,1.29-.63,2.21.65,1.24,1.66.83,2.58.46,2-.81,4-1.69,5.94-2.53.76-.33,1.67-.76,2.29,0,.91,1.09-.1,2-.84,2.43A27.52,27.52,0,0,0,132,53.72c-1.67,2.19-3.77,4.57-2.3,8.6,3.46-5.23,9.22-6.36,13.18-10.08a10.57,10.57,0,0,1,4.52-2c1-.25,2.52-.69,3,.83.36,1.17-.85,1.61-1.69,2.11-2.15,1.25-4.26,2.57-6.45,3.74a8.78,8.78,0,0,0-4,3.67c-.74,1.51-3.39,3-1.79,4.62s2.45-1.47,3.94-1.79c1.22-.26,2.5-1.44,3.71-.33,1.47,1.36.63,3.11-.35,4-5.67,5.28-8.53,12.51-13.1,18.52a17.29,17.29,0,0,0-3.18,6c-1.68,5.91-4.5,11.22-9.1,14.92-3-.08,2.19-4.43-2.42-3.46a2,2,0,0,0-1.28.68c-1.42,1.84-3,4.41-5.5,3.09s-1.09-4.17-.78-6.39c.57-4.1,1.49-8.16,1.3-13.44-1.53,6.77-3.44,12.27-6.84,17.27-4.76,7-11.38,10.35-19.45,9.79-9.85-.68-16.43,3.59-21.72,11.78,2.91,1.31,5.15,0,7.05-1.25,8.72-5.58,18.38-4.64,28-4.36a1.89,1.89,0,0,1,1.23.78c-5.72,5-12.09,8.68-19.87,10h10c-.1,1.87-1.66,2.17-2.86,2-7.85-.9-12.46,4.37-17.44,9A20.85,20.85,0,0,1,66,143.74c-3.43,1.11-4.59,3.7-5,7.07a25.14,25.14,0,0,1-1.24,5.28,2.24,2.24,0,0,1-1.62,1.3c-2,0-3.72.67-4.53,2.53C51.39,165,47,167.79,42.41,170.18c-9.83,5.17-19.8,10.17-31.14,11.08-6.07.49-6.2.22-6.95-6a5.09,5.09,0,0,1,.23-2.94c1.48-1.07,3.86.13,5-2.09.34-.66,1.47-.54,1.88.52,0,.1.12.42.15.28,1-4,4.3-6.83,5.76-10.61a19.85,19.85,0,0,1,5.29-1.38c5-1.09,6.11-2.38,5.57-7.5-.31-3-.34-5.4,2.76-7.23,2.32-1.37.6-3.23-.57-4.57-2.62-3-3.78-6.23-1.95-10.07,2.21-8.44,8.24-11,16.34-11.49,6.07-.4,6.71-2,4.91-7.53-1-3-.06-4.87,2.9-5.71,2.72-.77,5.52-1.27,8-2.66,1.19-.67,2.28-1.55,2.24-3s-1.36-2.13-2.62-2.64c-.46-.18-1-.3-1.42-.47-2.3-.83-5.32-1.25-5.33-4.37,0-3.44,3.11-4.46,5.71-5.42,2.95-1.1,6.18-1.3,9.13-2.46,5.09-2,6.32-4.5,4.55-9.7C72,71.54,70.5,69.07,70,66.26c-.93-5.24.28-7.7,5.3-8.94,4.12-1,5.76-2.77,4.08-7-1-2.42.69-4.08,1.85-6.19,4.5-8.15,12.89-7.06,19.93-8.93,3.29-.88,6.35-1.76,8.87-4.08,7.42.19,11.25-5.75,16-9.79a20.23,20.23,0,0,1,11.53-5.15c-12.3,6-14,21.72-26.75,28,3.68,1.58,7,.59,10.13.91.33,1.06-.38,1.57-1.15,1.87-6.24,2.39-10.19,7.19-13.7,12.59-4.42,6.81-9.77,12.67-17.82,15.25-2.09.67-2.69,2.16-3.21,4-1.13,4.09-.75,8.26-.86,12.4-.13,4.72-2.09,8.17-6.48,9.88,5-1,9.23-3.93,13.31-7A13.56,13.56,0,0,0,96.6,82.42c-.24-5.78,2.36-9.84,6.7-13.15,6.75-5.16,13.29-10.49,17.27-18.29C121.58,49,122.92,47.22,121,45.13Z"/><path class="cls-7" d="M218.91,202A16.5,16.5,0,0,1,217.33,190a30.05,30.05,0,0,0-.35-13.79c-.62-2.4-1.42-2.17-3-.9-3.33,2.74-6.71,5.4-10.09,8.06-.91.72-1.84,1.69-2.89,1.89-8.34,1.6-16.49,4.95-25.29,2.69-3.51-.9-7.16-2-10.7-1.85-4.17.15-5.64-1.7-6.19-5.23l.32-.75c4.07-3.93,8.82-4.22,13.89-2.5,2.19.75,4.28,1.83,6.68,1.82,4.9.25,9.8,0,14.69.16,5.12.21,5.44-.12,5.54-5.67,2.38-2.78,4.08-6.37,8.28-7.09.64-.11.91-.87,1-1.56a38.65,38.65,0,0,0-9-14.75c-4.22-4.38-9-5.16-14.57-3.25-1.89.65-3.94,1.25-5.38,2.55-5,4.52-11.09,2.13-16.67,2.83a1.74,1.74,0,0,1-1.92-1.27c-.33-1.19.43-1.9,1.35-2.36A35.21,35.21,0,0,1,173.5,146c2.08-.33,3.83-.85,4.9-2.87a4.84,4.84,0,0,1,6.41-2.2c-1-.58-2.05-1.18-3.11-.81-3.54,1.26-6.32-1.14-9.48-1.74a2.17,2.17,0,0,1-1.06-1c-.82-3.3-1.28-6.32,3.49-7,1.46-.2,1.64-2,1.9-3.25,1.39-6.87,3.76-13.44,6-20.07,2.79-8.38,2.34-17,1.63-25.68-.65-1.88-1.79-2.74-3.81-1.87-1.52.65-3,1.56-4.67,1.7-11.9-.44-19.55,5.58-24.59,15.86-3.74,7.62-8.27,14.61-15.42,19.7-3.29,2.35-7.09,3.48-10.46,5.56a2.87,2.87,0,0,1-4.49-1.5l7-7c5.21-4,10.79-7.72,11.85-15a5.08,5.08,0,0,1,2.07-3.28c4.61-3.63,8.1-8.26,11.41-13a11.35,11.35,0,0,1,8-5.11c3.27-.51,6.58-.74,9.81-1.53,5-1.21,5.76-2.17,5.06-6.7,1.53-.53,3.54-.62,4.5-1.67,3.65-4,6.19-1.1,8.43,1.29,6.93,7.35,12.36,15.38,12.07,26.22-.15,5.73,3.3,10.63,5,15.94.93,10.63,2.12,21.2,6.95,31a31.79,31.79,0,0,0,4.91,9.14c2.85,3.78,4.05,8.17,4.65,12.77C223.27,176.76,223.45,189.59,218.91,202Z"/><path class="cls-8" d="M17.05,161c1.35,2,0,3.16-1.1,4.71C14.32,168,11,170,13.71,173.64a1.18,1.18,0,0,1-.34,1.75,1.31,1.31,0,0,1-1.92-.93,30,30,0,0,1-.76-3.73c-2.26.53-1.12,2.73-2.32,3.77-1.75,0-1.79-2.21-3.2-2.66a4.21,4.21,0,0,1-1.73-3.18A3.32,3.32,0,0,1,4.57,166c1.38-1.2,2.61-2.56,4-3.75,2.83-2.48,3.72-5.39,2.36-8.93a7.85,7.85,0,0,1,2.68-9.75c2.66-2.12,2.83-4.36,1.4-7.41-4.75-10.2-2-17.07,8.44-21.58a48.77,48.77,0,0,1,10-3c4-.78,7.12-2.18,5.42-7.27a6.66,6.66,0,0,1,.1-3c1-2.94.19-5.71-.78-8.48-.58-2.57.47-4.63,2-6.53a17,17,0,0,1,7.07-4.49c4.75-1.73,7.65-5.69,11-9.1,1.33-1.38,1.37-3.33,1.4-5.17q.11-6,0-11.93a20.83,20.83,0,0,1,4.92-13.72,78.8,78.8,0,0,1,7.53-7.65c5.63-3.92,12.38-5,18.6-7.47,5.56-2.18,10.91-1.85,16.5.14-.12,1.92-2.42.79-2.81,2.44,1.41,1.74,4.22-.08,5.63,1.8-.13,4.13-3.47,4.36-6.28,5-5,1.09-10,2-15,2.9-2,.34-2.63,1.75-3.86,3-3.75,3.87-5.33,7.49-3.19,12.84.65,1.64-2,2.92-4.17,3.32-7,1.29-7.8,3-5.68,9.89,1,3.45,3.55,6.35,3.3,10.32-.2,3-1,4.89-4.12,5.93-3.29,1.12-6.5,2.41-10,2.78a11.08,11.08,0,0,0-5.31,2.56c-2.47,1.82-1.91,3.29.57,4.29,1.68.68,3.54.88,5.25,1.49,1.55.54,3.18,1.13,3.45,3.17s-.9,3.17-2.22,4.18c-2.58,2-5.74,2.63-8.79,3.13-3.54.59-4.9,1.47-2.63,5.09,3,4.76,2.37,6-3,7.79a31.61,31.61,0,0,1-6.79,1.31c-4.52.47-9.67.4-9.86,7.15,0,1.31-1.42,2.17-2.62,2.83-3.64,3-6,6.22-4.12,11.5,1.2,3.38-.92,6.15-4.16,7.47-3.9,1.6-5.85,3.6-3.12,7.82A3.3,3.3,0,0,1,17.05,161Z"/><path class="cls-9" d="M184.93,80.06c1.95,9.69,1.76,19.35-1.5,28.68a139.39,139.39,0,0,0-5.66,19.81c-.49,2.6-.75,6.59-5.78,2.59V138a1.2,1.2,0,0,1-.48.09c-2.45-.44-1.4-4.81-4-4.24a15.85,15.85,0,0,0-8.85,5.11c-2.41,2.91-5.28,3.84-8.8,2.74-2.86-.89-4.33.48-5.42,2.87-1.27,2.8-1.21,5.77-1.24,8.75,0,2.47,0,5-1.23,7.23-.7,1.27-1.57,2.35-2.86.47-1.44-7-.3-14.11-.71-21.15-.29-5.07.64-10.18-.48-15.18-2.24-.84-2,1.25-2.33,2.2a30.93,30.93,0,0,0-.73,17.65c2.16,8.13,2.53,16.06-4.31,23.32,3.53-.87,4.46-3.33,6-5.12,1-.8,2-1.41,3.35-.79,1.23,4.9-.07,7.72-4.29,9.41a14.72,14.72,0,0,1-5.33.87,6.57,6.57,0,0,0-6.14,3.43c-1.4,2.55,1.93,3.09,2.19,5-1.13,3.29-4,2.9-6.42,2.64a52.48,52.48,0,0,0-10.18-.22c-1.56-.08-3.06-.37-3.42-2.19a3.16,3.16,0,0,1,2-3.67c6.16-2.22,9.48-8.1,14.9-11.26,2.85-1.66,4.87-4.06,3.72-7.78a48.75,48.75,0,0,1,0-9.36c-3.52,1.89-6.75,6.88-10.65,1.14a4.89,4.89,0,0,1,0-3.55c2-3,4.83-5.58,5.71-9.2.68-2.82,2-6.15-2.15-7.72-4.29,13-14.79,11.89-24.87,10.42-5.47-.8-11-1.19-15.51-2.43a2.08,2.08,0,0,1,1.69.81c.09,1.39-1,1.71-1.93,1.7-7.13,0-9.79,5.16-12.58,10.48,1.34.48,2.25-.63,3.34-.55a27.86,27.86,0,0,1,6.89.12c.91.15,2.13.34,2,1.64-.08.93-1.11,1.1-1.89,1.32a9.17,9.17,0,0,1-2,.27c-1.58.09-3.07.55-3.47,2.23-.56,2.36,3-.06,2.72,2.14a10.9,10.9,0,0,1-7.14,6.78c-2-1.71-5.93.65-6.91-3.25.06-2.72,2.33-5.31.46-8.15,1.56-3.24,1.26-7.31,4.38-9.85,1.27-1.31,2.62-2.55,3.77-4,5-6.06,11.93-7.61,19.28-8.1,5.75-.12,11.22-1.78,16.74-3.13,1.1-.47,2.44-1,3,.41.43,1-.82,1.79-1.67,2.12-4.77,1.83-9.53,3.69-14.81,3.63a25.67,25.67,0,0,0-5,.67c16.47-2,24.83-5.23,33.43-13.12l.92-.83a4.56,4.56,0,0,0,4.59.43c11.84-5.06,19.78-13.85,25.1-25.31,5-10.85,13.27-16.6,25.53-15.87-1.74,4.9-6.62,6.6-10.08,9.72-7.84,7.06-13.69,15.34-16.22,25.64-1.78,7.25,3,11.74,10.29,9.89,7.44-1.89,11.83-7.37,14.67-13.9,4.09-9.39,8.32-18.81,9.24-29.24A3,3,0,0,1,184.93,80.06Z"/><path class="cls-10" d="M203.89,42.15c1.22-2-.39-3.39-1-5,3-1.49,4.62.67,6.28,2.42A32.57,32.57,0,0,1,217.25,55a27.79,27.79,0,0,0-2.72-7.74c-.68-1.43-1.08-3.19.54-3.94s2.62,1,3.27,2.27c1.66,3.23,2.76,6.71,4.13,10.07.65,1.62.26,4.33,3.59,2.64.75-.38,1.71,2,3.33,1.57,4.34,4.07,5.45,8.85,3.28,14.42-1.5,3.89-2.92,7.83.05,11.73a13.54,13.54,0,0,1,0-1.91c.21-1.46.2-3.37,2.21-3.28s1.94,2,2.1,3.46c1.24,11.2,8.52,18.25,16.86,24.58-.32,2.85-3,3.19-4.79,4.44-1-.45-1.28-1.45-1.77-2.31-2.8-4.92-3-5-6.07-.53a7.79,7.79,0,0,1-8.63,3.5c-4.54-.92-9-2.18-13-5,.83,3.91,5.26,5.12,5.53,9-2.52,2.09-4.17-.84-6.26-1.1.8,1.35,2.62,2.21,2,4.23-9.57-5.47-16-13.76-14.72-28.23,1,4,1.74,7.54,2.77,11s1.5,7.58,7.05,7.31c-3.68-10.82-9.05-21.2-7.49-33.48C210,78.94,211,80.22,212.27,81c6.78,3.88,10.81,8.7,10,17.47-.44,4.61,4.09,7.77,9,9.57-.49-2.09-1.81-2.94-2.89-3.84-3.48-2.89-5.17-6.44-4.51-11,.75-5.12-1.48-8.64-5.85-11-8.86-4.82-7.86-8.86-5.09-17,3.08-9,1.93-15.14-4.66-19.84C206.81,44.28,205.36,43.21,203.89,42.15Z"/><path class="cls-11" d="M278.88,139c2.77,1.14,2.78,3.56,2.77,6-1.6,2.91.5,5.76.14,8.66-.15,1.2-.32,2.45-1.74,2.67a1.33,1.33,0,0,1-1.67-1.51c.78,3.1,1.23,6.59-.09,10-.47,1.24-1.05,2.76-2.69,2.4-1.85-.41-1.26-2-1-3.29a14.54,14.54,0,0,0,.22-3.05,115.67,115.67,0,0,0-.84,11.85,8,8,0,0,1-4.17,6.43c-4.72,3-8.08,6.77-8,12.75-1.92,3.63-5,1.21-7,.7-8.62-2.25-16.59-5.87-22.36-14.45,5.34.86,8.42,5.52,13.33,4.81,5,1.79,8.19-1.23,11.11-4.44,5.12-5.63,5.77-12.83,6.54-19.93.2-1.89.18-3.79,1.06-5.55-1.46,2.83-2.67,5.93-6.65,5.9,4-9.2,3.84-18.35.12-27.64-.63-1.54-1.49-2.86-2.22-4.29.87-2.69,2.4-1.25,3.67-.51a18.84,18.84,0,0,1,6.84,7.59,37.32,37.32,0,0,1-1.57-4.06c-.49-1.36-1.34-3.14.47-3.9,1.62-.68,2.83.87,3.46,2.17,2.22,4.59,5,9,5.84,14.15-.47-3-1.26-5.93-.75-9,.32-1.89.52-4.15,3.52-3.32C279.25,132.89,278.18,136.12,278.88,139Z"/><path class="cls-10" d="M257.89,159a23.41,23.41,0,0,0,7-7.63c-.09,10.85-.21,20.84-7.62,28.94-3.21,3.51-6.89,4.86-11.42,2.71,1.51-.37,3.78.9,4.43-1,.53-1.54-1.27-2.87-2.4-4-7-7-8.34-15.4-6.27-24.69a12.69,12.69,0,0,0,.24-2.95c-.05-2.39-.13-4.79,2.76-5.68s4.57,1.37,6.09,3.12c2.85,3.3,3.5,7.36,3.19,11.62a21.37,21.37,0,0,0,.15,2.76C256.44,162,256.46,159.73,257.89,159Z"/><path class="cls-12" d="M98,121.05c-6.1,1.93-12.36-1-18.59.78-3.37,1-6.36,2.6-9.57,3.83-1.54.59-2.94,1.65-4.52,2-1.87.47-4.38,1.24-5.57-.44s1.33-2.7,2.2-4C67.21,115.76,74,112,83.74,112.83c7.51.62,14.15-2.33,18.29-9.62,2.38-4.19,4.9-8.14,5.5-13.08a7.84,7.84,0,0,1,4-6,146.3,146.3,0,0,1-2.75,21.73c3.95,1.65,3.82-4.31,7.22-2.8A77.58,77.58,0,0,1,98,121.05Z"/><path class="cls-13" d="M176,69.24c.05,2.78,2.27.75,3.34,1.47-1.74,5.18-6.09,7.07-10.69,6.84-9.63-.48-14.88,5.32-19.74,12.14a5.52,5.52,0,0,1-.87,1.19c-7.24,5.83-8.58,16-16,21.75-1.47,1.15-2.24,2.93-4.32,1.22,3.94-8.71,7.67-17.53,11.88-26.11,6.24-12.74,16-20.11,30.91-18.78C172.32,69.12,174.15,69.15,176,69.24Z"/><path class="cls-14" d="M72.11,34.21C71,37.56,67.91,39.35,65.9,42A28.42,28.42,0,0,0,51,61.75c-1.46,6.63-5.53,10.72-12.08,12.42-2.79.72-5.08-.16-4.71-3.16.45-3.57-.88-6.75-1.08-10.14-.27-2.3.7-4.19,1.93-6,4-4.9,7.79-10,12.75-14-1.06-.62-2.95.29-3.18-1.65-.22-1.73,1.52-1.38,2.35-2a1.84,1.84,0,0,1,.92-.25A8.54,8.54,0,0,1,55,39.14,41.71,41.71,0,0,0,72.11,34.21Z"/><path class="cls-15" d="M229.86,270.86c-.07,1.46.35,3.06-.92,4.23-.61.56-2.13.92-2.07.3.4-4.42-3-3.11-5.21-3.83-2-.67-1.83-2.54-1.7-4.23s1.65-3,.14-5c-2.37,3.38-2.11,7.81-5.31,10.72-2.24-4.54-2.62-8.94.66-13.51,4.55-6.33,10.43-3.9,16.16-2.7.07-4,.11-4.09-6.34-8.71-3.12-2.24-3.67-3.94.58-5.24a33.79,33.79,0,0,0,7.71-3.25c2.81-1.49,4.12-.63,5.34,2,4.52,9.71,2,19.9-6.56,26.44C231.34,268.81,229.87,269.2,229.86,270.86Z"/><path class="cls-16" d="M229.86,270.86c-.78-.18-1.93-.09-2.26-.57-.73-1.06.46-1.18,1.16-1.51,10.32-4.75,13.71-16.53,9.17-26.32-.86-1.86-.75-3.53-3.86-1.72-2.2,1.27-4.82,4.19-8.22,2.15,5-5.92,11.47-10.51,15.16-17.54.3-.58.92-1,1.26-1.54,1-1.59.89-4.53,3.46-4.15,2.73.41,4.37,2.61,5.34,5.35,1.27,3.59.56,7.23.73,10.85a1.7,1.7,0,0,1-2.84.72c-2.87-2.1-4-.81-3.75,2.1.33,3.45-1.3,6.78-.35,10.22h0c3.43,11-2.59,19.79-15,22Z"/><path class="cls-15" d="M229.87,270.86a7,7,0,0,1,1.66-.93c10.4-2.59,12.66-5.76,12.67-18.69a9.34,9.34,0,0,1,.66-2.34,40.26,40.26,0,0,0,9.8-13c-.47,2.38-.94,4.77-1.45,7.34,2.68-2.05,4.34-6.56,4.65-11.67.26-4.28-.47-8.49-1-12.83a5.36,5.36,0,0,1,1.29.24c1.72,1.07-.36,5.27,2.42,4.41,3.06-.94-.34-3.07-.6-4.72-.67-4.13-.83-8.16,1.09-12,2.67,1.69,3.68,4.25,3.77,7.28.41,2.33.81,4.67,1.22,7,1.6,9.51-1.21,18-6,26.05-1.15,2.45-2.58,5.16-5.2,5.72-7.36,1.59-9.84,7.16-11.92,13.27-1.34,2.62-1.86,6.13-6.06,5.74Z"/><path class="cls-11" d="M248.84,113c.92-2.3,3.11-3,5-3.93,1.93-3.64,5.48-3.85,8.93-4.12,1.29-.09,2.84.17,3.21,1.73.4,1.72-1.15,2.17-2.33,2.69-2.69,1.18-5.66,1.8-8,4,.85,1.52,2.23,1.16,3.43,1.1a21,21,0,0,0,5.29-1.26c3.49-1.09,7.47-2.84,10.2.48,3,3.69,5.05,8.21,2.51,13.26-.45.21-1,.44-1.4.15-8.7-6-18.86-4.5-28.51-5.61a1.83,1.83,0,0,0-1.33.5c-8.44,2.72-16.73,1.8-24.94-1-1.09-2.36-4-3.35-4.85-6.4,3.71-.37,5.55,3.51,8.81,3.45a2.65,2.65,0,0,1,2.39-.07c6.36,2.35,12,.86,17.21-3.14C245.73,113.88,246.91,112.45,248.84,113Z"/><path class="cls-17" d="M261.83,191.94c-2.55-4.73-.24-8.66,3.44-10.61,8.78-4.65,7.78-12.79,8.57-20.45.22-2.06-.6-4.24,1-6.72,2.24,4.25.23,8.37.6,13.35,3.73-5.35,1.82-10.45,2.59-15.31,1.67.55.11,2.77,2.17,3.35,1.57-4.06-1.39-7.77-.56-11.85.75-.32,1.14,1.08,2,1.3l.39,1c.29,5.33.66,10.67.76,16a8.84,8.84,0,0,1-1.89,6c-1,5.38-3.35,10.17-6.17,14.78-.81,1.48.15,3.29-.85,4.74-1,2.15-1.52,4.44-2.41,6.61-.73.82-1,2.49-2.68,1.59C266.36,194.67,263.72,194,261.83,191.94Z"/><path class="cls-18" d="M245.86,122c10.94-2.24,21.58-2.59,30.94,5a2.08,2.08,0,0,1,0,3.06c-3.57,2.68-1.9,6.32-1.51,9.55.28,2.24.76,4.35-.2,6.66-2.88-6.74-4.61-14-9.71-19.53.34,3.79,2.92,6.9,3.17,11.6-4.16-3.69-5.56-8.72-9.9-11.06-1-.55-1.77-1.66-2.87-.23C251.72,126.88,250.55,121,245.86,122Z"/><path class="cls-19" d="M236.85,271.72c2.9-1,4.11-3.76,6.06-5.74,3.29,7.14,3.23,7-4.36,11.23-2.55,1.41-4.65,3.61-7.08,5.29-6.85,4.75-11.5,4.53-18.58-.73C222.09,281.31,229.85,277.42,236.85,271.72Z"/><path class="cls-20" d="M268.8,195.73c1.22-.15,1-1.56,1.81-2.07,1.52.23,1.62,1.62,2.18,2.64.69-1.63,1.75-3.12,2-4.93s-1.17-2.94-1.82-4.39l1.8-4.19c.41,3.06,4.29,4.82,3.15,8.49-.24.76.23,1.95-.2,2.41-5.54,6-5.65,15.39-12.9,20.25-1.25-2.43-2.51-4.85-3.77-7.28-.44-2.51.08-4.22,2.79-5.41C266.08,200.26,268.82,199.06,268.8,195.73Z"/><path class="cls-21" d="M119.78,121.68c-3.07,6.26-9.45,7.88-15,10.48-7.63,3.55-15.94,2.93-24.14,3.13,9-1.76,18.38-1.89,27.31-7l-3.07-.35Z"/><path class="cls-22" d="M207.93,114c5.82,7.15,7.58,15.13,4.91,24-1.51.42-2-.63-2.48-1.72-3-6.84-3.68-14.1-3.89-21.44C206.45,114.1,207.19,113.85,207.93,114Z"/><path class="cls-6" d="M126.94,101.37c-4.7,10.9-12.75,17.61-24.27,20C114,118.75,118.68,107.83,126.94,101.37Z"/><path class="cls-15" d="M244.86,248.9c-2-4.4-.86-9-.79-13.54,0-2.61,2.08-2.54,3.94-1.28,1.18.79,1.51,3.34,3.79,1.78-1,3.34-3.44,5.8-5.21,8.66C245.71,245.94,244.68,247.13,244.86,248.9Z"/><path class="cls-23" d="M207.93,114c-.6,8.46,0,16.68,4.91,24,0,1.33.07,2.65.1,4-4.6-4.77-5.51-11.1-6.9-17.12-.84-3.62.33-7.58-1.67-11.13-.79-1.39,1.27-1.66,1.62-2.7A3.65,3.65,0,0,1,207.93,114Z"/><path class="cls-4" d="M59.07,33.27c2.29-1,4.22-2.88,6.93-2.93-.34,1.61,1,4.16-1.47,4.56s-5.15,3.76-7.75.14Z"/><path class="cls-24" d="M222.5,163.88a56.46,56.46,0,0,1-4.65-12.77C223.52,153.87,223.05,158.86,222.5,163.88Z"/><path class="cls-4" d="M55,39.14,47.92,37c1.5-1.69,3.38-.65,5.1-.72Z"/><path class="cls-16" d="M218.86,33.17a60,60,0,0,1,10,26.93c-.18.78-.28,2.2-.57,2.23-2.7.37-.6-2.89-2.86-3.37-1.36.6,0,2.67-1.89,4-2.55-6.47-4-13.3-8.42-20.43-.5,6.57,4.65,10.57,3.37,16-2.21-1.25-2.17-3.27-2.73-5.13-2.14-7.09-5.45-13.36-12.92-16.26l-3.36-2.4c1.69-1.33,3.19,1.19,4.79-.18-1.36-2.81-4.49-3-7.72-4.64,4.61-1.56,7.16,2.26,11.5,1.48-5.23-2.86-9.44-5.91-15.63-7,4.26-2.19,7.25-.66,10.3.25C208.71,26.39,213.55,30.22,218.86,33.17Z"/><path class="cls-25" d="M260,247c1.93-8.7,6.17-16.87,6-26.05,1.28,2.26,1.26,4.92,2.69,7.24,3.67,6,1,11-3.2,15.46-1.91,2-2.91,3.55-1.1,6.31,3.86,5.88.76,10.8-6.93,11.36-.27-1.87,1.46-1.44,2.29-1.87,5.35-2.75,5.69-4.15,2.14-9.06A28.61,28.61,0,0,1,260,247Z"/><path class="cls-26" d="M280.91,168q.55-11,1.13-22c1.5,2.11.59,4.51.8,6.77.14,1.63.15,3.06,1.28,4.6C287.32,161.79,286.05,165.48,280.91,168Z"/><path class="cls-27" d="M297.85,143l0,4.1c-2.69.67-3-2.83-5.28-2.95C294,142.3,296.05,143.25,297.85,143Z"/><path class="cls-28" d="M3.94,168.86c1.25.66,1.05,1.9,1.23,3a2.13,2.13,0,0,0,0,.5c.54,2.7,1.1,5.4,1.65,8.1,3.91-1.21,8.24.72,12-1.68s8.63-2.75,12.86-4.61a164.62,164.62,0,0,0,16.1-8.66c2.56-1.48,3.54-4.28,4.9-6.74,1.22-2.2,2.76-4,5.41-1.56-.38,3.88-3,6.58-5.27,9.33A15.43,15.43,0,0,0,49.28,175c-1.44,12-2.89,24-2.92,36.13a13.18,13.18,0,0,1-1.11,5.32c-2.37,3.86-2.19,7.55.75,11.06,1.79,4.5,1.31,9.23,1.39,13.9.22,5,2,9.78,2.83,14.71,0,3,2.85,5.51,1.51,8.74-1.47,0-1.7,1.47-2.65,2.08-1.27.87-2.06,2.23-3.28,3.16-5.54,3.6-11,4.09-16.6,0-6.68-4.93-7.33-11.66-6.09-19.11,1.18-7.12,2.11-14.18-1.77-21-2.38-4.17-1.15-8.34,1.13-12.24,2.14-3.15,1.58-6.19-.19-9.33a64,64,0,0,0-5.71-8.74A16.09,16.09,0,0,1,13.65,193c-.85-3.72.82-6.21,4.08-6.75,5.91-1,10.85-3.94,16-6.59-3.65,1.63-6.92,4.09-10.77,5.24-1.7.51-4,2-4.32-1.65-.1-1.22-1.21-.91-1.94-.74-4.39,1-9.51.07-12.67,4.58-.26.37-.9.33-1.41.27-4.43-5.23-2.15-10.77-.76-16.27a4.46,4.46,0,0,1,1.38-1.89Z"/><path class="cls-29" d="M117,345.81c-14,.2-23.69-7.48-29.12-19.11C83,316.31,75.21,309.75,66.52,303.43c-2.44-1.76-5.55-3.07-6-6.66,0-.33,0-.66,0-1-.11-2.51-1.88-5.62,1-7.27,3.39-2,5.4,1.33,7.48,3.23,3.9,3.55,7.63,7.3,12.23,10,4,2.5,8,5,12,7.42,5,3.64,10,6.8,16.56,6.86s10,4,12,10a28.31,28.31,0,0,1,1.47,10.69C123,341,121.18,344.2,117,345.81Z"/><path class="cls-30" d="M92,309.79l-11-7c-6.89-5.56-13.21-11.67-17.88-19.26-.9-1.47-3.05-3.13-.4-5,3.88,1.34,5.47,5.09,7.76,7.92A48,48,0,0,0,82.09,296.9a25,25,0,0,1,1.89,2,80.27,80.27,0,0,0,19.09,8.86c9.42,3,18.73,2,28.24.29,17.77-3.18,33.29-11.29,48.5-20.45,2.68-1.61,5-5.87,9.35-3.51a32,32,0,0,1-7.32,15.38c-1.75,1.76-3.4,3.68-6,4.36a10.16,10.16,0,0,0-4.84,3.1,16.92,16.92,0,0,1-7.13,4.92,3.32,3.32,0,0,0-2.92,2.05c-1.91,2.06-3.88,4-6.91,4.31-8.86-4.23-17.82-1.78-26.86-.74A51.16,51.16,0,0,1,97,311.89C95.37,311,93.6,310.64,92,309.79Z"/><path class="cls-31" d="M92,309.79c6.24.31,11.22,4.42,17.36,5.44,9.08,1.51,17.92,1.74,26.85-.58,6.7-1.74,13-.43,18.78,3.22-4,5.6-5.92,12-7.42,18.62-1.32,5.87-9,9.55-16.55,8.47-4.67.47-9.32,1.33-14,.85,6.46-6.91,6.68-18.4.54-25.75-2.32-2.76-5.92-3-8.69-2.87C101.79,317.41,97.16,313.21,92,309.79Z"/><path class="cls-32" d="M82,297.85c-8.65-4-13.31-12-19-18.9a18.13,18.13,0,0,1-3.05-2.24c-.31-.29-.61-.59-.89-.9.38-3.2-1.26-5.47-3.73-7a7.85,7.85,0,0,1-3.56-3.91c-.86-2.68-2.53-5.1-2.54-8,3.69-.45,5.12,2.27,6.45,4.84,1.47,2.85,3.16,5.3,6.51,6,.37,3.76.92,7.43,4.48,9.72,2,1.53,3.74,3.26,4.16,5.92,2.07,4.29,5.95,6.85,9.34,9.88,1.38,1.23,3.48,2.12,2.67,4.63,0,.08-.25.15-.37.13A1.6,1.6,0,0,1,82,297.85Z"/><path class="cls-33" d="M59.69,276c2.24-.33,2.57,1.5,3.27,2.91-1.78,1.46.11,2.27.65,3.21C68.15,290.09,75.14,296,81,302.83c-5.86-2.35-9.45-7.58-14.22-11.31-1.39-1.08-2.23-3.29-4.41-2.42s-1.06,3.16-1.28,4.84c-.13,1,.15,2-.6,2.83L60,294.85C59,288.59,59.6,282.31,59.69,276Z"/><path class="cls-34" d="M192,278.3l6-9.27c.59,4.55-2.54,7.57-4.86,10.71C192.12,281.06,192.17,279,192,278.3Z"/><path class="cls-35" d="M59.69,276,60,294.85c-2.23-6.25-.47-12.71-1-19A5.3,5.3,0,0,0,59.69,276Z"/><path class="cls-34" d="M163.92,311.81a23.56,23.56,0,0,1,7.13-4.92C170.29,310.87,167.22,311.51,163.92,311.81Z"/><path class="cls-34" d="M175.89,303.79a20.27,20.27,0,0,1,6-4.36C180.22,301.38,179.86,305,175.89,303.79Z"/><path class="cls-4" d="M33.91,61.06a11.61,11.61,0,0,1,1.31,9.11c-.83,3,.84,3.72,3.68,2.87C45,71.21,48.74,67.36,50,61c1.73-8.59,6.59-15,14.16-19.39A1.19,1.19,0,0,1,65.9,42C61.19,47.57,60.19,54.19,61,61.08c1.54,12.65-4.43,17.37-14.72,22.49A55.84,55.84,0,0,0,41,87.06c-3,2.42-5.68,5.12-8.89,7.22-1.94,1.26-4,3.14-6.31,1.55-2.51-1.73.44-3.82.32-5.57-2.27-1.7-6.61,3.86-7.32-2.44.19-1.78.86-3.47,1.08-5.24.07-.51,1.53-2.34-.88-1.3A4,4,0,0,1,17.45,79c.36-4.46,3.46-7,7.16-7.9,3.27-.82,1.9-2.2,1.46-3.8C24.45,59,27.24,51.75,31.57,44.9a14.25,14.25,0,0,1,9.51-6.64l1-.3c1.76.57,3.12-1.64,4.94-.71l-1.84,2c1.63,1.28,3.14-.66,4.55,0,.13.06.39.15.38.18a6.22,6.22,0,0,1-.25.84,14.54,14.54,0,0,1-4.39,2.18A18.11,18.11,0,0,0,33.77,53.55a19.85,19.85,0,0,0-2.34,12.33C32.29,64.45,31.06,61.7,33.91,61.06Z"/><path class="cls-36" d="M139.94,162c2.05-2.5,2-5.48,2-8.48s-.4-6,.94-8.83c1.56-3.31,2.69-7.09,7.79-4,1.56.93,4.43,1.18,5.49-.75,2-3.74,5.94-4.51,8.9-6.75,3.68-2.78,5.11-1.64,5.77,2.28.16,1,.08,2,1.15,2.58h.89c-1.77,5-3.87,9.33-9.77,11.14-6.29,1.93-11.54,6-15.84,11.07-1.12,1.32-2,2.69-.83,4.45,3.94,6.26,3.89,13.22,3.59,20.21-.09,2-1.4,3.31-3.18,4.14a7.89,7.89,0,0,0-4.2,4c-2.86,6.53-2.87,6.47,2.63,11.08,4.37,3.66,6.64,8.28,5.72,14.09-.72,4.56-3.9,7.1-8.43,6.5-3.93-.52-7.9-1-11.56-2.75l-1-.05c-3.76,1.9-5.83-1.31-8.49-2.78-2.25-3.63-4.16-7.38-3.88-11.84-.19-3.41-1.08-6.53-3.56-9.07-2.1-2.16-2.61-4.56-.81-7.2a45,45,0,0,1,4.41-4.64c2.56-1.43,4.76-3.58,7.91-3.89A.86.86,0,0,0,126,181c-.56-2.21-5.41-1.07-3.94-4.45,1.38-3.15,3.45-5.77,7.83-5.69,7.67.15,8.81-1.12,10.06-8.89Z"/><path class="cls-31" d="M121.94,218.91c3.06,0,4.8,3.49,8,3,.33,4.87.5,9.75,1,14.6.31,2.74-.9,4.22-3.08,5.33-2.33,3.16-5.41,3.21-8.86,2.31-5.93-1.55-11.75-1.69-17,2.08-2.44,2-5.42,2.8-8.42,3.46-1.86.4-3.43,1-3.49,3.22-7.44,4.63-7.68,12.12-7.78,19.64a35.08,35.08,0,0,1-.83,6.92c-1.15,5.3.2,8.09,5.2,9.59,11.22,3.37,22.67,5.32,34.46,4.25a20.93,20.93,0,0,0,8.12-2.29c4.27-2.31,4.66-4.38,1.56-8-.55-.63-1.15-1.21-.9-2.16,3.56.16,7.9-.66,9.51,3.47s-1,7.5-3.92,10.5c-4.26,4.31-10,4.5-15.17,4.81a127.14,127.14,0,0,1-32.6-2.42c-1.71-.34-3.38-.92-3.78,1.63a2.17,2.17,0,0,1-2-1c.51-2.53-1.87-2.86-3.09-4.1-3.1-3.15-7.58-5.12-8.72-10,2.92.47,4-.77,3.39-3.62s-1-5.57-1.39-8.36a35.37,35.37,0,0,1,1.67-16.1c3.28-10.51,7.82-19.75,18.76-25.64-3.14-1.13-5-.13-6.9-.23-3.14-.16-5.23-1.28-4-5a4.43,4.43,0,0,1,4.15-1.2c3.16.9,5.81.11,8.45-1.56a4.32,4.32,0,0,1,5.16.09c5.26,4,9.86,1.94,14.59-1.17C116.34,219.46,118.5,216.45,121.94,218.91Z"/><path class="cls-37" d="M144.92,165c-1-.79-1.86-2.3-.86-2.9,3.17-1.88,2.57-7.86,7.95-7.22a1.47,1.47,0,0,0,1.16-.81c1.53-5.4,6.66-4.62,10.43-5.94,5.05-1.75,5.9-7,9.28-10.13l.24-1c5,2.89,11.13,1.49,17,4.1-2.32,1.22-4.06.67-5.65.43-1.81-.28-4.14-.08-4.48,1.27-1.19,4.61-5.05,3.65-8.06,4.53a60.39,60.39,0,0,0-9.82,3.56c5.06-1.67,10.22,3.25,15.33-.94a28,28,0,0,1,8-4c5.82-2.17,11.06-1.22,15.49,3.43s8.21,10,9.89,16.45a2.49,2.49,0,0,1-3.17.59c-5.69-3.34-12.35-3-17.8-4.89,5.11,2.4,9.3,6.26,11,12.42,1,5.35-.37,7.28-4.87,6.87-4.63-1-9.44.16-14.54-.75,1.62-2.94,4.43-2.08,6.28-3.18s3-2.62,1.45-4.4c-.88-1-1.78-4.39-4.25-1.37-1.25,3.71-3.74,5.92-7.71,6-3.8.07-6.81-1.37-8.26-5.16-.8-1.24.78-3.69-1.82-3.93a3.21,3.21,0,0,0-2.85,1.77c-1.27,2.21.17,3.36,1.84,4.37a5,5,0,0,1,2,1.9c-.89,2.51-3.42,1.7-4.57,1.32-3.67-1.18-4.32.81-4.74,3.51v0a2.65,2.65,0,0,1-4-.9c-2.42-1.78-2.18-4.66-2.85-7.13C151,169,149.23,165.89,144.92,165Z"/><path class="cls-32" d="M129.94,280.87c1.84,2,6.11,2.31,4.9,6.46s-4.77,5.54-8.27,6.34a62.58,62.58,0,0,1-29-.55c-4.9-1.19-10.15-1.34-14.58-4.24-3.07-2-4.76-4.46-3.16-8.32,2-4.86,1.55-10.23,1.48-15.16-.1-7,3.91-10.19,8.64-13.47A2.65,2.65,0,0,1,92.23,250a11.68,11.68,0,0,1,11.53,4c2.11,2.39,5.6,2.94,7.15,5.88.42,4.13-3,6.59-4.43,9.91-1.78,4-1.59,4.92,3,5a23.14,23.14,0,0,1,11.63,3.63C123.9,280.18,126.66,281.27,129.94,280.87Z"/><path class="cls-38" d="M203.62,242.17c-1.88,6.3-3.32,12.44-5.55,18.27-4.24,11.06-11.3,19.56-22.81,24-2.76,1.06-3.1.43-3.35-1.91-1-9.56,2-14.62,10.86-18.74s12-12.58,14.78-20.79c2.16-6.3,7.22-8.7,12-11.69,1.24-.77,2.1.06,1.77,1.76a28.86,28.86,0,0,0-.46,4.92C210.8,244.34,209.69,245.06,203.62,242.17Z"/><path class="cls-39" d="M144.92,165c4.48-.91,6.81,1.26,7.77,5.41q1.11,4.78,2.2,9.57c-.48,8.13-4.73,16.29,2.19,24.19,2.58,2.94,4.86,8.52,1.71,12.43-3.48,4.32-6.43,10.22-13.91,9.39-4.92-.55-10.2.66-13.87-4,3.89-.47,7.52.91,11.26,1.54,4.21.71,7.1-1.42,7.69-5.65.85-6.18-2.31-11.39-9.18-15-2.31-1.22-5.38-2-1.17-5,1-.75.95-3.07,1.43-4.64.71-2.28,1.64-4.77,4.21-5.07,3.86-.46,4.1-2.94,3.73-5.7C148.17,176.52,149.38,170.1,144.92,165Z"/><path class="cls-40" d="M110.91,259.92c-3.26-1.37-6.22-2.84-8.7-5.77s-6.34-3.74-10.27-3.32c6.73-3.6,13.75-5.5,21.26-2.85a39.14,39.14,0,0,0,9.2,1.63c7.41.76,14.61,2.35,20.61,7.17,1.36,1.1,2.83.58,4.24.86,2,.41,4.42.29,4.66,3.26a10.11,10.11,0,0,1-9.26.86c-4.66-1.91-9.09.09-13.61.29a3.16,3.16,0,0,0-2.22,1c-2,2.94-3.75,6.92-6.42.33-.41-1-1.68-.3-3.36,2.94C115.35,263.73,114.75,260.17,110.91,259.92Z"/><path class="cls-41" d="M101,246c4.46-5.2,10.59-4.72,16.11-3.57,3.92.82,7.3,1.17,10.86-.5,4.42-.52,7.82,1.08,10.95,4.3,3.92,4,10.42,5,13.05,10.71-1.94,1.69-4.22,1.27-6,.23-13.41-7.69-28.5-8.19-43.21-10.31A2.92,2.92,0,0,1,101,246Z"/><path class="cls-42" d="M101,246c9.47-1.55,18.11,3.75,27.45,3.28,6.67-.34,11.52,4.37,17.35,6.39a18.83,18.83,0,0,0,6.17,1.27c.58,1.34,3.6,2.69,0,4-1-.62-1.84-1.57-2.88-1.8-11.19-2.52-21.43-7.71-33.19-9.26a65.42,65.42,0,0,0-23.9,1l-2,1.1c-3.5-1.26-1.07-2.19.29-2.67C93.8,248,97.65,247.87,101,246Z"/><path class="cls-43" d="M43.87,216.8c2.43-8.68.94-17.7,2.33-26.49,1-6.53,1.15-13.21,2.3-19.71.9-5.06,6.36-7.34,8.5-11.8a12,12,0,0,1,1.09-1.61L59,156c.85-.87.3-2.69,2-3,4.42,2.69.11,5.3-.07,7.95a25.78,25.78,0,0,0,.41,16.87c3.11,9.14,2.4,19,3.59,28.45.47,3.78-2,6.86-5.79,8.38-.62.16-1.25-.13-1.88,0,1.21,4.9-2.65,8.12-4.28,12-2,4.79-4,9.4-3.69,14.69-.81,1.34-1.83,1.54-3.06.55q-.73-7.4-1.45-14.81C43,223.81,43.94,220.26,43.87,216.8Z"/><path class="cls-44" d="M121,45.13c4,.11,3.28,2.06,2,4.58-4.55,8.73-11.44,15.25-19.24,21-3.8,2.79-6,6.13-5.79,11.22.56,11.16-8.79,16.51-18.69,20-1.57.55-3.65,1.7-5.67.61.09-.37.11-.91.24-.94C81.66,99.76,84,94.47,83,87a8.83,8.83,0,0,1,0-2c.46-5.11-.18-10.48,6.87-12.39,7.49-2,11.69-8.35,15.62-14.5,3.83-6,8.64-10.67,15.47-13Z"/><path class="cls-45" d="M17.05,161c-.33-1.8.64-3.7-1.7-5.26-2-1.34-.23-5.66,2.54-6.84,6.69-2.84,6.84-3.15,5.16-10.4-.88-3.78,1.6-7.24,6-8.41a8.91,8.91,0,0,0,3.09,9.68c2.6,2.26,3.14,4.89-1,6.17-1.61.5-2.2,1.29-2.07,2.79C30.1,161.13,30.33,159.36,17.05,161Z"/><path class="cls-46" d="M61.05,153l-2,3c.52-3.24,1-6.48,1.57-9.71.44-2.5,2.88-2.24,4.47-3.13C63.16,146.21,64.25,150.49,61.05,153Z"/><path class="cls-47" d="M184.93,80.06c-.9,14.81-6.06,28.07-14.52,40.14-2.63,3.75-6.6,5.6-10.76,6.62-3.39.82-7.09.69-9.7-2.36s-2.53-6.75-1.47-10.38c3.71-12.56,11.69-22,22-29.74,1.84-1.39,3.65-2.82,5.48-4.24,1.43-.65,2.88-1.25,4.29-1.95C182.53,77,184.15,77.48,184.93,80.06Z"/><path class="cls-48" d="M200.89,174a47.13,47.13,0,0,0-13.44-13.51c7.16,1.55,14.68.89,21,5.18.58.39,1.59.15,2.4.21-.37.72-.77,2.09-1.09,2.07C205.18,167.68,204.39,172.82,200.89,174Z"/><path class="cls-49" d="M184,170.09c.14-1-.29-3.2,1.07-2.6,2.94,1.28,6.18,3.1,6.52,6.77.3,3.15-2.74,3.67-5,4.56-1.18.46-2.65-.28-3.71.86,4.32,1.23,8.89-.82,13.09,1.18l-17.08.1c-1.73-1-1.46-2.25-.32-3.54C181.05,175.44,186.58,175.76,184,170.09Z"/><path class="cls-5" d="M178.88,177.92a2.77,2.77,0,0,0,.05,3,43.53,43.53,0,0,1-5.59-1.84c-5.27-2.55-9.9-.67-14.49,1.81.51-1.86-3.08-3.2-.82-5.16,1.93-1.69,3.59.42,5.37.86,1.54.37,3.14,1.14,4.42-.56C171.82,174.85,175.26,176.91,178.88,177.92Z"/><path class="cls-13" d="M184.46,71.24c.1,1.06-.12,1.63-1,1.65-1,0-1.42-.66-1.48-1.57s.07-1.9,1.13-1.68C183.73,69.77,184.13,70.82,184.46,71.24Z"/><path class="cls-50" d="M20,87.91c.1.71-1,2.34,1,1.7,2.3-.75,4.95-.13,6.8-2.22,1.43,2,0,3-.72,4.23S24.85,93.91,25.93,95s2.89.12,4-.62c2.75-1.79,5.32-3.87,7.94-5.86A5.18,5.18,0,0,1,41,87.06c-1.26,1.8-2.29,3.66-1.88,6C36.62,99,31,100,25.77,101.47c-4.88,1.39-11.47,9.39-11.65,15.12,5.9-5.67,12.52-8.73,20.33-9,1.91-.06,2.75-1.55,3.25-3.3.37-1.29,0-3.19,2.26-3.24.22,9.7.19,9.59-9.65,12.44-4.43,1.28-8.93,2.47-12.37,6-4.48,4.67-5.6,10.17-2,15.62,2.74,4.14,2.22,6.86-1.84,9.51-2,1.28-3.82,3.57-2.61,5.92C15.71,158.77,10.39,162.83,5,167c-1-1.18-.32-2.3.12-3.43C5.88,162.09,6,160.35,7,159a64.48,64.48,0,0,1,1.89-15.15c.39-1.59,1-3.18.11-4.8a1.46,1.46,0,0,1,.33-2.29c3-3.35-.17-6.9.32-10.34-.32-4.12.43-8.28-.63-12.35l-2.11,0c1.28-5.21,2.4-10.46,4.87-15.28a12.21,12.21,0,0,1,.65-1.24c-.5-1.7,5-3.43,0-5.11a2,2,0,0,1-.74-2.51c3.36-2,3-5.56,3.63-8.68.59-1.1,1-2.39,2.69-2.16a2.25,2.25,0,0,1,1.09,2.11C21.19,83.19,18.59,85.81,20,87.91Z"/><path class="cls-4" d="M40,101.07c-1.26,1-.88,2.4-1,3.69-.15,2.54-1.52,4.26-4,4.2-8.56-.2-15.28,3.52-21.12,9.62-2.8-2.62-2-5.2-.17-7.49,2.26-2.84,4.86-5.41,6.42-8.74.74-1.58,2.22-1.32,3.41-1.54A28.6,28.6,0,0,0,39.07,93C40.72,95.57,41.8,98.16,40,101.07Z"/><path class="cls-51" d="M6.15,164c-.39,1-.78,2-1.16,3a2.06,2.06,0,0,0-1.05,1.87L4,169c-2.35-2.51-1.77-6.36,1.17-6.94C6.67,161.75,6.5,163,6.15,164Z"/><path class="cls-47" d="M58,214c5-2.44,6.2-5.21,5.43-10.52-1-7.13-1.5-14.34-2.4-21.49a29.64,29.64,0,0,0-1.85-6.62c-2-5.15-1.82-10,1.82-14.35.09,1.38.8,1.48,2,1.17A3.17,3.17,0,0,1,67,164.06a2.25,2.25,0,0,1,.14,1.33c-.37,1.07-.25,2,.92,2.44,5.94,2.13,12,3.79,18.35,3.74.65,0,1.14-.63,1.68-1,2.33-.86,4.81-.36,7.25-.91,3.88-.89,7.26,4.41,5.36,8.09a29.47,29.47,0,0,1-9.83,11.44c5.12.36,3.55,3.34,3,5.92-1.52,3.34-5.11,4.33-7.53,6.64-8.23,3-14.66,9.08-22.26,13.15C62.13,215.93,59.36,218.43,58,214Z"/><path class="cls-52" d="M93,194.92l.49-4.2c-.75-.63-1.3-.28-1.82.14-1,.78-2.07,1.44-2.93.1-.71-1.1.42-1.88,1.15-2.38,4-2.75,6.82-6.55,9.44-10.54,1.12-1.72,2.18-3.44,0-5.18-1.54-1.22-2.59-3.84-5.24-1.62C92,173,90,170.42,88,171a5.43,5.43,0,0,1-6.94-.62,1.54,1.54,0,0,1-.17-1.52c1.53-1.36,3.36-1.17,5.09-.7,4.72,1.29,9.24-.62,13.86-.76.11,0,.09-.59-.06-.92a2.35,2.35,0,0,1,1.52-1.43,19,19,0,0,1,5.2-.41c1.83,0,3.71.3,5.37-.82a3.6,3.6,0,0,0,1.44-1.34c1.31-2.45,3.49,2.64,4.84-.65.72-1.77,1.55-3.71,3.52-4.67,2.08-.57,4.14-.84,6.08.48,1.74,4.32.21,7.5-4.67,10.19-5.42,3-8.9,8.45-14.88,11-2.74,1.17-.62,3.14,1.91,3.23.84.56,1.63,1.15.71,2.27-2.84,1-6,1.2-8,4.22-.91,1.4-2.6,1.22-3.71-1-.63,3-.41,5.95-3,7.61A2.2,2.2,0,0,1,93,194.92Z"/><path class="cls-53" d="M70,151l-5,2.09c1.92-9.62,7.09-14.15,16-14.21,4.9-1.77,9.32.79,13.87,1.69,6.94,1.38,13.78,3.22,20.86,3.82.84.26,1.49.67,1.38,1.7,0,1.32,0,2.64,0,4-2.22,2.61-5,1.47-7.41.77-6.88-1.95-13.87-1.33-20.84-1.2a10.59,10.59,0,0,0-6.1,1.91C78.44,150.91,74.26,149.66,70,151Z"/><path class="cls-54" d="M112.82,164.91c-1.72,1.38-3.69,1.3-5.7,1,1.47-6.29.51-7.74-6.59-9.94-2.53-.62-3.12.93-3.48,2.95-.65,3.7-3.09,5.82-6.61,6.52s-6-1-7.87-3.91c-.66-1-1.18-2.9-2.83-1.24-1.18,1.2-.46,2.58.68,3.42,4.12,3,8.88,3.2,13.73,2.81,1.92-.16,3.87-1.23,5.72.25.56,1.55.53,1.65-1.13,2A45.91,45.91,0,0,1,81,169c-2,.78-3.76-.33-4.91-1.49-2.51-2.52-5.34-2.67-8.47-2.14l-.52-.45a2.89,2.89,0,0,0,0-.88L74,158c3.71-3.9,9.32-4,13.59-6.82,7.15-1,14.15-1.28,20.74,2.64,3.5,2.08,5.58,4.59,5,8.81C113.39,163.43,113.69,164.28,112.82,164.91Z"/><path class="cls-55" d="M113,163c-2.85-7.79-7.66-11-16.69-11-3.16,0-6.33.07-9.49.1A3.34,3.34,0,0,1,83,151c-.75-1.58,0-1.82,1.47-2.06,8.49-1.42,16.94-1.62,25.33.56,2.4.62,4.74,1.26,7.22.53,3.86,3.88,6,.41,8.35-2,.73-.75.84-2.46,2.38-1.91,1.78.63,1.1,2.18.69,3.32-1,2.71-.24,5.53-.71,8.26l-6.7.48C118.39,159.87,114.27,159.1,113,163Z"/><path class="cls-56" d="M115.92,144.94c-4.91,1.87-9.44-.65-14.06-1.46-7-1.22-14-3.07-20.92-4.65-1.39-1.6-3.54-.17-5-2.24,4.62.28,9.41-.12,13.8,1,6.43,1.68,12.83,1.29,19.27,1.4,5.1.09,6.26-4,8.12-7.52.63-1.2-.56-4.5,2.9-3.42C123,134.77,121.35,141.44,115.92,144.94Z"/><path class="cls-57" d="M137,163c0,4.08-3.27,5.34-6.15,6.82a2.42,2.42,0,0,1-2.24-.42c-.67-.69,0-1.55.63-2.09,7.38-6.48,6.55-14.58,4.36-22.82-1.81-6.79-.71-13.27,1.31-19.76.51-1.62,1.33-2.61,3.09-2.66a3.28,3.28,0,0,1,.73,2.78c-2.58,10.5.13,21-.28,31.55C138.34,158.67,138.66,161,137,163Z"/><path class="cls-36" d="M137,163c-.25-7.26.29-14.53-.9-21.8-1-6.44.61-12.81,1.9-19.13,3,.66,1.91,3.1,1.93,4.84.08,11.7,0,23.41,0,35.12h0Z"/><path class="cls-58" d="M83,151l3.8,1.15c-3.73,3.13-8.45,4.12-12.82,5.87-1.93-1.86-3.15.94-4.81.69,2.34-6.24,2.34-6.24,8.68-7.72H70C74.31,149.12,78.65,149.87,83,151Z"/><path class="cls-59" d="M115.92,144.94c4.77-4.8,4.11-10.91,4.07-16.87,2-1.09,2.46.05,3.08,1.71,2.09,5.61-.2,12-6,16.26Z"/><path class="cls-60" d="M111,183.89l-1-1.81c2.76-1.71,6.07-.73,8.59-.34A17.07,17.07,0,0,0,126,181c.75-.19,1.91-.78,2.18-.5.86.87-.16,1.42-.82,1.76-3.07,1.55-6.18,3-9.28,4.55C116.15,184.84,112.51,186.94,111,183.89Z"/><path class="cls-3" d="M248.84,113c-5.45,4.18-10.67,8.84-18.47,7.11a27.64,27.64,0,0,1-5.49-2.08c-2.45-3.79-7.09-6.11-7.7-12.34a32.43,32.43,0,0,0,14.42,6.8c5.41,1.06,8.65-.06,9.93-5.25,1.15-4.65,2.5-2.47,4.26-.77S249,110.3,248.84,113Z"/><path class="cls-61" d="M32.94,53c2.44-8.48,9.17-11.29,16.9-12.76-5.16,4.44-9.31,9.83-13.75,14.94C35.14,54.29,33.05,55.06,32.94,53Z"/><path class="cls-62" d="M32.94,53c1,.86,3.06.08,3.15,2.18-.92,1.9-2.35,3.6-2.18,5.9-2.15,2.14.6,6-3.25,8C29.56,63.27,29.19,57.91,32.94,53Z"/><path class="cls-51" d="M272.94,187c4.74,3,4.57,5.07-1.55,12.19a6.07,6.07,0,0,0-.78-5.51Z"/><path class="cls-11" d="M270.51,181.36c.15,2.22-4.18,7.15-6.51,7.4-1.09.12-2.45-.34-1.56-1.44a68.1,68.1,0,0,1,6.9-6.9C269.79,180,270.59,180.44,270.51,181.36Z"/><path class="cls-51" d="M268.6,203.17a6.26,6.26,0,0,1-2.15,5.55c-.63.62-1.19,2.53-2.6,1a2.16,2.16,0,0,1,.26-3.47C265.41,205.26,266.8,204.4,268.6,203.17Z"/><path class="cls-27" d="M279.81,126.94a11.11,11.11,0,0,1,2,7.52c-.05,1.37-.81,1.57-1.9,1.41C279.8,132.9,278.87,129.93,279.81,126.94Z"/><path class="cls-6" d="M15.9,216.14c-7.11-2-11.29-7.25-11.76-14.78-.3-4.76.81-9.65-1.35-14.23,2.36-3.62,13.16-7.38,17.47-6.08,1.69.5,1.69.5-1.67,4.15,7.37-1.76,12.45-5.86,18.55-7.6-4.06,3.79-8.71,7.07-14.15,8.07-8.83,1.62-11.48,4.65-4.65,14.24,2,2.8,3.76,5.78,5.51,8.75,1.85,3.15,2.17,6.39,0,9.59-1.52-.83-3.48,0-4.87-1.31.27-.38,1-.46,1-.82s-.55-.07-.85-.11A9.93,9.93,0,0,0,15.9,216.14Z"/><path class="cls-63" d="M46.28,241.9c1,0,2.09.13,2.73-1a2.86,2.86,0,0,1,1.73-3.63c5.68,4.41,10.21.57,14.92-2.1,1.64.35,2.1,1.46,1.94,3a74.66,74.66,0,0,0-4.21,24c0,1.95.26,4.05-1.53,5.55-4.14,2.83-4.78-1.46-5.9-3.35-1.79-3-3.3-6.06-6.77-7.48C47.91,251.93,46.16,247.1,46.28,241.9Z"/><path class="cls-64" d="M43.87,216.8c1.77,3.3,1,6.83,1,10.29C40.69,224,41.87,220.45,43.87,216.8Z"/><path class="cls-6" d="M6.15,164c-.22-.72.26-2.65-1.34-1.31-2,1.67-3.17,3.89-.77,6.31L2.92,170C.49,165.18,1.06,163.64,7,159,6.83,160.65,7.68,162.52,6.15,164Z"/><path class="cls-63" d="M67,237.6a1.69,1.69,0,0,0-1.88-1.67,22.47,22.47,0,0,1,7.41-13.49c3.22-2.87,6.53-1.78,9.26,2.49.15,3.55,1.79,4.74,5.22,3.49,2.38-.87,4.85-.62,8.91.13-22.5,14.21-25.43,34.83-20.43,57.8-3.21,0-3.8-2-5.32-2.58-.7-2.45-2.71-4-4.07-6-3.05-2.66-3-6.15-2.93-9.82C63.42,257.68,66.29,247.78,67,237.6Z"/><path class="cls-65" d="M67,237.6c2,2.76.83,5.68.44,8.56-1.23,9.25-3.83,18.39-2.51,27.87a23.2,23.2,0,0,0,1.17,3.72c-3.48-1.23-5.54-6.12-4.23-10.06.37-8.61.08-17.3,3.07-25.61C65.5,240.51,65.85,238.89,67,237.6Z"/><path class="cls-66" d="M9.94,137.36c-1,.15-.65,1.08-.92,1.66-2-3.92-1.29-8.22-.73-12.12A123.69,123.69,0,0,0,9,114c1.73,4.19.41,8.81,1.83,13C9.54,130.42,12.75,134.16,9.94,137.36Z"/><path class="cls-28" d="M15.9,216.14c1.2-1.68,2.72-1.35,4.23-.59.38.19,1.54.29.71,1.13-.35.35-1.21.19-1.84.26C17.9,217,16.78,217,15.9,216.14Z"/><path class="cls-67" d="M20,87.91c-2.14-2-.51-4.49-.88-6.72.36-.49.64-1.29,1.1-1.42,1.58-.42.67.93.81,1.44C21.62,83.57,19.79,85.59,20,87.91Z"/><path class="cls-68" d="M81.78,224.93c-6.18-4.42-9.51-3.61-12.35,3.4-1.12,2.77-3,5-4.32,7.6a28.8,28.8,0,0,1-4,3.64c-3.83,2.45-7.38,2.19-10.22-1.73-1.23-2.41.93-3.76,2-5.17,2.83-3.89,4.54-8.94,9.89-10.48a1.31,1.31,0,0,0,.86-1.11c2.41-9.92,12.19-11.79,18.76-17.16,1.2-1,3.41-.73,3.59-2.95,1.57-2.9,5.43-3.16,7-6.05,3.92.48,4.44-2.59,4.52-5.08.06-1.8-.35-3.4,1.73-3.89,3.15-.75.16,1.79,1.16,2.36a1.3,1.3,0,0,0,2-.62c1.44-4.59,5.18-3.75,8.57-3.79,1.92,2,6.44-2.21,7,2.94-1.3,1.5-1.74,3.87-4.24,4.14-2.09,1.56-2.34,4.44-4.35,6.05-6,4.8-7.2,12.41-11,18.73,5.09-1.78,7.57,4.75,12.65,3.28-.91-.68-2.86-1.45-2.18-2.73,1.41-2.66,4.63-.84,6.75-2.1-3.26-4.05-3.94-4.06-7.15-.25-2,2.42-3-.11-4.31-1-2.07-5.24-1.57-6.31,4.23-9.22,3.66.32,6.38,3.81,10.36,3.11-.93,4.52,2.44,7.95,3.06,12.08-4-.75-6.25,2.62-9.08,4.31-4.62,2.74-8.88,4-13.52.37-1-.78-2.24-2.25-3.43-1C91.71,226.91,86.58,224.74,81.78,224.93Z"/><path class="cls-69" d="M109.16,195.94c2.3-.95.87-5.42,4.68-5-1.23,3.05-.81,5.49,2.14,7.47s2.25,5.47,2.9,8.38c-4.41,3.49-6.78-.82-9.81-2.58a2.84,2.84,0,0,1-1.08-1.12A5.81,5.81,0,0,1,109.16,195.94Z"/><path class="cls-70" d="M141.44,216c-.23,1.71-1.48,1.74-2.61,1.8-3.09.19-6.11,0-9,1.92-2,1.29-3.1-.56-2.63-2.54.83-3.49,4.15-4,6.88-4.92,2.41-.77,5-.57,6.54,2.07C140.94,214.91,141.19,215.52,141.44,216Z"/><path class="cls-71" d="M178.88,177.92l-11.06-1.85L165.91,175a5.4,5.4,0,0,1-1.25-3.58c0-2.18.79-4.11,3-4.3,3.1-.27,1,2.71,2,3.86,1.3,3.47,3.76,5.27,7.52,5.07s5.89-2.46,6.85-6c3,3.56,2.67,5.44-1.34,6.77C181.45,177.28,180.16,177.57,178.88,177.92Z"/><path class="cls-72" d="M169.67,171c-1.41-.65.07-3.38-1.93-3.19s-1.86,2.24-1.85,3.85c0,1.12,0,2.24,0,3.36-2.63-.41-4.47-1.79-3.77-4.57s3.69-4.23,6.07-4.18C171.11,166.33,169.07,169.38,169.67,171Z"/><path class="cls-73" d="M86,201c1.3.32,2.75,1.11.66,2-5.78,2.4-10,7.17-15.49,9.81-4.37,2.1-5.61,5.48-6.38,9.56-.12.61.07,1.58-.26,1.79-8.29,5.22-8.3,5.2-13.58,13.74-.64,1-1.28,2.07-1.93,3.1-2.49-5.44.6-10.06,3-14.26,1.3-2.3.93-5.23,3.23-7.06,2.67-2.13,1.11-4.69-.5-7.78L58,214c1.52,2.95,3.5.93,5,.2a61,61,0,0,0,11-7.46C77.48,203.86,82,202.82,86,201Z"/><path class="cls-74" d="M12.1,90.11c.1-2.37,1.52-4.57.91-7,1.63.28,2-1.5,3.21-1.94a12.37,12.37,0,0,0-.11,2.42C16.63,86.91,15.84,89.39,12.1,90.11Z"/><path class="cls-75" d="M13.08,98.17c0-2,0-3.93,0-5.9,1.2-.79,2.36-1.82,4.07-.49Z"/><path class="cls-51" d="M9.94,137.36c1.29-3.34-1-7,.93-10.27.42,3.55,2.77,7.14-.19,10.63-.06.06-.28,0-.39,0A1.41,1.41,0,0,1,9.94,137.36Z"/><path class="cls-76" d="M81.08,169.91A19.4,19.4,0,0,0,88,171c.74,1.61,0,2-1.51,1.95-6.61-.15-12.93-1.85-19.11-3.94-2.24-.76-3.94-2.48-.29-4.1l0,0C72.51,164.31,76.4,168.21,81.08,169.91Z"/><path class="cls-77" d="M99.87,166.79C92.93,168,86,169,79.53,165c-2.94-1.79-3.69-3.77-.62-6.1,1.78-1.35,3.32-2.93,4.22,1.08.78,3.51,3.84,4.93,7.4,4.33s6-2.89,5.53-6.53c-.69-5.55,2.28-3.65,4.92-2.85,3.81,3.75,3.77,7.52-.11,10.93Z"/><path class="cls-78" d="M100.87,165.9c2.66-3.62,2.27-7.27.11-10.93,1.93-.18,3.39.87,4.87,1.88,5,3.46,5.23,4.75,1.27,9.08Z"/><path class="cls-79" d="M113,163c0-6.13,4.23-5.11,8.05-4.84-.38,2.82-2.71,4.62-3.59,7.39-1.59-.79-2.83-4-4.6-.63C112.86,164.27,112.91,163.63,113,163Z"/><path class="cls-47" d="M81.08,169.91c-5.31.07-9-4.32-14.06-5,6.17-3.83,9.34,2.54,13.93,4.1A2.47,2.47,0,0,0,81.08,169.91Z"/><path class="cls-80" d="M88,155.71c1,.14,1.57.72,1.52,1.61A1.6,1.6,0,0,1,87.65,159a1.53,1.53,0,0,1-1.46-1.61C86.18,156.15,87.06,155.77,88,155.71Z"/><path class="cls-81" d="M109.16,195.94c-1.73,2.24-1,4.58-.24,6.91-5.83,2.45-6.92,5.39-3.82,10.21a2.31,2.31,0,0,1,2.13,1.07c2.16-.93-1.54-5.8,3.16-4.82,3.28.68,8,2.26,7.6,5.16-.49,3.5-5.67,0-8.88,2.42a7.9,7.9,0,0,1,1.42.64c1.22.9,4.3-.69,3.86,1.74s-3.24,1.48-5.12,1.19a13.75,13.75,0,0,1-4.27-1.18c-4.84-2.56-4.8-2.63-9.93-.33C100.71,210.82,101.42,201.4,109.16,195.94Z"/><path class="cls-82" d="M105.1,213.06c0,1.05-.26,2.21-1.35,2.33s-1.07-1.07-1-1.84a60.11,60.11,0,0,1,.54-7.83c.55-3.22,2.53-4.36,5.66-2.87l.15,1.4C105.79,206.31,102.3,208.27,105.1,213.06Z"/></g></g></svg>