<svg xmlns="http://www.w3.org/2000/svg" viewBox="0 0 52.62 97.28"><defs><style>.cls-1{fill:#d6b88d;}.cls-2{fill:#fbe0b0;}.cls-3{fill:#fbdfb1;}.cls-4{fill:#86293c;}.cls-5{fill:#89293c;}.cls-6{fill:#e2ad97;}.cls-7{fill:#d2b891;}.cls-8{fill:#793735;}.cls-9{fill:#d5b78f;}.cls-10{fill:#c88c77;}.cls-11{fill:#712a31;}.cls-12{fill:#ceb290;}.cls-13{fill:#753132;}.cls-14{fill:#d2b99c;}.cls-15{fill:#adab9e;}.cls-16{fill:#b2b2a7;}.cls-17{fill:#621c27;}.cls-18{fill:#3f3421;}.cls-19{fill:#413a26;}.cls-20{fill:#a38167;}.cls-21{fill:#76332b;}.cls-22{fill:#6d2d28;}.cls-23{fill:#c8a97e;}.cls-24{fill:#bc9d74;}.cls-25{fill:#cda381;}.cls-26{fill:#9f7255;}.cls-27{fill:#e9b7a2;}.cls-28{fill:#e6cc9b;}.cls-29{fill:#e7cea1;}.cls-30{fill:#6e2c2b;}.cls-31{fill:#6a1525;}.cls-32{fill:#f7dab5;}.cls-33{fill:#f4d7b0;}.cls-34{fill:#c69d77;}.cls-35{fill:#3e190a;}.cls-36{fill:#652123;}.cls-37{opacity:0.2;}</style></defs><title>Asset 12</title><g id="Layer_2" data-name="Layer 2"><g id="Layer_1-2" data-name="Layer 1"><path class="cls-1" d="M32,9.16c2.94,1.63,6.4,2.55,8,6,1.29,5.28-1.74,9.13-4.42,13-1.29,1.88-3.24,3.26-4.91,5.52,2.62.82,5.74-.81,7.35,2.06,1.36,8.22,2.93,16.4,3.31,24.74a4,4,0,0,1-.6,1.53C39,64.26,36.13,63,34,64.11c-1.77,1.2-3.59,2.72-5.81,1.45-3.25-1.87-1.9-5.2-2.19-8,.75-4.56.45-9.15.48-13.05.27,6.26-.44,13.17-.69,20.09-1.13,1.8-2.77,1.53-4.44,1.12a6.5,6.5,0,0,1-3.56-1.2c-3.43-1.43-5.86-3.68-6.23-7.62,1.54-7.32-.18-15.08,3-22.17a3,3,0,0,1,.71-1.28c3.3-2.63,2.7-4.52-.46-7.11S8.92,20,10.94,15.14c.6-3.26,3.19-4.22,5.86-5.1,2.77,2.68,3.69,6.75,6.87,9.11,1.25,1.65,2.5,3.33,3.22-.33a5.75,5.75,0,0,1,2.26-2.5c3.51-1.31.47-4.88,2.32-6.77Z"/><path class="cls-2" d="M37,35.17l-2,0c-2.5.08-5.83,2.56-7.21-.1C26.77,33,30.26,31.17,32,29.69c4.62-3.87,6-9.34,8-14.54,6.8,3.16,10.79,8.26,11,16-.13,6.56-4.18,11.5-7.07,16.91a2.54,2.54,0,0,1-3.36,1.24c-2.4-3.38-2.35-7.3-2.46-11.19.57-2.17,3.16-2.22,4.07-3.86a8.69,8.69,0,0,1-3,2.11C38,36.83,37.56,35.94,37,35.17Z"/><path class="cls-3" d="M10.94,15.14c1,5.56,3,10.48,8.73,12.86,1.78.74,2.33,1.81.35,3.15-1.5,1-2.89,2.16-4.34,3.26a2.26,2.26,0,0,1-2,.51c-.74-.34-1.44-.75-1.41-.72A3.31,3.31,0,0,1,14,37.7a14.15,14.15,0,0,1-1.32,5.76c-4.05,1.76-8.23-.18-10.32-4.91a46.3,46.3,0,0,1-2.3-7.4c-.3-7,3.81-11.7,8.59-16C9.37,14.48,10.17,14.8,10.94,15.14Z"/><path class="cls-4" d="M8.92,81.24c-1.61-.95-5.64-.09-3.12-4.15,1-2.53-.19-5.38,1.17-7-.09,1.36-.34,3.45-3,4.08C1.14,73.55.64,72,1.7,69.4A33.49,33.49,0,0,0,4.18,56.28a2.13,2.13,0,0,1,.74-.86,2.67,2.67,0,0,1,3.38.13,4.67,4.67,0,0,1,.76,1c.29,2.74,3,2,4.41,3,0,1.22-.06,2.47.93,3.44C19,64.76,21.06,68,20.54,73c-.31,3.1,0,6.26-.08,9.39-.05,2.73-.68,4.93-4.13,4.84-3.1-.07-5.68-.59-5.38-4.6a2.83,2.83,0,0,0-.4-1.4,3.9,3.9,0,0,1-.19-2.41,5.28,5.28,0,0,1-.85,2.15Z"/><path class="cls-5" d="M39.93,61.73a.57.57,0,0,1,.22-.6,8.69,8.69,0,0,0,1.29-1.72,7.18,7.18,0,0,1,1.91-2.9c1.11-1.12,1.29-3.73,3.24-3.3,2.38.53,2,3.23,2.25,5.06.44,2.74-.17,5.73,2.42,7.79l.51,1.09c-1.18.85.51,3.48-1.89,3.39-2.18-.08-2.41-2.19-3-3.77.84,3,3.74,6.19.32,8.93-1.84,1.48-4.5,1.17-5.45-1.22.45.84,1.67,2,1.42,3.72l-.24.94c-.66,2.25,2,5.19-1.89,6.83-3.23,1.38-4.72,1.07-5.35-2.33a54,54,0,0,1-1.16-13.37C33.63,64.35,33.63,64.35,39.93,61.73Z"/><path class="cls-6" d="M29.93,17.13,28,19a1.93,1.93,0,0,1-1.92.85c-2.31-4-4.38-8.07-6.7-12A5,5,0,0,1,20,2.18,6.13,6.13,0,0,1,27.6.71,7.62,7.62,0,0,1,32,9.16l-.08.09c-.61.9-2.51,1-1.39,3C31.41,13.77,31.63,15.69,29.93,17.13Z"/><path class="cls-7" d="M4.8,55.8a4.68,4.68,0,0,0-.62.48c-.23-2.65-.5-5.33.3-7.9a5.82,5.82,0,0,0-1.09-5.62C.52,39.31-.2,35.41.05,31.15c2.64,3.38,3,8.27,7.13,10.71,1.54.9,2.79,2.36,4.8,1.29,1.7,4.05.51,7.93-.84,11.73-.43,1.19-1.4,2.38-3,1l.05.16C7.19,54.56,6.15,53,4.8,55.8Z"/><path class="cls-8" d="M11.09,80.13c1.23.64,1.43,1.59,1.14,2.91-.58,2.59,1,3.1,3.15,3.1S19,85.74,19,83.21c0-4.64,0-9.28,0-13.91,0-1.77-.77-3.49-2.78-3.47S13.74,64.45,13,63.21c1.64-.82,3.27-1.16,4.89,0l3.06,1c2.92,2.46,1.22,5.94,2,8.88.07,3.75.4,7.51-.36,11.23-1.07,5-1.31,5.16-6.53,4-5.12.42-6.12-3.3-7.11-7l.28-.33A2.84,2.84,0,0,1,11.09,80.13Z"/><path class="cls-9" d="M41,49.14c4.8-5.19,6.5-12.11,10-18,2.19,3.1.76,6-.87,8.59a13.18,13.18,0,0,0-2.29,7.75c-.14,3-1.79,5.49-3.13,8-.67,1.25-1.48,2.79-3.34,1.35C40.48,54.31,39,51.8,41,49.14Z"/><path class="cls-10" d="M20,2.18c-.09,3.5.19,6.44,3.73,8.85,2.21,1.5,2.58,5.14,2.3,8.21-.34,2.67-2,1-3.2,1-3.35-2.6-6.12-5.55-6.05-10.19C18.39,7.64,17,4,20,2.18Z"/><path class="cls-11" d="M43.13,78.2a9.75,9.75,0,0,1-2.82-8.94c.61,1.46.81,2,1.1,2.59,1.07,2,1.85,4.75,5,3.18s1-3.65.3-5.49a9.71,9.71,0,0,1-.36-6.29C49,70,49,70.06,51.77,67.15c.29.93,1,2.52.81,2.68C49.06,72.22,48.76,78.27,43.13,78.2Z"/><path class="cls-11" d="M36,70.15c-.39,4.49.65,8.87,1,13.3.13,1.45.45,2.85,2.31,2.28,1.45-.45,3.5-.68,2.83-3.17-.35-1.26-1.94-2.81.74-3.42,2.48,5,3.93,4.71-5.91,9.9a1.68,1.68,0,0,1-2.34.16c-1.16-1.13-1.12-2.61-1.19-4.06A15.7,15.7,0,0,1,33.19,80c.73-2.81-.15-5.77.7-8.58C34.36,70.6,34.89,69.92,36,70.15Z"/><path class="cls-12" d="M16,88.28c3.15.39,5.6-.06,5-4.17,1.68-1.06,2.8-.17,3.82,1.1a11.56,11.56,0,0,1,.3,8.76,3,3,0,0,1-2.67,2C21,95.36,19.15,95.45,18,94,18.88,91.56,17.37,89.94,16,88.28Z"/><path class="cls-13" d="M42.19,56.77c3.55-2.1,3.41-6.43,5.65-9.32l3.42,18.61C48.54,64.91,48.13,62.53,48,60c-.11-1.92.35-4-1.27-5.84l-4.74,7C41,59.61,40.68,58.15,42.19,56.77Z"/><path class="cls-14" d="M35.18,89,37,89c1,1.89-.16,3.35-.94,4.9-.69,1.34-2,1.6-3.29,2A4.22,4.22,0,0,1,29.24,94a5.47,5.47,0,0,1,0-5.4C31.23,88.46,33.16,89.41,35.18,89Z"/><path class="cls-15" d="M15,96.12c-4.56,1.9-9.06,1-13.59-.83l13.83-1A1.33,1.33,0,0,1,15,96.12Z"/><path class="cls-15" d="M30,94.12l2.9,1c.64,0,.67.58.83,1-4.24,1.33-8.48,1.74-12.72,0a.64.64,0,0,1,.54-.74L24,94.13C26,92.37,28,92.36,30,94.12Z"/><path class="cls-16" d="M39.71,94.31c4.16-.81,8.08.78,12.13,1.43C47.92,97.4,44,98,40,96A1.22,1.22,0,0,1,39.71,94.31Z"/><path class="cls-17" d="M4,74.15C6,72.35,5.69,69.37,8,66c-.08,4.82-.29,8.11-2.22,11.13C6,75.6,4.59,75.12,4,74.15Z"/><path class="cls-18" d="M39.71,94.31,40,96l-6.23.15-.83-1L36,93.94Z"/><path class="cls-19" d="M21.54,95.38a3.9,3.9,0,0,1-.54.74H15l.24-1.81L18,94A4.39,4.39,0,0,1,21.54,95.38Z"/><path class="cls-20" d="M34.89,71.29l0,8.88c-2.32.06-2.34-2-3-3.37a6.45,6.45,0,0,0-4.16-3.93c-1.29.92-.24-2.83-2-1-1.49.75-2.86,1.94-4.72,1.27,0-3-.08-6-.11-9l4,.89c1.06-1.61.29-3.41.53-5.11.12-.88-.11-2,1.43-1.75,0,.32,0,.64.07,1,.22,2-.33,4.56,2.09,5.51s3.14-1.85,4.83-2.63C35.12,65.06,34.62,68.22,34.89,71.29Z"/><path class="cls-21" d="M8.18,55.89c3.25-1.16,1.89-4.34,2.73-6.52.74-1.93.74-4.14,1.07-6.22l1.11-5.84c.85-.86-.24-2.39,1.08-3.08l1.51.18c-1.77,7.82-2,15.81-2.51,23.77.32.52.16.84-.41,1-.71,1.13-1,2.5-3.1,1.66C6.81,59.67,8.5,57.56,8.18,55.89Z"/><path class="cls-22" d="M42.19,56.77c-.06,1.44-.13,2.89-.2,4.34l-1.84,0c-.5-8.72-3.4-17.15-3.11-26l2,.72a1,1,0,0,1,.32.8c0,.3,0,.45-.11.45-1,4.23.54,8.09,1.73,12Z"/><path class="cls-23" d="M19.1,37.24c1.25,4.23.93,8.5.13,12.78C17.51,45.79,17.77,41.52,19.1,37.24Z"/><path class="cls-24" d="M26.94,58.24c-2.05,1.89.16,5-2,6.86-.4-7.61,1.85-15,2-22.65Z"/><path class="cls-25" d="M29.93,17.13c0-4.35,0-4.35-2.94-6.52,1.32-1.68,3.15-1.45,4.94-1.36A24.4,24.4,0,0,0,32.66,14,2.33,2.33,0,0,1,29.93,17.13Z"/><path class="cls-13" d="M34.89,71.29c-1.46-3-.62-6.14-1-9.2l6-.36c-3.3,1.88-5.84,4.11-4,8.42Z"/><path class="cls-26" d="M22.86,20.23c.81-1.13,2.43.3,3.2-1L28,19c.21,1.81-.28,3.72-1.89,4.25C24,23.91,23.84,21.4,22.86,20.23Z"/><path class="cls-27" d="M12.76,59.16l.41-1c.78,2.11,1.52,4.14,4.54,3.54.58-.11.77.9.18,1.52l-4.89,0Z"/><path class="cls-28" d="M39.29,37.14l-.21-1.25c2.06-1.72,3.74-4.13,8.36-4C44,34.11,41.66,35.63,39.29,37.14Z"/><path class="cls-29" d="M14.17,34.23l-1.08,3.08c-.63-3.56-5-2.89-6.57-5.87C10.17,29.74,11.78,33.11,14.17,34.23Z"/><path class="cls-30" d="M4.8,55.8c.08-1.62.17-3.23.29-5.42C7,52.22,8.22,53.79,8.23,56.05,7.15,55.05,5.86,57,4.8,55.8Z"/><path class="cls-31" d="M11.09,80.13a1.72,1.72,0,0,1-1.89.78c.46-2,.93-4,1.39-6l.8.15Z"/><path class="cls-32" d="M21.06,73.16a4.37,4.37,0,0,1,4.8-1.94c2.13,2.21,1.5,5,1.63,7.65,0,1.79.21,3.61-.5,5.34-.73,1.14-1.62,1.8-3,1l-2.94-1.13C20.16,80.46,20.75,76.81,21.06,73.16Z"/><path class="cls-33" d="M27.87,72.23c2.71-1.83,3.75.14,4.67,2.13s1.59,3.87,2.37,5.81c0,1.62,0,3.25-.07,4.87a4.78,4.78,0,0,1-4.94,2.6,3.31,3.31,0,0,1-3.23-3.39c1.18-2.52.91-5.11.37-7.72C27.08,75.05,26.71,73.49,27.87,72.23Z"/><path class="cls-34" d="M30.11,87.2,34.84,85c.11,1.33.23,2.65.34,4-1.94.92-4.19,3.55-5.12-1-.25-.2-.33-.4-.23-.58S30,87.2,30.11,87.2Z"/><path class="cls-35" d="M27.87,72.23c.11,1.53.21,3,.31,4.58.4,1.79.49,3.29-2.12,2.28l-.2-7.87C27.47,69.69,27,72.36,27.87,72.23Z"/><path class="cls-36" d="M26.06,79.09c1.46-.06,1.83-1.14,2.12-2.28C29.11,79.43,29.68,82,27,84l-.38-.22h-.44C26.14,82.23,26.1,80.66,26.06,79.09Z"/><g class="cls-37"><path d="M21.18,7.79a6.42,6.42,0,0,1,2,.19,2.73,2.73,0,0,1,1.45,1.14c.1.16.36,0,.26-.15a3,3,0,0,0-1.52-1.24,6.23,6.23,0,0,0-2.19-.24.15.15,0,0,0,0,.3Z"/></g><g class="cls-37"><path d="M26.75,8.36A4.93,4.93,0,0,1,28,7.63a1.84,1.84,0,0,1,1.45.11c.17.08.32-.17.15-.26A2.15,2.15,0,0,0,28,7.31a4.71,4.71,0,0,0-1.44.79c-.16.11,0,.37.15.26Z"/></g><g class="cls-37"><path d="M26.24,9.25a5.82,5.82,0,0,1,2.43-1.34.15.15,0,0,0-.08-.29A6.1,6.1,0,0,0,26,9c-.15.13.07.34.21.21Z"/></g><g class="cls-37"><path d="M23,13.29a6.5,6.5,0,0,0,5.27-.18c.18-.08,0-.34-.15-.25a6.23,6.23,0,0,1-5,.14c-.17-.08-.25.21-.08.29Z"/></g></g></g></svg>