<svg xmlns="http://www.w3.org/2000/svg" viewBox="0 0 800.56 689.81"><defs><style>.cls-1{fill:#171715;}.cls-2{fill:#3e3735;}.cls-3{fill:#4d4f52;}.cls-4{fill:#484540;}.cls-5{fill:#74716c;}.cls-6{fill:#2e2f2e;}.cls-7{fill:#1a1615;}.cls-8{fill:#bcbdc0;}.cls-9{fill:#746f69;}.cls-10{fill:#575149;}.cls-11{fill:#b5aea7;}.cls-12{fill:#cccdcc;}.cls-13{fill:#fefefe;}.cls-14{fill:#c9c9c9;}.cls-15{fill:#9d9e9e;}.cls-16{fill:#c6c6c6;}.cls-17{fill:#282725;}.cls-18{fill:#49443e;}.cls-19{fill:#595357;}.cls-20{fill:#4db6bd;}.cls-21{fill:#595251;}.cls-22{fill:#706768;}.cls-23{fill:#969094;}.cls-24{fill:#545050;}.cls-25{fill:#7f777a;}.cls-26{fill:#535054;}.cls-27{fill:#cdc9c0;}.cls-28{fill:#757175;}.cls-29{fill:#96959b;}.cls-30{fill:#726a63;}.cls-31{fill:#4f4944;}.cls-32{fill:#272523;}.cls-33{fill:#c2c1bc;}.cls-34{fill:#8c8785;}.cls-35{fill:#6b6a68;}.cls-36{fill:#777071;}.cls-37{fill:#8e8987;}.cls-38{fill:#4d4741;}.cls-39{fill:#78706d;}.cls-40{fill:#827f77;}.cls-41{fill:#dbd9d8;}.cls-42{fill:#fdfdfd;}.cls-43{fill:#d3d1cb;}.cls-44{fill:#a2a2a0;}.cls-45{fill:#c2c2c1;}.cls-46{fill:#c5c5c4;}.cls-47{fill:#b1b1af;}.cls-48{fill:#716d5f;}.cls-49{fill:#6f7070;}.cls-50{fill:#8e8d8a;}.cls-51{fill:#949492;}.cls-52{fill:#1b1c17;}.cls-53{fill:#35332c;}.cls-54{fill:#434039;}.cls-55{fill:#655d56;}.cls-56{fill:#5e594f;}.cls-57{fill:#726b6d;}.cls-58{fill:#68615d;}.cls-59{fill:#413b37;}.cls-60{fill:#917879;}.cls-61{fill:#5d5656;}.cls-62{fill:#c7acac;}.cls-63{fill:#d3d1d0;}.cls-64{fill:#dcd8d4;}.cls-65{fill:#97918a;}.cls-66{fill:#b1aba2;}.cls-67{fill:#cfcdca;}.cls-68{fill:#847c72;}.cls-69{fill:#a49f94;}.cls-70{fill:#55504b;}.cls-71{fill:#b3ac9d;}.cls-72{fill:#5a5a59;}.cls-73{fill:#a2a09c;}.cls-74{fill:#817a71;}.cls-75{fill:#6a6662;}.cls-76{fill:#b2ac9d;}.cls-77{fill:#a19c99;}.cls-78{fill:#c0bab4;}.cls-79{fill:#6c6560;}.cls-80{fill:#bdbdbc;}.cls-81{fill:#7c7c79;}.cls-82{fill:#8a8b86;}.cls-83{fill:#5e594b;}.cls-84{fill:#4d4b42;}.cls-85{fill:#403e37;}.cls-86{fill:#656463;}.cls-87{fill:#c8c8c7;}.cls-88{fill:#252622;}.cls-89{fill:#0e0f12;}.cls-90{fill:#111210;}.cls-91{fill:#49473f;}.cls-92{fill:#3f3e33;}.cls-93{fill:#31302c;}.cls-94{fill:#424448;}.cls-95{fill:#454236;}.cls-96{fill:#4b473d;}.cls-97{fill:#625e54;}.cls-98{fill:#898477;}.cls-99{fill:#99968f;}.cls-100{fill:#b3b1ac;}.cls-101{fill:#d7d7d5;}.cls-102{fill:#b0aea8;}.cls-103{fill:#bfbebb;}.cls-104{fill:#cdccc9;}.cls-105{fill:#706860;}.cls-106{fill:#918c80;}.cls-107{fill:#aea89a;}.cls-108{fill:#a7a49d;}.cls-109{fill:#3d3e42;}.cls-110{fill:#5d5950;}.cls-111{fill:#7e776d;}.cls-112{fill:#534f4a;}.cls-113{fill:#9f9f9e;}.cls-114{fill:#48423b;}.cls-115{fill:#696057;}.cls-116{fill:#35332e;}.cls-117{fill:#5b5850;}.cls-118{fill:#9a9589;}.cls-119{fill:#383839;}.cls-120{fill:#aba391;}.cls-121{fill:#777268;}.cls-122{fill:#99978f;}.cls-123{fill:#64635d;}.cls-124{fill:#b4b5b3;}.cls-125{fill:#92918d;}.cls-126{fill:#afa99c;}.cls-127{fill:#716a5f;}.cls-128{fill:#918b7c;}.cls-129{fill:#b5b5b2;}.cls-130{fill:#ccccca;}.cls-131{fill:#888173;}.cls-132{fill:#a4a3a0;}.cls-133{fill:#bbbbb9;}.cls-134{fill:#585146;}.cls-135{fill:#45433a;}.cls-136{fill:#57554a;}.cls-137{fill:#8c8983;}.cls-138{fill:#202120;}.cls-139{fill:#abaaa6;}.cls-140{fill:#1e1e1b;}.cls-141{fill:#33322c;}.cls-142{fill:#141411;}.cls-143{fill:#545555;}.cls-144{fill:#636466;}.cls-145{fill:#48494b;}.cls-146{fill:#707172;}.cls-147{fill:#4f4e46;}.cls-148{fill:#6e6a5f;}.cls-149{fill:#868277;}.cls-150{fill:#69675e;}.cls-151{fill:#918a7a;}.cls-152{fill:#8e8f91;}.cls-153{fill:#c4c4c4;}.cls-154{fill:#3a372f;}.cls-155{fill:#545149;}.cls-156{fill:#7d786d;}.cls-157{fill:#817e74;}.cls-158{fill:#928c80;}.cls-159{fill:#c1bdb6;}.cls-160{fill:#292a2d;}.cls-161{fill:#817d75;}.cls-162{fill:#6b6d6f;}.cls-163{fill:#979183;}.cls-164{fill:#393832;}.cls-165{fill:#a09d96;}.cls-166{fill:#cbcbc8;}.cls-167{fill:#302f29;}.cls-168{fill:#48453d;}.cls-169{fill:#676255;}.cls-170{fill:#464238;}.cls-171{fill:#393833;}.cls-172{fill:#48463f;}.cls-173{fill:#4c4b44;}.cls-174{fill:#4f4e4e;}.cls-175{fill:#4d4c45;}.cls-176{fill:#5e5e5a;}.cls-177{fill:#aaaaa9;}.cls-178{fill:#68655e;}.cls-179{fill:#84827e;}.cls-180{fill:#bab9b8;}.cls-181{fill:#cacaca;}.cls-182{fill:#b3b3b1;}.cls-183{fill:#b5b5b4;}.cls-184{fill:#767570;}.cls-185{fill:#878682;}.cls-186{fill:#b7b2a7;}.cls-187{fill:#706859;}.cls-188{fill:#716757;}.cls-189{fill:#a9a295;}.cls-190{fill:#978d7d;}.cls-191{fill:#4a463d;}.cls-192{fill:#5c5d5e;}.cls-193{fill:#878888;}.cls-194{fill:#c5c4c0;}.cls-195{fill:#c8c8c8;}.cls-196{fill:#32312d;}.cls-197{fill:#989998;}.cls-198{fill:#717170;}.cls-199{fill:#95938c;}.cls-200{fill:#cbcac6;}.cls-201{fill:#cbcbc9;}.cls-202{fill:#c7c7c6;}.cls-203{fill:#2b2c27;}.cls-204{fill:#4d4a40;}.cls-205{fill:#8e8f8f;}.cls-206{fill:#b4b4b4;}.cls-207{fill:#3c3e3d;}.cls-208{fill:#cecfcf;}.cls-209{fill:#858586;}.cls-210{fill:#635f55;}.cls-211{fill:#5f5d55;}.cls-212{fill:#838178;}.cls-213{fill:#6b685e;}.cls-214{fill:#514e45;}.cls-215{fill:#8d887b;}.cls-216{fill:#928f83;}.cls-217{fill:#8f8a7d;}.cls-218{fill:#898172;}.cls-219{fill:#b7b2a6;}.cls-220{fill:#a7a192;}.cls-221{fill:#57595a;}.cls-222{fill:#898071;}.cls-223{fill:#897f6b;}.cls-224{fill:#aeaeab;}.cls-225{fill:#7b715d;}.cls-226{fill:#bab4a8;}.cls-227{fill:#847c6e;}.cls-228{fill:#aaa497;}.cls-229{fill:#786e5a;}.cls-230{fill:#847d6d;}.cls-231{fill:#57585c;}.cls-232{fill:#727476;}.cls-233{fill:#727171;}.cls-234{fill:#c3c3c3;}.cls-235{fill:#5d594f;}.cls-236{fill:#23221d;}.cls-237{fill:#3f3d35;}.cls-238{fill:#565249;}.cls-239{fill:#706c60;}.cls-240{fill:#8b8679;}.cls-241{fill:#7a7568;}.cls-242{fill:#272722;}.cls-243{fill:#6c6453;}.cls-244{fill:#7a7465;}.cls-245{fill:#807e78;}.cls-246{fill:#adaeaf;}.cls-247{fill:#9d9d9c;}.cls-248{fill:#cfcfcf;}.cls-249{fill:#48453e;}.cls-250{fill:#575144;}.cls-251{fill:#7a766d;}.cls-252{fill:#646460;}.cls-253{fill:#b4b4b3;}.cls-254{fill:#22221e;}.cls-255{fill:#6c614e;}.cls-256{fill:#2d2a21;}.cls-257{fill:#2e2f2b;}.cls-258{fill:#4c4333;}.cls-259{fill:#6b6d6d;}.cls-260{fill:#d0d0d0;}.cls-261{fill:#98958c;}.cls-262{fill:#685e4c;}.cls-263{fill:#97958e;}.cls-264{fill:#675d4a;}.cls-265{fill:#9f9b91;}.cls-266{fill:#9c988c;}.cls-267{fill:#7f7a6e;}.cls-268{fill:#7b766c;}.cls-269{fill:#524f46;}.cls-270{fill:#35322b;}.cls-271{fill:#777061;}.cls-272{fill:#7d7668;}.cls-273{fill:#1a1915;}.cls-274{fill:#39352a;}.cls-275{fill:#524c3e;}.cls-276{fill:#514c3e;}.cls-277{fill:#3f3c32;}.cls-278{fill:#3a3730;}.cls-279{fill:#615d52;}.cls-280{fill:#726956;}.cls-281{fill:#625945;}.cls-282{fill:#504a3d;}.cls-283{fill:#79756b;}.cls-284{fill:#857b66;}.cls-285{fill:#8c8575;}.cls-286{fill:#595243;}.cls-287{fill:#665d4b;}.cls-288{fill:#8f8268;}</style></defs><title>Asset 9</title><g id="Layer_2" data-name="Layer 2"><g id="Layer_1-2" data-name="Layer 1"><path class="cls-1" d="M706.3,47.22c32.68-16.46,10.37,7-27.57,35.24C671.86,77.1,669.85,62.55,706.3,47.22Z"/><path class="cls-2" d="M705.29,59.28c-.18,11.23,51.43-70.8,50.68-53.57C751.14-.57,726,79.28,705.29,59.28Z"/><path class="cls-3" d="M748.34,14.31c-4.33-18,38.4-18.41,22.9-4.63C758.71-4.24,778.17,18.93,748.34,14.31Z"/><path class="cls-4" d="M706.3,47.22c-4.85,1.87-34.95,22.65-53.16,19.15C657,64.91,649,56.17,706.3,47.22Z"/><path class="cls-5" d="M698.55,47.18c-.43,2.63-38,14.38-39.76,12.57C661.78,61.77,664.26,48.54,698.55,47.18Z"/><path class="cls-6" d="M768.44,12.27C741.51,2.15,803.55,1.32,779.56,32.64,765.28,27.51,789.58,22.74,768.44,12.27Z"/><path class="cls-7" d="M783.25,31.52c-6-3.32,1.11-17,3.19-1.16C786.59,30.26,786.73,35.11,783.25,31.52Z"/><path class="cls-8" d="M783.25,31.52c-2.75-.19-4,.71,0,0C790.36,32.2,778.9,46.12,783.25,31.52Z"/><path class="cls-9" d="M518.4,679.15c-11.42-27.19.07-6.53,15.64-14C534.8,669.16,570.56,704.74,518.4,679.15Z"/><path class="cls-10" d="M576.28,689.81c.28-3.16-3.75-22.17,5.62-18.91C591.64,683.73,580.87,682,576.28,689.81Z"/><path class="cls-11" d="M585.34,681.24c-4.1-8.6-67.28-60.84-31.25-56.33C542.8,644.28,604.63,674.64,585.34,681.24Z"/><path class="cls-12" d="M10.45,445.29c3.23,5.34,19.43-33.37,26.13-17.77C36.62,426-.91,469.81,10.45,445.29Z"/><path class="cls-13" d="M10.45,445.29c-1.07,15.53-18.25-3.06.29-5C13.44,440.46,14.83,441.89,10.45,445.29Z"/><path class="cls-14" d="M5.43,481.25c-7.07-5.35-2.2-38.14,3.55-2.83C8.6,478.82,8.73,481.42,5.43,481.25Z"/><path class="cls-15" d="M6.38,463.3c-1-1.42-1.64,1.37-4.53-7.78C3.45,452.58,11.81,450.6,6.38,463.3Z"/><path class="cls-14" d="M2.54,453.4c-3.51.87-3.26,1.35,0,0C5.22,454.09,5.8,467,2.54,453.4Z"/><path class="cls-16" d="M11.43,488.32c-26.65-8.08,40.58-2.77,28,9.85C34.63,498,38.81,496.13,11.43,488.32Z"/><path class="cls-17" d="M653.34,66.31C722.26,47.06,640.6,64,704.59,93.76c-34.9,21.33-20.23.45-43.6-15.13C641.62,77.82,622.86,104.92,653.34,66.31Z"/><path class="cls-18" d="M691.37,93.33c24.49-3.71-.18,4-7-24,26.49,24.52.43-23.83,28-5-4.17,27.8-23.13,3.83,17.31,40.42C736.58,134,701.58,117.89,691.37,93.33Z"/><path class="cls-19" d="M692.35,65.31c-6.29.79-8,4,0,0C712.39,50.59,703.34,94.25,692.35,65.31Z"/><path class="cls-20" d="M692.87,61.3c-3.53-.19-5-.64,0,0C694.08,62.15,684.83,64.72,692.87,61.3Z"/><path class="cls-21" d="M710.35,76.33c-5.46-12,5.47-3.65,29-51C738.44,27,754.79,38.14,710.35,76.33Z"/><path class="cls-22" d="M740.35,36.33c-6.45.86,13.93-36.54,9.17-12.23C747.14,23.65,751.62,32,740.35,36.33Z"/><path class="cls-23" d="M740.35,36.33c4.28-33.1,62.6-27.08,12.09-1.54,11.76,5.54,6.69,46-11.48,26.27C734.11,76.27,714.89,92.35,740.35,36.33Z"/><path class="cls-24" d="M769.38,14.28c-6.09-.35,6.4-7.72,9,6C776,21,777.08,21.69,769.38,14.28Z"/><path class="cls-7" d="M779.3,32.23c9.85-.29-2.47,54.25-5.31,28.25,4.46-11.5.86-21-3.1,2.9C775.16,109.61,732,93.93,779.3,32.23Z"/><path class="cls-25" d="M769.38,14.28c18,10.88-19.21,84-14.37,28.27C742.5,12.65,776.43,43.84,769.38,14.28Z"/><path class="cls-24" d="M774.36,32.33c.44,1.06,1.11,1.18,0,0C770.37,29.13,779.77,24,774.36,32.33Z"/><path class="cls-24" d="M776.21,25.44c2.79-1.84,1.47-1.39,0,0C769.62,26.62,779.54,17,776.21,25.44Z"/><path class="cls-26" d="M767.31,87.28c3.11-3.83-4.65-1.46,29.24-41.23C794.38,57,776.21,86.87,767.31,87.28Z"/><path class="cls-27" d="M784.34,100.32c-14.82,41.53-21.86,79.59-23.84,20C758.76,115,810.05,49.15,784.34,100.32Z"/><path class="cls-28" d="M779.27,90.3c-17.7,14.62,2-23.06,18-43.79C801.91,55.41,802.24,50.37,779.27,90.3Z"/><path class="cls-29" d="M779.27,90.3c-6.28-5.74,23.54-22.14,18-43.79C800.3,43.27,808.16,73.94,779.27,90.3Z"/><path class="cls-27" d="M798.13,69.13c-.12-1.83,0,0,.23-5.55C799.14,62.06,801.89,61.69,798.13,69.13Z"/><path class="cls-30" d="M235.43,631.18c11.11,13.65-15,26.52-28.6,13.09C218.81,639.94,215.37,615.6,235.43,631.18Z"/><path class="cls-31" d="M219.33,646.33c7.73,0,16.91,13,13.84-9.41C253,643.9,225.8,669.11,219.33,646.33Z"/><path class="cls-32" d="M219.33,646.33c.06,3.79,6.29,13,13.27,4.83C240.7,664.36,199.73,656.37,219.33,646.33Z"/><path class="cls-32" d="M196.81,654.05c-.2,1.58-17-10.62,17,1.17C209.71,658.54,205.9,660,196.81,654.05Z"/><path class="cls-33" d="M211.12,657c4.4-.15,5.26-2.77,0,0C213.57,657.24,213.59,646,211.12,657Z"/><path class="cls-34" d="M510.36,637.21c9.07-52.16,19,10.26,14.89,34.88C512.68,651.19,512.75,701.41,510.36,637.21Z"/><path class="cls-35" d="M510.44,650.23c-1.66-5.79,14.61,9.28,1,11.37C511.62,659.31,510.16,659.53,510.44,650.23Z"/><path class="cls-36" d="M565.25,660.28c31.26,24.31,8.28,16.63-16.82,24C545.55,671.05,518.74,661.89,565.25,660.28Z"/><path class="cls-34" d="M537.4,664.27c8.55,6.33,12.16,28.32-4.84,9.34C545.39,676.28,523.78,654.79,537.4,664.27Z"/><path class="cls-37" d="M553.33,625.27c-23.38-19.16,25.91-107.5,15.72-21.84-13.12,13.19,74,51.05,39,42.66-72.68,8.22-40.19-1.14-51.52-38.5C555.19,604.85,553,609.62,553.33,625.27Z"/><path class="cls-34" d="M565.25,660.28c-37.53,20.4-41.68-31.17-24.29-54C555.24,620.73,534.86,641.29,565.25,660.28Z"/><path class="cls-38" d="M562.46,653.15C574.3,650.3,593.2,644.8,612,652,606.24,660.81,587.08,668.87,562.46,653.15Z"/><path class="cls-39" d="M553.33,625.27c-.43-18,1.16-33.2,11.58,3.07C564.49,631.19,558.31,636.63,553.33,625.27Z"/><path class="cls-40" d="M546.37,625.25c3.2-5.74-13.7-12.54.62-36.6C552.27,596.71,550.27,605.34,546.37,625.25Z"/><path class="cls-41" d="M571.41,658.34c4.09.74.26-1.17,17.93,5.84C583,664.21,582.94,671.32,571.41,658.34Z"/><path class="cls-42" d="M623.36,660.22c-1.83,1.23-16.41-24.43-1.4-20.91C624.75,641.24,625.87,644.46,623.36,660.22Z"/><path class="cls-43" d="M617.22,645.34c2.61.3,2.17,20.38-6,12.83C611.12,649.18,616.06,657.73,617.22,645.34Z"/><path class="cls-44" d="M79.26,393.05c2.47-1.05,25.15-24.52,28.5-16.44C103.64,378.8,86.06,398.94,79.26,393.05Z"/><path class="cls-45" d="M108.55,373.42c-15.7,10.06,8.56-28.44,3.52-5.24C109.07,368.74,113.52,369.35,108.55,373.42Z"/><path class="cls-46" d="M36.22,423.12c-6.36-7.95,37.23-20.9,13-7C46.79,416.1,50,418.67,36.22,423.12Z"/><path class="cls-47" d="M57.41,410.22c-7.26-3.47,11.54-14.88,9.86-5.51C63.26,404.76,65.47,413.62,57.41,410.22Z"/><path class="cls-47" d="M79.26,393.05c2.79,2.1-4.68,11.25-10.65,7.46C69.52,398.54,71.3,397.79,79.26,393.05Z"/><path class="cls-48" d="M45.47,417.31c28-18.71-1.06,22.21-9.95,10.05C38.33,425.88,39.32,423.91,45.47,417.31Z"/><path class="cls-49" d="M6.38,463.3c-3.77,1.94,10.78-32.69,3.44,15.06C7.31,475.82,5.16,476.22,6.38,463.3Z"/><path class="cls-49" d="M10.24,453.06c1.67.74,9.59-17.82,12.36-7.43C21,447.73,20.26,452.28,10.24,453.06Z"/><path class="cls-50" d="M45.47,417.31c1.38.12-8.72,14.78-8.94,6C38.57,422.6,40.18,421.77,45.47,417.31Z"/><path class="cls-51" d="M21.39,442.06c-1.92.14,6.82-11,8.32-2C27.16,441.29,29.84,441,21.39,442.06Z"/><path class="cls-51" d="M28.35,436.18h0C23.74,434.87,40.9,427.53,28.35,436.18Z"/><path class="cls-51" d="M35.52,427.35c-3.28-.55-4.34,1.12,0,0C35.47,428.33,36.9,435.52,35.52,427.35Z"/><path class="cls-49" d="M7.62,479.43c1.55-2.28,37.16,9.82,18.46,8.32C25.25,482.43,21.8,494.26,7.62,479.43Z"/><path class="cls-15" d="M10.23,478.13c-7,7-5-20.88-2.94-10.83C6.18,469.91,5,472.17,10.23,478.13Z"/><path class="cls-15" d="M7.62,479.43c-4.63.76,16.57,6.93,2.5,6.88C11.71,485.63,4.7,483.79,7.62,479.43Z"/><path class="cls-15" d="M46.55,491.38c-3.21,4.53-17.54-1.51-30.11-5.13C21.72,486.84,27.71,484.2,46.55,491.38Z"/><path class="cls-52" d="M639.34,95.33c16.14-48.25,35.17-3.62,26,15.75-3.5,14-26.52-3.84-20,10.66,20.65,42.08-19,85.8-8,56.78-28.39,23,23.37,108.68-47.56,42.37-39.55-24.51-9-5.83,5.54-25.09-12.41-14-36.49-19.81-1.76-35.43-8.25-8.17,20.57,52.68,25,36.19,11.27-32.57-52.59-83.46,1.94-62,16.18,12.69,16.62,35.52,16.79-8.07-18.54,2.81-84-16.83-9.91-7.22C598,124.79,609.27,91,639.34,95.33Z"/><path class="cls-53" d="M671.37,90.29c24.17,11.19,71.78,99.16,22.12,65.62C656.05,168.6,622.65,143.9,671.37,90.29Z"/><path class="cls-54" d="M639.34,95.33c3,9.38-18.06-2.69-16.53-5.83C632.36,93.72,637.57,68.48,639.34,95.33Z"/><path class="cls-54" d="M638.19,81.19c2-2.21,2-5.59,12.36-11.36A127.2,127.2,0,0,1,638.19,81.19Z"/><path class="cls-55" d="M711.36,114.29c42.45,8.87-10.16-27.61-7.51-36.67C720.25,60.32,806.18,198.25,711.36,114.29Z"/><path class="cls-56" d="M711.36,114.29c.41,6-14.53,10.48-18-12C701.14,107.86,698.63,97.43,711.36,114.29Z"/><path class="cls-57" d="M724.31,92.33c-27-5.26,12.59-52.78,5.67-30.72C722,70.42,728.47,86.09,724.31,92.33Z"/><path class="cls-22" d="M740.35,36.33c9.74.08-12.64,28.58-4.94,11.35C735.61,45.73,738.62,48.07,740.35,36.33Z"/><path class="cls-18" d="M715.4,74.37c2.16-.34-3.76,9.65-5.07,2C711.17,75.49,711.64,74.05,715.4,74.37Z"/><path class="cls-25" d="M724.31,92.33c3,1.62-5.72-45.78,8.43-12.49-4.42,1.27,6.91-30.64,11.25-15.49.77,14.29,22.62,44.84-4.38,56.52C726.9,104,752.45,101.47,724.31,92.33Z"/><path class="cls-58" d="M756.37,111.32c.63,2.17-25.83-48.9-.06-44.89C730.14,88.7,789.29,92.85,756.37,111.32Z"/><path class="cls-25" d="M754.36,63.34c-1.67,1.71,0,0-6.05,3C748.52,63.89,743.33,58.32,754.36,63.34Z"/><path class="cls-25" d="M744.58,59.49c-2.58-.93,0,0-4-3.06C742.79,55.14,741.2,55.4,744.58,59.49Z"/><path class="cls-59" d="M767.17,96.19c-34.76,5.6-3.14-52.48-1.51-39.17C769.64,65.42,745,70.2,767.17,96.19Z"/><path class="cls-60" d="M777.46,51.45c-5.23.31,6.31,22-9.31,16.67C771.81,69.33,767.34,51.65,777.46,51.45Z"/><path class="cls-61" d="M768.16,50.21c4.32-8.06,2.75-5.43,0,0C749,73,782.8,12.12,768.16,50.21Z"/><path class="cls-62" d="M768.14,68.11c-1.14,3.13,12.8-2.62,2.73,6.87C766,77.73,763.37,83.32,768.14,68.11Z"/><path class="cls-63" d="M777.46,51.45c1.41-3.93.94-6,0,0C774.46,56.68,770.13,42.3,777.46,51.45Z"/><path class="cls-64" d="M771.62,53.47c1.65,1.05,3.21,2.14,1.71,6.57C769.68,62.25,768.34,65.65,771.62,53.47Z"/><path class="cls-65" d="M767.17,96.19c7.65-26.51,16.2,33.13,1.71-.36C768.17,96.93,767.28,110.48,767.17,96.19Z"/><path class="cls-66" d="M771.43,150.23c10.18-2.54.61,72.91-7.84,53.11C772.53,162.61,739.77,115.92,771.43,150.23Z"/><path class="cls-65" d="M756.33,111.32c3.56,1.91,16.57-22.61.79,15.44C754.34,131.89,736.09,94.07,756.33,111.32Z"/><path class="cls-66" d="M757.28,126.34c.66,3.58,2.87,4,0,0C759.88,118,765.38,115.34,757.28,126.34Z"/><path class="cls-65" d="M766.21,104.46c1.39,6,.9,4,0,0C768.37,101.9,772.07,124.9,766.21,104.46Z"/><path class="cls-67" d="M771.38,203.32c-8.4,29.59,1.44-43.09,6.76-46.53C772.94,163.38,788.28,186.53,771.38,203.32Z"/><path class="cls-68" d="M225.29,626.28c-.78,4.5-47.87,54.26-41.75-1.08,4.5-.54,7.05,22.09,14.49,11,6.48-20.23-31.47-19.38-10.81-34.39C245.91,671.6,177.31,555,225.29,626.28Z"/><path class="cls-69" d="M176.49,617.11c.7-23,7-9.55,21.88,8.15C202,625.41,201.33,665.07,176.49,617.11Z"/><path class="cls-70" d="M186.27,647.43c2.4-.46-6.42-5.69.27-5.86C184.1,639.25,202,659.1,186.27,647.43Z"/><path class="cls-70" d="M193.44,649.27c-2.27.26,25.86-6,15.43,2.85C201.42,654.92,203.68,657.64,193.44,649.27Z"/><path class="cls-31" d="M204.34,654.28c.17-3.06,25.44-19.51,9.2-3C212.72,654.16,214.06,655.13,204.34,654.28Z"/><path class="cls-71" d="M225.29,626.28c.9.77-3.82-5.78.15-4.11C222.74,619.91,239.49,635.91,225.29,626.28Z"/><path class="cls-40" d="M535.37,605.24c-28.95,25.61-25.88-138.56-20.11-140.39,38,2.1,61.64-85.3,64.83-37.48-45.3,124.1-42.4,7.1-53.07,64.84C533.44,539.41,583.9,465.76,535.37,605.24Z"/><path class="cls-72" d="M514.42,589.25c1.83-.4,3.71-4.88,7.89,27C523,619.29,510.88,625.17,514.42,589.25Z"/><path class="cls-73" d="M522.31,616.28c22.63-31.95,4.67,44.36,21.28,45.25C538.84,666.52,516.34,671.77,522.31,616.28Z"/><path class="cls-34" d="M568,667.77c-4.16,1.4-5.79-1.44-7.82-3.46C562.72,665.23,565.94,664.51,568,667.77Z"/><path class="cls-74" d="M583.28,565.13c-2.77,72.12-50.92-23.57-11-42.67C581.23,505,590.44,474.05,583.28,565.13Z"/><path class="cls-75" d="M536.36,596.22c-21.35-18.84,33.31-13.77,7.26-1.6C544.09,598.78,545.57,622.34,536.36,596.22Z"/><path class="cls-76" d="M555.4,557.25c-1.7,25.72-7.58-10.67.94-38C559.87,510.94,563.38,515.38,555.4,557.25Z"/><path class="cls-77" d="M571.33,598.21c16.61-5.71-3.91,34.11-5.12,12.82C560.65,596.22,581.37,608.07,571.33,598.21Z"/><path class="cls-78" d="M577.45,614.18c-2.59,1.69,4.72-46.56,3.67-28.22C576.53,602.05,593.56,659.66,577.45,614.18Z"/><path class="cls-79" d="M603.36,646.23c8.25,14.42-27.6,4-18.3-3.15C579,634.48,587.09,644,603.36,646.23Z"/><path class="cls-79" d="M584.34,649.21c13.46,12.92-29.52,3.36-9.33-4.72C578.46,643.59,576.85,649.44,584.34,649.21Z"/><path class="cls-79" d="M613.42,651.3c-3.47,5.38-16.08-8.25-4.25-7.25C609.68,645.76,610.36,647.05,613.42,651.3Z"/><path class="cls-40" d="M538.37,596.23c-1.44,6.19-3,9,0,0C541.6,595.2,541.92,611.15,538.37,596.23Z"/><path class="cls-73" d="M538.93,658.36c-.69-2.86,0,0,.45-6.38C541.71,652.75,541.64,651.69,538.93,658.36Z"/><path class="cls-80" d="M123.39,353.19c21.17-20.42,35.25-14.55-7,7.56C114.43,359.75,116.24,357.28,123.39,353.19Z"/><path class="cls-44" d="M115.2,360.06c11.11-1.53-11.25,24.08-4,7.25C113.71,366.61,112.75,364.12,115.2,360.06Z"/><path class="cls-48" d="M71.45,401.31c7.09.66,32.28-30.81,35.45-20.68C105,385.62,35.94,434.07,71.45,401.31Z"/><path class="cls-81" d="M109.35,373.18c3.86-6.65,15.24-2-2,2.92C108,375.77,106.93,374.79,109.35,373.18Z"/><path class="cls-82" d="M59.54,410.38h0C62.23,414.46,37.82,417.8,59.54,410.38Z"/><path class="cls-82" d="M65.49,404.33c-1,2,5.8,4.07-2.12,4.86C65.3,406.14,57,407,65.49,404.33Z"/><path class="cls-82" d="M71.45,401.31h0C72.46,400,64.73,407.82,71.45,401.31Z"/><path class="cls-83" d="M58.45,413.3c35.93-20,70.21-12.83,19.65,6.82-6.61,15.73-5.82,45.16,1.34,32.17,58-13.39-36.4,68.82-42.33-8.18C47.74,439,68.5,434.59,58.45,413.3Z"/><path class="cls-84" d="M57.41,416.23c21.61,7.32-3.19,33-35.92,26.31C25.08,441.94,23.87,440.58,57.41,416.23Z"/><path class="cls-85" d="M22.43,445.25c23.44-4,54.87,42.75,24.42,41.93-22-27.37-30.65-45.29-28.89-3.12C12.05,482.08,4.58,464.55,22.43,445.25Z"/><path class="cls-48" d="M35.44,431.29c-.57-.3-4.63,11.52-6.76,5.21C32,436.7,27.35,434.64,35.44,431.29Z"/><path class="cls-86" d="M24.33,484.16c-.88-3.84,15.23.54,13.06,3.1C31.58,487.21,34.47,488.67,24.33,484.16Z"/><path class="cls-87" d="M46.55,491.38c-8.51-.58,44.28-15.22,30.85-.46C73.21,491.25,79.69,488.22,46.55,491.38Z"/><path class="cls-87" d="M90.55,484.34c2.28,3-14.4,5.66-5.3-1.46C84.4,484,90.66,481.33,90.55,484.34Z"/><path class="cls-86" d="M58.39,486.19c5.19,2.28-37.84,6.94-10.76.46C46.44,487.74,58.89,480.37,58.39,486.19Z"/><path class="cls-88" d="M594.36,160.29c-48.3,21.05,44.46,41-25.39,45.24-.63,6.72-5.35-13.64,58.91,45.88-22.5,17-56.92-76.1-73.72-25.29-10,4.94-2.17-9.08-4.3-28.56C461,242.71,609.82,137.24,594.36,160.29Z"/><path class="cls-89" d="M594.36,160.29c19.4-34.88,39.33,32.2,20.14,40.38C620.66,191.81,585.14,195.38,594.36,160.29Z"/><path class="cls-90" d="M588.37,111.29c8.9,20.39,44.68,5.83,50.69,18.7-10.25,39.33,25,32.68-53.24-10.81-44.55-41.93,53.46-24.16,3.81-20.8C585.31,99,581.41,100.55,588.37,111.29Z"/><path class="cls-53" d="M632.35,184.29c11.31,19.11,12.08-21.56,11.73-27.38C669,163.85,605.55,321.17,632.35,184.29Z"/><path class="cls-91" d="M634.34,223.28c-9.84,4.41,29.66-95.14,29.12-57C645.68,171.36,662.39,194.6,634.34,223.28Z"/><path class="cls-92" d="M588.37,111.29c-18.87-28,22-9.44,18.39,5.62C643.19,119,615.93,127.27,588.37,111.29Z"/><path class="cls-93" d="M629.31,241.68c1.89-6.86,24.82,31.71-2.56,25.81C627,265.11,619,265.06,629.31,241.68Z"/><path class="cls-94" d="M596.37,129.29c21.12,7.42-13.76,44-11.72,27.19C620.93,151.72,553.73,86.38,596.37,129.29Z"/><path class="cls-95" d="M611.38,108.32c-.69-1.09-8,4.32,4.28-14.15C624.44,95.79,632.89,98.52,611.38,108.32Z"/><path class="cls-53" d="M632.36,184.31c-.32-2.74,7.76-14.4,7.29-1.92C634.51,190,640.69,175.75,632.36,184.31Z"/><path class="cls-92" d="M620.38,96.31c1.37-4.1-24.17,6.1-15.14-1.94C603.83,94.3,623.25,87.55,620.38,96.31Z"/><path class="cls-17" d="M671.37,90.29c-.29,1.4-.8,2.38-4.06,5.06C665.4,94.4,663.79,88.36,671.37,90.29Z"/><path class="cls-96" d="M694.38,110.28c10.92,7.39,68.53,29.14,50.53,35.13-14.62-2.3-36-10.6-23.07-5.57,35.87,20,24.45,165.8-23.71,86.42,60,1.22,27.74-6.44-4.11-51.09C689.56,150.32,739.79,201.06,694.38,110.28Z"/><path class="cls-97" d="M705.35,163.31c-24.34,78.06-20.77-24.47-38.92,24.51C636.61,170.78,689.78,138.78,705.35,163.31Z"/><path class="cls-96" d="M693.36,102.28c-1.52-.69-2,.53,0,0C693.25,104.78,696,114.73,693.36,102.28Z"/><path class="cls-98" d="M757.28,126.34c5.61,24.81,15.62,94.55-10.61,104.65-8.78-25.11,7.21-38.32,14.17-44.71C729,132.91,727.54,175.45,757.28,126.34Z"/><path class="cls-23" d="M731.34,74.31c-3.43,1.63,8.27,10.33-1.73,4C730.06,78.06,730.74,76.84,731.34,74.31Z"/><path class="cls-58" d="M744.39,79.32c-.26,2.52-8.53-5.68-1.13-1.58C743.75,78.11,743.26,77.75,744.39,79.32Z"/><path class="cls-99" d="M763.38,209.34c4.17,5.47-20.23,26.8-10.37,4.62C758.49,221.9,756.27,198.14,763.38,209.34Z"/><path class="cls-100" d="M730.34,292.31c-.42,8.1-27.81,5.89,14.78-25.57C753.23,275.29,737.47,280.32,730.34,292.31Z"/><path class="cls-101" d="M730.34,292.31C730.16,279.51,758.05,267,745,284,740.39,271.59,735.39,306,730.34,292.31Z"/><path class="cls-102" d="M751.36,236.25c3-1.53-2.63,46.35-7.33,4.06C747.9,240,743.75,226.65,751.36,236.25Z"/><path class="cls-103" d="M750.26,259.34c5.56-1.86-3.46,21-7.81,1.22C743.69,258.45,742.36,261.5,750.26,259.34Z"/><path class="cls-104" d="M750.32,251.3c-.28-1.17-2.72-.43-2.27-5.54C748.47,246,757.44,245.58,750.32,251.3Z"/><path class="cls-105" d="M206.37,600.32c35.76,66.95-57.48-32.14-47.46-67.09C171.43,546.23,182.34,538,206.37,600.32Z"/><path class="cls-106" d="M174.49,576.28c24.55,40.05-21.19,47.88-11.15-13.82C166.75,560.64,171.46,590.62,174.49,576.28Z"/><path class="cls-107" d="M205.46,600.23c-7.1-2.56-21.49-64.43-10.94-34.24C191.24,578,249.36,654.33,205.46,600.23Z"/><path class="cls-108" d="M158.4,580.24c.14,1.13-33-64.58-17.19-43.68C151,522.46,177.43,632.53,158.4,580.24Z"/><path class="cls-69" d="M169.29,601.32c2.23-.53,3.17-4.12,4,3.67C173.15,609.25,174.76,613.67,169.29,601.32Z"/><path class="cls-68" d="M186.4,616.22h0C190.76,616.93,178.8,624.17,186.4,616.22Z"/><path class="cls-109" d="M248,619.45c2.51,1.22-53.64-81.46-29.35-89.59-8,25.45,3.4-16.31,24.48,42,7.47,25.71,14.82,2.9,35,10.13C262.71,602.35,260,585.83,248,619.45Z"/><path class="cls-110" d="M217.39,529.26c-11.48,36.41,61.22,144.68-1.35,30.15-23.78-41.06-20.82-10.72-37.43,1.21C142.15,532.27,190.21,510.28,217.39,529.26Z"/><path class="cls-111" d="M281.43,624.25c-14,4.33-49.31-23.5-5.83-26.42C278.41,594.38,287.09,609.66,281.43,624.25Z"/><path class="cls-112" d="M270.38,597.28c-33.32,8.15,12.38,21.58-12.84,25.65C233.27,618.9,264.62,577.73,270.38,597.28Z"/><path class="cls-113" d="M199.48,541.05c-28.58,6,11.56-14.75,21.78,25.58C224.16,581.87,224,567.34,199.48,541.05Z"/><path class="cls-114" d="M283.45,613.18c-4.6,3.63,7-20.43,18.76,6.85C295.2,627.71,292.06,617.25,283.45,613.18Z"/><path class="cls-115" d="M283.45,613.18c6.88,1.73,2.67,22-5.39,5.52C281,617.86,285,623.91,283.45,613.18Z"/><path class="cls-116" d="M288.4,622.78h-4.94C286.44,622.81,285.05,611.4,288.4,622.78Z"/><path class="cls-117" d="M580.34,427.23c-14.65-41.56-18,33.42-48.7,34.56-23.19-1.12-18.68-62.1-6.28-52.32,30.79,79,16.21-12.47,18.6-35.26C551.51,389.69,611.24,409.63,580.34,427.23Z"/><path class="cls-118" d="M560.44,521.32c-8.72,3.4-15.78-42.67-23.17,7.44-.41-16.9,3.29-37-3.15-10.53C503.36,471.13,554.2,444.89,560.44,521.32Z"/><path class="cls-119" d="M563.27,465.28c-6-15.37,33.83-50.34,25.17-9.72C585.46,456.57,563.4,506.4,563.27,465.28Z"/><path class="cls-120" d="M563.27,465.28c13.4,64.68-28.07,46.25-2.42-9.68A34.62,34.62,0,0,0,563.27,465.28Z"/><path class="cls-121" d="M516.33,444.32c35.91,25.31-22.14,37-4.29,14.12C491.16,468.43,497.14,450.77,516.33,444.32Z"/><path class="cls-122" d="M507.27,509.17c-4.06-15,1.56-27.26,12.84,18.43C517.41,528.75,509.2,529.41,507.27,509.17Z"/><path class="cls-121" d="M511.39,502.27c1.31,7.57-12.58-.1-2.26-27.06C505.34,491.13,522,469.7,511.39,502.27Z"/><path class="cls-123" d="M575.44,439.33c-8.55,10.78-6.69-.12,16.89-21C591.06,419.51,604.94,429.76,575.44,439.33Z"/><path class="cls-122" d="M518.38,512.24c-1.44-3.21-3.41-26.77,5.78-9C525.45,509.85,521.45,503.15,518.38,512.24Z"/><path class="cls-124" d="M507.27,509.17c4,1.14,7.94,57.61,3.62,27.1C510.05,530.6,507.65,522.13,507.27,509.17Z"/><path class="cls-125" d="M506.36,480.25c-.53,9.07-.89,23.5-6.1-10.09C502.26,468.31,503,462.27,506.36,480.25Z"/><path class="cls-37" d="M554.42,529.21c1.68-2.78-2.39,32.27-2.69,13.92C553.39,542.64,544.7,534.42,554.42,529.21Z"/><path class="cls-34" d="M538.37,596.23c-1.33-1.16-2,0,0,0C539.11,597.83,532.3,612.64,538.37,596.23Z"/><path class="cls-72" d="M517.39,588.26h0C516.45,582.19,524.63,576.34,517.39,588.26Z"/><path class="cls-73" d="M528.88,601.77c-1.47-2.3.16-3.48,1.11-5.49C532,599.17,530,600.35,528.88,601.77Z"/><path class="cls-117" d="M531.37,468.25c-1-.37,0,0-2.9-.88C527.16,467.09,531.94,462.66,531.37,468.25Z"/><path class="cls-34" d="M536.38,619.22c-1.47,3.87-10.17,10.63-3.36-6.87C535.26,614.39,533,612.36,536.38,619.22Z"/><path class="cls-126" d="M586.33,540.24c-1.87,50.5-6.63-20.76.19-50.21C588.18,488.78,593.29,487.31,586.33,540.24Z"/><path class="cls-37" d="M581.35,579.23a8,8,0,0,0-.92.08C580.06,577.67,584.23,559,581.35,579.23Z"/><path class="cls-127" d="M562.5,510.25c-3.86-9,9.35-35.47,11-18.82C592.34,407.8,569.86,596.82,562.5,510.25Z"/><path class="cls-128" d="M582.41,501.22c3.32-11.39-8.48-18.21,0-28C595.3,448.1,597.66,466.93,582.41,501.22Z"/><path class="cls-37" d="M555.4,557.25c-1.67,2.16,10-15.31,9-9.09C563.56,551.63,565.36,559.86,555.4,557.25Z"/><path class="cls-37" d="M577.37,593.23c-1.79,3.08-6.21-22-.49-6.55C577,586.66,576.92,588.86,577.37,593.23Z"/><path class="cls-37" d="M579.33,590.24c.74-3-2.38,22-2,3C578,592.25,577.37,593.23,579.33,590.24Z"/><path class="cls-37" d="M574.36,596.27l-2,0C572.55,594.7,571.92,582.15,574.36,596.27Z"/><path class="cls-37" d="M580.43,579.28c-.37,2.35.77,4.91-1,7.07C578.74,583.85,577.58,581.29,580.43,579.28Z"/><path class="cls-129" d="M664.19,380.18c-29.06,29.45-13.52,5.61,30.93-47C709.13,330.15,672.81,365.46,664.19,380.18Z"/><path class="cls-130" d="M723.32,297.3c13.72-18.71-9.29,44.38-13.13,29.13C712.37,319.8,703.87,328.68,723.32,297.3Z"/><path class="cls-130" d="M692.28,345.37c2.33,3.07,12.3-38.57,17.92-18.95C710.93,318.58,702.06,343.37,692.28,345.37Z"/><path class="cls-131" d="M191.19,308c42.31-34.7,28.67-14.72,47.07-11.21C202,295.86,153.18,395.93,191.19,308Z"/><path class="cls-81" d="M139.37,346.24c4.88-.87-2.37-15.32,51.82-38.28C192.63,308.16,189.42,314.67,139.37,346.24Z"/><path class="cls-132" d="M220.29,286.19c-.89,3.76.94,9.18-27.71,18.64C196.52,301.06,198.18,303.24,220.29,286.19Z"/><path class="cls-132" d="M227.56,280.39c8.91,1,30.74-18.81,41.82-10.71C272.72,266.54,203.17,297.22,227.56,280.39Z"/><path class="cls-133" d="M169.35,319.2c-6.09-.47-26.44,25.57-26,19C145.57,332,138.43,332.67,169.35,319.2Z"/><path class="cls-80" d="M148.38,328.18c-.63,3.07-2.89,5-4.92,7.09C143.43,331.74,142.61,327.68,148.38,328.18Z"/><path class="cls-134" d="M139.37,346.24c21.19-22.4,77.27-46.31,39.5-18.37-38.37,31.58,7.11-18.23-14,37,35.86,7.86-5.63,110.6-48.51,62.27-8.43-40.81,64.76-82.68-12.18-45C106.34,378.88,111.89,370.89,139.37,346.24Z"/><path class="cls-81" d="M137.49,347.43c-3,.22-20.26,30.28-21.16,12.79C121.05,359.5,120.62,355.91,137.49,347.43Z"/><path class="cls-135" d="M103.48,383.29c50.47-50.38,43.42,22.92,1.93,28.08C121.28,400.26,88.14,412.76,103.48,383.29Z"/><path class="cls-136" d="M100.42,386.26c-.36,8.81,12.31,19.5-7.47,17.71C90.64,412.36,74.1,399.78,100.42,386.26Z"/><path class="cls-48" d="M107.44,414.28c6.36-5,19.86,38.83,49.54,16.75-1.95-.24,7.44,18-80.52,47.27,48.57-48.25-14-12.59-.11-25.74C76.77,440.11,58.26,405.42,107.44,414.28Z"/><path class="cls-136" d="M107.44,414.28c.25-.24-31.88,9.53-9-3C95.89,412.44,121.69,393.17,107.44,414.28Z"/><path class="cls-137" d="M76.45,478.29c3.52-1.35,6.72,13.3-18,7C66.05,481,61.78,490.86,76.45,478.29Z"/><path class="cls-136" d="M79.31,409c-1.84,4.29-4,3.3-6.4,1.85Z"/><path class="cls-138" d="M34.42,485.22c-41.4.93-10.59-50-2.58-19.6C37.45,472.07,60,487,34.42,485.22Z"/><path class="cls-85" d="M24.45,483.27c4.05-4.19,6.27.05,9,2C30.09,486.22,27.66,483,24.45,483.27Z"/><path class="cls-139" d="M103.43,480.21c-9.33,3.68-42.55,8.55-12.05-2C90.85,479.07,112.23,468.46,103.43,480.21Z"/><path class="cls-140" d="M549.37,222.3c-2.83,13.81-45.08,15.18-4.86,13.23-7.45,71.32-65.7-3.32-19.45-25.33C528.68,213.76,500.79,231.83,549.37,222.3Z"/><path class="cls-141" d="M541.4,228.32c39-49.52,93.51,47.91,72.33,25.76C541.53,222.23,626,219.89,541.4,228.32Z"/><path class="cls-142" d="M549.37,222.3c-31.14,17.6-48.47-7.27,1.08-26.38C556.12,202,553,201.29,549.37,222.3Z"/><path class="cls-143" d="M554.45,181.37c-21.66,10.71-31.32,31.09-60.44,42.9C495.09,220.75,515.39,190.3,554.45,181.37Z"/><path class="cls-144" d="M581.64,161.09c7.12.89.09,13.24-15.92,4.35C569.33,162.3,567.21,161.28,581.64,161.09Z"/><path class="cls-145" d="M569.27,169.38c-2.46-3.49,19.94-2.74-6.72,9.1C561.8,176.08,562.7,174.25,569.27,169.38Z"/><path class="cls-146" d="M554.45,181.37c-9.15,7.73-39,.45,4.77-3.46C559.27,178.92,560.34,179.87,554.45,181.37Z"/><path class="cls-52" d="M575.6,187.27c1.77-1-14.86,3-11.07-3.59C566.83,183.54,568.73,182.82,575.6,187.27Z"/><path class="cls-52" d="M582.36,216.78c1-1.48-.08-1.85,0,0C580.58,217,569.51,215.88,582.36,216.78Z"/><path class="cls-145" d="M558.33,180.24c1-1.11.44-3,3.94-2.08C562.94,180.45,564.78,182.56,558.33,180.24Z"/><path class="cls-52" d="M584.49,191.83c1.87-.25,0,0,3.49,1.58C586.69,194.79,587.07,195.53,584.49,191.83Z"/><path class="cls-95" d="M577.41,92.92c.26-4.45,57,.93,27.85,1.45C599.92,95.67,607.39,92.7,577.41,92.92Z"/><path class="cls-52" d="M596.37,129.29c-5.31-1.86-6.74-7.26-10-11C590.18,121.52,596.86,122.12,596.37,129.29Z"/><path class="cls-52" d="M574.27,96.3c-1.36-2.7,7.36,14.88,5,15.06C576.4,109.53,573.73,107.88,574.27,96.3Z"/><path class="cls-147" d="M631.31,272.21c6.84,10.1,3.62-65,12.55-51,15.07,71.52,35.34,33.84,46,84.57,14.5,18.28-53.3,82.13-49.86,62.5,2.24,35.14.37,26.92-4.22,15.18-31.5,47.82-2.06-87.83,12.57-70.45,12.72,48.2,39.93,7.29,23.75-16.22C641.85,351.19,666.28,276.87,631.31,272.21Z"/><path class="cls-148" d="M685.39,299.22c-5-8.85-13.1-42.45-31-22.31-3.54-15.62-8.13-71.36-21.67-50.48,21.84-23.07,27.57-88.41,58.56,4.15-.88,44.93-28.06-45-26.35-24.31C662,313.26,681.93,208.24,685.39,299.22Z"/><path class="cls-149" d="M661.35,182.3c-2.06,10.09-10.73,18-8.94,2C653.72,182,654.75,164.05,661.35,182.3Z"/><path class="cls-148" d="M655.36,173.31c1.54-2.61-3.39,16.48-3.39,2.12C650.75,174.92,652.6,174.07,655.36,173.31Z"/><path class="cls-150" d="M614.45,103.42c2.15,7.69-25.18,4.83-18.75.6C592.66,100.53,595.47,95.64,614.45,103.42Z"/><path class="cls-151" d="M614.45,103.42c-.55,2.09-33.72-6,.23-5.74C615.5,98.39,621.81,101.68,614.45,103.42Z"/><path class="cls-150" d="M610.37,97.26c0-.62-.07-.92,0,0C611.88,101.26,590.19,98.11,610.37,97.26Z"/><path class="cls-147" d="M607.32,255.26c-2.83,0,11.87-13.53,21.74,18C624.68,257.6,593.66,270.89,607.32,255.26Z"/><path class="cls-144" d="M589.48,153.14c-.81,4.55-17.07,12.93-9.23-.77C581.9,154.34,580.48,145,589.48,153.14Z"/><path class="cls-152" d="M589.48,153.14c-10.55-2.14,10.11-14.76,5.29-4.82C595.47,151.35,595.59,153.52,589.48,153.14Z"/><path class="cls-153" d="M596.44,146.19c5-1.76,5.39-3.88,0,0C599.17,143.75,594.57,129.57,596.44,146.19Z"/><path class="cls-154" d="M700.3,188.33c20.2,17.14,34.23-8.2,27.17,48.13C706.18,216.78,696.19,244.7,700.3,188.33Z"/><path class="cls-148" d="M745.36,208.28c12.81,47.6-47.08,100.21-51.82,19C692.58,230.8,736.27,280.68,745.36,208.28Z"/><path class="cls-55" d="M745.36,208.28c-33,94,17.31-.91-20.33-66.9,32.76-2.39,35,14.35,12.36,8.83C736.45,154.24,755,172.87,745.36,208.28Z"/><path class="cls-155" d="M713.33,246.28c10.38,10.62-38.83-5.06-34.54-52.7,23.8,40.41,7.88-17.19,18.29-4.67C716.62,200.8,680.84,219.93,713.33,246.28Z"/><path class="cls-55" d="M723.35,141.3c-7-2.62-19.59-6.05,4.09-4C725.94,139.74,727.43,137.31,723.35,141.3Z"/><path class="cls-148" d="M705.31,238.24c-1.8-.09-8.68-5.09-4-7.92C701.85,232,702.53,233.31,705.31,238.24Z"/><path class="cls-156" d="M679.46,193.39c4.9,21.74-17.66-22.21-7-23.44C679.87,166.08,694.79,204.47,679.46,193.39Z"/><path class="cls-156" d="M693.39,194.35h0C696.19,221.66,679.84,210.42,693.39,194.35Z"/><path class="cls-148" d="M688.39,194.28c5.84.53-4.5,18.69-7,7.33C683.81,196,675.64,195.22,688.39,194.28Z"/><path class="cls-148" d="M661.35,182.3c1.6,1.13,1.72-.38,0,0C658.46,180.51,660.28,172.36,661.35,182.3Z"/><path class="cls-156" d="M670.35,177.29c-.43,1.75-.64,3.59-2,5C666.72,179.69,666.32,177.61,670.35,177.29Z"/><path class="cls-99" d="M736.32,254.31c.72-2.73,14.2-29.8,10.25-18.82C754.11,264.92,693.83,334.39,736.32,254.31Z"/><path class="cls-148" d="M747.37,198.33c-13.4-27.84,12.52,0,1.93-19.07C724.7,143.7,787.3,184,747.37,198.33Z"/><path class="cls-148" d="M745.33,207.3c1-3.15,2-3.65,0,0C740.88,205.64,748,193.49,745.33,207.3Z"/><path class="cls-99" d="M751.36,236.25c-3.26.83,1.09-17.58,3-5.67C754,230.67,753,232.53,751.36,236.25Z"/><path class="cls-66" d="M751.38,236.23c-1.29-.16,16.17-42.94,11.2-16C758.3,225.77,757.13,230.65,751.38,236.23Z"/><path class="cls-157" d="M736.32,254.31c-50,149.2-53.17-14.62-47.5-18.64C724.53,264.17,694.11,290.42,736.32,254.31Z"/><path class="cls-99" d="M700.35,323.27c14-54.67,26.23-24.48,14-7.26C706.73,324.28,678.94,347.66,700.35,323.27Z"/><path class="cls-158" d="M166.42,528.26c-10.08-.72-10.24,62.08-10.76,23.89C107,508,179.57,521.12,166.42,528.26Z"/><path class="cls-68" d="M187.43,602.24c-12-8.64-9-2.83-13-23C181,569.05,187.38,585.69,187.43,602.24Z"/><path class="cls-68" d="M174.49,576.28c-.16,15.33-7.34,11,0-7.35C176.53,570,179.8,571.62,174.49,576.28Z"/><path class="cls-68" d="M205.45,600.19h0C203.64,601.91,197.88,596.05,205.45,600.19Z"/><path class="cls-159" d="M141.36,523.18l-3,6C136,527.15,137.62,529.08,141.36,523.18Z"/><path class="cls-160" d="M272.35,576.34c-8.32,34.6-58.84-24-33.22-34.55C253.62,539.39,257.61,554.24,272.35,576.34Z"/><path class="cls-161" d="M217.39,529.26c-36-2.94,25.77-32.17,9.64-.78,7.66.5,16.86-15.77,23.8-15.6,4.57,13,4.82,23.54,21.92.45C271.87,531.32,254.8,560.29,217.39,529.26Z"/><path class="cls-115" d="M298.44,598.21c30.05,22.17-17.91,20-19.61,4C274.62,595.77,255.49,571.68,298.44,598.21Z"/><path class="cls-162" d="M298.44,598.21c-17.3.78-15.12-3.56-26.08-21.88C252.49,545.58,272.83,581.37,298.44,598.21Z"/><path class="cls-110" d="M218.37,530.23c5.26,9.58,14,3.87,21.07,12.07C234.57,541.63,203.94,547.65,218.37,530.23Z"/><path class="cls-163" d="M223.41,511.25c-39.26,11-19.91,2.34-6.14-8.11,21.23-11.28-33.49-21.37-19.68-20.11,9.82,3,22.21-135.23,36.52-112.5,23.61,60.38,14.49,11.45-6.28,59.22-2.87,41.31,26.62,87.42,28.25,63.14,24.94-63.15,2.06,22.7,42.3-30.31C312.18,533.11,220.74,535.88,223.41,511.25Z"/><path class="cls-161" d="M191.4,515.22c14.78-3.27,37.84,5.78-25,13C175,524.46,169.66,518.11,191.4,515.22Z"/><path class="cls-164" d="M177.05,539.55c-3.06,8.3-2.7-11.61,8.88-1.85C187.25,543.58,184.72,558.25,177.05,539.55Z"/><path class="cls-115" d="M257.41,603.21c5.35-1.21,8-1.18,0,0C256.63,602.06,268.28,595.64,257.41,603.21Z"/><path class="cls-165" d="M271.39,520.25c35-53.55,5.85,2.73,25.6-7.49C353.28,463.47,207.79,618.15,271.39,520.25Z"/><path class="cls-166" d="M280.31,540.17c-10.35,2.48-.87-12.78,25.11-20.86C297.93,525.32,293.56,528.86,280.31,540.17Z"/><path class="cls-167" d="M545.36,411.25c-.38-7.81-1.13,52.73-32.8-42.74-.38-12.84,19.66,8.78,13.4-24.56-8.4-7.17-30.44-46.39-5-52.75,1.62,4.93-18.33,12.82,12.57,51.25-1.39-3-3.48-45.4,6.47-11.88C551.43,351.9,531.73,365.26,545.36,411.25Z"/><path class="cls-168" d="M592.36,417.26c-69.67-30,.88-149.56-8.81-39.23C580.17,381.86,620.8,393.31,592.36,417.26Z"/><path class="cls-169" d="M563.35,338.28c25,146.63-65.94-35.67,4.39-26.34C584.87,308.62,557,324,563.35,338.28Z"/><path class="cls-170" d="M544.43,314.29c-5,11.13,4.26-33.59.93,97C542.3,426.11,530.81,278.43,544.43,314.29Z"/><path class="cls-171" d="M510.33,443.18c-1.46-11.88-19.85-37.69-6.6-57.53C505,372.82,528.58,424.53,510.33,443.18Z"/><path class="cls-172" d="M528.22,413.25c10.66,22.41,29-18.87,24.52,6.09C542.13,432.14,539,478.58,528.22,413.25Z"/><path class="cls-173" d="M516.35,426.28c4.2-9.93-13.41-25.18-2-40.24C513.22,388.74,532.94,387.6,516.35,426.28Z"/><path class="cls-174" d="M592.36,417.26c7-12.52,3.06,71.5-17,50.57C608.55,434.5,569.76,457.68,592.36,417.26Z"/><path class="cls-171" d="M524.34,404.29c1.58-2-25.75-38.54-3.22-16.79C526.09,384.44,532.39,426.15,524.34,404.29Z"/><path class="cls-175" d="M510.33,443.18h0C507.81,442.88,520.81,435.34,510.33,443.18Z"/><path class="cls-175" d="M514.39,438.27c-.36-1.29,0,0-2.35-2.35C512.19,435.08,521.63,430.49,514.39,438.27Z"/><path class="cls-173" d="M525.38,411.27h0C524.5,410,531.13,405.22,525.38,411.27Z"/><path class="cls-40" d="M531,503.35c-2-13.29-1.26-20.41,1.64-21.46C534,489.15,530.53,496.05,531,503.35Z"/><path class="cls-40" d="M567.52,481.32c16.25,19.92,3.64,3-3.51,7.49C565.43,476.9,562.3,462.65,567.52,481.32Z"/><path class="cls-175" d="M498.41,396.23c2.59-2.15,16.61,54.24,8.43,44.62C503.25,462.18,481.52,362,498.41,396.23Z"/><path class="cls-176" d="M499.39,426.27c4.63,1.33,14.28,33.61-10.49,37.94C487.87,469.56,495.22,409.51,499.39,426.27Z"/><path class="cls-176" d="M504.36,470.27c2.7-.21-8-10.8,5.1-18.7C506,463.92,526.42,449.77,504.36,470.27Z"/><path class="cls-177" d="M492.31,466.09c1.78-7.08,25.87,5.78-6.22,3.73C486.45,467.71,486.71,465.85,492.31,466.09Z"/><path class="cls-125" d="M502.3,464.34c1.86-2.4-12.22,4.38-5.85-2.27C499.88,460,500.34,453.49,502.3,464.34Z"/><path class="cls-178" d="M370.37,484.25c-5.77,15.85-31.63-23.27,1.49-28.48C388.2,482.13,425.15,454.16,370.37,484.25Z"/><path class="cls-177" d="M453.35,474.21c-45,.84,12.12-19.8,32.92-4.2C481.7,473.63,490.4,465.21,453.35,474.21Z"/><path class="cls-179" d="M370.37,484.25c-13.9-4.36,46-23.54,33-7.13C397.89,477.49,383.24,475,370.37,484.25Z"/><path class="cls-14" d="M433.38,470.26c5-.17,28.33,9.56,7.84,5C441.37,475.26,428.88,475.57,433.38,470.26Z"/><path class="cls-180" d="M394.32,476.19c-5.23-3.67,27.46-4.23,9.9,2.6C403.16,477.81,402.07,478,394.32,476.19Z"/><path class="cls-181" d="M432.54,472.41c2.58,3.8-25.47,8.48-8.1.22C424.5,472.91,427.22,472.41,432.54,472.41Z"/><path class="cls-14" d="M453.35,474.21c3.65,1.45,5,4.46,0,0C454.7,470.57,469,470.56,453.35,474.21Z"/><path class="cls-182" d="M417.37,477.37c-3.24,2.58-10.83-9.47-2.36-6.29C417.12,472.58,419.53,472.35,417.37,477.37Z"/><path class="cls-179" d="M412.47,469.43c1.86-1-5.16,13.69-5,.88C408.17,469.79,408.51,467.48,412.47,469.43Z"/><path class="cls-127" d="M582.39,473.22c.6-.09,11.69-17.94,5.41-4.4C587.13,467.4,588.66,476.07,582.39,473.22Z"/><path class="cls-123" d="M590.14,463.23c-5.53,5.81,2.66-15.64,1.29-7.88C591.3,457.1,591.87,455.32,590.14,463.23Z"/><path class="cls-183" d="M644.35,400.26c1.4,1.35-19,10.5,1-5C647.43,396.36,646.82,395.2,644.35,400.26Z"/><path class="cls-184" d="M691.43,332.34c.1-1.36,5.31,16.79-41.78,52.25C656.64,363.81,660.12,351.61,691.43,332.34Z"/><path class="cls-185" d="M645.31,395.26c2.19,8.05-52.9,25.44-54.15,56.92C589.41,421.42,625.79,401.26,645.31,395.26Z"/><path class="cls-184" d="M646.45,393.33c-3,3-3.56-23.94,4.48-12.15C647,383.49,654.76,383,646.45,393.33Z"/><path class="cls-185" d="M649.29,391.12c.19,1.36.83-10.32,1.11-6.91C647.57,385.78,656.65,385,649.29,391.12Z"/><path class="cls-186" d="M180.54,347.38c-4.7-10.8,54.41-68.69,64.76-44.16-23.12,4.66-2,9.42-32.24,23.95C298.11,323.43,171.52,380.06,180.54,347.38Z"/><path class="cls-187" d="M225.43,284.32c51.6-16.27,96.32,57.35,55.19,27.19C257.5,268.73,231.68,314.86,225.43,284.32Z"/><path class="cls-188" d="M180.54,347.38c-43.6,37.44,7.44-22.28-15.21-7.88C147.53,349.21,178.9,317.88,180.54,347.38Z"/><path class="cls-189" d="M238.41,298.3c-1.29,8.06.79-4.12-25,9C213.25,300.45,231.06,295.8,238.41,298.3Z"/><path class="cls-190" d="M238.39,298.3c-3.79-6.61,23.71-12.53,9.59-2.81A58.08,58.08,0,0,0,238.39,298.3Z"/><path class="cls-191" d="M296.45,318.24c-10.14-23.39-29.08-34.09-61.26-35.49,43-27.78,29.59-1.28,72.56,28.17C319.7,306.28,283.52,421.13,296.45,318.24Z"/><path class="cls-192" d="M275.41,268.31c-9.35,4.38-5.24-9.49,27.88-5.63C298.62,264.82,286.94,270.61,275.41,268.31Z"/><path class="cls-193" d="M303.44,261.25c-6.06-.12-21.51,6.09-34.17,5.84C272.69,266.43,275.59,258.72,303.44,261.25Z"/><path class="cls-187" d="M246.49,276.51c-1.58,4.16-5,2.92-8.07,2.76Z"/><path class="cls-194" d="M189.37,358.23c36.17,4,.21-23.72,40-8.37C171.82,449.17,171.61,381.25,189.37,358.23Z"/><path class="cls-195" d="M203.35,468.2c-17.35-24.75,1.48-46.28-33-44C183.19,398.12,202.36,418.91,203.35,468.2Z"/><path class="cls-196" d="M179.36,399.25c2,4.81-25.9,44.84-7.85-.1C165.75,412,168.9,367.77,179.36,399.25Z"/><path class="cls-131" d="M189.37,358.23c-7.26,15.37-30.39,5.62-9.83-9.9C169.25,364.09,206.54,341.27,189.37,358.23Z"/><path class="cls-188" d="M171.34,356.27c10.13-1-8.31,17.58,8.54,3.59C183.35,369.22,146.78,384.92,171.34,356.27Z"/><path class="cls-197" d="M180.4,370.25c-3.64,2.9,7.66,6.71-.27,28.8C183.53,391,170.41,395.27,180.4,370.25Z"/><path class="cls-50" d="M170.3,424.16c-2.1.42,5.66,8-22,18C150.53,439.77,147.09,437.79,170.3,424.16Z"/><path class="cls-198" d="M175.52,410.27c-2.36-.89,9.35-14.57,6.89-6C180.18,404.08,185.45,418.07,175.52,410.27Z"/><path class="cls-198" d="M175.39,419.24c.06-2.16-4.74,8.53-4.69.11C171.32,420.82,174,416.74,175.39,419.24Z"/><path class="cls-50" d="M175.39,419.24c3.91-1.4,4.09-3.94,0,0C171.86,419.1,180.77,407.34,175.39,419.24Z"/><path class="cls-199" d="M111.33,469.16c3.29-.75-2.45-9.46,37.26-26.72C146.93,447.81,149.22,449.56,111.33,469.16Z"/><path class="cls-83" d="M92.41,474.24c-8,2.48,16.48-28.88,8.32-10.45C98.64,464.72,101.75,466.21,92.41,474.24Z"/><path class="cls-137" d="M105.31,474.14c-2,3.24-17.38,7.64-12-.2C94.76,480.24,114.91,459.34,105.31,474.14Z"/><path class="cls-137" d="M91.36,478.2c-1.86,2.74-9.84,5.46-11.93,4.06C82.8,479.13,86.45,476.81,91.36,478.2Z"/><path class="cls-139" d="M105.31,474.14c-2.49-3.91,13.68-10.2,5.25-1.27C110.41,472.36,107,479.84,105.31,474.14Z"/><path class="cls-83" d="M97.41,457.57c-.74-.35-.76-.32,0,0C97.94,459.12,87.32,467.3,97.41,457.57Z"/><path class="cls-159" d="M145.32,519.11c-6,6.85-9.5-4.75,12.71-17.79C160,502.28,162.2,505.05,145.32,519.11Z"/><path class="cls-159" d="M157.31,501.14c1.88-1.33,32-29.16,23.9-11.3C176.75,490.49,176.42,499.4,157.31,501.14Z"/><path class="cls-200" d="M182.46,483.28c7.76-8.89,13.32-21.19,22.78-4.23C203.9,483.64,201.53,475.64,182.46,483.28Z"/><path class="cls-201" d="M107.42,476.25c1.11-4.56,4.35-8.11,49.94-37.06C147.62,454.23,123.26,468.22,107.42,476.25Z"/><path class="cls-202" d="M158.36,437.21c-.59-4,18.12-13.46,6,3C163,438,164.41,440.25,158.36,437.21Z"/><path class="cls-201" d="M105.49,474.35c-2.64,3.46-2.06,5.86,0,0C106.38,473.18,109.53,480.79,105.49,474.35Z"/><path class="cls-88" d="M519.35,209.32c-35.05,31.41,39.88,81.92-8.16,64.52C500.75,232.9,498,228.46,486.56,250,471.85,260.35,443.52,263.59,519.35,209.32Z"/><path class="cls-88" d="M541.4,228.32c75.92,12.74-56.42,49.37,11.08,7.42C535.1,237.46,513.61,239.49,541.4,228.32Z"/><path class="cls-203" d="M534.37,262.78c12,18.91-38.88,45.41-28.74,4.57C529.56,272,506.27,296.79,534.37,262.78Z"/><path class="cls-204" d="M539.4,261.31c37.42-29.45,21.39-74.11,60.66-8.19C550.85,252.73,526.94,339.14,539.4,261.31Z"/><path class="cls-205" d="M503.37,207.3c-6.48,2.52,44.21-33.05-2.68,11C489.64,228.65,484.25,223.38,503.37,207.3Z"/><path class="cls-206" d="M532.42,190.34c-15.37-12.36,58.07-28.72,16.37-9.54C542.07,181.14,539.31,183.4,532.42,190.34Z"/><path class="cls-207" d="M519.35,209.32c-.34-4.23-19.35,23.47-25,14.94C501.65,225.3,505.91,207.09,519.35,209.32Z"/><path class="cls-206" d="M523.54,194.47c-1,0-7,2.26-2-2.8C524.22,188.13,535.26,190.27,523.54,194.47Z"/><path class="cls-205" d="M533.3,190.19h0C530.57,190.15,541.41,181.51,533.3,190.19Z"/><path class="cls-208" d="M595.39,145.18c-13.19,4.46-3.84,6.9-24.16,17.27C577.34,163.43,568.8,137.25,595.39,145.18Z"/><path class="cls-208" d="M563.39,169.32c-10.76,12.2-12.56-15.75,7-7C562.47,162.53,576,171.79,563.39,169.32Z"/><path class="cls-209" d="M563.39,169.32c-4.13,1.22-3.5,2.69,0,0C575.7,162.54,555.46,190.2,563.39,169.32Z"/><path class="cls-210" d="M592.34,255.27c70.16,6.21,69.18,79.44,47.54,29.84C588.51,266,627.65,331.8,592.34,255.27Z"/><path class="cls-164" d="M650.37,310.29c7.67,18.91,17-25.49,23.24-14.9C694.08,332.38,640.66,374.85,650.37,310.29Z"/><path class="cls-123" d="M629.36,403.27c-1.55.59-41.53,37-33,15,7.8,1.08-2.31-.73,42.41-42C645.05,393.14,628.64,400.12,629.36,403.27Z"/><path class="cls-211" d="M691.43,332.34c-6,1.71-1.53-14.44-7-67.11C679,273.62,716.78,293.51,691.43,332.34Z"/><path class="cls-164" d="M631.37,340.3c8.47-2.71-14.1,85.05-23.89,48C623,381.77,611.33,349,631.37,340.3Z"/><path class="cls-212" d="M631.4,293.23c1-16.52,17.5-23.55,15.94,17C634.64,290.27,634.85,354.49,631.4,293.23Z"/><path class="cls-123" d="M650.39,384.22c-7.88-1-11.43,27.79-9.15-18.41,8.61,24.69-10.67,1.15,21.09-7.56C657.65,375.85,659.08,357.43,650.39,384.22Z"/><path class="cls-164" d="M650.38,347.9c5.9,2.55-19.84,20.66-6.78-17.84C647.87,333.19,647.18,337.39,650.38,347.9Z"/><path class="cls-213" d="M632.38,309.24c11.19,18.23.37,26.26-4.26,25C625.22,330.62,620.82,333.32,632.38,309.24Z"/><path class="cls-213" d="M638.22,321.32c-6.77-13.44,8.47-31.22,4.67-5.64C637.8,298.18,643.71,318.94,638.22,321.32Z"/><path class="cls-214" d="M625.41,330.34c-1.2,5.53,1,8,0,0C630.18,322.75,636.85,349.19,625.41,330.34Z"/><path class="cls-164" d="M635.6,344.5c-3.66-2.76-.76-5.11-.41-7.67C636.61,339.4,634.14,341.91,635.6,344.5Z"/><path class="cls-211" d="M683.39,294.31h0C683.51,292.41,684.56,282,683.39,294.31Z"/><path class="cls-164" d="M639.33,365.29c0,1,0,0,0,3C637.94,371.24,635.93,354.86,639.33,365.29Z"/><path class="cls-215" d="M668.43,231.3c5.42-13.67-19.56-5.69-2.71-39.28C671.93,187.71,681.64,269.49,668.43,231.3Z"/><path class="cls-216" d="M671.52,242.32c6.55-8.78,12.07-23.48,9.41,22.42C673.08,261.73,668.91,259.29,671.52,242.32Z"/><path class="cls-217" d="M671.46,250.27c-.36,39.8-20.58-37.37-1.09-12C671.45,238.36,669.14,271.36,671.46,250.27Z"/><path class="cls-211" d="M683.42,281.19c-.14,2.94.55,7.93-3.23-3.3C681.46,273.93,683.34,263.89,683.42,281.19Z"/><path class="cls-216" d="M683.42,281.19c.61.1.93.09,0,0C682.17,276.62,683.55,255.49,683.42,281.19Z"/><path class="cls-91" d="M651.3,207.53c.24-3.39.81-6.74,3.66-9.55C656.45,202.4,652.17,204.3,651.3,207.53Z"/><path class="cls-211" d="M681.31,260.31c-1.06,1.58-1-11,3-3C680,255.5,685.79,258.81,681.31,260.31Z"/><path class="cls-211" d="M678.72,279.12c-2.33-3.44-3.35-5.49,0-7.05C678,274,679,276,678.72,279.12Z"/><path class="cls-147" d="M654.37,263.3h0C654.06,261.82,657.52,253.89,654.37,263.3Z"/><path class="cls-97" d="M703.42,207.22c-1.39,10.35-7.35-20.36-2.39-9.85C701.83,199.62,702,199.28,703.42,207.22Z"/><path class="cls-148" d="M679.72,193.66h0C676.81,195.16,682.6,182.36,679.72,193.66Z"/><path class="cls-184" d="M692.34,332.3c-1.09-2,8.95-21.16,8-9C696.23,324.43,702.23,324.9,692.34,332.3Z"/><path class="cls-211" d="M684.33,257.31c3.24-12,8.63,19.71,1.86,6.06C686.78,263.08,686,261.17,684.33,257.31Z"/><path class="cls-211" d="M682.32,253.31l-.93-6.95C682.74,248.53,686.52,250.38,682.32,253.31Z"/><path class="cls-218" d="M145.32,519.11c12.19-12.62,43.34-49.26,63-25.3C208.53,494.2,180.75,509.92,145.32,519.11Z"/><path class="cls-219" d="M168.43,512.27c-15-2.29,71.56-25.47,32.27-5.67C204.53,509.61,128,537.93,168.43,512.27Z"/><path class="cls-220" d="M168.43,512.27c-3.77.74-8.34,10.62-16.51,9.57C150.87,518.5,152,515.43,168.43,512.27Z"/><path class="cls-220" d="M171.43,523.26c-2.91-2,14.46-11.68,5.17-3.28C176.23,519.24,176,525.39,171.43,523.26Z"/><path class="cls-220" d="M157.39,522.28c3.84-3.67,8.28,6-1,2C156.78,523.62,156.41,524.24,157.39,522.28Z"/><path class="cls-220" d="M156.41,524.24h0C156,525.93,142,527.31,156.41,524.24Z"/><path class="cls-221" d="M255.29,544.31c10.86,8.66-29.23-4.55-8.25-3.81C250.15,540.71,252.3,537.54,255.29,544.31Z"/><path class="cls-221" d="M256.31,550.34c1.84,3.1,4.63,5.79,4.16,9.87A13.43,13.43,0,0,1,256.31,550.34Z"/><path class="cls-109" d="M267.45,571.18a15.52,15.52,0,0,1,4.85,5.12C269.94,575.3,267.16,574.69,267.45,571.18Z"/><path class="cls-222" d="M296.45,318.24c-3.7,41.08-46.89,55.51-64.55,79.55C246.64,383.57,226.25,287.19,296.45,318.24Z"/><path class="cls-223" d="M265.4,469.25c-15.19,71.23-26.12,2.21-42.87-21.08-9.35-42.15,67.09-34.39,55.67-37.59-54.12,63.48-20,34.22-17.47,50.26C258.82,471.85,238.59,488.77,265.4,469.25Z"/><path class="cls-224" d="M182.4,411.26c70.25-114.21,41.82-19.51,21,56.94C203.42,464.3,200.52,426,182.4,411.26Z"/><path class="cls-225" d="M267.41,416.23c4.12-17.13-27.81,20.34-36.3,1.33,3.58-11.85,38.24-14.48,5.8-23.56C248.79,373.3,314.28,385.38,267.41,416.23Z"/><path class="cls-226" d="M313.34,500.21c.24-11.46-40.55,52.81-9.84-45.21C314.12,438.41,333.59,445.27,313.34,500.21Z"/><path class="cls-227" d="M265.39,465.25c-6.89-14.69,12.7,10,13.64-28.28C300.91,448,285.89,517.87,265.39,465.25Z"/><path class="cls-220" d="M181.41,516.16c24.44-18.46,28.5-13.88,13.84-11.75C187,475.23,279.67,495,181.41,516.16Z"/><path class="cls-228" d="M230.4,363.27c1.11-10.08-7.32-21.87,10-30C238.81,333,262.15,348.41,230.4,363.27Z"/><path class="cls-229" d="M293.37,462.24c-9.27,8.58-13.33,8.86-9.39-33.45C294.76,427.53,295.53,438.44,293.37,462.24Z"/><path class="cls-230" d="M293.36,460.27c20.12-84.38,26.81,14.52,4.45-15C298.2,450.79,299.79,458.77,293.36,460.27Z"/><path class="cls-220" d="M196.37,484.22c-23.16,9.07-54.16,34.57-7.5-4.42C209.74,478.57,185,479.55,196.37,484.22Z"/><path class="cls-220" d="M201.29,481.11c-6.24-2.93,8-17.92,12.59-4C214.16,476.74,213.57,487.81,201.29,481.11Z"/><path class="cls-161" d="M210.42,507.22c2.26,4.59,3.38,4.43,0,0C209.38,508.23,227,503,210.42,507.22Z"/><path class="cls-165" d="M292.44,502.24c-.56,5.28-1.05,7.93,0,0C294.39,508.05,299.23,509.64,292.44,502.24Z"/><path class="cls-223" d="M215.21,454.09c1.61,5.26-1.78,6.42-5.39,7.61C210.05,458,213,456.5,215.21,454.09Z"/><path class="cls-165" d="M294.47,490.22c1.16,2.67,0,0-1.62,6.84C291.11,498.85,291,499.23,294.47,490.22Z"/><path class="cls-161" d="M223.41,511.25c-2.55-1,4.2-7.21,1.61-1.15C224.55,510.55,225,510.11,223.41,511.25Z"/><path class="cls-231" d="M304.5,514.21c1.15-9.54,14-9.27,24.73-37.71C348.38,480.47,361.68,514.09,304.5,514.21Z"/><path class="cls-232" d="M304.5,514.21c20.66,10.36,53.57-34.35,52.67-23.4C375.32,470,355.53,527.42,304.5,514.21Z"/><path class="cls-233" d="M326.32,488.15c4.2,2.56-22.32,25.33-13,12.07C314.56,501.45,310.62,484.66,326.32,488.15Z"/><path class="cls-234" d="M310.42,516.83c1.56-2.14,23.61-.42,7.1,3.14C318.42,519,312.37,520.57,310.42,516.83Z"/><path class="cls-235" d="M515.34,331.32c5.39,56.58-22.93-34.61-21.11,48.95C471.37,367.79,494.85,274.64,515.34,331.32Z"/><path class="cls-236" d="M532.38,325.28c18,63.54-47-44.15-.21-30.37C536.22,300.46,534.94,304.66,532.38,325.28Z"/><path class="cls-237" d="M521.37,290.79c-19.19,32.44-26.83-40.1-29-43.09,28.41,23.1,9,70.71,49.47,13.7C546.08,264.57,536.32,292.45,521.37,290.79Z"/><path class="cls-237" d="M503.37,342.28c13.1,21.09,9.83-1.41,13.35-6.68C538.53,324,500.08,451.61,503.37,342.28Z"/><path class="cls-203" d="M521.37,290.32c21.32-11.56,28.11,26.67,8.9,28.16C535.85,304.27,536.6,301.79,521.37,290.32Z"/><path class="cls-237" d="M515.34,331.32c-7.47-6.08,1.72-3.44-13.75-19.66C508.62,301.86,516,313.86,515.34,331.32Z"/><path class="cls-171" d="M513.38,368.28c-11.33-15.82,12.58-14,10.62-3.15C516.77,374.23,522.7,353.2,513.38,368.28Z"/><path class="cls-171" d="M527.36,343.28c-.31-.8-14.36-9-4.06-7.38C523.8,337.44,523.3,337,527.36,343.28Z"/><path class="cls-237" d="M512.39,302.3h0C515.54,305.66,500.92,306.71,512.39,302.3Z"/><path class="cls-164" d="M600.33,393.23C587,358,581.5,428.43,583.22,354.29,570.2,352.16,654.25,323.16,600.33,393.23Z"/><path class="cls-147" d="M602.35,391.27c20.44,4.17,13.18,17.57-6,27C607.53,408.18,590.56,405,602.35,391.27Z"/><path class="cls-238" d="M586.35,344.28C563.83,331.92,599,322.19,603.67,353,585.3,335.3,593.12,367.54,586.35,344.28Z"/><path class="cls-169" d="M569.25,383.51c-6.85-12,13.49-24.68,3.24,4.82C569.84,388.44,570,389.57,569.25,383.51Z"/><path class="cls-238" d="M563.35,338.28c-5.62-2.87,9.12-33.52,9-4C568.72,342.82,569.48,319.42,563.35,338.28Z"/><path class="cls-239" d="M572.36,334.33c-1.48-6.43,8.61-11.64,3,2C573.15,337.62,575.11,338,572.36,334.33Z"/><path class="cls-240" d="M577.33,330.25c-24.82,13.51,16-56.27,51.74-45.74C607.71,339,644.06,342.74,577.33,330.25Z"/><path class="cls-210" d="M540.36,307.28c9.3-55.86,60-61.5,44.71-43.89C569.75,271.67,619.08,299.25,540.36,307.28Z"/><path class="cls-241" d="M585.36,272.81c-9.94,10.15-2.57-33.56,14.91-5.39,22.43,38.2-4.32,15.44-11.88,35.79.78,9.34-51.83,20.32-31.95,3.26C574.85,281,583.29,312,585.36,272.81Z"/><path class="cls-241" d="M569.34,320.26c-3.45,7.12-12.07,25.51-5.65-1.43C567.31,323.7,566.54,317.11,569.34,320.26Z"/><path class="cls-117" d="M556.26,362.25c-.09.39-1,11.76-5.33,10.88A55.52,55.52,0,0,1,556.26,362.25Z"/><path class="cls-241" d="M547.35,312.28c-2.41.38,9.85-8.39,5-2A19.09,19.09,0,0,1,547.35,312.28Z"/><path class="cls-241" d="M571.35,314.21c1.32-1.65,0,0,4.82-.8C576.1,312.57,571.11,323,571.35,314.21Z"/><path class="cls-242" d="M507.36,376.27c-5.17,36.54-17.08-9.67-13-31C503.34,345.84,502.9,360.16,507.36,376.27Z"/><path class="cls-123" d="M595.3,431.25l-3,9.92C592.44,437.6,592,433.85,595.3,431.25Z"/><path class="cls-171" d="M493.44,363.24c12.7,4.89,9.67,58.07-8.59,4.66C488.73,363.69,498.65,392,493.44,363.24Z"/><path class="cls-243" d="M490.32,379.3c.81-3.25,9,37-5.89,24C487.41,401.56,476.07,387.36,490.32,379.3Z"/><path class="cls-244" d="M489.4,405.3c2.42-4.82,13.19,6.51,2.29,22C488.66,421.19,489.76,423.09,489.4,405.3Z"/><path class="cls-244" d="M499.39,426.27c-4.93,3-.56-28.14-.78-7.2C501.42,418.32,500.22,416.24,499.39,426.27Z"/><path class="cls-125" d="M490.33,418.3c17.18,83.69-48.68,35.44-1.12,22.82C488,440.46,480.42,432.57,490.33,418.3Z"/><path class="cls-244" d="M492.47,442.31c1.7-6.75-.66-13.35,7.74-13.45C500.28,431.2,502.55,442.06,492.47,442.31Z"/><path class="cls-245" d="M494.38,427.26c-4.67,18.63-8.58-10.38-2.55-.61C491.68,428.07,494.88,416.35,494.38,427.26Z"/><path class="cls-244" d="M490.44,451.32c2.72,2.4,4-.57,0,0C491.26,450.14,493.07,438.33,490.44,451.32Z"/><path class="cls-246" d="M324.46,517.29c-9.76.59,20.15-10.43,18.93-4C340.46,516.8,345.14,513.35,324.46,517.29Z"/><path class="cls-247" d="M356.36,499.2c-1.11-2.6,20.6-27.76,8-6.33C363.92,490.08,362.65,504.44,356.36,499.2Z"/><path class="cls-248" d="M356.36,499.2c7.62.32-11.47,14.32-13,11.07C347.05,508.21,339.76,509.32,356.36,499.2Z"/><path class="cls-249" d="M409.34,469.16c-54.56,4-65.11-67.79-6.84-10.78C459.39,392.3,465.41,445,409.34,469.16Z"/><path class="cls-250" d="M384.39,439.28c-26.64-21.67-1.6,64.36-48.91-5.4C346.37,437.29,462.73,370.69,384.39,439.28Z"/><path class="cls-251" d="M358.53,458.35c3.91,71.32-30.25-31.83-2.14,11.63C355.68,468.83,352.21,458.37,358.53,458.35Z"/><path class="cls-245" d="M484.37,431.27c3,7.31,9.08,10.66-4,9.55C462.89,507.93,432.93,422.62,484.37,431.27Z"/><path class="cls-245" d="M417.34,472.11c-21.69-.5,26.08-18.65,38.19-5.71C453.64,470.38,457.7,464.56,417.34,472.11Z"/><path class="cls-252" d="M401.32,469.36c1.25.64,9.07-4,6,5.7C405.52,470,405.56,475.16,401.32,469.36Z"/><path class="cls-177" d="M417.34,472.11c.28-1.47,26.6-1.52,8.67,1.16C425.75,470.07,419.28,482.8,417.34,472.11Z"/><path class="cls-252" d="M455.32,466.18c-9-11.26-68.89,16-34.72-12.29,9.35,9.94,20.18.54,37.58-21.91C454.68,441.19,469.86,460.1,455.32,466.18Z"/><path class="cls-253" d="M599.32,428.2c-.64-1.34,42.12-27.44,26-13.31A97.83,97.83,0,0,1,599.32,428.2Z"/><path class="cls-253" d="M631.41,408.32c.29-3.75,2.45-3.27,4.88-2.15C635.05,407.75,633.1,407.74,631.41,408.32Z"/><path class="cls-190" d="M245.41,341.26c-20.83-50.33,36.83-58.31,32.72-28C270.09,312.62,261.1,301.71,245.41,341.26Z"/><path class="cls-189" d="M245.43,302.31c13.16,20.84-38.88,36.81-34.72,21.16C257.75,314.85,199.84,307.53,245.43,302.31Z"/><path class="cls-189" d="M264.38,291.12c-3.28,6.34,1.41,14.4-18,11.15C249.25,302,241.62,296.92,264.38,291.12Z"/><path class="cls-190" d="M263.53,291.14c2.13-2.07-19.08,10.87-11.94,2.2C258.89,290.45,251.87,277.86,263.53,291.14Z"/><path class="cls-189" d="M255.39,291.31h0C254,296.88,229.07,301.43,255.39,291.31Z"/><path class="cls-254" d="M298.34,303.32c-69.08-52.89,103-30,153.19-44.73,15.56-22.85,29.69,85.55,7.71,53.57-45.52-117.65-137,57.15-132.25,29.11,4.37-54.36,97.62-63.94-24.44-62.61-5.74-5.33,21.63,17,6.25,9.81-40.21-3.15,2.93,6.36,10.81,17.51,7,23.19-16.77,33.22,8.17,44.88,9.23,3.83-17.64,11.88-21.81,9.54C306.61,355,323.81,317.72,298.34,303.32Z"/><path class="cls-255" d="M282.38,406.27C291.74,377,213.5,388.54,294,353.15,327.92,385.61,254.73,463.24,282.38,406.27Z"/><path class="cls-256" d="M298.34,303.32c20-5.22,9.08,47.14,15.72,53.37C359.33,329.93,306.89,494.76,298.34,303.32Z"/><path class="cls-257" d="M428.37,261.25c-34.31,25.12-158.35-22.06-142,35.4C289.42,277.44,185.52,264.6,428.37,261.25Z"/><path class="cls-255" d="M296.39,342.27c-12.24-5.06-6.52-23.18-14.92-22.79C302.17,317.16,303.55,323.62,296.39,342.27Z"/><path class="cls-258" d="M297.48,361.31c4.8-2.79,18.8,28,6.5,16.25C304.1,373.36,290.16,366.93,297.48,361.31Z"/><path class="cls-257" d="M290.39,299.31c2.7-.07,5.9-.63,4,4A6.18,6.18,0,0,1,290.39,299.31Z"/><path class="cls-259" d="M313.24,264.43c-36.86-11.13,91.17,21.41,172.51-33.16C480.9,246.4,444.37,272.4,313.24,264.43Z"/><path class="cls-224" d="M198.41,382c.64-1.43.4-2.94,2.09-7.23C202.73,376.67,206.82,377.62,198.41,382Z"/><path class="cls-228" d="M224.41,357.31c1.09,1.63,0,0-.8,4C221.1,361.52,210.58,363.65,224.41,357.31Z"/><path class="cls-186" d="M184.44,363.28a4.37,4.37,0,0,1,3.85-4.13C192.25,365.43,185.87,362,184.44,363.28Z"/><path class="cls-224" d="M179.48,415.3c0-1,0,0,0-3C180.41,411,185.49,411,179.48,415.3Z"/><path class="cls-203" d="M429.39,261.33c18.23-5.09,63.66-26.72,41.32-6.82C489.57,242.36,507.15,269.55,429.39,261.33Z"/><path class="cls-203" d="M506.35,261.28c3.53-15.42-18.46-6.73-14-20C502.45,236.08,513.49,241.15,506.35,261.28Z"/><path class="cls-140" d="M498.37,241.29c-.53-.43-17,2-9.68-4.72C494.71,231.27,498.54,230.68,498.37,241.29Z"/><path class="cls-207" d="M479.21,240.12c-1.83-4.65,20.75-19.38,9.17-7.37C486.06,232.7,489.67,236.14,479.21,240.12Z"/><path class="cls-143" d="M493.37,229.28c1.68-.91-19.64,4.78-3-5C490.66,223.82,498.1,224.28,493.37,229.28Z"/><path class="cls-207" d="M479.36,243.27c-6.38,4.32-19.25,3.21-.15-3.16C479.17,240.32,481.42,241.11,479.36,243.27Z"/><path class="cls-140" d="M532.38,268.29c-3.19,2.61-4.8,3.89,0,0C535,268,524.61,277.21,532.38,268.29Z"/><path class="cls-203" d="M480.35,242.28c-.31-.66,0,0-.94-2C481,239.31,488.67,235.26,480.35,242.28Z"/><path class="cls-170" d="M545.36,297.27c-.75-2-2.05-2,0,0C543.55,301.35,536.45,314.38,545.36,297.27Z"/><path class="cls-141" d="M593.32,248.21c0-.24-1,.68-1-.36C590.38,247.66,599.06,240.67,593.32,248.21Z"/><path class="cls-260" d="M472.42,239.32c-1.2,1.6,39.87-49.47,26.76-26.33C492.94,218.9,482,235.67,472.42,239.32Z"/><path class="cls-261" d="M622.35,322.28c-3.22-5.09-.82-45.65-5.66-10.12C602.74,292.82,645.92,264.74,622.35,322.28Z"/><path class="cls-147" d="M629.36,403.27h0C625.53,402.56,628.14,388.51,629.36,403.27Z"/><path class="cls-157" d="M698.92,303.8h0C699.05,305,700.28,314.35,698.92,303.8Z"/><path class="cls-213" d="M600.33,344.26c.46-34.5,13.85,12.94,25.89-30.86C625.82,307.4,636.57,359.37,600.33,344.26Z"/><path class="cls-168" d="M612.36,397.26c-23.78-1,3.25-16.27,7-46C634.33,388.12,600.61,366.8,612.36,397.26Z"/><path class="cls-214" d="M619.37,351.27c-10.94,8.57-15.21-18.86-5.73-3.19C616.67,347.81,619.65,333.58,619.37,351.27Z"/><path class="cls-214" d="M620.38,347.24c-1.51-6,13.18-14.64,3.5,1.9C623.44,349.58,622.76,350,620.38,347.24Z"/><path class="cls-212" d="M625.32,330.19c1.15-5-6.33-26.52.64-27.66C632.7,308.82,636.81,303.75,625.32,330.19Z"/><path class="cls-148" d="M671.52,242.17c.57-4.42-1.06,29.45-1.14,6.56C670.75,252.43,669.41,232.71,671.52,242.17Z"/><path class="cls-148" d="M675.3,233.4c-.7,3.28,1.73,7.18-1.93,9.88C672.21,239.63,671.14,236,675.3,233.4Z"/><path class="cls-225" d="M261.4,370.26c.43-.29-29.44,14.56-10.88-1.69C255.36,363.93,258.8,361.26,261.4,370.26Z"/><path class="cls-225" d="M279.41,358.28c6.14,1,6.91,3.08-18,12C265.08,369.69,258.83,365,279.41,358.28Z"/><path class="cls-262" d="M284.41,429.26c-12.07.65-4.51,49-9.33,27.82C283.39,461.48,190,460.57,284.41,429.26Z"/><path class="cls-229" d="M283.38,429.24c-26.3,19.54-19.78-21.63-11.64-3.4C280.45,429.63,314.21,396.92,283.38,429.24Z"/><path class="cls-163" d="M265.39,465.25c10.12-11.7-15.55,29.94-17.91,14.6C249.31,465,247.45,470.83,265.39,465.25Z"/><path class="cls-229" d="M265.39,437.25c.8-.2-9.34,19.7-9.17,9.86C258,443.28,250.73,437.17,265.39,437.25Z"/><path class="cls-255" d="M267.41,416.23c1.57-4,4.26-3.71,9.62-17.32C279.21,398.5,283.21,405.05,267.41,416.23Z"/><path class="cls-255" d="M261.4,413.26c-4.56-.17,12.38-16.86,7.4-4C265.18,415.86,265.14,408.34,261.4,413.26Z"/><path class="cls-262" d="M261.34,439.26c-1.28.66-3.45,0,0-6C264.81,434.82,262.64,433.24,261.34,439.26Z"/><path class="cls-251" d="M331.49,482.16c-12.21-2.93-20.63-81.22,8.52-32.84C334.66,473.07,319.39,416.54,331.49,482.16Z"/><path class="cls-163" d="M321.47,440.22c-2.11,24.07-9.6.37-18.06,19C301.32,452.57,313.91,425.11,321.47,440.22Z"/><path class="cls-263" d="M319.39,457.26c-1.12,4.68,21.75,20.59-4.91,36.07C315.6,482.29,327.76,487.09,319.39,457.26Z"/><path class="cls-163" d="M298.47,456.32h0C293.55,450.38,300.16,428.25,298.47,456.32Z"/><path class="cls-163" d="M307.34,471.56c-.19-3.63-1.8-5,0,0C308,478.31,296,469.81,307.34,471.56Z"/><path class="cls-219" d="M191.41,510.26h0C192.75,510.24,200.19,511.49,191.41,510.26Z"/><path class="cls-264" d="M291.4,422.27c5.13-24.67,17.64-39.49,19.74,2.53C306,412.46,280.17,449.76,291.4,422.27Z"/><path class="cls-255" d="M290.39,433.26c4.52-8.22,14.45-7,5,2C296.85,430.06,287.11,441.54,290.39,433.26Z"/><path class="cls-255" d="M291.4,422.27c-2.86.34-3.85,1.66,0,0C296.42,422.85,276.44,436.55,291.4,422.27Z"/><path class="cls-229" d="M297.38,437.24c-.68,3.1,1.61-33.44,8-7C300.6,429.57,306.9,444.58,297.38,437.24Z"/><path class="cls-255" d="M305.4,430.25c-13.1-11.46,14.24-13.34,1-2.94C305.53,424.4,308.58,443.31,305.4,430.25Z"/><path class="cls-229" d="M321.38,438.27c-5.34,3.7,2.86,7.75-6-5C313.78,429.54,324.72,421.05,321.38,438.27Z"/><path class="cls-255" d="M320.4,429.26c1.85-.35-13.84-1.67-6-7C316.24,423.05,318.17,423.42,320.4,429.26Z"/><path class="cls-229" d="M311.4,424.27h0C318.88,428.18,300.16,431.81,311.4,424.27Z"/><path class="cls-265" d="M331.49,482.16c2.82-2.18-15.49-49.83-1.33-30.65C335,446.37,353.81,481.59,331.49,482.16Z"/><path class="cls-178" d="M340.47,475.3c2.22-17.73,26.59,32-10.06,32.95C337.92,503.07,352.46,507.59,340.47,475.3Z"/><path class="cls-251" d="M332.38,483c-.31-9.39,13.84-3.89,5.67,4.88C337.85,485.78,337.69,484,332.38,483Z"/><path class="cls-231" d="M353.37,494.25c-9.33,9.71-11.82-14.33-3.06-13C352.88,486.3,352.51,481.64,353.37,494.25Z"/><path class="cls-178" d="M355.38,483.25c-1,4.39-.95,6.66,0,0C355.2,472.32,364.41,497.71,355.38,483.25Z"/><path class="cls-165" d="M320.43,516.35c-.88-2.94-1.13-2.64,0,0C319.56,517.12,305.28,515.26,320.43,516.35Z"/><path class="cls-247" d="M356.36,499.22a25.22,25.22,0,0,1-7.94,5.06C350.25,501.3,352,498.19,356.36,499.22Z"/><path class="cls-243" d="M458.36,432.26c-14.66,17.89-18.15,13.31-12.83-18.08-31.2,17.74-56-21.52,3.75-13.29-7.55-24.77,17.08-49.12,39-74.23C479.76,371,501.19,377.05,458.36,432.26Z"/><path class="cls-266" d="M497.42,313.32c-19.27,39-32-25.78-19.63-44C495.43,251.82,495.54,289.05,497.42,313.32Z"/><path class="cls-267" d="M476.3,324.2c25.51-13.88,23.95,8-1.62,18.79C477.61,342,463.06,338.76,476.3,324.2Z"/><path class="cls-268" d="M497.42,313.32c4-1.47-13.44-30.32,1.86-19.91C499,298.23,508.9,308.77,497.42,313.32Z"/><path class="cls-171" d="M502.37,351.28c2.86-5.75,1-9,0,0C500.58,363.17,487,342.39,502.37,351.28Z"/><path class="cls-269" d="M499.37,298.29c-15.8-19,20.54-46.91-34-31C491.29,249.11,511.37,239.94,499.37,298.29Z"/><path class="cls-235" d="M499.37,298.29c-1.75-1.56,20-1,2,14C501.79,309.62,502.84,307.72,499.37,298.29Z"/><path class="cls-269" d="M508.33,307.24c.41,3.6-7.95-15.08,4-5C507.74,303.11,510.89,305.22,508.33,307.24Z"/><path class="cls-171" d="M507.36,376.27c-6.7,2.46-3.14-30.85.15-12.69C507.86,365.9,508,367.72,507.36,376.27Z"/><path class="cls-235" d="M516.64,353.54c4.47-4.58,5.5-7.1,0,0C517.45,352.47,517.48,336.44,516.64,353.54Z"/><path class="cls-171" d="M505.37,356.27q-1-2.5-2-5C507.88,353.35,507.88,353.35,505.37,356.27Z"/><path class="cls-168" d="M585.25,383.14h0C584.19,381.84,584.17,363.91,585.25,383.14Z"/><path class="cls-168" d="M586.35,344.28c.69,1.66,4.44,2.08,2,5C584.47,348.92,585.07,346.74,586.35,344.28Z"/><path class="cls-168" d="M602.37,391.27c-2.65-2.2-3.31-1.18-1.46-7.93C601.39,386,600.91,383.33,602.37,391.27Z"/><path class="cls-239" d="M577.54,330.25c-1,4,19.41-23.38,13.33-9.76C588.84,335.69,615.43,348.63,577.54,330.25Z"/><path class="cls-210" d="M585.36,273.29c-1.38,2.22,9.89-11.08,4.59-2.13C589.54,270.7,588.17,271.58,585.36,273.29Z"/><path class="cls-235" d="M484.35,371.32c1.18-2.87,4-5.61,2.92,3.76C492.74,377.47,485.46,389.14,484.35,371.32Z"/><path class="cls-244" d="M484.35,371.32c16.39,110.37-53.2,47.68-2.49,32.62C482.66,404.72,482.21,394.31,484.35,371.32Z"/><path class="cls-245" d="M486.37,426.25c-2,1.16,1.11-30.73,4.75-14.55C490.93,414.13,491.51,413.14,486.37,426.25Z"/><path class="cls-270" d="M416.43,414.31c40.44,14.18,23.31,13-23.13,50.64C379.62,458.28,375.89,430.39,416.43,414.31Z"/><path class="cls-271" d="M354.37,430.28c-2.18-8.38-38-34.66,8.45-55.35C397.13,353,447,320,354.37,430.28Z"/><path class="cls-243" d="M357.38,431.24c11.91-20.32-22.48,10,41.71-48.5C422,387.05,394.32,422,357.38,431.24Z"/><path class="cls-264" d="M335.39,399.27c-2.45,18.83.75,25,19.8,11.1,3.37,27.62-32.72,12.47-5.82,43.88C352.76,460.6,290.45,429.49,335.39,399.27Z"/><path class="cls-272" d="M406.41,400.27c-7.38,3.26,5.36-30.55,28-5.83C449.13,400.3,399.5,413.54,406.41,400.27Z"/><path class="cls-178" d="M339.36,451.26c23-11.29,19.34,33.62,14.07,11.25C351.48,447.06,338.66,488.35,339.36,451.26Z"/><path class="cls-243" d="M403.38,405.26c3-1.22,24.18-5.63.31,9.11C403.3,412.59,402.37,411.1,403.38,405.26Z"/><path class="cls-243" d="M354.37,430.28c6.29-2.89-2,14.74-6.88,7.42C346.63,435.63,351.35,437,354.37,430.28Z"/><path class="cls-272" d="M410.37,412.25h0C402.45,415.36,423.08,395.14,410.37,412.25Z"/><path class="cls-249" d="M392.39,436.27c0-.78-10.49,10.79-7.12,4.69C387.83,436.87,384.61,436.36,392.39,436.27Z"/><path class="cls-264" d="M353.41,452.27c.49-2.56,3.65-3.79,4.95,1C356.74,452.92,356.49,454.38,353.41,452.27Z"/><path class="cls-231" d="M341.47,471.26c-.14.59-.16.89,0,0C344.06,465.35,346.8,478.71,341.47,471.26Z"/><path class="cls-273" d="M330.39,350.27c-38.92,1.92,21.33-44.08-37.16-54.72-18.21-21,45.83,2.26,3.41-16.29C428.14,277.38,336.17,272.15,330.39,350.27Z"/><path class="cls-274" d="M329.34,383.27c-9.7-12.35,30.51-118.78,57.33-95.44C380.32,292.62,365.2,293.25,329.34,383.27Z"/><path class="cls-275" d="M370.35,294.35c33.42-29.12,35.37-8.7,72.81-9.7C385.69,292.83,470.55,317.17,370.35,294.35Z"/><path class="cls-276" d="M476.3,324.2c-6.94-12.93-2.84,99.63-34.18-35.95,7.13-4.79,2.49,18,25,41C469.76,326.28,473.72,306.47,476.3,324.2Z"/><path class="cls-277" d="M449.35,293.3c-3.21,1.4-4.77-20.23-35.44-4.9C384.9,285,447.35,251.73,449.35,293.3Z"/><path class="cls-277" d="M470.32,321.2c4.1,25.14-32.28-20.14-21-27.9C461.58,293,456.65,323.31,470.32,321.2Z"/><path class="cls-278" d="M476.19,297.17c-11.19,13-19.22-34.28-6.18-18C469.64,283.51,471.43,285.48,476.19,297.17Z"/><path class="cls-279" d="M472.39,300.3c8-8.49,4.47,18.35-1.15,12.77C473.9,310.05,469,313.76,472.39,300.3Z"/><path class="cls-267" d="M471.58,315.32c1.5-7.71,10.3.52,10.8,3.94C481,318.13,479.86,327.28,471.58,315.32Z"/><path class="cls-273" d="M368.4,269.28c6.69,0,12,14.38-2.45,2.71C365.21,269.86,366,272,368.4,269.28Z"/><path class="cls-269" d="M469.34,279.3c-3.92,3-1.17-13.14,7-9.86C474.92,271.24,474.11,272.82,469.34,279.3Z"/><path class="cls-257" d="M295.19,271.73c-1.7.22-1.57,1.24,0,0C297.12,271.77,299.64,277,295.19,271.73Z"/><path class="cls-273" d="M379.38,284.29c1.54,1.6,0,0-1,2.94C379,287.43,372.93,281.8,379.38,284.29Z"/><path class="cls-256" d="M335.38,339.26c-1.61.11-2,1,0,0C336.84,338.09,335.52,347.25,335.38,339.26Z"/><path class="cls-273" d="M335.38,339.26l-2,1C330.64,339.87,340.28,333.64,335.38,339.26Z"/><path class="cls-258" d="M329.34,383.27c8.46,40.34-34.29,58.48-23.9.64C321.85,378.86,304,427.58,329.34,383.27Z"/><path class="cls-191" d="M309.31,383.26c-3.19,9.58-17.63-12.09-5.44-11.42C298.78,377,312.73,378.81,309.31,383.26Z"/><path class="cls-192" d="M313.23,264.43c3.13,1.31,4.74,1.81,0,0C312.52,265.6,319.75,261.76,313.23,264.43Z"/><path class="cls-223" d="M261.34,439.26c-2.65-.92,10.08-18.5,6.26-6.5C264.2,434,269.59,435.24,261.34,439.26Z"/><path class="cls-255" d="M303.4,399.26c1.6,1.81,3,1,0,0C302.09,400.75,311.71,392.64,303.4,399.26Z"/><path class="cls-251" d="M336.39,456.26c.33,5.55,2.9,6.7,0,0C340.59,450.37,346.26,473,336.39,456.26Z"/><path class="cls-280" d="M445.38,308.28c27.55,147.85-52.63,64.07-18,36C408.24,344.61,369.09,343.88,445.38,308.28Z"/><path class="cls-281" d="M440.38,381.27c-14.7,25.84,8.61-36,19-43.61C473.55,327.63,440,443.57,440.38,381.27Z"/><path class="cls-244" d="M448.1,437.74c-7-2.06,4.36-22.28,8.67-14.33C454.47,428.92,465.58,427.23,448.1,437.74Z"/><path class="cls-282" d="M431.39,420.29c-1.63,1.57-9,8.33-12.06-5.05C421.3,418.11,430.1,411.56,431.39,420.29Z"/><path class="cls-249" d="M431.39,420.29c2.72.57,1.83.49,0,0C428.67,420.06,439.16,416.49,431.39,420.29Z"/><path class="cls-283" d="M469.34,279.3c26.83-62.4,35.82,37.4,20.84.77,8.44-21.76-9.15-17.16-18.7,2.11C484.67,280.45,473.12,312.88,469.34,279.3Z"/><path class="cls-245" d="M483,419.34c-.08,4.49-.08,4.49-2.92,7.2C480.17,424.18,480.17,424.18,483,419.34Z"/><path class="cls-249" d="M391.79,450.18c-.11-4.61,1.43-8.35,5.93-10.36C396.13,443.46,393,446.23,391.79,450.18Z"/><path class="cls-280" d="M328.34,401.22C318.69,401,375,296.06,391.8,296.28,406.84,294.85,368.56,376.69,328.34,401.22Z"/><path class="cls-284" d="M390.39,343.28c19.13-7.37,51.34,1.26,47.11,2.18C434.28,350.46,362.13,373.14,390.39,343.28Z"/><path class="cls-285" d="M401.39,361.29c10.49,1,23.83,15.68-15.93,27.69C393.94,385.82,394.32,369.88,401.39,361.29Z"/><path class="cls-284" d="M365.38,371.26c17-56.83,17.44,17.11,8.09-4.35C372.18,368.92,356.68,385.47,365.38,371.26Z"/><path class="cls-280" d="M341.4,421.3c-21,5.46,9-38.12,12.79-28.59C352.49,394.53,347.53,391.17,341.4,421.3Z"/><path class="cls-280" d="M333.47,407.28c-3.46-.15,1.08-9.74,7.13-6.17C338.54,401.62,337,402.27,333.47,407.28Z"/><path class="cls-272" d="M403.37,381.23c10.06-1.87-.28-19.4,23.81-12.69C421.78,369.5,417.59,393.18,403.37,381.23Z"/><path class="cls-272" d="M407.35,389.24c-2.13-.15-19.78.82,0-4C408.14,386.1,413.4,387.38,407.35,389.24Z"/><path class="cls-271" d="M371.86,415c-5.53,2.42-7.58,3.36,0,0C370.5,414.34,364.82,432.2,371.86,415Z"/><path class="cls-285" d="M407.4,389.28c-3.76-1.83,25.21-24.17,23.41-17.17C423.84,369.83,444.67,388.48,407.4,389.28Z"/><path class="cls-250" d="M353.41,452.27l3,1C356.11,454.34,353,459.8,353.41,452.27Z"/><path class="cls-286" d="M378.4,296.29c-8.67,12.77,29.19-27.67-48,87C338.41,363.07,337.49,328.8,378.4,296.29Z"/><path class="cls-280" d="M375.36,296.3c-3.66-.48-5-1.95,0,0C376.84,299.11,370.27,300.2,375.36,296.3Z"/><path class="cls-287" d="M391.31,318.36C412,295.61,358.84,291.92,432,305.42,397.19,246.21,498.14,336.4,391.31,318.36Z"/><path class="cls-280" d="M460.36,353.26c-2.1,1.44-3.14,4.33-3.55-3.64C455.19,345.63,467.56,337.41,460.36,353.26Z"/><path class="cls-264" d="M329.37,394.28c1.45.18,0,0,4.58-.51C334.4,393.26,328.66,398.23,329.37,394.28Z"/><path class="cls-271" d="M400.39,327.29c32-4.64,12.71,2.27-10,9C368.54,343.87,346.66,342.17,400.39,327.29Z"/><path class="cls-284" d="M417.39,367.27h0C396.05,370.23,439.39,342.57,417.39,367.27Z"/><path class="cls-284" d="M383.38,337.28c8.24-2.76,11.94,6.82-8.71,10.93C372.27,347.56,372.91,345.11,383.38,337.28Z"/><path class="cls-280" d="M440.38,381.27h0C437.81,379.86,450.54,376.69,440.38,381.27Z"/><path class="cls-288" d="M395.38,325.79c-15.75,6.57-32.34-7.45,3.87-5C400.64,323.66,395.69,318.63,395.38,325.79Z"/><path class="cls-271" d="M365.38,371.26c1.69,1.81-22.7,11.37-14.7,4.52C344.67,378.44,343.41,370.5,365.38,371.26Z"/><path class="cls-271" d="M366.39,350.28c5.6,3-21.24,17.66-5.59-.57C362.09,346.56,360.81,349.69,366.39,350.28Z"/><path class="cls-271" d="M373.4,345.28c-4.32,1.35-2.75,1.09,0,0C379.06,348.8,361.29,355.35,373.4,345.28Z"/><path class="cls-280" d="M372.39,350.28c8.23-11.25,25.69-3,1.94,3.73C376,352.78,378.67,347.61,372.39,350.28Z"/><path class="cls-271" d="M383.39,361.27c-4.71-1.92-8.29-6.46,5.12-9.58C388.1,354.78,385.54,354,383.39,361.27Z"/><path class="cls-271" d="M381.37,353.25c.52,1.59.57-9.59,4.1-2.55C385.38,350.32,383.87,353.09,381.37,353.25Z"/><path class="cls-271" d="M370.38,371.26c-.14.87-.37-8.84,4.5-5C373.63,367.09,377.56,367.72,370.38,371.26Z"/><path class="cls-271" d="M375.39,349.25c1.23-1.16,0,0,5-1.45C379.53,346.42,378.35,355.18,375.39,349.25Z"/><path class="cls-285" d="M409.79,378c2.54-.47,2.74-6,9.32-5.8C418.14,375.44,416.92,375.73,409.79,378Z"/><path class="cls-280" d="M423.36,301.25c.19-.9,29.28,7.32,14.46,6.73C434,307.16,431.34,306.15,423.36,301.25Z"/><path class="cls-276" d="M428.41,290.64c3.84-3.72,7.45-.4,11.15.39C435.81,292.31,432.07,297,428.41,290.64Z"/><path class="cls-280" d="M395.38,326.28c-5.63-3.53,22.87-5.9,8.81-2.33C402.58,322.88,405.35,329.86,395.38,326.28Z"/><path class="cls-280" d="M395.39,321.26c-1.89,1.91,0,0-4-1C390.07,321,399.44,315.78,395.39,321.26Z"/></g></g></svg>